<svg xmlns="http://www.w3.org/2000/svg" width="48" height="48" viewBox="0 0 48 48">
  <g class="neo-icon-kit--accessibility">
    <path fill="#006FCF" fill-rule="evenodd" d="M0 24C0 37.2548 10.7452 48 24 48C37.2548 48 48 37.2548 48 24C48 10.7452 37.2548 0 24 0C10.7452 0 0 10.7452 0 24ZM45 24C45 35.598 35.598 45 24 45C12.402 45 3 35.598 3 24C3 12.402 12.402 3 24 3C35.598 3 45 12.402 45 24ZM29.4746 17.9846L35.0789 16.7934C35.8892 16.6211 36.6857 17.1384 36.858 17.9487C37.0302 18.759 36.5129 19.5556 35.7026 19.7278L28.0793 21.4846C27.8208 22.2991 27.3872 24.5488 27.9788 28.3097C28.4477 31.2908 29.2354 34.2298 30.3418 37.1268C30.5563 37.927 30.0814 38.7495 29.2812 38.9639C28.481 39.1783 27.6585 38.7035 27.4441 37.9033C25.915 32.2872 25.0932 29.3132 24.9786 28.9813L24.9555 28.9142C24.793 28.4397 24.6372 27.9846 23.9786 27.9846C23.3618 27.9846 23.2088 28.3836 23.0399 28.824C23.02 28.8761 22.9998 28.9287 22.9786 28.9813C22.8449 29.3132 22.0373 32.2769 20.5559 37.8724C20.3415 38.6726 19.519 39.1475 18.7188 38.9331C17.9186 38.7187 17.4437 37.8962 17.6582 37.096C18.8744 33.4344 19.6436 30.5636 19.9658 28.4836C20.3848 25.7791 20.055 22.518 19.8439 21.4846L12.2974 19.7278C11.4871 19.5556 10.9698 18.759 11.142 17.9487C11.3143 17.1384 12.1108 16.6211 12.9211 16.7934L18.5254 17.9846H29.4746ZM21 11.9846C21 13.6414 22.3431 14.9846 24 14.9846C25.6569 14.9846 27 13.6414 27 11.9846C27 10.3277 25.6569 8.98459 24 8.98459C22.3431 8.98459 21 10.3277 21 11.9846Z" class="svg-primary-fill" clip-rule="evenodd"/>
  </g>
</svg>
