<svg xmlns="http://www.w3.org/2000/svg" width="48" height="48" viewBox="0 0 48 48">
  <g class="neo-icon-kit--accessibility-filled">
    <path fill="#006FCF" fill-rule="evenodd" d="M24 48C10.7452 48 0 37.2548 0 24C0 10.7452 10.7452 0 24 0C37.2548 0 48 10.7452 48 24C48 37.2548 37.2548 48 24 48ZM18.5254 17.9846L12.9211 16.7934C12.1108 16.6211 11.3143 17.1384 11.142 17.9487C10.9698 18.759 11.4871 19.5556 12.2974 19.7278L19.8439 21.4846C20.055 22.518 20.3848 25.7791 19.9658 28.4836C19.6436 30.5636 18.8744 33.4344 17.6582 37.096C17.4437 37.8962 17.9186 38.7187 18.7188 38.9331C19.519 39.1475 20.3415 38.6726 20.5559 37.8724C22.0373 32.2769 22.8449 29.3132 22.9786 28.9813C22.9998 28.9287 23.02 28.8761 23.0399 28.824C23.2088 28.3836 23.3618 27.9846 23.9786 27.9846C24.6372 27.9846 24.793 28.4397 24.9555 28.9142L24.9786 28.9813C25.0932 29.3132 25.915 32.2872 27.4441 37.9033C27.6585 38.7035 28.481 39.1783 29.2812 38.9639C30.0814 38.7495 30.5563 37.927 30.3418 37.1268C29.2354 34.2298 28.4477 31.2908 27.9788 28.3097C27.3872 24.5488 27.8208 22.2991 28.0793 21.4846L35.7026 19.7278C36.5129 19.5556 37.0302 18.759 36.858 17.9487C36.6857 17.1384 35.8892 16.6211 35.0789 16.7934L29.4746 17.9846H18.5254ZM27 11.9846C27 13.6414 25.6569 14.9846 24 14.9846C22.3431 14.9846 21 13.6414 21 11.9846C21 10.3277 22.3431 8.98459 24 8.98459C25.6569 8.98459 27 10.3277 27 11.9846Z" class="svg-primary-fill" clip-rule="evenodd"/>
  </g>
</svg>
