<svg xmlns="http://www.w3.org/2000/svg" width="48" height="48" viewBox="0 0 48 48">
  <g class="neo-icon-kit--account-double-filled">
    <path fill="#006FCF" d="M47 35.6C46.9 34.9 46.7 33.8 46 32.7C45.5 31.9 44.7 31.2 43.6 30.5L43 30.2C41.5 29.3 40.1 28.5 38.9 27.8L36.2 26.3C36.2 26.3 36.1 26.3 36.1 26.2C36.1 26.2 35.7 25.9 35.3 24L35.2 23.7V23.6V23.4V23.3C36.6 22 37.5 20.1 38 17.7C38.4 15.5 38.3 13.6 38.3 12.8V12.5C38.1 8.7 36.5 6.7 35.1 5.7C33.2 4.3 31.2 4 29.9 4H29.7C29.7 4 29.6 4 29.5 4H29.3C25.7 4 23.7 5.7 22.7 7.2C22 7.1 21.4 7 20.9 7H20.6H20.4C17.1 7 14.8 8.4 13.4 10.4C12.1 12.2 11.8 14.3 11.7 15.5C11.7 15.5 11.7 15.5 11.7 15.6V15.9C11.6 17 11.5 18.9 11.9 20.9C12.2 22.8 13 25.4 14.8 27.2C14.8 27.2 14.8 27.2 14.9 27.3L15 27.4L14.9 27.8C14.9 27.9 14.9 27.9 14.9 28C14.7 29 14.5 29.7 14.3 30.2C14.1 30.6 14 30.7 14 30.7L11.9 31.9C10.5 32.7 8.40004 33.9 6.40004 35.1L6.10004 35.3C5.10004 35.9 4.20004 36.6 3.60004 37.5C2.90004 38.5 2.60004 39.5 2.40004 40.4V40.6C2.30004 41.5 2.50004 42.3 3.10004 43C3.70004 43.7 4.50004 44 5.40004 44H36.4C37.3 44 38.1 43.6 38.6 43C39.2 42.4 39.4 41.5 39.3 40.6C39.2 40.1 39.1 39.5 38.9 39H44C44.9 39 45.7 38.6 46.2 38C46.8 37.3 47.1 36.5 47 35.6ZM20.4 10C20.3 10 20.3 10 20.4 10C20.3 10 20.3 10 20.4 10ZM36.4 36C36.1 35.8 35.8 35.6 35.5 35.4L34.8 35C33.2 34 31.7 33.1 30.4 32.4L27.5 30.7C27.5 30.7 27.5 30.7 27.4 30.7C27.4 30.7 27.3 30.6 27.1 30.3C26.9 29.9 26.7 29.3 26.4 28.2L26.3 27.9V27.8L26.2 27.6C26.2 27.5 26.2 27.5 26.2 27.4C28.1 25.7 28.9 23.3 29.2 21.5C29.6 19.5 29.6 17.6 29.5 16.4V16.1C29.3 12.8 28.1 10.4 26.2 8.9C26 8.8 25.8 8.6 25.6 8.5C26.5 7.4 27.7 7 29.3 7H29.4H29.6H29.7C30.6 7 31.9 7.2 33 8C34.2 8.9 34.9 10.5 35 12.5V12.6V12.7V13C35 13.5 35.1 15.2 34.8 17C34.4 18.9 33.8 20.2 32.8 21.1L32.4 21.4C32 21.7 31.8 22.2 31.9 22.7L32 23.4C32 23.6 32.1 23.7 32.1 23.9L32.2 24.4C32.7 26.8 33.4 28 34.5 28.6L37.3 30.2C38.5 30.9 39.9 31.7 41.3 32.6L42 33C42.7 33.4 43.2 33.9 43.4 34.3C43.7 34.7 43.8 35.2 43.9 35.9H36.4V36Z" class="svg-primary-fill"/>
  </g>
</svg>
