<svg xmlns="http://www.w3.org/2000/svg" width="48" height="48" viewBox="0 0 48 48">
  <g class="neo-icon-kit--account-double">
    <path fill="#006FCF" d="M47.0002 35.6C46.9002 34.9 46.7002 33.8 46.0002 32.7C45.5002 31.9 44.7002 31.2 43.6002 30.5L43.0002 30.2C41.5002 29.3 40.1002 28.5 38.9002 27.8L36.2002 26.3C36.2002 26.3 36.1002 26.3 36.1002 26.2C36.1002 26.2 35.7002 25.9 35.3002 24L35.2002 23.7V23.6V23.4V23.3C36.6002 22 37.5002 20.1 38.0002 17.7C38.4002 15.5 38.3002 13.6 38.3002 12.8V12.5C38.1002 8.7 36.5002 6.7 35.1002 5.7C33.2002 4.3 31.2002 4 29.9002 4H29.7002C29.7002 4 29.6002 4 29.5002 4H29.3002C25.7002 4 23.7002 5.7 22.7002 7.2C22.0002 7.1 21.4002 7 20.9002 7H20.7002C20.7002 7 20.6002 7 20.5002 7C20.4002 7 20.3002 7 20.3002 7C16.5002 7 14.4002 8.9 13.3002 10.4C12.1002 12.1 11.7002 14.1 11.6002 15.5V15.8C11.5002 16.9 11.5002 18.9 11.8002 20.8C12.3002 23.5 13.2002 25.6 14.8002 27.1L14.9002 27.2L14.8002 27.6C14.8002 27.7 14.8002 27.7 14.8002 27.8C14.4002 29.9 14.0002 30.4 13.9002 30.4L11.7002 31.6C9.60024 32.9 7.70024 34 6.00024 35L5.80024 35.2C4.70024 35.9 3.90024 36.6 3.30024 37.4C2.70024 38.2 2.30024 39.2 2.10024 40.4V40.6C2.00024 41.5 2.20024 42.3 2.80024 43C3.40024 43.7 4.20024 44 5.10024 44H36.1002C37.0002 44 37.8002 43.6 38.3002 43C38.9002 42.4 39.1002 41.5 39.0002 40.6C38.9002 40.2 38.8002 39.6 38.6002 39H44.0002C44.9002 39 45.7002 38.6 46.2002 38C46.8002 37.3 47.1002 36.5 47.0002 35.6ZM5.00024 41V40.8C5.10024 40.1 5.30024 39.6 5.60024 39.1C6.00024 38.6 6.50024 38.2 7.30024 37.7L7.50024 37.6C8.90024 36.7 10.5002 35.8 12.1002 34.9C12.4002 34.7 12.7002 34.6 13.0002 34.4L15.2002 33.1C16.2002 32.5 16.8002 31.3 17.3002 29.3C17.4002 29 17.4002 28.8 17.5002 28.5L17.8002 27C17.9002 26.5 17.7002 25.9 17.3002 25.6L16.7002 25C15.7002 24 15.0002 22.5 14.7002 20.4C14.4002 18.8 14.4002 17.1 14.5002 16.2V16.1V15.7C14.6002 14.7 14.9002 13.3 15.7002 12.1C16.7002 10.7 18.2002 10 20.3002 10H20.4002C20.5002 10 20.6002 10 20.7002 10H20.9002C21.0002 10 21.2002 10 21.3002 10C22.2002 10.1 23.2002 10.3 24.2002 10.9C24.3002 10.9 24.3002 11 24.4002 11C25.7002 12 26.4002 13.7 26.5002 15.9V16V16.1V16.4C26.5002 16.9 26.6002 18.7 26.2002 20.7C26.2002 20.8 26.1002 21 26.1002 21.1C25.7002 22.9 25.0002 24.2 24.0002 25L23.5002 25.4C23.1002 25.7 22.9002 26.2 23.0002 26.7L23.1002 27.5C23.1002 27.7 23.2002 27.9 23.2002 28L23.3002 28.5C23.3002 28.7 23.4002 28.8 23.4002 29C23.9002 31.2 24.6002 32.4 25.8002 33L28.7002 34.7C29.3002 35 29.9002 35.4 30.5002 35.8C31.3002 36.3 32.1002 36.8 33.0002 37.3L33.7002 37.7C34.3002 38.1 34.7002 38.4 35.0002 38.8C35.1002 38.9 35.2002 39 35.2002 39.1C35.5002 39.6 35.7002 40.1 35.8002 40.8L5.00024 41ZM36.4002 36C36.1002 35.8 35.8002 35.6 35.5002 35.3L34.8002 34.9C33.2002 33.9 31.7002 33.1 30.4002 32.3L27.4002 30.6C27.3002 30.6 26.9002 30.3 26.4002 28.1L26.3002 27.8C26.3002 27.8 26.3002 27.7 26.3002 27.6V27.4C26.3002 27.3 26.3002 27.3 26.3002 27.2C27.8002 25.9 28.8002 23.9 29.3002 21.3C29.8002 19 29.7002 17 29.6002 16.2V15.9C29.4002 11.9 27.7002 9.8 26.3002 8.7C26.1002 8.6 25.9002 8.4 25.7002 8.3C26.5002 7.4 27.7002 7 29.3002 7H29.4002H29.6002H29.7002C30.6002 7 31.9002 7.2 33.0002 8C34.2002 8.9 34.9002 10.5 35.0002 12.5V12.6V12.7V13C35.0002 13.5 35.1002 15.2 34.8002 17C34.4002 18.9 33.8002 20.2 32.8002 21.1L32.4002 21.4C32.0002 21.7 31.8002 22.2 31.9002 22.7L32.0002 23.4C32.0002 23.6 32.1002 23.7 32.1002 23.9L32.2002 24.4C32.7002 26.8 33.4002 28 34.5002 28.6L37.3002 30.2C38.5002 30.9 39.9002 31.7 41.3002 32.6L42.0002 33C42.7002 33.4 43.2002 33.9 43.4002 34.3C43.7002 34.7 43.8002 35.2 43.9002 35.9H36.4002V36Z" class="svg-primary-fill"/>
  </g>
</svg>
