<svg xmlns="http://www.w3.org/2000/svg" width="48" height="48" viewBox="0 0 48 48">
  <g class="neo-icon-kit--account-filled">
    <path fill="#006FCF" d="M45 41.9205C44.7958 39.1568 43.9813 37.1278 40.7963 35.2661C36.1426 32.5082 31.7067 30.1177 31.7067 30.1177C30.9795 29.75 30.5112 27.8974 30.2687 26.6562C30.2062 26.4062 30.1553 26.26 30.1069 25.8923C34.9546 21.8472 33.9366 13.1593 33.9366 13.1593C33.4518 3.41437 24.8714 3.46028 23.9988 3.50631C23.1747 3.46028 14.5457 3.41437 14.0609 13.1593C14.0609 13.1593 13.0429 21.8472 17.8907 25.8923C17.807 26.2969 17.7789 26.3354 17.6819 26.7031C17.4396 27.9443 17.0181 29.75 16.2909 30.1177C16.2909 30.1177 11.8566 32.5082 7.20279 35.2661C4.05484 37.1318 3.20898 39.1654 3 41.9382C3.15285 43.3758 4.35694 44.5 5.83723 44.5H42.161C43.6474 44.5 44.8552 43.3666 45 41.9205Z" class="svg-primary-fill"/>
  </g>
</svg>
