<svg xmlns="http://www.w3.org/2000/svg" width="48" height="48" viewBox="0 0 48 48">
  <g class="neo-icon-kit--account">
    <path fill="#006FCF" fill-rule="evenodd" d="M23.9497 3.50401L23.6516 3.50037C21.8254 3.51756 14.5063 4.20667 14.0609 13.1593C14.0609 13.1593 13.0429 21.8472 17.8907 25.8923C17.8548 26.0657 17.8292 26.1719 17.8039 26.2655L17.6819 26.7031C17.4396 27.9443 17.0181 29.75 16.2909 30.1178C16.2909 30.1178 13.0113 31.8857 9.13293 34.135L7.20281 35.2661C4.05485 37.1318 3.20898 39.1654 3 41.9382C3.15285 43.3758 4.35694 44.5 5.83722 44.5H42.161L42.338 44.4946C43.7423 44.4088 44.861 43.3088 45 41.9205C44.7958 39.1568 43.9813 37.1278 40.7963 35.2661C36.4218 32.6737 32.2397 30.4059 31.7536 30.1431L31.5995 30.0517C31.0033 29.6174 30.593 28.186 30.3482 27.0449L30.2687 26.6563C30.2559 26.6052 30.2436 26.5584 30.2317 26.5132C30.1855 26.3372 30.1454 26.1848 30.1069 25.8923C34.1342 22.5317 34.1132 15.9669 33.9907 13.8412L33.9142 12.7911C33.3077 4.43057 26.583 3.56143 24.5232 3.50352L24.1923 3.50056L23.9988 3.50633C23.9847 3.50554 23.9683 3.50475 23.9497 3.50401ZM24.1892 6.50099L24.4098 6.50089C26.7831 6.53321 30.6488 7.4903 30.9383 13.3083L30.9438 13.4087L30.954 13.5002L30.9854 13.8328C31.1604 16.0521 30.9574 21.2743 28.1827 23.5896L26.915 24.6475L27.1305 26.2838L27.1584 26.4786C27.1965 26.7241 27.2376 26.9142 27.2753 27.0685L27.34 27.321L27.4085 27.6535C28.0124 30.4857 28.8902 32.031 30.303 32.7698L33.7127 34.652C35.1478 35.4565 36.9013 36.4543 38.7084 37.5178L39.5136 37.9952C41.2465 39.0582 41.7517 39.9848 41.9437 41.5H6.06085L6.08867 41.3094C6.31719 39.8703 6.90877 38.9283 8.7341 37.8465L9.01941 37.6777C11.3947 36.2751 13.7048 34.9721 15.3465 34.0598L17.8932 32.6586C19.4466 31.7296 20.1138 29.8709 20.6078 27.3825L20.7446 26.8851C20.7696 26.7832 20.797 26.662 20.8306 26.4993L21.1942 24.7406L19.8148 23.5896L19.5954 23.3956C16.8869 20.8608 16.8284 15.4285 17.0426 13.5082L17.0543 13.4085L17.0827 12.9571C17.2665 10.7648 18.3203 6.49998 23.7244 6.50002C23.7722 6.50002 23.8093 6.5006 23.8316 6.50167L23.9972 6.51029L24.1892 6.50099Z" class="svg-primary-fill" clip-rule="evenodd"/>
  </g>
</svg>
