<svg xmlns="http://www.w3.org/2000/svg" width="48" height="48" viewBox="0 0 48 48">
  <g class="neo-icon-kit--activity-filled">
    <path fill="#006FCF" fill-rule="evenodd" d="M13 11C13 8.23859 10.7614 6 8 6C5.23859 6 3 8.23859 3 11C3 13.2352 4.47656 15.1054 6.5 15.7456V19.2544L6.29267 19.325C4.37648 20.024 3 21.8419 3 24C3 26.2352 4.47656 28.1054 6.5 28.7456V32.2544L6.29267 32.325C4.37648 33.024 3 34.8419 3 37C3 39.7614 5.23859 42 8 42C10.7614 42 13 39.7614 13 37C13 34.7648 11.5234 32.8946 9.5 32.2544V28.7456L9.70733 28.675C11.6235 27.976 13 26.1581 13 24C13 21.7648 11.5234 19.8946 9.5 19.2544V15.7456L9.70733 15.675C11.6235 14.976 13 13.1581 13 11ZM31.5 35.5H18.5L18.3556 35.5069C17.5952 35.5796 17 36.2206 17 37C17 37.8281 17.6719 38.5 18.5 38.5H31.5L31.6444 38.4931C32.4048 38.4204 33 37.7794 33 37C33 36.1719 32.3281 35.5 31.5 35.5ZM18.5 22.5H43.5C44.3281 22.5 45 23.1714 45 24C45 24.7799 44.4048 25.4205 43.6444 25.4931L43.5 25.5H18.5C17.6719 25.5 17 24.8286 17 24C17 23.2201 17.5952 22.5795 18.3556 22.5069L18.5 22.5ZM34.5 9.5H18.5L18.3556 9.50686C17.5952 9.57953 17 10.2201 17 11C17 11.8286 17.6719 12.5 18.5 12.5H34.5L34.6444 12.4931C35.4048 12.4205 36 11.7799 36 11C36 10.1714 35.3281 9.5 34.5 9.5Z" class="svg-primary-fill" clip-rule="evenodd"/>
  </g>
</svg>
