<svg xmlns="http://www.w3.org/2000/svg" width="48" height="48" viewBox="0 0 48 48">
  <g class="neo-icon-kit--activity">
    <path fill="#006FCF" fill-rule="evenodd" d="M8 6C10.7614 6 13 8.23859 13 11C13 13.1581 11.6235 14.976 9.70733 15.675L9.5 15.7456V19.2544C11.5234 19.8946 13 21.7648 13 24C13 26.1581 11.6235 27.976 9.70733 28.675L9.5 28.7456V32.2544C11.5234 32.8946 13 34.7648 13 37C13 39.7614 10.7614 42 8 42C5.23859 42 3 39.7614 3 37C3 34.8419 4.37648 33.024 6.29267 32.325L6.5 32.2544V28.7456C4.47656 28.1054 3 26.2352 3 24C3 21.8419 4.37648 20.024 6.29267 19.325L6.5 19.2544V15.7456C4.47656 15.1054 3 13.2352 3 11C3 8.23859 5.23859 6 8 6ZM8 35C6.89722 35 6 35.8972 6 37C6 38.1028 6.89722 39 8 39C9.10278 39 10 38.1028 10 37C10 35.8972 9.10278 35 8 35ZM31.5 35.5H18.5L18.3556 35.5069C17.5952 35.5796 17 36.2206 17 37C17 37.8281 17.6719 38.5 18.5 38.5H31.5L31.6444 38.4931C32.4048 38.4204 33 37.7794 33 37C33 36.1719 32.3281 35.5 31.5 35.5ZM8 22C6.89722 22 6 22.8972 6 24C6 25.1028 6.89722 26 8 26C9.10278 26 10 25.1028 10 24C10 22.8972 9.10278 22 8 22ZM43.5 22.5H18.5L18.3556 22.5069C17.5952 22.5795 17 23.2201 17 24C17 24.8286 17.6719 25.5 18.5 25.5H43.5L43.6444 25.4931C44.4048 25.4205 45 24.7799 45 24C45 23.1714 44.3281 22.5 43.5 22.5ZM8 9C6.89722 9 6 9.89722 6 11C6 12.1028 6.89722 13 8 13C9.10278 13 10 12.1028 10 11C10 9.89722 9.10278 9 8 9ZM34.5 9.5H18.5L18.3556 9.50686C17.5952 9.57953 17 10.2201 17 11C17 11.8286 17.6719 12.5 18.5 12.5H34.5L34.6444 12.4931C35.4048 12.4205 36 11.7799 36 11C36 10.1714 35.3281 9.5 34.5 9.5Z" class="svg-primary-fill" clip-rule="evenodd"/>
  </g>
</svg>
