<svg xmlns="http://www.w3.org/2000/svg" width="48" height="48" viewBox="0 0 48 48">
  <g class="neo-icon-kit--affidavit-filled">
    <g fill="#006FCF" class="svg-primary-fill">
      <path fill-rule="evenodd" d="M15.004 19.545C15.004 18.717 15.679 18.045 16.511 18.045H22.497C23.329 18.045 24.004 18.717 24.004 19.545 24.004 20.373 23.329 21.045 22.497 21.045H16.511C15.679 21.045 15.004 20.373 15.004 19.545ZM15.004 13.514C15.004 12.685 15.686 12.014 16.528 12.014H19.48C20.322 12.014 21.004 12.685 21.004 13.514 21.004 14.342 20.322 15.014 19.48 15.014H16.528C15.686 15.014 15.004 14.342 15.004 13.514Z" clip-rule="evenodd"/>
      <path d="M18.0577 25.5C18.0577 26.3284 17.3861 27 16.5577 27C15.7292 27 15.0577 26.3284 15.0577 25.5C15.0577 24.6716 15.7292 24 16.5577 24C17.3861 24 18.0577 24.6716 18.0577 25.5Z"/>
      <path fill-rule="evenodd" d="M34.5 48C41.9558 48 48 41.9558 48 34.5C48 29.8194 45.618 25.6951 42 23.2733V12H41.9824L41.9658 11.8516C41.9188 11.5558 41.7915 11.271 41.5635 11.043L30.957 0.435547L30.8389 0.330078C30.5932 0.135045 30.2982 0.0375414 30 0.0166016V0H9L8.82422 0.00488281C7.25522 0.0966615 6 1.40897 6 3V42L6.00488 42.1758C6.09671 43.7448 7.40906 45 9 45H26.014C28.3326 46.8762 31.2851 48 34.5 48ZM21 34.5C21 27.0442 27.0442 21 34.5 21C36.0779 21 37.5925 21.2707 39 21.7682V15H30C28.409 15 27.0967 13.7448 27.0049 12.1758L27 12V3H9V42H23.2733C21.8374 39.8549 21 37.2752 21 34.5ZM30 12H38.2783L30 3.72168V12ZM41.6048 31.0049C42.1539 30.3871 42.0983 29.4412 41.4805 28.8921C40.8628 28.343 39.9168 28.3986 39.3677 29.0164L32.4711 36.7751L29.6017 33.7369C29.0342 33.136 28.087 33.1089 27.4861 33.6764C26.8852 34.2439 26.8581 35.1911 27.4257 35.792L31.4165 40.0177C32.0194 40.656 33.0398 40.6406 33.6231 39.9843L41.6048 31.0049Z" clip-rule="evenodd"/>
    </g>
  </g>
</svg>
