<svg xmlns="http://www.w3.org/2000/svg" width="48" height="48" viewBox="0 0 48 48">
  <g class="neo-icon-kit--affidavit">
    <g fill="#006FCF" class="svg-primary-fill">
      <path d="M41.4805 28.8921C42.0983 29.4412 42.1539 30.3871 41.6048 31.0049L33.6231 39.9843C33.0398 40.6406 32.0194 40.656 31.4165 40.0177L27.4257 35.792C26.8581 35.1911 26.8852 34.2439 27.4861 33.6764C28.087 33.1089 29.0342 33.136 29.6017 33.7369L32.4711 36.7751L39.3677 29.0164C39.9168 28.3986 40.8628 28.343 41.4805 28.8921Z"/>
      <path fill-rule="evenodd" d="M41.605 31.005C42.154 30.387 42.098 29.441 41.481 28.892 40.863 28.343 39.917 28.399 39.368 29.016L32.471 36.775 29.602 33.737C29.034 33.136 28.087 33.109 27.486 33.676 26.885 34.244 26.858 35.191 27.426 35.792L31.417 40.018C32.019 40.656 33.04 40.641 33.623 39.984L41.605 31.005ZM15.004 19.545C15.004 18.717 15.679 18.045 16.511 18.045H22.497C23.329 18.045 24.004 18.717 24.004 19.545 24.004 20.373 23.329 21.045 22.497 21.045H16.511C15.679 21.045 15.004 20.373 15.004 19.545ZM15.004 13.514C15.004 12.685 15.686 12.014 16.528 12.014H19.48C20.322 12.014 21.004 12.685 21.004 13.514 21.004 14.342 20.322 15.014 19.48 15.014H16.528C15.686 15.014 15.004 14.342 15.004 13.514Z" clip-rule="evenodd"/>
      <path d="M18.0577 25.5C18.0577 26.3284 17.3861 27 16.5577 27C15.7292 27 15.0577 26.3284 15.0577 25.5C15.0577 24.6716 15.7292 24 16.5577 24C17.3861 24 18.0577 24.6716 18.0577 25.5Z"/>
      <path fill-rule="evenodd" d="M41.4805 28.8921C42.0983 29.4412 42.1539 30.3871 41.6048 31.0049L33.6231 39.9843C33.0398 40.6406 32.0194 40.656 31.4165 40.0177L27.4257 35.792C26.8581 35.1911 26.8852 34.2439 27.4861 33.6764C28.087 33.1089 29.0342 33.136 29.6017 33.7369L32.4711 36.7751L39.3677 29.0164C39.9168 28.3986 40.8628 28.343 41.4805 28.8921Z" clip-rule="evenodd"/>
      <path fill-rule="evenodd" d="M48 34.5C48 41.9558 41.9558 48 34.5 48C31.2851 48 28.3326 46.8762 26.014 45H9C7.40906 45 6.09671 43.7448 6.00488 42.1758L6 42V3C6 1.40897 7.25522 0.0966615 8.82422 0.00488281L9 0H30V0.0166016C30.2982 0.0375414 30.5932 0.135045 30.8389 0.330078L30.957 0.435547L41.5635 11.043C41.7915 11.271 41.9188 11.5558 41.9658 11.8516L41.9824 12H42V23.2733C45.618 25.6951 48 29.8194 48 34.5ZM34.5 45.0069C40.3028 45.0069 45.0069 40.3028 45.0069 34.5C45.0069 28.6972 40.3028 23.9931 34.5 23.9931C28.6972 23.9931 23.9931 28.6972 23.9931 34.5C23.9931 40.3028 28.6972 45.0069 34.5 45.0069ZM34.5 21C27.0442 21 21 27.0442 21 34.5C21 37.2752 21.8374 39.8549 23.2733 42H9V3H27V12L27.0049 12.1758C27.0967 13.7448 28.409 15 30 15H39V21.7682C37.5925 21.2707 36.0779 21 34.5 21ZM38.2783 12H30V3.72168L38.2783 12Z" clip-rule="evenodd"/>
    </g>
  </g>
</svg>
