<svg xmlns="http://www.w3.org/2000/svg" width="48" height="48" viewBox="0 0 48 48">
  <g class="neo-icon-kit--air-conditioning">
    <g fill="#006FCF" class="svg-primary-fill">
      <path d="M22.5001 12H25.5001V37H22.5001V12Z"/>
      <path d="M18.4394 8.56066C17.8536 7.97487 17.8536 7.02513 18.4394 6.43934C19.0252 5.85355 19.9749 5.85355 20.5607 6.43934L25.1915 11.0701C25.7773 11.6559 25.7773 12.6057 25.1915 13.1915C24.6057 13.7773 23.656 13.7773 23.0702 13.1915L18.4394 8.56066Z"/>
      <path d="M29.5607 8.56066C30.1465 7.97487 30.1465 7.02513 29.5607 6.43934 28.9749 5.85355 28.0252 5.85355 27.4394 6.43934L22.8086 11.0701C22.2228 11.6559 22.2228 12.6057 22.8086 13.1915 23.3944 13.7773 24.3441 13.7773 24.9299 13.1915L29.5607 8.56066zM18.4394 39.4393C17.8536 40.0251 17.8536 40.9749 18.4394 41.5607 19.0252 42.1464 19.9749 42.1464 20.5607 41.5607L25.1915 36.9299C25.7773 36.3441 25.7773 35.3943 25.1915 34.8085 24.6057 34.2227 23.656 34.2227 23.0702 34.8085L18.4394 39.4393z"/>
      <path d="M29.5607 39.4393C30.1465 40.0251 30.1465 40.9749 29.5607 41.5607 28.9749 42.1464 28.0252 42.1464 27.4394 41.5607L22.8086 36.9299C22.2228 36.3441 22.2228 35.3943 22.8086 34.8085 23.3944 34.2227 24.3441 34.2227 24.9299 34.8085L29.5607 39.4393zM12.8577 19.299L14.3577 16.701 36.0084 29.201 34.5084 31.799 12.8577 19.299z"/>
      <path d="M7.88421 21.0607C7.08401 21.2751 6.2615 20.8002 6.04709 20C5.83268 19.1998 6.30755 18.3773 7.10775 18.1629L13.3982 16.5032C14.1984 16.2888 15.0209 16.7637 15.2353 17.5639C15.4497 18.3641 14.9749 19.1866 14.1747 19.401L7.88421 21.0607Z"/>
      <path d="M13.4095 11.4647C13.1951 10.6645 12.3726 10.1896 11.5724 10.404 10.7722 10.6184 10.2973 11.4409 10.5117 12.2411L12.2067 18.5669C12.4212 19.3671 13.2437 19.842 14.0439 19.6276 14.8441 19.4132 15.3189 18.5907 15.1045 17.7905L13.4095 11.4647zM34.5906 36.5353C34.805 37.3355 35.6275 37.8104 36.4277 37.596 37.2279 37.3816 37.7028 36.5591 37.4884 35.7589L35.7934 29.4331C35.579 28.6329 34.7565 28.158 33.9563 28.3724 33.1561 28.5868 32.6812 29.4093 32.8956 30.2095L34.5906 36.5353z"/>
      <path d="M40.1107 26.9149C40.9109 26.7004 41.7334 27.1753 41.9478 27.9755 42.1622 28.7757 41.6874 29.5982 40.8872 29.8126L34.5614 31.5076C33.7612 31.722 32.9387 31.2472 32.7242 30.447 32.5098 29.6468 32.9847 28.8243 33.7849 28.6099L40.1107 26.9149zM14.3577 31.2992L12.8577 28.7011 34.5084 16.2011 36.0084 18.7992 14.3577 31.2992z"/>
      <path d="M13.4095 36.5355C13.1951 37.3357 12.3726 37.8106 11.5724 37.5961C10.7722 37.3817 10.2973 36.5592 10.5117 35.759L12.2067 29.4332C12.4212 28.633 13.2437 28.1581 14.0439 28.3726C14.8441 28.587 15.3189 29.4095 15.1045 30.2097L13.4095 36.5355Z"/>
      <path d="M7.88836 26.9393C7.08816 26.7249 6.26565 27.1998 6.05124 28 5.83683 28.8002 6.3117 29.6227 7.1119 29.8371L13.3982 31.4969C14.1984 31.7113 15.0209 31.2364 15.2353 30.4362 15.4497 29.636 14.9749 28.8135 14.1747 28.5991L7.88836 26.9393zM40.1109 21.0853C40.9111 21.2997 41.7336 20.8249 41.948 20.0247 42.1624 19.2245 41.6875 18.402 40.8873 18.1875L34.5616 16.4926C33.7614 16.2781 32.9388 16.753 32.7244 17.5532 32.51 18.3534 32.9849 19.1759 33.7851 19.3903L40.1109 21.0853z"/>
      <path d="M34.5906 11.4648C34.805 10.6646 35.6275 10.1897 36.4277 10.4041C37.2279 10.6185 37.7028 11.4411 37.4884 12.2413L35.7934 18.5671C35.579 19.3673 34.7565 19.8421 33.9563 19.6277C33.1561 19.4133 32.6812 18.5908 32.8956 17.7906L34.5906 11.4648Z"/>
    </g>
  </g>
</svg>
