<svg xmlns="http://www.w3.org/2000/svg" width="48" height="48" viewBox="0 0 48 48">
  <g class="neo-icon-kit--airlines-multi-filled">
    <path fill="#006FCF" fill-rule="evenodd" d="M28.1649 3C27.6701 3 26.9987 3.05892 26.3459 3.40019C25.2302 3.98348 24.3454 4.94294 23.5898 6.00883C22.8297 7.08094 22.1188 8.38067 21.4012 9.76507C19.9414 12.5813 18.3876 15.8696 16.1094 19.1993C8.6568 30.0915 1.00562 35.9914 0.614883 36.2888L0.601686 36.2988C0.0908713 36.6839 -0.125646 37.3662 0.0771259 37.9744C0.281317 38.5869 0.854509 39 1.50013 39H16.3929C14.2226 41.0529 12.7788 42.164 12.6149 42.2888L12.6017 42.2988C12.0908 42.6839 11.8744 43.3663 12.0771 43.9744C12.2813 44.5869 12.8545 45 13.5001 45H40.7379C41.4628 45 42.084 44.4816 42.2137 43.7683L47.9557 12.1874C48.2574 10.5277 46.9825 9 45.2956 9H40.1649C39.6701 9 38.9987 9.05892 38.3459 9.40019C36.669 10.2769 35.5546 11.9313 34.6217 13.5246L35.9557 6.18736C36.2574 4.52772 34.9825 3 33.2956 3H28.1649ZM32.9406 6H28.1649C27.8834 6 27.771 6.04042 27.7358 6.05879C27.2251 6.32579 26.6713 6.84932 26.0372 7.74382C25.4075 8.63211 24.7776 9.77018 24.0646 11.1457C22.6633 13.8492 20.9967 17.369 18.5853 20.8933C13.673 28.0729 8.68551 33.1514 5.57267 36H19.3937C21.9943 33.2589 25.0669 29.646 28.1094 25.1993C28.7983 24.1925 29.4209 23.1895 29.9947 22.2021L32.9406 6Z" class="svg-primary-fill" clip-rule="evenodd"/>
  </g>
</svg>
