<svg xmlns="http://www.w3.org/2000/svg" width="48" height="48" viewBox="0 0 48 48">
  <g class="neo-icon-kit--airlines-multi">
    <path fill="#006FCF" fill-rule="evenodd" d="M40.1647 9C39.6699 9 38.9986 9.05892 38.3458 9.40019C37.2301 9.98348 36.3452 10.9429 35.5896 12.0088C35.1372 12.6471 34.7021 13.366 34.2727 14.1354L35.7178 6.18736C36.0195 4.52772 34.7445 3 33.0577 3H28.1647C27.6699 3 26.9986 3.05892 26.3458 3.40019C25.2301 3.98348 24.3452 4.94294 23.5896 6.00883C22.8296 7.08094 22.1186 8.38067 21.401 9.76507C19.9412 12.5813 18.3874 15.8696 16.1093 19.1993C8.65665 30.0915 1.00547 35.9914 0.614728 36.2888L0.601532 36.2988L0.599275 36.3005C0.0832436 36.688 -0.127142 37.3622 0.0769712 37.9744C0.281162 38.5869 0.854354 39 1.49997 39H16.3927C14.2224 41.0529 12.7787 42.164 12.6147 42.2888L12.6015 42.2988L12.5993 42.3005C12.0832 42.688 11.8729 43.3622 12.077 43.9744C12.2812 44.5869 12.8544 45 13.5 45H40.5C41.2249 45 41.8461 44.4816 41.9758 43.7683L47.7178 12.1874C48.0195 10.5277 46.7445 9 45.0577 9H40.1647ZM17.5725 42H39.2481L44.7027 12H40.1647C39.8832 12 39.7708 12.0404 39.7357 12.0588C39.225 12.3258 38.6711 12.8493 38.037 13.7438C37.4073 14.6321 36.7775 15.7702 36.0645 17.1457C34.6631 19.8492 32.9966 23.369 30.5852 26.8933C25.6728 34.0729 20.6854 39.1514 17.5725 42ZM32.7027 6H28.1647C27.8832 6 27.7708 6.04042 27.7357 6.05879C25.4302 7.26407 24.461 10.3582 23.3319 12.5765C22.0809 15.0344 20.5906 17.9623 18.5852 20.8933C13.6728 28.0729 8.68536 33.1514 5.57251 36H19.3935C21.9942 33.2589 25.0668 29.646 28.1093 25.1993C28.6628 24.3902 29.1737 23.5835 29.6507 22.7855L32.7027 6Z" class="svg-primary-fill" clip-rule="evenodd"/>
  </g>
</svg>
