<svg xmlns="http://www.w3.org/2000/svg" width="48" height="48" viewBox="0 0 48 48">
  <g class="neo-icon-kit--airport-rail-no-circle-white">
    <g fill="#fff" class="svg-primary-fill">
      <path d="M1.89361 24.5565C1.86544 24.5413 1.82427 24.5413 1.78311 24.5413C1.67044 24.5413 1.54477 24.5847 1.46244 24.667L0.127775 26.0168C0.040209 26.1103 -0.00521016 26.2356 0.00210798 26.3635C0.00932913 26.4924 0.0757036 26.6108 0.181941 26.6842L3.68761 29.3123L6.31794 32.818C6.40027 32.9307 6.51294 32.9848 6.65161 33H6.67977C6.78811 33 6.91377 32.9567 6.99827 32.8743L8.33511 31.5397C8.44337 31.4235 8.48429 31.2598 8.44344 31.1063L7.70677 28.4088L11.3099 24.8057L15.1926 31.8733C15.2468 31.999 15.3573 32.0683 15.4829 32.0943C15.5263 32.1095 15.5523 32.1095 15.5804 32.1095C15.6779 32.1095 15.7754 32.0813 15.8448 32.025L17.6258 30.6903C17.7659 30.5826 17.8309 30.4035 17.7926 30.231L15.5674 20.5503L17.8056 18.31C19.1424 16.9753 20.0329 14.748 19.1424 13.8575C18.2519 12.9692 16.0268 13.8575 14.6899 15.1943L12.4648 17.4195L3.21527 15.2095C3.07661 15.1662 2.90977 15.2203 2.79927 15.3178L1.01827 17.0988C0.923246 17.2001 0.877322 17.3378 0.892608 17.4758C0.918919 17.6162 1.00517 17.738 1.12877 17.8095L8.19427 21.6878L4.59327 25.2953L1.89361 24.5587V24.5565Z"/>
      <path fill-rule="evenodd" d="M41.2879 16.4959L46.5179 20.7619H46.5159C47.3359 21.4299 47.9319 22.7499 47.9319 23.8999V25.2119C47.9319 26.6579 46.8959 27.8319 45.6259 27.8319H30.6999C30.0659 27.8319 29.5499 27.2459 29.5499 26.5239C29.5499 25.8019 30.0659 25.2159 30.6999 25.2159H45.6299L45.6359 23.8999C45.6359 23.5859 45.3999 23.0679 45.1799 22.8859L44.7979 22.5759H36.4299C35.9039 22.5759 35.4439 22.1659 35.3159 21.5859L34.3799 17.3459H29.5519C28.9179 17.3459 28.4019 16.7599 28.4019 16.0379C28.4019 15.3159 28.9179 14.7299 29.5519 14.7299H36.4599C37.9799 14.7299 40.0559 15.4879 41.2879 16.4959ZM36.7539 17.364L37.3259 19.96H41.5899L39.9479 18.62C39.1919 18.004 37.7779 17.458 36.7539 17.364Z" clip-rule="evenodd"/>
      <path d="M29.1099 30H46.8879C47.1871 30.0042 47.4724 30.1271 47.6809 30.3417C47.8894 30.5562 48.0042 30.8448 47.9999 31.144C48.0077 31.7662 47.5101 32.2772 46.8879 32.286H45.7779V32.858C45.7857 33.4802 45.2881 33.9912 44.6659 34C44.0539 34 43.5539 33.488 43.5539 32.858V32.286H41.3319V32.858C41.3397 33.4795 40.8434 33.9901 40.2219 34C39.6099 34 39.1099 33.488 39.1099 32.858V32.286H36.8879V32.858C36.8922 33.1566 36.7777 33.4447 36.5695 33.6589C36.3613 33.8731 36.0766 33.9958 35.7779 34C35.1639 34 34.6659 33.488 34.6659 32.858V32.286H32.4439V32.858C32.4517 33.4795 31.9554 33.9901 31.3339 34C30.7199 34 30.2219 33.488 30.2219 32.858V32.284H29.1099C28.4979 32.284 27.9999 31.774 27.9999 31.144C27.991 30.5218 28.4877 30.0099 29.1099 30Z"/>
    </g>
    <path fill="#fff" fill-rule="evenodd" d="M24 0.800049C24.2761 0.800049 24.5 1.02391 24.5 1.30005V47C24.5 47.2762 24.2761 47.5 24 47.5C23.7239 47.5 23.5 47.2762 23.5 47V1.30005C23.5 1.02391 23.7239 0.800049 24 0.800049Z" class="svg-secondary-fill" clip-rule="evenodd"/>
  </g>
</svg>
