<svg xmlns="http://www.w3.org/2000/svg" width="48" height="48" viewBox="0 0 48 48">
  <g class="neo-icon-kit--airport-rail-white">
    <path fill="#fff" fill-rule="evenodd" d="M0 24C0 10.7452 10.7452 0 24 0C37.2548 0 48 10.7452 48 24C48 37.2548 37.2548 48 24 48C10.7452 48 0 37.2548 0 24ZM24 2.82353C12.3046 2.82353 2.82353 12.3046 2.82353 24C2.82353 35.6954 12.3046 45.1765 24 45.1765C35.6954 45.1765 45.1765 35.6954 45.1765 24C45.1765 12.3046 35.6954 2.82353 24 2.82353Z" class="svg-secondary-fill" clip-rule="evenodd"/>
    <g fill="#fff" class="svg-primary-fill">
      <path d="M23.2941 7.76465C23.6839 7.76465 24 8.08068 24 8.47053V39.5294C24 39.9192 23.6839 40.2352 23.2941 40.2352C22.9042 40.2352 22.5882 39.9192 22.5882 39.5294V8.47053C22.5882 8.08068 22.9042 7.76465 23.2941 7.76465Z"/>
      <path fill-rule="evenodd" d="M39.895 21.7143L36.2032 18.703C35.3336 17.9915 33.8682 17.4564 32.7952 17.4564H27.919C27.4715 17.4564 27.1072 17.8701 27.1072 18.3797C27.1072 18.8893 27.4715 19.303 27.919 19.303H31.327L31.9877 22.2959C32.0781 22.7053 32.4028 22.9948 32.7741 22.9948H38.6809L38.9505 23.2136C39.1058 23.3421 39.2724 23.7077 39.2724 23.9293L39.2682 24.8583H28.7293C28.2818 24.8583 27.9176 25.2719 27.9176 25.7816C27.9176 26.2912 28.2818 26.7049 28.7293 26.7049H39.2653C40.1618 26.7049 40.8931 25.8762 40.8931 24.8555V23.9293C40.8931 23.1176 40.4724 22.1858 39.8936 21.7143H39.895ZM33.4065 21.1481L33.0028 19.3157C33.7256 19.382 34.7237 19.7674 35.2573 20.2022L36.4164 21.1481H33.4065Z" clip-rule="evenodd"/>
      <path d="M27.607 28.2352H40.1562C40.3674 28.2382 40.5687 28.325 40.7159 28.4764 40.8631 28.6279 40.9441 28.8316 40.9411 29.0428 40.9466 29.482 40.5954 29.8427 40.1562 29.8489H39.3727V30.2527C39.3781 30.6919 39.0269 31.0526 38.5877 31.0588 38.1557 31.0588 37.8028 30.6974 37.8028 30.2527V29.8489H36.2343V30.2527C36.2398 30.6913 35.8894 31.0518 35.4508 31.0588 35.0188 31.0588 34.6658 30.6974 34.6658 30.2527V29.8489H33.0974V30.2527C33.1004 30.4635 33.0195 30.6668 32.8726 30.818 32.7256 30.9692 32.5246 31.0558 32.3138 31.0588 31.8804 31.0588 31.5289 30.6974 31.5289 30.2527V29.8489H29.9604V30.2527C29.9659 30.6913 29.6155 31.0518 29.1769 31.0588 28.7435 31.0588 28.3919 30.6974 28.3919 30.2527V29.8475H27.607C27.175 29.8475 26.8235 29.4875 26.8235 29.0428 26.8172 28.6035 27.1678 28.2422 27.607 28.2352zM8.22066 24.1355C8.24749 24.1355 8.27431 24.1355 8.29266 24.1453V24.1468L10.0517 24.6268 12.3981 22.2762 7.79431 19.7491C7.71377 19.7025 7.65757 19.6231 7.64043 19.5317 7.63047 19.4418 7.66039 19.352 7.72231 19.286L8.88278 18.1256C8.95478 18.062 9.06349 18.0268 9.15384 18.055L15.1807 19.495 16.6305 18.0451C17.5016 17.174 18.9515 16.5952 19.5317 17.174 20.112 17.7543 19.5317 19.2056 18.6607 20.0752L17.2023 21.535 18.6522 27.8428C18.6772 27.9552 18.6348 28.0719 18.5435 28.142L17.383 29.0117C17.3378 29.0484 17.2743 29.0668 17.2108 29.0668 17.1924 29.0668 17.1755 29.0668 17.1473 29.0569 17.0654 29.0399 16.9934 28.9948 16.9581 28.9129L14.4282 24.3077 12.0804 26.6555 12.5604 28.4131C12.587 28.5131 12.5604 28.6198 12.4898 28.6955L11.6188 29.5651C11.5637 29.6188 11.4818 29.647 11.4112 29.647H11.3929C11.3025 29.6371 11.2291 29.6018 11.1755 29.5284L9.4616 27.2442 7.17737 25.5317C7.10814 25.4839 7.0649 25.4068 7.06019 25.3228 7.05542 25.2394 7.08502 25.1578 7.14207 25.0969L8.01172 24.2173C8.06537 24.1637 8.14725 24.1355 8.22066 24.1355z"/>
    </g>
  </g>
</svg>
