<svg xmlns="http://www.w3.org/2000/svg" width="48" height="48" viewBox="0 0 48 48">
  <g class="neo-icon-kit--alert">
    <path fill="#006FCF" fill-rule="evenodd" d="M41.5107 34.6992C41.8076 35.1445 42 35.7812 42 36.3643C42.0127 36.917 41.8564 37.7881 41.041 38.6221C39.1579 40.546 34.1597 41.3597 30 41.7047V42.4502C30 45.5107 27.3086 48 24 48C20.6914 48 18 45.5107 18 42.4502V41.7377C12.0937 41.2772 6 39.9371 6 36.3643C6 35.7793 6.19238 35.1426 6.51416 34.6602C9.11718 30.6289 10.0923 24.46 10.0923 21.5229V18.998C10.0923 15.188 11.585 11.6509 14.2949 9.0376C15.9625 7.36969 18.0585 6.17804 20.3132 5.5506C20.1118 5.07343 20 4.54962 20 4C20 1.79443 21.7939 0 24 0C26.2061 0 28 1.79443 28 4C28 4.55359 27.8865 5.08099 27.6822 5.56091C33.5489 7.21686 37.9072 12.7867 37.9072 19.3462V21.523C37.9072 24.6006 39.0254 30.7227 41.5107 34.6992ZM25 4C25 3.44873 24.5518 3 24 3C23.4482 3 23 3.44873 23 4C23 4.55127 23.4482 5 24 5C24.5518 5 25 4.55127 25 4ZM27 42.4502C27 43.8565 25.6543 45 24 45C22.3457 45 21 43.8565 21 42.4502V42H27V42.4502ZM9.02149 36.3076C9.37256 37.5596 16.0254 38.957 24.043 38.957C31.9805 38.957 38.6016 37.5742 39.0019 36.3848L38.9658 36.2891C36.0088 31.5576 34.9072 24.7212 34.9072 21.523V19.3462C34.9072 13.1929 30.1035 8.12354 24.1982 8.04688L23.9072 8.04297C21.127 8.04297 18.3897 9.18555 16.3965 11.1777C14.2588 13.2398 13.0928 16.0103 13.0928 18.9981V21.5229C13.0928 24.9321 12.0083 31.6826 9.02149 36.3076Z" class="svg-primary-fill" clip-rule="evenodd"/>
  </g>
</svg>
