<svg xmlns="http://www.w3.org/2000/svg" width="48" height="48" viewBox="0 0 48 48">
  <g class="neo-icon-kit--alert-filled">
    <path fill="#006FCF" fill-rule="evenodd" d="M28 4C28 1.79443 26.2061 0 24 0C21.7939 0 20 1.79443 20 4C20 4.54962 20.1118 5.07343 20.3132 5.5506C18.0585 6.17804 15.9625 7.36969 14.2949 9.0376C11.585 11.6504 10.0928 15.188 10.0928 18.998V21.5229L10.0902 21.7903C10.034 24.8205 9.04058 30.7466 6.51269 34.6621C6.19141 35.1436 6 35.7803 6 36.3643C6 39.749 11.4691 41.1299 17.0668 41.6575L18 41.7377V42.4502L18.0043 42.6628C18.1255 45.6252 20.7684 48 24 48C27.3086 48 30 45.5107 30 42.4502V41.7047L30.3691 41.673C34.451 41.3109 39.2133 40.4894 41.041 38.6221C41.8564 37.7881 42.0127 36.917 42 36.3643C42 35.7812 41.8076 35.1445 41.5107 34.6992L41.2817 34.3203C38.9566 30.343 37.9072 24.5044 37.9072 21.523V19.3462L37.9033 19.0078C37.7565 12.5958 33.4478 7.18831 27.6822 5.56091C27.8865 5.08099 28 4.55359 28 4ZM21 42.4502V42H27V42.4502L26.9945 42.6053C26.8999 43.9396 25.593 45 24 45C22.3457 45 21 43.8565 21 42.4502Z" class="svg-primary-fill" clip-rule="evenodd"/>
  </g>
</svg>
