<svg xmlns="http://www.w3.org/2000/svg" width="26" height="26" viewBox="0 0 26 26">
  <g class="neo-icon-kit--amenity-more-dark">
    <g fill="#444B61" class="svg-primary-fill">
      <path d="M6.423 12.714C6.42247 13.1468 6.19106 13.5465 5.81595 13.7624 5.44085 13.9784 4.97903 13.9778 4.60445 13.7609 4.22988 13.5441 3.99947 13.1438 4 12.711 4.00028 12.0419 4.54291 11.4997 5.212 11.5 5.8811 11.5003 6.42328 12.0429 6.423 12.712V12.714zM14.422 12.714C14.422 13.3829 13.8798 13.925 13.211 13.925 12.5422 13.925 12 13.3829 12 12.714 12 12.0455 12.542 11.5035 13.2105 11.5035 13.879 11.5035 14.421 12.0455 14.421 12.714H14.422zM21.211 13.9251C21.8798 13.9251 22.422 13.3829 22.422 12.7141 22.422 12.0452 21.8798 11.5031 21.211 11.5031 20.5422 11.5031 20 12.0452 20 12.7141 20 13.3829 20.5422 13.9251 21.211 13.9251z"/>
    </g>
  </g>
</svg>
