<svg xmlns="http://www.w3.org/2000/svg" width="48" height="48" viewBox="0 0 48 48">
  <g class="neo-icon-kit--amenity-power-grey">
    <path fill="#848996" fill-rule="evenodd" d="M37.2159 27.5178H42.6075C43.3766 27.5178 44 28.151 44 28.9321C44 29.7132 43.3766 30.3464 42.6075 30.3464H37.2159C37.1999 30.3464 37.1861 30.342 37.1724 30.3377C37.1606 30.334 37.149 30.3303 37.1361 30.3294V37.5857C37.1361 38.3668 36.5127 39 35.7436 39H30.4894C27.8134 38.9969 25.6449 36.7943 25.6418 34.0764C25.6418 33.9067 25.5063 33.769 25.3392 33.769H18.8949C16.2179 33.7659 14.0485 31.5625 14.0454 28.8435V25.3851C14.0263 25.3875 14.0082 25.393 13.9902 25.3986C13.9661 25.406 13.942 25.4134 13.9155 25.4134H10.9449C9.20151 25.4134 7.78492 26.854 7.78492 28.6229V37.5857C7.78492 38.3668 7.16149 39 6.39246 39C5.62343 39 5 38.3668 5 37.5857V28.6229C5.00307 25.2894 7.66288 22.5879 10.9449 22.5848H13.9155C13.942 22.5848 13.9661 22.5922 13.9902 22.5995C14.0082 22.6051 14.0263 22.6106 14.0454 22.613V19.1546C14.0485 16.4356 16.2179 14.2322 18.8949 14.2291H25.3392C25.5063 14.2291 25.6418 14.0933 25.6418 13.9236C25.6449 11.2057 27.8134 9.00312 30.4894 9H35.7436C36.5127 9 37.1361 9.6332 37.1361 10.4143V17.6668C37.1498 17.6668 37.1622 17.6631 37.1747 17.6594C37.1877 17.6556 37.2008 17.6517 37.2159 17.6517H42.6075C43.3766 17.6517 44 18.2849 44 19.066C44 19.8471 43.3766 20.4803 42.6075 20.4803H37.2159C37.1999 20.4803 37.1861 20.4759 37.1724 20.4716C37.1606 20.4679 37.149 20.4642 37.1361 20.4633V27.5348C37.149 27.5339 37.1606 27.5302 37.1724 27.5265C37.1861 27.5222 37.1999 27.5178 37.2159 27.5178ZM30.4894 36.1714H34.3512V11.8286H30.4894C29.3513 11.8286 28.4267 12.7696 28.4267 13.9236C28.4267 15.651 27.0417 17.0577 25.3392 17.0577H18.8949C17.7568 17.0577 16.8303 17.9987 16.8303 19.1546V28.8435C16.8314 30.0012 17.7551 30.9394 18.8949 30.9404H25.3392C27.0417 30.9404 28.4267 32.3472 28.4267 34.0764C28.4278 35.233 29.3507 36.1704 30.4894 36.1714Z" class="svg-primary-fill" clip-rule="evenodd"/>
  </g>
</svg>
