<svg xmlns="http://www.w3.org/2000/svg" width="48" height="48" viewBox="0 0 48 48">
  <g class="neo-icon-kit--amenity-forward-facing-seat-dark">
    <path fill="#444B61" fill-rule="evenodd" d="M39 37.3922C38.9971 34.8486 37.0175 32.7873 34.5747 32.7843H21.1226C20.6336 32.7857 20.1972 32.4652 20.0342 31.9852L19.708 30.5921H26.1776C28.1546 30.5901 29.7568 28.9218 29.7587 26.8633V25.4285C29.7587 23.3725 28.1522 21.7015 26.1776 21.7015H17.6323L14.4873 8.23401C14.0756 6.89725 12.893 6.00002 11.5464 6.00002H9.09215C8.1637 5.99682 7.2838 6.43154 6.69897 7.1824C6.12303 7.90485 5.88584 8.85677 6.05183 9.77964L10.0149 38.7489C10.3953 40.6386 11.9929 41.9939 13.8471 42H34.5747C37.0175 41.997 38.9971 39.9358 39 37.3922ZM34.5747 39.2756C35.5428 39.2313 36.3058 38.4012 36.3058 37.3921C36.3058 36.3831 35.5428 35.553 34.5747 35.5087H21.1226C19.482 35.5129 18.0282 34.4087 17.5311 32.7807L17.5032 32.6844L16.9991 30.5231C15.3063 30.1932 14.078 28.6565 14.0739 26.8633V25.4285C14.0739 24.3714 14.503 23.4215 15.1833 22.7404L11.972 8.96958C11.9336 8.86242 11.754 8.72438 11.5464 8.72438H9.09216C8.95014 8.72415 8.81555 8.79041 8.7256 8.90484C8.63565 9.01927 8.59988 9.16975 8.62818 9.31467L12.5912 38.2803C12.7011 38.8215 13.2349 39.2756 13.8471 39.2756H34.5747ZM27.1422 25.4286C27.1413 24.8743 26.71 24.4252 26.1776 24.4242H17.655C17.1226 24.4252 16.6913 24.8743 16.6904 25.4286V26.8634C16.6904 27.4174 17.1229 27.8678 17.655 27.8678H26.1776C26.71 27.8668 27.1413 27.4177 27.1422 26.8634V25.4286Z" class="svg-primary-fill" clip-rule="evenodd"/>
    <path fill="#444B61" d="M38.8088 11.2993C39.0637 11.7354 39.0637 12.2832 38.8088 12.7193L36.0848 17.3649C35.7029 17.9939 34.9073 18.1879 34.2969 17.8009C33.6865 17.4139 33.4867 16.5887 33.8481 15.9467L35.355 13.3739H25.3096C24.5863 13.3739 24 12.7633 24 12.0102C24 11.2571 24.5863 10.6465 25.3096 10.6465H35.3532L33.8463 8.07555C33.4693 7.43237 33.6643 6.59268 34.282 6.20005C34.8997 5.80741 35.706 6.01052 36.0831 6.65369L38.807 11.2993H38.8088Z" class="svg-secondary-fill"/>
  </g>
</svg>
