<svg xmlns="http://www.w3.org/2000/svg" width="48" height="48" viewBox="0 0 48 48">
  <g class="neo-icon-kit--amenity-pool-dark">
    <path fill="#444B61" d="M34.9126 32.2292C35.3309 31.9392 35.8557 31.9233 36.2874 32.1876C36.719 32.4519 36.991 32.9557 36.9998 33.5073C37.0086 34.0588 36.7529 34.5732 36.33 34.8547L34.5532 36.0621C32.7208 37.3119 30.4202 37.3119 28.5879 36.0621L27.5189 35.3377L26.4608 36.058C24.6273 37.3147 22.3209 37.3139 20.4882 36.0559L19.4319 35.3377L18.3757 36.0539C16.5402 37.3042 14.2368 37.3042 12.4013 36.0539L10.6372 34.8527C10.0061 34.4051 9.81146 33.4726 10.1998 32.7572C10.5881 32.0418 11.416 31.8078 12.0601 32.2312L13.8205 33.4325C14.7843 34.0908 15.9952 34.09 16.9583 33.4304L18.7223 32.2292C19.1577 31.9323 19.7043 31.9323 20.1398 32.2292L21.9093 33.4325C22.8761 34.0873 24.0728 34.0873 25.0397 33.4325L26.8111 32.2292C27.2465 31.9323 27.7931 31.9323 28.2285 32.2292L30.0071 33.4366C30.9672 34.0906 32.172 34.0906 33.1321 33.4366L34.9126 32.2292Z" class="svg-secondary-fill"/>
    <g fill="#444B61" fill-rule="evenodd" class="svg-primary-fill" clip-rule="evenodd">
      <path d="M39 16.0142C38.9979 13.2465 36.69 11.003 33.8417 11 30.9934 11.003 28.6854 13.2465 28.6834 16.0142 28.6865 18.7812 30.9941 21.0236 33.8417 21.0266 36.6893 21.0236 38.9969 18.7812 39 16.0142zM36.0691 16.0151C36.0691 17.2287 35.0891 18.2288 33.8417 18.2884V18.2865C32.6016 18.2182 31.6321 17.2211 31.6321 16.0142 31.6321 14.8072 32.6016 13.8101 33.8417 13.7418 35.0891 13.8013 36.0691 14.8015 36.0691 16.0151zM36.6258 26.2015C36.2214 25.5543 35.3536 25.3482 34.6876 25.7412L32.8548 26.8207C32.4092 27.0819 31.9148 27.208 31.4167 27.2335 31.7939 24.6627 30.6459 22.1051 28.4503 20.6247 28.44 20.6165 28.4317 20.6071 28.4231 20.5973 28.4143 20.5874 28.4053 20.5773 28.3939 20.568L28.2585 20.4804C28.2468 20.4722 28.2361 20.4637 28.2255 20.4551 28.2122 20.4445 28.1989 20.4338 28.1833 20.4237L28.0198 20.3233 21.3087 15.932C19.7284 14.8966 17.6643 14.8794 16.0658 15.8881L11.2609 18.8747C10.8361 19.1384 10.5883 19.6022 10.6109 20.0915 10.6335 20.5808 10.923 21.0212 11.3704 21.2469 11.8178 21.4725 12.355 21.4491 12.7798 21.1855L17.5998 18.1897C18.2495 17.7758 19.0916 17.7815 19.7353 18.2043L23.1247 20.4219 17.8479 25.8343 16.188 26.8152C15.1898 27.4016 13.9529 27.4016 12.9565 26.8152L11.1406 25.7448C10.7108 25.4906 10.174 25.4786 9.73258 25.7132 9.29112 25.9478 9.01201 26.3934 9.00038 26.8822 8.98875 27.3711 9.24637 27.8288 9.6762 28.0829L11.494 29.157C13.3848 30.2731 15.7579 30.2731 17.6486 29.157L18.7352 28.5159 19.8255 29.1589C21.7147 30.2804 24.0909 30.2804 25.9802 29.1589L27.0723 28.5159 28.1721 29.1625C30.06 30.279 32.4312 30.279 34.3192 29.1625L36.152 28.0848C36.818 27.6918 37.0301 26.8487 36.6258 26.2015zM27.8017 25.7412C27.353 25.4762 26.7898 25.4762 26.3411 25.7412H26.3392L24.5158 26.8171C23.5239 27.4021 22.2792 27.4014 21.288 26.8153L20.9628 26.6235 25.467 22.002 26.5103 22.6377 26.7678 22.8076C27.9991 23.5967 28.6665 24.9064 28.6665 26.2527L27.8017 25.7412z"/>
    </g>
  </g>
</svg>
