<svg xmlns="http://www.w3.org/2000/svg" width="48" height="48" viewBox="0 0 48 48">
  <g class="neo-icon-kit--amenity-luggage-dark">
    <path fill="#444B61" fill-rule="evenodd" d="M32.5605 12.7965H38.0704C41.3424 12.7997 43.9946 15.3365 44 18.4704V35.3204C44 38.4527 41.3386 41 38.0704 41H9.92957C6.65688 40.9969 4.00434 38.457 4 35.3223V18.4723C4.00543 15.3384 6.65765 12.7997 9.92957 12.7965H15.4376V10.4643C15.4376 8.55292 17.1416 7 19.2357 7H28.7624C30.8564 7 32.5605 8.55292 32.5605 10.4643V12.7965ZM19.2376 9.83035C18.7806 9.83035 18.3945 10.1228 18.3945 10.4643V12.7965H29.6055V10.4643C29.6055 10.1228 29.2174 9.83035 28.7643 9.83035H19.2376ZM6.95494 35.3223V18.4723C6.95494 16.9043 8.29057 15.6269 9.92957 15.6269H13.3041V38.1715H9.92957C8.29057 38.1715 6.95494 36.8941 6.95494 35.3223ZM41.0451 35.3223C41.0451 36.8941 39.7094 38.1715 38.0704 38.1715H34.6959V15.6269H38.0704C39.7094 15.6269 41.0451 16.9043 41.0451 18.4742V35.3223ZM16.259 38.1715H31.741V15.6269H16.2571L16.259 38.1715Z" class="svg-primary-fill" clip-rule="evenodd"/>
  </g>
</svg>
