<svg xmlns="http://www.w3.org/2000/svg" width="26" height="26" viewBox="0 0 26 26">
  <g class="neo-icon-kit--amenity-renovated-coach-dark">
    <g fill="#444B61" fill-rule="evenodd" class="svg-primary-fill" clip-rule="evenodd">
      <path d="M6.30399 13.775C6.30399 14.1892 6.63977 14.525 7.05399 14.525L10.043 14.524C10.4572 14.524 10.793 14.1882 10.793 13.774V11.046C10.793 10.6318 10.4572 10.296 10.043 10.296H7.05399C6.63977 10.296 6.30399 10.6318 6.30399 11.046V13.775zM9.29299 13.025H7.80399V11.796H9.29299V13.025zM13.429 14.525C13.0148 14.525 12.679 14.1892 12.679 13.775V11.046C12.679 10.6318 13.0148 10.296 13.429 10.296H16.419C16.8332 10.296 17.169 10.6318 17.169 11.046V13.774C17.169 14.1882 16.8332 14.524 16.419 14.524L13.429 14.525zM14.179 13.025H15.669V11.796H14.179V13.025z"/>
      <path d="M21.471 10.135C21.4704 8.74511 20.3439 7.61853 18.954 7.61798H4.517C3.12758 7.61963 2.00165 8.74557 2 10.135V17.909C2.0011 19.0258 2.90618 19.9309 4.023 19.932H19.448C20.5648 19.9309 21.4699 19.0258 21.471 17.909V10.135ZM4.51599 9.11798C3.95599 9.11798 3.49899 9.57398 3.49899 10.135V15.58H19.971V10.135C19.971 9.57398 19.515 9.11798 18.954 9.11798H4.51599ZM19.45 18.432C19.7385 18.4314 19.972 18.1974 19.972 17.909V17.079H3.5V17.909C3.5 18.198 3.734 18.432 4.023 18.432H19.45Z"/>
    </g>
    <g fill="#444B61" class="svg-secondary-fill">
      <path d="M25.144 5.555C25.144 5.14079 24.8082 4.805 24.394 4.805V4.806H23.338V3.75C23.338 3.33579 23.0022 3 22.588 3 22.1738 3 21.838 3.33579 21.838 3.75V4.806H20.783C20.3688 4.806 20.033 5.14179 20.033 5.556 20.033 5.97021 20.3688 6.306 20.783 6.306H21.838V7.361C21.838 7.77521 22.1738 8.111 22.588 8.111 23.0022 8.111 23.338 7.77521 23.338 7.361V6.305H24.394C24.8082 6.305 25.144 5.96921 25.144 5.555zM19.35 21.81C19.35 21.3958 19.0142 21.06 18.6 21.06H4.875C4.46079 21.06 4.125 21.3958 4.125 21.81 4.125 22.2242 4.46079 22.56 4.875 22.56H6.445V23.068C6.445 23.4822 6.78079 23.818 7.195 23.818 7.60921 23.818 7.945 23.4822 7.945 23.068V22.56H9.472V23.068C9.472 23.4822 9.80779 23.818 10.222 23.818 10.6362 23.818 10.972 23.4822 10.972 23.068V22.56H12.502V23.068C12.502 23.4822 12.8378 23.818 13.252 23.818 13.6662 23.818 14.002 23.4822 14.002 23.068V22.56H15.53V23.068C15.53 23.4822 15.8658 23.818 16.28 23.818 16.6942 23.818 17.03 23.4822 17.03 23.068V22.56H18.6C19.0142 22.56 19.35 22.2242 19.35 21.81z"/>
    </g>
  </g>
</svg>
