<svg xmlns="http://www.w3.org/2000/svg" width="48" height="48" viewBox="0 0 48 48">
  <g class="neo-icon-kit--amenity-parking-grey">
    <path fill="#848996" fill-rule="evenodd" d="M42 11.3564C41.9961 8.39977 39.6003 6.00392 36.6439 6L36.6456 6.00178H11.3597C8.40581 6.00178 6.00356 8.40771 6 11.3564V36.6436C6.00294 39.6006 8.39924 41.9971 11.3561 42H36.6439C39.6003 41.9961 41.9961 39.6002 42 36.6436V11.3564ZM39.3308 11.3564V36.6436H39.329C39.329 38.1242 38.1208 39.3307 36.6421 39.3307H11.3561C9.87564 39.3307 8.66917 38.1242 8.66917 36.6436V11.3564C8.66917 9.87761 9.87386 8.6693 11.3561 8.6693H36.6439C38.1244 8.6693 39.3308 9.87761 39.3308 11.3564Z" class="svg-secondary-fill" clip-rule="evenodd"/>
    <path fill="#848996" fill-rule="evenodd" d="M32 20.3924C31.995 16.8646 28.8976 14.0056 25.0745 14H18.3679C17.6125 14 17 14.5652 17 15.2623V33.7377C17 34.4348 17.6125 35 18.3679 35C19.1234 35 19.7359 34.4348 19.7359 33.7377V26.7865H25.0727C28.8972 26.7818 31.996 23.9216 32 20.3924ZM29.2641 20.3907C29.2631 22.5263 27.3888 24.2581 25.0745 24.2618H19.7359V16.5246H25.0727C27.3856 16.5274 29.2601 18.2564 29.2641 20.3907Z" class="svg-primary-fill" clip-rule="evenodd"/>
  </g>
</svg>
