<svg xmlns="http://www.w3.org/2000/svg" width="26" height="26" viewBox="0 0 26 26">
  <g class="neo-icon-kit--amenity-renovated-coach-grey">
    <path fill="#848996" d="M20.788 19.299C21.2022 19.299 21.538 19.6348 21.538 20.049C21.538 20.4632 21.2022 20.799 20.788 20.799H18.898V21.479C18.898 21.8932 18.5622 22.229 18.148 22.229C17.7338 22.229 17.398 21.8932 17.398 21.479V20.799H15.451V21.479C15.451 21.8932 15.1152 22.229 14.701 22.229C14.2868 22.229 13.951 21.8932 13.951 21.479V20.799H12.004V21.479C12.004 21.8932 11.6682 22.229 11.254 22.229C10.8398 22.229 10.504 21.8932 10.504 21.479V20.799H8.55697V21.479C8.55697 21.8932 8.22118 22.229 7.80697 22.229C7.39276 22.229 7.05697 21.8932 7.05697 21.479V20.799H5.16797C4.75376 20.799 4.41797 20.4632 4.41797 20.049C4.41797 19.6348 4.75376 19.299 5.16797 19.299H20.788Z" class="svg-secondary-fill"/>
    <g fill="#848996" fill-rule="evenodd" class="svg-primary-fill" clip-rule="evenodd">
      <path d="M6.89697 10.905C6.89697 11.3192 7.23276 11.655 7.64697 11.655H11.051C11.4652 11.655 11.801 11.3192 11.801 10.905V7.79901C11.801 7.3848 11.4652 7.04901 11.051 7.04901H7.64697C7.23276 7.04901 6.89697 7.3848 6.89697 7.79901V10.905zM10.3 10.153H8.39697V8.54999H10.3V10.153zM14.904 11.655C14.4898 11.655 14.154 11.3192 14.154 10.905V7.79901C14.154 7.3848 14.4898 7.04901 14.904 7.04901H18.307C18.7212 7.04901 19.057 7.3848 19.057 7.79901V10.905C19.057 11.3192 18.7212 11.655 18.307 11.655H14.904zM15.654 10.153H17.556V8.54999H15.654V10.153z"/>
      <path d="M23.955 6.518C23.9539 5.12819 22.8278 4.00165 21.438 4H4.518C3.1278 4.0011 2.0011 5.1278 2 6.518V15.785C2.0011 16.9022 2.90679 17.8074 4.024 17.808H21.932C23.0488 17.8069 23.9539 16.9018 23.955 15.785V6.518ZM4.518 5.5C3.956 5.5 3.5 5.956 3.5 6.518V13.063H22.455V6.518C22.455 5.956 21.999 5.5 21.438 5.5H4.518ZM21.932 16.308C22.2208 16.308 22.455 16.0738 22.455 15.785V14.563H3.5V15.785C3.5 16.074 3.735 16.308 4.024 16.308H21.932Z"/>
    </g>
  </g>
</svg>
