<svg xmlns="http://www.w3.org/2000/svg" width="26" height="26" viewBox="0 0 26 26">
  <g class="neo-icon-kit--amenity-non-smoking-grey">
    <path fill="#848996" fill-rule="evenodd" d="M23.999 13C23.999 6.93511 19.0639 2 13 2C6.93511 2 2 6.93511 2 13C2 19.0649 6.93511 24 13 24C19.0639 24 23.999 19.0649 23.999 13ZM22.4845 13C22.4845 7.77008 18.2289 3.51446 13 3.51446C10.7469 3.51405 8.56804 4.31985 6.85737 5.78614L12.4013 11.3311H20.0372C20.4554 11.3311 20.7944 11.6701 20.7944 12.0883V15.518C20.7944 15.9362 20.4554 16.2753 20.0372 16.2753H17.3455L20.2128 19.1426C21.6788 17.4318 22.4846 15.253 22.4845 13ZM3.51446 13C3.51446 18.2299 7.77008 22.4855 13 22.4855C15.253 22.4856 17.4318 21.6798 19.1426 20.2139L5.78614 6.85636C4.31993 8.56747 3.51416 10.7466 3.51446 13ZM11.4866 14.7608C11.9048 14.7608 12.2438 15.0998 12.2438 15.518C12.2438 15.9362 11.9048 16.2753 11.4866 16.2753H5.96081C5.5426 16.2753 5.20358 15.9362 5.20358 15.518V12.0883C5.20358 11.6701 5.5426 11.3311 5.96081 11.3311H8.41927C8.68981 11.3311 8.93979 11.4754 9.07505 11.7097C9.21032 11.944 9.21032 12.2326 9.07505 12.4669C8.93979 12.7012 8.68981 12.8455 8.41927 12.8455H6.71804V14.7608H11.4866ZM15.831 14.7608L13.9157 12.8455H19.2799V14.7608H15.831Z" class="svg-primary-fill" clip-rule="evenodd"/>
    <path fill="#848996" d="M17.6575 8.63023C16.7983 8.50246 16.1112 7.85009 15.9391 6.99866C15.8766 6.72981 15.9654 6.44825 16.1707 6.26382C16.3761 6.07939 16.6655 6.0213 16.9261 6.11222C17.1867 6.20314 17.3772 6.42867 17.4233 6.70081C17.4683 6.92615 17.6502 7.09879 17.8776 7.13193C18.856 7.2753 19.5587 8.04868 19.5506 8.97048C19.5477 9.37072 19.4269 9.76122 19.2033 10.0932C19.0923 10.2608 18.9189 10.3771 18.7216 10.4162C18.5244 10.4552 18.3198 10.4138 18.1533 10.3012C17.806 10.0686 17.7129 9.59858 17.9453 9.25116C18.0034 9.16448 18.035 9.06272 18.0361 8.95836C18.0382 8.78067 17.8423 8.65648 17.6575 8.63023Z" class="svg-secondary-fill"/>
  </g>
</svg>
