<svg xmlns="http://www.w3.org/2000/svg" width="48" height="48" viewBox="0 0 48 48">
  <g class="neo-icon-kit--amenity-meetings-grey">
    <path fill="#848996" fill-rule="evenodd" d="M38.7385 30.3766H40.6319C41.3875 30.3766 42 30.9696 42 31.701C42 32.4324 41.3875 33.0254 40.6319 33.0254H25.3681V37.1892L31.2306 41.6302C31.5166 41.8465 31.7021 42.164 31.7462 42.5127C31.7903 42.8615 31.6895 43.2129 31.466 43.4896C31.2431 43.7673 30.915 43.9474 30.5545 43.9902C30.194 44.033 29.8307 43.9348 29.5452 43.7174L24 39.5165L18.4548 43.7174C17.8594 44.168 16.9995 44.066 16.534 43.4896C16.0686 42.9133 16.174 42.0808 16.7694 41.6302L22.6319 37.1892V33.0254H7.36806C6.6125 33.0254 6 32.4324 6 31.701C6 30.9696 6.6125 30.3766 7.36806 30.3766H9.26145V13.3294H7.36806C6.6125 13.3294 6 12.7364 6 12.005C6 11.2736 6.6125 10.6807 7.36806 10.6807H22.6319V7.64873H20.3956C19.6401 7.64873 19.0276 7.05579 19.0276 6.32437C19.0276 5.59294 19.6401 5 20.3956 5H27.6062C28.3618 5 28.9743 5.59294 28.9743 6.32437C28.9743 7.05579 28.3618 7.64873 27.6062 7.64873H25.3681V10.6807H40.6319C41.3875 10.6807 42 11.2736 42 12.005C42 12.7364 41.3875 13.3294 40.6319 13.3294H38.7385V30.3766ZM36.0024 30.3767H11.9976V13.3295H36.0024V30.3767Z" class="svg-primary-fill" clip-rule="evenodd"/>
  </g>
</svg>
