<svg xmlns="http://www.w3.org/2000/svg" width="48" height="48" viewBox="0 0 48 48">
  <g class="neo-icon-kit--amenity-air-conditioning-dark">
    <path fill="#444B61" d="M40.3668 26.8056L34.1844 28.4109L26.6176 23.9982L34.3483 19.4922L40.3668 21.0552C41.0664 21.2365 41.779 20.811 41.9586 20.1048C42.1382 19.3985 41.7167 18.6791 41.0171 18.4978L35.7169 17.1196L37.1849 11.7969C37.3104 11.3423 37.1862 10.8545 36.8589 10.5175C36.5316 10.1804 36.0511 10.0452 35.5984 10.1628C35.1456 10.2804 34.7894 10.6329 34.6638 11.0876L32.9639 17.2498L25.31 21.7118V12.7667L29.7001 8.24494C30.0271 7.90852 30.1515 7.42152 30.0264 6.96739C29.9013 6.51327 29.5458 6.16101 29.0937 6.04332C28.6416 5.92562 28.1616 6.06037 27.8346 6.3968L24.0006 10.3413L20.1667 6.39504C19.8394 6.05861 19.3591 5.92403 18.9069 6.042C18.4546 6.15997 18.099 6.51256 17.9741 6.96695C17.8492 7.42135 17.9738 7.90852 18.3012 8.24494L22.6948 12.7685V21.7118L15.0356 17.2481L13.3339 11.0876C13.1399 10.3852 12.4187 9.97466 11.723 10.1705C11.0273 10.3664 10.6206 11.0946 10.8146 11.7969L12.2861 17.1213L6.98589 18.4978C6.53336 18.615 6.17718 18.9671 6.05152 19.4214C5.92586 19.8757 6.04982 20.3632 6.37669 20.7002C6.70356 21.0372 7.18369 21.1725 7.63622 21.0552L13.653 19.4922L21.3837 23.9982L13.8169 28.4109L7.63447 26.8056C6.93551 26.6314 6.22698 27.054 6.04092 27.7561C5.86242 28.4627 6.28448 29.1818 6.98415 29.3631L12.2861 30.7395L10.8146 36.064C10.6825 36.5206 10.8039 37.0136 11.1325 37.3546C11.461 37.6955 11.9458 37.8317 12.4016 37.711C12.8573 37.5903 13.2135 37.2314 13.3339 36.7715L14.9903 30.7747L22.6913 26.2864V35.2297L18.2994 39.7532C17.8231 40.2778 17.8444 41.0891 18.3475 41.5875C18.8506 42.0859 19.6544 42.092 20.165 41.6014L24.0006 37.6551L27.8328 41.6014C28.0745 41.8531 28.406 41.9966 28.7532 41.9999C29.1005 42.0033 29.4346 41.8661 29.6809 41.619C30.1957 41.1084 30.2035 40.2735 29.6984 39.7532L25.3065 35.2297V26.2846L33.0075 30.7747L34.6638 36.7715C34.8858 37.4376 35.5852 37.8119 36.2558 37.6236C36.9264 37.4352 37.3338 36.7501 37.1832 36.064L35.7134 30.7395L41.0154 29.3631C41.7149 29.1818 42.1365 28.4623 41.9569 27.7561C41.7773 27.0499 41.0646 26.6243 40.3651 26.8056" class="svg-primary-fill"/>
  </g>
</svg>
