<svg xmlns="http://www.w3.org/2000/svg" width="48" height="48" viewBox="0 0 48 48">
  <g class="neo-icon-kit--amenity-accessible-grey">
    <g fill="#848996" class="svg-primary-fill">
      <path fill-rule="evenodd" d="M34.6293 12.978C31.6656 12.9736 29.2647 10.5176 29.2625 7.488 29.2658 4.45921 31.6663 2.00441 34.6293 2 37.593 2.00331 39.9948 4.45843 39.998 7.488 39.9959 10.5183 37.5938 12.9747 34.6293 12.978zM34.6293 5C33.331 5.06518 32.3111 6.16022 32.3111 7.489 32.3111 8.81777 33.331 9.91282 34.6293 9.978 35.9277 9.91282 36.9476 8.81777 36.9476 7.489 36.9476 6.16022 35.9277 5.06518 34.6293 5zM40 39.058C40 38.2296 39.343 37.558 38.5326 37.558H37.2726L38.7361 30.926C38.7532 30.8511 38.7637 30.7748 38.7674 30.698 38.787 30.41 38.7791 30.124 38.7537 29.836 38.5267 27.626 36.6778 25.824 34.1891 25.54L31.0704 25.534 33.2656 21.848C34.0877 20.4609 34.307 18.7863 33.8707 17.227 33.4344 15.6677 32.382 14.3649 30.9667 13.632L30.2663 13.272C29.9415 13.106 29.6128 12.98 29.2763 12.882 29.263 12.8789 29.2525 12.8736 29.2421 12.8684 29.2324 12.8636 29.223 12.8589 29.2117 12.856L20.5051 11.016C18.558 10.6003 16.5573 11.4214 15.4318 13.098L13.1486 16.482C12.8352 16.9225 12.7801 17.502 13.0045 17.9959 13.2289 18.4899 13.6976 18.8207 14.229 18.8602 14.7604 18.8996 15.271 18.6416 15.5629 18.186L17.8462 14.8C18.3066 14.1188 19.1212 13.7855 19.9142 13.954L23.3969 14.69C23.1171 15.024 22.8608 15.38 22.6573 15.788L18.5975 23.8C18.1579 24.6633 18.1763 25.6956 18.6464 26.542 19.1097 27.3889 19.961 27.9384 20.9082 28.002L28.3626 28.524 28.4604 28.528 34.0189 28.532C34.9698 28.642 35.7504 29.338 35.8326 30.14 35.8404 30.224 35.8443 30.31 35.8443 30.396L34.0071 38.728C33.9091 39.1724 34.014 39.6383 34.2921 39.9942 34.5703 40.3502 34.9917 40.5576 35.4374 40.558H38.5326C39.343 40.558 40 39.8864 40 39.058zM21.2036 25.178L25.2634 17.166C25.7393 16.2331 26.6837 15.6487 27.713 15.65 27.8893 15.6537 28.0649 15.6745 28.2373 15.712L28.3958 15.746C28.5857 15.7944 28.7701 15.8635 28.9456 15.952L29.6441 16.312C30.3331 16.6614 30.845 17.293 31.0528 18.05 31.266 18.814 31.1624 19.61 30.7593 20.29L27.6641 25.488 21.2036 25.178z" clip-rule="evenodd"/>
      <path d="M31.1897 30.842C31.9963 30.842 32.6517 31.5075 32.6571 32.332C32.678 35.6885 31.3866 38.9146 29.0698 41.2933C26.7531 43.6721 23.6029 45.0065 20.3192 45C13.7916 44.9871 8.40226 39.7812 8.02048 33.12C7.73474 28.0512 10.4592 23.3041 14.927 21.086C15.3982 20.8509 15.9562 20.8906 16.3909 21.1901C16.8256 21.4897 17.071 22.0035 17.0346 22.5381C16.9982 23.0728 16.6856 23.5469 16.2144 23.782C12.8109 25.4712 10.7349 29.0868 10.9514 32.948C11.2507 38.234 15.7175 42.322 20.8671 41.984C25.8581 41.6984 29.7531 37.4618 29.7223 32.352C29.7197 31.9542 29.8718 31.5716 30.1452 31.2884C30.4186 31.0052 30.7908 30.8446 31.1799 30.842H31.1897Z"/>
    </g>
  </g>
</svg>
