<svg xmlns="http://www.w3.org/2000/svg" width="48" height="48" viewBox="0 0 48 48">
  <g class="neo-icon-kit--amenity-entertainment-dark">
    <path fill="#444B61" fill-rule="evenodd" d="M9.45603 39H39.5404C42.0008 38.997 43.9951 36.9386 44 34.3973V13.6027C43.9961 11.0609 42.0012 9.00202 39.5404 9H9.45603C6.99625 9.00303 5.00293 11.062 5 13.6027V34.3973C5.00391 36.9376 6.99665 38.996 9.45603 39ZM7.66296 13.6027C7.66296 12.5795 8.46718 11.7506 9.45603 11.7506H39.5404C40.531 11.7506 41.337 12.5795 41.337 13.6027V34.3973C41.337 35.4187 40.531 36.2494 39.5404 36.2494H9.45603C8.46718 36.2494 7.66296 35.4169 7.66296 34.3973V13.6027Z" class="svg-secondary-fill" clip-rule="evenodd"/>
    <path fill="#444B61" fill-rule="evenodd" d="M17.4233 31.5987C17.6952 31.8565 18.0644 32.001 18.449 32L18.4509 31.9982C18.7046 31.9983 18.9538 31.9351 19.1735 31.815L31.2756 25.1908C31.7238 24.9454 32 24.4918 32 24.001C32 23.5101 31.7238 23.0566 31.2756 22.8111L19.1754 16.1851C18.7269 15.9387 18.1736 15.9383 17.7246 16.184C17.2756 16.4298 16.9993 16.8843 17 17.3759V30.6261C16.999 30.9908 17.1513 31.3408 17.4233 31.5987ZM19.898 28.2464V19.7555L27.6531 24L19.898 28.2464Z" class="svg-primary-fill" clip-rule="evenodd"/>
  </g>
</svg>
