<svg xmlns="http://www.w3.org/2000/svg" width="48" height="48" viewBox="0 0 48 48">
  <g class="neo-icon-kit--amenity-food-grey">
    <g fill="#848996" class="svg-primary-fill">
      <path d="M22.5692 6.9227C22.5692 6.15922 21.9493 5.5403 21.1846 5.5403C20.4199 5.5403 19.7999 6.15922 19.7999 6.9227V19.0362C19.7999 20.1809 18.8639 21.1135 17.7193 21.1135H17.2855V6.92086C17.2855 6.15738 16.6656 5.53845 15.9009 5.53845C15.1362 5.53845 14.5163 6.15738 14.5163 6.92086V21.1135H14.0806C12.9341 21.1135 11.9999 20.179 11.9999 19.0362V6.9227C11.9999 6.15922 11.38 5.5403 10.6153 5.5403C9.85063 5.5403 9.23071 6.15922 9.23071 6.9227V19.0362C9.23377 21.7092 11.4033 23.8753 14.0806 23.8783H14.5163V41.0791C14.5163 41.8426 15.1362 42.4615 15.9009 42.4615C16.6656 42.4615 17.2855 41.8426 17.2855 41.0791V23.8783H17.7193C20.3966 23.8753 22.5661 21.7092 22.5692 19.0362V6.9227Z"/>
      <path fill-rule="evenodd" d="M36.7698 5.53845C37.5345 5.53845 38.1544 6.15738 38.1544 6.92086V41.0791C38.1544 41.8426 37.5345 42.4615 36.7698 42.4615C36.0051 42.4615 35.3852 41.8426 35.3852 41.0791V31.3138L30.4153 27.8836C28.5858 26.8809 27.5723 24.6138 28.0652 22.4462L29.8227 9.56217C30.3692 7.14573 32.3852 5.53845 34.7483 5.53845H36.7698ZM31.8738 25.5372L35.3852 27.9555V8.30326H34.7482C33.6849 8.30326 32.7802 9.02579 32.5439 10.0598L30.7882 22.942C30.5446 24.0369 30.9987 25.0525 31.8738 25.5372Z" clip-rule="evenodd"/>
    </g>
  </g>
</svg>
