<svg xmlns="http://www.w3.org/2000/svg" width="26" height="26" viewBox="0 0 26 26">
  <g class="neo-icon-kit--amenity-portal-app-grey">
    <path fill="#848996" fill-rule="evenodd" d="M19 5.05071C19 3.91986 18.074 3 16.9356 3H9.06444C7.92602 3 7 3.91986 7 5.05071V20.9484C7.00103 22.0807 7.92455 22.9985 9.06444 23H16.9356C18.0751 22.9985 18.9985 22.0812 19 20.9493V5.05071ZM9.06444 4.38812C8.69626 4.38863 8.39792 4.68498 8.39741 5.05071V5.67722H17.6026V5.05071C17.6021 4.68498 17.3037 4.38863 16.9356 4.38812H9.06444ZM16.9356 21.6119C17.3041 21.6114 17.6026 21.3145 17.6026 20.9484V7.06534H8.39741V20.9484C8.39741 21.3148 8.69645 21.6119 9.06444 21.6119H16.9356Z" class="svg-primary-fill" clip-rule="evenodd"/>
    <path fill="#848996" d="M14.0513 19.1188C14.4372 19.1188 14.75 19.4295 14.75 19.8128C14.75 20.1962 14.4372 20.5069 14.0513 20.5069H11.9477C11.5618 20.5069 11.249 20.1962 11.249 19.8128C11.249 19.4295 11.5618 19.1188 11.9477 19.1188H14.0513Z" class="svg-secondary-fill"/>
  </g>
</svg>
