<svg xmlns="http://www.w3.org/2000/svg" width="48" height="48" viewBox="0 0 48 48">
  <g class="neo-icon-kit--amenity-bar-dark">
    <g fill="#444B61" fill-rule="evenodd" class="svg-primary-fill" clip-rule="evenodd">
      <path d="M17.176 17.2149C17.1815 17.4793 17.2671 17.7531 17.431 18.025 19.2163 21.0478 20.087 23.8737 20.087 26.6621V40.4015C20.086 42.3885 18.5215 43.999 16.5912 44H9.49762C7.56665 44 6.00101 42.3892 6 40.4015V27.0315C6 23.8456 6.90355 20.7553 8.61411 18.0963 8.78908 17.8352 8.89115 17.5297 8.90922 17.213L9.16061 6.37451C9.17745 5.61026 9.78424 4.9998 10.5269 5H15.5584C16.301 4.9998 16.9078 5.61026 16.9246 6.37451L17.176 17.2149zM17.3545 40.4034V26.664C17.3545 24.4062 16.6168 22.0604 15.0957 19.4933 14.6948 18.8274 14.47 18.0653 14.4435 17.2824L14.2249 7.81277H11.8585L11.6399 17.2806C11.6217 18.0981 11.3612 18.9176 10.8894 19.6508 9.48012 21.8387 8.7298 24.4063 8.73253 27.0315V40.4015C8.73253 40.8347 9.07318 41.1872 9.49763 41.1872H16.5913C16.794 41.1877 16.9886 41.1052 17.1322 40.9578 17.2757 40.8104 17.3564 40.6102 17.3564 40.4015L17.3545 40.4034zM40.1018 31.6726C38.8957 33.0977 37.2098 33.9995 35.3837 34.1966V41.1853H37.3875C38.1421 41.1853 38.7538 41.815 38.7538 42.5917 38.7538 43.3685 38.1421 43.9981 37.3875 43.9981H30.6473C29.8927 43.9981 29.281 43.3685 29.281 42.5917 29.281 41.815 29.8927 41.1853 30.6473 41.1853H32.6511V34.1909C28.7072 33.7278 25.7652 30.0843 26.0567 25.8933L26.4811 16.2267C26.5142 15.4757 27.1152 14.8843 27.8455 14.8841H40.1965C40.9269 14.8843 41.5279 15.4757 41.561 16.2267L41.9836 25.9233C42.1162 28.02 41.44 30.0859 40.1018 31.6726zM28.7856 26.0583C28.5925 28.8392 30.5435 31.2375 33.1339 31.4382 33.6713 31.4775 34.2433 31.4813 34.8135 31.4494 36.0604 31.3815 37.227 30.7946 38.0452 29.8236 38.9117 28.7976 39.3474 27.4596 39.2566 26.1033L39.2548 26.0658 38.8904 17.6968H29.1517L28.7856 26.0583z"/>
    </g>
  </g>
</svg>
