<svg xmlns="http://www.w3.org/2000/svg" width="48" height="48" viewBox="0 0 48 48">
  <g class="neo-icon-kit--amenity-fitness-grey">
    <path fill="#848996" fill-rule="evenodd" d="M42.0451 29.4671C42.0451 29.6681 41.8835 29.8297 41.6845 29.8297H39.4269V19.1704H41.6845C41.8835 19.1704 42.0451 19.3319 42.0451 19.533V29.4671ZM36.4719 34.6814C36.4719 34.8824 36.3104 35.044 36.1094 35.044H33.0087V13.956H36.1094C36.3104 13.956 36.4719 14.1176 36.4719 14.3186V34.6814ZM17.9462 26.314H30.0537V22.686H17.9462V26.314ZM14.9913 35.044H11.8886C11.6916 35.044 11.53 34.8824 11.53 34.6814V14.3186C11.53 14.1176 11.6916 13.956 11.8886 13.956H14.9913V35.044ZM8.57505 29.8297H6.31548C6.11651 29.8297 5.95497 29.6681 5.95497 29.4671V19.533C5.95497 19.3319 6.11651 19.1704 6.31548 19.1704H8.57505V29.8297ZM41.6845 16.2144H39.4269V14.3186C39.4269 12.4878 37.9396 11 36.1095 11H31.5312C30.7157 11 30.0538 11.6621 30.0538 12.478V19.732H17.9462V12.478C17.9462 11.6621 17.2843 11 16.4688 11H11.8886C10.0624 11 8.57505 12.4878 8.57505 14.3186V16.2144H6.31548C4.48734 16.2144 3 17.7022 3 19.533V29.467C3 31.2978 4.48734 32.7856 6.31548 32.7856H8.57505V34.6814C8.57505 36.5122 10.0624 38 11.8886 38H16.4688C17.2843 38 17.9462 37.3379 17.9462 36.522V29.27H30.0538V36.522C30.0538 37.3379 30.7157 38 31.5312 38H36.1095C37.9396 38 39.4269 36.5122 39.4269 34.6814V32.7856H41.6845C43.5127 32.7856 45 31.2978 45 29.467V19.533C45 17.7022 43.5127 16.2144 41.6845 16.2144Z" class="svg-primary-fill" clip-rule="evenodd"/>
  </g>
</svg>
