<svg xmlns="http://www.w3.org/2000/svg" width="48" height="48" viewBox="0 0 48 48">
  <g class="neo-icon-kit--amenity-room-service-dark">
    <path fill="#444B61" fill-rule="evenodd" d="M40.3635 33.1492H42.6458C43.3937 33.1492 44 33.7874 44 34.5746C44 35.3618 43.3937 36 42.6458 36H5.35422C4.6063 36 4 35.3618 4 34.5746C4 33.7874 4.6063 33.1492 5.35422 33.1492H7.63653C8.1728 26.2692 12.5478 20.5296 18.501 18.2965C18.6779 14.7919 21.0632 12 23.9991 12C26.935 12 29.3221 14.7919 29.499 18.2965C35.4522 20.5296 39.8272 26.2692 40.3635 33.1492ZM23.9992 14.8508C25.2559 14.8508 26.3104 15.9816 26.6769 17.5287C25.7924 17.3678 24.8968 17.2839 23.9992 17.2778C23.0873 17.2778 22.1935 17.3766 21.3232 17.5287C21.6898 15.9816 22.7442 14.8489 23.9992 14.8489V14.8508ZM10.3433 33.1473H37.6568C36.9761 25.8492 31.1114 20.1286 23.9991 20.1286C16.8892 20.1286 11.0249 25.8482 10.3433 33.1473Z" class="svg-primary-fill" clip-rule="evenodd"/>
  </g>
</svg>
