<svg xmlns="http://www.w3.org/2000/svg" width="48" height="48" viewBox="0 0 48 48">
  <g class="neo-icon-kit--amenity-seat-grey">
    <path fill="#848996" fill-rule="evenodd" d="M37.9208 22.4979H40.6597C42.5015 22.4979 44 24.009 44 25.8684V37.1128C44 38.9702 42.5015 40.4814 40.6597 40.4814H37.7263C37.165 42.5535 35.3014 43.9931 33.1714 44H14.8306C12.7003 43.9927 10.8363 42.5534 10.2737 40.4814H7.34025C5.49843 40.4814 3.99997 38.9702 3.99997 37.1128V25.8684C3.99997 24.009 5.49843 22.4979 7.34025 22.4979H10.0891V12.0861C10.0956 7.623 13.6817 4.00661 18.1073 4H29.9025C34.3282 4.00661 37.9142 7.623 37.9208 12.0861V22.4979ZM13.0621 12.0861C13.0621 9.28397 15.3247 7.00226 18.1053 7.00226H29.8985C32.6816 7.00556 34.9373 9.27941 34.9416 12.0861V33.2359C34.3809 33.0046 33.7811 32.8849 33.1752 32.8837H14.8305C14.2033 32.8837 13.6079 33.0118 13.0601 33.2359V12.0861H13.0621ZM6.97901 25.8684V37.1128C6.97901 37.3151 7.14162 37.4791 7.34221 37.4791H10.0851V25.5001H7.34221C7.14176 25.5001 6.97901 25.6642 6.97901 25.8684ZM41.0249 37.1128C41.0249 37.3151 40.8623 37.4791 40.6617 37.4791H37.9208V25.5001H40.6637C40.8642 25.5001 41.0269 25.6642 41.0269 25.8684V37.1128H41.0249ZM14.8344 40.9978C13.8572 40.9978 13.0643 40.2 13.0621 39.2144V37.6693C13.0621 36.6865 13.858 35.8859 14.8325 35.8859H33.1732C34.1477 35.8859 34.9416 36.6865 34.9416 37.6693V39.2144C34.9416 40.1972 34.1477 40.9978 33.1752 40.9978H14.8344Z" class="svg-primary-fill" clip-rule="evenodd"/>
  </g>
</svg>
