<svg xmlns="http://www.w3.org/2000/svg" width="48" height="48" viewBox="0 0 48 48">
  <g class="neo-icon-kit--amenity-wifi-dark">
    <path fill="#444B61" fill-rule="evenodd" d="M5.07689 22.6228C4.52842 22.6241 4.03099 22.3012 3.80901 21.7996C3.58703 21.2981 3.68247 20.7127 4.05227 20.3077C9.45966 14.3538 16.6689 11.0769 24.3544 11.0769C32.04 11.0769 39.251 14.3538 44.6566 20.3077C44.989 20.6741 45.1007 21.19 44.9496 21.661C44.7985 22.1321 44.4076 22.4868 43.9241 22.5915C43.4406 22.6962 42.9379 22.535 42.6055 22.1686C37.7317 16.8 31.2517 13.8461 24.3544 13.8461C17.4609 13.8461 10.9772 16.8 6.1015 22.1686C5.83965 22.4582 5.46732 22.6232 5.07689 22.6228ZM37.4694 27.8234C37.7322 28.1127 38.105 28.2776 38.4959 28.2775C39.0439 28.278 39.5406 27.9551 39.7627 27.4541C39.9848 26.9531 39.8906 26.3683 39.5223 25.9624C35.4848 21.5169 30.0996 19.0689 24.3562 19.0671H24.3543C18.6109 19.0671 13.2239 21.5169 9.18633 25.9624C8.69864 26.5313 8.75198 27.3849 9.30669 27.8887C9.8614 28.3924 10.7162 28.3635 11.2356 27.8234C14.7432 23.9631 19.4011 21.8363 24.3562 21.8363C29.3094 21.8381 33.9672 23.9649 37.4694 27.8234ZM13.6851 32.6717C13.907 33.172 14.4028 33.4945 14.9501 33.4947C15.3407 33.4953 15.7134 33.3311 15.9765 33.0424C18.2178 30.5704 21.1938 29.2117 24.3581 29.2117C27.5187 29.2117 30.4928 30.5723 32.7322 33.0424C33.0603 33.4252 33.5705 33.5993 34.0642 33.4971C34.5578 33.3949 34.9569 33.0325 35.106 32.551C35.2552 32.0694 35.1309 31.5449 34.7815 31.1815C32.0122 28.1261 28.3107 26.4424 24.3599 26.4424H24.3581C20.4036 26.4424 16.7002 28.1261 13.9236 31.1815C13.5566 31.5875 13.4631 32.1715 13.6851 32.6717ZM27.995 38.2578C28.2568 38.5474 28.6292 38.7125 29.0196 38.712C29.5677 38.7126 30.0645 38.3894 30.286 37.888C30.5075 37.3866 30.4119 36.8017 30.0424 36.3969C28.5285 34.7317 26.5125 33.8123 24.3562 33.8123C22.198 33.8123 20.1784 34.7317 18.6645 36.3969C18.1768 36.9658 18.2302 37.8194 18.7849 38.3231C19.3396 38.8269 20.1944 38.7979 20.7137 38.2578C21.6432 37.2268 22.9662 36.6382 24.3544 36.6382C25.7425 36.6382 27.0655 37.2268 27.995 38.2578Z" class="svg-primary-fill" clip-rule="evenodd"/>
  </g>
</svg>
