<svg xmlns="http://www.w3.org/2000/svg" width="18" height="18" viewBox="0 0 18 18">
  <g class="neo-icon-kit--ancillary-power">
    <path fill="#444B61" fill-rule="evenodd" d="M12.3425 16C11.2049 16 10.2853 15.188 10.2853 13.998C10.285 13.7317 10.1752 13.4765 9.98018 13.2894C9.7852 13.1023 9.52133 12.9988 9.24738 13.002H6.17075C5.04131 13.002 4.11349 11.857 4.11349 10.665V9.5H2.3175C1.60641 9.5 1.02863 10.0616 1.02863 10.755V15.011H0V10.755C0 9.51042 1.03717 8.5 2.3175 8.5H4.11349V7.334C4.11349 6.143 5.04131 5.008 6.17075 5.008H9.24738C9.82033 5.008 10.2853 4.561 10.2853 4.154C10.2853 2.964 11.2049 2 12.3425 2H15.4284V6H18V7H15.4284V11H18V12H15.4284V16H12.3425ZM10.7028 12.5777C10.314 12.2046 9.78837 11.9975 9.24226 12.002H6.17075C5.97903 12.002 5.73443 11.9035 5.50876 11.6403C5.28317 11.3771 5.14212 11.0173 5.14212 10.665V7.334C5.14212 6.98291 5.28261 6.62682 5.50679 6.36689C5.73085 6.10711 5.97567 6.008 6.17075 6.008H9.24738C9.80997 6.008 10.3076 5.79003 10.6653 5.48044C11.0079 5.1838 11.3139 4.71709 11.3139 4.154C11.3139 3.44477 11.8438 3 12.3425 3H14.3998V15H12.3425C11.7456 15 11.3139 14.6085 11.3139 13.9971C11.3134 13.4636 11.0933 12.9525 10.7028 12.5777Z" class="svg-primary-fill" clip-rule="evenodd"/>
  </g>
</svg>
