<svg xmlns="http://www.w3.org/2000/svg" width="18" height="18" viewBox="0 0 18 18">
  <g class="neo-icon-kit--ancillary-seat">
    <g fill="#444B61" fill-rule="evenodd" class="svg-primary-fill" clip-rule="evenodd">
      <path d="M3 10V3.995C3.00275 1.78976 4.78976.00275483 6.995 0H11.005C13.2107.00165448 14.9983 1.78931 15 3.995V10H15.5C16.328 10 17 10.665 17 11.499V14.501C17 15.329 16.334 16 15.5 16H15V16.005C15 16.0058 15 16.0066 15 16.0074 14.996 17.1086 14.1021 18 13 18 12.9973 18 12.9937 18 12.991 18H5C4.99291 18 4.98583 18 4.97876 17.9999 3.88903 17.9886 3.00817 17.1057 3.00006 16.0152 3.00003 16.0118 3.00001 16.0084 3 16.005M12.993 17L5.008 17 5.0045 17C4.99952 17 4.99454 17 4.98957 16.9999 4.72938 16.997 4.48034 16.8928 4.29548 16.7091 4.10849 16.5233 4.00238 16.2714 4.00003 16.008 4.00001 16.0053 4 16.0027 4 16 4 15.4477 4.44772 15 5 15H13C13.5523 15 14 15.4477 14 16 14 16.0008 14 16.0017 14 16.0025 13.9986 16.5536 13.5514 17 13 17M14 14.2676V3.99575C13.9988 2.34188 12.6584 1.00144 11.0046 1H6.99567C5.3422 1.00238 4.00238 2.3422 4 3.99567V14.2676C4.29417 14.0974 4.63571 14 5 14H13C13.3643 14 13.7058 14.0974 14 14.2676zM15 15H15.5C15.78 15 16 14.7785 16 14.501V11.499C16 11.2208 15.7792 11 15.5 11H15V15zM3 10H2.5C1.666 10 1 10.671 1 11.499V14.501C1 15.335 1.671 16 2.5 16H3M3 15V11H2.5C2.22002 11 2 11.2215 2 11.499V14.501C2 14.7797 2.22024 15 2.5 15H3z"/>
    </g>
  </g>
</svg>
