<svg xmlns="http://www.w3.org/2000/svg" width="18" height="18" viewBox="0 0 18 18">
  <g class="neo-icon-kit--ancillary-luggage">
    <path fill="#444B61" fill-rule="evenodd" d="M5 3V2.511C5 1.676 5.682 1 6.505 1H11.495C12.326 1 13 1.671 13 2.511V3H16C17.1046 3 18 3.89543 18 5V15C18 16.1046 17.1046 17 16 17H2C0.89543 17 0 16.1046 0 15V5C0 3.89543 0.89543 3 2 3H5ZM6 3H12V2.511C12 2.22199 11.7724 2 11.495 2H6.505C6.23428 2 6 2.22828 6 2.511V3ZM5 4H4V16H14V4H13V4.022H5V4ZM2 16H3V4H2C1.44772 4 1 4.44772 1 5V15C1 15.5523 1.44772 16 2 16ZM16 16H15V4H16C16.5523 4 17 4.44772 17 5V15C17 15.5523 16.5523 16 16 16Z" class="svg-primary-fill" clip-rule="evenodd"/>
  </g>
</svg>
