<svg xmlns="http://www.w3.org/2000/svg" width="18" height="18" viewBox="0 0 18 18">
  <g class="neo-icon-kit--ancillary-wifi">
    <g fill="#444B61" class="svg-primary-fill">
      <path d="M0.075 6.75C4.975 1.75 12.875 1.75 17.775 6.75C17.975 6.95 17.975 7.25 17.775 7.45C17.575 7.65 17.275 7.65 17.075 7.45C12.575 2.85 5.275 2.85 0.775 7.45C0.775 7.55 0.575 7.65 0.475 7.65C0.375 7.65 0.175 7.65 0.075 7.45C-0.025 7.25 -0.025 6.95 0.075 6.75Z"/>
      <path d="M15.475 9.14995C13.675 7.44995 11.375 6.44995 8.975 6.44995C6.575 6.44995 4.275 7.44995 2.475 9.24995C2.275 9.44995 2.275 9.74995 2.475 9.94995C2.675 10.15 2.975 10.15 3.175 9.84995C4.775 8.34995 6.775 7.44995 8.975 7.44995C11.175 7.44995 13.175 8.34995 14.675 9.84995C14.775 10.05 14.975 10.05 15.075 10.05C15.175 10.05 15.375 10.05 15.475 9.84995C15.675 9.64995 15.675 9.34995 15.475 9.14995Z"/>
      <path d="M13.075 11.45C11.975 10.35 10.575 9.75 8.975 9.75 7.375 9.75 5.975 10.45 4.775 11.55 4.575 11.75 4.575 12.05 4.775 12.25 4.875 12.45 5.075 12.45 5.175 12.45 5.375 12.45 5.475 12.35 5.575 12.25 6.475 11.35 7.675 10.85 8.975 10.85 10.2291 10.8533 11.4386 11.3158 12.375 12.15 12.575 12.35 12.875 12.35 13.075 12.15 13.275 11.95 13.275 11.65 13.075 11.45zM10.475 14.25C10.075 13.75 9.575 13.55 8.975 13.55 8.375 13.55 7.875 13.75 7.275 14.15 7.075 14.35 7.075 14.65 7.275 14.85 7.475 15.05 7.775 15.05 7.975 14.85 8.475 14.35 9.275 14.35 9.675 14.85 9.775 15.05 9.875 15.05 10.075 15.05 10.275 15.05 10.375 15.05 10.475 14.95 10.675 14.75 10.675 14.45 10.475 14.25z"/>
    </g>
  </g>
</svg>
