<svg xmlns="http://www.w3.org/2000/svg" width="48" height="48" viewBox="0 0 48 48">
  <g class="neo-icon-kit--archive">
    <path fill="#006FCF" fill-rule="evenodd" d="M42 3H6.1L5.91906 3.00493C4.30179 3.09337 3 4.36071 3 6V15L3.00493 15.1706C3.09337 16.6982 4.36071 18 6 18H7V42.2L7.00529 42.3658C7.09657 43.7945 8.35556 45 9.8 45H38.2L38.3658 44.9947C39.7945 44.9034 41 43.6444 41 42.2V18H41.9L42.0809 17.9947C43.6982 17.8997 45 16.5429 45 15V6L44.9951 5.81943C44.9066 4.2088 43.6393 3 42 3ZM10 18H38V42H10V18ZM31.5 24C32.3284 24 33 24.6716 33 25.5C33 26.3284 32.3284 27 31.5 27H16.5C15.6716 27 15 26.3284 15 25.5C15 24.6716 15.6716 24 16.5 24H31.5ZM6 6H42V15H6V6Z" class="svg-primary-fill" clip-rule="evenodd"/>
  </g>
</svg>
