<svg xmlns="http://www.w3.org/2000/svg" width="48" height="48" viewBox="0 0 48 48">
  <g class="neo-icon-kit--archive-filled">
    <path fill="#006FCF" fill-rule="evenodd" d="M42 3H6.1L5.91906 3.00493C4.30179 3.09337 3 4.36071 3 6V12L3.00493 12.1706C3.09337 13.6982 4.36071 15 6 15H41.9L42.0809 14.9947C43.6982 14.8997 45 13.5429 45 12V6L44.9951 5.81943C44.9066 4.2088 43.6393 3 42 3ZM41 17.9996V42.2006C41 43.645 39.7945 44.9031 38.3658 44.9943L38.2 44.9996H9.8C8.35556 44.9996 7.09657 43.795 7.00529 42.3664L7 42.2006V17.9996H41ZM31.5 24H16.5C15.6716 24 15 24.6716 15 25.5C15 26.2797 15.5949 26.9204 16.3555 26.9931L16.5 27H31.5C32.3284 27 33 26.3284 33 25.5C33 24.7203 32.4051 24.0796 31.6445 24.0069L31.5 24Z" class="svg-primary-fill" clip-rule="evenodd"/>
  </g>
</svg>
