<svg xmlns="http://www.w3.org/2000/svg" width="48" height="48" viewBox="0 0 48 48">
  <g class="neo-icon-kit--arrow-left">
    <path fill="#006FCF" fill-rule="evenodd" d="M15.04 14.3367C15.629 13.8556 16.4982 13.8903 17.0481 14.4393C17.6342 15.0252 17.6342 15.9758 17.0486 16.5628L11.1209 22.4985L40.6442 22.5054C41.4052 22.5781 42 23.2193 42 23.9999C42 24.8293 41.3285 25.5013 40.4997 25.5013H11.1209L17.1515 31.5512C17.6319 32.1414 17.5976 33.0112 17.0481 33.5606C16.7551 33.8534 16.3712 34 15.9874 34C15.6035 34 15.2191 33.8534 14.9261 33.5601L6.33613 24.9474C5.88799 24.3967 5.88794 23.6028 6.33607 23.0527L15.04 14.3367Z" class="svg-primary-fill" clip-rule="evenodd"/>
  </g>
</svg>
