<svg xmlns="http://www.w3.org/2000/svg" width="48" height="48" viewBox="0 0 48 48">
  <g class="neo-icon-kit--arrow-up">
    <path fill="#006FCF" fill-rule="evenodd" d="M33.6633 15.04C34.1444 15.629 34.1097 16.4982 33.5607 17.0481C32.9747 17.6342 32.0242 17.6342 31.4372 17.0486L25.5015 11.1209L25.4946 40.6442C25.4219 41.4052 24.7807 42 24.0001 42C23.1707 42 22.4987 41.3285 22.4987 40.4997V11.1209L16.4488 17.1515C15.8586 17.6319 14.9887 17.5976 14.4394 17.0481C14.1466 16.7551 14 16.3712 14 15.9874C14 15.6035 14.1466 15.2191 14.4399 14.9261L23.0526 6.33613C23.6033 5.88799 24.3972 5.88794 24.9473 6.33607L33.6633 15.04Z" class="svg-primary-fill" clip-rule="evenodd"/>
  </g>
</svg>
