<svg xmlns="http://www.w3.org/2000/svg" width="48" height="48" viewBox="0 0 48 48">
  <g class="neo-icon-kit--arrow-left-filled">
    <path fill="#006FCF" fill-rule="evenodd" d="M14.3682 13.5941L5.59273 22.3818L5.56078 22.421C4.81285 23.3391 4.81338 24.6605 5.56054 25.5786L5.59242 25.6178L14.2181 34.2663C14.7062 34.7548 15.349 35 15.9874 35C16.6259 35 17.2672 34.7553 17.7549 34.268C18.6712 33.3518 18.7274 31.9032 17.9272 30.9199L17.8953 30.8809L13.5297 26.5013H40.4997C41.8815 26.5013 43 25.3809 43 23.9999C43 22.6996 42.0091 21.6313 40.7394 21.5099L40.692 21.5054L13.5323 21.4991L17.7562 17.2694C18.7309 16.2924 18.7321 14.7089 17.7552 13.7321C16.8395 12.818 15.3908 12.7589 14.4074 13.5621L14.3682 13.5941Z" class="svg-primary-fill" clip-rule="evenodd"/>
  </g>
</svg>
