<svg xmlns="http://www.w3.org/2000/svg" width="48" height="48" viewBox="0 0 48 48">
  <g class="neo-icon-kit--arrow-down">
    <path fill="#006FCF" fill-rule="evenodd" d="M14.3367 32.96C13.8556 32.371 13.8903 31.5018 14.4393 30.9519C15.0252 30.3658 15.9758 30.3658 16.5628 30.9514L22.4985 36.8791L22.5054 7.35579C22.5781 6.59485 23.2193 6 23.9999 6C24.8293 6 25.5013 6.67152 25.5013 7.50031V36.8791L31.5512 30.8485C32.1414 30.3681 33.0112 30.4024 33.5606 30.9519C33.8534 31.2449 34 31.6288 34 32.0126C34 32.3965 33.8534 32.7809 33.5601 33.0739L24.9474 41.6639C24.3967 42.112 23.6028 42.1121 23.0527 41.6639L14.3367 32.96Z" class="svg-primary-fill" clip-rule="evenodd"/>
  </g>
</svg>
