<svg xmlns="http://www.w3.org/2000/svg" width="48" height="48" viewBox="0 0 48 48">
  <g class="neo-icon-kit--arrow-right-filled">
    <path fill="#006FCF" fill-rule="evenodd" d="M33.6318 13.5941L42.4073 22.3818L42.4392 22.421C43.1871 23.3391 43.1866 24.6605 42.4395 25.5786L42.4076 25.6178L33.7819 34.2663C33.2938 34.7548 32.651 35 32.0126 35C31.3741 35 30.7328 34.7553 30.2451 34.268C29.3288 33.3518 29.2726 31.9032 30.0728 30.9199L30.1047 30.8809L34.4703 26.5013H7.50031C6.11855 26.5013 5 25.3809 5 23.9999C5 22.6996 5.99088 21.6313 7.26064 21.5099L7.30799 21.5054L34.4677 21.4991L30.2438 17.2694C29.2691 16.2924 29.2679 14.7089 30.2448 13.7321C31.1605 12.818 32.6092 12.7589 33.5926 13.5621L33.6318 13.5941Z" class="svg-primary-fill" clip-rule="evenodd"/>
  </g>
</svg>
