<svg xmlns="http://www.w3.org/2000/svg" width="48" height="48" viewBox="0 0 48 48">
  <g class="neo-icon-kit--arrow-down-filled">
    <path fill="#006FCF" fill-rule="evenodd" d="M13.594 33.6317L22.3817 42.4071L22.4209 42.4391C23.339 43.187 24.6604 43.1865 25.5785 42.4393L25.6176 42.4075L34.2662 33.7818C34.7547 33.2937 34.9998 32.6508 34.9998 32.0125C34.9998 31.3739 34.7552 30.7327 34.2679 30.245C33.3517 29.3287 31.9031 29.2725 30.9198 30.0727L30.8808 30.1045L26.5012 34.4701V7.50018C26.5012 6.11842 25.3808 4.99988 23.9998 4.99988C22.6995 4.99988 21.6312 5.99076 21.5098 7.26052L21.5053 7.30787L21.4989 34.4676L17.2693 30.2437C16.2923 29.269 14.7088 29.2678 13.732 30.2447C12.8179 31.1604 12.7588 32.609 13.562 33.5924L13.594 33.6317Z" class="svg-primary-fill" clip-rule="evenodd"/>
  </g>
</svg>
