<svg xmlns="http://www.w3.org/2000/svg" width="48" height="48" viewBox="0 0 48 48">
  <g class="neo-icon-kit--arrow-up-filled">
    <path fill="#006FCF" fill-rule="evenodd" d="M34.4059 14.3681L25.6183 5.59261L25.5791 5.56066C24.661 4.81273 23.3396 4.81325 22.4215 5.56042L22.3823 5.5923L13.7338 14.2179C13.2453 14.7061 13.0001 15.3489 13.0001 15.9872C13.0001 16.6258 13.2448 17.2671 13.7321 17.7548C14.6483 18.6711 16.0969 18.7272 17.0802 17.927L17.1192 17.8952L21.4988 13.5296V40.4996C21.4988 41.8813 22.6192 42.9999 24.0002 42.9999C25.3005 42.9999 26.3688 42.009 26.4902 40.7392L26.4947 40.6919L26.501 13.5322L30.7307 17.7561C31.7077 18.7308 33.2912 18.732 34.268 17.7551C35.1821 16.8394 35.2412 15.3907 34.438 14.4073L34.4059 14.3681Z" class="svg-primary-fill" clip-rule="evenodd"/>
  </g>
</svg>
