<svg xmlns="http://www.w3.org/2000/svg" width="48" height="48" viewBox="0 0 48 48">
  <g class="neo-icon-kit--arrow-right">
    <path fill="#006FCF" fill-rule="evenodd" d="M32.96 14.3367C32.371 13.8556 31.5018 13.8903 30.9519 14.4393C30.3658 15.0252 30.3658 15.9758 30.9514 16.5628L36.8791 22.4985L7.35579 22.5054C6.59485 22.5781 6 23.2193 6 23.9999C6 24.8293 6.67152 25.5013 7.50031 25.5013H36.8791L30.8485 31.5512C30.3681 32.1414 30.4024 33.0112 30.9519 33.5606C31.2449 33.8534 31.6288 34 32.0126 34C32.3965 34 32.7809 33.8534 33.0739 33.5601L41.6639 24.9474C42.112 24.3967 42.1121 23.6028 41.6639 23.0527L32.96 14.3367Z" class="svg-primary-fill" clip-rule="evenodd"/>
  </g>
</svg>
