<svg xmlns="http://www.w3.org/2000/svg" width="48" height="48" viewBox="0 0 48 48">
  <g class="neo-icon-kit--attach-filled">
    <path fill="#006FCF" d="M39.2436 5.30292C38.4543 4.51359 37.5172 3.88746 36.486 3.46028C35.4547 3.0331 34.3493 2.81323 33.2331 2.81323C32.1168 2.81323 31.0115 3.0331 29.9802 3.46028C28.9489 3.88746 28.0119 4.51359 27.2226 5.30292L7.21758 25.3029C2.92558 29.8229 3.01158 36.9429 7.42358 41.3549C11.9136 45.8449 19.1956 45.8449 23.6866 41.3549L38.5366 26.5049L38.6506 26.3809C39.3206 25.5809 39.2676 24.4069 38.5366 23.6769C38.1615 23.302 37.6529 23.0913 37.1226 23.0913C36.5923 23.0913 36.0836 23.302 35.7086 23.6769L20.6856 38.7049C19.2501 40.0532 17.3419 40.7828 15.373 40.7361C13.4042 40.6894 11.5327 39.8701 10.1628 38.4553C8.79284 37.0404 8.03438 35.1435 8.05118 33.1742C8.06798 31.2049 8.8587 29.3212 10.2526 27.9299L30.1996 7.98992C31.0675 7.19369 32.213 6.76948 33.3901 6.80834C34.5673 6.8472 35.6823 7.34604 36.4958 8.19776C37.3093 9.04949 37.7565 10.1862 37.7413 11.3639C37.7261 12.5416 37.2498 13.6665 36.4146 14.4969L16.5196 34.3839C16.2324 34.6258 15.8647 34.7508 15.4895 34.7341C15.1144 34.7175 14.7592 34.5603 14.4946 34.2939C14.2134 34.0126 14.0554 33.6312 14.0554 33.2334C14.0554 32.8357 14.2134 32.4542 14.4946 32.1729L26.8696 19.7999L26.9836 19.6759C27.6536 18.8759 27.6006 17.7019 26.8696 16.9719C26.4945 16.597 25.9859 16.3863 25.4556 16.3863C24.9253 16.3863 24.4166 16.597 24.0416 16.9719L11.4996 29.5099C10.5386 30.5543 10.0185 31.9297 10.048 33.3487C10.0774 34.7676 10.6541 36.1203 11.6576 37.1239C12.689 38.1553 14.0879 38.7347 15.5466 38.7347C17.0052 38.7347 18.4041 38.1553 19.4356 37.1239L39.2356 17.3239L39.4156 17.1399C40.9297 15.5306 41.7578 13.3949 41.7242 11.1854C41.6906 8.97601 40.798 6.86648 39.2356 5.30392L39.2436 5.30292Z" class="svg-primary-fill"/>
  </g>
</svg>
