<svg xmlns="http://www.w3.org/2000/svg" width="48" height="48" viewBox="0 0 48 48">
  <g class="neo-icon-kit--attach">
    <path fill="#006FCF" d="M19.0915 36.7699C18.1667 37.6921 16.9177 38.2157 15.6118 38.2289C14.3059 38.2422 13.0466 37.7439 12.1033 36.8407C11.16 35.9374 10.6075 34.701 10.564 33.3957C10.5205 32.0904 10.9894 30.8199 11.8705 29.8559L12.0205 29.6989L24.3945 17.3249C24.6668 17.0519 25.0338 16.8942 25.4193 16.8846C25.8048 16.8749 26.1792 17.0142 26.4648 17.2734C26.7504 17.5325 26.9251 17.8917 26.9528 18.2764C26.9805 18.661 26.859 19.0415 26.6135 19.3389L26.5165 19.4459L14.1415 31.8199C13.7755 32.1859 13.5656 32.6794 13.5559 33.1969C13.5462 33.7143 13.7375 34.2154 14.0895 34.5948C14.4416 34.9741 14.927 35.2023 15.4437 35.2312C15.9605 35.2601 16.4683 35.0876 16.8605 34.7499L16.9705 34.6479L36.7705 14.8479C37.6926 13.9231 38.2163 12.6742 38.2295 11.3682C38.2427 10.0623 37.7445 8.803 36.8413 7.85968C35.938 6.91636 34.7016 6.36388 33.3963 6.32038C32.091 6.27689 30.8205 6.74583 29.8565 7.62693L29.6995 7.77693L9.89952 27.5769C8.41405 29.0619 7.57217 31.0715 7.55565 33.1718C7.53913 35.2722 8.3493 37.2948 9.81122 38.8029C11.2732 40.3111 13.2696 41.1838 15.3694 41.2326C17.4692 41.2814 19.5041 40.5025 21.0345 39.0639L21.2145 38.8899L36.0645 24.0399C36.3368 23.7669 36.7038 23.6092 37.0893 23.5996C37.4748 23.5899 37.8492 23.7292 38.1348 23.9884C38.4204 24.2475 38.5951 24.6067 38.6228 24.9914C38.6505 25.376 38.529 25.7565 38.2835 26.0539L38.1865 26.1609L23.3365 41.0109C19.0405 45.3069 12.0765 45.3069 7.78052 41.0109C3.55252 36.7829 3.48552 29.9709 7.58052 25.6609L7.78052 25.4539L27.5805 5.65393C29.0655 4.16846 31.0751 3.32658 33.1754 3.31006C35.2758 3.29354 37.2984 4.10371 38.8065 5.56563C40.3147 7.02756 41.1874 9.02397 41.2362 11.1238C41.285 13.2237 40.5061 15.2585 39.0675 16.7889L38.8935 16.9689L19.0935 36.7689L19.0915 36.7699Z" class="svg-primary-fill"/>
  </g>
</svg>
