<svg xmlns="http://www.w3.org/2000/svg" width="48" height="48" viewBox="0 0 48 48">
  <g class="neo-icon-kit--authorization-filled">
    <path fill="#006FCF" fill-rule="evenodd" d="M6 6C6 4.34315 7.34315 3 9 3L15 3C15 1.34315 16.3431 0 18 0H30C31.6569 0 33 1.34315 33 3H39C40.6569 3 42 4.34315 42 6V45C42 46.6569 40.6569 48 39 48H9C7.34315 48 6 46.6569 6 45V6ZM30 3H18V6H30V3ZM26.4965 12.3785C27.1157 12.9289 27.1715 13.877 26.6211 14.4962L18.6211 23.4962C18.0364 24.154 17.0137 24.1694 16.4095 23.5296L12.4095 19.2943C11.8407 18.692 11.8678 17.7427 12.4701 17.1738C13.0723 16.605 14.0217 16.6321 14.5905 17.2344L17.4665 20.2796L24.3789 12.5031C24.9293 11.8839 25.8774 11.8282 26.4965 12.3785ZM31.5 24H25.5C24.6716 24 24 24.6716 24 25.5C24 26.3284 24.6716 27 25.5 27H31.5C32.3284 27 33 26.3284 33 25.5C33 24.6716 32.3284 24 31.5 24ZM31.5 30C32.3284 30 33 30.6716 33 31.5C33 32.3284 32.3284 33 31.5 33H16.5C15.6716 33 15 32.3284 15 31.5C15 30.6716 15.6716 30 16.5 30H31.5ZM33 37.5C33 36.6716 32.3284 36 31.5 36H16.5C15.6716 36 15 36.6716 15 37.5C15 38.3284 15.6716 39 16.5 39H31.5C32.3284 39 33 38.3284 33 37.5Z" class="svg-primary-fill" clip-rule="evenodd"/>
  </g>
</svg>
