<svg xmlns="http://www.w3.org/2000/svg" width="48" height="48" viewBox="0 0 48 48">
  <g class="neo-icon-kit--authorization">
    <g fill="#006FCF" class="svg-primary-fill">
      <path fill-rule="evenodd" d="M6 6C6 4.34315 7.34315 3 9 3L15 3C15 1.34315 16.3431 0 18 0H30C31.6569 0 33 1.34315 33 3H39C40.6569 3 42 4.34315 42 6V45C42 46.6569 40.6569 48 39 48H9C7.34315 48 6 46.6569 6 45V6ZM9 6L9 45H39V6H33C33 7.65685 31.6569 9 30 9H18C16.3431 9 15 7.65685 15 6H9ZM30 3H18V6H30V3Z" clip-rule="evenodd"/>
      <path d="M26.621 14.496C27.172 13.877 27.116 12.929 26.497 12.379 25.877 11.828 24.929 11.884 24.379 12.503L17.467 20.28 14.591 17.234C14.022 16.632 13.072 16.605 12.47 17.174 11.868 17.743 11.841 18.692 12.41 19.294L16.41 23.53C17.014 24.169 18.036 24.154 18.621 23.496L26.621 14.496ZM24 25.5C24 24.672 24.672 24 25.5 24H31.5C32.328 24 33 24.672 33 25.5 33 26.328 32.328 27 31.5 27H25.5C24.672 27 24 26.328 24 25.5ZM15 31.5C15 30.672 15.672 30 16.5 30H31.5C32.328 30 33 30.672 33 31.5 33 32.328 32.328 33 31.5 33H16.5C15.672 33 15 32.328 15 31.5ZM15 37.5C15 36.672 15.672 36 16.5 36H31.5C32.328 36 33 36.672 33 37.5 33 38.328 32.328 39 31.5 39H16.5C15.672 39 15 38.328 15 37.5Z"/>
    </g>
  </g>
</svg>
