<svg xmlns="http://www.w3.org/2000/svg" width="48" height="48" viewBox="0 0 48 48">
  <g class="neo-icon-kit--autocomplete-company-site">
    <path fill="#444B61" fill-rule="evenodd" d="M36 6V3C36 1.34315 34.6569 0 33 0H15C13.3431 0 12 1.34315 12 3V6H9C7.34315 6 6 7.34315 6 9V42H3C1.34315 42 0 43.3431 0 45C0 46.6569 1.34315 48 3 48H45C46.6569 48 48 46.6569 48 45C48 43.3431 46.6569 42 45 42H42V9C42 7.34315 40.6569 6 39 6H36ZM27 42V30H21V42H27ZM12 12V18H18V12H12ZM18 21V27H12V21H18ZM12 30V36H18V30H12ZM21 12H27V18H21V12ZM27 21H21V27H27V21ZM30 12V18H36V12H30ZM36 21V27H30V21H36ZM30 30V36H36V30H30Z" class="svg-primary-fill" clip-rule="evenodd"/>
  </g>
</svg>
