<svg xmlns="http://www.w3.org/2000/svg" width="48" height="48" viewBox="0 0 48 48">
  <g class="neo-icon-kit--baht-autopay-filled">
    <path fill="#006FCF" fill-rule="evenodd" d="M24.4288 1.00411L24 1L23.6197 1.00308C11.0925 1.20619 1 11.4245 1 24V25L1.00549 25.1493C1.08183 26.1841 1.94564 27 3 27C4.10457 27 5 26.1046 5 25V24L5.00301 23.6585C5.1832 13.435 13.4382 5.18119 23.6622 5.00294L24 5L24.4185 5.00477C29.434 5.11906 34.1914 7.28371 37.5742 11.0048L38.479 12H37L36.8507 12.0055C35.8159 12.0818 35 12.9456 35 14C35 15.1046 35.8954 16 37 16H43L43.1528 15.9942L43.3022 15.9772L43.4587 15.9471L43.6079 15.9059L43.7629 15.8494L43.9157 15.7786L44.0597 15.6966L44.2117 15.5913L44.3376 15.4869L44.405 15.4234L44.5155 15.3052L44.5928 15.2098C44.6508 15.1335 44.7034 15.053 44.7501 14.9687L44.8271 14.8147L44.8853 14.6686L44.9145 14.5803L44.9559 14.4195L44.9819 14.2705L44.9945 14.1493L45 14V8L44.9945 7.85074C44.9182 6.81588 44.0544 6 43 6L42.8507 6.00549C41.8159 6.08183 41 6.94564 41 8V8.828L40.5339 8.31412L40.2355 7.9922C36.1176 3.63735 30.4214 1.11895 24.4288 1.00411ZM24 10.1C24.8 10.1 25.5 10.8 25.5 11.6V13.1H26.3C29.3295 13.1 31.9771 15.5832 32.0958 18.7761L32.1 19.1C32.1 20.7 31.4 22.5 30.5 23.6C31.5 24.7 32.1 26.3 32.1 28.1V28.2C32 31.4 29.4 34.1 26.3 34.1H25.5V35.6C25.5 36.4 24.9 37.1 24 37.1C23.2 37.1 22.5 36.4 22.5 35.6V34.1H18C17.2 34.1 16.5 33.5 16.5 32.6V14.6C16.5 13.8 17.2 13.1 18 13.1H22.5V11.6C22.5 10.8 23.2 10.1 24 10.1ZM45 21C46.0544 21 46.9182 21.8159 46.9945 22.8507L47 23V24C47 36.5755 36.9075 46.7938 24.3803 46.9969L24 47L23.5674 46.996C17.2464 46.8778 11.2627 44.1743 6.99982 39.5411L7 40C7 41.1046 6.10457 42 5 42C3.94564 42 3.08183 41.1841 3.00549 40.1493L3 40L3.00049 33.9542L3.0106 33.7942L3.02097 33.7095L3.04508 33.576L3.08475 33.4223L3.13347 33.2802L3.19225 33.1433L3.2929 32.957L3.32221 32.911C3.40339 32.7862 3.49811 32.671 3.60429 32.5675L3.67333 32.5033L3.75022 32.4386L3.8833 32.3406L4.015 32.259C4.10113 32.2102 4.19122 32.1675 4.28468 32.1317L4.47418 32.0698L4.61218 32.0376L4.76185 32.014L4.91777 32.0016L11 32C12.1046 32 13 32.8954 13 34C13 35.0544 12.1841 35.9182 11.1493 35.9945L11 36L9.22131 36.001C12.8494 40.431 18.2736 43 24 43C34.3806 43 42.8168 34.6754 42.9971 24.3378L43 24V23C43 21.8954 43.8954 21 45 21ZM25.5 25H26.3C27.8 25 29.1 26.4 29.1 28C29.1 29.6 27.8 31 26.3 31H25.5V25ZM22.6 25H19.6V31H22.6V25ZM26.3 16H25.5V22H26.3C27.8 22 29.1 20.6 29.1 19C29.1 17.4 27.8 16 26.3 16ZM19.6 16H22.6V22H19.6V16Z" class="svg-primary-fill" clip-rule="evenodd"/>
  </g>
</svg>
