<svg xmlns="http://www.w3.org/2000/svg" width="48" height="48" viewBox="0 0 48 48">
  <g class="neo-icon-kit--baht-cashback-filled">
    <path fill="#006FCF" fill-rule="evenodd" d="M40.2425 7.99961C36.026 3.53642 30.1525 1 24 1C11.2975 1 1 11.2975 1 24C1 36.7025 11.2975 47 24 47C36.7025 47 47 36.7025 47 24V23L46.9945 22.8507C46.9182 21.8159 46.0544 21 45 21C43.8954 21 43 21.8954 43 23V24L42.9971 24.3378C42.8168 34.6754 34.3806 43 24 43C13.5066 43 5 34.4934 5 24C5 13.5066 13.5066 5 24 5L24.4185 5.00477C29.434 5.11906 34.1914 7.28371 37.5742 11.0048L38.479 12H37L36.8507 12.0055C35.8159 12.0818 35 12.9456 35 14C35 15.1046 35.8954 16 37 16H43L43.1528 15.9942L43.3022 15.9772L43.4587 15.9471L43.6079 15.9059L43.7629 15.8494L43.9157 15.7786L44.0597 15.6966L44.2117 15.5913L44.3376 15.4869L44.405 15.4234L44.5155 15.3052L44.5928 15.2098C44.6508 15.1335 44.7034 15.053 44.7501 14.9687L44.8271 14.8147L44.8853 14.6686L44.9145 14.5803L44.9559 14.4195L44.9819 14.2705L44.9945 14.1493L45 14V8L44.9945 7.85074C44.9182 6.81588 44.0544 6 43 6L42.8507 6.00549C41.8159 6.08183 41 6.94564 41 8V8.828L40.5339 8.31412L40.2425 7.99961ZM25.5 11.6C25.5 10.8 24.8 10.1 24 10.1C23.2 10.1 22.5 10.8 22.5 11.6V13.1H18C17.2 13.1 16.5 13.8 16.5 14.6V32.6C16.5 33.5 17.2 34.1 18 34.1H22.5V35.6C22.5 36.4 23.2 37.1 24 37.1C24.9 37.1 25.5 36.4 25.5 35.6V34.1H26.3C29.4 34.1 32 31.4 32.1 28.2V28.1C32.1 26.3 31.5 24.7 30.5 23.6C31.4 22.5 32.1 20.7 32.1 19.1L32.0958 18.7761C31.9771 15.5832 29.3295 13.1 26.3 13.1H25.5V11.6ZM26.3 25H25.5V31H26.3C27.8 31 29.1 29.6 29.1 28C29.1 26.4 27.8 25 26.3 25ZM19.6 25H22.6V31H19.6V25ZM26.3 16H25.5V22H26.3C27.8 22 29.1 20.6 29.1 19C29.1 17.4 27.8 16 26.3 16ZM19.6 16H22.6V22H19.6V16Z" class="svg-primary-fill" clip-rule="evenodd"/>
  </g>
</svg>
