<svg xmlns="http://www.w3.org/2000/svg" width="48" height="48" viewBox="0 0 48 48">
  <g class="neo-icon-kit--baht-cashback">
    <path fill="#006FCF" fill-rule="evenodd" d="M39.8723 8.33591C35.7507 3.97698 30.0116 1.5 24 1.5C11.5736 1.5 1.5 11.5736 1.5 24C1.5 36.4264 11.5736 46.5 24 46.5C36.4264 46.5 46.5 36.4264 46.5 24V23L46.4931 22.8555C46.4204 22.0949 45.7797 21.5 45 21.5C44.1716 21.5 43.5 22.1716 43.5 23V24L43.497 24.343C43.314 34.9543 34.655 43.5 24 43.5C13.2304 43.5 4.5 34.7696 4.5 24C4.5 13.2304 13.2304 4.5 24 4.5L24.4186 4.50464C29.5749 4.61905 34.4666 6.84316 37.9441 10.6685L39.609 12.5H37L36.8555 12.5069C36.0949 12.5796 35.5 13.2203 35.5 14C35.5 14.8284 36.1716 15.5 37 15.5H43L43.0726 15.4983L43.2179 15.4843L43.3273 15.4641L43.4748 15.4233L43.596 15.3769L43.7233 15.3145L43.8452 15.2394L43.9574 15.1548L44.0117 15.1075L44.1014 15.0184L44.184 14.9211L44.2822 14.7792L44.3536 14.6472L44.4102 14.5122L44.4661 14.3185L44.4841 14.2183L44.4983 14.071L44.5 8L44.4931 7.85554C44.4204 7.09489 43.7797 6.5 43 6.5L42.8555 6.50687C42.0949 6.57955 41.5 7.2203 41.5 8V10.12L40.164 8.65045L39.8723 8.33591ZM25.5 11.6C25.5 10.8 24.8 10.1 24 10.1C23.2 10.1 22.5 10.8 22.5 11.6V13.1H18C17.2 13.1 16.5 13.8 16.5 14.6V32.6C16.5 33.5 17.2 34.1 18 34.1H22.5V35.6C22.5 36.4 23.2 37.1 24 37.1C24.9 37.1 25.5 36.4 25.5 35.6V34.1H26.3C29.4 34.1 32 31.4 32.1 28.2V28.1C32.1 26.3 31.5 24.7 30.5 23.6C31.4 22.5 32.1 20.7 32.1 19.1L32.0958 18.7761C31.9771 15.5832 29.3295 13.1 26.3 13.1H25.5V11.6ZM26.3 25H25.5V31H26.3C27.8 31 29.1 29.6 29.1 28C29.1 26.4 27.8 25 26.3 25ZM19.6 25H22.6V31H19.6V25ZM26.3 16H25.5V22H26.3C27.8 22 29.1 20.6 29.1 19C29.1 17.4 27.8 16 26.3 16ZM19.6 16H22.6V22H19.6V16Z" class="svg-primary-fill" clip-rule="evenodd"/>
  </g>
</svg>
