<svg xmlns="http://www.w3.org/2000/svg" width="48" height="48" viewBox="0 0 48 48">
  <g class="neo-icon-kit--baht-regular">
    <path fill="#006FCF" fill-rule="evenodd" d="M24 1C36.7025 1 47 11.2975 47 24C47 36.7025 36.7025 47 24 47C11.2975 47 1 36.7025 1 24C1 11.2975 11.2975 1 24 1ZM24 4C12.9543 4 4 12.9543 4 24C4 35.0457 12.9543 44 24 44C35.0457 44 44 35.0457 44 24C44 12.9543 35.0457 4 24 4ZM25.5594 11.8862C25.4893 11.1118 24.837 10.5035 24.0446 10.5035C23.2056 10.5035 22.5236 11.1855 22.5236 12.0195L22.5096 13.4855H18.0136L17.8673 13.4923C17.0967 13.5646 16.4926 14.2013 16.4926 14.9495V32.9675L16.4988 33.1124C16.5689 33.92 17.2212 34.4935 18.0136 34.4935H22.5096L22.5236 36.0075L22.5298 36.1458C22.5999 36.9201 23.2522 37.5275 24.0446 37.5275C24.8836 37.5275 25.5316 36.8465 25.5316 36.0025L25.5176 34.4935H26.3076L26.5236 34.4892C29.5366 34.3692 32.0682 31.7532 32.1346 28.5895V28.4865H32.1286L32.117 28.1691C32.0215 26.4912 31.3958 25.0536 30.4876 24.0155C31.4476 22.9185 32.0986 21.1775 32.1346 19.5445V19.4415H32.1296L32.1214 19.2168C31.9489 16.0833 29.3453 13.4855 26.3076 13.4855H25.5516L25.5656 12.0245L25.5594 11.8862ZM26.3076 25.4935H25.5466V31.5045H26.3076C27.7636 31.5045 29.0636 30.1145 29.0876 28.5295C29.0645 27.0136 27.8548 25.5982 26.463 25.499L26.3076 25.4935ZM19.5336 25.4935H22.5046V31.5045H19.5336V25.4935ZM26.3076 16.5275H25.5466V22.4935H26.3076C27.7636 22.4935 29.0636 21.0745 29.0876 19.4845C29.0645 17.9755 27.8581 16.6307 26.4687 16.5332L26.3076 16.5275ZM19.5336 16.5275H22.5046V22.4935H19.5336V16.5275Z" class="svg-primary-fill" clip-rule="evenodd"/>
  </g>
</svg>
