<svg xmlns="http://www.w3.org/2000/svg" width="48" height="48" viewBox="0 0 48 48">
  <g class="neo-icon-kit--baht-regular-filled">
    <path fill="#006FCF" fill-rule="evenodd" d="M47 24C47 11.2975 36.7025 1 24 1C11.2975 1 1 11.2975 1 24C1 36.7025 11.2975 47 24 47C36.7025 47 47 36.7025 47 24ZM22.5298 11.882C22.5999 11.1118 23.2522 10.5035 24.0446 10.5035C24.837 10.5035 25.4893 11.1118 25.5594 11.8862L25.5656 12.0245L25.5516 13.4855H26.3076L26.5238 13.4899C29.4679 13.6095 31.953 16.1579 32.1214 19.2168L32.1296 19.4415H32.1346V19.5445L32.1219 19.8336C32.0209 21.3801 31.3911 22.983 30.4876 24.0155C31.3958 25.0536 32.0215 26.4912 32.117 28.1691L32.1286 28.4865H32.1346V28.5895L32.1254 28.82C31.9444 31.8793 29.4631 34.3722 26.5236 34.4892L26.3076 34.4935H25.5176L25.5316 36.0025L25.5257 36.1416C25.459 36.9201 24.837 37.5275 24.0446 37.5275C23.2522 37.5275 22.5999 36.9201 22.5298 36.1458L22.5236 36.0075L22.5096 34.4935H18.0136L17.8753 34.4876C17.1465 34.4252 16.5647 33.8725 16.4988 33.1124L16.4926 32.9675V14.9495L16.4996 14.8106C16.5688 14.1239 17.1449 13.5601 17.8673 13.4923L18.0136 13.4855H22.5096L22.5236 12.0195L22.5298 11.882ZM26.3076 25.4935L26.463 25.499C27.8548 25.5982 29.0645 27.0136 29.0876 28.5295C29.0645 30.0558 27.8581 31.4013 26.4687 31.4988L26.3076 31.5045H25.5466V25.4935H26.3076ZM22.5046 31.5045V25.4935H19.5336V31.5045H22.5046ZM26.3076 16.5275L26.4687 16.5332C27.8581 16.6307 29.0645 17.9755 29.0876 19.4845C29.0645 21.0177 27.8548 22.3919 26.463 22.4881L26.3076 22.4935H25.5466V16.5275H26.3076ZM22.5046 22.4935V16.5275H19.5336V22.4935H22.5046Z" class="svg-primary-fill" clip-rule="evenodd"/>
  </g>
</svg>
