<svg xmlns="http://www.w3.org/2000/svg" width="48" height="48" viewBox="0 0 48 48">
  <g class="neo-icon-kit--bank-mobile-landscape">
    <path fill="#006FCF" d="M45 6C45.7956 6 46.5587 6.31607 47.1213 6.87868C47.6839 7.44129 48 8.20435 48 9V39C48 39.7956 47.6839 40.5587 47.1213 41.1213C46.5587 41.6839 45.7956 42 45 42H3C2.20435 42 1.44129 41.6839 0.87868 41.1213C0.31607 40.5587 0 39.7956 0 39L0 9C0 8.20435 0.31607 7.44129 0.87868 6.87868C1.44129 6.31607 2.20435 6 3 6H45ZM45 9H3V39H45V9ZM30.433 12.328L30.504 12.375L41.357 20.375C42.001 20.849 41.697 21.844 40.927 21.908H37.492V33.208H40.927C41.4 33.208 41.998 33.929 41.998 34.676C41.998 35.438 41.4 36.208 40.927 36.208H19.143C18.67 36.208 18.001 35.423 18.001 34.676C18.001 33.929 18.67 33.213 19.143 33.213L22.509 33.209V21.909H19.143C18.9707 21.9096 18.8023 21.8577 18.6601 21.7604C18.5179 21.663 18.4087 21.5248 18.3469 21.364C18.285 21.2031 18.2736 21.0273 18.314 20.8598C18.3543 20.6923 18.4447 20.541 18.573 20.426L18.634 20.377L29.487 12.377C29.6225 12.2771 29.7843 12.2194 29.9524 12.2111C30.1205 12.2027 30.2873 12.2441 30.432 12.33L30.433 12.328ZM28.51 21.908H25.51V33.213H28.51V21.908ZM34.494 21.908H31.494V33.213H34.494V21.908ZM8 22C8.53043 22 9.03914 22.2107 9.41421 22.5858C9.78929 22.9609 10 23.4696 10 24C10 24.5304 9.78929 25.0391 9.41421 25.4142C9.03914 25.7893 8.53043 26 8 26C7.46957 26 6.96086 25.7893 6.58579 25.4142C6.21071 25.0391 6 24.5304 6 24C6 23.4696 6.21071 22.9609 6.58579 22.5858C6.96086 22.2107 7.46957 22 8 22Z" class="svg-primary-fill"/>
  </g>
</svg>
