<svg xmlns="http://www.w3.org/2000/svg" width="48" height="48" viewBox="0 0 48 48">
  <g class="neo-icon-kit--bank-mobile-filled">
    <path fill="#006FCF" d="M39 0C39.7956 0 40.5587 0.31607 41.1213 0.87868C41.6839 1.44129 42 2.20435 42 3V45C42 45.7956 41.6839 46.5587 41.1213 47.1213C40.5587 47.6839 39.7956 48 39 48H9C8.20435 48 7.44129 47.6839 6.87868 47.1213C6.31607 46.5587 6 45.7956 6 45V3C6 2.20435 6.31607 1.44129 6.87868 0.87868C7.44129 0.31607 8.20435 0 9 0L39 0ZM24 38C23.4696 38 22.9609 38.2107 22.5858 38.5858C22.2107 38.9609 22 39.4696 22 40C22 40.5304 22.2107 41.0391 22.5858 41.4142C22.9609 41.7893 23.4696 42 24 42C24.5304 42 25.0391 41.7893 25.4142 41.4142C25.7893 41.0391 26 40.5304 26 40C26 39.4696 25.7893 38.9609 25.4142 38.5858C25.0391 38.2107 24.5304 38 24 38ZM24.431 6.12C24.3048 6.04546 24.1616 6.00448 24.0151 6.00098C23.8686 5.99748 23.7236 6.03157 23.594 6.1L23.486 6.168L12.633 14.168L12.572 14.217C12.4505 14.3256 12.3627 14.4668 12.3192 14.6238C12.2756 14.7808 12.2781 14.947 12.3264 15.1027C12.3747 15.2583 12.4666 15.3968 12.5914 15.5016C12.7161 15.6065 12.8684 15.6732 13.03 15.694L13.141 15.7H16.507V27L13.141 27.004C12.668 27.004 11.999 27.72 11.999 28.467C11.999 29.17 12.591 29.907 13.056 29.991L13.141 29.999H34.925C35.398 29.999 35.996 29.229 35.996 28.467C35.996 27.767 35.47 27.09 35.015 27.008L34.925 27H31.49V15.7H34.925C35.658 15.639 35.969 14.734 35.44 14.238L35.354 14.167L24.501 6.167L24.431 6.12ZM22.508 15.7V27.005H19.508V15.7H22.508ZM28.492 15.7V27.005H25.492V15.7H28.492Z" class="svg-primary-fill"/>
  </g>
</svg>
