<svg xmlns="http://www.w3.org/2000/svg" width="48" height="48" viewBox="0 0 48 48">
  <g class="neo-icon-kit--bank-filled">
    <path fill="#006FCF" d="M24.764 3.21004L24.889 3.29304L43.889 17.293C45.017 18.123 44.485 19.883 43.137 19.995L43 20H40.5V42H43.5C43.8978 42 44.2794 42.1581 44.5607 42.4394C44.842 42.7207 45 43.1022 45 43.5C45 43.8979 44.842 44.2794 44.5607 44.5607C44.2794 44.842 43.8978 45 43.5 45H4.5C4.10218 45 3.72064 44.842 3.43934 44.5607C3.15804 44.2794 3 43.8979 3 43.5C3 43.1022 3.15804 42.7207 3.43934 42.4394C3.72064 42.1581 4.10218 42 4.5 42H7.5V20H5C3.6 20 2.985 18.27 4.003 17.38L4.11 17.294L23.11 3.29404C23.3471 3.11937 23.6304 3.01835 23.9245 3.00359C24.2186 2.98883 24.5106 3.05998 24.764 3.21004ZM13.5 20H10.5V42H13.5V20ZM19.5 20H16.5V42H19.5V20ZM25.5 20H22.5V42H25.5V20ZM31.5 20H28.5V42H31.5V20ZM37.5 20H34.5V42H37.5V20ZM24 10.5C23.4696 10.5 22.9609 10.7108 22.5858 11.0858C22.2107 11.4609 22 11.9696 22 12.5C22 13.0305 22.2107 13.5392 22.5858 13.9143C22.9609 14.2893 23.4696 14.5 24 14.5C24.5304 14.5 25.0391 14.2893 25.4142 13.9143C25.7893 13.5392 26 13.0305 26 12.5C26 11.9696 25.7893 11.4609 25.4142 11.0858C25.0391 10.7108 24.5304 10.5 24 10.5Z" class="svg-primary-fill"/>
  </g>
</svg>
