<svg xmlns="http://www.w3.org/2000/svg" width="48" height="48" viewBox="0 0 48 48">
  <g class="neo-icon-kit--bank-mobile-landscape-filled">
    <path fill="#006FCF" d="M45 6C45.7956 6 46.5587 6.31607 47.1213 6.87868C47.6839 7.44129 48 8.20435 48 9V39C48 39.7956 47.6839 40.5587 47.1213 41.1213C46.5587 41.6839 45.7956 42 45 42H3C2.20435 42 1.44129 41.6839 0.87868 41.1213C0.31607 40.5587 0 39.7956 0 39L0 9C0 8.20435 0.31607 7.44129 0.87868 6.87868C1.44129 6.31607 2.20435 6 3 6H45ZM30.433 12.328C30.3068 12.2535 30.1636 12.2125 30.0171 12.209C29.8706 12.2055 29.7256 12.2396 29.596 12.308L29.488 12.376L18.635 20.376L18.574 20.425C18.4525 20.5336 18.3647 20.6748 18.3212 20.8318C18.2776 20.9888 18.2801 21.155 18.3284 21.3107C18.3767 21.4663 18.4686 21.6048 18.5934 21.7096C18.7181 21.8145 18.8704 21.8812 19.032 21.902L19.143 21.908H22.509V33.208L19.143 33.212C18.67 33.212 18.001 33.928 18.001 34.675C18.001 35.378 18.593 36.115 19.058 36.199L19.143 36.207H40.927C41.4 36.207 41.998 35.437 41.998 34.675C41.998 33.975 41.472 33.298 41.017 33.216L40.927 33.208H37.492V21.908H40.927C41.66 21.847 41.971 20.942 41.442 20.446L41.356 20.375L30.503 12.375L30.432 12.328H30.433ZM28.51 21.908V33.213H25.51V21.908H28.51ZM34.494 21.908V33.213H31.494V21.908H34.494ZM8 22C7.46957 22 6.96086 22.2107 6.58579 22.5858C6.21071 22.9609 6 23.4696 6 24C6 24.5304 6.21071 25.0391 6.58579 25.4142C6.96086 25.7893 7.46957 26 8 26C8.53043 26 9.03914 25.7893 9.41421 25.4142C9.78929 25.0391 10 24.5304 10 24C10 23.4696 9.78929 22.9609 9.41421 22.5858C9.03914 22.2107 8.53043 22 8 22Z" class="svg-primary-fill"/>
  </g>
</svg>
