<svg xmlns="http://www.w3.org/2000/svg" width="48" height="48" viewBox="0 0 48 48">
  <g class="neo-icon-kit--bank-app-filled" clip-path="url(#a)">
    <path fill="#006FCF" d="M38 0C43.523 0 48 4.477 48 10V38C48 43.523 43.523 48 38 48H10C4.477 48 0 43.523 0 38V10C0 4.477 4.477 0 10 0H38ZM24 11C23.725 11 23.525 11.081 23.267 11.24L23.132 11.326L22.531 11.73L11 19.237C10.517 19.657 10.331 20.634 10.893 21.3L11.022 21.434L11.11 21.507C11.3243 21.6694 11.5787 21.7703 11.846 21.799L12.001 21.807H13.502V34.023L12 34L11.862 34.001L11.701 34.006L11.518 34.019L11.321 34.045C10.714 34.144 10 34.465 10 35.5C10 36.404 10.554 36.763 11.098 36.906L11.2 36.93L11.412 36.967L11.611 36.988L11.868 36.999H36.133L36.39 36.988L36.589 36.967L36.801 36.93C37.375 36.806 38.001 36.46 38.001 35.5C38.001 34.523 37.254 34.182 36.667 34.063L36.565 34.044L36.376 34.018L36.213 34.005L36.086 34H34.5V21.808H36C36.404 21.808 36.591 21.707 37.004 21.414C37.396 21.136 37.718 19.961 37.108 19.332L37.004 19.237L25.004 11.305C24.655 11.102 24.32 11 24 11ZM19.502 21.764V34.004H16.501V21.764H19.502ZM25.504 21.764V34.004H22.503V21.764H25.504ZM31.506 21.764V34.004H28.505V21.764H31.506ZM24.004 15.978C24.4018 15.978 24.7834 16.136 25.0647 16.4173C25.346 16.6986 25.504 17.0802 25.504 17.478C25.504 17.8758 25.346 18.2574 25.0647 18.5387C24.7834 18.82 24.4018 18.978 24.004 18.978C23.6062 18.978 23.2246 18.82 22.9433 18.5387C22.662 18.2574 22.504 17.8758 22.504 17.478C22.504 17.0802 22.662 16.6986 22.9433 16.4173C23.2246 16.136 23.6062 15.978 24.004 15.978Z" class="svg-primary-fill"/>
  </g>
  <defs>
    <clipPath id="a" class="a">
      <path fill="#fff" d="M0 0H48V48H0z"/>
    </clipPath>
  </defs>
</svg>
