<svg xmlns="http://www.w3.org/2000/svg" width="48" height="48" viewBox="0 0 48 48">
  <g class="neo-icon-kit--bank-mobile">
    <path fill="#006FCF" d="M39 0C39.7956 0 40.5587 0.31607 41.1213 0.87868C41.6839 1.44129 42 2.20435 42 3V45C42 45.7956 41.6839 46.5587 41.1213 47.1213C40.5587 47.6839 39.7956 48 39 48H9C8.20435 48 7.44129 47.6839 6.87868 47.1213C6.31607 46.5587 6 45.7956 6 45V3C6 2.20435 6.31607 1.44129 6.87868 0.87868C7.44129 0.31607 8.20435 0 9 0L39 0ZM39 3H9V45H39V3ZM24 38C24.5304 38 25.0391 38.2107 25.4142 38.5858C25.7893 38.9609 26 39.4696 26 40C26 40.5304 25.7893 41.0391 25.4142 41.4142C25.0391 41.7893 24.5304 42 24 42C23.4696 42 22.9609 41.7893 22.5858 41.4142C22.2107 41.0391 22 40.5304 22 40C22 39.4696 22.2107 38.9609 22.5858 38.5858C22.9609 38.2107 23.4696 38 24 38ZM24.431 6.12L24.502 6.167L35.355 14.167C35.999 14.641 35.695 15.636 34.925 15.7H31.49V27H34.925C35.398 27 35.996 27.721 35.996 28.468C35.996 29.23 35.398 30 34.925 30H13.142C12.669 30 12 29.215 12 28.468C12 27.721 12.669 27.005 13.142 27.005L16.508 27V15.7H13.142C12.9697 15.7006 12.8013 15.6487 12.6591 15.5514C12.5169 15.454 12.4077 15.3158 12.3459 15.155C12.284 14.9941 12.2726 14.8183 12.313 14.6508C12.3533 14.4833 12.4437 14.332 12.572 14.217L12.633 14.168L23.486 6.168C23.6215 6.06814 23.7833 6.01043 23.9514 6.00207C24.1195 5.99371 24.2863 6.03408 24.431 6.12ZM22.508 15.7H19.508V27.005H22.508V15.7ZM28.492 15.7H25.492V27.005H28.492V15.7Z" class="svg-primary-fill"/>
  </g>
</svg>
