<svg xmlns="http://www.w3.org/2000/svg" width="48" height="48" viewBox="0 0 48 48">
  <g class="neo-icon-kit--bank-app" clip-path="url(#a)">
    <path fill="#006FCF" d="M38 0C43.523 0 48 4.477 48 10V38C48 43.523 43.523 48 38 48H10C4.477 48 0 43.523 0 38V10C0 4.477 4.477 0 10 0H38ZM36.25 3H11.75C9.47406 3.00005 7.28771 3.88689 5.65484 5.47233C4.02198 7.05777 3.07111 9.21705 3.004 11.492L3 11.75V36.25C3.00005 38.5259 3.88689 40.7123 5.47233 42.3452C7.05777 43.978 9.21705 44.9289 11.492 44.996L11.75 45H36.25C38.5259 44.9999 40.7123 44.1131 42.3452 42.5277C43.978 40.9422 44.9289 38.7829 44.996 36.508L45 36.25V11.75C45 9.42936 44.0781 7.20376 42.4372 5.56282C40.7962 3.92187 38.5706 3 36.25 3ZM24 11C24.32 11 24.655 11.102 25.005 11.305L37.005 19.237C37.753 19.835 37.418 21.121 37.005 21.414C36.592 21.707 36.405 21.808 36.001 21.808H34.501V34L36.086 34.001L36.213 34.006L36.376 34.019L36.565 34.045C37.163 34.144 38.001 34.465 38.001 35.5C38.001 36.46 37.376 36.806 36.801 36.93L36.589 36.967L36.39 36.988L36.133 36.999H11.868L11.611 36.988L11.412 36.967L11.2 36.93C10.626 36.806 10 36.46 10 35.5C10 34.465 10.714 34.144 11.321 34.045L11.518 34.019L11.701 34.006L11.862 34.001L12 34L13.501 34.024V21.808H12C11.6781 21.8079 11.365 21.7022 11.109 21.507L11.021 21.434L10.999 21.414C10.309 20.751 10.488 19.682 10.999 19.237L22.531 11.729L23.132 11.325C23.46 11.109 23.679 10.999 23.999 10.999L24 11ZM19.502 21.764H16.501V34.004H19.502V21.764ZM25.504 21.764H22.503V34.004H25.504V21.764ZM31.506 21.764H28.505V34.004H31.506V21.764ZM24.004 15.978C23.6062 15.978 23.2246 16.136 22.9433 16.4173C22.662 16.6986 22.504 17.0802 22.504 17.478C22.504 17.8758 22.662 18.2574 22.9433 18.5387C23.2246 18.82 23.6062 18.978 24.004 18.978C24.4018 18.978 24.7834 18.82 25.0647 18.5387C25.346 18.2574 25.504 17.8758 25.504 17.478C25.504 17.0802 25.346 16.6986 25.0647 16.4173C24.7834 16.136 24.4018 15.978 24.004 15.978Z" class="svg-primary-fill"/>
  </g>
  <defs>
    <clipPath id="a" class="a">
      <path fill="#fff" d="M0 0H48V48H0z"/>
    </clipPath>
  </defs>
</svg>
