<svg xmlns="http://www.w3.org/2000/svg" width="48" height="48" viewBox="0 0 48 48">
  <g class="neo-icon-kit--bank">
    <path fill="#006FCF" d="M23.1 3.29197C23.3371 3.11729 23.6204 3.01628 23.9145 3.00152C24.2086 2.98676 24.5006 3.05891 24.754 3.20897L24.879 3.29197L43.879 17.292C45.007 18.122 44.475 19.882 43.127 19.994L43 20H40.5V42H43.5C43.8978 42 44.2794 42.158 44.5607 42.4393C44.842 42.7206 45 43.1021 45 43.5C45 43.8978 44.842 44.2793 44.5607 44.5606C44.2794 44.8419 43.8978 45 43.5 45H4.5C4.10218 45 3.72064 44.8419 3.43934 44.5606C3.15804 44.2793 3 43.8978 3 43.5C3 43.1021 3.15804 42.7206 3.43934 42.4393C3.72064 42.158 4.10218 42 4.5 42H7.5V20H5C3.6 20 2.985 18.27 4.003 17.38L4.11 17.294L23.11 3.29397L23.1 3.29197ZM13.5 20H10.5V42H13.5V20ZM19.5 20H16.5V42H19.5V20ZM25.5 20H22.5V42H25.5V20ZM31.5 20H28.5V42H31.5V20ZM37.5 20H34.5V42H37.5V20ZM24 6.36197L9.563 17H38.436L24 6.36197ZM24 10.5C24.5304 10.5 25.0391 10.7107 25.4142 11.0858C25.7893 11.4608 26 11.9695 26 12.5C26 13.0304 25.7893 13.5391 25.4142 13.9142C25.0391 14.2893 24.5304 14.5 24 14.5C23.4696 14.5 22.9609 14.2893 22.5858 13.9142C22.2107 13.5391 22 13.0304 22 12.5C22 11.9695 22.2107 11.4608 22.5858 11.0858C22.9609 10.7107 23.4696 10.5 24 10.5Z" class="svg-primary-fill"/>
  </g>
</svg>
