<svg xmlns="http://www.w3.org/2000/svg" width="48" height="48" viewBox="0 0 48 48">
  <g class="neo-icon-kit--bar-chart">
    <path fill="#006FCF" fill-rule="evenodd" d="M27 6H21L20.824 6.00507C19.2513 6.09581 18 7.39457 18 8.97754V39H15V17.9595L14.9949 17.7858C14.9035 16.2345 13.5952 15 12 15H6L5.82398 15.005C4.2513 15.0952 3 16.3859 3 17.9595V39H1.5L1.35559 39.0069C0.59516 39.0796 0 39.7206 0 40.5C0 41.3281 0.67188 42 1.5 42H46.5L46.6444 41.9931C47.4048 41.9204 48 41.2794 48 40.5C48 39.6719 47.3281 39 46.5 39H45V23.9595L44.9949 23.7858C44.9035 22.2345 43.5952 21 42 21H36L35.824 21.005C34.2513 21.0952 33 22.3859 33 23.9595V39H30V8.97754L29.9949 8.80287C29.9035 7.24222 28.5952 6 27 6ZM6 18H12V39H6V18ZM27 9H21V39H27V9ZM36 24H42V39H36V24Z" class="svg-primary-fill" clip-rule="evenodd"/>
  </g>
</svg>
