<svg xmlns="http://www.w3.org/2000/svg" width="48" height="48" viewBox="0 0 48 48">
  <g class="neo-icon-kit--bar-chart-filled">
    <path fill="#006FCF" d="M45 42H46.5C47.3281 42 48 41.3281 48 40.5C48 39.6719 47.3281 39 46.5 39H45V23.9595C45 22.3276 43.6543 21 42 21H36C34.3457 21 33 22.3276 33 23.9595V39H30V8.97754C30 7.33594 28.6543 6 27 6H21C19.3457 6 18 7.33594 18 8.97754V39H15V17.9595C15 16.3276 13.6543 15 12 15H6C4.3457 15 3 16.3276 3 17.9595V39H1.5C0.67188 39 0 39.6719 0 40.5C0 41.3281 0.67188 42 1.5 42H3H45Z" class="svg-primary-fill"/>
  </g>
</svg>
