<svg xmlns="http://www.w3.org/2000/svg" width="48" height="48" viewBox="0 0 48 48">
  <g class="neo-icon-kit--bed">
    <path fill="#006FCF" fill-rule="evenodd" d="M2.99314 10.3556C2.92047 9.59516 2.27987 9 1.5 9C0.671387 9 0 9.67187 0 10.5V37.5L0.00686455 37.6444C0.0795305 38.4048 0.720129 39 1.5 39C2.32861 39 3 38.3281 3 37.5V35.9996H45V37.5L45.0069 37.6444C45.0795 38.4048 45.7201 39 46.5 39C47.3286 39 48 38.3281 48 37.5V19.5L47.9931 19.3556C47.9205 18.5952 47.2799 18 46.5 18C45.6714 18 45 18.6719 45 19.5V20.9996L14.85 21.0001C14.1551 17.5767 11.1285 15 7.5 15H3V10.5L2.99314 10.3556ZM45 23.9996H3V32.9996H45V23.9996ZM3 18V21.0001H11.7439C11.1262 19.2522 9.45932 18 7.5 18H3Z" class="svg-primary-fill" clip-rule="evenodd"/>
  </g>
</svg>
