<svg xmlns="http://www.w3.org/2000/svg" width="48" height="48" viewBox="0 0 48 48">
  <g class="neo-icon-kit--berth-filled">
    <path fill="#006FCF" fill-rule="evenodd" d="M3 4.49988C3 3.67145 3.67157 2.99988 4.5 2.99988H43.5C44.3284 2.99988 45 3.67145 45 4.49988C45 5.32831 44.3284 5.99988 43.5 5.99988H4.5C3.67157 5.99988 3 5.32831 3 4.49988ZM7.5 17.9999C6.67157 17.9999 6 18.6715 6 19.4999V20.9999H14.7439C14.1262 19.2521 12.4593 17.9999 10.5 17.9999H7.5ZM17.85 20.9999C17.1551 17.5766 14.1285 14.9999 10.5 14.9999H7.5C5.01472 14.9999 3 17.0146 3 19.4999V28.4999C3 30.9852 5.01472 32.9999 7.5 32.9999H40.5C42.9853 32.9999 45 30.9852 45 28.4999V25.4999C45 23.0147 42.9853 20.9999 40.5 20.9999H17.85ZM3 43.4999C3 42.6715 3.67157 41.9999 4.5 41.9999H43.5C44.3284 41.9999 45 42.6715 45 43.4999C45 44.3283 44.3284 44.9999 43.5 44.9999H4.5C3.67157 44.9999 3 44.3283 3 43.4999Z" class="svg-primary-fill" clip-rule="evenodd"/>
  </g>
</svg>
