<svg xmlns="http://www.w3.org/2000/svg" width="48" height="48" viewBox="0 0 48 48">
  <g class="neo-icon-kit--bicycle">
    <path fill="#006FCF" fill-rule="evenodd" d="M29.5 9L29.6201 9.00488C30.2157 9.0525 30.7314 9.45131 30.9229 10.0254L33.9043 18.9697L36.058 24.1385C36.5246 24.0476 37.0067 24 37.5 24C41.6421 24 45 27.3579 45 31.5C45 35.6421 41.6421 39 37.5 39C33.3579 39 30 35.6421 30 31.5C30 28.9192 31.3036 26.6428 33.2882 25.2934L32.1924 22.6641L25.748 32.332C25.4698 32.7493 25.0015 33 24.5 33H17.85C17.1551 36.4234 14.1284 39 10.5 39C6.35786 39 3 35.6421 3 31.5C3 27.3579 6.35786 24 10.5 24C11.5008 24 12.4559 24.196 13.3289 24.5518L16.7686 19.3916L14.5723 15H13C12.1716 15 11.5 14.3284 11.5 13.5C11.5 12.6716 12.1716 12 13 12H19C19.8284 12 20.5 12.6716 20.5 13.5C20.5 14.3284 19.8284 15 19 15H17.9281L19.4279 18H30.4189L28.4189 12H26.5C25.6716 12 25 11.3284 25 10.5C25 9.67157 25.6716 9 26.5 9H29.5ZM38.0771 32.8848C38.8418 32.5661 39.2034 31.6875 38.8848 30.9229L37.253 27.0067C37.3348 27.0022 37.4171 27 37.5 27C39.9853 27 42 29.0147 42 31.5C42 33.9853 39.9853 36 37.5 36C35.0147 36 33 33.9853 33 31.5C33 30.1754 33.5723 28.9844 34.4832 28.161L36.1152 32.0771C36.4339 32.8418 37.3125 33.2034 38.0771 32.8848ZM9.17773 32.208C9.43881 32.6956 9.94691 33 10.5 33H14.7439C14.1262 34.7478 12.4593 36 10.5 36C8.01472 36 6 33.9853 6 31.5C6 29.0147 8.01472 27 10.5 27C10.8815 27 11.252 27.0475 11.6057 27.1369L9.25195 30.668C8.9451 31.1283 8.91671 31.7203 9.17773 32.208ZM18.3135 22.4824L22.0723 30H13.3027L15.8081 26.2412L18.3135 22.4824ZM29.6973 21L24.6855 28.5166L20.9277 21H29.6973Z" class="svg-primary-fill" clip-rule="evenodd"/>
  </g>
</svg>
