<svg xmlns="http://www.w3.org/2000/svg" width="48" height="48" viewBox="0 0 48 48">
  <g class="neo-icon-kit--billing-filled">
    <path fill="#006FCF" fill-rule="evenodd" d="M40.2425 7.99961C36.026 3.53642 30.1525 1 24 1C11.2975 1 1 11.2975 1 24C1 36.7025 11.2975 47 24 47C36.7025 47 47 36.7025 47 24V23L46.9945 22.8507C46.9182 21.8159 46.0544 21 45 21C43.8954 21 43 21.8954 43 23V24L42.9971 24.3378C42.8168 34.6754 34.3806 43 24 43C13.5066 43 5 34.4934 5 24C5 13.5066 13.5066 5 24 5L24.4185 5.00477C29.434 5.11906 34.1914 7.28371 37.5742 11.0048L38.479 12H37L36.8507 12.0055C35.8159 12.0818 35 12.9456 35 14C35 15.1046 35.8954 16 37 16H43L43.1528 15.9942L43.3022 15.9772L43.4587 15.9471L43.6079 15.9059L43.7629 15.8494L43.9157 15.7786L44.0597 15.6966L44.2117 15.5913L44.3376 15.4869L44.405 15.4234L44.5155 15.3052L44.5928 15.2098C44.6508 15.1335 44.7034 15.053 44.7501 14.9687L44.8271 14.8147L44.8853 14.6686L44.9145 14.5803L44.9559 14.4195L44.9819 14.2705L44.9945 14.1493L45 14V8L44.9945 7.85074C44.9182 6.81588 44.0544 6 43 6L42.8507 6.00549C41.8159 6.08183 41 6.94564 41 8V8.828L40.5339 8.31412L40.2425 7.99961ZM31.5 30C31.5 29.1716 30.8284 28.5 30 28.5H18L17.8555 28.5069C17.0949 28.5796 16.5 29.2203 16.5 30C16.5 30.8284 17.1716 31.5 18 31.5H30L30.1445 31.4931C30.9051 31.4204 31.5 30.7797 31.5 30ZM18 22.5H30C30.8284 22.5 31.5 23.1716 31.5 24C31.5 24.7797 30.9051 25.4204 30.1445 25.4931L30 25.5H18C17.1716 25.5 16.5 24.8284 16.5 24C16.5 23.2203 17.0949 22.5796 17.8555 22.5069L18 22.5ZM30 16.5H18L17.8555 16.5069C17.0949 16.5796 16.5 17.2203 16.5 18C16.5 18.8284 17.1716 19.5 18 19.5H30L30.1445 19.4931C30.9051 19.4204 31.5 18.7797 31.5 18C31.5 17.1716 30.8284 16.5 30 16.5Z" class="svg-primary-fill" clip-rule="evenodd"/>
  </g>
</svg>
