<svg xmlns="http://www.w3.org/2000/svg" width="48" height="48" viewBox="0 0 48 48">
  <g class="neo-icon-kit--bill-pay-filled">
    <path fill="#006FCF" fill-rule="evenodd" d="M29.667 0.017C30.025 0.041 30.377 0.17 30.651 0.436L41.551 11.043C41.825 11.309 41.967 11.738 42 12C42.003 12.022 42 45 42 45C42 46.65 40.612 48 38.917 48H9.083C7.387 48 6 46.65 6 45V3C6 1.35 7.387 0 9.083 0L29.667 0.017ZM30 4V12H38.5L30 4ZM33.354 30.5C33.354 29.672 32.748 29 32 29H26.354C25.606 29 25 29.672 25 30.5C25 31.328 25.606 32 26.354 32H32C32.748 32 33.354 31.328 33.354 30.5ZM34.7 23C35.418 23 36 23.672 36 24.5C36 25.328 35.418 26 34.7 26H26.3C25.582 26 25 25.328 25 24.5C25 23.672 25.582 23 26.3 23H34.7ZM17.975 19.346C17.7138 19.1149 17.3748 18.9911 17.0262 18.9994C16.6775 19.0078 16.3449 19.1477 16.095 19.391C15.839 19.641 15.695 19.98 15.695 20.334V20.898L15.493 20.942C13.637 21.376 12.452 22.665 12.447 24.334C12.474 26.164 13.805 27.056 15.219 27.618L15.559 27.747L15.899 27.865L16.234 27.975L17.349 28.323L17.711 28.446L18.031 28.564L18.176 28.62L18.435 28.733C19.035 29.012 19.275 29.28 19.274 29.665C19.272 30.205 18.211 30.532 17.154 30.55C17.141 30.55 17.129 30.548 17.117 30.546C17.0971 30.543 17.0771 30.5413 17.057 30.541L16.98 30.549C15.929 30.519 14.903 29.884 14.671 29.101L14.629 28.98C14.4995 28.6693 14.26 28.4172 13.9564 28.272C13.6527 28.1268 13.3061 28.0987 12.983 28.193C12.6385 28.2912 12.346 28.5202 12.168 28.831C12.0823 28.9841 12.0282 29.1527 12.0088 29.3271C11.9894 29.5014 12.0051 29.6778 12.055 29.846C12.566 31.568 14.102 32.643 15.693 33.041V33.667L15.7 33.795C15.733 34.136 15.9 34.451 16.165 34.675C16.4317 34.8998 16.7734 35.0156 17.1217 34.9993C17.4701 34.983 17.7995 34.8357 18.044 34.587C18.285 34.339 18.42 34.01 18.42 33.667V33.097L18.643 33.055C20.691 32.632 21.994 31.386 22 29.674C22.006 27.688 20.632 26.729 19.155 26.13L18.825 26.002L18.661 25.942L18.169 25.777L16.92 25.385L16.564 25.265L16.401 25.207L16.109 25.095C15.474 24.838 15.178 24.609 15.173 24.319C15.175 23.817 15.775 23.604 16.159 23.519L16.318 23.489C17.441 23.303 18.848 23.704 19.162 24.591L19.212 24.71C19.359 25.02 19.622 25.26 19.947 25.386C20.272 25.511 20.633 25.509 20.957 25.382C21.28 25.254 21.541 25.01 21.687 24.699C21.831 24.389 21.849 24.036 21.737 23.713C21.207 22.228 19.886 21.336 18.422 20.972V20.333L18.416 20.205C18.3827 19.8735 18.2246 19.5667 17.975 19.346Z" class="svg-primary-fill" clip-rule="evenodd"/>
  </g>
</svg>
