<svg xmlns="http://www.w3.org/2000/svg" width="48" height="48" viewBox="0 0 48 48">
  <g class="neo-icon-kit--billing">
    <path fill="#006FCF" fill-rule="evenodd" d="M39.8723 8.33591C35.7507 3.97698 30.0116 1.5 24 1.5C11.5736 1.5 1.5 11.5736 1.5 24C1.5 36.4264 11.5736 46.5 24 46.5C36.4264 46.5 46.5 36.4264 46.5 24V23L46.4931 22.8555C46.4204 22.0949 45.7797 21.5 45 21.5C44.1716 21.5 43.5 22.1716 43.5 23V24L43.497 24.343C43.314 34.9543 34.655 43.5 24 43.5C13.2304 43.5 4.5 34.7696 4.5 24C4.5 13.2304 13.2304 4.5 24 4.5L24.4186 4.50464C29.5749 4.61905 34.4666 6.84316 37.9441 10.6685L39.609 12.5H37L36.8555 12.5069C36.0949 12.5796 35.5 13.2203 35.5 14C35.5 14.8284 36.1716 15.5 37 15.5H43L43.0726 15.4983L43.2179 15.4843L43.3273 15.4641L43.4748 15.4233L43.596 15.3769L43.7233 15.3145L43.8452 15.2394L43.9574 15.1548L44.0117 15.1075L44.1014 15.0184L44.184 14.9211L44.2822 14.7792L44.3536 14.6472L44.4102 14.5122L44.4661 14.3185L44.4841 14.2183L44.4983 14.071L44.5 8L44.4931 7.85554C44.4204 7.09489 43.7797 6.5 43 6.5L42.8555 6.50687C42.0949 6.57955 41.5 7.2203 41.5 8V10.12L40.164 8.65045L39.8723 8.33591ZM31.5 30C31.5 29.1716 30.8284 28.5 30 28.5H18L17.8555 28.5069C17.0949 28.5796 16.5 29.2203 16.5 30C16.5 30.8284 17.1716 31.5 18 31.5H30L30.1445 31.4931C30.9051 31.4204 31.5 30.7797 31.5 30ZM18 22.5H30C30.8284 22.5 31.5 23.1716 31.5 24C31.5 24.7797 30.9051 25.4204 30.1445 25.4931L30 25.5H18C17.1716 25.5 16.5 24.8284 16.5 24C16.5 23.2203 17.0949 22.5796 17.8555 22.5069L18 22.5ZM30 16.5H18L17.8555 16.5069C17.0949 16.5796 16.5 17.2203 16.5 18C16.5 18.8284 17.1716 19.5 18 19.5H30L30.1445 19.4931C30.9051 19.4204 31.5 18.7797 31.5 18C31.5 17.1716 30.8284 16.5 30 16.5Z" class="svg-primary-fill" clip-rule="evenodd"/>
  </g>
</svg>
