<svg xmlns="http://www.w3.org/2000/svg" width="48" height="48" viewBox="0 0 48 48">
  <g class="neo-icon-kit--boarding-priority">
    <g fill="#006FCF" class="svg-primary-fill">
      <path fill-rule="evenodd" d="M5.458 42.604C4.664 42.604 4.021 41.961 4.021 41.167 4.021 40.84 4.13 40.538 4.315 40.296L3.834 40.045C3.493 39.866 3.237 39.558 3.125 39.189 3.013 38.82 3.054 38.421 3.238 38.083L8.987 27.541C9.317 26.935 10.031 26.65 10.687 26.861L17.57 29.07 20.338 24.023C20.719 23.327 21.593 23.072 22.289 23.454 22.984 23.836 23.239 24.71 22.857 25.406L13.057 43.279C12.764 43.812 12.183 44.087 11.613 44.014 11.424 44.587 10.884 45 10.248 45 9.454 45 8.811 44.357 8.811 43.563 8.811 43.271 8.898 42.999 9.048 42.772L6.826 41.61C6.639 42.187 6.097 42.604 5.458 42.604ZM11.214 40.661 6.462 38.175 10.941 29.961 16.162 31.638 11.214 40.661ZM14 5.5C14 4.672 14.672 4 15.5 4H21.5C22.328 4 23 4.672 23 5.5 23 6.328 22.328 7 21.5 7H15.5C14.672 7 14 6.328 14 5.5ZM8 11.5C8 10.672 8.672 10 9.5 10H18.5C19.328 10 20 10.672 20 11.5 20 12.328 19.328 13 18.5 13H9.5C8.672 13 8 12.328 8 11.5Z" clip-rule="evenodd"/>
      <path d="M3 17.5001C3 16.6716 3.67157 16.0001 4.5 16.0001H13.5C14.3284 16.0001 15 16.6716 15 17.5001C15 18.3285 14.3284 19.0001 13.5 19.0001H4.5C3.67157 19.0001 3 18.3285 3 17.5001Z"/>
      <path fill-rule="evenodd" d="M34.5 6C35.328 6 36 5.328 36 4.5 36 3.672 35.328 3 34.5 3 33.672 3 33 3.672 33 4.5 33 5.328 33.672 6 34.5 6ZM34.5 9C36.985 9 39 6.985 39 4.5 39 2.015 36.985 0 34.5 0 32.015 0 30 2.015 30 4.5 30 6.985 32.015 9 34.5 9ZM33.399 11.626C34.025 11.352 34.757 11.536 35.18 12.073L40.229 18.5H43.5C44.328 18.5 45 19.172 45 20 45 20.828 44.328 21.5 43.5 21.5H39.5C39.04 21.5 38.605 21.289 38.321 20.927L34.871 16.536 33.119 25.997 39.061 31.939C39.273 32.152 39.417 32.424 39.474 32.719L41.474 43.219C41.629 44.033 41.095 44.819 40.281 44.974 39.467 45.129 38.682 44.595 38.527 43.781L36.613 33.734 31.842 28.963 23.309 44.232C22.905 44.955 21.991 45.214 21.268 44.809 20.545 44.405 20.287 43.491 20.691 42.768L30.07 25.984 32.01 15.508 27.056 17.675 25.302 20.744C24.891 21.464 23.975 21.713 23.256 21.302 22.537 20.891 22.287 19.975 22.698 19.256L24.698 15.756C24.858 15.476 25.103 15.255 25.399 15.126L33.399 11.626Z" clip-rule="evenodd"/>
    </g>
  </g>
</svg>
