<svg xmlns="http://www.w3.org/2000/svg" width="48" height="48" viewBox="0 0 48 48">
  <g class="neo-icon-kit--bookmark">
    <path fill="#006FCF" d="M36 0C39.314 0 42 2.7 42 6.03V44.985C42.0019 45.7826 41.6869 46.5483 41.1243 47.1137C40.5617 47.6791 39.7976 47.9979 39 48C38.6057 47.9999 38.2153 47.9219 37.8513 47.7703C37.4873 47.6188 37.1569 47.3968 36.879 47.117L24.703 34.882C24.5312 34.709 24.302 34.6051 24.0588 34.5898C23.8155 34.5745 23.5751 34.6489 23.383 34.799L23.289 34.883L11.122 47.114C10.8442 47.3939 10.5137 47.6161 10.1496 47.7677C9.78556 47.9193 9.39509 47.9974 9.00071 47.9975C8.60633 47.9976 8.21582 47.9197 7.85169 47.7682C7.48755 47.6168 7.15698 47.3948 6.879 47.115C6.31564 46.5481 5.99962 45.7812 6 44.982V6.03C6 2.7 8.686 0 12 0H36ZM36 3.015H12C11.2329 3.01661 10.4955 3.3114 9.9387 3.83901C9.3819 4.36662 9.04787 5.08713 9.005 5.853L9 6.03V44.982L21.302 32.623L21.396 32.539L21.54 32.419C22.279 31.8408 23.1984 31.5421 24.1362 31.5754C25.0739 31.6087 25.9698 31.9719 26.666 32.601L26.822 32.75L39 44.985V6.03C39.0015 5.2629 38.71 4.52419 38.1851 3.96476C37.6603 3.40533 36.9416 3.0674 36.176 3.02L36 3.015Z" class="svg-primary-fill"/>
  </g>
</svg>
