<svg xmlns="http://www.w3.org/2000/svg" width="48" height="48" viewBox="0 0 48 48">
  <g class="neo-icon-kit--breakfast">
    <g fill="#006FCF" fill-rule="evenodd" class="svg-secondary-fill" clip-rule="evenodd">
      <path d="M21.1389 3.52384C20.5998 2.89485 19.6528 2.82201 19.0238 3.36114 19.0127 3.37064 19.0012 3.3805 18.9892 3.39072 18.7559 3.59006 18.3599 3.92851 18.0513 4.40783 17.6959 4.95986 17.5 5.61429 17.5 6.40129 17.5 7.02303 17.685 7.52687 17.8355 7.8762 17.9198 8.07185 17.9771 8.1925 18.0221 8.28694 18.0787 8.40599 18.1155 8.48337 18.1614 8.61685 18.2083 8.75339 18.2177 8.84004 18.2045 8.94009 18.1892 9.05561 18.1285 9.29371 17.873 9.69596 17.429 10.3953 17.6359 11.3222 18.3352 11.7663 19.0346 12.2104 19.9615 12.0034 20.4056 11.3041 20.8305 10.6349 21.0925 9.98567 21.1787 9.33268 21.2669 8.66422 21.1564 8.10119 20.9984 7.64161 20.9037 7.36589 20.7407 7.01443 20.6492 6.81733 20.6224 6.7594 20.6017 6.71481 20.5907 6.68939 20.5025 6.48448 20.5 6.42241 20.5 6.40129 20.5 6.14626 20.5532 6.0636 20.5732 6.03257 20.6238 5.95403 20.7032 5.87292 20.9762 5.63891 21.6052 5.09978 21.678 4.15283 21.1389 3.52384zM28.1389 3.52384C27.5998 2.89485 26.6528 2.82201 26.0238 3.36114 26.0127 3.37064 26.0012 3.3805 25.9892 3.39072 25.7559 3.59006 25.3599 3.92851 25.0513 4.40783 24.6959 4.95986 24.5 5.61429 24.5 6.40129 24.5 7.02303 24.685 7.52687 24.8355 7.8762 24.9198 8.07185 24.9771 8.1925 25.0221 8.28694 25.0787 8.40599 25.1155 8.48337 25.1614 8.61685 25.2083 8.75339 25.2177 8.84004 25.2045 8.94009 25.1892 9.05561 25.1285 9.29371 24.873 9.69596 24.429 10.3953 24.6359 11.3222 25.3352 11.7663 26.0346 12.2104 26.9615 12.0034 27.4056 11.3041 27.8305 10.6349 28.0925 9.98567 28.1787 9.33268 28.2669 8.66422 28.1564 8.10119 27.9984 7.64161 27.9037 7.36589 27.7407 7.01443 27.6492 6.81733 27.6224 6.7594 27.6017 6.71481 27.5907 6.68939 27.5025 6.48448 27.5 6.42241 27.5 6.40129 27.5 6.14626 27.5532 6.0636 27.5732 6.03257 27.6238 5.95403 27.7032 5.87292 27.9762 5.63891 28.6052 5.09978 28.678 4.15283 28.1389 3.52384zM14.1389 3.52384C13.5998 2.89485 12.6528 2.82201 12.0238 3.36114 12.0127 3.37064 12.0012 3.3805 11.9892 3.39072 11.7559 3.59006 11.3599 3.92851 11.0513 4.40783 10.6959 4.95986 10.5 5.61429 10.5 6.40129 10.5 7.02303 10.685 7.52687 10.8355 7.8762 10.9198 8.07185 10.9771 8.1925 11.0221 8.28694 11.0787 8.40599 11.1155 8.48337 11.1614 8.61685 11.2083 8.75339 11.2177 8.84004 11.2045 8.94009 11.1892 9.05561 11.1285 9.29371 10.873 9.69596 10.429 10.3953 10.6359 11.3222 11.3352 11.7663 12.0346 12.2104 12.9615 12.0034 13.4056 11.3041 13.8305 10.6349 14.0925 9.98567 14.1787 9.33268 14.2669 8.66422 14.1564 8.10119 13.9984 7.64161 13.9037 7.36589 13.7407 7.01443 13.6492 6.81733 13.6224 6.7594 13.6017 6.71481 13.5907 6.68939 13.5025 6.48448 13.5 6.42241 13.5 6.40129 13.5 6.14626 13.5532 6.0636 13.5732 6.03257 13.6238 5.95403 13.7032 5.87292 13.9762 5.63891 14.6052 5.09978 14.678 4.15283 14.1389 3.52384z"/>
    </g>
    <path fill="#006FCF" fill-rule="evenodd" d="M3 18C3 16.3431 4.34315 15 6 15H33C34.6569 15 36 16.3431 36 18H39C42.3137 18 45 20.6863 45 24V30C45 33.3137 42.3137 36 39 36H35.6219C35.6219 36 35.6219 36 35.6219 36C34.2898 41.1757 29.5915 45 24 45H15C8.37258 45 3 39.6274 3 33V18ZM6 18H33V33C33 37.9706 28.9706 42 24 42H15C10.0294 42 6 37.9706 6 33V18ZM36 33H39C40.6569 33 42 31.6569 42 30V24C42 22.3431 40.6569 21 39 21H36V33Z" class="svg-primary-fill" clip-rule="evenodd"/>
  </g>
</svg>
