<svg xmlns="http://www.w3.org/2000/svg" width="48" height="48" viewBox="0 0 48 48">
  <g fill="#006FCF" fill-rule="evenodd" class="neo-icon-kit--breakfast-not-included-filled" clip-rule="evenodd">
    <path d="M21.139 3.524C20.6 2.895 19.653 2.822 19.024 3.361 19.013 3.371 19.001 3.381 18.989 3.391 18.756 3.59 18.36 3.929 18.051 4.408 17.696 4.96 17.5 5.614 17.5 6.401 17.5 7.023 17.685 7.527 17.836 7.876 17.92 8.072 17.977 8.193 18.022 8.287 18.079 8.406 18.116 8.483 18.161 8.617 18.208 8.753 18.218 8.84 18.205 8.94 18.189 9.056 18.129 9.294 17.873 9.696 17.429 10.395 17.636 11.322 18.335 11.766 19.035 12.21 19.962 12.003 20.406 11.304 20.831 10.635 21.093 9.986 21.179 9.333 21.267 8.664 21.156 8.101 20.998 7.642 20.904 7.366 20.741 7.014 20.649 6.817 20.622 6.759 20.602 6.715 20.591 6.689 20.503 6.484 20.5 6.422 20.5 6.401 20.5 6.146 20.553 6.064 20.573 6.033 20.624 5.954 20.703 5.873 20.976 5.639 21.605 5.1 21.678 4.153 21.139 3.524ZM28.139 3.524C27.6 2.895 26.653 2.822 26.024 3.361 26.013 3.371 26.001 3.381 25.989 3.391 25.756 3.59 25.36 3.929 25.051 4.408 24.696 4.96 24.5 5.614 24.5 6.401 24.5 7.023 24.685 7.527 24.836 7.876 24.92 8.072 24.977 8.193 25.022 8.287 25.079 8.406 25.116 8.483 25.161 8.617 25.208 8.753 25.218 8.84 25.205 8.94 25.189 9.056 25.129 9.294 24.873 9.696 24.429 10.395 24.636 11.322 25.335 11.766 26.035 12.21 26.962 12.003 27.406 11.304 27.831 10.635 28.093 9.986 28.179 9.333 28.267 8.664 28.156 8.101 27.998 7.642 27.904 7.366 27.741 7.014 27.649 6.817 27.622 6.759 27.602 6.715 27.591 6.689 27.503 6.484 27.5 6.422 27.5 6.401 27.5 6.146 27.553 6.064 27.573 6.033 27.624 5.954 27.703 5.873 27.976 5.639 28.605 5.1 28.678 4.153 28.139 3.524ZM14.139 3.524C13.6 2.895 12.653 2.822 12.024 3.361 12.013 3.371 12.001 3.381 11.989 3.391 11.756 3.59 11.36 3.929 11.051 4.408 10.696 4.96 10.5 5.614 10.5 6.401 10.5 7.023 10.685 7.527 10.836 7.876 10.92 8.072 10.977 8.193 11.022 8.287 11.079 8.406 11.116 8.483 11.161 8.617 11.208 8.753 11.218 8.84 11.205 8.94 11.189 9.056 11.129 9.294 10.873 9.696 10.429 10.395 10.636 11.322 11.335 11.766 12.035 12.21 12.962 12.003 13.406 11.304 13.831 10.635 14.093 9.986 14.179 9.333 14.267 8.664 14.156 8.101 13.998 7.642 13.904 7.366 13.741 7.014 13.649 6.817 13.622 6.759 13.602 6.715 13.591 6.689 13.503 6.484 13.5 6.422 13.5 6.401 13.5 6.146 13.553 6.064 13.573 6.033 13.624 5.954 13.703 5.873 13.976 5.639 14.605 5.1 14.678 4.153 14.139 3.524Z" class="svg-secondary-fill"/>
    <path d="M3 18C3 16.343 4.343 15 6 15H9.628L34.104 39.476C31.97 42.799 28.242 45 24 45H15C8.373 45 3 39.627 3 33V18ZM45 30V24C45 20.686 42.314 18 39 18H36C36 16.343 34.657 15 33 15H18.113L7.174 4.06C6.588 3.475 5.638 3.475 5.052 4.06 4.467 4.646 4.467 5.596 5.052 6.182L13.871 15 35.455 36.585 42.529 43.658C43.115 44.244 44.065 44.244 44.65 43.658 45.236 43.073 45.236 42.123 44.65 41.537L39.112 35.999C42.374 35.939 45 33.276 45 30ZM36 21H39C40.657 21 42 22.343 42 24V30C42 31.657 40.657 33 39 33H36.113L36 32.887V21Z" class="svg-primary-fill"/>
  </g>
</svg>
