<svg xmlns="http://www.w3.org/2000/svg" width="48" height="48" viewBox="0 0 48 48">
  <g class="neo-icon-kit--business">
    <path fill="#006FCF" fill-rule="evenodd" d="M33.0002 7C33.0002 5.34315 31.657 4 30.0002 4H18.0002C16.3433 4 15.0002 5.34315 15.0002 7L15 10H8.00015C6.42624 10 5.11992 11.2163 5.00778 12.7863L3.00778 40.7863C2.88374 42.5229 4.25913 44 6.00015 44H42.0002C43.7412 44 45.1166 42.5229 44.9925 40.7863L42.9925 12.7863C42.8804 11.2163 41.5741 10 40.0002 10H33L33.0002 7ZM6.429 35H17.0002C17.0002 36.1046 17.8956 37 19.0002 37H29.0002C30.1047 37 31.0002 36.1046 31.0002 35H41.571L42.0002 41H6.00015L6.429 35ZM40.0002 13H8.00015L6.643 32H41.357L40.0002 13ZM18.0002 7H30.0002V10H18.0002V7Z" class="svg-primary-fill" clip-rule="evenodd"/>
  </g>
</svg>
