<svg xmlns="http://www.w3.org/2000/svg" width="48" height="48" viewBox="0 0 48 48">
  <g class="neo-icon-kit--business-services" clip-path="url(#a)">
    <path fill="#006FCF" d="M32.9859 38.813L29.1359 10.865L31.4519 1.874C31.5093 1.65241 31.5152 1.4206 31.4692 1.19637C31.4231 0.972144 31.3262 0.761462 31.186 0.580506C31.0458 0.39955 30.866 0.253134 30.6603 0.152503C30.4547 0.0518717 30.2288 -0.000297659 29.9999 1.27748e-06H17.9999C17.7711 9.6842e-05 17.5454 0.0525257 17.3399 0.153276C17.1345 0.254027 16.9549 0.400429 16.8148 0.581282C16.6746 0.762135 16.5777 0.972645 16.5315 1.19671C16.4852 1.42077 16.4908 1.65244 16.5479 1.874L18.8659 10.874C18.8929 10.98 18.9479 11.072 18.9959 11.167L15.0159 38.804C14.9826 39.0349 15.0035 39.2703 15.0771 39.4916C15.1507 39.713 15.2749 39.9141 15.4399 40.079L22.9399 47.562C23.0789 47.7016 23.2441 47.8123 23.426 47.8879C23.6079 47.9634 23.8029 48.0023 23.9999 48.0023C24.1968 48.0023 24.3919 47.9634 24.5738 47.8879C24.7557 47.8123 24.9209 47.7016 25.0599 47.562L32.5599 40.079C32.8929 39.747 33.0499 39.28 32.9859 38.813ZM28.0639 3L26.5199 9H21.4799L19.9359 3H28.0639ZM23.9999 44.38L18.0919 38.487L21.9069 12H26.2639L29.9119 38.482L23.9999 44.38Z" class="svg-primary-fill"/>
  </g>
  <defs>
    <clipPath id="a" class="a">
      <path fill="#fff" d="M0 0H48V48H0z"/>
    </clipPath>
  </defs>
</svg>
