<svg xmlns="http://www.w3.org/2000/svg" width="48" height="48" viewBox="0 0 48 48">
  <g class="neo-icon-kit--business-filled">
    <path fill="#006FCF" fill-rule="evenodd" d="M30 4C31.6569 4 33 5.34315 33 7L32.9999 10H40C41.574 10 42.8803 11.2163 42.9924 12.7863L44.9924 40.7863C45.1165 42.5229 43.7411 44 42 44H6.00003C4.25901 44 2.88361 42.5229 3.00766 40.7863L5.00766 12.7863C5.11979 11.2163 6.42612 10 8.00003 10H14.9999L15 7C15 5.34315 16.3432 4 18 4H30ZM41.3569 32H6.64388L6.42888 35H17C17 36.0544 17.8159 36.9182 18.8508 36.9945L19 37H29C30.0544 37 30.9182 36.1841 30.9945 35.1493L31 35H41.5709L41.3569 32ZM18 7H30V10H18V7Z" class="svg-primary-fill" clip-rule="evenodd"/>
  </g>
</svg>
