<svg xmlns="http://www.w3.org/2000/svg" width="48" height="48" viewBox="0 0 48 48">
  <g class="neo-icon-kit--calculator-filled">
    <path fill="#006FCF" fill-rule="evenodd" d="M9 0H39C40.6569 0 42 1.34315 42 3V45C42 46.6569 40.6569 48 39 48H9C7.34315 48 6 46.6569 6 45V3C6 1.34315 7.34315 0 9 0ZM9 3V12H39V3H9ZM27 33.5C27 32.6716 27.6716 32 28.5 32H34.5C35.3284 32 36 32.6716 36 33.5C36 34.3284 35.3284 35 34.5 35H28.5C27.6716 35 27 34.3284 27 33.5ZM28.5 38C27.6716 38 27 38.6716 27 39.5C27 40.3284 27.6716 41 28.5 41H34.5C35.3284 41 36 40.3284 36 39.5C36 38.6716 35.3284 38 34.5 38H28.5ZM27 23.5C27 22.6716 27.6716 22 28.5 22H34.5C35.3284 22 36 22.6716 36 23.5C36 24.3284 35.3284 25 34.5 25H28.5C27.6716 25 27 24.3284 27 23.5ZM16 22H13.5C12.6716 22 12 22.6716 12 23.5C12 24.3284 12.6716 25 13.5 25H16V27.5C16 28.3284 16.6716 29 17.5 29C18.3284 29 19 28.3284 19 27.5V25H21.5C22.3284 25 23 24.3284 23 23.5C23 22.6716 22.3284 22 21.5 22H19V19.5C19 18.6716 18.3284 18 17.5 18C16.6716 18 16 18.6716 16 19.5V22ZM15.4611 32.4223L17.5 34.4611L19.5389 32.4223C20.1019 31.8592 21.0147 31.8592 21.5777 32.4223C22.1408 32.9853 22.1408 33.8981 21.5777 34.4611L19.5389 36.5L21.5777 38.5389C22.1408 39.1019 22.1408 40.0147 21.5777 40.5777C21.0147 41.1408 20.1019 41.1408 19.5389 40.5777L17.5 38.5389L15.4611 40.5777C14.8981 41.1408 13.9853 41.1408 13.4223 40.5777C12.8592 40.0147 12.8592 39.1019 13.4223 38.5389L15.4611 36.5L13.4223 34.4611C12.8592 33.8981 12.8592 32.9853 13.4223 32.4223C13.9853 31.8592 14.8981 31.8592 15.4611 32.4223Z" class="svg-primary-fill" clip-rule="evenodd"/>
  </g>
</svg>
