<svg xmlns="http://www.w3.org/2000/svg" width="48" height="48" viewBox="0 0 48 48">
  <g class="neo-icon-kit--calculator">
    <path fill="#006FCF" fill-rule="evenodd" d="M9 0H39C40.6569 0 42 1.34315 42 3V45C42 46.6569 40.6569 48 39 48H9C7.34315 48 6 46.6569 6 45V3C6 1.34315 7.34315 0 9 0ZM39 3V12H9V3H39ZM9 15H39V45H9V15ZM34.5 32H28.5C27.6716 32 27 32.6716 27 33.5C27 34.3284 27.6716 35 28.5 35H34.5C35.3284 35 36 34.3284 36 33.5C36 32.6716 35.3284 32 34.5 32ZM28.5 38H34.5C35.3284 38 36 38.6716 36 39.5C36 40.3284 35.3284 41 34.5 41H28.5C27.6716 41 27 40.3284 27 39.5C27 38.6716 27.6716 38 28.5 38ZM34.5 22H28.5C27.6716 22 27 22.6716 27 23.5C27 24.3284 27.6716 25 28.5 25H34.5C35.3284 25 36 24.3284 36 23.5C36 22.6716 35.3284 22 34.5 22ZM16 22V19.5C16 18.6716 16.6716 18 17.5 18C18.3284 18 19 18.6716 19 19.5V22H21.5C22.3284 22 23 22.6716 23 23.5C23 24.3284 22.3284 25 21.5 25H19V27.5C19 28.3284 18.3284 29 17.5 29C16.6716 29 16 28.3284 16 27.5V25H13.5C12.6716 25 12 24.3284 12 23.5C12 22.6716 12.6716 22 13.5 22H16ZM19.5389 32.4223L17.5 34.4611L15.4611 32.4223C14.8981 31.8592 13.9853 31.8592 13.4223 32.4223C12.8592 32.9853 12.8592 33.8981 13.4223 34.4611L15.4611 36.5L13.4223 38.5389C12.8592 39.1019 12.8592 40.0147 13.4223 40.5777C13.9853 41.1408 14.8981 41.1408 15.4611 40.5777L17.5 38.5389L19.5389 40.5777C20.1019 41.1408 21.0147 41.1408 21.5777 40.5777C22.1408 40.0147 22.1408 39.1019 21.5777 38.5389L19.5389 36.5L21.5777 34.4611C22.1408 33.8981 22.1408 32.9853 21.5777 32.4223C21.0147 31.8592 20.1019 31.8592 19.5389 32.4223Z" class="svg-primary-fill" clip-rule="evenodd"/>
  </g>
</svg>
