<svg xmlns="http://www.w3.org/2000/svg" width="24" height="24" viewBox="0 0 24 24">
  <g class="neo-icon-kit--calendar-m">
    <path fill="#444B61" fill-rule="evenodd" d="M17.999 6.99995V7.99895H16V6.99995H7.99902V7.99895H5.99902V6.99995H4.99902V9.99995H19V6.99995H17.999ZM5.99902 4.99995V3.00195H7.99902V4.99995H16.003V3.00195H17.996V4.99995H20C20.545 4.99995 21 5.50195 21 5.99995V20C21 20.502 20.5 21 20 21H3.99902C3.49902 21 2.99902 20.502 2.99902 20V5.99995C2.99902 5.50195 3.49902 4.99995 3.99902 4.99995H5.99902ZM8.00002 12H5.00002V15H8.00002V12ZM13 12H10V15H13V12ZM15 12H18V15H15V12ZM5.00002 16H8.00002V19H5.00002V16ZM10 16V19H13V16H10Z" class="svg-primary-fill" clip-rule="evenodd"/>
  </g>
</svg>
