<svg xmlns="http://www.w3.org/2000/svg" width="20" height="20" viewBox="0 0 20 20">
  <g class="neo-icon-kit--calendar-s">
    <path fill="#444B61" fill-rule="evenodd" d="M14.999 5.998V6.998H13V5.998H7V6.998H5V5.998H4V8.998H16V5.998H14.999ZM4.999 3.998V2H6.999V3.998H13.003V2H14.996V3.998H17C17.545 3.998 18 4.5 18 4.998V17C18 17.502 17.5 18 17 18H3C2.5 18 2 17.502 2 17V4.998C2 4.5 2.5 3.998 3 3.998H4.999ZM7 10.998H5V13H7V10.998ZM11 10.998H9V13H11V10.998ZM13 10.998H15V13H13V10.998ZM5 14H7V16H5V14ZM9 14V16H11V14H9Z" class="svg-primary-fill" clip-rule="evenodd"/>
  </g>
</svg>
