<svg xmlns="http://www.w3.org/2000/svg" width="48" height="48" viewBox="0 0 48 48">
  <g class="neo-icon-kit--calendar-filled">
    <path fill="#006FCF" fill-rule="evenodd" d="M34.5 3C35.2794 3 35.9204 3.59473 35.9931 4.35551L36 4.5V6.00006H39C40.5911 6.00006 41.9032 7.25533 41.9949 8.82447L42 9.00006L42 33H41.9828C41.9619 33.2982 41.8643 33.5928 41.6692 33.8385L41.5635 33.957L30.957 44.5635C30.7289 44.7916 30.4443 44.9188 30.1486 44.9658L30 44.9828V44.9999H29.9119L29.8965 45.0029L29.8811 44.9999H9C7.40897 44.9999 6.09681 43.7447 6.00512 42.1755L6 41.9999V9.00006C6 7.40897 7.25533 6.09687 8.82441 6.00518L9 6.00006H12V4.5C12 3.67139 12.6719 3 13.5 3C14.2794 3 14.9204 3.59473 14.9931 4.35551L15 4.5V6.00006H33V4.5C33 3.67139 33.6719 3 34.5 3ZM38.2783 33.0001H30V41.2783L38.2783 33.0001ZM9 9.00006H12V10.5L12.0069 10.6445C12.0796 11.4053 12.7206 12 13.5 12C14.3281 12 15 11.3286 15 10.5V9.00006H33V10.5L33.0069 10.6445C33.0796 11.4053 33.7206 12 34.5 12C35.3281 12 36 11.3286 36 10.5V9.00006H39V15H9V9.00006Z" class="svg-primary-fill" clip-rule="evenodd"/>
  </g>
</svg>
