<svg xmlns="http://www.w3.org/2000/svg" width="48" height="48" viewBox="0 0 48 48">
  <g class="neo-icon-kit--calendar">
    <path fill="#006FCF" fill-rule="evenodd" d="M35.9931 4.35551C35.9204 3.59473 35.2794 3 34.5 3C33.6719 3 33 3.67139 33 4.5V6.00006H15V4.5L14.9931 4.35551C14.9204 3.59473 14.2794 3 13.5 3C12.6714 3 12 3.67139 12 4.5V6.00006H9L8.82441 6.00518C7.25533 6.09687 6 7.40897 6 9.00006V41.9999L6.00512 42.1755C6.09681 43.7447 7.40897 44.9999 9 44.9999H29.8811L29.8965 45.0029L29.9119 44.9999H30V44.9828L30.1486 44.9658C30.4443 44.9188 30.7289 44.7916 30.957 44.5635L41.5635 33.957L41.6692 33.8385C41.8643 33.5928 41.9619 33.2982 41.9828 33H42V9.00006L41.9949 8.82447C41.9032 7.25533 40.5911 6.00006 39 6.00006H36V4.5L35.9931 4.35551ZM9 18H39V30.0001H30L29.8244 30.0052C28.2553 30.0969 27 31.409 27 33.0001V41.9999H9V18ZM38.2783 33.0001H30V41.2783L38.2783 33.0001ZM9 9.00006H12V10.5L12.0069 10.6445C12.0795 11.4053 12.7201 12 13.5 12C14.3281 12 15 11.3286 15 10.5V9.00006H33V10.5L33.0069 10.6445C33.0796 11.4053 33.7206 12 34.5 12C35.3281 12 36 11.3286 36 10.5V9.00006H39V15H9V9.00006Z" class="svg-primary-fill" clip-rule="evenodd"/>
  </g>
</svg>
