<svg xmlns="http://www.w3.org/2000/svg" width="48" height="48" viewBox="0 0 48 48">
  <g class="neo-icon-kit--calm">
    <g fill="#006FCF" class="svg-primary-fill">
      <path d="M16.0607 18.4393C15.4749 17.8536 14.5251 17.8536 13.9393 18.4393 13.3536 19.0251 13.3536 19.9749 13.9393 20.5607 15.0015 21.6228 16.633 22 18 22 19.367 22 20.9985 21.6228 22.0607 20.5607 22.6464 19.9749 22.6464 19.0251 22.0607 18.4393 21.4749 17.8536 20.5251 17.8536 19.9393 18.4393 19.6682 18.7105 18.9663 19 18 19 17.0337 19 16.3318 18.7105 16.0607 18.4393zM15.4393 30.4393C16.0251 29.8536 16.9749 29.8536 17.5607 30.4393 20.9749 33.8536 27.0251 33.8536 30.4393 30.4393 31.0251 29.8536 31.9749 29.8536 32.5607 30.4393 33.1464 31.0251 33.1464 31.9749 32.5607 32.5607 27.9749 37.1464 20.0251 37.1464 15.4393 32.5607 14.8536 31.9749 14.8536 31.0251 15.4393 30.4393zM28.0607 18.4393C27.4749 17.8536 26.5251 17.8536 25.9393 18.4393 25.3536 19.0251 25.3536 19.9749 25.9393 20.5607 27.0015 21.6228 28.633 22 30 22 31.367 22 32.9985 21.6228 34.0607 20.5607 34.6464 19.9749 34.6464 19.0251 34.0607 18.4393 33.4749 17.8536 32.5251 17.8536 31.9393 18.4393 31.6682 18.7105 30.9663 19 30 19 29.0337 19 28.3318 18.7105 28.0607 18.4393z"/>
      <path fill-rule="evenodd" d="M45 24C45 35.598 35.598 45 24 45C12.402 45 3 35.598 3 24C3 12.402 12.402 3 24 3C35.598 3 45 12.402 45 24ZM42 24C42 33.9411 33.9411 42 24 42C14.0589 42 6 33.9411 6 24C6 14.0589 14.0589 6 24 6C33.9411 6 42 14.0589 42 24Z" clip-rule="evenodd"/>
    </g>
  </g>
</svg>
