<svg xmlns="http://www.w3.org/2000/svg" width="48" height="48" viewBox="0 0 48 48">
  <g class="neo-icon-kit--camera-filled">
    <path fill="#006FCF" fill-rule="evenodd" d="M13 12L14.9479 7.75C15.4367 6.6836 16.5021 6 17.6751 6H30.3251C31.4981 6 32.5635 6.68368 33.0523 7.75L35.0002 12H42.0002C43.6571 12 45.0002 13.3431 45.0002 15V39C45.0002 40.6569 43.6571 42 42.0002 42H6.00024C4.34334 42 3.00024 40.6569 3.00024 39V15C3.00024 13.3431 4.34334 12 6.00024 12H13ZM24 18C19.0294 18 15 22.0294 15 27C15 31.9706 19.0294 36 24 36C28.9706 36 33 31.9706 33 27C33 22.0294 28.9706 18 24 18ZM30 27C30 23.6863 27.3137 21 24 21C20.6863 21 18 23.6863 18 27C18 30.3137 20.6863 33 24 33C27.3137 33 30 30.3137 30 27Z" class="svg-primary-fill" clip-rule="evenodd"/>
  </g>
</svg>
