<svg xmlns="http://www.w3.org/2000/svg" width="48" height="48" viewBox="0 0 48 48">
  <g class="neo-icon-kit--camera">
    <path fill="#006FCF" fill-rule="evenodd" d="M17.6751 6C16.5021 6 15.4367 6.6836 14.9479 7.75L13.0002 12H6.00024C4.34334 12 3.00024 13.3431 3.00024 15V39C3.00024 40.6569 4.34334 42 6.00024 42H42.0002C43.6571 42 45.0002 40.6569 45.0002 39V15C45.0002 13.3431 43.6571 12 42.0002 12H35.0002L33.0523 7.75C32.5635 6.68368 31.4981 6 30.3251 6H17.6751ZM6.00004 15H15L17.7 9H30.3L33 15H42V39H6.00004V15ZM24 18C28.9706 18 33 22.0294 33 27C33 31.9706 28.9706 36 24 36C19.0294 36 15 31.9706 15 27C15 22.0294 19.0294 18 24 18ZM18 27C18 23.6863 20.6863 21 24 21C27.3137 21 30 23.6863 30 27C30 30.3137 27.3137 33 24 33C20.6863 33 18 30.3137 18 27Z" class="svg-primary-fill" clip-rule="evenodd"/>
  </g>
</svg>
