<svg xmlns="http://www.w3.org/2000/svg" width="48" height="48" viewBox="0 0 48 48">
  <g class="neo-icon-kit--cancel-circle-filled">
    <path fill="#006FCF" fill-rule="evenodd" d="M40.9705 7.02945C31.598 -2.34312 16.402 -2.34313 7.02943 7.02945C-2.34314 16.402 -2.34314 31.598 7.02943 40.9706C16.402 50.3431 31.598 50.3431 40.9705 40.9706C50.3431 31.598 50.3431 16.402 40.9705 7.02945ZM15.469 29.713L15.5858 29.5858L21.171 24L15.5858 18.4142L15.469 18.287C14.8437 17.5449 14.8437 16.4551 15.469 15.713L15.5858 15.5858L15.713 15.469C16.4551 14.8437 17.5449 14.8437 18.287 15.469L18.4142 15.5858L24 21.171L29.5858 15.5858L29.713 15.469C30.4551 14.8437 31.5449 14.8437 32.287 15.469L32.4142 15.5858L32.531 15.713C33.1563 16.4551 33.1563 17.5449 32.531 18.287L32.4142 18.4142L26.829 24L32.4142 29.5858L32.531 29.713C33.1563 30.4551 33.1563 31.5449 32.531 32.287L32.4142 32.4142L32.287 32.531C31.5449 33.1563 30.4551 33.1563 29.713 32.531L29.5858 32.4142L24 26.829L18.4142 32.4142L18.287 32.531C17.5885 33.1195 16.5821 33.1542 15.8474 32.6349L15.713 32.531L15.5858 32.4142L15.469 32.287C14.8437 31.5449 14.8437 30.4551 15.469 29.713Z" class="svg-primary-fill" clip-rule="evenodd"/>
  </g>
</svg>
