<svg xmlns="http://www.w3.org/2000/svg" width="48" height="48" viewBox="0 0 48 48">
  <g class="neo-icon-kit--cancel-circle">
    <path fill="#006FCF" fill-rule="evenodd" d="M0 24C0 10.7452 10.7452 0 24 0C37.2548 0 48 10.7452 48 24C48 37.2548 37.2548 48 24 48C10.7452 48 0 37.2548 0 24ZM3 24C3 35.5795 12.4205 45 24 45C35.5794 45 45 35.5795 45 24C45 12.4205 35.5794 3 24 3C12.4205 3 3 12.4205 3 24ZM15.5858 29.5858L15.469 29.713C14.8069 30.4988 14.8458 31.6743 15.5858 32.4142L15.713 32.531L15.8474 32.6349C16.6281 33.1866 17.7154 33.113 18.4142 32.4142L24 26.829L29.5858 32.4142L29.713 32.531C30.4988 33.1931 31.6743 33.1542 32.4142 32.4142L32.531 32.287C33.1931 31.5012 33.1542 30.3257 32.4142 29.5858L26.829 24L32.4142 18.4142L32.531 18.287C33.1931 17.5012 33.1542 16.3257 32.4142 15.5858L32.287 15.469C31.5012 14.8069 30.3257 14.8458 29.5858 15.5858L24 21.171L18.4142 15.5858L18.287 15.469C17.5012 14.8069 16.3257 14.8458 15.5858 15.5858L15.469 15.713C14.8069 16.4988 14.8458 17.6743 15.5858 18.4142L21.171 24L15.5858 29.5858Z" class="svg-primary-fill" clip-rule="evenodd"/>
  </g>
</svg>
