<svg xmlns="http://www.w3.org/2000/svg" width="48" height="48" viewBox="0 0 48 48">
  <g class="neo-icon-kit--captions-on-filled">
    <path fill="#006FCF" fill-rule="evenodd" d="M12.3566 41.4696C11.9871 41.8106 11.5028 42 11 42C9.89543 42 9 41.1046 9 40V33H6C4.34315 33 3 31.6569 3 30V9C3 7.34315 4.34315 6 6 6H42C43.6569 6 45 7.34315 45 9V30C45 31.6569 43.6569 33 42 33H22L12.3566 41.4696ZM10.5 24C9.67157 24 9 24.6716 9 25.5C9 26.3284 9.67157 27 10.5 27H16.5C17.3284 27 18 26.3284 18 25.5C18 24.6716 17.3284 24 16.5 24H10.5ZM9 19.5C9 18.6716 9.67157 18 10.5 18H24.5C25.3284 18 26 18.6716 26 19.5C26 20.3284 25.3284 21 24.5 21H10.5C9.67157 21 9 20.3284 9 19.5ZM22.5 24C21.6716 24 21 24.6716 21 25.5C21 26.3284 21.6716 27 22.5 27H36.5C37.3284 27 38 26.3284 38 25.5C38 24.6716 37.3284 24 36.5 24H22.5ZM29 19.5C29 18.6716 29.6716 18 30.5 18H36.5C37.3284 18 38 18.6716 38 19.5C38 20.3284 37.3284 21 36.5 21H30.5C29.6716 21 29 20.3284 29 19.5Z" class="svg-primary-fill" clip-rule="evenodd"/>
  </g>
</svg>
