<svg xmlns="http://www.w3.org/2000/svg" width="48" height="48" viewBox="0 0 48 48">
  <g class="neo-icon-kit--captions-on">
    <path fill="#006FCF" fill-rule="evenodd" d="M11 42C11.5028 42 11.9871 41.8106 12.3566 41.4696L22 33H42C43.6569 33 45 31.6569 45 30V9C45 7.34315 43.6569 6 42 6H6C4.34315 6 3 7.34315 3 9V30C3 31.6569 4.34315 33 6 33H9V40C9 41.1046 9.89543 42 11 42ZM20.827 30L12 38V30H6V9H42V30H20.827ZM10.5 24H16.5C17.3284 24 18 24.6716 18 25.5C18 26.3284 17.3284 27 16.5 27H10.5C9.67157 27 9 26.3284 9 25.5C9 24.6716 9.67157 24 10.5 24ZM24.5 18H10.5C9.67157 18 9 18.6716 9 19.5C9 20.3284 9.67157 21 10.5 21H24.5C25.3284 21 26 20.3284 26 19.5C26 18.6716 25.3284 18 24.5 18ZM22.5 24H36.5C37.3284 24 38 24.6716 38 25.5C38 26.3284 37.3284 27 36.5 27H22.5C21.6716 27 21 26.3284 21 25.5C21 24.6716 21.6716 24 22.5 24ZM36.5 18H30.5C29.6716 18 29 18.6716 29 19.5C29 20.3284 29.6716 21 30.5 21H36.5C37.3284 21 38 20.3284 38 19.5C38 18.6716 37.3284 18 36.5 18Z" class="svg-primary-fill" clip-rule="evenodd"/>
  </g>
</svg>
