<svg xmlns="http://www.w3.org/2000/svg" width="48" height="48" viewBox="0 0 48 48">
  <g class="neo-icon-kit--captions-off">
    <path fill="#006FCF" fill-rule="evenodd" d="M42 6H9L7.06066 4.06066C6.47487 3.47488 5.52513 3.47488 4.93934 4.06066C4.35355 4.64645 4.35355 5.5962 4.93934 6.18198L42.416 43.6586C43.0018 44.2444 43.9515 44.2444 44.5373 43.6586C45.1231 43.0729 45.1231 42.1231 44.5373 41.5373L36 33H42C43.6569 33 45 31.6569 45 30V9C45 7.34315 43.6569 6 42 6ZM42 30H33L30 27H36.5C37.3284 27 38 26.3284 38 25.5C38 24.6716 37.3284 24 36.5 24H27L24 21H24.5C25.3284 21 26 20.3284 26 19.5C26 18.6716 25.3284 18 24.5 18H21L12 9H42V30ZM10.5 24H16.5C17.3284 24 18 24.6716 18 25.5C18 26.3284 17.3284 27 16.5 27H10.5C9.67157 27 9 26.3284 9 25.5C9 24.6716 9.67157 24 10.5 24ZM12.8206 18H10.5C9.67157 18 9 18.6716 9 19.5C9 20.3284 9.67157 21 10.5 21H15.8914C15.1109 20.2529 14.7042 19.8471 14.3142 19.458C13.9212 19.0658 13.5451 18.6905 12.8206 18ZM30.5 18H36.5C37.3284 18 38 18.6716 38 19.5C38 20.3284 37.3284 21 36.5 21H30.5C29.6716 21 29 20.3284 29 19.5C29 18.6716 29.6716 18 30.5 18ZM25.9663 31.5323C25.9663 30.8913 25.5 30 24.5 30H20.827L12 38V30H6V18.5195C6.00095 18.4976 6.00143 18.4756 6.00143 18.4534V11.977C6.00143 11.1485 5.32986 10.477 4.50143 10.477C3.58953 10.477 3 11.1485 3 11.977V29.9654C3 31.6222 4.34315 33 6 33H9V40C9 41.1046 9.89543 42 11 42C11.5028 42 11.9871 41.8106 12.3566 41.4696L22 33H24.5C25.4455 33 25.9663 32.1732 25.9663 31.5323Z" class="svg-primary-fill" clip-rule="evenodd"/>
  </g>
</svg>
