<svg xmlns="http://www.w3.org/2000/svg" width="48" height="48" viewBox="0 0 48 48">
  <g class="neo-icon-kit--captions-off-filled">
    <path fill="#006FCF" fill-rule="evenodd" d="M42 6H8.99997L7.06063 4.06066C6.47484 3.47488 5.5251 3.47488 4.93931 4.06066C4.35352 4.64645 4.35352 5.5962 4.93931 6.18198L42.416 43.6586C43.0018 44.2444 43.9515 44.2444 44.5373 43.6586C45.1231 43.0729 45.1231 42.1231 44.5373 41.5373L36 33H42C43.6568 33 45 31.6569 45 30V9C45 7.34315 43.6568 6 42 6ZM36.5 27H30L27 24H36.5C37.3284 24 38 24.6716 38 25.5C38 26.3284 37.3284 27 36.5 27ZM24 21H24.5C25.3284 21 26 20.3284 26 19.5C26 18.6716 25.3284 18 24.5 18H21L24 21ZM29 19.5C29 18.6716 29.6715 18 30.5 18H36.5C37.3284 18 38 18.6716 38 19.5C38 20.3284 37.3284 21 36.5 21H30.5C29.6715 21 29 20.3284 29 19.5ZM10.5 18C9.67154 18 8.99997 18.6716 8.99997 19.5C8.99997 20.3284 9.67154 21 10.5 21H15.8914C17.2456 22.3234 18.5659 23.6111 19.775 24.7904C22.9914 27.9275 25.4214 30.2975 25.6123 30.5323C25.875 30.8553 25.9663 31.0968 25.9663 31.5653C25.9663 32.0339 25.6918 32.4747 25.3446 32.7196C24.9974 32.9645 24.7763 33 24.25 33H22L12.3565 41.4696C11.9871 41.8106 11.5028 42 11 42C9.8954 42 8.99997 41.1046 8.99997 40V33H5.99997C4.34312 33 2.99997 31.6222 2.99997 29.9654V12.0711C2.98948 11.9148 3.00334 11.7572 3.04162 11.6043C3.16182 11.0822 3.53581 10.6697 4.0794 10.529C4.56789 10.3881 5.11461 10.4998 5.51259 10.8666C5.51693 10.8706 8.85524 14.1272 12.8205 18H10.5ZM8.99997 25.5C8.99997 24.6716 9.67154 24 10.5 24H16.5C17.3284 24 18 24.6716 18 25.5C18 26.3284 17.3284 27 16.5 27H10.5C9.67154 27 8.99997 26.3284 8.99997 25.5Z" class="svg-primary-fill" clip-rule="evenodd"/>
  </g>
</svg>
