<svg xmlns="http://www.w3.org/2000/svg" width="48" height="48" viewBox="0 0 48 48">
  <g class="neo-icon-kit--car-filled">
    <path fill="#006FCF" fill-rule="evenodd" d="M32.001 6C35.0482 6.01987 37.1093 7.33197 37.9259 9.76141L41.001 17C41.4298 17.233 41.8664 17.5103 42.2859 17.8339L42.597 18.0854C42.9684 18.3629 43.8636 19.3382 43.9289 19.5425C44.5287 20.4162 44.94 21.4677 44.9948 22.711L45 37.5C45 39.9853 42.9853 42 40.5 42C38.0147 42 36 39.9853 36 37.5V36H12V37.5C12 39.9853 9.98528 42 7.5 42C5.01472 42 3 39.9853 3 37.5L3.001 23C3.01327 20.0806 4.95101 18.1779 6.80915 17.1077L7.001 17L10.001 10C10.772 7.46082 12.7097 6.10664 15.7076 6.00584L32.001 6ZM30.001 21H18.001C16.9466 21 16.0828 21.8159 16.0065 22.8507L16.001 23V28C16.001 29.0544 16.8169 29.9182 17.8517 29.9945L18.001 30H30.001C31.0554 30 31.9192 29.1841 31.9955 28.1493L32.001 28V23C32.001 21.9456 31.1851 21.0818 30.1503 21.0055L30.001 21ZM9.00098 26.009C8.99581 24.8982 9.89236 24.0037 11.0012 24C12.103 24.004 12.999 24.8984 13.001 26.009C12.999 27.1058 12.103 27.9997 11.0012 28C9.89266 27.9997 8.99612 27.1058 9.00098 26.009ZM37.0012 24C35.8924 24.0037 34.9958 24.8982 35.001 26.009C34.9961 27.1058 35.8927 27.9997 37.0012 28C38.103 27.9997 38.999 27.1058 39.001 26.009C38.999 24.8984 38.103 24.004 37.0012 24ZM16.0204 8.99994H32.001C33.867 9.01223 34.758 9.60634 35.123 10.8469L35.1733 11.0179L37.2423 15.8436C36.9984 15.7873 36.749 15.7336 36.4942 15.6824C31.9128 14.7618 27.749 14.3 24 14.3C20.251 14.3 16.0872 14.7618 11.5058 15.6824L10.763 15.836L12.8235 11.0298L12.8716 10.8717C13.2654 9.57472 14.1091 9.01232 16.0204 8.99994Z" class="svg-primary-fill" clip-rule="evenodd"/>
  </g>
</svg>
