<svg xmlns="http://www.w3.org/2000/svg" width="48" height="48" viewBox="0 0 48 48">
  <g class="neo-icon-kit--card-benefit" clip-path="url(#a)">
    <path fill="#006FCF" d="M31.793 4.66403L31.71 4.83903L29.322 10.249L23.692 10.947C21.654 11.199 20.596 13.247 21.142 15H3C2.20435 15 1.44129 15.3161 0.87868 15.8787C0.31607 16.4413 0 17.2044 0 18V39C0 39.7957 0.31607 40.5587 0.87868 41.1214C1.44129 41.684 2.20435 42 3 42H36C36.7957 42 37.5587 41.684 38.1213 41.1214C38.6839 40.5587 39 39.7957 39 39V29.323L39.43 29.575C41.632 30.863 44.21 29.035 44.002 26.612L43.984 26.449L43.954 26.273L42.834 20.377L47.044 16.311C48.821 14.594 47.989 11.571 45.664 11.011L45.494 10.975L45.307 10.945L39.677 10.247L37.287 4.83703C36.257 2.50703 33.122 2.39103 31.885 4.49203L31.791 4.66203L31.793 4.66403ZM3 24H25.478L25.044 26.273C24.574 28.747 27.044 30.74 29.264 29.733L29.412 29.661L29.57 29.574L34.5 26.69L36 27.567V39H3V24ZM9 27C8.20435 27 7.44129 27.3161 6.87868 27.8787C6.31607 28.4413 6 29.2044 6 30V33C6 33.7957 6.31607 34.5587 6.87868 35.1214C7.44129 35.684 8.20435 36 9 36H15C15.7956 36 16.5587 35.684 17.1213 35.1214C17.6839 34.5587 18 33.7957 18 33V30C18 29.2044 17.6839 28.4413 17.1213 27.8787C16.5587 27.3161 15.7956 27 15 27H9ZM9 30H15V33H9V30ZM34.5 6.00003L37.555 13.012L45.001 13.945L39.501 19.34L40.941 27L34.511 23.192L28.072 27L29.509 19.34L24 13.945L31.445 13.012L34.5 6.00003ZM3 18H23.706L26.166 20.377L26.046 21H3V18Z" class="svg-primary-fill"/>
  </g>
  <defs>
    <clipPath id="a" class="a">
      <path fill="#fff" d="M0 0H48V48H0z"/>
    </clipPath>
  </defs>
</svg>
