<svg xmlns="http://www.w3.org/2000/svg" width="48" height="48" viewBox="0 0 48 48">
  <g class="neo-icon-kit--cards-contactless-filled">
    <path fill="#006FCF" d="M45 6C45.7956 6 46.5587 6.31607 47.1213 6.87868C47.6839 7.44129 48 8.20435 48 9V33C48 33.7956 47.6839 34.5587 47.1213 35.1213C46.5587 35.6839 45.7956 36 45 36H42V39C42 39.7956 41.6839 40.5587 41.1213 41.1213C40.5587 41.6839 39.7956 42 39 42H3C2.20435 42 1.44129 41.6839 0.87868 41.1213C0.31607 40.5587 0 39.7956 0 39L0 15C0 14.2044 0.31607 13.4413 0.87868 12.8787C1.44129 12.3161 2.20435 12 3 12H6V9C6 8.20435 6.31607 7.44129 6.87868 6.87868C7.44129 6.31607 8.20435 6 9 6H45ZM15 26H8C7.49526 25.9999 7.00914 26.1906 6.63913 26.5339C6.26913 26.8772 6.0426 27.3477 6.005 27.851L6 28V31C5.99986 31.5047 6.19056 31.9909 6.53386 32.3609C6.87716 32.7309 7.34767 32.9574 7.851 32.995L8 33H15C15.5047 33.0001 15.9909 32.8094 16.3609 32.4661C16.7309 32.1228 16.9574 31.6523 16.995 31.149L17 31V28C17.0001 27.4953 16.8094 27.0091 16.4661 26.6391C16.1228 26.2691 15.6523 26.0426 15.149 26.005L15 26ZM45 9H9V12H39C39.7956 12 40.5587 12.3161 41.1213 12.8787C41.6839 13.4413 42 14.2044 42 15V33H45V9ZM31.854 18.197C31.5728 18.4783 31.4148 18.8598 31.4148 19.2575C31.4148 19.6552 31.5728 20.0367 31.854 20.318C32.2719 20.7359 32.6033 21.2319 32.8295 21.7779C33.0556 22.3239 33.172 22.909 33.172 23.5C33.172 24.091 33.0556 24.6761 32.8295 25.2221C32.6033 25.7681 32.2719 26.2641 31.854 26.682C31.7107 26.8204 31.5965 26.9859 31.5178 27.1689C31.4392 27.3519 31.3979 27.5487 31.3961 27.7479C31.3944 27.9471 31.4323 28.1446 31.5078 28.3289C31.5832 28.5133 31.6946 28.6808 31.8354 28.8216C31.9762 28.9624 32.1437 29.0738 32.3281 29.1492C32.5124 29.2247 32.7099 29.2626 32.9091 29.2609C33.1083 29.2591 33.3051 29.2178 33.4881 29.1392C33.6711 29.0605 33.8366 28.9463 33.975 28.803C34.6715 28.1066 35.224 27.2797 35.6009 26.3698C35.9779 25.4598 36.1719 24.4845 36.1719 23.4995C36.1719 22.5145 35.9779 21.5392 35.6009 20.6292C35.224 19.7193 34.6715 18.8924 33.975 18.196C33.6937 17.9148 33.3122 17.7568 32.9145 17.7568C32.5168 17.7568 32.1353 17.9148 31.854 18.196V18.197ZM26.904 20.317C26.6415 20.5795 26.4857 20.93 26.4667 21.3007C26.4477 21.6714 26.5668 22.036 26.801 22.324L27.001 22.544C27.2212 22.8113 27.3421 23.1466 27.3432 23.4929C27.3443 23.8393 27.2255 24.1753 27.007 24.444L26.807 24.664C26.5615 24.9614 26.44 25.3419 26.4677 25.7266C26.4954 26.1112 26.6702 26.4704 26.9557 26.7296C27.2413 26.9887 27.6157 27.128 28.0012 27.1184C28.3867 27.1088 28.7537 26.9511 29.026 26.678C29.4439 26.2601 29.7753 25.7641 30.0015 25.2181C30.2276 24.6721 30.344 24.087 30.344 23.496C30.344 22.905 30.2276 22.3199 30.0015 21.7739C29.7753 21.2279 29.4439 20.7319 29.026 20.314C28.7447 20.0328 28.3632 19.8748 27.9655 19.8748C27.5678 19.8748 27.1863 20.0328 26.905 20.314L26.904 20.317Z" class="svg-primary-fill"/>
  </g>
</svg>
