<svg xmlns="http://www.w3.org/2000/svg" width="48" height="48" viewBox="0 0 48 48">
  <g class="neo-icon-kit--card-contactless-filled">
    <path fill="#006FCF" d="M45 6C45.7956 6 46.5587 6.31607 47.1213 6.87868C47.6839 7.44129 48 8.20435 48 9V39C48 39.7956 47.6839 40.5587 47.1213 41.1213C46.5587 41.6839 45.7956 42 45 42H3C2.20435 42 1.44129 41.6839 0.87868 41.1213C0.31607 40.5587 0 39.7956 0 39L0 9C0 8.20435 0.31607 7.44129 0.87868 6.87868C1.44129 6.31607 2.20435 6 3 6H45ZM15 25H8C7.49526 24.9999 7.00914 25.1906 6.63913 25.5339C6.26913 25.8772 6.0426 26.3477 6.005 26.851L6 27V30C5.99986 30.5047 6.19056 30.9909 6.53386 31.3609C6.87716 31.7309 7.34767 31.9574 7.851 31.995L8 32H15C15.5047 32.0001 15.9909 31.8094 16.3609 31.4661C16.7309 31.1228 16.9574 30.6523 16.995 30.149L17 30V27C17.0001 26.4953 16.8094 26.0091 16.4661 25.6391C16.1228 25.2691 15.6523 25.0426 15.149 25.005L15 25ZM36.226 12.527C35.952 12.8436 35.8112 13.2541 35.8332 13.6723C35.8552 14.0905 36.0382 14.4839 36.344 14.77C37.949 16.254 38.916 18.532 38.916 21.015C38.916 23.483 37.961 25.75 36.371 27.235C36.0674 27.523 35.8869 27.9172 35.8671 28.3352C35.8474 28.7532 35.9899 29.1627 36.265 29.478C36.3984 29.632 36.5616 29.7574 36.7448 29.8466C36.9279 29.9359 37.1273 29.9871 37.3307 29.9973C37.5342 30.0075 37.7377 29.9764 37.9288 29.9059C38.12 29.8354 38.2949 29.7269 38.443 29.587C40.684 27.495 42 24.37 42 21.016C42 17.64 40.667 14.499 38.404 12.406C38.2551 12.2668 38.0796 12.1592 37.888 12.0897C37.6964 12.0202 37.4927 11.9902 37.2892 12.0015C37.0857 12.0128 36.8866 12.0652 36.7038 12.1555C36.5211 12.2458 36.3586 12.3722 36.226 12.527ZM31.426 15.281C31.2913 15.4107 31.1841 15.5662 31.1109 15.7383C31.0376 15.9104 30.9999 16.0955 30.9999 16.2825C30.9999 16.4695 31.0376 16.6546 31.1109 16.8267C31.1841 16.9988 31.2913 17.1543 31.426 17.284C31.9258 17.7645 32.3235 18.3411 32.5951 18.979C32.8667 19.6169 33.0067 20.3031 33.0067 20.9965C33.0067 21.6899 32.8667 22.3761 32.5951 23.014C32.3235 23.6519 31.9258 24.2285 31.426 24.709C31.2913 24.8387 31.1841 24.9942 31.1109 25.1663C31.0376 25.3384 30.9999 25.5235 30.9999 25.7105C30.9999 25.8975 31.0376 26.0826 31.1109 26.2547C31.1841 26.4268 31.2913 26.5823 31.426 26.712C31.996 27.265 32.916 27.265 33.486 26.712C34.2555 25.9721 34.8676 25.0844 35.2858 24.1022C35.7039 23.12 35.9194 22.0635 35.9194 20.996C35.9194 19.9285 35.7039 18.872 35.2858 17.8898C34.8676 16.9076 34.2555 16.0199 33.486 15.28C33.2092 15.0138 32.84 14.8651 32.456 14.8651C32.072 14.8651 31.7028 15.0138 31.426 15.28V15.281Z" class="svg-primary-fill"/>
  </g>
</svg>
