<svg xmlns="http://www.w3.org/2000/svg" width="48" height="48" viewBox="0 0 48 48">
  <g class="neo-icon-kit--cards">
    <path fill="#006FCF" d="M45 6C45.7956 6 46.5587 6.31607 47.1213 6.87868C47.6839 7.44129 48 8.20435 48 9V33C48 33.7956 47.6839 34.5587 47.1213 35.1213C46.5587 35.6839 45.7956 36 45 36H42V39C42 39.7956 41.6839 40.5587 41.1213 41.1213C40.5587 41.6839 39.7956 42 39 42H3C2.20435 42 1.44129 41.6839 0.87868 41.1213C0.31607 40.5587 0 39.7956 0 39L0 15C0 14.2044 0.31607 13.4413 0.87868 12.8787C1.44129 12.3161 2.20435 12 3 12H6V9C6 8.20435 6.31607 7.44129 6.87868 6.87868C7.44129 6.31607 8.20435 6 9 6H45ZM39 21H3V39H39V21ZM15 25C15.7956 25 16.5587 25.3161 17.1213 25.8787C17.6839 26.4413 18 27.2044 18 28V31C18 31.7956 17.6839 32.5587 17.1213 33.1213C16.5587 33.6839 15.7956 34 15 34H9C8.20435 34 7.44129 33.6839 6.87868 33.1213C6.31607 32.5587 6 31.7956 6 31V28C6 27.2044 6.31607 26.4413 6.87868 25.8787C7.44129 25.3161 8.20435 25 9 25H15ZM45 9H9V12H39C39.7956 12 40.5587 12.3161 41.1213 12.8787C41.6839 13.4413 42 14.2044 42 15V33H45V9ZM15 28H9V31H15V28ZM39 15H3V18H39V15Z" class="svg-primary-fill"/>
  </g>
</svg>
