<svg xmlns="http://www.w3.org/2000/svg" width="48" height="48" viewBox="0 0 48 48">
  <g class="neo-icon-kit--card">
    <path fill="#006FCF" d="M45 6C45.7956 6 46.5587 6.31607 47.1213 6.87868C47.6839 7.44129 48 8.20435 48 9V39C48 39.7956 47.6839 40.5587 47.1213 41.1213C46.5587 41.6839 45.7956 42 45 42H3C2.20435 42 1.44129 41.6839 0.87868 41.1213C0.31607 40.5587 0 39.7956 0 39L0 9C0 8.20435 0.31607 7.44129 0.87868 6.87868C1.44129 6.31607 2.20435 6 3 6H45ZM45 18H3V39H45V18ZM15 24C15.7956 24 16.5587 24.3161 17.1213 24.8787C17.6839 25.4413 18 26.2044 18 27V30C18 30.7956 17.6839 31.5587 17.1213 32.1213C16.5587 32.6839 15.7956 33 15 33H9C8.20435 33 7.44129 32.6839 6.87868 32.1213C6.31607 31.5587 6 30.7956 6 30V27C6 26.2044 6.31607 25.4413 6.87868 24.8787C7.44129 24.3161 8.20435 24 9 24H15ZM15 27H9V30H15V27ZM45 9H3V15H45V9Z" class="svg-primary-fill"/>
  </g>
</svg>
