<svg xmlns="http://www.w3.org/2000/svg" width="48" height="48" viewBox="0 0 48 48">
  <g class="neo-icon-kit--card-insert-filled" clip-path="url(#a)">
    <path fill="#006FCF" d="M27 0C28.663 0 30 1.38 30 3V12.208L30.571 12.486L34.388 14.684L35.75 15.488L36.293 15.818L36.985 16.252L37.308 16.465L37.719 16.751C38.999 17.678 40.178 18.642 41.145 19.589C42.305 20.774 43.16 22.41 43.395 23.999L43.586 25.652L43.621 26.022L43.921 29.68L43.992 30.449L44.041 30.906L44.155 31.823C44.293 32.846 44.687 33.803 45.335 34.729L45.571 35.075L45.983 35.7L46.463 36.454L46.64 36.734L47.335 37.861C47.9084 38.7987 48.121 39.9129 47.9331 40.9958C47.7452 42.0787 47.1697 43.0563 46.314 43.746L45.185 44.647L44.235 45.389L43.827 45.701L43.297 46.095C40.995 47.763 38.413 48.348 35.663 47.802C33.278 47.322 31.305 46.102 29.873 44.192L29.455 43.612C28.637 42.501 27.511 41.283 25.616 39.43L24.756 38.595L22.232 36H6C4.337 36 3 34.62 3 33V3C3 1.38 4.337 0 6 0H27ZM29.991 15.632L30 19.366L30.05 19.405C30.275 19.581 30.72 19.867 31.386 20.25L31.813 20.492L33.319 21.329L33.68 21.542L34.171 21.855C34.588 22.135 34.906 22.394 35.153 22.68C36.233 23.935 36.451 25.147 36.281 27.07C36.063 29.079 35.286 30.73 33.823 31.969C32.282 33.259 30.575 33.201 29.074 31.859L27.808 30.716L23.152 26.462C21.965 25.392 20.991 25.09 19.806 25.739C18.731 26.327 18.591 27.61 19.23 28.525L19.423 28.8L19.659 29.118L19.913 29.443C20.616 30.319 21.552 31.307 23.059 32.783L24.126 33.82L26.88 36.455L27.782 37.332L28.422 37.963L29.006 38.55C30.216 39.779 31.066 40.736 31.76 41.659L31.894 41.839L32.142 42.186C33.138 43.613 34.509 44.494 36.254 44.845C38.171 45.225 39.902 44.833 41.53 43.655L41.865 43.406L42.251 43.114L42.923 42.594L44.427 41.397C44.6919 41.1833 44.8768 40.8864 44.9518 40.5544C45.0268 40.2224 44.9874 39.8748 44.84 39.568L44.768 39.437L43.943 38.103L43.604 37.57L43.304 37.105L43.167 36.898L42.663 36.154C41.868 34.934 41.361 33.63 41.171 32.229L41.091 31.612L41.022 30.998L40.956 30.335L40.923 29.969L40.687 27.041L40.595 26.003L40.505 25.146L40.413 24.422C40.278 23.504 39.725 22.444 39.019 21.722C38.285 21.005 37.359 20.234 36.341 19.477L35.955 19.194C35.474 18.845 34.645 18.33 33.408 17.603L32.853 17.278L29.993 15.632H29.991ZM30 22.99V28.728L31.169 29.688C31.406 29.895 31.496 29.938 31.666 29.828L31.734 29.781L31.883 29.661C32.706 28.963 33.147 28.028 33.283 26.774C33.385 25.614 33.301 25.148 32.87 24.648L32.795 24.578L32.656 24.472L32.458 24.335L32.107 24.113L31.858 23.966L30 22.99ZM15 6H12C10.996 6 10.165 6.74 10.017 7.833L10 8V15C10 16.004 10.74 16.835 11.833 16.983L12 17H15C16.004 17 16.835 16.26 16.983 15.167L17 15V8C17 6.946 16.184 6.082 15 6Z" class="svg-primary-fill"/>
  </g>
  <defs>
    <clipPath id="a" class="a">
      <path fill="#fff" d="M0 0H48V48H0z"/>
    </clipPath>
  </defs>
</svg>
