<svg xmlns="http://www.w3.org/2000/svg" width="48" height="48" viewBox="0 0 48 48">
  <g class="neo-icon-kit--card-swipe">
    <path fill="#006FCF" fill-rule="evenodd" d="M30.9949 2.82441C30.9032 1.25527 29.5911 0 28 0H8L7.82373 0.00509269C6.24892 0.0963391 5 1.40232 5 3V30C5 31.6569 6.34315 33 8 33H17.28L17.3168 33.3169C17.6647 36.1889 18.4818 39.585 20.8872 41.7705L20.9158 41.7961L21.3481 42.1622C21.5642 42.3528 21.7039 42.4995 21.7647 42.6006V44.3672L21.7693 44.536C21.8593 46.1749 23.2385 48 25 48H40L40.176 47.9949C41.7487 47.9035 43 46.5952 43 45V22.0464L43.0034 21.9669C43.014 20.8834 42.3226 17.2038 33.9836 10.9766L33.2499 10.4367L32.5095 9.90653L31.7625 9.38543L31 8.86633V3L30.9949 2.82441ZM31 30V12.5134L31.3621 12.7729C37.7911 17.4119 39.4406 20.3139 39.8605 21.4299L39.9023 21.5465L39.9484 21.6939L39.9941 21.8892C39.9897 21.9077 39.9905 21.9106 39.9927 21.9183C39.9954 21.9274 40 21.9433 40 22V45H25.1123L25.0455 44.9356C24.9093 44.784 24.7663 44.5103 24.7646 44.3672V42.5L24.754 42.268C24.6491 41.1283 23.7923 40.299 23.2234 39.8155L22.9033 39.5488L22.6978 39.3517C21.3643 38.001 20.7504 35.9403 20.43 33.9183L20.3423 33.3137L20.3027 33L20.2494 32.5309C20.1995 32.0653 20.1598 31.6111 20.1263 31.1793L20 29.4262V22L20.0069 21.8557C20.0797 21.096 20.7215 20.5 21.5 20.5C22.3271 20.5 23 21.1729 23 22L24 33H28L28.1756 32.9949C29.7447 32.9032 31 31.591 31 30ZM28 3H14V30H17V22C17 19.5186 19.0186 17.5 21.5 17.5C23.9105 17.5 25.8843 19.4049 25.9951 21.7885L26 22L26.7273 30H28V3ZM8 3H11V30H8V3Z" class="svg-primary-fill" clip-rule="evenodd"/>
  </g>
</svg>
