<svg xmlns="http://www.w3.org/2000/svg" width="48" height="48" viewBox="0 0 48 48">
  <g class="neo-icon-kit--card-swipe-filled">
    <path fill="#006FCF" fill-rule="evenodd" d="M11 33V0H8L7.82373 0.00509269C6.24892 0.0963391 5 1.40232 5 3V30C5 31.6569 6.34315 33 8 33H11ZM28 0C29.5911 0 30.9032 1.25527 30.9949 2.82441L31 3V8.86633L31.7625 9.38543L32.5095 9.90653L33.2499 10.4367L33.9836 10.9766C42.3226 17.2038 43.014 20.8834 43.0036 21.9669L43 22.0464V45C43 46.5952 41.7487 47.9035 40.176 47.9949L40 48H25C23.2385 48 21.8593 46.1749 21.7693 44.536L21.7647 44.3672V42.6006C21.7039 42.4995 21.5642 42.3528 21.3481 42.1622L20.9158 41.7961L20.8872 41.7705C18.4818 39.585 17.6647 36.1889 17.3168 33.3169L17.28 33H14V0H28ZM31 12.5134V30C31 31.591 29.7447 32.9032 28.1756 32.9949L28 33H24L23 22C23 21.1729 22.3271 20.5 21.5 20.5C20.7215 20.5 20.0797 21.096 20.0069 21.8557L20 22V29.4262L20.1263 31.1793C20.1598 31.6111 20.1995 32.0653 20.2494 32.5309L20.3027 33L20.3423 33.3137L20.43 33.9183C20.7504 35.9403 21.3643 38.001 22.6978 39.3517L22.9033 39.5488L23.2234 39.8155C23.7923 40.299 24.6491 41.1283 24.754 42.268L24.7646 42.5V44.3672C24.7663 44.5103 24.9093 44.784 25.0455 44.9356L25.1123 45H40V22C40 21.9433 39.9954 21.9274 39.9927 21.9183C39.9905 21.9106 39.9897 21.9077 39.9941 21.8892L39.9484 21.6939L39.9023 21.5465L39.8605 21.4299C39.4406 20.3139 37.7911 17.4119 31.3621 12.7729L31 12.5134Z" class="svg-primary-fill" clip-rule="evenodd"/>
  </g>
</svg>
