<svg xmlns="http://www.w3.org/2000/svg" width="48" height="48" viewBox="0 0 48 48">
  <g class="neo-icon-kit--cards-contactless">
    <path fill="#006FCF" d="M45 6C45.7956 6 46.5587 6.31607 47.1213 6.87868C47.6839 7.44129 48 8.20435 48 9V33C48 33.7956 47.6839 34.5587 47.1213 35.1213C46.5587 35.6839 45.7956 36 45 36H42V39C42 39.7956 41.6839 40.5587 41.1213 41.1213C40.5587 41.6839 39.7956 42 39 42H3C2.20435 42 1.44129 41.6839 0.87868 41.1213C0.31607 40.5587 0 39.7956 0 39L0 15C0 14.2044 0.31607 13.4413 0.87868 12.8787C1.44129 12.3161 2.20435 12 3 12H6V9C6 8.20435 6.31607 7.44129 6.87868 6.87868C7.44129 6.31607 8.20435 6 9 6H45ZM39 15H3V39H39V15ZM15 25C15.7956 25 16.5587 25.3161 17.1213 25.8787C17.6839 26.4413 18 27.2044 18 28V31C18 31.7956 17.6839 32.5587 17.1213 33.1213C16.5587 33.6839 15.7956 34 15 34H9C8.20435 34 7.44129 33.6839 6.87868 33.1213C6.31607 32.5587 6 31.7956 6 31V28C6 27.2044 6.31607 26.4413 6.87868 25.8787C7.44129 25.3161 8.20435 25 9 25H15ZM45 9H9V12H39C39.7956 12 40.5587 12.3161 41.1213 12.8787C41.6839 13.4413 42 14.2044 42 15V33H45V9ZM15 28H9V31H15V28ZM33.975 18.197C34.6715 18.8934 35.224 19.7203 35.6009 20.6302C35.9779 21.5402 36.1719 22.5155 36.1719 23.5005C36.1719 24.4855 35.9779 25.4608 35.6009 26.3708C35.224 27.2807 34.6715 28.1076 33.975 28.804C33.6921 29.0772 33.3132 29.2284 32.9199 29.225C32.5266 29.2216 32.1504 29.0638 31.8723 28.7857C31.5942 28.5076 31.4364 28.1314 31.433 27.7381C31.4296 27.3448 31.5808 26.9659 31.854 26.683C32.2719 26.2651 32.6033 25.7691 32.8295 25.2231C33.0556 24.6771 33.172 24.092 33.172 23.501C33.172 22.91 33.0556 22.3249 32.8295 21.7789C32.6033 21.2329 32.2719 20.7369 31.854 20.319C31.7107 20.1806 31.5965 20.0151 31.5178 19.8321C31.4392 19.6491 31.3979 19.4523 31.3961 19.2531C31.3944 19.0539 31.4323 18.8564 31.5078 18.6721C31.5832 18.4877 31.6946 18.3202 31.8354 18.1794C31.9762 18.0386 32.1437 17.9272 32.3281 17.8518C32.5124 17.7763 32.7099 17.7384 32.9091 17.7401C33.1083 17.7419 33.3051 17.7832 33.4881 17.8618C33.6711 17.9405 33.8366 18.0537 33.975 18.197ZM29.025 20.317C29.4429 20.7349 29.7743 21.2309 30.0005 21.7769C30.2266 22.3229 30.343 22.908 30.343 23.499C30.343 24.09 30.2266 24.6751 30.0005 25.2211C29.7743 25.7671 29.4429 26.2631 29.025 26.681C28.7527 26.9541 28.3857 27.1118 28.0002 27.1214C27.6147 27.131 27.2403 26.9917 26.9547 26.7326C26.6692 26.4734 26.4944 26.1142 26.4667 25.7296C26.439 25.3449 26.5605 24.9644 26.806 24.667L26.903 24.56C27.1665 24.2964 27.3224 23.9441 27.3404 23.5717C27.3583 23.1994 27.237 22.8337 27 22.546L26.903 22.439C26.6298 22.1561 26.4786 21.7772 26.482 21.3839C26.4854 20.9906 26.6432 20.6144 26.9213 20.3363C27.1994 20.0582 27.5756 19.9004 27.9689 19.897C28.3622 19.8936 28.7411 20.0448 29.024 20.318L29.025 20.317Z" class="svg-primary-fill"/>
  </g>
</svg>
