<svg xmlns="http://www.w3.org/2000/svg" width="48" height="48" viewBox="0 0 48 48">
  <g class="neo-icon-kit--card-benefit-filled" clip-path="url(#a)">
    <path fill="#006FCF" d="M31.793 4.66403L31.71 4.83903L29.322 10.249L23.692 10.947C21.654 11.199 20.596 13.247 21.142 15H3C2.20435 15 1.44129 15.3161 0.87868 15.8787C0.31607 16.4413 0 17.2044 0 18L0 21H26.048L25.478 24H0V39C0 39.7957 0.31607 40.5587 0.87868 41.1214C1.44129 41.684 2.20435 42 3 42H36C36.7956 42 37.5587 41.684 38.1213 41.1214C38.6839 40.5587 39 39.7957 39 39V29.323L39.43 29.575C41.632 30.863 44.21 29.035 44.002 26.612L43.984 26.449L43.954 26.273L42.834 20.377L47.044 16.311C48.821 14.594 47.989 11.571 45.664 11.011L45.494 10.975L45.307 10.945L39.677 10.247L37.287 4.83703C36.257 2.50703 33.122 2.39103 31.885 4.49203L31.791 4.66203L31.793 4.66403ZM8 28H15C15.5047 27.9999 15.9909 28.1906 16.3609 28.5339C16.7309 28.8772 16.9574 29.3477 16.995 29.851L17 30V33C17.0001 33.5048 16.8094 33.9909 16.4661 34.3609C16.1228 34.7309 15.6523 34.9574 15.149 34.995L15 35H8C7.49526 35.0002 7.00914 34.8095 6.63913 34.4662C6.26913 34.1229 6.0426 33.6524 6.005 33.149L6 33V30C6 29.4696 6.21071 28.9609 6.58579 28.5858C6.96086 28.2107 7.46957 28 8 28ZM34.5 6.00003L37.555 13.012L45.001 13.945L39.501 19.34L40.941 27L34.511 23.192L28.072 27L29.509 19.34L24 13.945L31.445 13.012L34.5 6.00003Z" class="svg-primary-fill"/>
  </g>
  <defs>
    <clipPath id="a" class="a">
      <path fill="#fff" d="M0 0H48V48H0z"/>
    </clipPath>
  </defs>
</svg>
