<svg xmlns="http://www.w3.org/2000/svg" width="48" height="48" viewBox="0 0 48 48">
  <g class="neo-icon-kit--card-filled">
    <path fill="#006FCF" d="M48 18V39C48 39.7956 47.6839 40.5587 47.1213 41.1213C46.5587 41.6839 45.7956 42 45 42H3C2.20435 42 1.44129 41.6839 0.87868 41.1213C0.31607 40.5587 0 39.7956 0 39L0 18H48ZM15 25H8C7.49526 24.9999 7.00914 25.1906 6.63913 25.5339C6.26913 25.8772 6.0426 26.3477 6.005 26.851L6 27V30C5.99986 30.5047 6.19056 30.9909 6.53386 31.3609C6.87716 31.7309 7.34767 31.9574 7.851 31.995L8 32H15C15.5047 32.0001 15.9909 31.8094 16.3609 31.4661C16.7309 31.1228 16.9574 30.6523 16.995 30.149L17 30V27C17.0001 26.4953 16.8094 26.0091 16.4661 25.6391C16.1228 25.2691 15.6523 25.0426 15.149 25.005L15 25ZM45 6C45.7956 6 46.5587 6.31607 47.1213 6.87868C47.6839 7.44129 48 8.20435 48 9V15H0V9C0 8.20435 0.31607 7.44129 0.87868 6.87868C1.44129 6.31607 2.20435 6 3 6H45Z" class="svg-primary-fill"/>
  </g>
</svg>
