<svg xmlns="http://www.w3.org/2000/svg" width="48" height="48" viewBox="0 0 48 48">
  <g class="neo-icon-kit--card-contactless">
    <path fill="#006FCF" d="M45 6C45.7956 6 46.5587 6.31607 47.1213 6.87868C47.6839 7.44129 48 8.20435 48 9V39C48 39.7956 47.6839 40.5587 47.1213 41.1213C46.5587 41.6839 45.7956 42 45 42H3C2.20435 42 1.44129 41.6839 0.87868 41.1213C0.31607 40.5587 0 39.7956 0 39L0 9C0 8.20435 0.31607 7.44129 0.87868 6.87868C1.44129 6.31607 2.20435 6 3 6H45ZM45 9H3V39H45V9ZM15 24C15.7956 24 16.5587 24.3161 17.1213 24.8787C17.6839 25.4413 18 26.2044 18 27V30C18 30.7956 17.6839 31.5587 17.1213 32.1213C16.5587 32.6839 15.7956 33 15 33H9C8.20435 33 7.44129 32.6839 6.87868 32.1213C6.31607 31.5587 6 30.7956 6 30V27C6 26.2044 6.31607 25.4413 6.87868 24.8787C7.44129 24.3161 8.20435 24 9 24H15ZM15 27H9V30H15V27ZM38.404 12.406C40.667 14.5 42 17.64 42 21.016C42 24.372 40.684 27.496 38.443 29.588C38.2949 29.7279 38.12 29.8364 37.9288 29.9069C37.7377 29.9774 37.5342 30.0085 37.3307 29.9983C37.1273 29.9881 36.9279 29.9369 36.7448 29.8476C36.5616 29.7584 36.3984 29.633 36.265 29.479C35.9897 29.1638 35.847 28.7542 35.8667 28.3362C35.8865 27.9181 36.0672 27.5239 36.371 27.236C37.971 25.751 38.916 23.484 38.916 21.016C38.916 18.533 37.949 16.256 36.344 14.771C36.0387 14.4846 35.8559 14.0913 35.8339 13.6732C35.8119 13.2552 35.9524 12.8448 36.226 12.528C36.3586 12.3732 36.5211 12.2468 36.7038 12.1565C36.8866 12.0662 37.0857 12.0138 37.2892 12.0025C37.4927 11.9912 37.6964 12.0212 37.888 12.0907C38.0796 12.1602 38.2551 12.2668 38.404 12.406ZM33.487 15.281C34.2565 16.0209 34.8686 16.9086 35.2868 17.8908C35.7049 18.873 35.9204 19.9295 35.9204 20.997C35.9204 22.0645 35.7049 23.121 35.2868 24.1032C34.8686 25.0854 34.2565 25.9731 33.487 26.713C32.917 27.266 31.997 27.266 31.427 26.713C31.2923 26.5833 31.1851 26.4278 31.1119 26.2557C31.0386 26.0836 31.0009 25.8985 31.0009 25.7115C31.0009 25.5245 31.0386 25.3394 31.1119 25.1673C31.1851 24.9952 31.2923 24.8397 31.427 24.71C31.9268 24.2295 32.3245 23.6529 32.5961 23.015C32.8677 22.3771 33.0077 21.6909 33.0077 20.9975C33.0077 20.3041 32.8677 19.6179 32.5961 18.98C32.3245 18.3421 31.9268 17.7655 31.427 17.285C31.2923 17.1553 31.1851 16.9998 31.1119 16.8277C31.0386 16.6556 31.0009 16.4705 31.0009 16.2835C31.0009 16.0965 31.0386 15.9114 31.1119 15.7393C31.1851 15.5672 31.2923 15.4117 31.427 15.282C31.7038 15.0158 32.073 14.8671 32.457 14.8671C32.841 14.8671 33.2102 15.0148 33.487 15.281Z" class="svg-primary-fill"/>
  </g>
</svg>
