<svg xmlns="http://www.w3.org/2000/svg" width="48" height="48" viewBox="0 0 48 48">
  <g class="neo-icon-kit--card-tap-filled" clip-path="url(#a)">
    <path fill="#006FCF" d="M27 0C28.663 0 30 1.38 30 3V12.208L30.57 12.486L34.387 14.684L35.749 15.488L36.292 15.818L36.982 16.253L37.306 16.466L37.716 16.752C38.996 17.679 40.176 18.642 41.142 19.59C42.302 20.775 43.156 22.412 43.392 23.99L43.584 25.644L43.619 26.014L43.919 29.671L43.991 30.441L44.041 30.898L44.155 31.815C44.295 32.838 44.687 33.795 45.335 34.721L45.571 35.066L45.983 35.691L46.463 36.446L46.639 36.726L47.335 37.852C47.9085 38.7896 48.1212 39.9037 47.9336 40.9866C47.7459 42.0695 47.1706 43.0471 46.315 43.737L45.187 44.637L44.237 45.379L43.297 46.085C40.995 47.753 38.413 48.337 35.664 47.791C33.278 47.311 31.306 46.091 29.864 44.191L29.446 43.611C28.628 42.501 27.501 41.283 25.606 39.431L24.746 38.596L22.232 36H6C4.337 36 3 34.62 3 33V3C3 1.38 4.337 0 6 0H27ZM29.99 15.632L30 19.366L30.05 19.406C30.276 19.582 30.72 19.868 31.387 20.251L31.813 20.491L33.32 21.328L33.68 21.541L34.17 21.854C34.587 22.134 34.905 22.394 35.15 22.679C36.23 23.933 36.448 25.145 36.278 27.079C36.06 29.089 35.283 30.739 33.82 31.979C32.28 33.269 30.572 33.211 29.07 31.879L27.804 30.737L23.148 26.483C21.961 25.413 20.988 25.111 19.802 25.759C18.727 26.347 18.587 27.629 19.226 28.545L19.42 28.82L19.656 29.138C20.388 30.098 21.36 31.142 23.056 32.803L24.123 33.839L26.876 36.474L27.779 37.351L28.419 37.981C29.947 39.501 30.955 40.611 31.756 41.677L31.89 41.857L32.138 42.203C33.135 43.63 34.505 44.511 36.251 44.863C38.168 45.243 39.899 44.853 41.527 43.663L41.863 43.415L42.249 43.123L42.921 42.603L44.425 41.406C44.6899 41.1923 44.8748 40.8954 44.9498 40.5634C45.0248 40.2314 44.9854 39.8838 44.838 39.577L44.766 39.447L43.94 38.114L43.602 37.581L43.302 37.116L43.166 36.909L42.662 36.165C41.868 34.945 41.362 33.641 41.172 32.239L41.092 31.623L41.022 31.009L40.956 30.346L40.923 29.98L40.687 27.052L40.595 26.014L40.505 25.157L40.415 24.433C40.279 23.515 39.725 22.455 39.021 21.733C38.287 21.015 37.361 20.245 36.343 19.487L35.957 19.204C35.477 18.856 34.657 18.34 33.41 17.614L32.855 17.289L29.995 15.643L29.99 15.632ZM30 22.992V28.73L31.17 29.69C31.407 29.897 31.498 29.94 31.667 29.83L31.735 29.782L31.885 29.662C32.708 28.965 33.149 28.029 33.285 26.775C33.387 25.615 33.303 25.149 32.873 24.649L32.798 24.579L32.658 24.473L32.46 24.336L32.11 24.114L31.86 23.967L30 22.99V22.992ZM17.925 15.147C17.5071 14.7291 17.0111 14.3977 16.4651 14.1715C15.9191 13.9454 15.334 13.829 14.743 13.829C14.152 13.829 13.5669 13.9454 13.0209 14.1715C12.4749 14.3977 11.9789 14.7291 11.561 15.147C11.2901 15.4191 11.1339 15.7847 11.1245 16.1685C11.1151 16.5523 11.2533 16.9251 11.5105 17.2102C11.7677 17.4952 12.1244 17.6707 12.5072 17.7007C12.89 17.7306 13.2696 17.6126 13.568 17.371L13.788 17.171C14.0553 16.9508 14.3906 16.8299 14.7369 16.8288C15.0833 16.8277 15.4193 16.9465 15.688 17.165L15.908 17.365C16.2054 17.6105 16.5859 17.732 16.9706 17.7043C17.3552 17.6766 17.7144 17.5018 17.9736 17.2163C18.2327 16.9307 18.372 16.5563 18.3624 16.1708C18.3528 15.7853 18.1951 15.4183 17.922 15.146L17.925 15.147ZM20.045 10.197C19.3486 9.5005 18.5217 8.948 17.6118 8.57106C16.7018 8.19411 15.7265 8.0001 14.7415 8.0001C13.7565 8.0001 12.7812 8.19411 11.8712 8.57106C10.9613 8.948 10.1344 9.5005 9.438 10.197C9.29473 10.3354 9.18046 10.5009 9.10185 10.6839C9.02323 10.8669 8.98186 11.0637 8.98012 11.2629C8.97839 11.4621 9.01635 11.6596 9.09177 11.8439C9.16719 12.0283 9.27857 12.1958 9.41941 12.3366C9.56025 12.4774 9.72772 12.5888 9.91207 12.6642C10.0964 12.7397 10.2939 12.7776 10.4931 12.7759C10.6923 12.7741 10.8891 12.7328 11.0721 12.6542C11.2551 12.5755 11.4206 12.4613 11.559 12.318C11.9769 11.9001 12.4729 11.5687 13.0189 11.3425C13.5649 11.1164 14.15 11 14.741 11C15.332 11 15.9171 11.1164 16.4631 11.3425C17.0091 11.5687 17.5051 11.9001 17.923 12.318C18.0614 12.4613 18.2269 12.5755 18.4099 12.6542C18.5929 12.7328 18.7897 12.7741 18.9889 12.7759C19.1881 12.7776 19.3856 12.7397 19.5699 12.6642C19.7543 12.5888 19.9218 12.4774 20.0626 12.3366C20.2034 12.1958 20.3148 12.0283 20.3902 11.8439C20.4657 11.6596 20.5036 11.4621 20.5019 11.2629C20.5001 11.0637 20.4588 10.8669 20.3802 10.6839C20.3015 10.5009 20.1883 10.3354 20.045 10.197Z" class="svg-primary-fill"/>
  </g>
  <defs>
    <clipPath id="a" class="a">
      <path fill="#fff" d="M0 0H48V48H0z"/>
    </clipPath>
  </defs>
</svg>
