<svg xmlns="http://www.w3.org/2000/svg" width="48" height="48" viewBox="0 0 48 48">
  <g class="neo-icon-kit--cards-filled">
    <path fill="#006FCF" d="M45 6C45.7956 6 46.5587 6.31607 47.1213 6.87868C47.6839 7.44129 48 8.20435 48 9V33C48 33.7956 47.6839 34.5587 47.1213 35.1213C46.5587 35.6839 45.7956 36 45 36H42V39C42 39.7956 41.6839 40.5587 41.1213 41.1213C40.5587 41.6839 39.7956 42 39 42H3C2.20435 42 1.44129 41.6839 0.87868 41.1213C0.31607 40.5587 0 39.7956 0 39L0 21H42V33H45V9H9V12H39C39.7956 12 40.5587 12.3161 41.1213 12.8787C41.6839 13.4413 42 14.2044 42 15V18H0V15C0 14.2044 0.31607 13.4413 0.87868 12.8787C1.44129 12.3161 2.20435 12 3 12H6V9C6 8.20435 6.31607 7.44129 6.87868 6.87868C7.44129 6.31607 8.20435 6 9 6H45ZM15 26H8C7.49526 25.9999 7.00914 26.1906 6.63913 26.5339C6.26913 26.8772 6.0426 27.3477 6.005 27.851L6 28V31C5.99986 31.5047 6.19056 31.9909 6.53386 32.3609C6.87716 32.7309 7.34767 32.9574 7.851 32.995L8 33H15C15.5047 33.0001 15.9909 32.8094 16.3609 32.4661C16.7309 32.1228 16.9574 31.6523 16.995 31.149L17 31V28C17.0001 27.4953 16.8094 27.0091 16.4661 26.6391C16.1228 26.2691 15.6523 26.0426 15.149 26.005L15 26Z" class="svg-primary-fill"/>
  </g>
</svg>
