<svg xmlns="http://www.w3.org/2000/svg" width="48" height="48" viewBox="0 0 48 48">
  <g class="neo-icon-kit--card-insert" clip-path="url(#a)">
    <path fill="#006FCF" d="M27 0C28.663 0 30 1.38 30 3V12.208L30.57 12.486L34.387 14.684L35.749 15.488L36.292 15.818L36.982 16.253L37.306 16.466L37.716 16.752C38.996 17.679 40.176 18.642 41.142 19.59C42.302 20.775 43.156 22.412 43.392 23.99L43.584 25.644L43.619 26.014L43.919 29.671L43.991 30.441L44.041 30.898L44.155 31.815C44.295 32.838 44.687 33.795 45.335 34.721L45.571 35.066L45.983 35.691L46.463 36.446L46.639 36.726L47.335 37.852C47.9085 38.7896 48.1212 39.9037 47.9336 40.9866C47.7459 42.0695 47.1706 43.0471 46.315 43.737L45.187 44.637L44.237 45.379L43.297 46.085C40.995 47.753 38.413 48.337 35.664 47.791C33.278 47.311 31.306 46.091 29.864 44.191L29.446 43.611C28.628 42.501 27.501 41.283 25.606 39.431L24.746 38.596L22.232 36H6C4.337 36 3 34.62 3 33V3C3 1.38 4.337 0 6 0H27ZM29.99 15.632L30 19.366L30.05 19.406C30.276 19.582 30.72 19.868 31.387 20.251L31.813 20.491L33.32 21.328L33.68 21.541L34.17 21.854C34.587 22.134 34.905 22.394 35.15 22.679C36.23 23.933 36.448 25.145 36.278 27.079C36.06 29.089 35.283 30.739 33.82 31.979C32.28 33.269 30.572 33.211 29.07 31.879L27.804 30.737L23.148 26.483C21.961 25.413 20.988 25.111 19.802 25.759C18.727 26.347 18.587 27.629 19.226 28.545L19.42 28.82L19.656 29.138C20.388 30.098 21.36 31.142 23.056 32.803L24.123 33.839L26.876 36.474L27.779 37.351L28.419 37.981C29.947 39.501 30.955 40.611 31.756 41.677L31.89 41.857L32.138 42.203C33.135 43.63 34.505 44.511 36.251 44.863C38.168 45.243 39.899 44.853 41.527 43.663L41.863 43.415L42.249 43.123L42.921 42.603L44.425 41.406C44.6899 41.1923 44.8748 40.8954 44.9498 40.5634C45.0248 40.2314 44.9854 39.8838 44.838 39.577L44.766 39.447L43.94 38.114L43.602 37.581L43.302 37.116L43.166 36.909L42.662 36.165C41.868 34.945 41.362 33.641 41.172 32.239L41.092 31.623L41.022 31.009L40.956 30.346L40.923 29.98L40.687 27.052L40.595 26.014L40.505 25.157L40.415 24.433C40.279 23.515 39.725 22.455 39.021 21.733C38.287 21.015 37.361 20.245 36.343 19.487L35.957 19.204C35.477 18.856 34.657 18.34 33.41 17.614L32.855 17.289L29.995 15.643L29.99 15.632ZM27 3H6V33H19C18.3249 32.3043 17.7009 31.5607 17.133 30.775L16.955 30.53L16.755 30.243C15.178 27.986 15.555 24.643 18.362 23.093C20.906 21.701 23.138 22.39 25.178 24.233L27.095 26L27 3ZM30 22.99V28.728L31.17 29.688C31.407 29.895 31.498 29.938 31.667 29.828L31.735 29.78L31.885 29.66C32.708 28.963 33.149 28.027 33.285 26.773C33.387 25.613 33.303 25.147 32.873 24.647L32.798 24.577L32.658 24.471L32.46 24.334L32.11 24.112L31.86 23.965L30 22.99ZM15.43 6L15.622 6.006C16.895 6.086 17.91 6.951 17.996 8.033L18.002 8.183V15.819L17.995 15.982C17.901 17.062 16.881 17.922 15.605 17.996L15.43 18H11.57L11.378 17.994C10.105 17.914 9.09 17.049 9.004 15.967L9 15.818V8.182L9.007 8.019C9.101 6.939 10.121 6.079 11.397 6.005L11.57 6H15.427H15.43ZM15 9H12V15H15V9Z" class="svg-primary-fill"/>
  </g>
  <defs>
    <clipPath id="a" class="a">
      <path fill="#fff" d="M0 0H48V48H0z"/>
    </clipPath>
  </defs>
</svg>
