<svg xmlns="http://www.w3.org/2000/svg" width="48" height="48" viewBox="0 0 48 48">
  <g class="neo-icon-kit--cart-filled">
    <path fill="#006FCF" fill-rule="evenodd" d="M9.43517 4.06357C9.24513 3.43723 8.66548 3 8 3L4.35554 3.00687C3.5 3 3 3.7203 3 4.5C3 5.32843 3.67157 6 4.5 6H6.77475L12.0648 31.9364C12.2549 32.5628 12.8345 33 13.5 33H40.5L40.6445 32.9931C41.4051 32.9204 42 32.2797 42 31.5C42 30.6716 41.3284 30 40.5 30H14.7252L14.113 27H40.1311C40.8057 27 41.3925 26.5119 41.5508 25.8192L44.9585 10.9049C45.1803 9.93418 44.4841 9 43.5388 9H10.442L9.43517 4.06357ZM16.5 36C18.985 36 21 38.015 21 40.5C21 42.985 18.985 45 16.5 45C14.015 45 12 42.985 12 40.5C12 38.015 14.015 36 16.5 36ZM37.5 36C39.986 36 42 38.015 42 40.5C42 42.985 39.986 45 37.5 45C35.015 45 33 42.985 33 40.5C33 38.015 35.015 36 37.5 36ZM15 40.5C15 39.673 15.673 39 16.5 39C17.327 39 18 39.673 18 40.5C18 41.327 17.327 42 16.5 42C15.673 42 15 41.327 15 40.5ZM37.5 39C36.673 39 36 39.673 36 40.5C36 41.327 36.673 42 37.5 42C38.328 42 39 41.327 39 40.5C39 39.673 38.328 39 37.5 39Z" class="svg-primary-fill" clip-rule="evenodd"/>
  </g>
</svg>
