<svg xmlns="http://www.w3.org/2000/svg" width="48" height="48" viewBox="0 0 48 48">
  <g class="neo-icon-kit--cart">
    <path fill="#006FCF" fill-rule="evenodd" d="M8 3C8.66548 3 9.24513 3.43723 9.43517 4.06357L10.442 9H43.5388C44.4841 9 45.1803 9.93418 44.9585 10.9049L41.5508 25.8192C41.3925 26.5119 40.8057 27 40.1311 27H14.113L14.7252 30H40.5C41.3284 30 42 30.6716 42 31.5C42 32.2797 41.4051 32.9204 40.6445 32.9931L40.5 33H13.5C12.8345 33 12.2549 32.5628 12.0648 31.9364L6.77475 6H4.5C3.67157 6 3 5.32843 3 4.5C3 3.7203 3.5 3 4.35554 3.00687L8 3ZM21 40.5C21 38.015 18.985 36 16.5 36C14.015 36 12 38.015 12 40.5C12 42.985 14.015 45 16.5 45C18.985 45 21 42.985 21 40.5ZM42 40.5C42 38.015 39.986 36 37.5 36C35.015 36 33 38.015 33 40.5C33 42.985 35.015 45 37.5 45C39.986 45 42 42.985 42 40.5ZM16.5 39C15.673 39 15 39.673 15 40.5C15 41.327 15.673 42 16.5 42C17.327 42 18 41.327 18 40.5C18 39.673 17.327 39 16.5 39ZM36 40.5C36 39.673 36.673 39 37.5 39C38.328 39 39 39.673 39 40.5C39 41.327 38.328 42 37.5 42C36.673 42 36 41.327 36 40.5ZM11.054 12H41.5L38.791 24H13.501L11.054 12Z" class="svg-primary-fill" clip-rule="evenodd"/>
  </g>
</svg>
