<svg xmlns="http://www.w3.org/2000/svg" width="48" height="48" viewBox="0 0 48 48">
  <g class="neo-icon-kit--cd-filled">
    <path fill="#006FCF" d="M24 0C28.874 0 32.856 3.895 32.996 8.737L33 15.992H39C39.7645 15.9943 40.4995 16.2875 41.0557 16.812C41.6119 17.3365 41.9478 18.053 41.995 18.816L42 45C41.9977 45.7645 41.7045 46.4995 41.18 47.0557C40.6555 47.6119 39.939 47.9478 39.176 47.995L9 48C8.2355 47.9977 7.50053 47.7045 6.94429 47.18C6.38806 46.6555 6.05224 45.939 6.005 45.176L6 18.992C6.00235 18.2275 6.29552 17.4925 6.81999 16.9363C7.34447 16.3801 8.06095 16.0442 8.824 15.997L15 15.992V8.992C15 4.038 19.038 0 24 0ZM24 3C20.767 3 18.123 5.573 18.004 8.78L18 16H30V9.006C29.9989 7.41447 29.3667 5.88835 28.2418 4.7624C27.117 3.63646 25.5915 3.00265 24 3ZM29.5 35.008C29.51 31.947 26.666 31.054 24.59 30.401C22.797 29.838 21.997 29.496 21.989 28.983C21.991 28.331 22.869 28.113 23.247 28.05C24.483 27.841 26.03 28.292 26.376 29.289C26.5067 29.6646 26.7812 29.973 27.1392 30.1462C27.4972 30.3195 27.9093 30.3435 28.285 30.213C28.4711 30.1482 28.6427 30.0474 28.7898 29.9162C28.9369 29.7851 29.0568 29.6262 29.1425 29.4488C29.2282 29.2713 29.2781 29.0787 29.2894 28.8819C29.3006 28.6851 29.273 28.4881 29.208 28.302C28.627 26.631 27.173 25.628 25.562 25.218V24.5C25.562 24.1022 25.404 23.7206 25.1227 23.4393C24.8414 23.158 24.4598 23 24.062 23C23.6642 23 23.2826 23.158 23.0013 23.4393C22.72 23.7206 22.562 24.1022 22.562 24.5V25.135C20.394 25.571 18.995 27.056 18.99 29C19.03 31.8 21.724 32.647 23.691 33.265C25.767 33.917 26.503 34.276 26.501 34.997C26.499 35.605 25.332 35.972 24.169 35.993C24.133 35.99 24.099 35.982 24.062 35.982C24.033 35.982 24.006 35.989 23.977 35.991C22.821 35.957 21.694 35.243 21.438 34.363C21.3835 34.1736 21.2921 33.9969 21.1692 33.843C21.0462 33.689 20.894 33.5609 20.7214 33.4659C20.5487 33.371 20.359 33.3111 20.1631 33.2896C19.9673 33.2682 19.7691 33.2856 19.58 33.341C19.3908 33.396 19.2143 33.4878 19.0606 33.6111C18.9069 33.7344 18.779 33.8867 18.6842 34.0595C18.5893 34.2322 18.5295 34.4219 18.508 34.6178C18.4865 34.8137 18.5039 35.0118 18.559 35.201C19.121 37.138 20.811 38.347 22.562 38.795V39.499C22.562 39.696 22.6008 39.891 22.6762 40.073C22.7516 40.255 22.8621 40.4204 23.0013 40.5597C23.1406 40.6989 23.306 40.8094 23.488 40.8848C23.67 40.9602 23.865 40.999 24.062 40.999C24.259 40.999 24.454 40.9602 24.636 40.8848C24.818 40.8094 24.9834 40.6989 25.1227 40.5597C25.2619 40.4204 25.3724 40.255 25.4478 40.073C25.5232 39.891 25.562 39.696 25.562 39.499V38.857C27.955 38.434 29.494 37.001 29.5 35.006V35.008Z" class="svg-primary-fill"/>
  </g>
</svg>
