<svg xmlns="http://www.w3.org/2000/svg" width="48" height="48" viewBox="0 0 48 48">
  <g class="neo-icon-kit--cd">
    <path fill="#006FCF" d="M24 0C28.874 0 32.856 3.895 32.996 8.737L33 15.992H39C39.7645 15.9943 40.4995 16.2875 41.0557 16.812C41.6119 17.3365 41.9478 18.053 41.995 18.816L42 45C41.9977 45.7645 41.7045 46.4995 41.18 47.0557C40.6555 47.6119 39.939 47.9478 39.176 47.995L9 48C8.2355 47.9977 7.50053 47.7045 6.94429 47.18C6.38806 46.6555 6.05224 45.939 6.005 45.176L6 18.992C6.00235 18.2275 6.29552 17.4925 6.81999 16.9363C7.34447 16.3801 8.06095 16.0442 8.824 15.997L15 15.992V8.992C15 4.038 19.038 0 24 0ZM39 19H9V45H39V19ZM24.062 23C24.4349 23 24.7944 23.1389 25.0704 23.3896C25.3464 23.6403 25.5192 23.9848 25.555 24.356L25.562 24.5V25.218C27.172 25.628 28.626 26.631 29.208 28.302C29.3323 28.6652 29.3126 29.0622 29.153 29.4113C28.9934 29.7604 28.7061 30.035 28.3501 30.1786C27.9941 30.3223 27.5967 30.324 27.2395 30.1834C26.8823 30.0429 26.5926 29.7707 26.43 29.423L26.376 29.289C26.03 28.292 24.483 27.841 23.247 28.05L23.072 28.084C22.65 28.179 21.99 28.418 21.988 28.983C21.993 29.309 22.319 29.567 23.017 29.856L23.339 29.982L23.518 30.047L23.91 30.182L25.284 30.623L25.825 30.81L26.006 30.877L26.368 31.02C27.993 31.694 29.505 32.773 29.498 35.007C29.492 36.933 28.058 38.335 25.805 38.81L25.56 38.857V39.499C25.5598 39.8842 25.4114 40.2546 25.1456 40.5334C24.8798 40.8122 24.5169 40.978 24.1321 40.9965C23.7473 41.015 23.3702 40.8848 23.0788 40.6328C22.7874 40.3808 22.6042 40.0264 22.567 39.643L22.56 39.499V38.795C20.809 38.347 19.12 37.138 18.557 35.201C18.5019 35.0118 18.4845 34.8137 18.506 34.6178C18.5275 34.4219 18.5873 34.2322 18.6822 34.0595C18.777 33.8867 18.9049 33.7344 19.0586 33.6111C19.2123 33.4878 19.3888 33.396 19.578 33.341C19.9359 33.2363 20.3199 33.269 20.6549 33.4327C20.9899 33.5964 21.2517 33.8793 21.389 34.226L21.436 34.363C21.691 35.243 22.819 35.957 23.975 35.991L24.06 35.982C24.097 35.982 24.131 35.99 24.167 35.993C25.33 35.972 26.497 35.604 26.499 34.997C26.5 34.564 26.236 34.262 25.576 33.948L25.291 33.822L25.132 33.758L24.78 33.626L24.381 33.488L23.155 33.095L22.786 32.972L22.412 32.839L22.038 32.694C20.483 32.062 19.019 31.059 18.989 29C18.994 27.123 20.298 25.673 22.34 25.184L22.562 25.135V24.5C22.562 24.1022 22.72 23.7206 23.0013 23.4393C23.2826 23.158 23.6642 23 24.062 23ZM24 3C20.767 3 18.123 5.573 18.004 8.78L18 16H30V9.006C29.9989 7.41447 29.3667 5.88835 28.2418 4.7624C27.117 3.63646 25.5915 3.00265 24 3Z" class="svg-primary-fill"/>
  </g>
</svg>
