<svg xmlns="http://www.w3.org/2000/svg" width="48" height="48" viewBox="0 0 48 48">
  <g class="neo-icon-kit--change">
    <path fill="#006FCF" fill-rule="evenodd" d="M31.96 2.33665C31.371 1.8556 30.5018 1.89034 29.9519 2.43925C29.3658 3.02525 29.3658 3.97584 29.9514 4.56282L35.879 10.4985L8.35579 10.5054C7.59484 10.5781 7 11.2193 7 11.9999C7 12.8293 7.67152 13.5013 8.50031 13.5013H35.879L29.8485 19.5512C29.3681 20.1414 29.4024 21.0113 29.9519 21.5606C30.2449 21.8534 30.6288 22 31.0126 22C31.3965 22 31.7809 21.8534 32.0739 21.5601L40.6639 12.9474C41.112 12.3967 41.1121 11.6027 40.6639 11.0527L31.96 2.33665ZM18.1516 28.4487C18.6319 27.8584 18.5976 26.9886 18.0481 26.4393C17.4621 25.8537 16.5122 25.8533 15.9261 26.4397L7.33604 35.0528C6.85591 35.6423 6.89031 36.5114 7.43905 37.0615L16.0401 45.6632C16.3151 45.8877 16.6511 46 16.9874 46C17.3713 46 17.7551 45.8534 18.0481 45.5606C18.6342 44.9746 18.6342 44.024 18.0486 43.4371L12.121 37.5013L39.6442 37.4945C40.4052 37.4217 41 36.7805 41 35.9999C41 35.1706 40.3285 34.4985 39.4997 34.4985H12.121L18.1516 28.4487Z" class="svg-primary-fill" clip-rule="evenodd"/>
  </g>
</svg>
