<svg xmlns="http://www.w3.org/2000/svg" width="48" height="48" viewBox="0 0 48 48">
  <g class="neo-icon-kit--change-filled">
    <path fill="#006FCF" fill-rule="evenodd" d="M33.0214 1.27677L32.9089 1.17493C31.721 0.20473 29.9842 0.287626 28.8922 1.37769C27.7198 2.55 27.7195 4.4494 28.8895 5.62225L32.2621 8.99948L8.35545 9.00545L8.2131 9.01225C6.67901 9.15889 5.50004 10.4497 5.50004 12C5.50004 13.6575 6.84289 15.0014 8.50035 15.0014H32.2659L28.7861 18.4923L28.6851 18.6044C27.7172 19.7938 27.8003 21.5304 28.8913 22.6214C29.4611 23.1907 30.2238 23.5 31.0127 23.5C31.8021 23.5 32.5655 23.1903 33.135 22.6204L41.726 14.0067L41.8273 13.8943C42.7243 12.7921 42.7244 11.207 41.8269 10.1053L41.7254 9.99279L33.0214 1.27677ZM19.2399 25.5182L19.1083 25.3781C17.9362 24.2071 16.0367 24.2071 14.8651 25.3795L6.27401 33.9936L6.17309 34.1055C5.20519 35.2938 5.28806 37.0292 6.37716 38.1209L14.9794 46.7239L15.0916 46.8253C15.6311 47.2657 16.3008 47.5 16.9874 47.5C17.7763 47.5 18.539 47.1907 19.1083 46.6218C20.2803 45.45 20.2806 43.5506 19.1106 42.3777L15.738 39.0005L39.6446 38.9945L39.787 38.9877C41.3211 38.8411 42.5 37.5502 42.5 36C42.5 34.3424 41.1572 32.9986 39.4997 32.9986H15.7342L19.214 29.5077L19.315 29.3955C20.2426 28.2558 20.2049 26.6133 19.2399 25.5182Z" class="svg-primary-fill" clip-rule="evenodd"/>
  </g>
</svg>
