<svg xmlns="http://www.w3.org/2000/svg" width="48" height="48" viewBox="0 0 48 48">
  <g class="neo-icon-kit--chat">
    <path fill="#006FCF" fill-rule="evenodd" d="M6 3H36C37.5911 3 38.9032 4.25527 38.9949 5.82441L39 6V9H42C43.5911 9 44.9032 10.2553 44.9949 11.8244L45 12V33C45 34.591 43.7447 35.9032 42.1756 35.9949L42 36H39V43.5C39 44.1064 38.6348 44.6533 38.0742 44.8857C37.8887 44.9629 37.6934 45 37.5 45C37.1591 45 36.8226 44.8834 36.5515 44.6619L36.4395 44.5606L27.8789 36H12C10.4089 36 9.09681 34.7447 9.00512 33.1756L9 33V30H6C4.40891 30 3.09681 28.7447 3.00512 27.1756L3 27V6C3 4.40891 4.25527 3.09681 5.82441 3.00512L6 3ZM42 12H12V33H29.1094L36 39.8789V33H42V12ZM6 6H36V9H12L11.8244 9.00512C10.2553 9.09681 9 10.4089 9 12V27H6V6Z" class="svg-primary-fill" clip-rule="evenodd"/>
  </g>
</svg>
