<svg xmlns="http://www.w3.org/2000/svg" width="48" height="48" viewBox="0 0 48 48">
  <g class="neo-icon-kit--chat-filled">
    <path fill="#006FCF" fill-rule="evenodd" d="M36 3H6L5.82441 3.00512C4.25527 3.09681 3 4.40891 3 6V27L3.00512 27.1756C3.09681 28.7447 4.40891 30 6 30H9V33L9.00512 33.1756C9.09681 34.7447 10.4089 36 12 36H27.8789L36.4395 44.5606L36.5515 44.6619C36.8226 44.8834 37.1591 45 37.5 45C37.6934 45 37.8887 44.9629 38.0742 44.8857C38.6348 44.6533 39 44.1064 39 43.5V36H42L42.1756 35.9949C43.7447 35.9032 45 34.591 45 33V12L44.9949 11.8244C44.9032 10.2553 43.5911 9 42 9H39V6L38.9949 5.82441C38.9032 4.25527 37.5911 3 36 3ZM6 6H36V9H12L11.8244 9.00512C10.2553 9.09681 9 10.4089 9 12V27H6V6Z" class="svg-primary-fill" clip-rule="evenodd"/>
  </g>
</svg>
