<svg xmlns="http://www.w3.org/2000/svg" width="48" height="48" viewBox="0 0 48 48">
  <g class="neo-icon-kit--cheapest-blue">
    <path fill="#006FCF" fill-rule="evenodd" d="M25.5 9.999H32.25C33.18 9.999 33.939 10.785 33.939 11.751C33.947 12.2069 33.7735 12.6474 33.4568 12.9754C33.14 13.3034 32.7059 13.4921 32.25 13.5H25.5V22.251H28.032C32.226 22.251 35.625 25.776 35.625 30.126C35.625 34.476 32.226 38.001 28.032 38.001H25.5V43.251C25.5167 44.1993 24.7622 44.9819 23.814 45C23.358 44.9921 22.9239 44.8034 22.6072 44.4754C22.2904 44.1474 22.1169 43.7069 22.125 43.251V38.001H13.686C13.23 37.9923 12.7962 37.8029 12.48 37.4743C12.1638 37.1457 11.9911 36.7049 12 36.249C12 35.283 12.756 34.5 13.689 34.5H22.125V25.749H19.593C15.399 25.749 12 22.224 12 17.874C12 13.524 15.399 9.999 19.593 9.999H22.125V4.749C22.125 3.783 22.881 3 23.814 3C24.744 3 25.5 3.783 25.5 4.749V9.999ZM25.5 25.749V34.5H28.032C30.36 34.5 32.25 32.541 32.25 30.126C32.25 27.708 30.36 25.749 28.032 25.749H25.5ZM22.125 13.5V22.251H19.593C17.265 22.251 15.375 20.292 15.375 17.874C15.375 15.459 17.265 13.5 19.593 13.5H22.125Z" class="svg-primary-fill" clip-rule="evenodd"/>
  </g>
</svg>
