<svg xmlns="http://www.w3.org/2000/svg" width="48" height="48" viewBox="0 0 48 48">
  <g class="neo-icon-kit--checkin-priority">
    <g fill="#006FCF" class="svg-primary-fill">
      <path d="M15 20.5C15 19.672 14.328 19 13.5 19 12.672 19 12 19.672 12 20.5 12 21.328 12.672 22 13.5 22 14.328 22 15 21.328 15 20.5ZM15 26.5C15 25.672 14.328 25 13.5 25 12.672 25 12 25.672 12 26.5 12 27.328 12.672 28 13.5 28 14.328 28 15 27.328 15 26.5ZM33.379 18.504C33.929 17.884 34.877 17.829 35.497 18.379 36.116 18.929 36.172 19.877 35.621 20.497L27.621 29.497C27.036 30.154 26.014 30.17 25.41 29.53L21.41 25.295C20.841 24.692 20.868 23.743 21.47 23.174 22.072 22.605 23.022 22.633 23.591 23.235L26.467 26.28 33.379 18.504Z"/>
      <path fill-rule="evenodd" d="M6 10C4.34315 10 3 11.3431 3 13V20.5C4.65685 20.5 6 21.8431 6 23.5C6 25.1569 4.65685 26.5 3 26.5L3.00002 34C3.00003 35.6569 4.34318 37 6.00003 37H42C43.6568 37 45 35.6569 45 34V26.5C43.3431 26.5 42 25.1569 42 23.5C42 21.8431 43.3431 20.5 45 20.5V13C45 11.3431 43.6568 10 42 10H6ZM12 13H5.99995V18.3027C7.79338 19.3401 9 21.2791 9 23.5C9 25.7209 7.79338 27.6599 5.99995 28.6973V34H12L12 32.5C11.9999 31.6716 12.6715 31 13.5 31C14.3284 31 15 31.6716 15 32.5V34H42V28.6973C40.2066 27.6599 39 25.7208 39 23.5C39 21.2792 40.2066 19.3401 42 18.3027V13H15V14.485C15 15.3075 14.3375 15.9767 13.5149 15.9849C12.6807 15.9932 12 15.3192 12 14.485V13Z" clip-rule="evenodd"/>
    </g>
  </g>
</svg>
