<svg xmlns="http://www.w3.org/2000/svg" width="48" height="48" viewBox="0 0 48 48">
  <g class="neo-icon-kit--check-banking-filled" clip-path="url(#a)">
    <path fill="#006FCF" d="M45 10.5C45.7652 10.5 46.5015 10.7923 47.0583 11.3173C47.615 11.8422 47.9501 12.5601 47.995 13.324L48 13.5V34.5C48 35.2652 47.7077 36.0015 47.1827 36.5583C46.6578 37.115 45.9399 37.4501 45.176 37.495L45 37.5H3C2.23479 37.5 1.49849 37.2077 0.941739 36.6827C0.384993 36.1578 0.0498924 35.4399 0.005 34.676L4.66045e-09 34.5V13.5C-4.26217e-05 12.7348 0.292325 11.9985 0.817284 11.4417C1.34224 10.885 2.06011 10.5499 2.824 10.505L3 10.5H45ZM23.5 28.5H7.5C7.11478 28.5002 6.74441 28.6486 6.46561 28.9144C6.18682 29.1802 6.02099 29.5431 6.00248 29.9279C5.98396 30.3127 6.11419 30.6898 6.36618 30.9812C6.61816 31.2726 6.97258 31.4558 7.356 31.493L7.5 31.5H23.5C23.8852 31.4998 24.2556 31.3514 24.5344 31.0856C24.8132 30.8198 24.979 30.4569 24.9975 30.0721C25.016 29.6873 24.8858 29.3102 24.6338 29.0188C24.3818 28.7274 24.0274 28.5442 23.644 28.507L23.5 28.5ZM41.561 25.939C41.2985 25.6765 40.948 25.5207 40.5773 25.5017C40.2066 25.4827 39.842 25.6018 39.554 25.836L39.44 25.939L37.501 27.878L35.597 25.975L35.479 25.869C35.2025 25.644 34.857 25.5211 34.5005 25.5211C34.144 25.5211 33.7985 25.644 33.522 25.869L33.404 25.975L30.439 28.94L30.336 29.054C30.1184 29.3215 29.9997 29.6557 29.9997 30.0005C29.9997 30.3453 30.1184 30.6795 30.336 30.947L30.439 31.061L30.553 31.164C30.8205 31.3816 31.1547 31.5003 31.4995 31.5003C31.8443 31.5003 32.1785 31.3816 32.446 31.164L32.56 31.061L34.498 29.121L36.403 31.025L36.521 31.131C36.7975 31.356 37.143 31.4789 37.4995 31.4789C37.856 31.4789 38.2015 31.356 38.478 31.131L38.596 31.025L41.561 28.06L41.664 27.946C41.8982 27.658 42.0173 27.2934 41.9983 26.9227C41.9793 26.552 41.8235 26.2015 41.561 25.939ZM14.5 22.5H7.5C7.11478 22.5002 6.74441 22.6486 6.46561 22.9144C6.18682 23.1802 6.02099 23.5431 6.00248 23.9279C5.98396 24.3127 6.11419 24.6898 6.36618 24.9812C6.61816 25.2726 6.97258 25.4558 7.356 25.493L7.5 25.5H14.5C14.8852 25.4998 15.2556 25.3514 15.5344 25.0856C15.8132 24.8198 15.979 24.4569 15.9975 24.0721C16.016 23.6873 15.8858 23.3102 15.6338 23.0188C15.3818 22.7274 15.0274 22.5442 14.644 22.507L14.5 22.5ZM25.5 16.5H7.5C7.11478 16.5002 6.74441 16.6486 6.46561 16.9144C6.18682 17.1802 6.02099 17.5431 6.00248 17.9279C5.98396 18.3127 6.11419 18.6898 6.36618 18.9812C6.61816 19.2726 6.97258 19.4558 7.356 19.493L7.5 19.5H25.5C25.8852 19.4998 26.2556 19.3514 26.5344 19.0856C26.8132 18.8198 26.979 18.4569 26.9975 18.0721C27.016 17.6873 26.8858 17.3102 26.6338 17.0188C26.3818 16.7274 26.0274 16.5442 25.644 16.507L25.5 16.5ZM40.5 16.5H34.5C34.1148 16.5002 33.7444 16.6486 33.4656 16.9144C33.1868 17.1802 33.021 17.5431 33.0025 17.9279C32.984 18.3127 33.1142 18.6898 33.3662 18.9812C33.6182 19.2726 33.9726 19.4558 34.356 19.493L34.5 19.5H40.5C40.8852 19.4998 41.2556 19.3514 41.5344 19.0856C41.8132 18.8198 41.979 18.4569 41.9975 18.0721C42.016 17.6873 41.8858 17.3102 41.6338 17.0188C41.3818 16.7274 41.0274 16.5442 40.644 16.507L40.5 16.5Z" class="svg-primary-fill"/>
  </g>
  <defs>
    <clipPath id="a" class="a">
      <path fill="#fff" d="M0 0H48V48H0z"/>
    </clipPath>
  </defs>
</svg>
