<svg xmlns="http://www.w3.org/2000/svg" width="26" height="26" viewBox="0 0 26 26">
  <g class="neo-icon-kit--checkbox-empty">
    <path fill="#fff" d="M20.25 2.75H5.75C4.09315 2.75 2.75 4.09315 2.75 5.75V20.25C2.75 21.9069 4.09315 23.25 5.75 23.25H20.25C21.9069 23.25 23.25 21.9069 23.25 20.25V5.75C23.25 4.09315 21.9069 2.75 20.25 2.75Z" class="svg-secondary-fill"/>
    <path fill="#E7E8EE" fill-rule="evenodd" d="M5.75 3.5C4.50736 3.5 3.5 4.50736 3.5 5.75V20.25C3.5 21.4926 4.50736 22.5 5.75 22.5H20.25C21.4926 22.5 22.5 21.4926 22.5 20.25V5.75C22.5 4.50736 21.4926 3.5 20.25 3.5H5.75ZM2 5.75C2 3.67893 3.67893 2 5.75 2H20.25C22.3211 2 24 3.67893 24 5.75V20.25C24 22.3211 22.3211 24 20.25 24H5.75C3.67893 24 2 22.3211 2 20.25V5.75Z" class="svg-primary-fill" clip-rule="evenodd"/>
  </g>
</svg>
