<svg xmlns="http://www.w3.org/2000/svg" width="32" height="32" viewBox="0 0 32 32">
  <g class="neo-icon-kit--checkmark-green-circle">
    <path fill="#00825F" d="M16 32C24.8366 32 32 24.8366 32 16C32 7.16344 24.8366 0 16 0C7.16344 0 0 7.16344 0 16C0 24.8366 7.16344 32 16 32Z" class="svg-secondary-fill"/>
    <path fill="#fff" fill-rule="evenodd" d="M23.785 12.2569C23.785 12.0059 23.685 11.7539 23.503 11.5739L22.137 10.2079C21.9548 10.0288 21.7095 9.92834 21.454 9.92834C21.1985 9.92834 20.9532 10.0288 20.771 10.2079L14.181 16.8069L11.229 13.8439C11.0468 13.6648 10.8015 13.5643 10.546 13.5643C10.2905 13.5643 10.0452 13.6648 9.86301 13.8439L8.49701 15.2099C8.31783 15.3921 8.21741 15.6374 8.21741 15.8929C8.21741 16.1485 8.31783 16.3938 8.49701 16.5759L13.499 21.5779C13.6812 21.7571 13.9265 21.8576 14.182 21.8576C14.4375 21.8576 14.6828 21.7571 14.865 21.5779L23.503 12.9399C23.6831 12.7582 23.7844 12.5128 23.785 12.2569Z" class="svg-primary-fill" clip-rule="evenodd"/>
  </g>
</svg>
