<svg xmlns="http://www.w3.org/2000/svg" width="48" height="48" viewBox="0 0 48 48">
  <g class="neo-icon-kit--check-scan-filled">
    <path fill="#006FCF" d="M1.5 33C1.89782 33 2.27936 33.158 2.56066 33.4393C2.84196 33.7206 3 34.1022 3 34.5V37.5C3 37.8978 3.15804 38.2794 3.43934 38.5607C3.72064 38.842 4.10218 39 4.5 39H7.5C7.89782 39 8.27936 39.158 8.56066 39.4393C8.84196 39.7206 9 40.1022 9 40.5C9 40.8978 8.84196 41.2794 8.56066 41.5607C8.27936 41.842 7.89782 42 7.5 42H4.5C3.30653 42 2.16193 41.5259 1.31802 40.682C0.474106 39.8381 0 38.6935 0 37.5L0 34.5C0 34.1022 0.158035 33.7206 0.43934 33.4393C0.720644 33.158 1.10218 33 1.5 33ZM46.5 33C46.8978 33 47.2794 33.158 47.5607 33.4393C47.842 33.7206 48 34.1022 48 34.5V37.5C48 38.6935 47.5259 39.8381 46.682 40.682C45.8381 41.5259 44.6935 42 43.5 42H40.5C40.1022 42 39.7206 41.842 39.4393 41.5607C39.158 41.2794 39 40.8978 39 40.5C39 40.1022 39.158 39.7206 39.4393 39.4393C39.7206 39.158 40.1022 39 40.5 39H43.5C43.8978 39 44.2794 38.842 44.5607 38.5607C44.842 38.2794 45 37.8978 45 37.5V34.5C45 34.1022 45.158 33.7206 45.4393 33.4393C45.7206 33.158 46.1022 33 46.5 33ZM39 13C39.7652 13 40.5015 13.2923 41.0583 13.8173C41.615 14.3422 41.9501 15.0601 41.995 15.824L42 16V32C42 32.7652 41.7077 33.5015 41.1827 34.0583C40.6578 34.615 39.9399 34.9501 39.176 34.995L39 35H9C8.23479 35 7.49849 34.7077 6.94174 34.1827C6.38499 33.6578 6.04989 32.9399 6.005 32.176L6 32V16C5.99996 15.2348 6.29233 14.4985 6.81728 13.9417C7.34224 13.385 8.06011 13.0499 8.824 13.005L9 13H39ZM34.678 25.011L34.604 25.004L34.432 25.002L34.285 25.016L34.206 25.029L34.072 25.062L33.966 25.098L33.833 25.156L33.739 25.207L33.645 25.267L33.563 25.328L32.117 26.481L32.027 26.404L31.092 25.47L30.976 25.365C30.7652 25.1923 30.5122 25.0787 30.243 25.036L30.084 25.019C29.6946 24.9539 29.2953 25.0444 28.972 25.271L28.856 25.361L26.56 27.328L26.445 27.43C26.1989 27.6717 26.0437 27.9909 26.0055 28.3337C25.9672 28.6765 26.0483 29.022 26.235 29.312L26.325 29.437L26.427 29.552C26.514 29.6408 26.6117 29.7184 26.718 29.783L26.81 29.834L26.953 29.898L27.034 29.926C27.1 29.948 27.167 29.965 27.236 29.977L27.387 29.996L27.5 30C27.5676 29.9999 27.6351 29.9952 27.702 29.986L27.775 29.974L27.868 29.954L27.966 29.926L28.051 29.895L28.181 29.836L28.237 29.807L28.351 29.736L28.501 29.618L29.879 28.515L29.972 28.595L30.908 29.53L31.024 29.635C31.24 29.812 31.494 29.922 31.757 29.964L31.916 29.981C32.3054 30.0466 32.705 29.9561 33.028 29.729L33.144 29.639L35.477 27.639C35.526 27.597 35.572 27.553 35.614 27.506L35.7 27.402L35.78 27.284L35.848 27.16L35.907 27.021L35.949 26.887L35.974 26.777L35.993 26.644L36 26.497L35.996 26.391L35.978 26.244L35.939 26.076L35.887 25.929L35.842 25.83L35.807 25.764L35.727 25.638L35.638 25.524L35.569 25.448L35.466 25.353L35.383 25.288L35.265 25.21L35.133 25.14L35.06 25.109L34.934 25.065L34.779 25.027L34.676 25.011H34.678ZM19.5 25H13.5C13.1267 24.9996 12.7666 25.1384 12.4902 25.3893C12.2137 25.6402 12.0408 25.9852 12.0052 26.3569C11.9695 26.7285 12.0738 27.1001 12.2975 27.3989C12.5212 27.6978 12.8484 27.9025 13.215 27.973L13.356 27.993L13.5 28H19.5C19.8852 27.9998 20.2556 27.8514 20.5344 27.5856C20.8132 27.3198 20.979 26.9569 20.9975 26.5721C21.016 26.1873 20.8858 25.8102 20.6338 25.5188C20.3818 25.2274 20.0274 25.0442 19.644 25.007L19.5 25ZM22.5 19H13.5C13.1267 18.9996 12.7666 19.1384 12.4902 19.3893C12.2137 19.6402 12.0408 19.9852 12.0052 20.3569C11.9695 20.7285 12.0738 21.1001 12.2975 21.3989C12.5212 21.6978 12.8484 21.9025 13.215 21.973L13.356 21.993L13.5 22H22.5L22.644 21.993L22.785 21.973C23.1392 21.9047 23.457 21.7109 23.68 21.4274C23.903 21.1438 24.0163 20.7893 23.9992 20.4289C23.982 20.0686 23.8356 19.7264 23.5867 19.4653C23.3378 19.2041 23.0031 19.0414 22.644 19.007L22.5 19ZM34.5 19H31.5C31.1267 18.9996 30.7666 19.1384 30.4902 19.3893C30.2137 19.6402 30.0408 19.9852 30.0052 20.3569C29.9695 20.7285 30.0738 21.1001 30.2975 21.3989C30.5212 21.6978 30.8484 21.9025 31.215 21.973L31.356 21.993L31.5 22H34.5L34.644 21.993L34.785 21.973C35.1392 21.9047 35.457 21.7109 35.68 21.4274C35.903 21.1438 36.0163 20.7893 35.9992 20.4289C35.982 20.0686 35.8356 19.7264 35.5867 19.4653C35.3378 19.2041 35.0031 19.0414 34.644 19.007L34.5 19ZM7.5 6C7.89782 6 8.27936 6.15804 8.56066 6.43934C8.84196 6.72064 9 7.10218 9 7.5C9 7.89782 8.84196 8.27936 8.56066 8.56066C8.27936 8.84196 7.89782 9 7.5 9H4.5C4.10218 9 3.72064 9.15804 3.43934 9.43934C3.15804 9.72064 3 10.1022 3 10.5V13.5C3 13.8978 2.84196 14.2794 2.56066 14.5607C2.27936 14.842 1.89782 15 1.5 15C1.10218 15 0.720644 14.842 0.43934 14.5607C0.158035 14.2794 0 13.8978 0 13.5L0 10.5C0 9.30653 0.474106 8.16193 1.31802 7.31802C2.16193 6.47411 3.30653 6 4.5 6H7.5ZM43.5 6C44.6935 6 45.8381 6.47411 46.682 7.31802C47.5259 8.16193 48 9.30653 48 10.5V13.5C48 13.8978 47.842 14.2794 47.5607 14.5607C47.2794 14.842 46.8978 15 46.5 15C46.1022 15 45.7206 14.842 45.4393 14.5607C45.158 14.2794 45 13.8978 45 13.5V10.5C45 10.1022 44.842 9.72064 44.5607 9.43934C44.2794 9.15804 43.8978 9 43.5 9H40.5C40.1022 9 39.7206 8.84196 39.4393 8.56066C39.158 8.27936 39 7.89782 39 7.5C39 7.10218 39.158 6.72064 39.4393 6.43934C39.7206 6.15804 40.1022 6 40.5 6H43.5Z" class="svg-primary-fill"/>
  </g>
</svg>
