<svg xmlns="http://www.w3.org/2000/svg" width="48" height="48" viewBox="0 0 48 48">
  <g class="neo-icon-kit--checkin-priority-filled">
    <path fill="#006FCF" fill-rule="evenodd" d="M15 10H42C43.6568 10 45 11.3431 45 13V20.5C43.3431 20.5 42 21.8431 42 23.5C42 25.1569 43.3431 26.5 45 26.5V34C45 35.6569 43.6568 37 42 37H15V32.5C15 31.6716 14.3284 31 13.5 31C12.6716 31 12 31.6716 12 32.5V37H6.00003C4.34318 37 3.00003 35.6569 3.00002 34L3 26.5C4.65685 26.5 6 25.1569 6 23.5C6 21.8431 4.65685 20.5 3 20.5V13C3 11.3431 4.34315 10 6 10H12V14C12 14.8284 12.6716 15.5 13.5 15.5C14.3284 15.5 15 14.8284 15 14V10ZM13.5 22C14.3284 22 15 21.3284 15 20.5C15 19.6716 14.3284 19 13.5 19C12.6716 19 12 19.6716 12 20.5C12 21.3284 12.6716 22 13.5 22ZM15 26.5C15 27.3284 14.3284 28 13.5 28C12.6716 28 12 27.3284 12 26.5C12 25.6716 12.6716 25 13.5 25C14.3284 25 15 25.6716 15 26.5ZM33.3789 18.5035C33.9293 17.8843 34.8774 17.8285 35.4965 18.3789C36.1157 18.9293 36.1715 19.8774 35.6211 20.4966L27.6211 29.4966C27.0364 30.1543 26.0137 30.1698 25.4095 29.5299L21.4095 25.2947C20.8407 24.6924 20.8678 23.743 21.4701 23.1742C22.0723 22.6054 23.0217 22.6325 23.5905 23.2348L26.4665 26.2799L33.3789 18.5035Z" class="svg-primary-fill" clip-rule="evenodd"/>
  </g>
</svg>
