<svg xmlns="http://www.w3.org/2000/svg" width="48" height="48" viewBox="0 0 48 48">
  <g class="neo-icon-kit--check-scan">
    <path fill="#006FCF" d="M1.5 33C1.89782 33 2.27936 33.158 2.56066 33.4393C2.84196 33.7206 3 34.1022 3 34.5V37.5C3 37.8978 3.15804 38.2794 3.43934 38.5607C3.72064 38.842 4.10218 39 4.5 39H7.5C7.89782 39 8.27936 39.158 8.56066 39.4393C8.84196 39.7206 9 40.1022 9 40.5C9 40.8978 8.84196 41.2794 8.56066 41.5607C8.27936 41.842 7.89782 42 7.5 42H4.5C3.30653 42 2.16193 41.5259 1.31802 40.682C0.474106 39.8381 0 38.6935 0 37.5L0 34.5C0 34.1022 0.158035 33.7206 0.43934 33.4393C0.720644 33.158 1.10218 33 1.5 33ZM46.5 33C46.8978 33 47.2794 33.158 47.5607 33.4393C47.842 33.7206 48 34.1022 48 34.5V37.5C48 38.6935 47.5259 39.8381 46.682 40.682C45.8381 41.5259 44.6935 42 43.5 42H40.5C40.1022 42 39.7206 41.842 39.4393 41.5607C39.158 41.2794 39 40.8978 39 40.5C39 40.1022 39.158 39.7206 39.4393 39.4393C39.7206 39.158 40.1022 39 40.5 39H43.5C43.8978 39 44.2794 38.842 44.5607 38.5607C44.842 38.2794 45 37.8978 45 37.5V34.5C45 34.1022 45.158 33.7206 45.4393 33.4393C45.7206 33.158 46.1022 33 46.5 33ZM39 13C39.7652 13 40.5015 13.2923 41.0583 13.8173C41.615 14.3422 41.9501 15.0601 41.995 15.824L42 16V32C42 32.7652 41.7077 33.5015 41.1827 34.0583C40.6578 34.615 39.9399 34.9501 39.176 34.995L39 35H9C8.23479 35 7.49849 34.7077 6.94174 34.1827C6.38499 33.6578 6.04989 32.9399 6.005 32.176L6 32V16C5.99996 15.2348 6.29233 14.4985 6.81728 13.9417C7.34224 13.385 8.06011 13.0499 8.824 13.005L9 13H39ZM39 16H9V32H39V16ZM34.432 25.001L34.604 25.003L34.711 25.014L34.848 25.04L34.97 25.074L35.062 25.108L35.187 25.165L35.315 25.239L35.41 25.306L35.525 25.404L35.621 25.503L35.671 25.562L35.731 25.643L35.807 25.763L35.872 25.893L35.926 26.034L35.954 26.129L35.978 26.243L35.996 26.39L36 26.496L35.993 26.643L35.974 26.776L35.949 26.887L35.907 27.021L35.879 27.09L35.847 27.16L35.779 27.284L35.737 27.349L35.677 27.43L35.563 27.558L35.476 27.638L33.143 29.638C32.8474 29.8917 32.4648 30.0204 32.076 29.997L31.915 29.979C31.5885 29.9619 31.276 29.841 31.023 29.634L30.907 29.529L29.978 28.6L29.878 28.514L28.398 29.701L28.236 29.807L28.111 29.87L27.966 29.926L27.822 29.965L27.702 29.986L27.566 29.998L27.5 29.999C27.4462 29.9989 27.3925 29.9959 27.339 29.99C27.2699 29.983 27.2014 29.971 27.134 29.954L27.02 29.92L26.953 29.897L26.869 29.86C26.8293 29.8429 26.7905 29.8235 26.753 29.802L26.719 29.78C26.612 29.7165 26.5138 29.6391 26.427 29.55L26.325 29.435C26.0933 29.145 25.9773 28.7795 25.9994 28.4089C26.0216 28.0384 26.1803 27.6893 26.445 27.429L28.856 25.36C29.1516 25.1063 29.5342 24.9776 29.923 25.001L30.084 25.019C30.403 25.036 30.717 25.152 30.976 25.364L31.092 25.469L32.033 26.408L32.118 26.481L33.563 25.327L33.649 25.263L33.766 25.19L33.871 25.136L33.965 25.096L34.105 25.05L34.245 25.019L34.349 25.005L34.431 24.999L34.432 25.001ZM19.5 25C19.8978 25 20.2794 25.158 20.5607 25.4393C20.842 25.7206 21 26.1022 21 26.5C21 26.8978 20.842 27.2794 20.5607 27.5607C20.2794 27.842 19.8978 28 19.5 28H13.5L13.356 27.993L13.215 27.973C12.8484 27.9025 12.5212 27.6978 12.2975 27.3989C12.0738 27.1001 11.9695 26.7285 12.0052 26.3569C12.0408 25.9852 12.2137 25.6402 12.4902 25.3893C12.7666 25.1384 13.1267 24.9996 13.5 25H19.5ZM22.5 19C22.8733 18.9996 23.2334 19.1384 23.5098 19.3893C23.7863 19.6402 23.9592 19.9852 23.9948 20.3569C24.0305 20.7285 23.9262 21.1001 23.7025 21.3989C23.4788 21.6978 23.1516 21.9025 22.785 21.973L22.644 21.993L22.5 22H13.5L13.356 21.993L13.215 21.973C12.8484 21.9025 12.5212 21.6978 12.2975 21.3989C12.0738 21.1001 11.9695 20.7285 12.0052 20.3569C12.0408 19.9852 12.2137 19.6402 12.4902 19.3893C12.7666 19.1384 13.1267 18.9996 13.5 19H22.5ZM34.5 19C34.8733 18.9996 35.2334 19.1384 35.5098 19.3893C35.7863 19.6402 35.9592 19.9852 35.9948 20.3569C36.0305 20.7285 35.9262 21.1001 35.7025 21.3989C35.4788 21.6978 35.1516 21.9025 34.785 21.973L34.644 21.993L34.5 22H31.5L31.356 21.993L31.215 21.973C30.8484 21.9025 30.5212 21.6978 30.2975 21.3989C30.0738 21.1001 29.9695 20.7285 30.0052 20.3569C30.0408 19.9852 30.2137 19.6402 30.4902 19.3893C30.7666 19.1384 31.1267 18.9996 31.5 19H34.5ZM7.5 6C7.89782 6 8.27936 6.15804 8.56066 6.43934C8.84196 6.72064 9 7.10218 9 7.5C9 7.89782 8.84196 8.27936 8.56066 8.56066C8.27936 8.84196 7.89782 9 7.5 9H4.5C4.10218 9 3.72064 9.15804 3.43934 9.43934C3.15804 9.72064 3 10.1022 3 10.5V13.5C3 13.8978 2.84196 14.2794 2.56066 14.5607C2.27936 14.842 1.89782 15 1.5 15C1.10218 15 0.720644 14.842 0.43934 14.5607C0.158035 14.2794 0 13.8978 0 13.5L0 10.5C0 9.30653 0.474106 8.16193 1.31802 7.31802C2.16193 6.47411 3.30653 6 4.5 6H7.5ZM43.5 6C44.6935 6 45.8381 6.47411 46.682 7.31802C47.5259 8.16193 48 9.30653 48 10.5V13.5C48 13.8978 47.842 14.2794 47.5607 14.5607C47.2794 14.842 46.8978 15 46.5 15C46.1022 15 45.7206 14.842 45.4393 14.5607C45.158 14.2794 45 13.8978 45 13.5V10.5C45 10.1022 44.842 9.72064 44.5607 9.43934C44.2794 9.15804 43.8978 9 43.5 9H40.5C40.1022 9 39.7206 8.84196 39.4393 8.56066C39.158 8.27936 39 7.89782 39 7.5C39 7.10218 39.158 6.72064 39.4393 6.43934C39.7206 6.15804 40.1022 6 40.5 6H43.5Z" class="svg-primary-fill"/>
  </g>
</svg>
