<svg xmlns="http://www.w3.org/2000/svg" width="48" height="48" viewBox="0 0 48 48">
  <g class="neo-icon-kit--check-banking" clip-path="url(#a)">
    <path fill="#006FCF" d="M45 10.5C45.7652 10.5 46.5015 10.7923 47.0583 11.3173C47.615 11.8422 47.9501 12.5601 47.995 13.324L48 13.5V34.5C48 35.2652 47.7077 36.0015 47.1827 36.5583C46.6578 37.115 45.9399 37.4501 45.176 37.495L45 37.5H3C2.23479 37.5 1.49849 37.2077 0.941739 36.6827C0.384993 36.1578 0.0498924 35.4399 0.005 34.676L4.66045e-09 34.5V13.5C-4.26217e-05 12.7348 0.292325 11.9985 0.817284 11.4417C1.34224 10.885 2.06011 10.5499 2.824 10.505L3 10.5H45ZM45 13.5H3V34.5H45V13.5ZM23.5 28.5C23.8978 28.5 24.2794 28.658 24.5607 28.9393C24.842 29.2206 25 29.6022 25 30C25 30.3978 24.842 30.7794 24.5607 31.0607C24.2794 31.342 23.8978 31.5 23.5 31.5H7.5C7.10218 31.5 6.72064 31.342 6.43934 31.0607C6.15804 30.7794 6 30.3978 6 30C6 29.6022 6.15804 29.2206 6.43934 28.9393C6.72064 28.658 7.10218 28.5 7.5 28.5H23.5ZM41.561 25.939C41.8235 26.2015 41.9793 26.552 41.9983 26.9227C42.0173 27.2934 41.8982 27.658 41.664 27.946L41.561 28.06L38.596 31.025C38.3247 31.2962 37.9625 31.4571 37.5794 31.4767C37.1963 31.4963 36.8195 31.3731 36.522 31.131L36.404 31.025L34.499 29.121L32.561 31.061C32.2985 31.3235 31.948 31.4793 31.5773 31.4983C31.2066 31.5173 30.842 31.3982 30.554 31.164L30.44 31.061C30.1775 30.7985 30.0217 30.448 30.0027 30.0773C29.9837 29.7066 30.1028 29.342 30.337 29.054L30.44 28.94L33.405 25.975C33.6763 25.7038 34.0385 25.5429 34.4216 25.5233C34.8047 25.5037 35.1815 25.6269 35.479 25.869L35.597 25.975L37.501 27.878L39.44 25.939C39.7213 25.6578 40.1028 25.4998 40.5005 25.4998C40.8982 25.4998 41.2797 25.6578 41.561 25.939ZM14.5 22.5C14.8978 22.5 15.2794 22.658 15.5607 22.9393C15.842 23.2206 16 23.6022 16 24C16 24.3978 15.842 24.7794 15.5607 25.0607C15.2794 25.342 14.8978 25.5 14.5 25.5H7.5C7.10218 25.5 6.72064 25.342 6.43934 25.0607C6.15804 24.7794 6 24.3978 6 24C6 23.6022 6.15804 23.2206 6.43934 22.9393C6.72064 22.658 7.10218 22.5 7.5 22.5H14.5ZM25.5 16.5C25.8978 16.5 26.2794 16.658 26.5607 16.9393C26.842 17.2206 27 17.6022 27 18C27 18.3978 26.842 18.7794 26.5607 19.0607C26.2794 19.342 25.8978 19.5 25.5 19.5H7.5C7.10218 19.5 6.72064 19.342 6.43934 19.0607C6.15804 18.7794 6 18.3978 6 18C6 17.6022 6.15804 17.2206 6.43934 16.9393C6.72064 16.658 7.10218 16.5 7.5 16.5H25.5ZM40.5 16.5C40.8978 16.5 41.2794 16.658 41.5607 16.9393C41.842 17.2206 42 17.6022 42 18C42 18.3978 41.842 18.7794 41.5607 19.0607C41.2794 19.342 40.8978 19.5 40.5 19.5H34.5C34.1022 19.5 33.7206 19.342 33.4393 19.0607C33.158 18.7794 33 18.3978 33 18C33 17.6022 33.158 17.2206 33.4393 16.9393C33.7206 16.658 34.1022 16.5 34.5 16.5H40.5Z" class="svg-primary-fill"/>
  </g>
  <defs>
    <clipPath id="a" class="a">
      <path fill="#fff" d="M0 0H48V48H0z"/>
    </clipPath>
  </defs>
</svg>
