<svg xmlns="http://www.w3.org/2000/svg" width="48" height="48" viewBox="0 0 48 48">
  <g class="neo-icon-kit--chevron-up">
    <path fill="#444B61" fill-rule="evenodd" d="M24 43.25C34.6315 43.25 43.25 34.6315 43.25 24C43.25 13.3685 34.6315 4.75 24 4.75C13.3685 4.75 4.75 13.3685 4.75 24C4.75 34.6315 13.3685 43.25 24 43.25ZM45 24C45 35.598 35.598 45 24 45C12.402 45 3 35.598 3 24C3 12.402 12.402 3 24 3C35.598 3 45 12.402 45 24Z" class="svg-secondary-fill" clip-rule="evenodd"/>
    <path fill="#444B61" fill-rule="evenodd" d="M25.2333 19.2879C25.1515 19.2115 25.0601 19.1502 24.9631 19.1041C24.8168 19.0345 24.6582 19 24.5 19C24.2353 19.0001 23.9714 19.0968 23.7667 19.2879L17.3454 25.1557C16.9103 25.5534 16.8825 26.2257 17.2835 26.6574C17.6844 27.089 18.3622 27.1165 18.7974 26.7188L24.5 21.5077L30.2026 26.7188C30.6378 27.1165 31.3156 27.089 31.7165 26.6574C32.1175 26.2257 32.0897 25.5534 31.6546 25.1557L25.2333 19.2879Z" class="svg-primary-fill" clip-rule="evenodd"/>
  </g>
</svg>
