<svg xmlns="http://www.w3.org/2000/svg" width="48" height="48" viewBox="0 0 48 48">
  <g class="neo-icon-kit--chip-filled">
    <path fill="#006FCF" fill-rule="evenodd" d="M48 9C48 7.35 46.65 6 45 6H15.112L15.2947 6.44193L15.504 6.982C16.116 8.662 16.439 10.568 16.439 12.497C16.439 14.276 16.172 16.791 15.665 18.501C16.164 20.052 16.439 21.761 16.439 23.497C16.439 25.275 16.172 27.792 15.665 29.503C16.164 31.054 16.439 32.764 16.439 34.5C16.439 36.462 16.118 39.329 15.504 41.014L15.3392 41.435L15.099 42H32.837C32.695 41.693 32.56 41.362 32.432 41.004C31.821 39.328 31.5 36.461 31.5 34.5C31.5 32.764 31.775 31.055 32.274 29.503C31.767 27.791 31.5 25.276 31.5 23.497C31.5 21.569 31.823 19.663 32.436 17.983L32.795 16.997H48V9ZM12.995 31H0V39L0.00511798 39.1756C0.0968112 40.7447 1.40893 42 3 42H11.759L11.9444 41.6495C12.2447 41.066 12.4997 40.4902 12.688 39.981C13.151 38.709 13.439 36.144 13.439 34.5C13.439 33.291 13.287 32.099 12.995 31ZM48 30.997V39C48 40.5911 46.7447 41.9032 45.1756 41.9949L45 42H36.32C35.935 41.509 35.574 40.884 35.254 39.986C34.838 38.845 34.5 36.384 34.5 34.5C34.5 33.4421 34.6164 32.398 34.8418 31.4166L34.945 31H47V30.997H48ZM20.5 33H27.5C28.328 33 29 33.672 29 34.5C29 35.328 28.328 36 27.5 36H20.5C19.671 36 19 35.328 19 34.5C19 33.672 19.671 33 20.5 33ZM0 19.997H12.995C13.287 21.096 13.439 22.287 13.439 23.497C13.439 24.6562 13.2956 26.2747 13.0475 27.576L12.961 27.997H1.939V28H0V19.997ZM48 27.997V19.997H34.945C34.652 21.096 34.5 22.288 34.5 23.497C34.5 24.942 34.699 26.729 34.979 27.997H48ZM3 6H11.816C12.164 6.708 12.465 7.408 12.686 8.01C13.178 9.363 13.439 10.915 13.439 12.497C13.439 13.6562 13.2956 15.2747 13.0475 16.576L12.961 16.997H0V9C0 7.40893 1.25529 6.09681 2.82441 6.00512L3 6ZM20.5 12H27.5C28.328 12 29 12.671 29 13.5C29 14.329 28.328 15 27.5 15H20.5C19.671 15 19 14.329 19 13.5C19 12.671 19.671 12 20.5 12Z" class="svg-primary-fill" clip-rule="evenodd"/>
  </g>
</svg>
