<svg xmlns="http://www.w3.org/2000/svg" width="48" height="48" viewBox="0 0 48 48">
  <g class="neo-icon-kit--chip">
    <path fill="#006FCF" fill-rule="evenodd" d="M45 6C46.65 6 48 7.35 48 9V39C48 40.65 46.65 42 45 42H3C1.35 42 0 40.65 0 39V9C0 7.35 1.35 6 3 6H45ZM45 31H34.945C34.652 32.1 34.5 33.291 34.5 34.5C34.5 35.948 34.7 37.731 34.981 39H45V31ZM3 31H12.995C13.287 32.099 13.439 33.291 13.439 34.5C13.439 35.791 13.259 37.643 12.958 39H3V31ZM45 9H16.062C16.301 10.127 16.439 11.304 16.439 12.497C16.439 14.276 16.172 16.791 15.665 18.501C16.164 20.052 16.439 21.761 16.439 23.497C16.439 25.275 16.172 27.792 15.665 29.503C16.164 31.054 16.439 32.764 16.439 34.5C16.439 35.806 16.293 37.508 16.017 39H31.922C31.646 37.507 31.5 35.806 31.5 34.5C31.5 32.764 31.775 31.055 32.274 29.503C31.767 27.791 31.5 25.276 31.5 23.497C31.5 21.569 31.823 19.663 32.436 17.983L32.795 16.997H45V9ZM27.5 33H20.5L20.3554 33.0069C19.5944 33.0796 19 33.7207 19 34.5C19 35.328 19.671 36 20.5 36H27.5L27.6444 35.9931C28.4047 35.9204 29 35.2793 29 34.5C29 33.672 28.328 33 27.5 33ZM12.995 19.997H3V27.997H12.961C13.262 26.64 13.439 24.785 13.439 23.497C13.439 22.287 13.287 21.096 12.995 19.997ZM34.945 19.997H45V27.997H34.979C34.699 26.729 34.5 24.942 34.5 23.497C34.5 22.288 34.652 21.096 34.945 19.997ZM12.993 9H3V16.997H12.961C13.262 15.64 13.439 13.785 13.439 12.497C13.439 11.288 13.284 10.098 12.993 9ZM29 13.5C29 12.671 28.328 12 27.5 12H20.5C19.671 12 19 12.671 19 13.5C19 14.329 19.671 15 20.5 15H27.5C28.328 15 29 14.329 29 13.5Z" class="svg-primary-fill" clip-rule="evenodd"/>
  </g>
</svg>
