<svg xmlns="http://www.w3.org/2000/svg" width="48" height="48" viewBox="0 0 48 48">
  <g class="neo-icon-kit--clear-s">
    <g fill="#444B61" class="svg-primary-fill">
      <path d="M12.5791 15.3748C11.8071 14.6028 11.8071 13.3511 12.5791 12.579C13.3512 11.807 14.6029 11.807 15.3749 12.579L35.4211 32.6252C36.1931 33.3972 36.1931 34.6489 35.4211 35.421C34.6491 36.193 33.3973 36.193 32.6253 35.421L12.5791 15.3748Z"/>
      <path d="M35.421 15.3748C36.193 14.6028 36.193 13.3511 35.421 12.579C34.6489 11.807 33.3972 11.807 32.6252 12.579L12.579 32.6252C11.807 33.3972 11.807 34.6489 12.579 35.421C13.3511 36.193 14.6028 36.193 15.3748 35.421L35.421 15.3748Z"/>
    </g>
  </g>
</svg>
