<svg xmlns="http://www.w3.org/2000/svg" width="48" height="48" viewBox="0 0 48 48">
  <g class="neo-icon-kit--clear">
    <path fill="#006FCF" d="M12.4397 12.4397C11.8534 13.0261 11.8534 13.9767 12.4397 14.563L21.8767 24L12.4397 33.437C11.8534 34.0233 11.8534 34.9739 12.4397 35.5603C13.0261 36.1466 13.9767 36.1466 14.563 35.5603L24 26.1233L33.437 35.5603C34.0233 36.1466 34.9739 36.1466 35.5603 35.5603C36.1466 34.9739 36.1466 34.0233 35.5603 33.437L26.1233 24L35.5603 14.563C36.1466 13.9767 36.1466 13.0261 35.5603 12.4397C34.9739 11.8534 34.0233 11.8534 33.437 12.4397L24 21.8767L14.563 12.4397C13.9767 11.8534 13.0261 11.8534 12.4397 12.4397Z" class="svg-primary-fill"/>
  </g>
</svg>
