<svg xmlns="http://www.w3.org/2000/svg" width="48" height="48" viewBox="0 0 48 48">
  <g class="neo-icon-kit--close-dark">
    <path fill="#444B61" d="M26.8 24L38.4 12.4C39.2 11.6 39.2 10.4 38.4 9.6C37.6 8.8 36.4 8.8 35.6 9.6L24 21.2L12.4 9.6C11.6 8.8 10.4 8.8 9.6 9.6C8.8 10.4 8.8 11.6 9.6 12.4L21.2 24L9.6 35.6C8.8 36.4 8.8 37.6 9.6 38.4C10 38.8 10.5 39 11 39C11.5 39 12 38.8 12.4 38.4L24 26.8L35.6 38.4C36 38.8 36.5 39 37 39C37.5 39 38 38.8 38.4 38.4C39.2 37.6 39.2 36.4 38.4 35.6L26.8 24Z" class="svg-primary-fill"/>
  </g>
</svg>
