<svg xmlns="http://www.w3.org/2000/svg" width="48" height="48" viewBox="0 0 48 48">
  <g class="neo-icon-kit--close-filled">
    <path fill="#006FCF" d="M38.2675 9.73638C39.2438 10.7127 39.2438 12.2956 38.2675 13.2719L27.5375 24.0019L38.2675 34.732C39.2438 35.7083 39.2438 37.2912 38.2675 38.2675C37.2912 39.2438 35.7083 39.2438 34.732 38.2675L24.0019 27.5375L13.2719 38.2675C12.2956 39.2438 10.7127 39.2438 9.73638 38.2675C8.76007 37.2912 8.76007 35.7083 9.73638 34.732L20.4664 24.0019L9.73638 13.2719C8.76007 12.2956 8.76007 10.7127 9.73639 9.73638C10.7127 8.76007 12.2956 8.76007 13.2719 9.73638L24.0019 20.4664L34.732 9.73638C35.7083 8.76007 37.2912 8.76007 38.2675 9.73638Z" class="svg-primary-fill"/>
  </g>
</svg>
