<svg xmlns="http://www.w3.org/2000/svg" width="48" height="48" viewBox="0 0 48 48">
  <g class="neo-icon-kit--close">
    <path fill="#006FCF" d="M23.9964 21.8486L36.3855 9.44012C36.9715 8.85329 37.9215 8.85329 38.5074 9.44012C39.0567 9.99027 39.091 10.8609 38.6104 11.4511L38.5074 11.5652L26.1179 23.9734L38.5606 36.4348C39.1099 36.9849 39.1442 37.8555 38.6635 38.4458L38.5606 38.5599C38.0112 39.11 37.1419 39.1444 36.5526 38.663L36.4387 38.5599L23.9964 26.0982L11.5613 38.5527C11.012 39.1029 10.1427 39.1373 9.5534 38.6559L9.43945 38.5527C8.89014 38.0026 8.85581 37.1319 9.33645 36.5417L9.43945 36.4276L21.8749 23.9734L9.4928 11.5727C8.94349 11.0225 8.90916 10.1519 9.38981 9.56171L9.4928 9.44758C10.0421 8.89743 10.9114 8.86305 11.5007 9.34443L11.6147 9.44758L23.9964 21.8486Z" class="svg-primary-fill"/>
  </g>
</svg>
