<svg xmlns="http://www.w3.org/2000/svg" width="48" height="48" viewBox="0 0 48 48">
  <g class="neo-icon-kit--coach">
    <path fill="#006FCF" fill-rule="evenodd" d="M27 7.5C27 6.67157 27.6716 6 28.5 6H34.5C35.3284 6 36 6.67157 36 7.5C36 8.32843 35.3284 9 34.5 9H33.927L35.427 12H45C46.6569 12 48 13.3431 48 15V36C48 37.6569 46.6569 39 45 39H41.7439C41.1262 40.7478 39.4593 42 37.5 42C35.5407 42 33.8738 40.7478 33.2561 39H14.7439C14.1262 40.7478 12.4593 42 10.5 42C8.54067 42 6.87381 40.7478 6.25606 39H3C1.34315 39 0 37.6569 0 36V15C0 13.3431 1.34315 12 3 12H32.0729L30.5729 9H28.5C27.6716 9 27 8.32843 27 7.5ZM3 18V15H45V18L21 18C19.3431 18 18 19.3431 18 21V24C18 25.6569 19.3431 27 21 27H45V36H12V21C12 19.3431 10.6569 18 9 18H3ZM3 21V36H9V21H3ZM45 24V21L39 21V24H45ZM27 24H21V21L27 21V24ZM30 21V24H36V21L30 21Z" class="svg-primary-fill" clip-rule="evenodd"/>
  </g>
</svg>
