<svg xmlns="http://www.w3.org/2000/svg" width="48" height="48" viewBox="0 0 48 48">
  <g class="neo-icon-kit--coach-deck">
    <g fill="#006FCF" class="svg-primary-fill">
      <path d="M26.5 15C25.6716 15 25 15.6716 25 16.5V21H20.5C19.6716 21 19 21.6716 19 22.5V27H14.5C13.6716 27 13 27.6716 13 28.5C13 29.3284 13.6716 30 14.5 30H20.5C21.3284 30 22 29.3284 22 28.5V24H26.5C27.3284 24 28 23.3284 28 22.5V18H32.5C33.3284 18 34 17.3284 34 16.5C34 15.6716 33.3284 15 32.5 15H26.5Z"/>
      <path fill-rule="evenodd" d="M0 12V33C0 34.6569 1.28718 36 2.875 36H6.25606C6.87381 37.7478 8.54067 39 10.5 39C12.4593 39 14.1262 37.7478 14.7439 36H33.2561C33.8738 37.7478 35.5407 39 37.5 39C39.4593 39 41.1262 37.7478 41.7439 36H45.125C46.7128 36 48 34.6569 48 33V12C48 10.3431 46.7128 9 45.125 9H2.875C1.28718 9 0 10.3431 0 12ZM2.875 33V12H45.125V33H2.875Z" clip-rule="evenodd"/>
    </g>
  </g>
</svg>
