<svg xmlns="http://www.w3.org/2000/svg" width="48" height="48" viewBox="0 0 48 48">
  <g class="neo-icon-kit--code">
    <path fill="#006FCF" fill-rule="evenodd" d="M17.127 35.8959L28.127 10.8959C28.4607 10.1376 29.3458 9.7934 30.1041 10.127C30.8178 10.4411 31.1647 11.2436 30.9249 11.9691L30.873 12.1041L19.873 37.1041C19.5393 37.8624 18.6542 38.2066 17.8959 37.873C17.1822 37.559 16.8353 36.7564 17.0751 36.0309L17.127 35.8959ZM36.4393 13.9394C36.9885 13.3902 37.8576 13.3559 38.4467 13.8364L38.5607 13.9394L47.5607 22.9394C48.1098 23.4885 48.1442 24.3576 47.6636 24.9467L47.5607 25.0607L38.5607 34.0607C37.9749 34.6465 37.0251 34.6465 36.4393 34.0607C35.8902 33.5115 35.8558 32.6424 36.3364 32.0533L36.4393 31.9394L44.3787 24L36.4393 16.0607C35.8536 15.4749 35.8536 14.5251 36.4393 13.9394ZM9.43934 13.9394L0.43934 22.9394L0.33637 23.0533C-0.144158 23.6424 -0.109835 24.5115 0.43934 25.0607L9.43934 34.0607L9.55326 34.1636C10.1424 34.6442 11.0115 34.6098 11.5607 34.0607C12.1464 33.4749 12.1464 32.5251 11.5607 31.9394L3.62132 24L11.5607 16.0607L11.6636 15.9467C12.1442 15.3576 12.1098 14.4885 11.5607 13.9394C10.9749 13.3536 10.0251 13.3536 9.43934 13.9394Z" class="svg-primary-fill" clip-rule="evenodd"/>
  </g>
</svg>
