<svg xmlns="http://www.w3.org/2000/svg" width="48" height="48" viewBox="0 0 48 48">
  <g class="neo-icon-kit--code-filled">
    <path fill="#006FCF" fill-rule="evenodd" d="M16.2117 35.4932L27.2117 10.4932C27.7678 9.22939 29.2431 8.65567 30.5068 9.21173C31.718 9.74463 32.2953 11.1217 31.8519 12.3479L31.7883 12.5069L20.7883 37.5069C20.2322 38.7707 18.7569 39.3444 17.4932 38.7883C16.282 38.2554 15.7047 36.8783 16.1481 35.6522L16.2117 35.4932ZM35.7322 14.2323C36.6661 13.2984 38.155 13.2578 39.1371 14.1104L39.2678 14.2323L47.2678 22.2323C48.2016 23.1661 48.2422 24.655 47.3896 25.6371L47.2678 25.7678L39.2678 33.7678C38.2915 34.7441 36.7085 34.7441 35.7322 33.7678C34.7984 32.8339 34.7578 31.3451 35.6104 30.3629L35.7322 30.2323L41.9645 24L35.7322 17.7678C34.7559 16.7915 34.7559 15.2086 35.7322 14.2323ZM8.73223 14.2323L0.732233 22.2323L0.610425 22.3629C-0.242232 23.3451 -0.201629 24.8339 0.732233 25.7678L8.73223 33.7678L8.86292 33.8896C9.84504 34.7423 11.3339 34.7016 12.2678 33.7678C13.2441 32.7915 13.2441 31.2086 12.2678 30.2323L6.03553 24L12.2678 17.7678L12.3896 17.6371C13.2422 16.655 13.2016 15.1661 12.2678 14.2323C11.2915 13.2559 9.70854 13.2559 8.73223 14.2323Z" class="svg-primary-fill" clip-rule="evenodd"/>
  </g>
</svg>
