<svg xmlns="http://www.w3.org/2000/svg" width="48" height="48" viewBox="0 0 48 48">
  <g class="neo-icon-kit--collapse-filled">
    <path fill="#006FCF" fill-rule="evenodd" d="M42.2725 5.73227L42.0835 5.56148C41.0932 4.75402 39.6454 4.8231 38.7359 5.73227L31.0015 13.4647L30.9935 10.8081C30.8679 9.48282 29.7924 8.50003 28.5007 8.50003C27.1196 8.50003 26 9.61932 26 11L26.008 19.6919C26.1335 21.0172 27.2091 22 28.5007 22L37.1952 21.992C38.5208 21.8665 39.5039 20.7913 39.5039 19.5L39.4959 19.3081C39.3704 17.9828 38.2949 17 37.0032 17H34.5386L42.4103 9.11732C43.251 8.08882 43.1819 6.64144 42.2725 5.73227ZM21.992 28.3087C21.8665 26.9831 20.7909 26 19.4993 26L10.8048 26.008C9.47915 26.1335 8.49607 27.2091 8.49607 28.5007L8.50407 28.6927C8.6296 30.0184 9.70514 31.0015 10.9968 31.0015H13.4614L5.58973 38.8865C4.74896 39.9153 4.81807 41.3631 5.7275 42.2725L5.87803 42.4103C6.90683 43.251 8.35463 43.1819 9.26406 42.2725L16.9985 34.5378L17.0065 37.1952C17.1321 38.5208 18.2076 39.5039 19.4993 39.5039C20.8804 39.5039 22 38.3843 22 37.0032L21.992 28.3087Z" class="svg-primary-fill" clip-rule="evenodd"/>
  </g>
</svg>
