<svg xmlns="http://www.w3.org/2000/svg" width="48" height="48" viewBox="0 0 48 48">
  <g class="neo-icon-kit--collapse-vertical">
    <path fill="#006FCF" fill-rule="evenodd" d="M23.6529 20.1579C24.2422 20.6444 25.1159 20.6119 25.6673 20.0606L31.775 13.9432C32.2614 13.3539 32.229 12.4802 31.6777 11.9289L31.5707 11.8316C30.9814 11.3451 30.1077 11.3775 29.5563 11.9289L26.1071 15.3781L26.0989 3.96785C26.0221 3.21147 25.3833 2.62122 24.6066 2.62122L24.4532 2.62896C23.6969 2.70578 23.1066 3.34457 23.1066 4.12122L23.1068 15.3788L19.5498 11.8316C18.9606 11.3451 18.0869 11.3775 17.5355 11.9289C16.9497 12.5147 16.9497 13.4644 17.5355 14.0502L23.6529 20.1579ZM25.5603 26.9634C24.971 26.4769 24.0973 26.5093 23.546 27.0607L17.4383 33.1781C16.9518 33.7673 16.9842 34.6411 17.5356 35.1924L17.6426 35.2897C18.2318 35.7762 19.1056 35.7437 19.6569 35.1924L23.1062 31.7431L23.1144 43.1534C23.1912 43.9098 23.83 44.5001 24.6066 44.5001L24.76 44.4923C25.5164 44.4155 26.1066 43.7767 26.1066 43.0001L26.1064 31.7424L29.6634 35.2897C30.2526 35.7762 31.1264 35.7437 31.6777 35.1924C32.2635 34.6066 32.2635 33.6569 31.6777 33.0711L25.5603 26.9634Z" class="svg-primary-fill" clip-rule="evenodd"/>
  </g>
</svg>
