<svg xmlns="http://www.w3.org/2000/svg" width="48" height="48" viewBox="0 0 48 48">
  <g class="neo-icon-kit--collapse">
    <path fill="#006FCF" fill-rule="evenodd" d="M41.5607 6.43934L41.4467 6.33637C40.8576 5.85584 39.9885 5.89017 39.4393 6.43934L30 15.879L29.9931 10.8555C29.9204 10.0949 29.2797 9.5 28.5 9.5C27.6716 9.5 27 10.1716 27 11L27.0069 19.6445C27.0796 20.4051 27.7203 21 28.5 21L37.1445 20.9931C37.9051 20.9204 38.5 20.2797 38.5 19.5L38.4931 19.3555C38.4204 18.5949 37.7797 18 37 18H32.122L41.6636 8.44674C42.1442 7.85758 42.1098 6.98851 41.5607 6.43934ZM20.9931 28.3555C20.9204 27.5949 20.2797 27 19.5 27L10.8555 27.0069C10.0949 27.0796 9.5 27.7203 9.5 28.5L9.50687 28.6445C9.57955 29.4051 10.2203 30 11 30H15.878L6.33637 39.5533C5.85584 40.1424 5.89017 41.0115 6.43934 41.5607L6.55326 41.6636C7.14242 42.1442 8.01149 42.1098 8.56066 41.5607L18 32.121L18.0069 37.1445C18.0796 37.9051 18.7203 38.5 19.5 38.5C20.3284 38.5 21 37.8284 21 37L20.9931 28.3555Z" class="svg-primary-fill" clip-rule="evenodd"/>
  </g>
</svg>
