<svg xmlns="http://www.w3.org/2000/svg" width="48" height="48" viewBox="0 0 48 48">
  <g class="neo-icon-kit--company-white">
    <g fill="#fff" class="svg-secondary-fill">
      <path d="M14.5 29C15.3284 29 16 29.6716 16 30.5 16 31.3284 15.3284 32 14.5 32L11.5 32C10.6716 32 10 31.3284 10 30.5 10 29.6716 10.6716 29 11.5 29L14.5 29zM14.5 35C15.3284 35 16 35.6716 16 36.5 16 37.3284 15.3284 38 14.5 38H11.5C10.6716 38 10 37.3284 10 36.5 10 35.6716 10.6716 35 11.5 35H14.5z"/>
    </g>
    <path fill="#fff" fill-rule="evenodd" d="M30.5 3C29.6716 3 29 3.67157 29 4.5V7L23.5 7C22.6716 7 22 7.67157 22 8.5V13H19.5C18.6716 13 18 13.6716 18 14.5V23H6.5C5.67157 23 5 23.6716 5 24.5V43.5C5 44.2766 5.59025 44.9154 6.34663 44.9923C6.39706 44.9974 6.44822 45 6.5 45H41.5C42.3284 45 43 44.3284 43 43.5V14.5C43 13.6716 42.3284 13 41.5 13H39V8.5C39 8.44822 38.9974 8.39706 38.9923 8.34663C38.9154 7.59025 38.2766 7 37.5 7L32 7V4.5C32 3.67157 31.3284 3 30.5 3ZM18 42H8V26H18V42ZM25 10V13L36 13V10L25 10ZM36 21.5C36 20.6716 35.3284 20 34.5 20H26.5C25.6716 20 25 20.6716 25 21.5C25 22.3284 25.6716 23 26.5 23H34.5C35.3284 23 36 22.3284 36 21.5ZM34.5 27C35.3284 27 36 27.6716 36 28.5C36 29.3284 35.3284 30 34.5 30H26.5C25.6716 30 25 29.3284 25 28.5C25 27.6716 25.6716 27 26.5 27H34.5ZM36 35.5C36 34.6716 35.3284 34 34.5 34H26.5C25.6716 34 25 34.6716 25 35.5C25 36.3284 25.6716 37 26.5 37H34.5C35.3284 37 36 36.3284 36 35.5Z" class="svg-primary-fill" clip-rule="evenodd"/>
  </g>
</svg>
