<svg xmlns="http://www.w3.org/2000/svg" width="48" height="48" viewBox="0 0 48 48">
  <g class="neo-icon-kit--company">
    <g fill="#006FCF" class="svg-secondary-fill">
      <path d="M14.5 29C15.3284 29 16 29.6716 16 30.5 16 31.3284 15.3284 32 14.5 32L11.5 32C10.6716 32 10 31.3284 10 30.5 10 29.6716 10.6716 29 11.5 29H14.5zM14.5 35C15.3284 35 16 35.6716 16 36.5 16 37.3284 15.3284 38 14.5 38H11.5C10.6716 38 10 37.3284 10 36.5 10 35.6716 10.6716 35 11.5 35H14.5zM34.5 20C35.3284 20 36 20.6716 36 21.5 36 22.3284 35.3284 23 34.5 23L26.5 23C25.6716 23 25 22.3284 25 21.5 25 20.6716 25.6716 20 26.5 20L34.5 20zM34.5 27C35.3284 27 36 27.6716 36 28.5 36 29.3284 35.3284 30 34.5 30L26.5 30C25.6716 30 25 29.3284 25 28.5 25 27.6716 25.6716 27 26.5 27L34.5 27zM34.5 34C35.3284 34 36 34.6716 36 35.5 36 36.3284 35.3284 37 34.5 37H26.5C25.6716 37 25 36.3284 25 35.5 25 34.6716 25.6716 34 26.5 34H34.5z"/>
    </g>
    <path fill="#006FCF" fill-rule="evenodd" d="M29 4.5C29 3.67157 29.6716 3 30.5 3C31.3284 3 32 3.67157 32 4.5V7L37.5 7C38.2766 7 38.9154 7.59025 38.9923 8.34663C38.9974 8.39706 39 8.44822 39 8.5V13H41.5C42.3284 13 43 13.6716 43 14.5V43.5C43 44.3284 42.3284 45 41.5 45H6.5C5.67157 45 5 44.3284 5 43.5V24.5C5 23.6716 5.67157 23 6.5 23H18V14.5C18 13.6716 18.6716 13 19.5 13H22V8.5C22 7.67157 22.6716 7 23.5 7L29 7V4.5ZM40 42V16L21 16V42H40ZM8 26H18V42H8V26ZM25 13V10L36 10V13L25 13Z" class="svg-primary-fill" clip-rule="evenodd"/>
  </g>
</svg>
