<svg xmlns="http://www.w3.org/2000/svg" width="48" height="48" viewBox="0 0 48 48">
  <g class="neo-icon-kit--concierge-filled">
    <path fill="#006FCF" fill-rule="evenodd" d="M27 6C27.8286 6 28.5 6.67223 28.5 7.50078C28.5 8.2806 27.9053 8.92194 27.1445 8.99469L25.5 9.00156V12.1388C34.6146 12.8966 41.8265 20.4653 41.9969 29.7363L42 34.4992C42 35.279 41.4053 35.9204 40.6445 35.9931L7.5 36C6.72013 36 6.07953 35.4045 6.00686 34.6437L6 30.0721C6 20.7609 13.1034 13.0903 22.1714 12.1692L22.5 12.1388V9.00156H21C20.1714 9.00156 19.5 8.32934 19.5 7.50078C19.5 6.72096 20.0947 6.07963 20.8555 6.00687L27 6ZM43.5 39C44.3286 39 45 39.6719 45 40.5C45 41.2794 44.4053 41.9204 43.6445 41.9931L4.5 42C3.67139 42 3 41.3281 3 40.5C3 39.7206 3.59472 39.0796 4.35551 39.0069L43.5 39ZM13.7367 23.5448C15.3993 21.0228 17.6845 19.2257 20.6627 18.5384C21.4699 18.3521 22.2753 18.8555 22.4616 19.6627C22.6479 20.4699 22.1445 21.2753 21.3373 21.4616C19.1797 21.9595 17.5088 23.2735 16.2414 25.196C15.6462 26.0988 15.1816 27.0757 14.8367 28.0527C14.7685 28.2458 14.7101 28.4233 14.6608 28.5824L14.5744 28.8753L14.4358 29.4345C14.2154 30.1661 13.4704 30.6238 12.7058 30.4709C11.8935 30.3084 11.3667 29.5182 11.5291 28.7058C11.5686 28.5084 11.6332 28.2435 11.7266 27.9231L12.0078 27.0538C12.4291 25.8607 12.9966 24.6674 13.7367 23.5448Z" class="svg-primary-fill" clip-rule="evenodd"/>
  </g>
</svg>
