<svg xmlns="http://www.w3.org/2000/svg" width="48" height="48" viewBox="0 0 48 48">
  <g class="neo-icon-kit--concierge">
    <path fill="#006FCF" fill-rule="evenodd" d="M28.5 7.50078C28.5 6.67223 27.8286 6 27 6L20.8555 6.00687C20.0947 6.07963 19.5 6.72096 19.5 7.50078C19.5 8.32934 20.1714 9.00156 21 9.00156H22.5V12.1388L22.1714 12.1692C13.1034 13.0903 6 20.7609 6 30.0721L6.00686 34.6437C6.07953 35.4045 6.72013 36 7.5 36L40.6445 35.9931C41.4053 35.9204 42 35.279 42 34.4992L41.9969 29.7363C41.8265 20.4653 34.6146 12.8966 25.5 12.1388V9.00156L27.1445 8.99469C27.9053 8.92194 28.5 8.2806 28.5 7.50078ZM45 40.5C45 39.6719 44.3286 39 43.5 39L4.35551 39.0069C3.59472 39.0796 3 39.7206 3 40.5C3 41.3281 3.67139 42 4.5 42L43.6445 41.9931C44.4053 41.9204 45 41.2794 45 40.5ZM24 15C15.8337 15 9.1706 21.5868 9.00322 29.7483L9 33H39V30.0629C39 21.7567 32.271 15 24 15ZM22.4616 19.6627C22.2753 18.8555 21.4699 18.3521 20.6627 18.5384C17.6845 19.2257 15.3993 21.0228 13.7367 23.5448C12.9966 24.6674 12.4291 25.8607 12.0078 27.0538L11.7266 27.9231L11.674 28.1086C11.6084 28.3468 11.5607 28.5479 11.5291 28.7058C11.3667 29.5182 11.8935 30.3084 12.7058 30.4709C13.5182 30.6333 14.3084 30.1065 14.4709 29.2942L14.5744 28.8753L14.6608 28.5824C14.7101 28.4233 14.7685 28.2458 14.8367 28.0527C15.1816 27.0757 15.6462 26.0988 16.2414 25.196C17.5088 23.2735 19.1797 21.9595 21.3373 21.4616C22.1445 21.2753 22.6479 20.4699 22.4616 19.6627Z" class="svg-primary-fill" clip-rule="evenodd"/>
  </g>
</svg>
