<svg xmlns="http://www.w3.org/2000/svg" width="48" height="48" viewBox="0 0 48 48">
  <g class="neo-icon-kit--construction" clip-path="url(#a)">
    <path fill="#006FCF" d="M41.847 13.8201L41.965 14.5401C42.029 14.9531 42.0059 15.375 41.8973 15.7786C41.7887 16.1822 41.597 16.5587 41.3344 16.8839C41.0718 17.2091 40.7442 17.4758 40.3725 17.667C40.0008 17.8582 39.5933 17.9696 39.176 17.9941L39 18.0001L37.195 17.9991C36.6824 17.9988 36.1785 17.8673 35.7312 17.6169C35.2839 17.3666 34.9082 17.0058 34.64 16.5691L34.543 16.3991L33.905 15.2071C32.512 12.6841 31.63 11.6971 30.215 11.3441L30.055 11.3081L30.002 11.2981V14.0431C30.0019 14.778 29.732 15.4874 29.2435 16.0365C28.755 16.5856 28.0819 16.9363 27.352 17.0221L27.178 17.0371L26.994 17.0421L27.999 44.8861C28.0317 45.6713 27.754 46.4379 27.2259 47.0199C26.6978 47.6019 25.9617 47.9526 25.177 47.9961L20 48.0001C19.2138 48.0018 18.4585 47.6942 17.8972 47.1437C17.3359 46.5933 17.0137 45.8441 17 45.0581L18 17.0401C17.2663 17.0403 16.558 16.7717 16.009 16.2851L13.987 14.2451L13.874 14.3421C13.454 14.6781 12.944 14.9041 12.386 14.9761L11.998 15.0011H9C8.23495 15.0011 7.49879 14.7089 6.94207 14.1841C6.38535 13.6594 6.05014 12.9418 6.005 12.1781L6 12.0001V6.00006C6.00021 5.23503 6.29269 4.49897 6.81763 3.94244C7.34256 3.38591 8.06028 3.05095 8.824 3.00606L9 3.00206H11.997C12.627 3.00206 13.214 3.19706 13.697 3.53006L13.873 3.66006L13.957 3.73006L15.815 1.76006C16.1129 1.44388 16.476 1.19617 16.879 1.03406L17.292 0.902064C29.757 -2.11794 39.793 2.50906 41.847 13.8201ZM24 17.0401H21L20 45.0001H25L24 17.0401ZM18.348 3.73506L18 3.81706L15 7.00006H11.997V6.00006H9V12.0001H11.997V11.0001H15L18 14.0401H27V9.25006L27.007 9.13206C27.0493 8.88984 27.1669 8.66711 27.343 8.4955C27.5191 8.32388 27.7448 8.21212 27.988 8.17606L28.092 8.17006H28.647C32.574 8.24006 34.327 9.78406 36.54 13.7741L36.868 14.3741L37.196 14.9961H39L38.947 14.6561C37.3 4.61006 28.554 1.38006 18.348 3.73506Z" class="svg-primary-fill"/>
  </g>
  <defs>
    <clipPath id="a" class="a">
      <path fill="#fff" d="M0 0H48V48H0z"/>
    </clipPath>
  </defs>
</svg>
