<svg xmlns="http://www.w3.org/2000/svg" width="48" height="48" viewBox="0 0 48 48">
  <g class="neo-icon-kit--construction-filled" clip-path="url(#a)">
    <path fill="#006FCF" d="M25.174 20.0001C25.692 20 26.1899 20.2009 26.5627 20.5605C26.9356 20.9201 27.1544 21.4104 27.173 21.9281L27.998 44.8711C28.0322 45.6582 27.7554 46.4271 27.2273 47.0118C26.6993 47.5965 25.9625 47.9501 25.176 47.9961L20 48.0001C19.2123 48.0002 18.4561 47.6904 17.8948 47.1377C17.3335 46.585 17.0121 45.8337 17 45.0461L17.822 21.9291C17.8404 21.4112 18.0591 20.9207 18.4319 20.5609C18.8048 20.2011 19.3028 20 19.821 20.0001H25.174ZM41.847 13.8201L41.965 14.5401C42.029 14.9531 42.0059 15.375 41.8973 15.7786C41.7887 16.1822 41.597 16.5587 41.3344 16.8839C41.0718 17.2091 40.7442 17.4758 40.3725 17.667C40.0008 17.8582 39.5933 17.9696 39.176 17.9941L39 18.0001L37.195 17.9991C36.6824 17.9988 36.1785 17.8673 35.7312 17.6169C35.2839 17.3666 34.9082 17.0058 34.64 16.5691L34.543 16.3991L33.905 15.2071C32.512 12.6841 31.63 11.6971 30.215 11.3441L30.055 11.3081L30.002 11.2981V14.0431C30.0019 14.778 29.732 15.4874 29.2435 16.0365C28.755 16.5856 28.0819 16.9363 27.352 17.0221L27.178 17.0371L27.002 17.0421H18.002C17.2683 17.0423 16.56 16.7737 16.011 16.2871L13.989 14.2471L13.876 14.3441C13.456 14.6801 12.946 14.9061 12.388 14.9781L12 15.0031H9C8.23495 15.0031 7.49879 14.7109 6.94207 14.1861C6.38535 13.6614 6.05014 12.9438 6.005 12.1801L6 12.0001V6.00006C6.00021 5.23503 6.29269 4.49897 6.81763 3.94244C7.34256 3.38591 8.06028 3.05095 8.824 3.00606L9 3.00206H11.997C12.627 3.00206 13.214 3.19706 13.697 3.53006L13.873 3.66006L13.957 3.73006L15.815 1.76006C16.1129 1.44388 16.476 1.19617 16.879 1.03406L17.292 0.902064C29.757 -2.11794 39.793 2.50906 41.847 13.8201Z" class="svg-primary-fill"/>
  </g>
  <defs>
    <clipPath id="a" class="a">
      <path fill="#fff" d="M0 0H48V48H0z"/>
    </clipPath>
  </defs>
</svg>
