<svg xmlns="http://www.w3.org/2000/svg" width="48" height="48" viewBox="0 0 48 48">
  <g class="neo-icon-kit--copy">
    <path fill="#006FCF" fill-rule="evenodd" d="M42 4C42 2.34315 40.6569 1 39 1H15C13.3431 1 12 2.34315 12 4V8H9C7.34315 8 6 9.34315 6 11V34C6 34.553 6.31607 35.3161 7 36L17 46C17.6839 46.6839 18.447 47 19 47H32C33.6569 47 35 45.6569 35 44V41H39C40.6569 41 42 39.6569 42 38V4ZM9 11H32V44H21V34C21 32.8853 20.1147 32 19 32H9V11ZM10 35L18 43V35H10ZM15 4H39V38H35V11C35 9.34315 33.6569 8 32 8H15V4Z" class="svg-primary-fill" clip-rule="evenodd"/>
  </g>
</svg>
