<svg xmlns="http://www.w3.org/2000/svg" width="48" height="48" viewBox="0 0 48 48">
  <g class="neo-icon-kit--credit-score-filled">
    <path fill="#006FCF" fill-rule="evenodd" d="M47.5 32.381C47.5 19.1097 36.8968 8 24 8C11.1032 8 0.5 19.1097 0.5 32.381C0.5 33.2225 1.17157 33.9048 2 33.9048L16.6501 33.9054C17.3453 37.3828 20.3718 40 24 40C27.6282 40 30.6547 37.3828 31.3499 33.9054L46 33.9048C46.8284 33.9048 47.5 33.2225 47.5 32.381ZM33.5533 20.5322C34.1424 20.044 35.0115 20.0789 35.5607 20.6368C36.1098 21.1947 36.1442 22.0775 35.6636 22.6761L35.5607 22.7918L28.0614 30.4099L28.1609 30.637C28.3794 31.1744 28.5 31.7634 28.5 32.381C28.5 34.9057 26.4853 36.9524 24 36.9524C21.5147 36.9524 19.5 34.9057 19.5 32.381C19.5 29.8562 21.5147 27.8095 24 27.8095C24.6079 27.8095 25.1877 27.932 25.7167 28.154L25.9403 28.2551L33.4393 20.6368L33.5533 20.5322Z" class="svg-primary-fill" clip-rule="evenodd"/>
  </g>
</svg>
