<svg xmlns="http://www.w3.org/2000/svg" width="48" height="48" viewBox="0 0 48 48">
  <g class="neo-icon-kit--credit-score">
    <path fill="#006FCF" fill-rule="evenodd" d="M24 8C36.8968 8 47.5 19.1097 47.5 32.381C47.5 33.2225 46.8284 33.9048 46 33.9048L31.3496 33.9064C30.6541 37.3833 27.6279 40 24 40C20.3721 40 17.3459 37.3833 16.6504 33.9064L2 33.9048C1.17157 33.9048 0.5 33.2225 0.5 32.381C0.5 19.1097 11.1032 8 24 8ZM24 27.8095C21.9492 27.8095 20.2188 29.2032 19.6765 31.1091L19.6184 31.3348L19.5578 31.6465L19.5257 31.8897L19.5099 32.0747C19.5033 32.1759 19.5 32.278 19.5 32.381L19.5089 32.6714L19.525 32.8655L19.5551 33.0985C19.5745 33.2233 19.5988 33.3465 19.628 33.4678L19.6823 33.6732C20.2311 35.5687 21.9565 36.9524 24 36.9524C26.0523 36.9524 27.7837 35.5567 28.3247 33.6488L28.383 33.4212L28.4298 33.1896L28.4664 32.9428L28.4911 32.6711C28.497 32.5751 28.5 32.4784 28.5 32.381L28.49 32.0743L28.4743 31.8896L28.4423 31.6468C28.4229 31.5248 28.3987 31.4044 28.3701 31.2858L28.3096 31.0612C28.2135 30.7369 28.0829 30.4278 27.9222 30.1382L27.8096 29.9467L27.6802 29.7496L27.5422 29.5612L27.393 29.378L27.2095 29.1766L27.0101 28.9828L26.8223 28.8202C26.6211 28.6554 26.4056 28.5078 26.178 28.3797C25.5325 28.0163 24.79 27.8095 24 27.8095ZM3.55349 30.8571C4.32217 19.9336 13.2758 11.0476 24 11.0476C34.6076 11.0476 43.483 19.7414 44.4185 30.5017L44.4465 30.8571L31.3499 30.8565C31.1554 29.8839 30.7786 28.9786 30.2572 28.179L35.5607 22.7918L35.6636 22.6761C36.1442 22.0775 36.1098 21.1947 35.5607 20.6368C34.9749 20.0417 34.0251 20.0417 33.4393 20.6368L28.1367 26.0246C26.9509 25.2266 25.5289 24.7619 24 24.7619C20.3718 24.7619 17.3453 27.3791 16.6501 30.8565L3.55349 30.8571Z" class="svg-primary-fill" clip-rule="evenodd"/>
  </g>
</svg>
