<svg xmlns="http://www.w3.org/2000/svg" width="48" height="48" viewBox="0 0 48 48">
  <g class="neo-icon-kit--data-protection-filled">
    <path fill="#006FCF" fill-rule="evenodd" d="M3 6H33C34.5911 6 35.9032 7.25527 35.9949 8.82441L36 9V12.0073C39.2334 12.0073 41.8773 14.5778 41.9959 17.7827L42 18.0073V21H45C46.5911 21 47.9032 22.2553 47.9949 23.8244L48 24V39C48 40.591 46.7447 41.9032 45.1756 41.9949L45 42H27C25.4089 42 24.0968 40.7447 24.0051 39.1756L24 39V36H3C1.40891 36 0.0968096 34.7447 0.0051179 33.1756L0 33V9C0 7.40891 1.25527 6.09681 2.82441 6.00512L3 6ZM36 27C34.7574 27 33.75 28.0073 33.75 29.25C33.75 29.8474 33.9872 30.3854 34.3679 30.7873L34.5 30.9161V34.5C34.5 35.3281 35.1719 36 36 36C36.7794 36 37.4204 35.4048 37.4931 34.6444L37.5 34.5V30.9161C37.9572 30.5042 38.25 29.9138 38.25 29.25C38.25 28.0073 37.2426 27 36 27ZM3 18H30.0004L30 21H27L26.8244 21.0051C25.2553 21.0968 24 22.4089 24 24V33H3V18ZM35.9737 15C34.545 15 33.3513 15.9908 33.0361 17.3162L33 17.4909V21H39V18.0073C39 16.349 37.6425 15 35.9737 15ZM12.5 12C12.5 11.1716 13.1716 10.5 14 10.5C14.8284 10.5 15.5 11.1716 15.5 12C15.5 12.8284 14.8284 13.5 14 13.5C13.1716 13.5 12.5 12.8284 12.5 12ZM10 10.5C9.17157 10.5 8.5 11.1716 8.5 12C8.5 12.8284 9.17157 13.5 10 13.5C10.8284 13.5 11.5 12.8284 11.5 12C11.5 11.1716 10.8284 10.5 10 10.5ZM4.5 12C4.5 11.1716 5.17157 10.5 6 10.5C6.82843 10.5 7.5 11.1716 7.5 12C7.5 12.8284 6.82843 13.5 6 13.5C5.17157 13.5 4.5 12.8284 4.5 12Z" class="svg-primary-fill" clip-rule="evenodd"/>
  </g>
</svg>
