<svg xmlns="http://www.w3.org/2000/svg" width="48" height="48" viewBox="0 0 48 48">
  <g class="neo-icon-kit--data-protection">
    <path fill="#006FCF" fill-rule="evenodd" d="M3 6H33C34.5911 6 35.9032 7.25527 35.9949 8.82441L36 9V12.0073C39.2334 12.0073 41.8773 14.5778 41.9959 17.7827L42 18.0073V21H45C46.5911 21 47.9032 22.2553 47.9949 23.8244L48 24V39C48 40.591 46.7447 41.9032 45.1756 41.9949L45 42H27C25.4089 42 24.0968 40.7447 24.0051 39.1756L24 39V36H3C1.40891 36 0.0968098 34.7447 0.00511791 33.1756L0 33V9C0 7.40891 1.25527 6.09681 2.82441 6.00512L3 6ZM27 24V39H45V24H27ZM38.25 29.25C38.25 28.0073 37.2426 27 36 27C34.7574 27 33.75 28.0073 33.75 29.25C33.75 29.9138 34.0428 30.5042 34.5 30.9161V34.5L34.5069 34.6444C34.5796 35.4048 35.2206 36 36 36C36.8281 36 37.5 35.3281 37.5 34.5V30.9161L37.6321 30.7873C38.0128 30.3854 38.25 29.8474 38.25 29.25ZM30.0004 18H3V33H24V24C24 22.4089 25.2553 21.0968 26.8244 21.0051L27 21H30L30.0004 18ZM33.0051 17.8309C33.0965 16.2544 34.4048 15 36 15C37.6543 15 39 16.349 39 18.0073V21H33V18.0073L33.0051 17.8309ZM33 9H3V15H30.8162C31.2897 14.187 31.9474 13.496 32.7333 12.9833L33 12.8191V9ZM7.5 12C7.5 11.1716 6.82843 10.5 6 10.5C5.17157 10.5 4.5 11.1716 4.5 12C4.5 12.8284 5.17157 13.5 6 13.5C6.82843 13.5 7.5 12.8284 7.5 12ZM10 10.5C10.8284 10.5 11.5 11.1716 11.5 12C11.5 12.8284 10.8284 13.5 10 13.5C9.17157 13.5 8.5 12.8284 8.5 12C8.5 11.1716 9.17157 10.5 10 10.5ZM15.5 12C15.5 11.1716 14.8284 10.5 14 10.5C13.1716 10.5 12.5 11.1716 12.5 12C12.5 12.8284 13.1716 13.5 14 13.5C14.8284 13.5 15.5 12.8284 15.5 12Z" class="svg-primary-fill" clip-rule="evenodd"/>
  </g>
</svg>
