<svg xmlns="http://www.w3.org/2000/svg" width="48" height="48" viewBox="0 0 48 48">
  <g class="neo-icon-kit--dental-filled" clip-path="url(#a)">
    <path fill="#006FCF" d="M33.3199 0C34.8279 0 36.3399 0.565 37.4799 1.418L37.7029 1.592L37.8509 1.719C38.6539 2.433 39.0509 2.834 39.5809 3.549C40.1009 4.253 40.5469 5.049 40.9169 5.993C41.6929 7.953 42.0669 10.895 41.9909 13.193L41.9709 13.613L41.8969 14.877L41.8339 15.783C41.7219 17.228 41.5659 18.368 41.2969 19.501L41.2129 19.841L41.0109 20.616C40.6343 22.1382 40.1039 23.6181 39.4279 25.033L39.1619 25.573L39.0099 25.859L38.2729 27.179L38.1489 27.409L38.0339 27.627L37.8209 28.051L37.7409 28.233C37.6009 28.587 37.5489 28.941 37.5409 29.761V30.175L37.5489 31.328L37.5439 31.956C37.5119 33.572 37.3209 35.168 36.9769 37.061C36.7797 38.1128 36.5063 39.1488 36.1589 40.161L35.9749 40.707L35.6709 41.567C35.2709 42.714 34.4709 44.193 33.5849 45.567C32.5229 47.222 31.5899 48 30.1039 48C28.4439 48 27.1489 46.765 26.5689 44.894C26.4029 44.359 26.3239 43.778 26.2669 42.64L26.2329 41.827L26.1459 39.167L25.9919 37.16L25.9469 36.884L25.8489 36.181L25.8009 35.807L25.6459 34.672L25.5139 33.899C25.1439 31.984 24.6339 31.157 24.0079 31.159C23.2829 31.162 22.7539 32.055 22.4009 34.139L22.3269 34.612L22.2919 34.864L22.2219 35.412L22.0239 37.132L21.8779 39.312L21.8009 41.517L21.5509 44.449L21.4939 44.689L21.4359 44.893C20.8569 46.763 19.5599 48 17.8999 48C16.4159 48 15.4799 47.222 14.4239 45.574C13.6099 44.307 12.8789 42.958 12.4469 41.856L12.3469 41.562L12.1139 40.907C11.6059 39.457 11.2659 38.287 11.0409 37.051C10.7009 35.177 10.5109 33.594 10.4749 31.988L10.4689 31.452L10.4769 29.949L10.4719 29.545C10.4579 28.933 10.4119 28.611 10.3089 28.315L10.2389 28.139L10.1929 28.039L9.97992 27.615L9.73992 27.168L8.83992 25.563L8.57392 25.023L8.27392 24.366C7.83601 23.3887 7.47427 22.379 7.19192 21.346L6.98492 20.588L6.78492 19.828L6.53892 18.721C6.35927 17.7827 6.23737 16.8342 6.17392 15.881L6.14792 15.521L6.04792 13.929L6.00792 13.184C5.93092 10.884 6.30592 7.951 7.08192 5.991C7.77892 4.229 8.57892 3.157 9.78392 2.041L10.1459 1.714C11.4148 0.63169 13.0213 0.0255806 14.6889 0C15.5589 0 16.5849 0.307 18.2139 0.954L20.6739 1.956L21.0389 2.098L21.2139 2.161L21.4359 2.231L21.9199 2.361C22.3992 2.46931 22.8864 2.53854 23.3769 2.568L23.7769 2.588L23.9999 2.595C24.9019 2.579 25.6999 2.495 26.4439 2.273L26.6679 2.207L26.8979 2.13L27.0399 2.078L29.8099 0.954L30.3939 0.727C31.6799 0.235 32.5599 0 33.3199 0ZM32.2499 8.168C32.0431 7.85813 31.7284 7.63631 31.367 7.54574C31.0056 7.45516 30.6234 7.50231 30.2949 7.678L30.1709 7.752L29.7909 8.008C28.1039 9.142 26.9999 9.5 24.0039 9.5C21.5839 9.5 20.3539 9.126 18.1899 7.94L17.7399 7.69C17.4036 7.50127 17.0074 7.44934 16.6338 7.54502C16.2602 7.64069 15.9378 7.8766 15.7335 8.20377C15.5293 8.53093 15.4589 8.92419 15.537 9.30189C15.6151 9.67958 15.8357 10.0127 16.1529 10.232L16.2759 10.308L16.7519 10.572C19.3319 11.972 21.0019 12.499 24.0049 12.499C27.4849 12.499 29.1749 11.992 31.2319 10.649L31.8319 10.247C32.1629 10.0263 32.3926 9.68322 32.4707 9.29315C32.5487 8.90308 32.4686 8.498 32.2479 8.167L32.2499 8.168Z" class="svg-primary-fill"/>
  </g>
  <defs>
    <clipPath id="a" class="a">
      <path fill="#fff" d="M0 0H48V48H0z"/>
    </clipPath>
  </defs>
</svg>
