<svg xmlns="http://www.w3.org/2000/svg" width="48" height="48" viewBox="0 0 48 48">
  <g class="neo-icon-kit--dental">
    <path fill="#006FCF" d="M33.3201 0C34.8281 0 36.3401 0.565 37.4801 1.418L37.7031 1.592L37.8511 1.719C38.6541 2.433 39.0512 2.834 39.5812 3.549C40.1012 4.253 40.5471 5.049 40.9171 5.993C41.6931 7.953 42.0671 10.895 41.9911 13.193L41.9711 13.613L41.8971 14.877L41.8341 15.783C41.7221 17.228 41.5661 18.368 41.2971 19.501L41.0001 20.606C40.5281 22.386 40.1731 23.393 39.4171 25.023L39.0001 25.85L38.2631 27.17L38.0231 27.617L37.8101 28.041L37.7301 28.223C37.5901 28.577 37.5381 28.931 37.5301 29.751V31.946C37.4981 33.562 37.3071 35.158 36.9631 37.051C36.7652 38.1026 36.4919 39.1386 36.1451 40.151L35.6571 41.556C35.2571 42.703 34.4571 44.182 33.5701 45.556C32.5231 47.222 31.5881 48 30.1041 48C28.4441 48 27.1481 46.765 26.5681 44.894C26.4021 44.359 26.3231 43.778 26.2661 42.64L26.1461 39.166L25.9921 37.159L25.6471 34.672L25.5151 33.899C25.1451 31.984 24.6351 31.157 24.0091 31.159C23.2841 31.162 22.7551 32.055 22.4021 34.139L22.3021 34.864L22.2321 35.412L22.0341 37.157L21.8881 39.311L21.8111 41.516L21.5611 44.448L21.4451 44.891C20.8651 46.761 19.5691 47.997 17.9091 47.997C16.4251 47.997 15.4891 47.219 14.4321 45.571C13.6181 44.304 12.8871 42.955 12.4541 41.853L12.1111 40.903C11.6031 39.453 11.2631 38.283 11.0381 37.047C10.6981 35.173 10.5081 33.59 10.4721 31.984L10.4691 29.541C10.4551 28.929 10.4091 28.607 10.3061 28.311L9.73915 27.165L9.13915 26.095L8.58415 25.02L8.28415 24.363C7.84624 23.3857 7.4845 22.376 7.20215 21.343L6.79615 19.825L6.55015 18.718C6.3705 17.7797 6.2486 16.8312 6.18515 15.878L6.05915 13.928L6.01915 13.183C5.94215 10.883 6.31715 7.95 7.09315 5.99C7.79015 4.228 8.59015 3.156 9.79615 2.04L10.1581 1.713C11.2771 0.72 13.0001 0 14.6841 0C15.5541 0 16.5811 0.307 18.2101 0.954L20.6701 1.956L21.4321 2.231L21.9161 2.361C22.3954 2.46931 22.8827 2.53854 23.3731 2.568L23.9851 2.594C24.8871 2.578 25.6851 2.494 26.4301 2.272L26.8841 2.129L27.0261 2.077L29.7961 0.953L30.3801 0.726C31.6781 0.235 32.5601 0 33.3201 0ZM33.3201 3.064C32.9521 3.064 32.1961 3.287 31.0461 3.734L28.1061 4.926L27.5591 5.123L26.8111 5.323C26.0491 5.508 25.2671 5.603 24.4081 5.639L23.9721 5.651L23.6761 5.644C22.6761 5.609 21.7241 5.484 20.8081 5.224L20.4451 5.117C20.3331 5.082 20.0151 4.963 19.4921 4.759L17.6151 4L16.4871 3.56C15.5871 3.232 14.9871 3.068 14.6821 3.068C13.7806 3.08992 12.9085 3.39344 12.1881 3.936L11.7111 4.356C10.8181 5.183 10.2811 5.91 9.78115 7.174C9.18715 8.674 8.88115 11.174 8.92815 13.052L8.94515 13.419L9.04215 15.019L9.24215 17.234L9.39215 18.126L9.59415 19.034L9.84715 19.998C10.1871 21.258 10.4351 21.992 10.8521 22.948L11.1861 23.688L11.5161 24.341L12.2481 25.641L12.6041 26.313L12.7681 26.643L12.9381 27.027C13.2441 27.779 13.3451 28.387 13.3651 29.534L13.3611 31.456C13.3611 33.02 13.5351 34.564 13.8811 36.473C14.0491 37.398 14.3031 38.31 14.6771 39.415L15.0521 40.485C15.3681 41.368 16.0551 42.657 16.8271 43.858L17.0251 44.158C17.4531 44.788 17.6551 44.932 17.8851 44.932C18.1351 44.932 18.4251 44.656 18.6471 43.932L18.6821 43.795C18.7491 43.495 18.7981 42.952 18.8421 42.041L18.9641 38.798L19.1091 36.798L19.3491 34.72L19.5121 33.6C20.0881 30.203 21.3321 28.102 23.9821 28.092C26.5041 28.082 27.7391 30.092 28.3571 33.287L28.5091 34.173L28.9091 37.15L29.0091 38.444L29.1311 41.881L29.2751 43.759L29.3181 43.942C29.5401 44.657 29.8181 44.942 30.0801 44.942C30.2801 44.942 30.4801 44.819 30.8451 44.305L31.1381 43.867C31.9101 42.667 32.5981 41.367 32.9131 40.494L33.2911 39.417L33.5091 38.751C33.7495 38.0081 33.9419 37.2505 34.0851 36.483C34.4001 34.747 34.5721 33.313 34.6011 31.883L34.5981 29.815C34.6081 28.488 34.6981 27.845 35.0251 27.037L35.1451 26.757L35.3211 26.397L35.8711 25.369L36.4511 24.333L36.7811 23.68C37.4011 22.347 37.6992 21.535 38.0812 20.176L38.3841 19.026C38.6761 17.891 38.8311 16.726 38.9441 15.091L39.0441 13.411C39.1601 11.503 38.8411 8.767 38.2071 7.166C37.9682 6.54558 37.6488 5.95924 37.2571 5.422C36.9291 4.977 36.6691 4.702 36.1711 4.252L35.8711 3.987C35.139 3.40801 34.2383 3.08298 33.3051 3.061L33.3121 3.055L33.3201 3.064ZM32.2501 8.168C32.4708 8.499 32.5509 8.90408 32.4729 9.29415C32.3949 9.68422 32.1651 10.0273 31.8341 10.248L31.4641 10.498C29.2971 11.954 27.6141 12.5 24.0041 12.5C20.9991 12.5 19.3271 11.982 16.7491 10.573L16.2731 10.309C16.0433 10.1805 15.8513 9.99381 15.7164 9.76761C15.5816 9.54141 15.5087 9.2837 15.5051 9.02039C15.5014 8.75708 15.5672 8.49746 15.6957 8.26761C15.8242 8.03776 16.0109 7.84579 16.2371 7.711C16.4633 7.57614 16.721 7.5032 16.9843 7.49952C17.2476 7.49583 17.5073 7.56153 17.7371 7.69L17.8571 7.756C20.2331 9.088 21.4601 9.5 24.0021 9.5C26.9981 9.5 28.1021 9.142 29.7881 8.008L30.1681 7.752C30.4991 7.53136 30.9042 7.45124 31.2943 7.52925C31.6844 7.60727 32.0275 7.83703 32.2481 8.168H32.2501Z" class="svg-primary-fill"/>
  </g>
</svg>
