<svg xmlns="http://www.w3.org/2000/svg" width="48" height="48" viewBox="0 0 48 48">
  <g class="neo-icon-kit--desktop">
    <path fill="#006FCF" fill-rule="evenodd" d="M48 7C48 5.34315 46.6569 4 45 4H3C1.34315 4 0 5.34315 0 7V33.001C0 34.6579 1.34315 36.001 3 36.001H16.723C16.523 36.827 16.323 37.507 16.123 38.039C15.82 38.851 15.274 39.976 14.49 41.396C14.164 41.837 14 42.205 14 42.5C14 43.3284 14.6716 44 15.5 44H32.5L32.634 43.993C33.0755 43.9504 33.4754 43.7146 33.7265 43.3489C33.9775 42.9833 34.0538 42.5253 33.935 42.098L33.435 41.072C32.745 39.803 32.258 38.788 31.978 38.038L31.378 36H45C46.6569 36 48 34.6569 48 33V7ZM19.708 36H28.199C28.479 37.255 28.769 38.282 29.071 39.09L29.917 40.998H17.99C18.35 40.272 18.631 39.637 18.836 39.09C19.138 38.28 19.428 37.254 19.708 36ZM45 7H3V33H45V7ZM26 12C26 10.8954 25.1046 10 24 10C22.8954 10 22 10.8954 22 12C22 13.1046 22.8954 14 24 14C25.1046 14 26 13.1046 26 12Z" class="svg-primary-fill" clip-rule="evenodd"/>
  </g>
</svg>
