<svg xmlns="http://www.w3.org/2000/svg" width="48" height="48" viewBox="0 0 48 48">
  <g class="neo-icon-kit--desktop-filled">
    <path fill="#006FCF" fill-rule="evenodd" d="M45 4C46.6569 4 48 5.34315 48 7V33C48 34.6569 46.6569 36 45 36H31.378L31.978 38.038C32.258 38.788 32.745 39.803 33.435 41.072L33.935 42.098C34.0538 42.5253 33.9775 42.9833 33.7265 43.3489C33.4754 43.7146 33.0755 43.9504 32.634 43.993L32.5 44H15.5C14.6716 44 14 43.3284 14 42.5C14 42.205 14.164 41.837 14.49 41.396C15.274 39.976 15.82 38.851 16.123 38.039C16.323 37.507 16.523 36.827 16.723 36.001H3C1.34315 36.001 0 34.6579 0 33.001V7C0 5.34315 1.34315 4 3 4H45ZM28.199 36H19.708C19.428 37.254 19.138 38.28 18.836 39.09C18.631 39.637 18.35 40.272 17.99 40.998H29.917L29.071 39.09C28.769 38.282 28.479 37.255 28.199 36ZM22 12C22 10.8954 22.8954 10 24 10C25.1046 10 26 10.8954 26 12C26 13.1046 25.1046 14 24 14C22.8954 14 22 13.1046 22 12Z" class="svg-primary-fill" clip-rule="evenodd"/>
  </g>
</svg>
