<svg xmlns="http://www.w3.org/2000/svg" width="48" height="48" viewBox="0 0 48 48">
  <g class="neo-icon-kit--dining">
    <path fill="#006FCF" fill-rule="evenodd" d="M21 1.5C21 0.67139 21.6719 0 22.5 0C23.3281 0 24 0.67139 24 1.5V13.5C24 15.9814 21.9815 18 19.5 18H18V46.5C18 47.3281 17.3281 48 16.5 48C15.6719 48 15 47.3281 15 46.5V18H13.5C11.0185 18 9 15.9814 9 13.5V1.5C9 0.67139 9.67139 0 10.5 0C11.3286 0 12 0.67139 12 1.5V9H15V1.5C15 0.67139 15.6719 0 16.5 0C17.3281 0 18 0.67139 18 1.5V9H21V1.5ZM38.5361 0.41064C38.2363 0.12744 37.834 -0.02051 37.4228 0.00244C32.8672 0.25293 29.4326 6.70068 29.4326 15L29.4303 15.6826L29.4045 18.6321C29.3919 22.4382 29.5941 25.6732 31.5293 27.6299C32.5947 28.707 34.0762 29.2539 35.9307 29.2539L36.0049 29.2508V46.5L36.0118 46.6444C36.0845 47.4048 36.7255 48 37.5049 48C38.333 48 39.0049 47.3281 39.0049 46.5V1.5L38.997 1.34649C38.9604 0.991112 38.7976 0.658449 38.5361 0.41064ZM36.0049 26.2539V3.72607C34.1551 5.31511 32.5186 9.36521 32.4359 14.5855L32.4303 15.6935L32.4055 18.4632C32.3907 21.5809 32.5105 24.3565 33.6621 25.5205C34.1236 25.9866 34.7857 26.2154 35.7559 26.2494L36.0049 26.2539ZM21 13.5V12H12V13.5C12 14.3272 12.6729 15 13.5 15H19.5C20.3271 15 21 14.3272 21 13.5Z" class="svg-primary-fill" clip-rule="evenodd"/>
  </g>
</svg>
