<svg xmlns="http://www.w3.org/2000/svg" width="48" height="48" viewBox="0 0 48 48">
  <g class="neo-icon-kit--dining-filled">
    <path fill="#006FCF" fill-rule="evenodd" d="M23.9931 1.35551C23.9204 0.594726 23.2794 0 22.5 0C21.6719 0 21 0.67139 21 1.5V9H18V1.5L17.9931 1.35551C17.9204 0.594726 17.2794 0 16.5 0C15.6719 0 15 0.67139 15 1.5V9H12V1.5L11.9931 1.35551C11.9204 0.594726 11.2794 0 10.5 0C9.67188 0 9 0.67139 9 1.5V13.5L9.00491 13.7115C9.11572 16.0951 11.0894 18 13.5 18H15V46.5L15.0069 46.6444C15.0796 47.4048 15.7206 48 16.5 48C17.3281 48 18 47.3281 18 46.5V18H19.5L19.7115 17.9951C22.0951 17.8843 24 15.9106 24 13.5V1.5L23.9931 1.35551ZM38.5361 0.41064C38.2363 0.12744 37.835 -0.02051 37.4228 0.00244C32.8672 0.25293 29.4326 6.70068 29.4326 15L29.4303 15.6826L29.4045 18.6321C29.3919 22.4382 29.5941 25.6732 31.5293 27.6299C32.5947 28.707 34.0762 29.2539 35.9307 29.2539L36.0049 29.2508V46.5L36.0118 46.6444C36.0845 47.4048 36.7255 48 37.5049 48C38.333 48 39.0049 47.3281 39.0049 46.5V1.5L38.997 1.34649C38.9604 0.991112 38.7976 0.658449 38.5361 0.41064Z" class="svg-primary-fill" clip-rule="evenodd"/>
  </g>
</svg>
