<svg xmlns="http://www.w3.org/2000/svg" width="48" height="48" viewBox="0 0 48 48">
  <g class="neo-icon-kit--direction-filled">
    <path fill="#006FCF" fill-rule="evenodd" d="M27.1942 1.32034C26.3427 0.468895 25.2081 0 23.9992 0C22.7893 0 21.6558 0.468895 20.8043 1.32034L1.32035 20.8041C0.4689 21.6555 0 22.7901 0 23.999C0 25.2079 0.4689 26.3425 1.32035 27.1939L20.8043 46.6787C21.6859 47.5592 22.8426 48 23.9992 48C25.1559 48 26.3136 47.5592 27.1942 46.6787L46.6791 27.1939C48.4403 25.4318 48.4403 22.5662 46.6791 20.8051L27.1942 1.32034ZM28.4382 13.3419L34.5603 19.4464L34.6637 19.5607C35.1141 20.1126 35.1121 20.91 34.6577 21.4597L28.5453 27.5739L28.4312 27.6768C27.8416 28.1571 26.9719 28.1228 26.4223 27.5739C25.8705 27.0229 25.8381 26.1496 26.3249 25.5606L29.8749 22.0055L20.5035 22.0057L20.3589 22.0126C19.6453 22.0807 19.0774 22.6478 19.0092 23.3606L19.0023 23.5049V31.5008L18.9955 31.6452C18.9227 32.4054 18.2815 33 17.5012 33C16.7209 33 16.0796 32.4054 16.0069 31.6452L16 31.5008V23.5049L16.0052 23.2868C16.1158 20.9743 17.9751 19.1194 20.2915 19.0122L20.5035 19.0073L29.8742 19.0068L26.4223 15.5593L26.3189 15.445C25.8685 14.8931 25.8705 14.0957 26.3249 13.5461L26.4223 13.4391L26.5368 13.3358C27.0894 12.8861 27.8878 12.8881 28.4382 13.3419Z" class="svg-primary-fill" clip-rule="evenodd"/>
  </g>
</svg>
