<svg xmlns="http://www.w3.org/2000/svg" width="48" height="48" viewBox="0 0 48 48">
  <g class="neo-icon-kit--direction">
    <path fill="#006FCF" fill-rule="evenodd" d="M23.9992 0C25.2081 0 26.3427 0.468895 27.1942 1.32034L46.6791 20.8051C48.4403 22.5662 48.4403 25.4318 46.6791 27.1939L27.1942 46.6787C26.3136 47.5592 25.1559 48 23.9992 48C22.8426 48 21.6859 47.5592 20.8043 46.6787L1.32035 27.1939C0.4689 26.3425 0 25.2079 0 23.999C0 22.7901 0.4689 21.6555 1.32035 20.8041L20.8043 1.32034C21.6558 0.468895 22.7893 0 23.9992 0ZM23.9985 3C23.5936 3 23.2159 3.15572 22.9336 3.43801L3.43801 22.9336C3.15471 23.2159 3 23.5946 3 23.9985C3 24.4034 3.15471 24.7821 3.43801 25.0644L22.9326 44.56C23.5203 45.1467 24.4767 45.1467 25.0644 44.56L44.56 25.0644C45.1467 24.4767 45.1467 23.5213 44.56 22.9336L25.0644 3.43801C24.7811 3.15572 24.4023 3 23.9985 3ZM34.5603 19.4464L28.4382 13.3419C27.8485 12.8557 26.974 12.8881 26.4223 13.4391L26.3249 13.5461C25.8381 14.135 25.8705 15.0083 26.4223 15.5593L29.8742 19.0068L20.5035 19.0073L20.2915 19.0122C17.9027 19.1227 16 21.0919 16 23.5049V31.5008L16.0069 31.6452C16.0796 32.4054 16.7209 33 17.5012 33C18.3302 33 19.0023 32.3288 19.0023 31.5008V23.5049L19.0092 23.3606C19.0819 22.6003 19.7232 22.0057 20.5035 22.0057L29.8749 22.0055L26.3249 25.5606C25.8381 26.1496 25.8705 27.0229 26.4223 27.5739C27.0085 28.1594 27.959 28.1594 28.5453 27.5739L34.6577 21.4597C35.1445 20.8707 35.1121 19.9974 34.5603 19.4464Z" class="svg-primary-fill" clip-rule="evenodd"/>
  </g>
</svg>
