<svg xmlns="http://www.w3.org/2000/svg" width="48" height="48" viewBox="0 0 48 48">
  <g class="neo-icon-kit--document">
    <path fill="#006FCF" fill-rule="evenodd" d="M29.9999 0.00012207V0.0167821C30.2981 0.0377135 30.5928 0.135318 30.8384 0.330363L30.957 0.436102L41.5634 11.043C41.7914 11.2711 41.9186 11.5557 41.9657 11.8515L41.9826 12.0001H41.9999V45C41.9999 46.5911 40.7446 47.9032 39.1755 47.9949L38.9999 48H8.99999C7.40896 48 6.09681 46.7448 6.00512 45.1756L6 45V3.00012C6 1.40903 7.25533 0.096932 8.82441 0.00523998L8.99999 0.00012207H29.9999ZM26.9999 3.00012H8.99999V45H38.9999V15H29.9999C28.4089 15 27.0968 13.7447 27.0051 12.1756L26.9999 12V3.00012ZM29.9999 12V3.72132L38.2782 12H29.9999Z" class="svg-primary-fill" clip-rule="evenodd"/>
  </g>
</svg>
