<svg xmlns="http://www.w3.org/2000/svg" width="48" height="48" viewBox="0 0 48 48">
  <g class="neo-icon-kit--dollar-cashback-filled">
    <path fill="#006FCF" fill-rule="evenodd" d="M40.2425 7.99961C36.026 3.53642 30.1525 1 24 1C11.2975 1 1 11.2975 1 24C1 36.7025 11.2975 47 24 47C36.7025 47 47 36.7025 47 24V23L46.9945 22.8507C46.9182 21.8159 46.0544 21 45 21C43.8954 21 43 21.8954 43 23V24L42.9971 24.3378C42.8168 34.6754 34.3806 43 24 43C13.5066 43 5 34.4934 5 24C5 13.5066 13.5066 5 24 5L24.4185 5.00477C29.434 5.11906 34.1914 7.28371 37.5742 11.0048L38.479 12H37L36.8507 12.0055C35.8159 12.0818 35 12.9456 35 14C35 15.1046 35.8954 16 37 16H43L43.1528 15.9942L43.3022 15.9772L43.4587 15.9471L43.6079 15.9059L43.7629 15.8494L43.9157 15.7786L44.0597 15.6966L44.2117 15.5913L44.3376 15.4869L44.405 15.4234L44.5155 15.3052L44.5928 15.2098C44.6508 15.1335 44.7034 15.053 44.7501 14.9687L44.8271 14.8147L44.8853 14.6686L44.9145 14.5803L44.9559 14.4195L44.9819 14.2705L44.9945 14.1493L45 14V8L44.9945 7.85074C44.9182 6.81588 44.0544 6 43 6L42.8507 6.00549C41.8159 6.08183 41 6.94564 41 8V8.828L40.5339 8.31412L40.2425 7.99961ZM25.4079 12C25.4079 11.1716 24.7377 10.5 23.911 10.5C23.0842 10.5 22.414 11.1716 22.414 12V14.0613C19.1372 14.4785 16.8677 16.5303 16.8677 19.2514C16.8677 22.3964 19.1379 23.6173 22.4947 24.6655L23.2881 24.9051L23.8369 25.0638C27.7634 26.222 28.8988 27.0921 28.8988 28.9436C28.8988 30.8313 27.1592 31.9582 24.2462 31.9582C21.7222 32.1306 19.393 30.5959 18.5508 28.2054L18.4885 28.0501C18.2292 27.5258 17.6226 27.2588 17.0545 27.3945C16.4865 27.5301 16.0455 28.0583 16.05 28.6435C16.055 28.7776 16.0817 28.91 16.129 29.0355L16.1817 29.1829C17.1607 31.8848 19.5676 33.8095 22.414 34.1665V36.3C22.414 37.1284 23.0843 37.8 23.911 37.8C24.7377 37.8 25.4079 37.1284 25.4079 36.3V34.2483C29.1391 33.8525 31.65 31.7216 31.65 28.7884C31.65 25.6002 29.4153 24.2087 25.5286 23.0218L24.9332 22.8451C20.8167 21.6234 19.6199 20.9794 19.6199 19.0687C19.6199 17.4438 21.1948 16.3935 23.6332 16.3935C25.8635 16.2231 27.9543 17.4957 28.8315 19.5575L28.9046 19.7108C29.1243 20.0667 29.5103 20.2854 29.9278 20.2906C30.3415 20.2931 30.7952 20.0533 31.026 19.7093C31.2569 19.3653 31.3006 18.9283 31.1423 18.5453L30.9692 18.1572C29.9252 15.9589 27.8312 14.4375 25.4079 14.1352V12Z" class="svg-primary-fill" clip-rule="evenodd"/>
  </g>
</svg>
