<svg xmlns="http://www.w3.org/2000/svg" width="48" height="48" viewBox="0 0 48 48">
  <g class="neo-icon-kit--dollar-filled">
    <path fill="#006FCF" fill-rule="evenodd" d="M47 24C47 11.2975 36.7025 1 24 1C11.2975 1 1 11.2975 1 24C1 36.7025 11.2975 47 24 47C36.7025 47 47 36.7025 47 24ZM22.5 10.5001C22.5 9.67145 23.1719 9.00006 24 9.00006C24.8281 9.00006 25.5 9.67145 25.5 10.5001V12.8613C28.5424 13.3173 30.8117 14.9583 31.9658 17.6231L32.0273 17.7642L32.0197 17.7682C32.0894 17.9333 32.128 18.1147 32.128 18.3052C32.128 19.069 31.5088 19.6882 30.7449 19.6882C30.2512 19.6882 29.821 19.4276 29.5764 19.0384L29.5684 19.0425L29.4951 18.8892C28.3369 16.4839 26.4932 15.3638 23.6904 15.3638C20.9648 15.3638 19.2041 16.5377 19.2041 18.3541C19.2041 20.39 20.4178 21.1377 24.5128 22.3821L25.7513 22.7508C30.0983 24.0702 32.5986 25.6112 32.5986 29.1544C32.5986 32.4467 29.7355 34.8258 25.5 35.2185V37.5001C25.5 38.3282 24.8281 39.0001 24 39.0001C23.1719 39.0001 22.5 38.3282 22.5 37.5001V35.1442C19.097 34.6371 16.5037 32.6458 15.4111 29.586L15.3584 29.4385L15.3766 29.431C15.3268 29.2869 15.2941 29.1348 15.2941 28.9739C15.2941 28.1972 15.9237 27.5676 16.7004 27.5676C17.3339 27.5676 17.8632 27.9894 18.0392 28.5653C19.1557 31.3035 21.2852 32.6944 24.373 32.6944C27.6279 32.6944 29.5713 31.4356 29.5713 29.3272C29.5713 27.2589 28.3047 26.2872 23.9229 24.9981L23.3512 24.8333C19.1202 23.597 16.1768 22.3197 16.1768 18.5572C16.1768 15.4987 18.773 13.2048 22.5 12.7908V10.5001Z" class="svg-primary-fill" clip-rule="evenodd"/>
  </g>
</svg>
