<svg xmlns="http://www.w3.org/2000/svg" width="48" height="48" viewBox="0 0 48 48">
  <g class="neo-icon-kit--dollar-cashback">
    <path fill="#006FCF" fill-rule="evenodd" d="M39.8723 8.33591C35.7507 3.97698 30.0116 1.5 24 1.5C11.5736 1.5 1.5 11.5736 1.5 24C1.5 36.4264 11.5736 46.5 24 46.5C36.4264 46.5 46.5 36.4264 46.5 24V23L46.4931 22.8555C46.4204 22.0949 45.7797 21.5 45 21.5C44.1716 21.5 43.5 22.1716 43.5 23V24L43.497 24.343C43.314 34.9543 34.655 43.5 24 43.5C13.2304 43.5 4.5 34.7696 4.5 24C4.5 13.2304 13.2304 4.5 24 4.5L24.4186 4.50464C29.5749 4.61905 34.4666 6.84316 37.9441 10.6685L39.609 12.5H37L36.8555 12.5069C36.0949 12.5796 35.5 13.2203 35.5 14C35.5 14.8284 36.1716 15.5 37 15.5H43L43.0726 15.4983L43.2179 15.4843L43.3273 15.4641L43.4748 15.4233L43.596 15.3769L43.7233 15.3145L43.8452 15.2394L43.9574 15.1548L44.0117 15.1075L44.1014 15.0184L44.184 14.9211L44.2822 14.7792L44.3536 14.6472L44.4102 14.5122L44.4661 14.3185L44.4841 14.2183L44.4983 14.071L44.5 8L44.4931 7.85554C44.4204 7.09489 43.7797 6.5 43 6.5L42.8555 6.50687C42.0949 6.57955 41.5 7.2203 41.5 8V10.12L40.164 8.65045L39.8723 8.33591ZM25.4079 12C25.4079 11.1716 24.7377 10.5 23.911 10.5C23.0842 10.5 22.414 11.1716 22.414 12V14.0613C19.1372 14.4785 16.8677 16.5303 16.8677 19.2514C16.8677 22.6384 19.5006 23.7938 23.2881 24.9051L23.8369 25.0638C27.7634 26.222 28.8988 27.0921 28.8988 28.9436C28.8988 30.8313 27.1592 31.9582 24.2462 31.9582C21.7222 32.1306 19.393 30.5959 18.5508 28.2054L18.4885 28.0501C18.2292 27.5258 17.6226 27.2588 17.0545 27.3945C16.4865 27.5301 16.0455 28.0583 16.05 28.6435C16.055 28.7776 16.0817 28.91 16.129 29.0355L16.1817 29.1829C17.1607 31.8848 19.5676 33.8095 22.414 34.1665V36.3C22.414 37.1284 23.0843 37.8 23.911 37.8C24.7377 37.8 25.4079 37.1284 25.4079 36.3V34.2483C29.1391 33.8525 31.65 31.7216 31.65 28.7884C31.65 25.6002 29.4153 24.2087 25.5286 23.0218L24.9332 22.8451C20.8167 21.6234 19.6199 20.9794 19.6199 19.0687C19.6199 17.4438 21.1948 16.3935 23.6332 16.3935C25.8635 16.2231 27.9543 17.4957 28.8315 19.5575L28.9046 19.7108C29.1243 20.0667 29.5103 20.2854 29.9278 20.2906C30.3415 20.2931 30.7952 20.0533 31.026 19.7093C31.2569 19.3653 31.3006 18.9283 31.1423 18.5453L30.9692 18.1572C29.9252 15.9589 27.8312 14.4375 25.4079 14.1352V12Z" class="svg-primary-fill" clip-rule="evenodd"/>
  </g>
</svg>
