<svg xmlns="http://www.w3.org/2000/svg" width="48" height="48" viewBox="0 0 48 48">
  <g class="neo-icon-kit--dollar-autopay-filled">
    <path fill="#006FCF" fill-rule="evenodd" d="M24.4288 1.00411L24 1L23.6197 1.00308C11.0925 1.20619 1 11.4245 1 24V25L1.00549 25.1493C1.08183 26.1841 1.94564 27 3 27C4.10457 27 5 26.1046 5 25V24L5.00301 23.6585C5.1832 13.435 13.4382 5.18119 23.6622 5.00294L24 5L24.4185 5.00477C29.434 5.11906 34.1914 7.28371 37.5742 11.0048L38.479 12H37L36.8507 12.0055C35.8159 12.0818 35 12.9456 35 14C35 15.1046 35.8954 16 37 16H43L43.1528 15.9942L43.3022 15.9772L43.4587 15.9471L43.6079 15.9059L43.7629 15.8494L43.9157 15.7786L44.0597 15.6966L44.2117 15.5913L44.3376 15.4869L44.405 15.4234L44.5155 15.3052L44.5928 15.2098C44.6508 15.1335 44.7034 15.053 44.7501 14.9687L44.8271 14.8147L44.8853 14.6686L44.9145 14.5803L44.9559 14.4195L44.9819 14.2705L44.9945 14.1493L45 14V8L44.9945 7.85074C44.9182 6.81588 44.0544 6 43 6L42.8507 6.00549C41.8159 6.08183 41 6.94564 41 8V8.828L40.5339 8.31412L40.2355 7.9922C36.1176 3.63735 30.4214 1.11895 24.4288 1.00411ZM23.911 10.5C24.7377 10.5 25.4079 11.1716 25.4079 12V14.1352C27.8312 14.4375 29.9252 15.9589 30.9692 18.1572L31.1423 18.5453C31.3006 18.9283 31.2569 19.3653 31.026 19.7093C30.7952 20.0533 30.3415 20.2931 29.9278 20.2906C29.5103 20.2854 29.1243 20.0667 28.9046 19.7108L28.8315 19.5575C27.9543 17.4957 25.8635 16.2231 23.6332 16.3935C21.1948 16.3935 19.6199 17.4438 19.6199 19.0687C19.6199 20.9794 20.8167 21.6234 24.9332 22.8451L25.5286 23.0218C29.4153 24.2087 31.65 25.6002 31.65 28.7884C31.65 31.7216 29.1391 33.8525 25.4079 34.2483V36.3C25.4079 37.1284 24.7377 37.8 23.911 37.8C23.0843 37.8 22.414 37.1284 22.414 36.3V34.1665C19.5676 33.8095 17.1607 31.8848 16.1817 29.1829L16.129 29.0355C16.0817 28.91 16.055 28.7776 16.05 28.6435C16.0455 28.0583 16.4865 27.5301 17.0545 27.3945C17.6226 27.2588 18.2292 27.5258 18.4885 28.0501L18.5508 28.2054C19.393 30.5959 21.7222 32.1306 24.2462 31.9582C27.1592 31.9582 28.8988 30.8313 28.8988 28.9436C28.8988 27.0921 27.7634 26.222 23.8369 25.0638L23.2881 24.9051C19.5006 23.7938 16.8677 22.6384 16.8677 19.2514C16.8677 16.5303 19.1372 14.4785 22.414 14.0613V12C22.414 11.1716 23.0842 10.5 23.911 10.5ZM45 21C46.0544 21 46.9182 21.8159 46.9945 22.8507L47 23V24C47 36.5755 36.9075 46.7938 24.3803 46.9969L24 47L23.5674 46.996C17.2464 46.8778 11.2627 44.1743 6.99982 39.5411L7 40C7 41.1046 6.10457 42 5 42C3.94564 42 3.08183 41.1841 3.00549 40.1493L3 40L3.00049 33.9542L3.0106 33.7942L3.02097 33.7095L3.04508 33.576L3.08475 33.4223L3.13347 33.2802L3.19225 33.1433L3.2929 32.957L3.32221 32.911C3.40339 32.7862 3.49811 32.671 3.60429 32.5675L3.67333 32.5033L3.75022 32.4386L3.8833 32.3406L4.015 32.259C4.10113 32.2102 4.19122 32.1675 4.28468 32.1317L4.47418 32.0698L4.61218 32.0376L4.76185 32.014L4.91777 32.0016L11 32C12.1046 32 13 32.8954 13 34C13 35.0544 12.1841 35.9182 11.1493 35.9945L11 36L9.22131 36.001C12.8494 40.431 18.2736 43 24 43C34.3806 43 42.8168 34.6754 42.9971 24.3378L43 24V23C43 21.8954 43.8954 21 45 21Z" class="svg-primary-fill" clip-rule="evenodd"/>
  </g>
</svg>
