<svg xmlns="http://www.w3.org/2000/svg" width="48" height="48" viewBox="0 0 48 48">
  <g class="neo-icon-kit--dollar-no-circle">
    <path fill="#006FCF" d="M22.5621 4.5C22.5621 3.67157 23.2336 3 24.0621 3C24.8905 3 25.5621 3.67157 25.5621 4.5V8.11585C26.2755 8.20431 26.9461 8.34343 27.5738 8.5332C28.7633 8.88867 29.8092 9.38086 30.7115 10.0098C31.6138 10.625 32.3795 11.3633 33.0084 12.2246C33.3435 12.6667 33.6452 13.1275 33.9135 13.6068C34.3361 14.3622 33.9991 15.2881 33.2425 15.7085C32.3655 16.1957 31.2745 15.8171 30.7241 14.9783C30.0407 13.937 29.2435 13.1422 28.3326 12.5938C26.9927 11.7734 25.4 11.3633 23.5543 11.3633C22.5699 11.3633 21.6881 11.4795 20.9088 11.7119C20.1295 11.9307 19.4664 12.2451 18.9195 12.6553C18.3863 13.0654 17.9761 13.5508 17.689 14.1113C17.4019 14.6719 17.2584 15.2803 17.2584 15.9365C17.2584 16.7705 17.3951 17.4814 17.6685 18.0693C17.9556 18.6436 18.4205 19.1631 19.0631 19.6279C19.7056 20.0928 20.5465 20.5303 21.5855 20.9404C22.6383 21.3506 23.9234 21.7949 25.441 22.2734C26.9996 22.752 28.3941 23.2646 29.6246 23.8115C30.8687 24.3447 31.9146 24.9668 32.7623 25.6777C33.6236 26.3887 34.2799 27.2227 34.731 28.1797C35.1822 29.1367 35.4078 30.2783 35.4078 31.6045C35.4078 32.8896 35.1343 34.0654 34.5875 35.1318C34.0543 36.1846 33.3023 37.0938 32.3316 37.8594C31.3609 38.6113 30.192 39.1992 28.8248 39.623C27.8201 39.9377 26.7325 40.1355 25.5621 40.2166V43.5C25.5621 44.3284 24.8905 45 24.0621 45C23.2336 45 22.5621 44.3284 22.5621 43.5V40.1634C21.7402 40.071 20.9566 39.9114 20.2115 39.6846C18.9537 39.3018 17.8258 38.7549 16.8277 38.0439C15.8297 37.333 14.9683 36.4785 14.2437 35.4805C13.8231 34.89 13.4552 34.2589 13.1398 33.5871C12.7636 32.7856 13.1798 31.8636 13.9891 31.5045C14.8943 31.1029 15.9365 31.5576 16.4135 32.4255C17.1152 33.7023 17.9984 34.7069 19.0631 35.4395C20.5533 36.4648 22.358 36.9775 24.4771 36.9775C25.5709 36.9775 26.5621 36.8682 27.4508 36.6494C28.3531 36.417 29.1187 36.082 29.7476 35.6445C30.3902 35.207 30.8824 34.6738 31.2242 34.0449C31.5797 33.4023 31.7574 32.6709 31.7574 31.8506C31.7574 31.085 31.6343 30.4082 31.3883 29.8203C31.1558 29.2324 30.7388 28.6855 30.1373 28.1797C29.5494 27.6738 28.7496 27.1953 27.7379 26.7441C26.7398 26.293 25.4752 25.8281 23.9439 25.3496C22.317 24.8574 20.8609 24.3584 19.5758 23.8525C18.3043 23.333 17.2242 22.7383 16.3355 22.0684C15.4605 21.3848 14.7838 20.5781 14.3052 19.6484C13.8404 18.7051 13.608 17.5635 13.608 16.2236C13.608 15.0342 13.8472 13.9404 14.3258 12.9424C14.8179 11.9307 15.5015 11.0625 16.3765 10.3379C17.2515 9.59961 18.3043 9.02539 19.5347 8.61523C20.4724 8.30268 21.4815 8.10922 22.5621 8.03484V4.5Z" class="svg-primary-fill"/>
  </g>
</svg>
