<svg xmlns="http://www.w3.org/2000/svg" width="48" height="48" viewBox="0 0 48 48">
  <g class="neo-icon-kit--dollar-autopay">
    <path fill="#006FCF" fill-rule="evenodd" d="M24.4289 1.5042L24 1.5L23.6279 1.50301C11.3731 1.70171 1.5 11.6979 1.5 24V25L1.50687 25.1445C1.57955 25.9051 2.2203 26.5 3 26.5C3.82843 26.5 4.5 25.8284 4.5 25V24L4.50296 23.657C4.68402 13.1598 13.1598 4.68402 23.657 4.50296L24 4.5L24.4186 4.50464C29.5749 4.61905 34.4666 6.84316 37.9441 10.6685L39.609 12.5H37L36.8555 12.5069C36.0949 12.5796 35.5 13.2203 35.5 14C35.5 14.8284 36.1716 15.5 37 15.5H43L43.0726 15.4983L43.2179 15.4843L43.3273 15.4641L43.4748 15.4233L43.596 15.3769L43.7233 15.3145L43.8452 15.2394L43.9574 15.1548L44.009 15.1099L44.1014 15.0184L44.184 14.9211L44.2822 14.7792L44.3536 14.6472L44.4102 14.5122L44.4661 14.3185L44.4841 14.2183L44.4983 14.071L44.5 8L44.4931 7.85554C44.4204 7.09489 43.7797 6.5 43 6.5L42.8555 6.50687C42.0949 6.57955 41.5 7.2203 41.5 8V10.12L40.164 8.65045L39.8652 8.32831C35.8422 4.07784 30.2805 1.61895 24.4289 1.5042ZM23.911 10.5C24.7377 10.5 25.4079 11.1716 25.4079 12V14.1352C27.8312 14.4375 29.9252 15.9589 30.9692 18.1572L31.1423 18.5453C31.3006 18.9283 31.2569 19.3653 31.026 19.7093C30.7952 20.0533 30.3415 20.2931 29.9278 20.2906C29.5103 20.2854 29.1243 20.0667 28.9046 19.7108L28.8315 19.5575C27.9543 17.4957 25.8635 16.2231 23.6332 16.3935C21.1948 16.3935 19.6199 17.4438 19.6199 19.0687C19.6199 20.9794 20.8167 21.6234 24.9332 22.8451L25.5286 23.0218C29.4153 24.2087 31.65 25.6002 31.65 28.7884C31.65 31.7216 29.1391 33.8525 25.4079 34.2483V36.3C25.4079 37.1284 24.7377 37.8 23.911 37.8C23.0843 37.8 22.414 37.1284 22.414 36.3V34.1665C19.5676 33.8095 17.1607 31.8848 16.1817 29.1829L16.129 29.0355C16.0817 28.91 16.055 28.7776 16.05 28.6435C16.0455 28.0583 16.4865 27.5301 17.0545 27.3945C17.6226 27.2588 18.2292 27.5258 18.4885 28.0501L18.5508 28.2054C19.393 30.5959 21.7222 32.1306 24.2462 31.9582C27.1592 31.9582 28.8988 30.8313 28.8988 28.9436C28.8988 27.0921 27.7634 26.222 23.8369 25.0638L23.2881 24.9051C19.5006 23.7938 16.8677 22.6384 16.8677 19.2514C16.8677 16.5303 19.1372 14.4785 22.414 14.0613V12C22.414 11.1716 23.0842 10.5 23.911 10.5ZM45 21.5C45.7797 21.5 46.4204 22.0949 46.4931 22.8555L46.5 23V24C46.5 36.3021 36.6269 46.2983 24.3721 46.497L24 46.5L23.5678 46.4959C17.0924 46.3723 10.9797 43.4756 6.78357 38.5422L6.5 38.203V40C6.5 40.7797 5.90511 41.4204 5.14446 41.4931L5 41.5C4.2203 41.5 3.57955 40.9051 3.50687 40.1445L3.5 40V34C3.5 33.7535 3.55948 33.5208 3.66488 33.3156L3.73288 33.1969L3.79995 33.0999L3.88774 32.9935L3.98156 32.8987L4.06289 32.8288L4.16484 32.7539L4.28343 32.6819L4.31126 32.6671C4.3949 32.6238 4.48301 32.5882 4.57475 32.5611L4.7631 32.5186L4.89544 32.5035L4.95947 32.5005L11 32.5C11.8284 32.5 12.5 33.1716 12.5 34C12.5 34.7797 11.9051 35.4204 11.1445 35.4931L11 35.5H8.165L8.82856 36.3106C12.465 40.7552 17.8626 43.3762 23.5903 43.4957L24 43.5C34.655 43.5 43.314 34.9543 43.497 24.343L43.5 24V23C43.5 22.1716 44.1716 21.5 45 21.5Z" class="svg-primary-fill" clip-rule="evenodd"/>
  </g>
</svg>
