<svg xmlns="http://www.w3.org/2000/svg" width="48" height="48" viewBox="0 0 48 48">
  <g class="neo-icon-kit--dollar-no-fee">
    <path fill="#006FCF" fill-rule="evenodd" d="M47 24C47 11.2975 36.7025 1 24 1C18.583 1 13.4531 2.8811 9.36774 6.25385L7.17407 4.06066C6.58828 3.47487 5.63854 3.47487 5.05275 4.06066C4.46696 4.64645 4.46696 5.59619 5.05275 6.18198L42.5294 43.6586C43.1152 44.2444 44.0649 44.2444 44.6507 43.6586C45.2365 43.0729 45.2365 42.1231 44.6507 41.5373L41.7457 38.6328C45.1159 34.5514 47 29.4206 47 24ZM6.79959 13.7883C7.22323 13.0764 6.98953 12.1558 6.27762 11.7322C5.5657 11.3085 4.64515 11.5422 4.22152 12.2542C2.12388 15.7792 1 19.8091 1 24C1 36.7025 11.2975 47 24 47C28.1856 47 32.2108 45.8789 35.7328 43.7863C36.445 43.3631 36.6793 42.4427 36.2561 41.7305C35.8329 41.0183 34.9125 40.784 34.2003 41.2072C31.1389 43.0262 27.6425 44 24 44C12.9543 44 4 35.0457 4 24C4 20.3529 4.97624 16.8524 6.79959 13.7883ZM16.7004 27.5676C17.3339 27.5676 17.8632 27.9894 18.0392 28.5653C19.1557 31.3035 21.2852 32.6944 24.373 32.6944C25.0937 32.6944 25.7501 32.6327 26.3353 32.5137C26.378 32.4941 26.4642 32.4843 26.594 32.4843C27.2982 32.4843 27.869 33.0552 27.869 33.7593C27.869 34.3623 27.4505 34.8674 26.8882 35.0002C26.5567 35.0776 26.2127 35.1366 25.8581 35.1801L25.5 35.2185V37.5001C25.5 38.3282 24.8281 39.0001 24 39.0001C23.2206 39.0001 22.5796 38.4049 22.5069 37.6445L22.5 37.5001V35.1442C19.2033 34.6529 16.6665 32.7688 15.5179 29.8697L15.3584 29.4385L15.3766 29.431C15.3268 29.2869 15.2941 29.1348 15.2941 28.9739C15.2941 28.1972 15.9237 27.5676 16.7004 27.5676ZM11.5008 8.38581C15.0165 5.56667 19.3853 4 24 4C35.0457 4 44 12.9543 44 24C44 28.6176 42.4308 32.9876 39.6137 36.5L32.5879 29.4748C32.595 29.3729 32.5986 29.2662 32.5986 29.1544C32.5986 25.6936 30.2133 24.143 26.0516 22.8432L25.914 22.801L19.8186 16.7039C20.5568 15.8591 21.9201 15.3638 23.6904 15.3638C26.4932 15.3638 28.3369 16.4839 29.4951 18.8892L29.5684 19.0425L29.5764 19.0384L29.6552 19.1512C29.9077 19.4771 30.3006 19.6882 30.7449 19.6882C31.5088 19.6882 32.128 19.069 32.128 18.3052C32.128 18.1147 32.0894 17.9333 32.0273 17.7642L31.8425 17.3511C30.6543 14.8465 28.4375 13.3016 25.5 12.8613V10.5001L25.4931 10.3556C25.4204 9.59478 24.7794 9.00006 24 9.00006C23.1719 9.00006 22.5 9.67145 22.5 10.5001V12.7908L22.2293 12.8244C20.4415 13.0704 18.9303 13.7558 17.8651 14.7519L11.5008 8.38581Z" class="svg-primary-fill" clip-rule="evenodd"/>
  </g>
</svg>
