<svg xmlns="http://www.w3.org/2000/svg" width="48" height="48" viewBox="0 0 48 48">
  <g class="neo-icon-kit--dollar">
    <path fill="#006FCF" fill-rule="evenodd" d="M24 1C36.7025 1 47 11.2975 47 24C47 36.7025 36.7025 47 24 47C11.2975 47 1 36.7025 1 24C1 11.2975 11.2975 1 24 1ZM24 4C12.9543 4 4 12.9543 4 24C4 35.0457 12.9543 44 24 44C35.0457 44 44 35.0457 44 24C44 12.9543 35.0457 4 24 4ZM25.4931 10.3556C25.4204 9.59478 24.7794 9.00006 24 9.00006C23.1719 9.00006 22.5 9.67145 22.5 10.5001V12.7908L22.2293 12.8244C18.6479 13.3171 16.1768 15.5733 16.1768 18.5572C16.1768 22.236 18.9909 23.539 23.0711 24.7508L24.2379 25.0919C28.3657 26.3352 29.5713 27.3093 29.5713 29.3272C29.5713 31.4356 27.6279 32.6944 24.373 32.6944C21.2852 32.6944 19.1557 31.3035 18.0392 28.5653C17.8632 27.9894 17.3339 27.5676 16.7004 27.5676C15.9237 27.5676 15.2941 28.1972 15.2941 28.9739C15.2941 29.1348 15.3268 29.2869 15.3766 29.431L15.3584 29.4385L15.5179 29.8697C16.6665 32.7688 19.2033 34.6529 22.5 35.1442V37.5001L22.5069 37.6445C22.5796 38.4049 23.2206 39.0001 24 39.0001C24.8281 39.0001 25.5 38.3282 25.5 37.5001V35.2185L25.7803 35.1894C29.8614 34.7196 32.5986 32.3735 32.5986 29.1544C32.5986 25.6112 30.0983 24.0702 25.7513 22.7508L24.5128 22.3821C20.4178 21.1377 19.2041 20.39 19.2041 18.3541C19.2041 16.5377 20.9648 15.3638 23.6904 15.3638C26.4932 15.3638 28.3369 16.4839 29.4951 18.8892L29.5684 19.0425L29.5764 19.0384L29.6552 19.1512C29.9077 19.4771 30.3006 19.6882 30.7449 19.6882C31.5088 19.6882 32.128 19.069 32.128 18.3052C32.128 18.1147 32.0894 17.9333 32.0273 17.7642L31.8425 17.3511C30.6543 14.8465 28.4375 13.3016 25.5 12.8613V10.5001L25.4931 10.3556Z" class="svg-primary-fill" clip-rule="evenodd"/>
  </g>
</svg>
