<svg xmlns="http://www.w3.org/2000/svg" width="48" height="48" viewBox="0 0 48 48">
  <g class="neo-icon-kit--dollar-no-fee-filled">
    <path fill="#006FCF" fill-rule="evenodd" d="M31.387 32.516C32.1658 31.5764 32.5986 30.4344 32.5986 29.1544C32.5986 25.778 30.3282 24.2198 26.3529 22.9388L25.7513 22.7508L24.5128 22.3821L23.9053 22.1943C20.2965 21.0576 19.2041 20.2856 19.2041 18.3541C19.2041 16.5377 20.9648 15.3638 23.6904 15.3638C26.3965 15.3638 28.2086 16.408 29.3728 18.645L29.4951 18.8892L29.5684 19.0425L29.5764 19.0384L29.6552 19.1512C29.9077 19.4771 30.3006 19.6882 30.7449 19.6882C31.5088 19.6882 32.128 19.069 32.128 18.3052C32.128 18.1623 32.1063 18.0246 32.0692 17.8933L32.0273 17.7642L31.8425 17.3511C30.6967 14.9359 28.5945 13.4132 25.812 12.9127L25.5 12.8613V10.5001L25.4931 10.3556C25.4204 9.59478 24.7794 9.00006 24 9.00006C23.2206 9.00006 22.5796 9.59478 22.5069 10.3556L22.5 10.5001V12.7908L22.2293 12.8244C19.1155 13.2528 16.8409 15.0142 16.3001 17.428L5.05275 6.18198C4.46696 5.59619 4.46696 4.64645 5.05275 4.06066C5.63854 3.47487 6.58828 3.47487 7.17407 4.06066L9.36676 6.25466C13.4523 2.8814 18.5825 1 24 1C36.7025 1 47 11.2975 47 24C47 29.4206 45.1159 34.5514 41.7457 38.6328L44.6507 41.5373C45.2365 42.1231 45.2365 43.0729 44.6507 43.6586C44.0649 44.2444 43.1152 44.2444 42.5294 43.6586L31.387 32.516ZM5.70233 11.5348L5.86988 11.5661C5.9959 11.5972 6.11868 11.6447 6.23476 11.7089L6.35863 11.784L6.44914 11.8511L6.49727 11.8914L6.57042 11.9618L24.661 30.0418L26.9686 32.3543C26.2376 32.5772 25.3664 32.6944 24.373 32.6944C21.2852 32.6944 19.1557 31.3035 18.0392 28.5653C17.8632 27.9894 17.3339 27.5676 16.7004 27.5676C15.9237 27.5676 15.2941 28.1972 15.2941 28.9739C15.2941 29.0812 15.3087 29.1845 15.3331 29.2842L15.3766 29.431L15.3584 29.4385L15.5179 29.8697C16.6295 32.6753 19.0411 34.5303 22.1834 35.0923L22.5 35.1442V37.5001L22.5069 37.6445C22.5796 38.4049 23.2206 39.0001 24 39.0001C24.7794 39.0001 25.4204 38.4049 25.4931 37.6445L25.5 37.5001V35.2185L25.7803 35.1894C26.959 35.0537 28.0255 34.7615 28.9465 34.337L36.0646 41.4743L36.1888 41.627L36.2342 41.6988L36.3229 41.8721L36.384 42.0057L36.3857 42.0242C36.5696 42.5509 36.4511 43.1597 36.0302 43.5806C35.8737 43.7371 35.6912 43.8518 35.4966 43.9247C32.0313 45.9283 28.0924 47 24 47C11.2975 47 1 36.7025 1 24C1 19.8091 2.12388 15.7792 4.22152 12.2542C4.28421 12.1487 4.35986 12.0511 4.4491 11.9618C4.79108 11.6198 5.2571 11.4775 5.70233 11.5348ZM24.2379 25.0919L23.848 24.977L29.3477 30.4763C29.4951 30.1287 29.5713 29.7446 29.5713 29.3272C29.5713 27.4128 28.4862 26.4379 24.8502 25.2812L24.2379 25.0919Z" class="svg-primary-fill" clip-rule="evenodd"/>
  </g>
</svg>
