<svg xmlns="http://www.w3.org/2000/svg" width="48" height="48" viewBox="0 0 48 48">
  <g class="neo-icon-kit--donate-filled">
    <path fill="#006FCF" fill-rule="evenodd" d="M36 10.8867C36 6.01514 32.3448 3 28.9581 3C27.0665 3 25.3799 3.625 24 4.82324C22.6202 3.625 20.9336 3 19.042 3C15.6553 3 12 6.01514 12 10.8867C12 13.3989 13.2881 15.8882 15.9385 18.4961C17.7071 20.2373 20.0596 21.9897 22.9297 23.7046C23.254 23.8979 23.6231 24 24 24C24.377 24 24.7461 23.8979 25.0704 23.7046C27.9405 21.9897 30.293 20.2373 32.0606 18.4966C34.712 15.8882 36 13.3989 36 10.8867ZM43.6065 22.9873C45.7989 25.5 44.9356 27.9717 44.1768 28.9307C44.1407 28.9766 44.1016 29.0195 44.0606 29.0605L33.0606 40.0605C32.7793 40.3418 32.3975 40.5 32 40.5H17.5L11.9004 44.7002C11.6309 44.9014 11.3145 45 11.001 45C10.5791 45 10.1622 44.8232 9.86626 44.4824L3.36626 36.9824C2.83794 36.373 2.88677 35.4541 3.47661 34.9033L11.0148 27.8698C11.4923 27.4558 15.6482 24.037 20.5831 26.1182L20.8091 26.192C21.6502 26.458 23.6217 27 25 27H29.462L29.6028 26.9967C29.9175 26.9945 30.5287 27.0219 31.2022 27.2227L37.6495 22.3647C37.6846 22.3379 37.7217 22.3125 37.7598 22.2886C40.3819 20.6567 42.7325 22.0308 43.6065 22.9873ZM39.3946 24.8052L33.6026 29.1709C33.835 29.6465 34 30.248 34 31L33.9971 31.1222C33.9766 31.5576 33.8235 32.9367 32.7364 33.9551C32.1651 34.4902 31.1329 35.1035 29.4522 35H21C20.1719 35 19.5 34.3281 19.5 33.5C19.5 32.6719 20.1719 32 21 32L29.5518 32.0009L29.6036 32.0039C29.9571 32.0244 30.4297 32.0059 30.6846 31.7666C30.9629 31.5049 31 31.0107 31 31.0059C31 30.5238 30.8469 30.3811 30.7892 30.3273C30.5124 30.0671 29.9356 30.0014 29.6757 29.9959L29.5508 29.9991L25 30C22.6603 30 19.6487 28.9654 19.5087 28.9173C16.1513 27.5048 13.2537 29.9002 13.008 30.111L6.58013 36.1104L11.2178 41.4609L16.0997 37.7998C16.3594 37.6055 16.6758 37.5 17 37.5H31.379L41.8497 27.0293L41.8935 26.9478C42.0383 26.6467 42.2042 25.9432 41.3702 24.9858L41.2818 24.9045C40.9862 24.6529 40.3112 24.2639 39.3946 24.8052Z" class="svg-primary-fill" clip-rule="evenodd"/>
  </g>
</svg>
