<svg xmlns="http://www.w3.org/2000/svg" width="48" height="48" viewBox="0 0 48 48">
  <g class="neo-icon-kit--donate">
    <path fill="#006FCF" fill-rule="evenodd" d="M28.958 3C32.3447 3 36 6.01514 36 10.8867C36 13.3989 34.7119 15.8882 32.0605 18.4966C30.2929 20.2373 27.9404 21.9897 25.0703 23.7046C24.748 23.8975 24.3774 24 24 24C23.6225 24 23.2519 23.8975 22.9287 23.7036C20.0605 21.9907 17.7085 20.2383 15.9384 18.4961C13.2881 15.8877 12 13.3984 12 10.8867C12 6.01514 15.6552 3 19.0415 3C20.9336 3 22.6206 3.625 24 4.82324C25.3799 3.625 27.0664 3 28.958 3ZM44.1767 28.9307C44.9355 27.9717 45.7988 25.5 43.6064 22.9873C42.7324 22.0308 40.3818 20.6567 37.7597 22.2886C37.7217 22.3125 37.6845 22.3379 37.6494 22.3647L31.2021 27.2227L31.0202 27.1721C30.4201 27.0171 29.8895 26.9947 29.6031 26.9967L29.4619 27H25L24.7777 26.9956C23.5047 26.9471 21.837 26.5064 20.9747 26.2435L20.5825 26.1182C15.6519 24.0394 11.4925 27.456 11.0147 27.8698L3.47654 34.9033L3.37229 35.0107C2.88284 35.5678 2.87091 36.4111 3.36667 36.9824L9.86667 44.4824L9.98294 44.6025C10.2665 44.8647 10.6322 45 11.0009 45C11.3149 45 11.6308 44.9014 11.8999 44.7002L17.5 40.5H32L32.1481 40.4927C32.4913 40.4585 32.8144 40.3066 33.0605 40.0605L44.0605 29.0605L44.1205 28.9974L44.1767 28.9307ZM39.3945 24.8052L39.5537 24.7191L39.7166 24.6475C40.5697 24.3171 41.1663 24.7821 41.3701 24.9858C42.2042 25.9432 42.0382 26.6467 41.8934 26.9478L41.8496 27.0293L31.3789 37.5H17L16.8386 37.5087C16.5717 37.5376 16.3165 37.6379 16.1001 37.7998L11.2182 41.4609L6.58054 36.1104L13.0079 30.111C13.2535 29.9002 16.1479 27.5045 19.5078 28.917C19.6352 28.9609 22.6543 30 25 30H29.5L29.6761 29.9959C29.9369 30.0014 30.5113 30.067 30.789 30.3271C30.8467 30.381 31 30.5238 31 31.0059C31 31.0107 30.9629 31.5049 30.6845 31.7666C30.4297 32.0059 29.958 32.0244 29.6035 32.0039L29.5517 32.0009L21 32L20.8555 32.0069C20.0947 32.0796 19.5 32.7206 19.5 33.5C19.5 34.3281 20.1714 35 21 35H29.4521L29.7258 35.0107C31.2434 35.0356 32.1968 34.4605 32.7363 33.9551C33.7178 33.0356 33.938 31.8221 33.9865 31.2745L33.999 31.0688L33.9924 30.725C33.9577 30.0996 33.8059 29.587 33.6025 29.1709L39.3945 24.8052ZM25.1933 7.92139C26.1777 6.62842 27.4092 6 28.958 6C30.6367 6 33 7.51611 33 10.8867C33 12.5303 31.9765 14.3711 29.956 16.3584C28.4531 17.8389 26.4521 19.3467 24 20.8462C21.5503 19.3477 19.5478 17.8394 18.0429 16.3584C16.0239 14.3706 15 12.5298 15 10.8867C15 7.51611 17.3633 6 19.0415 6C20.5913 6 21.8227 6.62842 22.8061 7.9209L23.9995 9.48975L25.1933 7.92139Z" class="svg-primary-fill" clip-rule="evenodd"/>
  </g>
</svg>
