<svg xmlns="http://www.w3.org/2000/svg" width="48" height="48" viewBox="0 0 48 48">
  <g class="neo-icon-kit--download">
    <path fill="#006FCF" fill-rule="evenodd" d="M25.4931 7.35551C25.4204 6.59473 24.7794 6 24 6C23.1719 6 22.5 6.67139 22.5 7.5V27.8818L14.0606 19.4424L13.9466 19.3394C13.3574 18.8587 12.4888 18.8931 11.9395 19.4424C11.3535 20.0278 11.3535 20.978 11.9395 21.5635L22.9394 32.5635L23.0534 32.6665C23.3284 32.8908 23.6642 33.0029 24 33.0029C24.3838 33.0029 24.7676 32.8564 25.0606 32.5635L36.0606 21.5635L36.1636 21.4496C36.6442 20.8607 36.6099 19.9912 36.0606 19.4424C35.4746 18.8565 34.5254 18.8565 33.9395 19.4424L25.5 27.8818V7.5L25.4931 7.35551ZM44.9931 31.3555C44.9204 30.5949 44.2797 30 43.5 30C42.6716 30 42 30.6716 41.9977 31.5L41.9961 39H6V31.5L5.99313 31.3555C5.92045 30.5949 5.2797 30 4.5 30C3.67157 30 3 30.6716 3 31.5V39L3.0051 39.176C3.09652 40.7487 4.40478 42 6 42H42L42.176 41.9949C43.7487 41.9035 45 40.5952 45 39V31.5L44.9931 31.3555Z" class="svg-primary-fill" clip-rule="evenodd"/>
  </g>
</svg>
