<svg xmlns="http://www.w3.org/2000/svg" width="48" height="48" viewBox="0 0 48 48">
  <g class="neo-icon-kit--download-filled">
    <path fill="#006FCF" fill-rule="evenodd" d="M26.4947 7.33561C26.41 6.0314 25.3256 5 24 5C22.6191 5 21.5 6.11914 21.5 7.5V25.4678L14.7676 18.7353L14.6369 18.6135C13.6546 17.7606 12.1665 17.8012 11.2324 18.7353C10.2559 19.7114 10.2559 21.2944 11.2324 22.2705L22.2324 33.2705L22.3833 33.4097C22.8486 33.8052 23.4243 34.0029 24 34.0029C24.6397 34.0029 25.2793 33.7588 25.7676 33.2705L36.7676 22.2705L36.8894 22.1399C37.7423 21.1579 37.7017 19.669 36.7676 18.7353C35.791 17.7588 34.209 17.7588 33.2324 18.7353L26.5 25.4678V7.5L26.4947 7.33561ZM45.9947 31.3358C45.9099 30.0332 44.8238 29 43.5 29C42.1211 29 41 30.1211 41 31.4941L40.9961 38H7V31.5L6.99467 31.3358C6.9099 30.0332 5.82375 29 4.5 29C3.12109 29 2 30.1211 2 31.5V39L2.0049 39.1994C2.1091 41.3131 3.8608 43 6 43H42L42.1994 42.9951C44.3131 42.8909 46 41.1392 46 39V31.5L45.9947 31.3358Z" class="svg-primary-fill" clip-rule="evenodd"/>
  </g>
</svg>
