<svg xmlns="http://www.w3.org/2000/svg" width="48" height="48" viewBox="0 0 48 48">
  <g class="neo-icon-kit--drop-filled">
    <g fill="#006FCF" class="svg-primary-fill">
      <path d="M21.5 14.5C21.5 13.1193 22.6193 12 24 12C25.3807 12 26.5 13.1193 26.5 14.5V32.5C26.5 33.8807 25.3807 35 24 35C22.6193 35 21.5 33.8807 21.5 32.5V14.5Z"/>
      <path fill-rule="evenodd" d="M13.2446 22.7201C14.2277 21.7506 15.8105 21.7616 16.78 22.7447L23.9001 29.9645 31.2444 22.7202C32.2274 21.7506 33.8103 21.7615 34.7799 22.7445 35.7494 23.7275 35.7386 25.3104 34.7556 26.2799L25.6313 35.2799C25.1592 35.7456 24.5215 36.0046 23.8584 36 23.1953 35.9954 22.5612 35.7276 22.0956 35.2555L13.22 26.2555C12.2505 25.2724 12.2615 23.6896 13.2446 22.7201zM3 7.5C3 5.01472 5.01472 3 7.5 3H13.5C14.3284 3 15 3.67157 15 4.5 15 5.32843 14.3284 6 13.5 6H7.5C6.67157 6 6 6.67157 6 7.5V13.5C6 14.3284 5.32843 15 4.5 15 3.67157 15 3 14.3284 3 13.5V7.5zM45 40.5C45 42.9853 42.9853 45 40.5 45H34.5C33.6716 45 33 44.3284 33 43.5 33 42.6716 33.6716 42 34.5 42H40.5C41.3284 42 42 41.3284 42 40.5V34.5C42 33.6716 42.6716 33 43.5 33 44.3284 33 45 33.6716 45 34.5V40.5zM40.5 3C42.9853 3 45 5.01472 45 7.5V13.5C45 14.3284 44.3284 15 43.5 15 42.6716 15 42 14.3284 42 13.5V7.5C42 6.67157 41.3284 6 40.5 6L34.5 6C33.6716 6 33 5.32843 33 4.5 33 3.67157 33.6716 3 34.5 3L40.5 3zM7.5 45C5.01472 45 3 42.9853 3 40.5L3 34.5C3 33.6716 3.67157 33 4.5 33 5.32843 33 6 33.6716 6 34.5L6 40.5C6 41.3284 6.67157 42 7.5 42H13.5C14.3284 42 15 42.6716 15 43.5 15 44.3284 14.3284 45 13.5 45H7.5z" clip-rule="evenodd"/>
      <path d="M42 21.5C42 20.6716 42.6716 20 43.5 20 44.3284 20 45 20.6716 45 21.5V27.5C45 28.3284 44.3284 29 43.5 29 42.6716 29 42 28.3284 42 27.5V21.5zM3 21.5C3 20.6716 3.67157 20 4.5 20 5.32843 20 6 20.6716 6 21.5V27.5C6 28.3284 5.32843 29 4.5 29 3.67157 29 3 28.3284 3 27.5V21.5zM27.5 3C28.3284 3 29 3.67157 29 4.5 29 5.32843 28.3284 6 27.5 6L21.5 6C20.6716 6 20 5.32843 20 4.5 20 3.67157 20.6716 3 21.5 3L27.5 3zM27.5 42C28.3284 42 29 42.6716 29 43.5 29 44.3284 28.3284 45 27.5 45H21.5C20.6716 45 20 44.3284 20 43.5 20 42.6716 20.6716 42 21.5 42H27.5z"/>
    </g>
  </g>
</svg>
