<svg xmlns="http://www.w3.org/2000/svg" width="48" height="48" viewBox="0 0 48 48">
  <g class="neo-icon-kit--e-check">
    <path fill="#006FCF" d="M22.395 6.05291C22.7548 6.15096 23.0652 6.37952 23.2656 6.69401C23.466 7.0085 23.5421 7.38637 23.479 7.75391L23.448 7.89491L22.738 10.4999H46C46.5304 10.4999 47.0391 10.7106 47.4142 11.0857C47.7893 11.4608 48 11.9695 48 12.4999V35.4999C48 36.0303 47.7893 36.5391 47.4142 36.9141C47.0391 37.2892 46.5304 37.4999 46 37.4999H15.373L14.447 40.8949C14.3465 41.2676 14.1061 41.5872 13.776 41.7872C13.4458 41.9872 13.0513 42.0523 12.6744 41.9688C12.2975 41.8853 11.9673 41.6598 11.7525 41.3391C11.5377 41.0184 11.4548 40.6272 11.521 40.2469L11.552 40.1059L20.552 7.10591C20.6568 6.72215 20.9097 6.39573 21.2551 6.19844C21.6006 6.00116 22.0102 5.94917 22.394 6.05391L22.395 6.05291ZM45 13.4999H21.918L21.1 16.4999H28.5C28.8978 16.4999 29.2794 16.6579 29.5607 16.9393C29.842 17.2206 30 17.6021 30 17.9999C30 18.3977 29.842 18.7793 29.5607 19.0606C29.2794 19.3419 28.8978 19.4999 28.5 19.4999H20.282L19.464 22.4999H22.5C22.8978 22.4999 23.2794 22.6579 23.5607 22.9393C23.842 23.2206 24 23.6021 24 23.9999C24 24.3977 23.842 24.7793 23.5607 25.0606C23.2794 25.3419 22.8978 25.4999 22.5 25.4999H19.025C18.899 25.4999 18.776 25.4839 18.658 25.4549L17.827 28.4999H25.5C25.8978 28.4999 26.2794 28.6579 26.5607 28.9393C26.842 29.2206 27 29.6021 27 29.9999C27 30.3977 26.842 30.7793 26.5607 31.0606C26.2794 31.3419 25.8978 31.4999 25.5 31.4999H17.009L16.191 34.4999H45V13.4999ZM10 28.4999C10.3978 28.4999 10.7794 28.6579 11.0607 28.9393C11.342 29.2206 11.5 29.6021 11.5 29.9999C11.5 30.3977 11.342 30.7793 11.0607 31.0606C10.7794 31.3419 10.3978 31.4999 10 31.4999H7C6.60218 31.4999 6.22064 31.3419 5.93934 31.0606C5.65804 30.7793 5.5 30.3977 5.5 29.9999C5.5 29.6021 5.65804 29.2206 5.93934 28.9393C6.22064 28.6579 6.60218 28.4999 7 28.4999H10ZM41.561 25.9389C41.8235 26.2014 41.9793 26.5519 41.9983 26.9226C42.0173 27.2933 41.8982 27.6579 41.664 27.9459L41.561 28.0599L38.596 31.0249C38.3247 31.2961 37.9625 31.457 37.5794 31.4766C37.1963 31.4962 36.8195 31.373 36.522 31.1309L36.404 31.0249L34.499 29.1209L32.561 31.0609C32.2985 31.3234 31.948 31.4792 31.5773 31.4982C31.2066 31.5172 30.842 31.3981 30.554 31.1639L30.44 31.0609C30.1775 30.7984 30.0217 30.4479 30.0027 30.0772C29.9837 29.7065 30.1028 29.3419 30.337 29.0539L30.44 28.9399L33.405 25.9749C33.6763 25.7037 34.0385 25.5428 34.4216 25.5232C34.8047 25.5036 35.1815 25.6268 35.479 25.8689L35.597 25.9749L37.501 27.8779L39.44 25.9389C39.7213 25.6577 40.1028 25.4997 40.5005 25.4997C40.8982 25.4997 41.2797 25.6577 41.561 25.9389ZM12 22.4999C12.3978 22.4999 12.7794 22.6579 13.0607 22.9393C13.342 23.2206 13.5 23.6021 13.5 23.9999C13.5 24.3977 13.342 24.7793 13.0607 25.0606C12.7794 25.3419 12.3978 25.4999 12 25.4999H5C4.60218 25.4999 4.22064 25.3419 3.93934 25.0606C3.65804 24.7793 3.5 24.3977 3.5 23.9999C3.5 23.6021 3.65804 23.2206 3.93934 22.9393C4.22064 22.6579 4.60218 22.4999 5 22.4999H12ZM13.5 16.4999C13.8978 16.4999 14.2794 16.6579 14.5607 16.9393C14.842 17.2206 15 17.6021 15 17.9999C15 18.3977 14.842 18.7793 14.5607 19.0606C14.2794 19.3419 13.8978 19.4999 13.5 19.4999H1.5C1.10218 19.4999 0.720644 19.3419 0.43934 19.0606C0.158035 18.7793 0 18.3977 0 17.9999C0 17.6021 0.158035 17.2206 0.43934 16.9393C0.720644 16.6579 1.10218 16.4999 1.5 16.4999H13.5ZM40.5 16.4999C40.8978 16.4999 41.2794 16.6579 41.5607 16.9393C41.842 17.2206 42 17.6021 42 17.9999C42 18.3977 41.842 18.7793 41.5607 19.0606C41.2794 19.3419 40.8978 19.4999 40.5 19.4999H34.5C34.1022 19.4999 33.7206 19.3419 33.4393 19.0606C33.158 18.7793 33 18.3977 33 17.9999C33 17.6021 33.158 17.2206 33.4393 16.9393C33.7206 16.6579 34.1022 16.4999 34.5 16.4999H40.5Z" class="svg-primary-fill"/>
  </g>
</svg>
