<svg xmlns="http://www.w3.org/2000/svg" width="48" height="48" viewBox="0 0 48 48">
  <g class="neo-icon-kit--e-check-filled">
    <path fill="#006FCF" d="M22.395 6.05291C22.7548 6.15096 23.0652 6.37952 23.2656 6.69401C23.466 7.0085 23.5421 7.38637 23.479 7.75391L23.448 7.89491L22.738 10.4999H46C46.5304 10.4999 47.0391 10.7106 47.4142 11.0857C47.7893 11.4608 48 11.9695 48 12.4999V35.4999C48 36.0303 47.7893 36.5391 47.4142 36.9141C47.0391 37.2892 46.5304 37.4999 46 37.4999H15.373L14.447 40.8949C14.3465 41.2676 14.1061 41.5872 13.776 41.7872C13.4458 41.9872 13.0513 42.0523 12.6744 41.9688C12.2975 41.8853 11.9673 41.6598 11.7525 41.3391C11.5377 41.0184 11.4548 40.6272 11.521 40.2469L11.552 40.1059L20.552 7.10591C20.6568 6.72215 20.9097 6.39573 21.2551 6.19844C21.6006 6.00116 22.0102 5.94917 22.394 6.05391L22.395 6.05291ZM39.554 25.8369L39.44 25.9399L37.501 27.8789L35.597 25.9759L35.479 25.8699C35.2025 25.6449 34.857 25.522 34.5005 25.522C34.144 25.522 33.7985 25.6449 33.522 25.8699L33.404 25.9759L30.439 28.9409L30.336 29.0549C30.1184 29.3224 29.9997 29.6566 29.9997 30.0014C29.9997 30.3462 30.1184 30.6804 30.336 30.9479L30.439 31.0619L30.553 31.1649C30.8205 31.3825 31.1547 31.5012 31.4995 31.5012C31.8443 31.5012 32.1785 31.3825 32.446 31.1649L32.56 31.0619L34.498 29.1219L36.403 31.0259L36.521 31.1319C36.7975 31.3569 37.143 31.4798 37.4995 31.4798C37.856 31.4798 38.2015 31.3569 38.478 31.1319L38.596 31.0259L41.561 28.0609L41.664 27.9469C41.8979 27.6589 42.0167 27.2944 41.9976 26.9239C41.9784 26.5533 41.8226 26.203 41.5602 25.9407C41.2979 25.6783 40.9476 25.5225 40.5771 25.5033C40.2065 25.4842 39.842 25.603 39.554 25.8369ZM10 28.4999C10.3978 28.4999 10.7794 28.6579 11.0607 28.9393C11.342 29.2206 11.5 29.6021 11.5 29.9999C11.5 30.3977 11.342 30.7793 11.0607 31.0606C10.7794 31.3419 10.3978 31.4999 10 31.4999H7C6.60218 31.4999 6.22064 31.3419 5.93934 31.0606C5.65804 30.7793 5.5 30.3977 5.5 29.9999C5.5 29.6021 5.65804 29.2206 5.93934 28.9393C6.22064 28.6579 6.60218 28.4999 7 28.4999H10ZM17.009 31.4999H25.5C25.8852 31.4997 26.2556 31.3513 26.5344 31.0855C26.8132 30.8197 26.979 30.4568 26.9975 30.072C27.016 29.6872 26.8858 29.3101 26.6338 29.0187C26.3818 28.7273 26.0274 28.5441 25.644 28.5069L25.5 28.4999H17.827L17.009 31.4999ZM22.5 22.4999H19.464L18.659 25.4549C18.731 25.4729 18.805 25.4859 18.88 25.4929L19.024 25.4999H22.5C22.8852 25.4997 23.2556 25.3513 23.5344 25.0855C23.8132 24.8197 23.979 24.4568 23.9975 24.072C24.016 23.6872 23.8858 23.3101 23.6338 23.0187C23.3818 22.7273 23.0274 22.5441 22.644 22.5069L22.5 22.4999ZM12 22.4999C12.3978 22.4999 12.7794 22.6579 13.0607 22.9393C13.342 23.2206 13.5 23.6021 13.5 23.9999C13.5 24.3977 13.342 24.7793 13.0607 25.0606C12.7794 25.3419 12.3978 25.4999 12 25.4999H5C4.60218 25.4999 4.22064 25.3419 3.93934 25.0606C3.65804 24.7793 3.5 24.3977 3.5 23.9999C3.5 23.6021 3.65804 23.2206 3.93934 22.9393C4.22064 22.6579 4.60218 22.4999 5 22.4999H12ZM40.5 16.4999H34.5C34.1148 16.5001 33.7444 16.6485 33.4656 16.9143C33.1868 17.1802 33.021 17.5431 33.0025 17.9278C32.984 18.3126 33.1142 18.6897 33.3662 18.9811C33.6182 19.2725 33.9726 19.4557 34.356 19.4929L34.5 19.4999H40.5C40.8978 19.4999 41.2794 19.3419 41.5607 19.0606C41.842 18.7793 42 18.3977 42 17.9999C42 17.6021 41.842 17.2206 41.5607 16.9393C41.2794 16.6579 40.8978 16.4999 40.5 16.4999ZM13.5 16.4999C13.8978 16.4999 14.2794 16.6579 14.5607 16.9393C14.842 17.2206 15 17.6021 15 17.9999C15 18.3977 14.842 18.7793 14.5607 19.0606C14.2794 19.3419 13.8978 19.4999 13.5 19.4999H1.5C1.10218 19.4999 0.720644 19.3419 0.43934 19.0606C0.158035 18.7793 0 18.3977 0 17.9999C0 17.6021 0.158035 17.2206 0.43934 16.9393C0.720644 16.6579 1.10218 16.4999 1.5 16.4999H13.5ZM28.5 16.4999H21.1L20.282 19.4999H28.5C28.8852 19.4997 29.2556 19.3513 29.5344 19.0855C29.8132 18.8197 29.979 18.4568 29.9975 18.072C30.016 17.6872 29.8858 17.3101 29.6338 17.0187C29.3818 16.7273 29.0274 16.5441 28.644 16.5069L28.5 16.4999Z" class="svg-primary-fill"/>
  </g>
</svg>
