<svg xmlns="http://www.w3.org/2000/svg" width="48" height="48" viewBox="0 0 48 48">
  <g class="neo-icon-kit--earliest-white">
    <g fill="#fff" class="svg-primary-fill">
      <path fill-rule="evenodd" d="M17.2007 17.1964C19.0026 15.3933 21.4494 14.3834 23.9985 14.3905C26.5466 14.3842 28.9921 15.394 30.7934 17.1964C32.5946 18.9987 33.6029 21.4448 33.595 23.9929C33.6021 26.5403 32.5934 28.9853 30.7921 30.7866C28.9909 32.5878 26.5458 33.5966 23.9985 33.5895C21.4514 33.5966 19.0065 32.5883 17.2049 30.7878C15.4033 28.9873 14.3935 26.543 14.399 23.9959C14.3903 21.4468 15.3987 18.9994 17.2007 17.1964ZM17.8469 23.99C17.8469 27.3874 20.6011 30.1416 23.9985 30.1416C27.396 30.1416 30.1502 27.3874 30.1502 23.99C30.1502 20.5925 27.396 17.8384 23.9985 17.8384C20.6011 17.8384 17.8469 20.5925 17.8469 23.99Z" clip-rule="evenodd"/>
      <path d="M38.9995 9.00079C38.0627 8.06397 36.3492 8.25667 35.1811 9.42474 34.0101 10.5987 33.8203 12.3004 34.7572 13.2432 35.694 14.18 37.4046 13.9932 38.5756 12.8192 39.7466 11.6482 39.9364 9.93762 38.9995 9.00079zM9.42439 35.1872C8.25335 36.3553 8.06362 38.0629 9.00044 38.9997 9.93727 39.9365 11.6449 39.7498 12.8189 38.5758 13.9929 37.4047 14.1826 35.6942 13.2458 34.7573 12.309 33.8205 10.5954 34.0162 9.42439 35.1872zM9.0004 8.99997C8.06357 9.9368 8.25331 11.6474 9.42138 12.8184 10.5954 13.9924 12.306 14.1762 13.2428 13.2424 14.1767 12.3055 13.9899 10.592 12.8159 9.42095 11.6478 8.25585 9.93722 8.06315 9.0004 8.99997zM35.1782 38.5693C36.3492 39.7433 38.0598 39.933 38.9996 38.9991 39.9394 38.0623 39.7467 36.3488 38.5727 35.1748 37.4016 34.0037 35.694 33.817 34.7542 34.7538 33.8144 35.6906 34.013 37.4012 35.1811 38.5693H35.1782zM24.0015 8.99449C25.3237 8.99449 26.3999 7.65151 26.3999 5.99428 26.3969 4.33409 25.3237 3 23.9986 3 22.6734 3 21.5972 4.33409 21.5972 5.99428 21.5972 7.65448 22.6704 8.99449 23.9986 8.99449H24.0015zM24.0015 45.0002C25.3237 45.0002 26.3999 43.6573 26.3999 42 26.3999 40.3398 25.3267 39.0057 24.0015 39.0057 22.6763 39.0057 21.6001 40.3398 21.6001 42 21.5972 43.6602 22.6704 45.0002 24.0015 45.0002zM9.00042 23.9988C9.00042 22.6766 7.64855 21.5975 5.99132 21.5975 4.33112 21.5975 3 22.6766 3 23.9988 3 25.327 4.33409 26.4002 5.99132 26.4002 7.65151 26.4002 9.00042 25.327 9.00042 23.9988zM45.0001 23.9988C45.0001 22.6766 43.6541 21.5975 41.9969 21.5975 40.3367 21.5975 38.9996 22.6766 38.9996 23.9988 38.9996 25.327 40.3367 26.4002 41.9939 26.4002 43.6541 26.4002 45.0001 25.327 45.0001 23.9988z"/>
    </g>
  </g>
</svg>
