<svg xmlns="http://www.w3.org/2000/svg" width="48" height="48" viewBox="0 0 48 48">
  <g class="neo-icon-kit--eco-outline-white">
    <path fill="#fff" fill-rule="evenodd" d="M0 24C0 10.7685 10.7664 0.00202224 23.998 0.00202224V0C37.2315 0 47.996 10.7644 47.996 24C47.996 37.2356 37.2315 48 23.998 48C10.7664 48 0 37.2356 0 24ZM23.998 43.9535C20.138 43.9543 16.3617 42.8284 13.1325 40.7139L16.3438 36.6411C18.3862 37.9596 20.5137 38.6795 22.6006 38.6795C22.8473 38.6795 23.0961 38.6673 23.3428 38.6471C26.4975 38.4004 29.3873 36.6451 31.9211 33.4277C36.5399 27.5733 36.182 12.8837 34.3074 11.3428C32.4469 9.94742 18.0748 13.0212 13.4621 18.8655C9.03741 24.4671 9.25581 30.3256 13.9434 34.7846L10.728 38.8595C6.63903 35.2053 4.04247 29.907 4.04247 24C4.04247 12.999 12.9929 4.04651 24 4.04651C35.001 4.04651 43.9535 12.999 43.9535 24C43.9535 35.003 35.001 43.9555 24 43.9555L23.998 43.9535ZM16.639 21.3711C19.6279 17.5854 27.4884 15.7998 31.3266 15.2073C31.6421 19.0758 31.7351 27.1385 28.7462 30.9242C26.9363 33.2174 25.0131 34.4631 23.0273 34.6208C21.6886 34.7159 20.2851 34.3256 18.8534 33.4681L27.3023 22.7604C27.6383 22.3348 27.7217 21.7624 27.5211 21.2587C27.3206 20.755 26.8665 20.3965 26.33 20.3183C25.7935 20.2401 25.2561 20.4541 24.9201 20.8797L16.4752 31.5834C13.5753 28.633 13.6138 25.2073 16.6411 21.3711H16.639Z" class="svg-primary-fill" clip-rule="evenodd"/>
  </g>
</svg>
