<svg xmlns="http://www.w3.org/2000/svg" width="48" height="48" viewBox="0 0 48 48">
  <g class="neo-icon-kit--eco-filled">
    <path fill="#00825F" d="M24 48C37.2548 48 48 37.2548 48 24C48 10.7452 37.2548 0 24 0C10.7452 0 0 10.7452 0 24C0 37.2548 10.7452 48 24 48Z" class="svg-secondary-fill"/>
    <path fill="#fff" fill-rule="evenodd" d="M10.7492 44.0135L16.348 36.6419C18.392 37.9619 20.516 38.6819 22.604 38.6819C22.8517 38.6814 23.0992 38.6707 23.346 38.6499C26.502 38.4039 29.39 36.6459 31.926 33.4299C36.544 27.5759 36.186 12.8859 34.312 11.3439C32.452 9.94995 18.08 13.0219 13.466 18.8659C9.04003 24.4699 9.26003 30.3259 13.948 34.7859L7.96582 41.8582C8.83825 42.642 9.76844 43.3629 10.7492 44.0135ZM31.33 15.2059C27.49 15.7979 19.63 17.5859 16.642 21.3699C13.614 25.2059 13.576 28.6339 16.476 31.5839L24.924 20.8779C25.2599 20.4528 25.797 20.2391 26.3331 20.3174C26.8692 20.3956 27.3228 20.754 27.5231 21.2574C27.7234 21.7608 27.6399 22.3328 27.304 22.7579L18.854 33.4679C20.286 34.3259 21.69 34.7159 23.03 34.6199C25.016 34.4639 26.94 33.2199 28.75 30.9259C31.738 27.1379 31.646 19.0759 31.33 15.2059Z" class="svg-primary-fill" clip-rule="evenodd"/>
  </g>
</svg>
