<svg xmlns="http://www.w3.org/2000/svg" width="48" height="48" viewBox="0 0 48 48">
  <g class="neo-icon-kit--eco-filled-white">
    <g fill="#fff" class="svg-primary-fill">
      <path d="M48 24C48 37.2548 37.2548 48 24 48C19.1018 48 14.5464 46.5327 10.7493 44.0136L16.348 36.6421C18.392 37.9621 20.516 38.6821 22.604 38.6821C22.8517 38.6815 23.0992 38.6708 23.346 38.6501C26.502 38.4041 29.39 36.6461 31.926 33.4301C36.544 27.5761 36.186 12.8861 34.312 11.3441C32.452 9.95007 18.08 13.0221 13.466 18.8661C9.04 24.4701 9.26 30.3261 13.948 34.7861L7.96585 41.8582C3.07568 37.4646 0 31.0915 0 24C0 10.7452 10.7452 0 24 0C37.2548 0 48 10.7452 48 24Z"/>
      <path d="M31.33 15.2061C27.49 15.7981 19.63 17.5861 16.642 21.3701C13.614 25.2061 13.576 28.6341 16.476 31.5841L24.924 20.8781C25.2598 20.4529 25.797 20.2392 26.3331 20.3175C26.8692 20.3957 27.3228 20.7541 27.5231 21.2575C27.7233 21.7609 27.6398 22.3329 27.304 22.7581L18.854 33.4681C20.286 34.3261 21.69 34.7161 23.03 34.6201C25.016 34.4641 26.94 33.2201 28.75 30.9261C31.738 27.1381 31.646 19.0761 31.33 15.2061Z"/>
    </g>
  </g>
</svg>
