<svg xmlns="http://www.w3.org/2000/svg" width="48" height="48" viewBox="0 0 48 48">
  <g class="neo-icon-kit--edit-pencil-filled">
    <path fill="#006FCF" fill-rule="evenodd" d="M35.5226 3.85398L33.3386 6.04201L41.9345 14.6508L44.1202 12.461L44.2555 12.3163C45.2922 11.1324 45.2471 9.32292 44.1202 8.1934L39.7882 3.85447L39.6478 3.72321C38.4935 2.71687 36.6138 2.76104 35.5226 3.85398ZM39.8141 16.7751L31.2182 8.16622L6.0138 33.4168L5.91194 33.5297C5.78419 33.6867 5.68919 33.8685 5.63294 34.0647L3.05775 43.0866L3.02427 43.23C2.93675 43.7103 3.08864 44.2073 3.43665 44.5573C3.72181 44.8446 4.10657 45 4.50013 45C4.63489 45 4.77161 44.9814 4.90443 44.9443L13.9542 42.4084L14.1003 42.3592C14.2911 42.2839 14.4654 42.1697 14.6115 42.0243L39.8141 16.7751Z" class="svg-primary-fill" clip-rule="evenodd"/>
  </g>
</svg>
