<svg xmlns="http://www.w3.org/2000/svg" width="48" height="48" viewBox="0 0 48 48">
  <g class="neo-icon-kit--edit-pencil">
    <path fill="#006FCF" fill-rule="evenodd" d="M35.5226 3.85398C36.6138 2.76104 38.4935 2.71687 39.6478 3.72321L39.7882 3.85447L44.1202 8.1934C45.2471 9.32292 45.2922 11.1324 44.2555 12.3163L44.1202 12.461L14.6115 42.0243C14.4654 42.1705 14.2911 42.2845 14.1003 42.3598L13.9542 42.4089L4.90443 44.9443C4.77064 44.9819 4.63489 45 4.50013 45C4.10657 45 3.72181 44.8446 3.43665 44.5578C3.08864 44.2073 2.93675 43.7103 3.02427 43.23L3.05775 43.0866L5.63294 34.0652C5.68919 33.8694 5.78419 33.6873 5.91194 33.53L6.0138 33.4168L35.5226 3.85398ZM33.3475 10.2982L8.41126 35.2638L6.67982 41.3295L12.7667 39.6242L37.6934 14.6516L33.3475 10.2982ZM35.4686 8.17471L37.6652 5.97556L41.9972 10.3399L39.8137 12.5274L35.4686 8.17471Z" class="svg-primary-fill" clip-rule="evenodd"/>
  </g>
</svg>
