<svg xmlns="http://www.w3.org/2000/svg" width="48" height="48" viewBox="0 0 48 48">
  <g class="neo-icon-kit--electric-car-charging-station-filled">
    <path fill="#006FCF" fill-rule="evenodd" d="M9 3H30C31.5911 3 32.9032 4.25527 32.9949 5.82441L33 6V18H37.5C38.2794 18 38.9204 18.5947 38.9931 19.3555L39 19.5L39.0098 33.9619C39.0098 35.0488 39.9697 35.5 40.4844 35.5C40.9833 35.5 41.8917 35.1089 41.9911 34.1753L42 34.0049L41.9993 12.9623C41.9886 12.5654 41.8195 9.19502 39.2281 9.00808L39 9H37.5C36.6719 9 36 8.32861 36 7.5C36 6.72013 36.5952 6.07953 37.3556 6.00686L37.5 6H39C43.3125 6 44.9336 10.0169 44.998 12.826L45 13V34.0049C45 36.7812 42.6562 38.5 40.4844 38.5C38.3935 38.5 36.1423 36.8633 36.0154 34.2005L36.0098 33.9629L36.0007 21H33V42H34.5C35.3281 42 36 42.6719 36 43.5C36 44.2794 35.4048 44.9204 34.6444 44.9931L34.5 45H4.5C3.67139 45 3 44.3281 3 43.5C3 42.7206 3.59472 42.0796 4.35551 42.0069L4.5 42H6V6C6 4.40891 7.25527 3.09681 8.82441 3.00512L9 3ZM24 9L21 21H27L15 39L18 27H12L24 9Z" class="svg-primary-fill" clip-rule="evenodd"/>
  </g>
</svg>
