<svg xmlns="http://www.w3.org/2000/svg" width="48" height="48" viewBox="0 0 48 48">
  <g class="neo-icon-kit--email-filled">
    <path fill="#006FCF" fill-rule="evenodd" d="M48 9C48 7.34315 46.6569 6 45 6H3C1.34315 6 0 7.34315 0 9V39C0 40.6569 1.34315 42 3 42H45C46.6569 42 48 40.6569 48 39V9ZM24 26.4586L42.4826 9.39779C43.0913 8.83589 44.0403 8.87385 44.6022 9.48258C45.1641 10.0913 45.1262 11.0403 44.5174 11.6022L25.0174 29.6022C24.4428 30.1326 23.5572 30.1326 22.9826 29.6022L3.48258 11.6022C2.87385 11.0403 2.83589 10.0913 3.39779 9.48258C3.9597 8.87385 4.90869 8.83589 5.51742 9.39779L24 26.4586Z" class="svg-primary-fill" clip-rule="evenodd"/>
  </g>
</svg>
