<svg xmlns="http://www.w3.org/2000/svg" width="32" height="32" viewBox="0 0 32 32">
  <g class="neo-icon-kit--error-red-circle">
    <path fill="#CF0000" d="M16 32C24.8366 32 32 24.8366 32 16C32 7.16344 24.8366 0 16 0C7.16344 0 0 7.16344 0 16C0 24.8366 7.16344 32 16 32Z" class="svg-secondary-fill"/>
    <path fill="#fff" d="M21.967 19.636C21.967 19.386 21.867 19.134 21.685 18.953L18.732 16L21.685 13.047C22.0578 12.668 22.0578 12.06 21.685 11.681L20.319 10.315C19.94 9.9422 19.332 9.9422 18.953 10.315L16 13.268L13.047 10.315C12.668 9.9422 12.06 9.9422 11.681 10.315L10.315 11.681C9.9422 12.06 9.9422 12.668 10.315 13.047L13.268 16L10.315 18.953C9.9422 19.332 9.9422 19.94 10.315 20.319L11.681 21.685C12.06 22.0578 12.668 22.0578 13.047 21.685L16 18.732L18.953 21.685C19.332 22.0578 19.94 22.0578 20.319 21.685L21.685 20.319C21.8651 20.1372 21.9664 19.8919 21.967 19.636Z" class="svg-primary-fill"/>
  </g>
</svg>
