<svg xmlns="http://www.w3.org/2000/svg" width="48" height="48" viewBox="0 0 48 48">
  <g class="neo-icon-kit--euro-cashback-filled">
    <path fill="#006FCF" fill-rule="evenodd" d="M40.2425 7.99961C36.026 3.53642 30.1525 1 24 1C11.2975 1 1 11.2975 1 24C1 36.7025 11.2975 47 24 47C36.7025 47 47 36.7025 47 24V23L46.9945 22.8507C46.9182 21.8159 46.0544 21 45 21C43.8954 21 43 21.8954 43 23V24L42.9971 24.3378C42.8168 34.6754 34.3806 43 24 43C13.5066 43 5 34.4934 5 24C5 13.5066 13.5066 5 24 5L24.4185 5.00477C29.434 5.11906 34.1914 7.28371 37.5742 11.0048L38.479 12H37L36.8507 12.0055C35.8159 12.0818 35 12.9456 35 14C35 15.1046 35.8954 16 37 16H43L43.1528 15.9942L43.3022 15.9772L43.4587 15.9471L43.6079 15.9059L43.7629 15.8494L43.9157 15.7786L44.0597 15.6966L44.2117 15.5913L44.3376 15.4869L44.405 15.4234L44.5155 15.3052L44.5928 15.2098C44.6508 15.1335 44.7034 15.053 44.7501 14.9687L44.8271 14.8147L44.8853 14.6686L44.9145 14.5803L44.9559 14.4195L44.9819 14.2705L44.9945 14.1493L45 14V8L44.9945 7.85074C44.9182 6.81588 44.0544 6 43 6L42.8507 6.00549C41.8159 6.08183 41 6.94564 41 8V8.828L40.5339 8.31412L40.2425 7.99961ZM32.8604 18.3807C33.4605 17.8345 33.5053 16.9056 32.9605 16.3041C30.3015 13.3715 26.345 11.9742 22.434 12.5865C18.523 13.1988 15.1829 15.7385 13.5474 19.3435H10.7809C10.2541 19.3421 9.76684 19.6223 9.50307 20.0782C9.23931 20.5342 9.23931 21.0963 9.50307 21.5522C9.76684 22.0082 10.2541 22.2884 10.7809 22.287H12.6485C12.5372 22.9273 12.4791 23.5756 12.475 24.2254C12.475 24.5646 12.4977 24.8981 12.5259 25.2301H10.7809C9.96951 25.2322 9.31291 25.8905 9.31291 26.7019C9.31291 27.5132 9.96951 28.1715 10.7809 28.1736H13.17C14.5506 32.0745 17.8806 34.9622 21.9376 35.7768C25.9946 36.5914 30.1811 35.2129 32.9605 32.1472C33.5053 31.5458 33.4605 30.6169 32.8604 30.0706C32.2602 29.5243 31.3312 29.5669 30.7835 30.1657C28.8282 32.3254 25.9317 33.379 23.0458 32.9804C20.1598 32.5818 17.6574 30.7825 16.3607 28.1736H24.8408C25.6522 28.1715 26.3088 27.5132 26.3088 26.7019C26.3088 25.8905 25.6522 25.2322 24.8408 25.2301H15.4798C15.361 24.2473 15.415 23.2512 15.6394 22.287H25.9543C26.7656 22.2849 27.4222 21.6266 27.4222 20.8152C27.4222 20.0039 26.7656 19.3456 25.9543 19.3435H16.896C18.5312 16.875 21.2944 15.3901 24.2554 15.3885C26.7417 15.3949 29.1107 16.4462 30.7835 18.2856C31.3312 18.8844 32.2602 18.927 32.8604 18.3807Z" class="svg-primary-fill" clip-rule="evenodd"/>
  </g>
</svg>
