<svg xmlns="http://www.w3.org/2000/svg" width="48" height="48" viewBox="0 0 48 48">
  <g class="neo-icon-kit--euro-regular">
    <path fill="#006FCF" fill-rule="evenodd" d="M24 1C36.7025 1 47 11.2975 47 24C47 36.7025 36.7025 47 24 47C11.2975 47 1 36.7025 1 24C1 11.2975 11.2975 1 24 1ZM24 4C12.9543 4 4 12.9543 4 24C4 35.0457 12.9543 44 24 44C35.0457 44 44 35.0457 44 24C44 12.9543 35.0457 4 24 4ZM34.0648 17.3784C34.7445 16.7598 34.7954 15.7079 34.1786 15.0265C31.1666 11.7046 26.6848 10.1217 22.2546 10.8153C17.8244 11.5089 14.0409 14.3858 12.1883 18.4694H9.05448C8.13373 18.4694 7.38731 19.2158 7.38731 20.1365C7.38731 21.0573 8.13373 21.8037 9.05448 21.8037H11.17C11.044 22.5289 10.9782 23.2634 10.9735 23.9995C10.9735 24.3836 10.9992 24.7615 11.0311 25.1375H9.05448C8.13373 25.1375 7.38731 25.8839 7.38731 26.8046C7.38731 27.7254 8.13373 28.4718 9.05448 28.4718H11.7608C13.3247 32.8906 17.0967 36.1616 21.6923 37.0844C26.288 38.0071 31.0303 36.4456 34.1786 32.973C34.7954 32.2917 34.7445 31.2397 34.0649 30.6211C33.3852 30.0025 32.3331 30.0505 31.7126 30.7284C29.4977 33.1748 26.2167 34.3683 22.9476 33.9168C19.6785 33.4652 16.8439 31.4271 15.3751 28.4718H24.981C25.9017 28.4718 26.6481 27.7254 26.6481 26.8047C26.6481 25.8839 25.9017 25.1375 24.981 25.1375H14.3773C14.2427 24.0242 14.3039 22.8959 14.5581 21.8037H26.2422C27.163 21.8037 27.9094 21.0573 27.9094 20.1365C27.9094 19.2158 27.163 18.4694 26.2422 18.4694H15.9814C17.8337 15.6732 20.9638 13.9911 24.3178 13.9894C27.1342 13.9966 29.8178 15.1875 31.7126 17.2711C32.3331 17.9491 33.3852 17.9971 34.0648 17.3784Z" class="svg-primary-fill" clip-rule="evenodd"/>
  </g>
</svg>
