<svg xmlns="http://www.w3.org/2000/svg" width="48" height="48" viewBox="0 0 48 48">
  <g class="neo-icon-kit--euro-autopay-filled">
    <path fill="#006FCF" fill-rule="evenodd" d="M24.4288 1.00411L24 1L23.6197 1.00308C11.0925 1.20619 1 11.4245 1 24V25L1.00549 25.1493C1.08183 26.1841 1.94564 27 3 27C4.10457 27 5 26.1046 5 25V24L5.00301 23.6585C5.1832 13.435 13.4382 5.18119 23.6622 5.00294L24 5L24.4185 5.00477C29.434 5.11906 34.1914 7.28371 37.5742 11.0048L38.479 12H37L36.8507 12.0055C35.8159 12.0818 35 12.9456 35 14C35 15.1046 35.8954 16 37 16H43L43.1528 15.9942L43.3022 15.9772L43.4587 15.9471L43.6079 15.9059L43.7629 15.8494L43.9157 15.7786L44.0597 15.6966L44.2117 15.5913L44.3376 15.4869L44.405 15.4234L44.5155 15.3052L44.5928 15.2098C44.6508 15.1335 44.7034 15.053 44.7501 14.9687L44.8271 14.8147L44.8853 14.6686L44.9145 14.5803L44.9559 14.4195L44.9819 14.2705L44.9945 14.1493L45 14V8L44.9945 7.85074C44.9182 6.81588 44.0544 6 43 6L42.8507 6.00549C41.8159 6.08183 41 6.94564 41 8V8.828L40.5339 8.31412L40.2355 7.9922C36.1176 3.63735 30.4214 1.11895 24.4288 1.00411ZM32.9605 16.3041C33.5053 16.9056 33.4605 17.8345 32.8604 18.3807C32.2602 18.927 31.3312 18.8844 30.7835 18.2856C29.1107 16.4462 26.7417 15.3949 24.2554 15.3885C21.2944 15.3901 18.5312 16.875 16.896 19.3435H25.9543C26.7656 19.3456 27.4222 20.0039 27.4222 20.8152C27.4222 21.6266 26.7656 22.2849 25.9543 22.287H15.6394C15.415 23.2512 15.361 24.2473 15.4798 25.2301H24.8408C25.6522 25.2322 26.3088 25.8905 26.3088 26.7019C26.3088 27.5132 25.6522 28.1715 24.8408 28.1736H16.3607C17.6574 30.7825 20.1598 32.5818 23.0458 32.9804C25.9317 33.379 28.8282 32.3254 30.7835 30.1657C31.3312 29.5669 32.2602 29.5243 32.8604 30.0706C33.4605 30.6169 33.5053 31.5458 32.9605 32.1472C30.1811 35.2129 25.9946 36.5914 21.9376 35.7768C17.8806 34.9622 14.5506 32.0745 13.17 28.1736H10.7809C9.96951 28.1715 9.31291 27.5132 9.31291 26.7019C9.31291 25.8905 9.96951 25.2322 10.7809 25.2301H12.5259C12.4977 24.8981 12.475 24.5646 12.475 24.2254C12.4791 23.5756 12.5372 22.9273 12.6485 22.287H10.7809C10.2541 22.2884 9.76684 22.0082 9.50307 21.5522C9.23931 21.0963 9.23931 20.5342 9.50307 20.0782C9.76684 19.6223 10.2541 19.3421 10.7809 19.3435H13.5474C15.1829 15.7385 18.523 13.1988 22.434 12.5865C26.345 11.9742 30.3015 13.3715 32.9605 16.3041ZM45 21C46.0544 21 46.9182 21.8159 46.9945 22.8507L47 23V24C47 36.5755 36.9075 46.7938 24.3803 46.9969L24 47L23.5674 46.996C17.2464 46.8778 11.2627 44.1743 6.99982 39.5411L7 40C7 41.1046 6.10457 42 5 42C3.94564 42 3.08183 41.1841 3.00549 40.1493L3 40L3.00049 33.9542L3.0106 33.7942L3.02097 33.7095L3.04508 33.576L3.08475 33.4223L3.13347 33.2802L3.19225 33.1433L3.2929 32.957L3.32221 32.911C3.40339 32.7862 3.49811 32.671 3.60429 32.5675L3.67333 32.5033L3.75022 32.4386L3.8833 32.3406L4.015 32.259C4.10113 32.2102 4.19122 32.1675 4.28468 32.1317L4.47418 32.0698L4.61218 32.0376L4.76185 32.014L4.91777 32.0016L11 32C12.1046 32 13 32.8954 13 34C13 35.0544 12.1841 35.9182 11.1493 35.9945L11 36L9.22131 36.001C12.8494 40.431 18.2736 43 24 43C34.3806 43 42.8168 34.6754 42.9971 24.3378L43 24V23C43 21.8954 43.8954 21 45 21Z" class="svg-primary-fill" clip-rule="evenodd"/>
  </g>
</svg>
