<svg xmlns="http://www.w3.org/2000/svg" width="48" height="48" viewBox="0 0 48 48">
  <g class="neo-icon-kit--euro-regular-filled">
    <path fill="#006FCF" fill-rule="evenodd" d="M47 24C47 11.2975 36.7025 1 24 1C11.2975 1 1 11.2975 1 24C1 36.7025 11.2975 47 24 47C36.7025 47 47 36.7025 47 24ZM22.2546 10.8153C26.6848 10.1217 31.1666 11.7045 34.1786 15.0265C34.7963 15.7077 34.7459 16.7604 34.0658 17.3794C33.3857 17.9984 32.3329 17.9499 31.7126 17.2711C29.6415 14.9846 26.6297 13.7839 23.5536 14.0182C20.4774 14.2525 17.6823 15.8956 15.9814 18.4694H26.2422L26.3903 18.4756C26.9291 18.5222 27.4156 18.8284 27.6895 19.3018C27.9882 19.8182 27.9882 20.4549 27.6895 20.9713C27.3907 21.4877 26.8388 21.8052 26.2422 21.8037H14.5581L14.4718 22.2149C14.2916 23.1777 14.2595 24.1633 14.3773 25.1374H24.981L25.1291 25.1437C25.6678 25.1903 26.1544 25.4965 26.4282 25.9699C26.727 26.4863 26.727 27.123 26.4282 27.6394C26.1295 28.1558 25.5776 28.4733 24.981 28.4718H15.3751L15.5215 28.7549C17.0273 31.5568 19.784 33.4797 22.9476 33.9167C26.2167 34.3682 29.4977 33.1747 31.7126 30.7283C32.1133 30.2865 32.7194 30.0924 33.3021 30.2192C33.8849 30.346 34.3556 30.7744 34.5364 31.3427C34.7173 31.911 34.5809 32.5326 34.1786 32.973C31.0303 36.4456 26.288 38.0071 21.6923 37.0843C17.0967 36.1616 13.3247 32.8906 11.7608 28.4718H9.05449L8.90639 28.4656C8.36767 28.419 7.8811 28.1128 7.60727 27.6394C7.30855 27.123 7.30855 26.4863 7.60727 25.9699C7.90599 25.4534 8.45789 25.136 9.05449 25.1374H11.0311L11.002 24.7607C10.9849 24.5089 10.9734 24.2556 10.9734 23.9995C10.9782 23.2634 11.0439 22.5289 11.17 21.8037H9.05449L8.90639 21.7975C8.36767 21.7509 7.8811 21.4447 7.60727 20.9713C7.30855 20.4549 7.30855 19.8182 7.60727 19.3018C7.90599 18.7853 8.45789 18.4679 9.05449 18.4694H12.1883L12.3385 18.1495C14.2405 14.2359 17.941 11.4907 22.2546 10.8153Z" class="svg-primary-fill" clip-rule="evenodd"/>
  </g>
</svg>
