<svg xmlns="http://www.w3.org/2000/svg" width="48" height="48" viewBox="0 0 48 48">
  <g class="neo-icon-kit--euro-cashback">
    <path fill="#006FCF" fill-rule="evenodd" d="M39.8723 8.33591C35.7507 3.97698 30.0116 1.5 24 1.5C11.5736 1.5 1.5 11.5736 1.5 24C1.5 36.4264 11.5736 46.5 24 46.5C36.4264 46.5 46.5 36.4264 46.5 24V23L46.4931 22.8555C46.4204 22.0949 45.7797 21.5 45 21.5C44.1716 21.5 43.5 22.1716 43.5 23V24L43.497 24.343C43.314 34.9543 34.655 43.5 24 43.5C13.2304 43.5 4.5 34.7696 4.5 24C4.5 13.2304 13.2304 4.5 24 4.5L24.4186 4.50464C29.5749 4.61905 34.4666 6.84316 37.9441 10.6685L39.609 12.5H37L36.8555 12.5069C36.0949 12.5796 35.5 13.2203 35.5 14C35.5 14.8284 36.1716 15.5 37 15.5H43L43.0726 15.4983L43.2179 15.4843L43.3273 15.4641L43.4748 15.4233L43.596 15.3769L43.7233 15.3145L43.8452 15.2394L43.9574 15.1548L44.0117 15.1075L44.1014 15.0184L44.184 14.9211L44.2822 14.7792L44.3536 14.6472L44.4102 14.5122L44.4661 14.3185L44.4841 14.2183L44.4983 14.071L44.5 8L44.4931 7.85554C44.4204 7.09489 43.7797 6.5 43 6.5L42.8555 6.50687C42.0949 6.57955 41.5 7.2203 41.5 8V10.12L40.164 8.65045L39.8723 8.33591ZM32.8604 18.3807C33.4605 17.8345 33.5053 16.9056 32.9605 16.3041C30.3015 13.3715 26.345 11.9742 22.434 12.5865C18.523 13.1988 15.1829 15.7385 13.5474 19.3435H10.7809C10.2541 19.3421 9.76684 19.6223 9.50307 20.0782C9.23931 20.5342 9.23931 21.0963 9.50307 21.5522C9.76684 22.0082 10.2541 22.2884 10.7809 22.287H12.6485C12.5372 22.9273 12.4791 23.5756 12.4749 24.2254C12.4749 24.5646 12.4977 24.8981 12.5259 25.2301H10.7808C9.96951 25.2322 9.31291 25.8905 9.31291 26.7019C9.31291 27.5132 9.96951 28.1715 10.7808 28.1736H13.17C14.5506 32.0745 17.8806 34.9622 21.9376 35.7768C25.9946 36.5914 30.1811 35.2129 32.9605 32.1472C33.5053 31.5458 33.4605 30.6169 32.8604 30.0706C32.2602 29.5243 31.3312 29.5669 30.7835 30.1657C28.8282 32.3254 25.9317 33.379 23.0458 32.9804C20.1598 32.5818 17.6574 30.7825 16.3607 28.1736H24.8408C25.6522 28.1715 26.3088 27.5132 26.3088 26.7019C26.3088 25.8905 25.6522 25.2322 24.8408 25.2301H15.4798C15.361 24.2473 15.415 23.2512 15.6394 22.287H25.9543C26.7656 22.2849 27.4222 21.6266 27.4222 20.8152C27.4222 20.0039 26.7656 19.3456 25.9543 19.3435H16.896C18.5312 16.875 21.2944 15.3901 24.2554 15.3885C26.7417 15.3949 29.1107 16.4462 30.7835 18.2856C31.3312 18.8844 32.2602 18.927 32.8604 18.3807Z" class="svg-primary-fill" clip-rule="evenodd"/>
  </g>
</svg>
