<svg xmlns="http://www.w3.org/2000/svg" width="48" height="48" viewBox="0 0 48 48">
  <g class="neo-icon-kit--euro-autopay">
    <path fill="#006FCF" fill-rule="evenodd" d="M24.4289 1.5042L24 1.5L23.6279 1.50301C11.3731 1.70171 1.5 11.6979 1.5 24V25L1.50687 25.1445C1.57955 25.9051 2.2203 26.5 3 26.5C3.82843 26.5 4.5 25.8284 4.5 25V24L4.50296 23.657C4.68402 13.1598 13.1598 4.68402 23.657 4.50296L24 4.5L24.4186 4.50464C29.5749 4.61905 34.4666 6.84316 37.9441 10.6685L39.609 12.5H37L36.8555 12.5069C36.0949 12.5796 35.5 13.2203 35.5 14C35.5 14.8284 36.1716 15.5 37 15.5H43L43.0726 15.4983L43.2179 15.4843L43.3273 15.4641L43.4748 15.4233L43.596 15.3769L43.7233 15.3145L43.8452 15.2394L43.9574 15.1548L44.009 15.1099L44.1014 15.0184L44.184 14.9211L44.2822 14.7792L44.3536 14.6472L44.4102 14.5122L44.4661 14.3185L44.4841 14.2183L44.4983 14.071L44.5 8L44.4931 7.85554C44.4204 7.09489 43.7797 6.5 43 6.5L42.8555 6.50687C42.0949 6.57955 41.5 7.2203 41.5 8V10.12L40.164 8.65045L39.8652 8.32831C35.8422 4.07784 30.2805 1.61895 24.4289 1.5042ZM32.9605 16.3041C33.5053 16.9056 33.4605 17.8345 32.8604 18.3807C32.2602 18.927 31.3312 18.8844 30.7835 18.2856C29.1107 16.4462 26.7417 15.3949 24.2554 15.3885C21.2944 15.3901 18.5312 16.875 16.896 19.3435H25.9543C26.7656 19.3456 27.4222 20.0039 27.4222 20.8152C27.4222 21.6266 26.7656 22.2849 25.9543 22.287H15.6394C15.415 23.2512 15.361 24.2473 15.4798 25.2301H24.8408C25.6522 25.2322 26.3088 25.8905 26.3088 26.7019C26.3088 27.5132 25.6522 28.1715 24.8408 28.1736H16.3607C17.6574 30.7825 20.1598 32.5818 23.0458 32.9804C25.9317 33.379 28.8282 32.3254 30.7835 30.1657C31.3312 29.5669 32.2602 29.5243 32.8604 30.0706C33.4605 30.6169 33.5053 31.5458 32.9605 32.1472C30.1811 35.2129 25.9946 36.5914 21.9376 35.7768C17.8806 34.9622 14.5506 32.0745 13.17 28.1736H10.7808C9.96951 28.1715 9.31291 27.5132 9.31291 26.7019C9.31291 25.8905 9.96951 25.2322 10.7808 25.2301H12.5259C12.4977 24.8981 12.4749 24.5646 12.4749 24.2254C12.4791 23.5756 12.5372 22.9273 12.6485 22.287H10.7809C10.2541 22.2884 9.76684 22.0082 9.50307 21.5522C9.23931 21.0963 9.23931 20.5342 9.50307 20.0782C9.76684 19.6223 10.2541 19.3421 10.7809 19.3435H13.5474C15.1829 15.7385 18.523 13.1988 22.434 12.5865C26.345 11.9742 30.3015 13.3715 32.9605 16.3041ZM45 21.5C45.7797 21.5 46.4204 22.0949 46.4931 22.8555L46.5 23V24C46.5 36.3021 36.6269 46.2983 24.3721 46.497L24 46.5L23.5678 46.4959C17.0924 46.3723 10.9797 43.4756 6.78357 38.5422L6.5 38.203V40C6.5 40.7797 5.90511 41.4204 5.14446 41.4931L5 41.5C4.2203 41.5 3.57955 40.9051 3.50687 40.1445L3.5 40V34C3.5 33.7535 3.55948 33.5208 3.66488 33.3156L3.73288 33.1969L3.79995 33.0999L3.88774 32.9935L3.98156 32.8987L4.06289 32.8288L4.16484 32.7539L4.28343 32.6819L4.31126 32.6671C4.3949 32.6238 4.48301 32.5882 4.57475 32.5611L4.7631 32.5186L4.89544 32.5035L4.95947 32.5005L11 32.5C11.8284 32.5 12.5 33.1716 12.5 34C12.5 34.7797 11.9051 35.4204 11.1445 35.4931L11 35.5H8.165L8.82856 36.3106C12.465 40.7552 17.8626 43.3762 23.5903 43.4957L24 43.5C34.655 43.5 43.314 34.9543 43.497 24.343L43.5 24V23C43.5 22.1716 44.1716 21.5 45 21.5Z" class="svg-primary-fill" clip-rule="evenodd"/>
  </g>
</svg>
