<svg xmlns="http://www.w3.org/2000/svg" width="48" height="48" viewBox="0 0 48 48">
  <g class="neo-icon-kit--expand">
    <path fill="#006FCF" fill-rule="evenodd" d="M41.9931 7.35554C41.9204 6.59489 41.2797 6 40.5 6L31.8555 6.00687C31.0949 6.07955 30.5 6.7203 30.5 7.5L30.5069 7.64446C30.5796 8.40511 31.2203 9 32 9H36.878L27.3364 18.5533C26.8558 19.1424 26.8902 20.0115 27.4393 20.5607L27.5533 20.6636C28.1424 21.1442 29.0115 21.1098 29.5607 20.5607L39 11.121L39.0069 16.1445C39.0796 16.9051 39.7203 17.5 40.5 17.5C41.3284 17.5 42 16.8284 42 16L41.9931 7.35554ZM20.5607 27.4393L20.4467 27.3364C19.8576 26.8558 18.9885 26.8902 18.4393 27.4393L9 36.879L8.99313 31.8555C8.92045 31.0949 8.2797 30.5 7.5 30.5C6.67157 30.5 6 31.1716 6 32L6.00687 40.6445C6.07955 41.4051 6.7203 42 7.5 42L16.1445 41.9931C16.9051 41.9204 17.5 41.2797 17.5 40.5L17.4931 40.3555C17.4204 39.5949 16.7797 39 16 39H11.122L20.6636 29.4467C21.1442 28.8576 21.1098 27.9885 20.5607 27.4393Z" class="svg-primary-fill" clip-rule="evenodd"/>
  </g>
</svg>
