<svg xmlns="http://www.w3.org/2000/svg" width="48" height="48" viewBox="0 0 48 48">
  <g class="neo-icon-kit--expand-vertical">
    <path fill="#006FCF" fill-rule="evenodd" d="M25.5603 2.96332C24.971 2.47686 24.0973 2.50929 23.5459 3.06062L17.4382 9.17803C16.9518 9.76729 16.9842 10.641 17.5355 11.1923L17.6425 11.2896C18.2318 11.7761 19.1055 11.7437 19.6569 11.1923L23.1061 7.74308L23.1143 19.1534C23.1911 19.9098 23.8299 20.5 24.6066 20.5L24.76 20.4923C25.5163 20.4154 26.1066 19.7767 26.1066 19L26.1064 7.74237L29.6634 11.2896C30.2526 11.7761 31.1263 11.7437 31.6777 11.1923C32.2635 10.6066 32.2635 9.65681 31.6777 9.07102L25.5603 2.96332ZM23.653 44.158C24.2422 44.6444 25.116 44.612 25.6673 44.0607L31.775 37.9433C32.2615 37.354 32.229 36.4803 31.6777 35.9289L31.5707 35.8316C30.9814 35.3452 30.1077 35.3776 29.5564 35.9289L26.1071 39.3782L26.0989 27.9679C26.0221 27.2115 25.3833 26.6213 24.6066 26.6213L24.4533 26.629C23.6969 26.7058 23.1066 27.3446 23.1066 28.1213L23.1069 39.3789L19.5499 35.8316C18.9606 35.3452 18.0869 35.3776 17.5356 35.9289C16.9498 36.5147 16.9498 37.4645 17.5356 38.0503L23.653 44.158Z" class="svg-primary-fill" clip-rule="evenodd"/>
  </g>
</svg>
