<svg xmlns="http://www.w3.org/2000/svg" width="48" height="48" viewBox="0 0 48 48">
  <g class="neo-icon-kit--expand-filled">
    <path fill="#006FCF" fill-rule="evenodd" d="M42.992 7.30873C42.8665 5.98308 41.7909 5 40.4993 5L31.8048 5.008C30.4792 5.13352 29.4961 6.20907 29.4961 7.50073L29.5041 7.69272C29.6296 9.01838 30.7051 10.0015 31.9968 10.0015H34.4614L26.5897 17.8865C25.749 18.9153 25.8181 20.3631 26.7275 21.2725L26.878 21.4103C27.9068 22.251 29.3546 22.1819 30.2641 21.2725L37.9985 13.5378L38.0065 16.1952C38.1321 17.5208 39.2076 18.5039 40.4993 18.5039C41.8804 18.5039 43 17.3843 43 16.0032L42.992 7.30873ZM21.2725 26.7323L21.0835 26.5615C20.0932 25.754 18.6454 25.8231 17.7359 26.7323L10.0015 34.4647L9.99346 31.8081C9.86793 30.4828 8.79238 29.5 7.50073 29.5C6.11961 29.5 5 30.6193 5 32L5.008 40.6919C5.13352 42.0172 6.20907 43 7.50073 43L16.1952 42.992C17.5208 42.8665 18.5039 41.7913 18.5039 40.5L18.4959 40.3081C18.3704 38.9828 17.2949 38 16.0032 38H13.5386L21.4103 30.1173C22.251 29.0888 22.1819 27.6414 21.2725 26.7323Z" class="svg-primary-fill" clip-rule="evenodd"/>
  </g>
</svg>
