<svg xmlns="http://www.w3.org/2000/svg" width="48" height="48" viewBox="0 0 48 48">
  <g class="neo-icon-kit--expense">
    <path fill="#006FCF" fill-rule="evenodd" d="M41.9949 2.82441C41.9032 1.25527 40.5911 0 39 0H9L8.82441 0.00511791C7.25527 0.0968098 6 1.40891 6 3V9L6.00512 9.17559C6.09681 10.7447 7.40891 12 9 12V46.5L9.00723 46.6474C9.05993 47.1823 9.39689 47.6528 9.89551 47.8731C10.4399 48.1113 11.0752 48.0068 11.5127 47.6064L15 44.4141L18.4873 47.6064L18.6057 47.7045C19.1756 48.1295 19.9786 48.0968 20.5127 47.6064L24 44.4141L27.4873 47.6064L27.6057 47.7045C28.1756 48.1295 28.9786 48.0968 29.5127 47.6064L33 44.4141L36.4873 47.6064L36.6129 47.7094C36.8732 47.9003 37.1844 48 37.5 48C37.7041 48 37.9102 47.958 38.1045 47.8731C38.6484 47.6328 39 47.0947 39 46.5V12L39.1756 11.9949C40.7447 11.9032 42 10.5911 42 9V3L41.9949 2.82441ZM12 12H36V43.0928L34.0127 41.2734L33.8943 41.1754C33.3244 40.7504 32.5214 40.7831 31.9873 41.2734L28.5 44.4658L25.0127 41.2734L24.8856 41.1689C24.6228 40.976 24.3114 40.8799 24 40.8799C23.6367 40.8799 23.2734 41.0107 22.9873 41.2734L19.5 44.4658L16.0127 41.2734L15.8943 41.1754C15.3244 40.7504 14.5214 40.7831 13.9873 41.2734L12 43.0928V12ZM19.5 30H28.5C29.3281 30 30 30.6719 30 31.5C30 32.2794 29.4048 32.9204 28.6444 32.9931L28.5 33H19.5C18.6719 33 18 32.3281 18 31.5C18 30.7206 18.5952 30.0796 19.3556 30.0069L19.5 30ZM28.5 24H19.5L19.3556 24.0069C18.5952 24.0795 18 24.7201 18 25.5C18 26.3281 18.6719 27 19.5 27H28.5L28.6444 26.9931C29.4048 26.9204 30 26.2794 30 25.5C30 24.6714 29.3281 24 28.5 24ZM19.5 18H28.5C29.3281 18 30 18.6714 30 19.5C30 20.2799 29.4048 20.9205 28.6444 20.9931L28.5 21H19.5C18.6719 21 18 20.3286 18 19.5C18 18.7201 18.5952 18.0795 19.3556 18.0069L19.5 18ZM9 3H39V9H9V3Z" class="svg-primary-fill" clip-rule="evenodd"/>
  </g>
</svg>
