<svg xmlns="http://www.w3.org/2000/svg" width="48" height="48" viewBox="0 0 48 48">
  <g class="neo-icon-kit--expense-filled">
    <path fill="#006FCF" fill-rule="evenodd" d="M9 0H39C40.5911 0 41.9032 1.25527 41.9949 2.82441L42 3V9C42 10.5911 40.7447 11.9032 39.1756 11.9949L39 12V46.5C39 47.0947 38.6484 47.6328 38.1045 47.8731C37.9102 47.958 37.7041 48 37.5 48C37.1844 48 36.8732 47.9003 36.6129 47.7094L36.4873 47.6064L33 44.4141L29.5127 47.6064C28.9786 48.0968 28.1756 48.1295 27.6057 47.7045L27.4873 47.6064L24 44.4141L20.5127 47.6064C19.9786 48.0968 19.1756 48.1295 18.6057 47.7045L18.4873 47.6064L15 44.4141L11.5127 47.6064C11.0742 48.0068 10.4395 48.1113 9.89551 47.8731C9.39689 47.6528 9.05993 47.1823 9.00723 46.6474L9 46.5V12C7.40891 12 6.09681 10.7447 6.00512 9.17559L6 9V3C6 1.40891 7.25527 0.0968098 8.82441 0.00511791L9 0ZM28.5 30H19.5C18.6719 30 18 30.6719 18 31.5C18 32.2794 18.5952 32.9204 19.3556 32.9931L19.5 33H28.5C29.3281 33 30 32.3281 30 31.5C30 30.7206 29.4048 30.0796 28.6444 30.0069L28.5 30ZM19.5 24H28.5L28.6444 24.0069C29.4048 24.0795 30 24.7201 30 25.5C30 26.3281 29.3281 27 28.5 27H19.5L19.3556 26.9931C18.5952 26.9204 18 26.2794 18 25.5C18 24.6714 18.6719 24 19.5 24ZM28.5 18H19.5C18.6719 18 18 18.6714 18 19.5C18 20.2799 18.5952 20.9205 19.3556 20.9931L19.5 21H28.5C29.3281 21 30 20.3286 30 19.5C30 18.7201 29.4048 18.0795 28.6444 18.0069L28.5 18ZM9 3H39V9H9V3Z" class="svg-primary-fill" clip-rule="evenodd"/>
  </g>
</svg>
