<svg xmlns="http://www.w3.org/2000/svg" width="48" height="48" viewBox="0 0 48 48">
  <g class="neo-icon-kit--faceid-filled">
    <path fill="#006FCF" fill-rule="evenodd" d="M35.3619 9.90091C35.7091 10.6525 35.3808 11.5429 34.6286 11.8898C33.8764 12.2366 32.9852 11.9086 32.6381 11.157C30.9311 7.46169 27.0187 5.72429 20.5713 6.03105C13.16 6.38367 9.6134 11.5874 9.50268 17.2488L9.5 17.5231L9.482 17.5228L6.10083 24.9219C5.98612 25.1729 6.09676 25.4693 6.34795 25.5839L6.40994 25.6074L11 27.0011V34.4948C11 34.74 11.1657 34.944 11.3989 34.9863L11.5 35H16.5C17.2797 35 17.9173 35.5887 17.99 36.3488L18 36.4931V40.5C18 41.3284 17.3284 42 16.5 42C15.7203 42 15.0796 41.4051 15.0069 40.6445L15 40.5V38H11.5C9.567 38 8 36.4262 8 34.4948V29.3781L5.40255 28.5778C3.5672 27.9717 2.57114 25.9938 3.17777 24.16C3.22066 24.0303 3.27111 23.9033 3.32887 23.7795L6.5126 16.9563C6.62302 14.441 7.45996 11.5054 9.06006 9.07971C11.3665 5.58324 15.0111 3.40503 20.009 3.06134L20.4287 3.03696L20.8535 3.01941C28.1723 2.76382 33.1122 5.03051 35.3619 9.90091ZM33 15C36.3137 15 39 17.6863 39 21V24H42C43.6569 24 45 25.3431 45 27V42C45 43.6569 43.6569 45 42 45H24C22.3431 45 21 43.6569 21 42V27C21 25.3431 22.3431 24 24 24H27V21C27 17.6863 29.6863 15 33 15ZM30.75 32.25C30.75 31.0073 31.7574 30 33 30C34.2426 30 35.25 31.0073 35.25 32.25C35.25 32.8474 35.0128 33.3854 34.6321 33.7873L34.5 33.9161V37.5L34.4931 37.6444C34.4204 38.4048 33.7794 39 33 39C32.2206 39 31.5796 38.4048 31.5069 37.6444L31.5 37.5V33.9161L31.3679 33.7873C30.9872 33.3854 30.75 32.8474 30.75 32.25ZM33 18C31.4023 18 30.0963 19.2489 30.0051 20.8237L30 21V24H36V21C36 19.3431 34.6569 18 33 18ZM18 19C18 17.8954 17.1045 17 16 17C14.8954 17 14 17.8954 14 19C14 20.1045 14.8954 21 16 21C17.1045 21 18 20.1045 18 19Z" class="svg-primary-fill" clip-rule="evenodd"/>
  </g>
</svg>
