<svg xmlns="http://www.w3.org/2000/svg" width="48" height="48" viewBox="0 0 48 48">
  <g class="neo-icon-kit--fastest-blue">
    <path fill="#006FCF" fill-rule="evenodd" d="M24 46.152C11.7658 46.152 1.84802 36.2342 1.84802 24C1.84802 11.7658 11.7658 1.84802 24 1.84802C36.2342 1.84802 46.152 11.7658 46.152 24C46.152 36.2342 36.2342 46.152 24 46.152ZM24 42.1296C30.4771 42.1296 36.4622 38.6741 39.7007 33.0648C42.9392 27.4555 42.9392 20.5445 39.7007 14.9352C36.4622 9.32591 30.4771 5.87043 24 5.87043C13.9873 5.87043 5.87041 13.9873 5.87041 24C5.87041 34.0127 13.9873 42.1296 24 42.1296Z" class="svg-primary-fill" clip-rule="evenodd"/>
    <path fill="#006FCF" fill-rule="evenodd" d="M25.3368 24.096L31.7016 27.2784C32.5724 27.7555 32.9106 28.8355 32.4673 29.7241C32.024 30.6126 30.9577 30.992 30.0528 30.5832L22.668 26.892C22.0397 26.5793 21.6426 25.9378 21.6432 25.236V14.16C21.679 13.1659 22.4953 12.3785 23.49 12.3785C24.4847 12.3785 25.3009 13.1659 25.3368 14.16V24.096Z" class="svg-secondary-fill" clip-rule="evenodd"/>
  </g>
</svg>
