<svg xmlns="http://www.w3.org/2000/svg" width="48" height="48" viewBox="0 0 48 48">
  <g class="neo-icon-kit--favorite">
    <path fill="#006FCF" fill-rule="evenodd" d="M26.4997 2.55648C25.4772 0.481174 22.5228 0.481174 21.5003 2.55648L15.5948 14.542L2.3898 16.464C0.103348 16.7968 -0.80962 19.6113 0.84487 21.2267L10.4001 30.5562L8.14441 43.7296C7.75384 46.0106 10.144 47.75 12.1891 46.6731L24 40.4534L35.8109 46.6731C37.856 47.75 40.2462 46.0106 39.8556 43.7296L37.5999 30.5562L47.1551 21.2267C48.8096 19.6113 47.8967 16.7968 45.6102 16.464L32.4052 14.542L26.4997 2.55648ZM17.5106 17.1672L24 4L30.4894 17.1672L45 19.2786L34.5 29.5279L36.9787 44L24 37.1672L11.0213 44L13.5 29.5279L3 19.2786L17.5106 17.1672Z" class="svg-primary-fill" clip-rule="evenodd"/>
  </g>
</svg>
