<svg xmlns="http://www.w3.org/2000/svg" width="48" height="48" viewBox="0 0 48 48">
  <g class="neo-icon-kit--feedback-filled">
    <path fill="#006FCF" fill-rule="evenodd" d="M42 3H6L5.82441 3.00512C4.25527 3.09681 3 4.40891 3 6V33L3.00512 33.1756C3.09681 34.7447 4.40891 36 6 36H27.8789L36.4395 44.5605L36.5515 44.6619C36.8226 44.8834 37.1591 45 37.5 45C37.6934 45 37.8887 44.9629 38.0742 44.8857C38.6348 44.6533 39 44.1064 39 43.5V36H42L42.1756 35.9949C43.7447 35.9032 45 34.591 45 33V6L44.9949 5.82441C44.9032 4.25527 43.5911 3 42 3ZM13.5 24H25.5L25.6444 24.0069C26.4048 24.0795 27 24.7201 27 25.5C27 26.3281 26.3281 27 25.5 27H13.5L13.3556 26.9931C12.5952 26.9204 12 26.2794 12 25.5C12 24.6714 12.6719 24 13.5 24ZM34.5 18H13.5C12.6719 18 12 18.6714 12 19.5C12 20.2799 12.5952 20.9205 13.3556 20.9931L13.5 21H34.5C35.3281 21 36 20.3286 36 19.5C36 18.7201 35.4048 18.0795 34.6444 18.0069L34.5 18ZM13.5 12H34.5L34.6444 12.0069C35.4048 12.0795 36 12.7201 36 13.5C36 14.3286 35.3281 15 34.5 15H13.5L13.3556 14.9931C12.5952 14.9205 12 14.2799 12 13.5C12 12.6714 12.6719 12 13.5 12Z" class="svg-primary-fill" clip-rule="evenodd"/>
  </g>
</svg>
