<svg xmlns="http://www.w3.org/2000/svg" width="48" height="48" viewBox="0 0 48 48">
  <g class="neo-icon-kit--feedback">
    <path fill="#006FCF" fill-rule="evenodd" d="M42 3C43.5911 3 44.9032 4.25527 44.9949 5.82441L45 6V33C45 34.591 43.7447 35.9032 42.1756 35.9949L42 36H39V43.5C39 44.1064 38.6348 44.6533 38.0742 44.8857C37.8887 44.9629 37.6934 45 37.5 45C37.1591 45 36.8226 44.8834 36.5515 44.6619L36.4395 44.5605L27.8789 36H6C4.40891 36 3.09681 34.7447 3.00512 33.1756L3 33V6C3 4.40891 4.25527 3.09681 5.82441 3.00512L6 3H42ZM42 6H6V33H29.1094L36 39.8789V33H42V6ZM25.5 24H13.5L13.3555 24.0069C12.5947 24.0795 12 24.7201 12 25.5C12 26.3281 12.6714 27 13.5 27H25.5L25.6444 26.9931C26.4048 26.9204 27 26.2794 27 25.5C27 24.6714 26.3281 24 25.5 24ZM13.5 18H34.5C35.3281 18 36 18.6714 36 19.5C36 20.2799 35.4048 20.9205 34.6444 20.9931L34.5 21H13.5C12.6714 21 12 20.3286 12 19.5C12 18.7201 12.5947 18.0795 13.3555 18.0069L13.5 18ZM34.5 12H13.5L13.3555 12.0069C12.5947 12.0795 12 12.7201 12 13.5C12 14.3286 12.6714 15 13.5 15H34.5L34.6444 14.9931C35.4048 14.9205 36 14.2799 36 13.5C36 12.6714 35.3281 12 34.5 12Z" class="svg-primary-fill" clip-rule="evenodd"/>
  </g>
</svg>
