<svg xmlns="http://www.w3.org/2000/svg" width="48" height="48" viewBox="0 0 48 48">
  <g class="neo-icon-kit--filter-filled">
    <path fill="#006FCF" fill-rule="evenodd" d="M9.18332 8C9.83625 5.6915 11.9587 4 14.4763 4C16.9938 4 19.1163 5.6915 19.7693 8H43.5C44.3284 8 45 8.67157 45 9.5C45 10.3284 44.3284 11 43.5 11H19.7693C19.1163 13.3085 16.9938 15 14.4763 15C11.9587 15 9.83625 13.3085 9.18332 11H4.5C3.67157 11 3 10.3284 3 9.5C3 8.67157 3.67157 8 4.5 8H9.18332ZM15.207 37C15.86 34.6915 17.9824 33 20.5 33C23.0176 33 25.14 34.6915 25.793 37H43.5C44.3284 37 45 37.6716 45 38.5C45 39.3284 44.3284 40 43.5 40H25.793C25.14 42.3085 23.0176 44 20.5 44C17.9824 44 15.86 42.3085 15.207 40H4.5C3.67157 40 3 39.3284 3 38.5C3 37.6716 3.67157 37 4.5 37H15.207ZM33.5 18.5C30.9824 18.5 28.86 20.1915 28.207 22.5H4.5C3.67157 22.5 3 23.1716 3 24C3 24.8284 3.67157 25.5 4.5 25.5H28.207C28.86 27.8085 30.9824 29.5 33.5 29.5C36.0176 29.5 38.14 27.8085 38.793 25.5H43.5C44.3284 25.5 45 24.8284 45 24C45 23.1716 44.3284 22.5 43.5 22.5H38.793C38.14 20.1915 36.0176 18.5 33.5 18.5Z" class="svg-primary-fill" clip-rule="evenodd"/>
  </g>
</svg>
