<svg xmlns="http://www.w3.org/2000/svg" width="48" height="48" viewBox="0 0 48 48">
  <g class="neo-icon-kit--filter">
    <path fill="#006FCF" fill-rule="evenodd" d="M9.18332 8C9.83625 5.6915 11.9587 4 14.4763 4C16.9938 4 19.1163 5.6915 19.7693 8H43.5C44.3284 8 45 8.67157 45 9.5C45 10.3284 44.3284 11 43.5 11H19.7693C19.1163 13.3085 16.9938 15 14.4763 15C11.9587 15 9.83625 13.3085 9.18332 11H4.5C3.67157 11 3 10.3284 3 9.5C3 8.67157 3.67157 8 4.5 8H9.18332ZM20.5 33C17.9824 33 15.86 34.6915 15.207 37H4.5C3.67157 37 3 37.6716 3 38.5C3 39.3284 3.67157 40 4.5 40H15.207C15.86 42.3085 17.9824 44 20.5 44C23.0176 44 25.14 42.3085 25.793 40H43.5C44.3284 40 45 39.3284 45 38.5C45 37.6716 44.3284 37 43.5 37H25.793C25.14 34.6915 23.0176 33 20.5 33ZM23 38.5C23 39.8807 21.8807 41 20.5 41C19.1193 41 18 39.8807 18 38.5C18 37.1193 19.1193 36 20.5 36C21.8807 36 23 37.1193 23 38.5ZM16.9763 9.5C16.9763 10.8807 15.857 12 14.4763 12C13.0956 12 11.9763 10.8807 11.9763 9.5C11.9763 8.11929 13.0956 7 14.4763 7C15.857 7 16.9763 8.11929 16.9763 9.5ZM28.207 22.5C28.86 20.1915 30.9824 18.5 33.5 18.5C36.0176 18.5 38.14 20.1915 38.793 22.5H43.5C44.3284 22.5 45 23.1716 45 24C45 24.8284 44.3284 25.5 43.5 25.5H38.793C38.14 27.8085 36.0176 29.5 33.5 29.5C30.9824 29.5 28.86 27.8085 28.207 25.5H4.5C3.67157 25.5 3 24.8284 3 24C3 23.1716 3.67157 22.5 4.5 22.5H28.207ZM36 24C36 25.3807 34.8807 26.5 33.5 26.5C32.1193 26.5 31 25.3807 31 24C31 22.6193 32.1193 21.5 33.5 21.5C34.8807 21.5 36 22.6193 36 24Z" class="svg-primary-fill" clip-rule="evenodd"/>
  </g>
</svg>
