<svg xmlns="http://www.w3.org/2000/svg" width="48" height="48" viewBox="0 0 48 48">
  <g class="neo-icon-kit--flag-circle-filled">
    <path fill="#006FCF" fill-rule="evenodd" d="M0 24C0 10.752 10.752 0 24 0C37.248 0 48 10.752 48 24C48 37.248 37.248 48 24 48C10.752 48 0 37.248 0 24ZM16 12.5C16 11.6716 16.6716 11 17.5 11L17.5163 11.0001L17.533 11H32.9766C33.7415 11 34.2353 11.7918 33.8855 12.4573L30.9498 18.0427C30.7989 18.3297 30.7989 18.6703 30.9498 18.9573L33.8855 24.5427C34.2353 25.2082 33.7415 26 32.9766 26H19V36.5C19 37.3284 18.3284 38 17.5 38C16.6716 38 16 37.3284 16 36.5V12.5Z" class="svg-primary-fill" clip-rule="evenodd"/>
  </g>
</svg>
