<svg xmlns="http://www.w3.org/2000/svg" width="48" height="48" viewBox="0 0 48 48">
  <g class="flag">
    <path fill="#006FCF" fill-rule="evenodd" d="M6 7.5C6 6.67157 6.64938 6 7.45042 6H41.0316C41.7842 6 42.2483 6.85001 41.8595 7.51649L35.1715 18.9835C34.9863 19.3012 34.9863 19.6988 35.1715 20.0165L41.8595 31.4835C42.2483 32.15 41.7842 33 41.0316 33H9V40.5C9 41.3284 8.32843 42 7.5 42C6.67157 42 6 41.3284 6 40.5V7.5ZM8.90084 16.9626V9H37.6066L32.6876 17.434C31.9465 18.7047 31.9465 20.2953 32.6876 21.566L37.6066 30H9V17.5C9 17.3106 8.9649 17.1294 8.90084 16.9626Z" class="svg-primary-fill" clip-rule="evenodd"/>
  </g>
</svg>
