<svg xmlns="http://www.w3.org/2000/svg" width="48" height="48" viewBox="0 0 48 48">
  <g class="neo-icon-kit--flash-off-filled">
    <path fill="#006FCF" fill-rule="evenodd" d="M27.8788 3.87868L17.4355 14.322L7.17419 4.06066C6.5884 3.47487 5.63865 3.47487 5.05287 4.06066C4.46708 4.64644 4.46708 5.59619 5.05287 6.18198L42.5295 43.6586C43.1153 44.2444 44.0651 44.2444 44.6508 43.6586C45.2366 43.0729 45.2366 42.1231 44.6508 41.5373L33.6781 30.5646L41.1214 23.1213C43.0113 21.2314 41.6728 18 39.0001 18H30.6595L32.9419 6.58835C33.524 3.67776 29.9776 1.77983 27.8788 3.87868ZM28.3748 35.8679C28.9606 35.2821 28.9606 34.3324 28.3748 33.7466L14.2535 19.6253C13.6677 19.0395 12.718 19.0395 12.1322 19.6253L6.8788 24.8787C4.9889 26.7686 6.3274 30 9.00012 30H17.3407L15.0584 41.4117C14.4763 44.3222 18.0226 46.2202 20.1214 44.1213L28.3748 35.8679Z" class="svg-primary-fill" clip-rule="evenodd"/>
  </g>
</svg>
