<svg xmlns="http://www.w3.org/2000/svg" width="48" height="48" viewBox="0 0 48 48">
  <g class="neo-icon-kit--flash-off">
    <path fill="#006FCF" fill-rule="evenodd" d="M17.4355 14.322L27.8788 3.87868C29.9776 1.77983 33.524 3.67776 32.9419 6.58835L30.6595 18H39.0001C41.6728 18 43.0113 21.2314 41.1214 23.1213L33.6781 30.5646L44.6508 41.5373C45.2366 42.1231 45.2366 43.0729 44.6508 43.6586C44.0651 44.2444 43.1153 44.2444 42.5295 43.6586L5.05287 6.18198C4.46708 5.59619 4.46708 4.64644 5.05287 4.06066C5.63865 3.47487 6.5884 3.47487 7.17419 4.06066L17.4355 14.322ZM31.5568 28.4433L39.0001 21H27.0001L30.0001 6L19.5568 16.4433L31.5568 28.4433ZM15.0584 41.4117C14.4763 44.3222 18.0226 46.2202 20.1214 44.1213L28.3748 35.8679C28.9606 35.2821 28.9606 34.3324 28.3748 33.7466C27.7891 33.1608 26.8393 33.1608 26.2535 33.7466L18.0001 42L21.0001 27H9.00012L14.2535 21.7466C14.8393 21.1608 14.8393 20.2111 14.2535 19.6253C13.6677 19.0395 12.718 19.0395 12.1322 19.6253L6.8788 24.8787C4.9889 26.7686 6.3274 30 9.00012 30H17.3407L15.0584 41.4117Z" class="svg-primary-fill" clip-rule="evenodd"/>
  </g>
</svg>
