<svg xmlns="http://www.w3.org/2000/svg" width="48" height="48" viewBox="0 0 48 48">
  <g class="neo-icon-kit--folder-move-filled">
    <path fill="#006FCF" fill-rule="evenodd" d="M24.8182 13L23.7181 8.97477C23.287 7.7892 22.1602 7 20.8987 7H7C5.34315 7 4 8.34315 4 10V36C4 37.6569 5.34315 39 7 39H41C42.6569 39 44 37.6569 44 36V16C44 14.3431 42.6569 13 41 13H24.8182ZM20.8987 10L21.8078 13H7V10L20.8987 10ZM30.432 32.0533C29.8503 31.4634 29.8569 30.5137 30.4467 29.932L32.9128 27.5H24.5C23.6716 27.5 23 26.8284 23 26C23 25.1716 23.6716 24.5 24.5 24.5L32.8454 24.5L30.4321 22.0534C29.8503 21.4636 29.8568 20.5138 30.4466 19.9321C31.0364 19.3503 31.9862 19.3568 32.5679 19.9466L37.5679 25.0157C37.8473 25.299 38.0027 25.6816 38 26.0794C37.9972 26.4773 37.8365 26.8577 37.5533 27.1371L32.5533 32.068C31.9634 32.6497 31.0137 32.6431 30.432 32.0533Z" class="svg-primary-fill" clip-rule="evenodd"/>
  </g>
</svg>
