<svg xmlns="http://www.w3.org/2000/svg" width="48" height="48" viewBox="0 0 48 48">
  <g class="neo-icon-kit--folder-new">
    <g fill="#006FCF" class="svg-primary-fill">
      <path d="M30.5 21.5C30.5 20.6716 31.1716 20 32 20C32.8284 20 33.5 20.6716 33.5 21.5V24.5H36.5C37.3284 24.5 38 25.1716 38 26C38 26.8284 37.3284 27.5 36.5 27.5H33.5V30.5C33.5 31.3284 32.8284 32 32 32C31.1716 32 30.5 31.3284 30.5 30.5V27.5H27.5C26.6716 27.5 26 26.8284 26 26C26 25.1716 26.6716 24.5 27.5 24.5H30.5V21.5Z"/>
      <path fill-rule="evenodd" d="M7 7C5.34315 7 4 8.34315 4 10V36C4 37.6569 5.34315 39 7 39H41C42.6569 39 44 37.6569 44 36V16C44 14.3431 42.6569 13 41 13H25L23.6838 9.05132C23.2754 7.82629 22.129 7 20.8377 7H7ZM20.8377 10H7L7 13H21.8377L20.8377 10ZM7 36L7 16H41V36H7Z" clip-rule="evenodd"/>
    </g>
  </g>
</svg>
