<svg xmlns="http://www.w3.org/2000/svg" width="48" height="48" viewBox="0 0 48 48">
  <g class="neo-icon-kit--folder-move">
    <g fill="#006FCF" class="svg-primary-fill">
      <path d="M29.932 32.0533C29.3503 31.4634 29.3569 30.5137 29.9467 29.932L32.4128 27.5H23.5C22.6716 27.5 22 26.8284 22 26C22 25.1716 22.6716 24.5 23.5 24.5L32.3454 24.5L29.9321 22.0534C29.3503 21.4636 29.3568 20.5138 29.9466 19.9321C30.5364 19.3503 31.4862 19.3569 32.0679 19.9466L37.0679 25.0157C37.3473 25.299 37.5027 25.6816 37.5 26.0794C37.4972 26.4773 37.3365 26.8577 37.0533 27.1371L32.0533 32.068C31.4634 32.6497 30.5137 32.6431 29.932 32.0533Z"/>
      <path fill-rule="evenodd" d="M7 7C5.34315 7 4 8.34315 4 10V36C4 37.6569 5.34315 39 7 39H41C42.6569 39 44 37.6569 44 36V16C44 14.3431 42.6569 13 41 13H25L23.6838 9.05132C23.2754 7.82629 22.129 7 20.8377 7H7ZM20.8377 10H7L7 13H21.8377L20.8377 10ZM7 36L7 16H41V36H7Z" clip-rule="evenodd"/>
    </g>
  </g>
</svg>
