<svg xmlns="http://www.w3.org/2000/svg" width="48" height="48" viewBox="0 0 48 48">
  <g class="neo-icon-kit--folder-new-filled">
    <path fill="#006FCF" fill-rule="evenodd" d="M23.7181 8.97477L24.8182 13H41C42.6569 13 44 14.3431 44 16V36C44 37.6569 42.6569 39 41 39H7C5.34315 39 4 37.6569 4 36V10C4 8.34315 5.34315 7 7 7H20.8987C22.1602 7 23.287 7.7892 23.7181 8.97477ZM21.8078 13L20.8987 10L7 10V13H21.8078ZM30.5 21.5C30.5 20.6716 31.1716 20 32 20C32.8284 20 33.5 20.6716 33.5 21.5V24.5H36.5C37.3284 24.5 38 25.1716 38 26C38 26.8284 37.3284 27.5 36.5 27.5H33.5V30.5C33.5 31.3284 32.8284 32 32 32C31.1716 32 30.5 31.3284 30.5 30.5V27.5H27.5C26.6716 27.5 26 26.8284 26 26C26 25.1716 26.6716 24.5 27.5 24.5H30.5V21.5Z" class="svg-primary-fill" clip-rule="evenodd"/>
  </g>
</svg>
