<svg xmlns="http://www.w3.org/2000/svg" width="48" height="48" viewBox="0 0 48 48">
  <g class="neo-icon-kit--fraud-protection">
    <path fill="#006FCF" fill-rule="evenodd" d="M8.80696 5.77424L8.38157 6.03281C7.6887 6.4867 7.49583 7.41643 7.95042 8.10848C8.40548 8.80004 9.33517 8.99428 10.0271 8.53942L10.2547 8.40287C11.6976 7.57026 19.7903 3.39405 29.0617 8.5936C29.2942 8.7239 29.5461 8.78588 29.7951 8.78588C30.3196 8.78539 30.8293 8.50965 31.1047 8.01965C31.51 7.29734 31.2522 6.38371 30.5305 5.97864C19.9804 0.0635498 10.8743 4.58158 8.80696 5.77424ZM3.26387 17.1437L3.50784 16.8106C4.70769 15.2366 10.1551 8.815 18.9897 9.00169L19.9941 9.03499C21.4734 9.11204 25.6043 9.5172 29.6252 11.6986C30.3527 12.0939 30.6233 13.0041 30.2277 13.7318C29.8322 14.459 28.9211 14.7284 28.1936 14.334C24.4946 12.3265 20.5924 12.0554 19.6015 12.019L19.3635 12.0133C10.7819 11.597 5.78633 18.7699 5.73653 18.8421C5.44552 19.2648 4.97628 19.4922 4.49874 19.4922C4.20626 19.4922 3.91037 19.4068 3.6506 19.2286C2.96798 18.7596 2.79464 17.8265 3.26387 17.1437ZM33 15C36.2334 15 38.8773 17.5711 38.9959 20.7768L39 21.0015V23.9949H42C43.5911 23.9949 44.9032 25.2505 44.9949 26.82L45 26.9956V41.9993C45 43.5907 43.7447 44.9032 42.1756 44.9949L42 45H24C22.4089 45 21.0968 43.7444 21.0051 42.1749L21 41.9993V26.9956C21 25.4041 22.2553 24.0917 23.8244 24L24 23.9949H27V21.0015C27 17.6921 29.6914 15 33 15ZM19.1448 20.9832L19.2935 20.9717C19.5283 20.9579 19.9882 20.9438 20.38 20.9885C21.2033 21.0822 21.7941 21.825 21.7003 22.6478C21.6124 23.4183 21.0148 23.8234 20.2446 23.9064L19.8857 23.9347C19.8437 23.9387 19.8005 23.9429 19.758 23.9471C19.6105 23.9617 19.4711 23.9754 19.4192 23.9725C14.3176 24.7177 12.9954 28.7119 12.9827 28.7529C10.802 34.4699 14.6526 42.47 14.6916 42.55C15.0549 43.2938 14.7463 44.1918 14.0032 44.5549C13.7903 44.6584 13.5657 44.7081 13.344 44.7081C12.8364 44.7081 12.3465 44.449 12.0679 43.9968L11.9707 43.8139C11.5739 42.9876 7.72768 34.6816 10.04 28.069L10.2284 27.55C10.6426 26.4825 12.8059 21.8333 19.1448 20.9832ZM24 42V27H42V42H24ZM15.9807 29.1326C16.3703 28.4005 17.2795 28.1262 18.009 28.5128C18.7404 28.9013 19.0178 29.809 18.6291 30.5401C17.4738 32.7119 18.2795 36.2903 18.6867 37.486C18.9533 38.2689 18.5363 39.121 17.7541 39.3894C17.592 39.4441 17.4279 39.4704 17.2668 39.4704C16.6447 39.4704 16.0637 39.081 15.8498 38.4602L15.7569 38.1703C15.3948 36.979 14.2138 32.4533 15.9807 29.1326ZM35.2502 32.2489C35.2502 31.0068 34.2428 30 33.0002 30C31.7576 30 30.7502 31.0068 30.7502 32.2489C30.7502 32.9124 31.043 33.5025 31.5002 33.9142V37.4964L31.5071 37.6408C31.5798 38.4008 32.2208 38.9957 33.0002 38.9957C33.8283 38.9957 34.5002 38.3241 34.5002 37.4964V33.9142L34.6323 33.7855C35.0131 33.3838 35.2502 32.846 35.2502 32.2489ZM10.3948 18.1945L10.7655 17.9348C12.4793 16.7813 18.4004 13.3779 25.257 16.1891C26.0237 16.5034 26.3908 17.3789 26.0764 18.1452C25.7639 18.9114 24.885 19.2779 24.1203 18.9641C17.7502 16.3555 12.1926 20.5718 12.1369 20.6147L11.7823 20.9108C11.7229 20.961 11.6658 21.0104 11.6146 21.057C4.80991 27.2568 6.14262 35.3795 6.15645 35.4626C6.29464 36.2796 5.74434 37.0526 4.92745 37.1912C4.84298 37.2049 4.75851 37.2117 4.6755 37.2117C4.00168 37.2117 3.40167 36.757 3.2275 36.097L3.18093 35.8491C3.0098 34.6672 1.97936 25.4665 10.0715 18.4379L10.2358 18.3113C10.2862 18.2738 10.3419 18.2329 10.3948 18.1945ZM30.0051 20.8307C30.0965 19.2543 31.4048 18 33 18C34.6543 18 36 19.3489 36 21.0071V24H30V21.0071L30.0051 20.8307Z" class="svg-primary-fill" clip-rule="evenodd"/>
  </g>
</svg>
