<svg xmlns="http://www.w3.org/2000/svg" width="48" height="48" viewBox="0 0 48 48">
  <g class="neo-icon-kit--fraud-protection-filled">
    <path fill="#006FCF" fill-rule="evenodd" d="M8.73789 5.81403L8.38086 6.03281C7.68848 6.48669 7.49512 7.41643 7.9502 8.10848C8.40527 8.80151 9.33594 8.99283 10.0273 8.53942L10.2547 8.40287C11.6969 7.57026 19.79 3.39405 29.0615 8.5936C29.2939 8.7239 29.5459 8.78588 29.7949 8.78588C30.3193 8.78539 30.8291 8.50965 31.1045 8.01965C31.5098 7.29734 31.2519 6.38371 30.5303 5.97864C19.859 -0.00444007 10.6649 4.68682 8.73789 5.81403ZM3.26366 17.1437L3.50773 16.8106C4.70778 15.2366 10.1545 8.815 18.9895 9.00169L19.9946 9.03499C21.4745 9.11204 25.604 9.5172 29.625 11.6986C30.3525 12.0939 30.623 13.0041 30.2275 13.7318C29.833 14.459 28.9209 14.7284 28.1933 14.334C24.4944 12.3265 20.5922 12.0554 19.6019 12.019L19.3633 12.0133C10.79 11.597 5.78612 18.7699 5.73632 18.8421C5.44531 19.2648 4.97558 19.4922 4.49902 19.4922C4.20605 19.4922 3.91016 19.4068 3.65039 19.2286C2.96777 18.7596 2.79492 17.8265 3.26366 17.1437ZM38.9959 20.7768C38.8773 17.5711 36.2334 15 33 15C29.6914 15 27 17.6921 27 21.0015V23.9949H24L23.8244 24C22.2553 24.0917 21 25.4041 21 26.9956V41.9993L21.0051 42.1749C21.0968 43.7444 22.4089 45 24 45H42L42.1756 44.9949C43.7447 44.9032 45 43.5907 45 41.9993V26.9956L44.9949 26.82C44.9032 25.2505 43.5911 23.9949 42 23.9949H39V21.0015L38.9959 20.7768ZM19.5873 20.9787L19.2877 20.9685C19.2408 20.9703 19.1955 20.9763 19.1515 20.9822L19.1445 20.9832L18.7834 21.0364C12.7231 22.0108 10.634 26.5031 10.2277 27.5507L10.0393 28.07C7.76393 34.5799 11.4569 42.7324 11.9498 43.7705L12.0678 43.9968C12.3467 44.449 12.8363 44.7081 13.3447 44.7081C13.5664 44.7081 13.792 44.6593 14.0039 44.5549C14.7481 44.1908 15.0557 43.2928 14.6904 42.549C14.6514 42.469 10.7949 34.4894 12.9815 28.7529L13.0289 28.6245C13.3035 27.9306 14.838 24.6417 19.419 23.9725C19.5127 23.9778 19.666 23.9886 19.8633 24.011C20.6846 24.1081 21.4297 23.5132 21.5234 22.6913C21.6172 21.8685 21.0264 21.1257 20.2031 21.032C19.9419 21.0022 19.7319 20.9867 19.5873 20.9787ZM15.9805 29.1326C16.3701 28.4005 17.2783 28.1262 18.0088 28.5128C18.7402 28.9013 19.0176 29.809 18.6289 30.5401C17.4736 32.7119 18.2793 36.2903 18.6865 37.486C18.9531 38.2689 18.5361 39.121 17.7539 39.3894C17.5918 39.4441 17.4277 39.4704 17.2666 39.4704C16.6924 39.4704 16.1531 39.1386 15.9053 38.5992L15.8496 38.4602C15.7715 38.2357 13.9727 32.9062 15.9805 29.1326ZM30.75 32.2489C30.75 31.0068 31.7574 30 33 30C34.2426 30 35.25 31.0068 35.25 32.2489C35.25 32.9124 34.9572 33.5025 34.5 33.9142V37.4964L34.4931 37.6408C34.4204 38.4008 33.7794 38.9957 33 38.9957C32.1719 38.9957 31.5 38.3241 31.5 37.4964V33.9142L31.3679 33.7855C30.9872 33.3838 30.75 32.846 30.75 32.2489ZM10.2461 18.2872L10.4756 18.1179C11.7627 17.2025 18.0042 13.2155 25.2568 16.1891C26.0234 16.5034 26.3906 17.3789 26.0762 18.1452C25.7637 18.9114 24.8848 19.2779 24.1201 18.9641C17.751 16.3555 12.1914 20.5718 12.1367 20.6147C4.84766 26.8183 6.09961 35.117 6.15625 35.4674C6.28906 36.2825 5.7373 37.0546 4.92187 37.1893C4.83788 37.2029 4.75585 37.2098 4.67382 37.2098C3.99999 37.2098 3.40083 36.756 3.22638 36.0968L3.17985 35.8499C3.00786 34.6627 1.9621 25.3358 10.2461 18.2872ZM30.0051 20.8307C30.0965 19.2543 31.4048 18 33 18C34.6543 18 36 19.3489 36 21.0071V24H30V21.0071L30.0051 20.8307Z" class="svg-primary-fill" clip-rule="evenodd"/>
  </g>
</svg>
