<svg xmlns="http://www.w3.org/2000/svg" width="48" height="48" viewBox="0 0 48 48">
  <g class="neo-icon-kit--freeze-card">
    <path fill="#006FCF" fill-rule="evenodd" d="M6 11C6 9.34315 7.34315 8 9 8C13.4857 8 17.7451 6.01228 21.8787 1.87868C23.0503 0.707107 24.9497 0.707107 26.1213 1.87868C30.2549 6.01228 34.5143 8 39 8C40.6569 8 42 9.34315 42 11V30C42 34.3548 38.7871 38.3237 33.6345 42.0548C30.0502 44.6504 25.5907 47 24 47C22.4093 47 17.9498 44.6504 14.3655 42.0548C9.2129 38.3237 6 34.3548 6 30V11ZM9 11V30C9 37 23 44 24 44C25 44 39 37 39 30V11C33.6667 11 28.6667 8.66667 24 4C19.3333 8.66667 14.3333 11 9 11ZM20.2901 14.2103L22.7797 16.3355V21.8349L18.1302 19.0852L17.5783 15.8141C17.4635 15.1338 16.8321 14.6776 16.168 14.7952C15.5039 14.9128 15.0585 15.5596 15.1733 16.2398L15.3789 17.4581L13.8307 16.5425C13.247 16.1973 12.5007 16.4021 12.1637 17C11.8267 17.5979 12.0267 18.3624 12.6104 18.7075L14.1586 19.6231L13.0258 20.0499C12.3933 20.2882 12.0691 21.0067 12.3018 21.6546C12.5344 22.3025 13.2358 22.6346 13.8683 22.3962L16.9099 21.2503L21.5594 24L16.9099 26.7497L13.8683 25.6038C13.2358 25.3654 12.5344 25.6975 12.3018 26.3454C12.0691 26.9933 12.3933 27.7118 13.0258 27.9501L14.1586 28.3769L12.6104 29.2925C12.0267 29.6376 11.8267 30.4021 12.1637 31C12.5007 31.5979 13.247 31.8027 13.8307 31.4575L15.3789 30.5419L15.1733 31.7602C15.0585 32.4405 15.5039 33.0872 16.168 33.2048C16.8321 33.3224 17.4635 32.8662 17.5783 32.1859L18.1302 28.9148L22.7797 26.1651V31.6645L20.2901 33.7897C19.7723 34.2316 19.7024 35.0199 20.1338 35.5502C20.5653 36.0805 21.3347 36.1522 21.8525 35.7102L22.7797 34.9188V36.75C22.7797 37.4404 23.326 38 24 38C24.674 38 25.2203 37.4404 25.2203 36.75V34.9188L26.1475 35.7102C26.6653 36.1522 27.4347 36.0805 27.8662 35.5502C28.2976 35.0199 28.2277 34.2316 27.7099 33.7897L25.2203 31.6645V26.1651L29.8698 28.9148L30.4217 32.1859C30.5365 32.8662 31.1679 33.3224 31.832 33.2048C32.4961 33.0872 32.9415 32.4405 32.8267 31.7602L32.6211 30.5419L34.1693 31.4575C34.753 31.8027 35.4993 31.5979 35.8363 31C36.1733 30.4021 35.9733 29.6376 35.3896 29.2925L33.8414 28.3769L34.9742 27.9501C35.6067 27.7118 35.9309 26.9933 35.6982 26.3454C35.4656 25.6975 34.7642 25.3654 34.1317 25.6038L31.0901 26.7497L26.4406 24L31.0901 21.2503L34.1317 22.3962C34.7642 22.6346 35.4656 22.3025 35.6982 21.6546C35.9309 21.0067 35.6067 20.2882 34.9742 20.0499L33.8414 19.6231L35.3896 18.7075C35.9733 18.3624 36.1733 17.5979 35.8363 17C35.4993 16.4021 34.753 16.1973 34.1693 16.5425L32.6211 17.4581L32.8267 16.2398C32.9415 15.5596 32.4961 14.9128 31.832 14.7952C31.1679 14.6776 30.5365 15.1338 30.4217 15.8141L29.8698 19.0852L25.2203 21.8349V16.3355L27.7099 14.2103C28.2277 13.7684 28.2976 12.9801 27.8662 12.4498C27.4347 11.9195 26.6653 11.8478 26.1475 12.2898L25.2203 13.0812V11.25C25.2203 10.5596 24.674 10 24 10C23.326 10 22.7797 10.5596 22.7797 11.25V13.0812L21.8525 12.2898C21.3347 11.8478 20.5653 11.9195 20.1338 12.4498C19.7024 12.9801 19.7723 13.7684 20.2901 14.2103Z" class="svg-primary-fill" clip-rule="evenodd"/>
  </g>
</svg>
