<svg xmlns="http://www.w3.org/2000/svg" width="48" height="48" viewBox="0 0 48 48">
  <g class="neo-icon-kit--freeze-card-filled">
    <path fill="#006FCF" fill-rule="evenodd" d="M9 8C7.34315 8 6 9.34315 6 11V30C6 34.3548 9.2129 38.3237 14.3655 42.0548C17.9498 44.6504 22.4093 47 24 47C25.5907 47 30.0502 44.6504 33.6345 42.0548C38.7871 38.3237 42 34.3548 42 30V11C42 9.34315 40.6569 8 39 8C34.5143 8 30.2549 6.01228 26.1213 1.87868C24.9497 0.707107 23.0503 0.707107 21.8787 1.87868C17.7451 6.01228 13.4857 8 9 8ZM18.1302 19.0852L22.7797 21.8349V16.3355L20.2901 14.2103C19.7723 13.7684 19.7024 12.9801 20.1338 12.4498C20.5653 11.9195 21.3347 11.8478 21.8525 12.2898L22.7797 13.0812V11.25C22.7797 10.5596 23.326 10 24 10C24.674 10 25.2203 10.5596 25.2203 11.25V13.0812L26.1475 12.2898C26.6653 11.8478 27.4347 11.9195 27.8662 12.4498C28.2976 12.9801 28.2277 13.7684 27.7099 14.2103L25.2203 16.3355V21.8349L29.8698 19.0852L30.4217 15.8141C30.5365 15.1338 31.1679 14.6776 31.832 14.7952C32.4961 14.9128 32.9415 15.5596 32.8267 16.2398L32.6211 17.4581L34.1693 16.5425C34.753 16.1973 35.4993 16.4021 35.8363 17C36.1733 17.5979 35.9733 18.3624 35.3896 18.7075L33.8414 19.6231L34.9742 20.0499C35.6067 20.2882 35.9309 21.0067 35.6982 21.6546C35.4656 22.3025 34.7642 22.6346 34.1317 22.3962L31.0901 21.2503L26.4406 24L31.0901 26.7497L34.1317 25.6038C34.7642 25.3654 35.4656 25.6975 35.6982 26.3454C35.9309 26.9933 35.6067 27.7118 34.9742 27.9501L33.8414 28.3769L35.3896 29.2925C35.9733 29.6376 36.1733 30.4021 35.8363 31C35.4993 31.5979 34.753 31.8027 34.1693 31.4575L32.6211 30.5419L32.8267 31.7602C32.9415 32.4405 32.4961 33.0872 31.832 33.2048C31.1679 33.3224 30.5365 32.8662 30.4217 32.1859L29.8698 28.9148L25.2203 26.1651V31.6645L27.7099 33.7897C28.2277 34.2316 28.2976 35.0199 27.8662 35.5502C27.4347 36.0805 26.6653 36.1522 26.1475 35.7102L25.2203 34.9188V36.75C25.2203 37.4404 24.674 38 24 38C23.326 38 22.7797 37.4404 22.7797 36.75V34.9188L21.8525 35.7102C21.3347 36.1522 20.5653 36.0805 20.1338 35.5502C19.7024 35.0199 19.7723 34.2316 20.2901 33.7897L22.7797 31.6645V26.1651L18.1302 28.9148L17.5783 32.1859C17.4635 32.8662 16.8321 33.3224 16.168 33.2048C15.5039 33.0872 15.0585 32.4405 15.1733 31.7602L15.3789 30.5419L13.8307 31.4575C13.247 31.8027 12.5007 31.5979 12.1637 31C11.8267 30.4021 12.0267 29.6376 12.6104 29.2925L14.1586 28.3769L13.0258 27.9501C12.3933 27.7118 12.0691 26.9933 12.3018 26.3454C12.5344 25.6975 13.2358 25.3654 13.8683 25.6038L16.9099 26.7497L21.5594 24L16.9099 21.2503L13.8683 22.3962C13.2358 22.6346 12.5344 22.3025 12.3018 21.6546C12.0691 21.0067 12.3933 20.2882 13.0258 20.0499L14.1586 19.6231L12.6104 18.7075C12.0267 18.3624 11.8267 17.5979 12.1637 17C12.5007 16.4021 13.247 16.1973 13.8307 16.5425L15.3789 17.4581L15.1733 16.2398C15.0585 15.5596 15.5039 14.9128 16.168 14.7952C16.8321 14.6776 17.4635 15.1338 17.5783 15.8141L18.1302 19.0852Z" class="svg-primary-fill" clip-rule="evenodd"/>
  </g>
</svg>
