<svg xmlns="http://www.w3.org/2000/svg" width="48" height="48" viewBox="0 0 48 48">
  <g class="neo-icon-kit--gas-station">
    <path fill="#006FCF" fill-rule="evenodd" d="M30 3H9L8.82441 3.00512C7.25527 3.09681 6 4.40891 6 6V42H4.5L4.35551 42.0069C3.59472 42.0796 3 42.7206 3 43.5C3 44.3281 3.67139 45 4.5 45H34.5L34.6444 44.9931C35.4048 44.9204 36 44.2794 36 43.5C36 42.6719 35.3281 42 34.5 42H33V21H36.0007L36.0098 33.9629L36.0154 34.2005C36.1423 36.8633 38.3935 38.5 40.4844 38.5C42.6562 38.5 45 36.7812 45 34.0049V13L44.998 12.826C44.9336 10.0169 43.3125 6 39 6H37.5L37.3556 6.00686C36.5952 6.07953 36 6.72013 36 7.5C36 8.32861 36.6719 9 37.5 9H39L39.2281 9.00808C41.5234 9.17366 41.9183 11.8366 41.986 12.7189L41.9993 12.9623L42 34.0049L41.9911 34.1753C41.8917 35.1089 40.9833 35.5 40.4844 35.5C39.9697 35.5 39.0098 35.0869 39.0098 34L39 19.5L38.9931 19.3555C38.9204 18.5947 38.2794 18 37.5 18H33V6L32.9949 5.82441C32.9032 4.25527 31.5911 3 30 3ZM9 6H30V42H9V6ZM15 9H24C25.5911 9 26.9032 10.2553 26.9949 11.8244L27 12V18C27 19.5911 25.7447 20.9032 24.1756 20.9949L24 21H15C13.4089 21 12.0968 19.7447 12.0051 18.1756L12 18V12C12 10.4089 13.2553 9.09681 14.8244 9.00512L15 9ZM15 12H24V18H15V12Z" class="svg-primary-fill" clip-rule="evenodd"/>
  </g>
</svg>
