<svg xmlns="http://www.w3.org/2000/svg" width="16" height="16" viewBox="0 0 16 16">
  <g class="neo-icon-kit--generic-outbound-blue">
    <path fill="#006FCF" fill-rule="evenodd" d="M8 16C3.58172 16 0 12.4183 0 8C0 3.58172 3.58172 0 8 0C12.4183 0 16 3.58172 16 8C16 12.4183 12.4183 16 8 16ZM8 15.03C10.5116 15.03 12.8324 13.6901 14.0882 11.515C15.3439 9.33991 15.3439 6.66009 14.0882 4.485C12.8324 2.30991 10.5116 0.97 8 0.97C4.11744 0.97 0.97 4.11744 0.97 8C0.97 11.8826 4.11744 15.03 8 15.03Z" class="svg-secondary-fill" clip-rule="evenodd"/>
    <g fill="#006FCF" class="svg-primary-fill">
      <path d="M4.78198 7.62001V8.48701L8.10098 8.48601 10.031 6.10201 10.764 6.69501 10.847 4.32501 8.55898 4.91001 9.29198 5.50301 7.55798 7.62001H4.78198zM4.78796 9.35201V10.261L10.678 10.262V9.35201H4.78796z"/>
    </g>
  </g>
</svg>
