<svg xmlns="http://www.w3.org/2000/svg" width="16" height="16" viewBox="0 0 16 16">
  <g class="neo-icon-kit--generic-return-blue">
    <path fill="#006FCF" fill-rule="evenodd" d="M8 16C3.58172 16 0 12.4183 0 8C0 3.58172 3.58172 0 8 0C12.4183 0 16 3.58172 16 8C16 12.4183 12.4183 16 8 16ZM8 15.03C10.5116 15.03 12.8324 13.6901 14.0882 11.515C15.3439 9.33991 15.3439 6.66009 14.0882 4.485C12.8324 2.30991 10.5116 0.97 8 0.97C4.11744 0.97 0.97 4.11744 0.97 8C0.97 11.8826 4.11744 15.03 8 15.03Z" class="svg-secondary-fill" clip-rule="evenodd"/>
    <g fill="#006FCF" class="svg-primary-fill">
      <path d="M5.30508 4.65002L4.63208 5.19502 6.72108 7.77502H9.78808V8.71802L11.6831 7.29002 9.78808 5.88002V6.82302L7.05208 6.80802 5.30508 4.65002zM5.78809 9.35202V10.261L11.6781 10.262V9.35202H5.78809z"/>
    </g>
  </g>
</svg>
