<svg xmlns="http://www.w3.org/2000/svg" width="48" height="48" viewBox="0 0 48 48">
  <g class="neo-icon-kit--generic-plane-blue">
    <path fill="#006FCF" fill-rule="evenodd" d="M34.1712 15.1327C35.0759 16.0354 34.1712 18.2914 32.818 19.6447L30.5472 21.9154L32.8032 31.7277C32.8421 31.9023 32.7766 32.0835 32.6352 32.193L30.8297 33.5462C30.753 33.6033 30.6594 33.6331 30.5639 33.6311C30.5362 33.6311 30.5085 33.6311 30.4642 33.6164C30.335 33.5936 30.2249 33.5097 30.1688 33.3911L26.2328 26.228L22.5829 29.8797L23.3288 32.6157C23.3705 32.7709 23.3286 32.9367 23.218 33.0533L21.8648 34.4047C21.7771 34.4879 21.6607 34.5341 21.5399 34.5339H21.5122C21.3772 34.5258 21.2527 34.4581 21.1725 34.3493L18.5085 30.7973L14.9546 28.1333C14.8466 28.0589 14.7786 27.9392 14.77 27.8084C14.7628 27.6786 14.8096 27.5517 14.8992 27.4576L16.2525 26.0877C16.3402 26.0045 16.4565 25.9583 16.5774 25.9585C16.6199 25.9585 16.6623 25.9585 16.69 25.9751L19.4242 26.7228L23.0759 23.0711L15.9146 19.1388C15.7888 19.0662 15.7011 18.942 15.6746 18.7991C15.6608 18.6596 15.7079 18.521 15.8039 18.4188L17.6057 16.6151C17.7202 16.5154 17.8882 16.4582 18.0303 16.5007L27.4032 18.7437L29.6592 16.4877C31.0143 15.1327 33.2685 14.2299 34.1712 15.1327Z" class="svg-primary-fill" clip-rule="evenodd"/>
    <path fill="#006FCF" fill-rule="evenodd" d="M23.9998 45.1754C35.6952 45.1754 45.1752 35.6954 45.1752 24.0001C45.1752 12.3047 35.6952 2.82467 23.9998 2.82467C12.3044 2.82467 2.82443 12.3028 2.82443 24.0001C2.82443 35.6954 12.3044 45.1754 23.9998 45.1754ZM24 48C10.7446 48 0 37.2554 0 24C0 10.7446 10.7446 0 24 0C37.2554 0 48 10.7446 48 24C48 37.2554 37.2554 48 24 48Z" class="svg-secondary-fill" clip-rule="evenodd"/>
  </g>
</svg>
