<svg xmlns="http://www.w3.org/2000/svg" width="48" height="48" viewBox="0 0 48 48">
  <g class="neo-icon-kit--generic-plane-no-circle">
    <path fill="#444B61" fill-rule="evenodd" d="M40.0058 7.9963C38.4846 6.47692 34.6945 7.9963 32.4182 10.2726L28.6262 14.0683L12.8637 10.2966C12.6274 10.2265 12.3412 10.3206 12.1529 10.4868L9.11785 13.52C8.95744 13.6933 8.88 13.9277 8.90554 14.1625C8.95038 14.4016 9.09736 14.6093 9.308 14.7311L21.3468 21.3421L15.2102 27.4843L10.6132 26.2252C10.5634 26.2012 10.4932 26.2012 10.4212 26.2012C10.219 26.2006 10.0243 26.2772 9.87662 26.4154L7.60031 28.7175C7.45071 28.8766 7.37324 29.0903 7.38616 29.3083C7.39998 29.528 7.51356 29.7293 7.69446 29.8548L13.6686 34.3354L18.1474 40.3077C18.2895 40.4978 18.4797 40.592 18.7178 40.616H18.7658C18.968 40.6166 19.1628 40.54 19.3105 40.4018L21.5849 38.1274C21.772 37.9323 21.8441 37.6539 21.7751 37.3926L20.5197 32.7957L26.6582 26.6535L33.2729 38.696C33.3671 38.9083 33.5572 39.0283 33.7714 39.0745C33.9836 39.1303 34.2097 39.0869 34.3862 38.9563L37.4194 36.6818C37.6574 36.4977 37.768 36.193 37.7037 35.8991L33.9117 19.4L37.7277 15.584C40.004 13.3077 41.5215 9.51384 40.004 7.9963H40.0058Z" class="svg-primary-fill" clip-rule="evenodd"/>
  </g>
</svg>
