<svg xmlns="http://www.w3.org/2000/svg" width="26" height="26" viewBox="0 0 26 26">
  <g class="neo-icon-kit--generic-ground">
    <path fill="#444B61" fill-rule="evenodd" d="M13.5 2C13.7761 2 14 2.22386 14 2.5V24.5C14 24.7761 13.7761 25 13.5 25C13.2239 25 13 24.7761 13 24.5V2.5C13 2.22386 13.2239 2 13.5 2Z" class="svg-secondary-fill" clip-rule="evenodd"/>
    <g fill="#444B61" fill-rule="evenodd" class="svg-primary-fill" clip-rule="evenodd">
      <path d="M24.766 10.803H23.635V9.58C23.635 9.26 23.399 9 23.108 9H16.892C16.602 9 16.366 9.26 16.366 9.58V10.803H15.235C15.105 10.803 15 10.919 15 11.062V12.302C15 12.445 15.105 12.561 15.235 12.561H15.675C15.805 12.561 15.91 12.445 15.91 12.302V11.364H16.366V17.12C16.366 17.393 16.539 17.611 16.77 17.674V18.659C16.77 18.848 16.908 19.001 17.08 19.001H17.73C17.902 19.001 18.04 18.848 18.04 18.659V17.7H21.96V18.658C21.96 18.847 22.098 19 22.27 19H22.92C23.092 19 23.23 18.847 23.23 18.658V17.673C23.4749 17.6015 23.6411 17.3741 23.635 17.119V11.364H24.091V12.302C24.091 12.445 24.195 12.561 24.325 12.561H24.765C24.895 12.561 25 12.445 25 12.302V11.062C25 10.919 24.895 10.803 24.766 10.803zM17.708 9.733C17.655 9.733 17.612 9.78 17.612 9.839V10.542C17.612 10.6 17.655 10.647 17.708 10.647H22.292C22.345 10.647 22.388 10.6 22.388 10.542V9.839C22.388 9.78 22.345 9.733 22.292 9.733H17.708zM22.507 14.87C22.644 14.87 22.754 14.748 22.754 14.598V11.704C22.754 11.554 22.643 11.432 22.507 11.432H17.494C17.357 11.432 17.247 11.554 17.247 11.704V14.598C17.247 14.748 17.358 14.87 17.494 14.87H22.507zM21.787 16.6H22.387C22.59 16.6 22.754 16.419 22.754 16.196 22.754 15.973 22.59 15.792 22.387 15.792H21.786C21.584 15.792 21.42 15.973 21.42 16.196 21.42 16.42 21.584 16.6 21.787 16.6zM18.214 16.6H17.614C17.411 16.6 17.247 16.42 17.247 16.196 17.247 15.973 17.411 15.792 17.613 15.792H18.214C18.416 15.792 18.58 15.973 18.58 16.196 18.58 16.419 18.416 16.6 18.214 16.6zM10.659 14.781H9.87902L9.37702 12.334C9.33997 12.1418 9.17277 12.0022 8.97702 12H3.91002C3.71413 12.0018 3.54671 12.1416 3.51002 12.334L3.00802 14.781H2.22802C2.10028 14.7832 1.99835 14.8883 2.00002 15.016V15.266C2.00002 15.395 2.10202 15.5 2.22802 15.5H2.76202V18.915C2.76202 19.094 2.90202 19.238 3.07602 19.238H3.73602C3.82036 19.2367 3.90073 19.2019 3.95943 19.1413 4.01813 19.0808 4.05036 18.9993 4.04902 18.915V17.975H8.83702V18.915C8.83702 19.094 8.97802 19.238 9.15202 19.238H9.81202C9.98742 19.2347 10.1273 19.0904 10.125 18.915V15.5H10.659C10.7205 15.4992 10.7791 15.474 10.8218 15.4299 10.8646 15.3858 10.8881 15.3264 10.887 15.265V15.015C10.8878 14.9537 10.8642 14.8947 10.8215 14.8508 10.7787 14.8069 10.7203 14.7818 10.659 14.781zM8.64502 12.842H4.24202L3.79002 15.045H9.09602L8.64502 12.842zM4.19402 16.929C4.07599 16.9272 3.96354 16.8785 3.88139 16.7937 3.79925 16.709 3.75415 16.595 3.75602 16.477 3.75602 16.227 3.95202 16.025 4.19402 16.025 4.43602 16.025 4.63302 16.227 4.63302 16.477 4.63462 16.595 4.58927 16.7089 4.50694 16.7934 4.42461 16.878 4.31204 16.9274 4.19402 16.929zM8.69302 16.929C8.57482 16.9274 8.4621 16.8789 8.37975 16.7941 8.29739 16.7093 8.25215 16.5952 8.25402 16.477 8.25402 16.227 8.45002 16.025 8.69302 16.025 8.93502 16.025 9.13102 16.227 9.13102 16.477 9.13436 16.7224 8.9384 16.9252 8.69302 16.929z"/>
    </g>
  </g>
</svg>
