<svg xmlns="http://www.w3.org/2000/svg" width="34" height="34" viewBox="0 0 34 34">
  <g class="neo-icon-kit--generic-transport">
    <path fill="#444B61" fill-rule="evenodd" d="M0 17C0 7.61116 7.61116 0 17 0C26.3888 0 34 7.61116 34 17C34 26.3888 26.3888 34 17 34C7.61116 34 0 26.3888 0 17ZM17 2C8.71573 2 2 8.71573 2 17C2 25.2843 8.71573 32 17 32C25.2843 32 32 25.2843 32 17C32 8.71573 25.2843 2 17 2Z" class="svg-secondary-fill" clip-rule="evenodd"/>
    <g fill="#444B61" class="svg-primary-fill">
      <path fill-rule="evenodd" d="M22.3865 9.89746C21.3667 9.89746 20.54 10.7242 20.54 11.744H20.541C20.5443 12.1291 20.6708 12.503 20.902 12.811L22.371 15.754L23.901 12.782L23.915 12.768C24.114 12.474 24.233 12.126 24.233 11.744C24.233 10.7242 23.4063 9.89746 22.3865 9.89746ZM22.386 12.97C21.706 12.97 21.16 12.424 21.16 11.744C21.16 11.064 21.706 10.504 22.386 10.504C23.066 10.504 23.626 11.064 23.626 11.744C23.626 12.424 23.066 12.97 22.386 12.97Z" clip-rule="evenodd"/>
      <path d="M17.301 15.862L16.799 14.722C17.056 14.609 17.314 14.535 17.569 14.503L17.726 15.739C17.5791 15.7591 17.436 15.8005 17.301 15.862zM18.616 15.905C18.4659 15.8381 18.309 15.7875 18.148 15.754L18.386 14.53C18.613 14.575 18.841 14.647 19.103 14.757L18.616 15.905zM19.158 16.158C19.3713 16.2629 19.5918 16.3521 19.818 16.425L20.185 15.233C20.02 15.182 19.85 15.105 19.69 15.031L19.158 16.158zM16.724 16.427L15.623 15.844C15.756 15.592 15.916 15.374 16.099 15.192L16.976 16.078C16.882 16.17 16.798 16.288 16.724 16.428V16.427zM20.598 15.298L20.63 16.544C20.905 16.537 21.182 16.478 21.452 16.37L20.988 15.213C20.854 15.267 20.726 15.295 20.598 15.298zM16.413 17.429L15.186 17.209C15.2259 16.9807 15.2789 16.755 15.345 16.533L16.538 16.892C16.49 17.052 16.448 17.229 16.413 17.429zM15.034 18.51L16.276 18.607C16.291 18.408 16.309 18.206 16.331 18.006L15.093 17.868C15.069 18.082 15.05 18.297 15.034 18.51zM16.168 19.875L14.93 19.728C14.953 19.538 14.97 19.338 14.987 19.131L16.229 19.23C16.211 19.453 16.192 19.67 16.168 19.875zM14.696 20.67L15.756 21.324C15.883 21.12 15.98 20.87 16.053 20.562L14.84 20.274C14.799 20.448 14.75 20.582 14.696 20.67zM10.858 21.833C10.6371 21.7226 10.4269 21.592 10.23 21.443L10.985 20.452C11.113 20.55 11.258 20.64 11.415 20.718L10.858 21.833zM14.012 20.997L14.332 22.201C14.576 22.137 14.81 22.051 15.026 21.947L14.486 20.824C14.341 20.894 14.182 20.952 14.012 20.997zM12.21 22.272C11.9771 22.2309 11.7473 22.1741 11.522 22.102L11.904 20.916C12.0746 20.9705 12.2486 21.0133 12.425 21.044L12.21 22.272zM12.91 22.348C12.9733 22.3508 13.0367 22.3521 13.1 22.352L13.099 22.353C13.2727 22.353 13.4462 22.3447 13.619 22.328L13.499 21.088C13.3213 21.1058 13.1425 21.1108 12.964 21.103L12.91 22.348z"/>
      <path fill-rule="evenodd" d="M9.89507 15.018C8.87555 15.018 8.04907 15.8444 8.04907 16.864V16.865C8.05303 17.1746 8.13746 17.4778 8.29407 17.745 8.30509 17.7644 8.3143 17.7854 8.32355 17.8064 8.33614 17.8349 8.34878 17.8636 8.36607 17.889L9.88107 20.873 11.4241 17.903 11.5111 17.715C11.6491 17.456 11.7411 17.178 11.7411 16.864 11.7411 15.8444 10.9146 15.018 9.89507 15.018zM9.89607 18.09C9.21507 18.09 8.66907 17.544 8.66907 16.864 8.66907 16.184 9.21607 15.624 9.89607 15.624 10.5751 15.624 11.1221 16.184 11.1221 16.864 11.1221 17.544 10.5761 18.09 9.89607 18.09zM24.697 19.303C24.0738 18.744 23.25 18.4624 22.415 18.523 20.828 18.633 19.599 19.912 19.603 21.452 19.632 23.048 20.98 24.328 22.631 24.328 24.283 24.328 25.631 23.048 25.661 21.452 25.662 20.637 25.314 19.859 24.697 19.303zM21.3481 20.673C21.3441 20.324 21.4531 20.048 21.6941 19.821 21.9351 19.595 22.2661 19.475 22.6611 19.475 22.8856 19.4698 23.1081 19.5196 23.3091 19.62 23.4844 19.7118 23.63 19.8516 23.7291 20.023 23.8879 20.2825 23.9297 20.597 23.8441 20.889 23.8091 20.991 23.7591 21.097 23.6841 21.207 23.6411 21.269 23.5321 21.374 23.3681 21.524 23.2101 21.666 23.1181 21.767 23.0781 21.827 23.0326 21.8977 22.9988 21.9754 22.9781 22.057 22.9501 22.155 22.9271 22.303 22.9201 22.476H22.1841V22.346C22.1841 22.104 22.2261 21.88 22.3141 21.682 22.4031 21.484 22.5481 21.307 22.7471 21.134 22.9381 20.966 23.0531 20.851 23.0931 20.788 23.1331 20.7228 23.1533 20.6474 23.1511 20.571 23.1511 20.456 23.1031 20.349 23.0071 20.269 22.9101 20.189 22.7801 20.153 22.6171 20.153 22.4687 20.1462 22.3237 20.1979 22.2131 20.297 22.1082 20.3933 22.0505 20.5306 22.0551 20.673H21.3481zM22.574 23.7009C22.445 23.7009 22.333 23.662 22.242 23.5709V23.5719C22.151 23.4799 22.098 23.3679 22.098 23.24 22.0989 23.1143 22.1509 22.9944 22.242 22.908 22.3243 22.8214 22.4397 22.7741 22.559 22.778H22.574C22.6979 22.7737 22.818 22.8208 22.906 22.908 22.998 22.9936 23.0503 23.1137 23.0503 23.2395 23.0503 23.3652 22.998 23.4853 22.906 23.5709 22.814 23.662 22.704 23.7009 22.574 23.7009z" clip-rule="evenodd"/>
    </g>
  </g>
</svg>
