<svg xmlns="http://www.w3.org/2000/svg" width="34" height="34" viewBox="0 0 34 34">
  <g class="neo-icon-kit--generic-hotel">
    <path fill="#444B61" fill-rule="evenodd" d="M0 17C0 7.61116 7.61116 0 17 0C26.3888 0 34 7.61116 34 17C34 26.3888 26.3888 34 17 34C7.61116 34 0 26.3888 0 17ZM17 2C8.71573 2 2 8.71573 2 17C2 25.2843 8.71573 32 17 32C25.2843 32 32 25.2843 32 17C32 8.71573 25.2843 2 17 2Z" class="svg-secondary-fill" clip-rule="evenodd"/>
    <path fill="#444B61" fill-rule="evenodd" d="M17.845 13.177H13.23V13.969H12.434V11.686H11.642V13.176H9.51002V13.969H8.84002V10.27H8.04602V16.773H8.84002V15.98H17.846V16.773H18.64V11.46H17.846L17.845 13.177ZM10 12.798C10.449 12.798 10.813 12.402 10.813 11.914C10.813 11.428 10.449 11.032 9.99902 11.032C9.54902 11.032 9.18402 11.428 9.18402 11.914C9.18402 12.402 9.55002 12.798 9.99902 12.798H10ZM18.15 19.752C18.146 17.877 19.643 16.318 21.577 16.184V16.185C22.5947 16.1121 23.5985 16.4548 24.359 17.135C25.1045 17.8008 25.5315 18.7525 25.533 19.752C25.556 21.043 24.858 22.245 23.706 22.897C22.5482 23.549 21.1339 23.549 19.976 22.897C18.824 22.245 18.126 21.042 18.15 19.752ZM22.667 17.52C22.447 17.406 22.186 17.344 21.873 17.344C21.395 17.344 20.993 17.489 20.697 17.766C20.404 18.043 20.272 18.396 20.277 18.821H21.137C21.1346 18.6429 21.2046 18.4715 21.331 18.346C21.4658 18.2255 21.6424 18.1626 21.823 18.171C21.9942 18.1652 22.1618 18.2213 22.295 18.329C22.414 18.424 22.474 18.54 22.474 18.68C22.4776 18.7727 22.4525 18.8642 22.402 18.942C22.357 19.021 22.215 19.161 21.982 19.366C21.738 19.577 21.562 19.81 21.454 20.05C21.347 20.292 21.294 20.548 21.294 20.842V21H22.193C22.202 20.79 22.228 20.629 22.262 20.508C22.2894 20.4093 22.3308 20.315 22.385 20.228C22.491 20.094 22.6091 19.9701 22.738 19.858C22.937 19.676 23.072 19.55 23.124 19.47C23.2062 19.3513 23.2715 19.2217 23.318 19.085C23.358 18.958 23.387 18.828 23.387 18.698C23.387 18.458 23.307 18.227 23.177 18.012C23.047 17.794 22.886 17.634 22.667 17.52ZM21.773 21.369C21.9255 21.3708 22.0707 21.4347 22.175 21.546C22.29 21.656 22.352 21.776 22.352 21.932C22.3528 22.0851 22.2884 22.2312 22.175 22.334C22.0709 22.4462 21.9251 22.5106 21.772 22.512C21.6182 22.5111 21.4717 22.4467 21.367 22.334C21.2601 22.2283 21.2031 22.0822 21.21 21.932C21.2037 21.7866 21.261 21.6457 21.367 21.546C21.4724 21.4345 21.6186 21.3706 21.772 21.369H21.773Z" class="svg-primary-fill" clip-rule="evenodd"/>
  </g>
</svg>
