<svg xmlns="http://www.w3.org/2000/svg" width="48" height="48" viewBox="0 0 48 48">
  <g class="neo-icon-kit--geolocation">
    <path fill="#006FCF" fill-rule="evenodd" d="M25.4931 1.35545C25.4204 0.594381 24.7793 0 24 0C23.171 0 22.5 0.671 22.5 1.5V8.576L22.1618 8.61241C14.9698 9.46675 9.27508 15.2621 8.576 22.5H1.5L1.35545 22.5069C0.594381 22.5795 0 23.2198 0 24C0 24.828 0.671 25.5 1.5 25.5H8.576L8.61241 25.8383C9.46675 33.0312 15.2621 38.7259 22.5 39.424V46.5L22.5069 46.6444C22.5795 47.4047 23.2198 48 24 48C24.828 48 25.5 47.328 25.5 46.5V39.424L25.8383 39.3876C33.0312 38.5342 38.7259 32.7389 39.424 25.5H46.5L46.6444 25.4931C47.4047 25.4204 48 24.7793 48 24C48 23.171 47.328 22.5 46.5 22.5H39.424L39.3876 22.1618C38.5342 14.9698 32.7389 9.27508 25.5 8.576V1.5L25.4931 1.35545ZM11.5 24C11.5 17.107 17.107 11.5 24 11.5C30.893 11.5 36.5 17.107 36.5 24C36.5 30.893 30.893 36.5 24 36.5C17.107 36.5 11.5 30.893 11.5 24ZM24 16.5C28.136 16.5 31.5 19.864 31.5 24C31.5 28.136 28.136 31.5 24 31.5C19.864 31.5 16.5 28.136 16.5 24C16.5 19.864 19.864 16.5 24 16.5ZM19.5 24C19.5 21.519 21.519 19.5 24 19.5C26.481 19.5 28.5 21.519 28.5 24C28.5 26.481 26.481 28.5 24 28.5C21.519 28.5 19.5 26.481 19.5 24Z" class="svg-primary-fill" clip-rule="evenodd"/>
  </g>
</svg>
