<svg xmlns="http://www.w3.org/2000/svg" width="48" height="48" viewBox="0 0 48 48">
  <g class="neo-icon-kit--geolocation-filled">
    <path fill="#006FCF" fill-rule="evenodd" d="M24 0C24.7793 0 25.4204 0.594381 25.4931 1.35545L25.5 1.5V8.576C32.7389 9.27508 38.5342 14.9698 39.3876 22.1618L39.424 22.5H46.5C47.328 22.5 48 23.171 48 24C48 24.7793 47.4047 25.4204 46.6444 25.4931L46.5 25.5H39.424C38.7259 32.7389 33.0312 38.5342 25.8383 39.3876L25.5 39.424V46.5C25.5 47.328 24.828 48 24 48C23.2198 48 22.5795 47.4047 22.5069 46.6444L22.5 46.5V39.424C15.2621 38.7259 9.46675 33.0312 8.61241 25.8383L8.576 25.5H1.5C0.671 25.5 0 24.828 0 24C0 23.2198 0.594381 22.5795 1.35545 22.5069L1.5 22.5H8.576C9.27508 15.2621 14.9698 9.46675 22.1618 8.61241L22.5 8.576V1.5C22.5 0.671 23.171 0 24 0ZM24 11.5C17.107 11.5 11.5 17.107 11.5 24C11.5 30.893 17.107 36.5 24 36.5C30.893 36.5 36.5 30.893 36.5 24C36.5 17.107 30.893 11.5 24 11.5ZM31.5 24C31.5 19.864 28.136 16.5 24 16.5C19.864 16.5 16.5 19.864 16.5 24C16.5 28.136 19.864 31.5 24 31.5C28.136 31.5 31.5 28.136 31.5 24Z" class="svg-primary-fill" clip-rule="evenodd"/>
  </g>
</svg>
