<svg xmlns="http://www.w3.org/2000/svg" width="48" height="48" viewBox="0 0 48 48">
  <g class="neo-icon-kit--gift">
    <path fill="#006FCF" fill-rule="evenodd" d="M36 9.75C36 6.02783 32.9717 3 29.25 3C27.1306 3 25.2385 3.98383 24 5.51672C22.7615 3.98383 20.8694 3 18.75 3C15.0283 3 12 6.02783 12 9.75C12 10.5294 12.1395 11.2858 12.3929 12H6L5.82441 12.0051C4.25527 12.0968 3 13.4089 3 15V18L3.00512 18.1756C3.09681 19.7447 4.40891 21 6 21V42L6.00512 42.1756C6.09681 43.7447 7.40891 45 9 45H39L39.1756 44.9949C40.7447 44.9032 42 43.591 42 42V21L42.1756 20.9949C43.7447 20.9032 45 19.591 45 18V15L44.9949 14.8244C44.9032 13.2553 43.5911 12 42 12H35.607L35.7086 11.6914C35.8975 11.0692 36 10.4181 36 9.75ZM9 21H19.5V42H9V21ZM22.5 15V42H25.5V15H22.5ZM28.5 21H39V42H28.5V21ZM19.5 15H6V18H19.5V15ZM28.5 15H42V18H28.5V15ZM18.75 6C16.6826 6 15 7.68213 15 9.75C15 10.4883 15.2144 11.1949 15.6146 11.8016L15.7549 12H22.5V9.75C22.5 7.68213 20.8174 6 18.75 6ZM25.5052 9.55113C25.609 7.57536 27.2493 6 29.25 6C31.3174 6 33 7.68213 33 9.75C33 10.5703 32.7354 11.3516 32.2451 12H25.5V9.75L25.5052 9.55113Z" class="svg-primary-fill" clip-rule="evenodd"/>
  </g>
</svg>
