<svg xmlns="http://www.w3.org/2000/svg" width="48" height="48" viewBox="0 0 48 48">
  <g class="neo-icon-kit--gift-card-filled">
    <path fill="#006FCF" fill-rule="evenodd" d="M45 6C46.6569 6 48 7.34315 48 9V22H25.2246L25.3146 21.7677C25.734 20.5971 25.694 19.2939 25.0638 18.157C24.2609 16.7085 22.728 15.9001 21.1165 15.9001C20.3137 15.9001 19.4915 16.1008 18.7302 16.5227C18.5505 16.6223 18.3688 16.7509 18.1848 16.9053L18 17.0681V6H45ZM8.75732 28.6211L12.3787 25H0V39C0 40.6569 1.34315 42 3 42H15V26.6209L10.8784 30.7422L10.7645 30.8452C10.4895 31.0695 10.1537 31.1816 9.81787 31.1816C9.43408 31.1816 9.05029 31.0352 8.75732 30.7422C8.20801 30.1929 8.17368 29.3243 8.65433 28.735L8.75732 28.6211ZM48 39V25H20.6213L24.2427 28.6211L24.3457 28.735C24.8263 29.3243 24.792 30.1929 24.2427 30.7422C23.9497 31.0352 23.5659 31.1816 23.1821 31.1816C22.8463 31.1816 22.5105 31.0695 22.2355 30.8452L22.1216 30.7422L18 26.6209V42H45C46.6569 42 48 40.6569 48 39ZM15 17.0681V6H3C1.34315 6 0 7.34315 0 9V22H7.77545L7.68547 21.7677C7.26601 20.5971 7.30599 19.2939 7.93622 18.157C8.7392 16.7083 10.2719 15.9001 11.8835 15.9001C12.6862 15.9001 13.5087 16.1008 14.2698 16.5227C14.4495 16.6223 14.6312 16.7509 14.8152 16.9053L15 17.0681ZM21.1165 18.9001C21.6983 18.9001 22.1931 19.1661 22.4399 19.6115C22.6808 20.0461 22.5983 20.4862 22.5276 20.7099C22.4049 21.0984 22.1479 21.4354 21.7969 21.6736L21.6408 21.7695L21.5357 21.8101L21.4362 21.8392C21.18 21.9071 20.6522 21.9998 19.6805 21.9998C19.4151 21.9998 19.1349 21.993 18.8396 21.9796L18.5331 21.9634L18.2327 21.9436L18.5239 21.4099L18.7621 20.9982C19.5262 19.714 19.9906 19.2926 20.1359 19.1809L20.1846 19.1466L20.3626 19.0591C20.6042 18.9547 20.8615 18.9001 21.1165 18.9001ZM12.6365 19.0585C12.3958 18.9547 12.1385 18.9001 11.8835 18.9001C11.3017 18.9001 10.8069 19.1661 10.5601 19.6115C10.3192 20.0461 10.4017 20.4862 10.4724 20.7099C10.5951 21.0984 10.8521 21.4354 11.2043 21.6742L11.361 21.7704L11.4269 21.7975C11.5965 21.8584 12.1196 21.9998 13.3195 21.9998C13.585 21.9998 13.8651 21.993 14.1604 21.9796C14.3662 21.9702 14.5696 21.9579 14.7673 21.9436L14.4762 21.4099L14.238 20.9982L14.0086 20.6237C13.2401 19.4074 12.8335 19.1573 12.8136 19.1456L12.6365 19.0585Z" class="svg-primary-fill" clip-rule="evenodd"/>
  </g>
</svg>
