<svg xmlns="http://www.w3.org/2000/svg" width="48" height="48" viewBox="0 0 48 48">
  <g class="neo-icon-kit--gift-card">
    <path fill="#006FCF" fill-rule="evenodd" d="M45 6C46.6569 6 48 7.34315 48 9V39C48 40.6569 46.6569 42 45 42H3C1.34315 42 0 40.6569 0 39V9C0 7.34315 1.34315 6 3 6H45ZM12.3787 25H3V39H15V26.6209L10.8784 30.7422C10.5854 31.0352 10.2017 31.1816 9.81787 31.1816C9.43408 31.1816 9.05029 31.0352 8.75732 30.7422C8.20801 30.1929 8.17368 29.3243 8.65433 28.735L8.75732 28.6211L12.3787 25ZM20.6213 25H45V39H18V26.6209L22.1216 30.7422L22.2355 30.8452C22.5105 31.0695 22.8463 31.1816 23.1821 31.1816C23.5659 31.1816 23.9497 31.0352 24.2427 30.7422C24.8286 30.1562 24.8286 29.207 24.2427 28.6211L20.6213 25ZM15 9H3V22H7.77545C7.26331 20.7716 7.26398 19.3697 7.93622 18.157C8.7392 16.7083 10.2719 15.9001 11.8835 15.9001C12.6862 15.9001 13.5087 16.1008 14.2698 16.5227C14.4495 16.6223 14.6312 16.7509 14.8152 16.9053L15 17.0681V9ZM18 9H45V22H25.2246L25.3146 21.7677C25.734 20.5971 25.694 19.2939 25.0638 18.157C24.2609 16.7085 22.728 15.9001 21.1165 15.9001C20.3137 15.9001 19.4915 16.1008 18.7302 16.5227C18.4907 16.6555 18.2474 16.8399 18 17.0681V9ZM21.1165 18.9001C20.8615 18.9001 20.6042 18.9547 20.3626 19.0591L20.1846 19.1466C20.1627 19.1595 19.5948 19.509 18.5239 21.4099L18.2327 21.9436C18.4304 21.9579 18.6339 21.9702 18.8396 21.9796C19.1349 21.993 19.4151 21.9998 19.6805 21.9998C20.9512 21.9998 21.4628 21.8413 21.6005 21.7871L21.6408 21.7695C22.0718 21.5306 22.3873 21.1539 22.5276 20.7099C22.5983 20.4862 22.6808 20.0461 22.4399 19.6115C22.1931 19.1661 21.6983 18.9001 21.1165 18.9001ZM10.5601 19.6115C10.8069 19.1661 11.3017 18.9001 11.8835 18.9001C12.2023 18.9001 12.5245 18.9854 12.8136 19.1456C12.8354 19.1584 13.321 19.4572 14.238 20.9982L14.4762 21.4099L14.7673 21.9436C14.5696 21.9579 14.3662 21.9702 14.1604 21.9796C13.8651 21.993 13.585 21.9998 13.3195 21.9998C11.8196 21.9998 11.3773 21.7789 11.361 21.7704L11.2043 21.6742C10.8521 21.4354 10.5951 21.0984 10.4724 20.7099C10.4017 20.4862 10.3192 20.0461 10.5601 19.6115Z" class="svg-primary-fill" clip-rule="evenodd"/>
  </g>
</svg>
