<svg xmlns="http://www.w3.org/2000/svg" width="48" height="48" viewBox="0 0 48 48">
  <g class="neo-icon-kit--gift-filled">
    <path fill="#006FCF" fill-rule="evenodd" d="M29.25 3C32.9717 3 36 6.02783 36 9.75C36 10.4181 35.8975 11.0692 35.7086 11.6914L35.607 12H42C43.5911 12 44.9032 13.2553 44.9949 14.8244L45 15V18C45 19.591 43.7447 20.9032 42.1756 20.9949L42 21V42C42 43.591 40.7447 44.9032 39.1756 44.9949L39 45H9C7.40891 45 6.09681 43.7447 6.00512 42.1756L6 42V21C4.40891 21 3.09681 19.7447 3.00512 18.1756L3 18V15C3 13.4089 4.25527 12.0968 5.82441 12.0051L6 12H12.3929C12.1395 11.2858 12 10.5294 12 9.75C12 6.02783 15.0283 3 18.75 3C20.8694 3 22.7615 3.98383 24 5.51672C25.2385 3.98383 27.1306 3 29.25 3ZM19.5 21H9V42H19.5V21ZM28.5 21H39V42H28.5V21ZM19.5 15H6V18H19.5V15ZM28.5 15H42V18H28.5V15ZM18.75 6C16.6826 6 15 7.68213 15 9.75C15 10.4883 15.2144 11.1949 15.6146 11.8016L15.7549 12H22.5V9.75C22.5 7.68213 20.8174 6 18.75 6ZM25.5052 9.55113C25.609 7.57536 27.2493 6 29.25 6C31.3174 6 33 7.68213 33 9.75C33 10.5703 32.7354 11.3516 32.2451 12H25.5V9.75L25.5052 9.55113Z" class="svg-primary-fill" clip-rule="evenodd"/>
  </g>
</svg>
