<svg xmlns="http://www.w3.org/2000/svg" width="48" height="48" viewBox="0 0 48 48">
  <g class="neo-icon-kit--global">
    <path fill="#006FCF" fill-rule="evenodd" d="M23.9998 -0.000488281C37.2548 -0.000488281 47.9998 10.7455 47.9998 23.9995C47.9998 37.2545 37.2548 47.9995 23.9998 47.9995C10.7448 47.9995 -0.000244141 37.2545 -0.000244141 23.9995C-0.000244141 10.7455 10.7448 -0.000488281 23.9998 -0.000488281ZM25.3498 32.9995V44.6545C28.9748 42.2545 31.8348 39.0355 33.7538 35.3275C31.2638 34.0656 28.6085 33.2898 25.8935 33.042L25.3498 32.9995ZM22.6498 33.0215V44.6535L22.2001 44.3496C18.7841 41.9877 16.0809 38.8983 14.2438 35.3525C16.9038 34.0045 19.7478 33.2105 22.6498 33.0215ZM36.1318 36.7175C34.6488 39.5485 32.6698 42.1195 30.2578 44.3105C33.6248 43.2745 36.6348 41.4245 39.0588 38.9895C38.1248 38.1485 37.1478 37.3905 36.1318 36.7175ZM8.95376 39.0035C9.88276 38.1675 10.8468 37.3975 11.8578 36.7265C13.3368 39.5505 15.3028 42.1175 17.7118 44.3025C14.3628 43.2665 11.3688 41.4245 8.95376 39.0035ZM45.1818 25.3495H39.2218C39.0708 28.4455 38.4108 31.4445 37.2838 34.2445C38.5168 35.0345 39.6988 35.9375 40.8238 36.9475C43.2369 33.815 44.7887 29.9991 45.1459 25.8319L45.1818 25.3495ZM2.81876 25.3495H8.77876L8.81532 25.9695C9.01742 28.8556 9.65956 31.6429 10.7068 34.2525C9.47776 35.0415 8.29376 35.9365 7.17276 36.9425C4.66876 33.6915 3.09176 29.7025 2.81876 25.3495ZM22.6498 25.3495H11.5288C11.6688 27.9675 12.2178 30.4975 13.1288 32.8725C15.9579 31.456 18.9811 30.5897 22.0699 30.3342L22.6498 30.2935V25.3495ZM25.3498 25.3495H36.4718L36.432 25.9497C36.244 28.3447 35.7104 30.6684 34.8668 32.8625C31.8648 31.3585 28.6438 30.4825 25.3498 30.2925V25.3495ZM40.8278 11.0585C39.7058 12.0645 38.5228 12.9575 37.2928 13.7475C38.34 16.3562 38.9812 19.1434 39.184 22.0296L39.2208 22.6495H45.1818C44.9068 18.2985 43.3318 14.3095 40.8278 11.0585ZM25.93 17.666C29.0202 17.4115 32.0416 16.5459 34.8708 15.1285C35.7818 17.5025 36.3308 20.0315 36.4708 22.6495H25.3498V17.7065L25.93 17.666ZM7.17576 11.0535C4.76257 14.1851 3.21084 18.001 2.85454 22.1673L2.81876 22.6495H8.78076C8.93476 19.5745 9.60876 16.5785 10.7438 13.7745C9.50176 12.9795 8.30876 12.0705 7.17576 11.0535ZM11.5714 22.0528C11.7635 19.6707 12.3088 17.3493 13.1608 15.1505C16.1548 16.6455 19.3658 17.5185 22.6498 17.7065V22.6495H11.5308L11.5714 22.0528ZM22.6498 14.9995V3.34351C19.0648 5.72251 16.2018 8.96251 14.2728 12.6855C16.7553 13.9389 19.4021 14.7099 22.1079 14.9571L22.6498 14.9995ZM25.3498 14.9985V3.34651L25.8 3.65082C29.2207 6.01579 31.9266 9.11093 33.7638 12.6625C31.1028 14.0115 28.2548 14.8095 25.3498 14.9985ZM17.7618 3.68451C14.3868 4.71951 11.3688 6.57051 8.94076 9.01051C9.88276 9.85951 10.8718 10.6235 11.8978 11.3015C13.3878 8.45951 15.3658 5.87451 17.7618 3.68451ZM36.1438 11.2755C34.6648 8.45051 32.6968 5.88351 30.2878 3.69751C33.6448 4.73551 36.6448 6.58451 39.0628 9.01451C38.1328 9.85251 37.1548 10.6045 36.1438 11.2755Z" class="svg-primary-fill" clip-rule="evenodd"/>
  </g>
</svg>
