<svg xmlns="http://www.w3.org/2000/svg" width="48" height="48" viewBox="0 0 48 48">
  <g class="neo-icon-kit--global-filled">
    <path fill="#006FCF" fill-rule="evenodd" d="M22.5937 0.127756L22.8137 -0.000244141L22.328 0.0282486C16.3541 0.438772 10.979 3.02939 6.99666 7.01176C8.46966 8.63876 10.0677 10.0388 11.7477 11.1698L11.8637 11.2468L12.1846 10.6546C14.615 6.29188 18.2044 2.65934 22.5937 0.127756ZM25.2091 0.000555859C31.3681 0.305556 36.9181 2.92656 41.0041 7.01156C39.6739 8.48126 38.244 9.76223 36.7459 10.8282L36.1301 11.2526L36.0641 11.1306C33.7082 6.70173 30.1992 3.00376 25.8961 0.403895L25.2091 0.000555859ZM22.6227 14.9625V3.32546L22.4277 3.45746L22.0052 3.74953C18.7901 6.02173 16.1341 9.04783 14.3047 12.5295L14.2457 12.6425L14.8459 12.9358C17.2859 14.086 19.8552 14.764 22.4887 14.9525L22.6227 14.9625ZM25.3768 3.32676L25.5728 3.45876C28.8311 5.66292 31.5457 8.63579 33.4473 12.0799L33.7498 12.6448L33.6358 12.7018C31.2151 13.913 28.6609 14.6549 26.0374 14.9085L25.3768 14.9628V3.32676ZM5.16526 9.07396L5.17926 9.08896C6.70744 10.7435 8.35793 12.1799 10.0932 13.3665L10.7023 13.772L10.6643 13.867C9.63572 16.4504 9.00877 19.155 8.79966 21.9131L8.75426 22.624H0.000255859C0.288256 17.516 2.17526 12.839 5.16526 9.07396ZM36.494 25.3768H25.377V30.2758L26.0584 30.3256C29.059 30.5841 31.9824 31.4116 34.757 32.7858L34.881 32.8468L34.931 32.7178L35.1281 32.178C35.8912 30.0125 36.3475 27.7722 36.486 25.5098L36.494 25.3768ZM22.6228 25.3769V30.2759L22.5058 30.2829C19.4959 30.4711 16.5586 31.2271 13.7649 32.5343L13.1188 32.8469L13.0708 32.7179C12.2557 30.5671 11.7465 28.3345 11.555 26.0752L11.5058 25.3769H22.6228ZM39.2462 25.3771H48.0002C47.7208 30.3138 45.9482 34.8497 43.1304 38.5466L42.8352 38.9261L42.8212 38.9111C41.2921 37.2556 39.6398 35.8183 37.905 34.6315L37.3822 34.2831L37.2962 34.2281L37.3342 34.1331C38.3636 31.5477 38.9906 28.8448 39.2006 26.0869L39.2462 25.3771ZM22.6224 33.0369V44.6739L22.4274 44.5419C19.1671 42.3377 16.4524 39.3648 14.5499 35.9225L14.2474 35.3579L14.3614 35.2999C16.7839 34.0877 19.3382 33.3457 21.9626 33.0912L22.6224 33.0369ZM11.8664 36.7511L11.7504 36.8281L11.2493 37.1748C9.7536 38.2394 8.32476 39.5202 6.99636 40.9881C11.0864 45.0781 16.6434 47.6991 22.8104 48.0001L22.5904 47.8731L22.1238 47.5977C17.7977 44.9888 14.2814 41.2903 11.9314 36.8741L11.8664 36.7511ZM36.1351 36.7512L35.8128 37.3446C33.3798 41.7091 29.7925 45.3425 25.4101 47.8732L25.1891 48.0002L25.6746 47.9716C31.6476 47.5601 37.0217 44.9696 41.0041 40.9882C39.5261 39.3562 37.9271 37.9572 36.2491 36.8282L36.1351 36.7512ZM25.3771 33.0372V44.6742L25.5731 44.5422L25.9953 44.2502C29.2084 41.9788 31.8626 38.9518 33.6921 35.4712L33.7521 35.3572L33.1522 35.0648C30.7139 33.9146 28.1455 33.2365 25.5121 33.0472L25.3771 33.0372ZM8.75376 25.3772H-0.000244141L0.0339642 25.8864C0.415781 30.795 2.27542 35.2876 5.16576 38.9262L5.64159 38.4211C7.1961 36.8096 8.86685 35.4195 10.6178 34.2832L10.7038 34.2272L10.6658 34.1332L10.4513 33.577C9.47942 30.9736 8.91102 28.2588 8.76076 25.4952L8.75376 25.3772ZM13.1173 15.1515L12.8719 15.8212C12.108 17.9868 11.6517 20.228 11.5133 22.4905L11.5063 22.6235H22.6223V17.7245L21.9414 17.6753C18.9393 17.4151 16.0159 16.5876 13.2423 15.2135L13.1173 15.1515ZM34.8794 15.1533L34.9284 15.2823C35.7434 17.4367 36.2535 19.6687 36.4451 21.9256L36.4944 22.6233H25.3774V17.7243L25.4954 17.7173C28.5052 17.5281 31.4425 16.7711 34.2337 15.4663L34.7554 15.2153L34.8794 15.1533ZM47.9658 22.1139C47.584 17.2045 45.7244 12.7128 42.8351 9.07426L42.3589 9.57909C40.8064 11.19 39.1339 12.5808 37.3821 13.7163L37.2961 13.7723L37.5489 14.4234C38.5223 17.0271 39.0898 19.7435 39.2401 22.5053L39.2471 22.6233H48.0001L47.9658 22.1139Z" class="svg-primary-fill" clip-rule="evenodd"/>
  </g>
</svg>
