<svg xmlns="http://www.w3.org/2000/svg" width="16" height="16" viewBox="0 0 16 16">
  <g class="neo-icon-kit--glyphs-cancel-circle">
    <path fill="#006FCF" fill-rule="evenodd" d="M8 0C12.4183 0 16 3.58175 16 8.00003C16 12.4183 12.4183 16 8 16C3.5817 16 0 12.4183 0 8.00003C0 3.58175 3.5817 0 8 0ZM8 1C4.14018 1 1 4.14022 1 8.00003C1 11.8598 4.14018 15 8 15C11.8598 15 15 11.8598 15 8.00003C15 4.14022 11.8598 1 8 1ZM8 6.52241L5.78361 4.30602C5.37559 3.89799 4.71405 3.89799 4.30602 4.30602C3.89799 4.71405 3.89799 5.37559 4.30602 5.78361L6.52241 8L4.30602 10.2164C3.89799 10.6244 3.89799 11.286 4.30602 11.694C4.71405 12.102 5.37559 12.102 5.78361 11.694L8 9.47759L10.2164 11.694C10.6244 12.102 11.286 12.102 11.694 11.694C12.102 11.286 12.102 10.6244 11.694 10.2164L9.47759 8L11.694 5.78361C12.102 5.37559 12.102 4.71405 11.694 4.30602C11.286 3.89799 10.6244 3.89799 10.2164 4.30602L8 6.52241Z" class="svg-primary-fill" clip-rule="evenodd"/>
  </g>
</svg>
