<svg xmlns="http://www.w3.org/2000/svg" width="16" height="16" viewBox="0 0 16 16">
  <g class="neo-icon-kit--glyphs-double-left">
    <path fill="#006FCF" fill-rule="evenodd" d="M7.7086 1.29131C7.32014 0.902897 6.68435 0.902897 6.29582 1.29131L0.2914 7.29379C-0.0971335 7.6822 -0.0971335 8.31778 0.2914 8.70619L6.29582 14.7087C6.68435 15.0971 7.32013 15.0971 7.7086 14.7087C8.09713 14.3203 8.09713 13.6848 7.7086 13.2964L2.41058 7.99997L7.7086 2.70363C8.09713 2.31529 8.09713 1.67971 7.7086 1.29131ZM15.7086 1.29131C15.3201 0.902897 14.6843 0.902897 14.2958 1.29131L8.2914 7.29379C7.90287 7.6822 7.90287 8.31778 8.2914 8.70619L14.2958 14.7087C14.6844 15.0971 15.3201 15.0971 15.7086 14.7087C16.0971 14.3203 16.0971 13.6848 15.7086 13.2964L10.4106 7.99997L15.7086 2.70363C16.0971 2.31529 16.0971 1.67971 15.7086 1.29131Z" class="svg-primary-fill" clip-rule="evenodd"/>
  </g>
</svg>
