<svg xmlns="http://www.w3.org/2000/svg" width="18" height="18" viewBox="0 0 18 18">
  <g class="neo-icon-kit--glyphs-plus-circle">
    <g fill="#006FCF" class="svg-primary-fill">
      <path d="M14.6563 3.34424C13.0951 1.78302 11.0481 1.00208 9.00186 1.00208C6.95505 1.00208 4.90896 1.78266 3.34732 3.3443C0.224397 6.46715 0.224397 11.5303 3.34732 14.6533C4.90872 16.2147 6.95523 16.9954 9.0018 16.9954C11.0483 16.9954 13.0948 16.2147 14.6563 14.6533C17.7791 11.5303 17.7792 6.46716 14.6563 3.34424ZM13.9491 13.9462C12.6277 15.2676 10.8706 15.9954 9.0018 15.9954C7.1329 15.9954 5.37588 15.2676 4.05441 13.9462C2.73288 12.6246 2.00515 10.8676 2.00515 8.99878C2.00515 7.12988 2.73287 5.37293 4.05441 4.05139C5.37595 2.72985 7.13297 2.00207 9.00186 2.00207C10.8707 2.00207 12.6277 2.72985 13.9492 4.05133C15.2707 5.37286 15.9984 7.12988 15.9984 8.99878C15.9984 10.8676 15.2707 12.6246 13.9491 13.9462Z"/>
      <path d="M12.9996 7.99835H9.9996V4.99835C9.9996 4.44836 9.54959 3.99835 8.9996 3.99835C8.44955 3.99835 7.9996 4.44836 7.9996 4.99835V7.99835H4.9996C4.44955 7.99835 3.9996 8.44836 3.9996 8.99835C3.9996 9.5484 4.44955 9.99835 4.9996 9.99835H7.9996V12.9983C7.9996 13.5484 8.44955 13.9983 8.9996 13.9983C9.54959 13.9983 9.9996 13.5484 9.9996 12.9983V9.99835H12.9996C13.5496 9.99835 13.9996 9.5484 13.9996 8.99835C13.9996 8.44836 13.5496 7.99835 12.9996 7.99835Z"/>
    </g>
  </g>
</svg>
