<svg xmlns="http://www.w3.org/2000/svg" width="16" height="16" viewBox="0 0 16 16">
  <g class="neo-icon-kit--glyphs-double-right">
    <path fill="#006FCF" fill-rule="evenodd" d="M1.70418 1.29131C1.31564 0.902897 0.679865 0.902897 0.291401 1.29131C-0.0971335 1.67972 -0.0971335 2.31523 0.291401 2.70363L5.58942 7.99998L0.291401 13.2964C-0.097133 13.6848 -0.097133 14.3203 0.291401 14.7087C0.679866 15.0971 1.31565 15.0971 1.70418 14.7087L7.7086 8.70619C8.09713 8.31779 8.09713 7.68221 7.7086 7.2938L1.70418 1.29131ZM9.70418 1.29131C9.31564 0.902897 8.67986 0.902897 8.2914 1.29131C7.90287 1.67972 7.90287 2.31523 8.2914 2.70363L13.5894 7.99998L8.2914 13.2964C7.90287 13.6848 7.90287 14.3203 8.2914 14.7087C8.67987 15.0971 9.31565 15.0971 9.70418 14.7087L15.7086 8.70619C16.0971 8.31779 16.0971 7.68221 15.7086 7.2938L9.70418 1.29131Z" class="svg-primary-fill" clip-rule="evenodd"/>
  </g>
</svg>
