<svg xmlns="http://www.w3.org/2000/svg" width="16" height="16" viewBox="0 0 16 16">
  <g class="neo-icon-kit--glyphs-close">
    <path fill="#006FCF" d="M9.41231 8.00003L14.7086 2.70373C15.097 2.31532 15.097 1.67983 14.7086 1.29143C14.3202 0.90303 13.6847 0.90302 13.2963 1.29143L8.00001 6.58773L2.70361 1.29143C2.3152 0.90302 1.67971 0.90302 1.29131 1.29143C0.902908 1.67984 0.902898 2.31543 1.29131 2.70373L6.58771 8.00003L1.29131 13.2964C0.902898 13.6848 0.902898 14.3203 1.29131 14.7087C1.67972 15.0971 2.31521 15.0971 2.70361 14.7087L8.00001 9.41233L13.2963 14.7087C13.6847 15.0971 14.3203 15.0971 14.7086 14.7087C15.097 14.3203 15.097 13.6848 14.7086 13.2964L9.41231 8.00003Z" class="svg-primary-fill"/>
  </g>
</svg>
