<svg xmlns="http://www.w3.org/2000/svg" width="16" height="16" viewBox="0 0 16 16">
  <g class="neo-icon-kit--glyphs-warning-filled">
    <path fill="#006FCF" fill-rule="evenodd" d="M0 8.00003C-3.86257e-07 12.4183 3.5817 16 8 16C12.4183 16 16 12.4183 16 8.00003C16 3.58175 12.4183 3.8626e-07 8 0C3.5817 -3.8626e-07 3.86259e-07 3.58175 0 8.00003ZM8 13C7.44771 13 7 12.5523 7 12C7 11.4477 7.44771 11 8 11C8.55228 11 9 11.4477 9 12C9 12.5523 8.55228 13 8 13ZM9 9C9 9.55228 8.55228 10 8 10C7.44771 10 7 9.55228 7 9L7 4C7 3.44771 7.44771 3 8 3C8.55228 3 9 3.44771 9 4V9Z" class="svg-primary-fill" clip-rule="evenodd"/>
  </g>
</svg>
