<svg xmlns="http://www.w3.org/2000/svg" width="18" height="18" viewBox="0 0 18 18">
  <g class="neo-icon-kit--glyphs-account">
    <path fill="#006FCF" d="M16.9946 15.8315C16.9168 14.7779 16.6066 14.0044 15.3932 13.2947C13.6204 12.2434 11.9305 11.3321 11.9305 11.3321C11.6535 11.1919 11.4751 10.4857 11.3827 10.0125C11.3589 9.91724 11.3395 9.86147 11.3211 9.72132C13.1678 8.17925 12.78 4.86732 12.78 4.86732C12.5953 1.15242 9.3266 1.16992 8.99419 1.18746C8.68022 1.16992 5.39301 1.15242 5.20831 4.86732C5.20831 4.86732 4.82051 8.17925 6.66726 9.72132C6.6354 9.87554 6.62469 9.89022 6.58775 10.0304C6.49542 10.5036 6.33485 11.1919 6.05783 11.3321C6.05783 11.3321 4.36857 12.2434 2.5957 13.2947C1.39647 14.0059 1.07424 14.7812 0.994629 15.8382C1.05286 16.3863 1.51156 16.8148 2.07548 16.8148H15.9131C16.4793 16.8148 16.9395 16.3828 16.9946 15.8315Z" class="svg-primary-fill"/>
  </g>
</svg>
