<svg xmlns="http://www.w3.org/2000/svg" width="16" height="16" viewBox="0 0 16 16">
  <g class="neo-icon-kit--glyphs-warning">
    <g fill="#006FCF" class="svg-primary-fill">
      <path d="M8 13C7.44771 13 7 12.5523 7 12 7 11.4477 7.44771 11 8 11 8.55228 11 9 11.4477 9 12 9 12.5523 8.55228 13 8 13zM8 10C8.55228 10 9 9.55228 9 9V4C9 3.44771 8.55228 3 8 3 7.44771 3 7 3.44771 7 4L7 9C7 9.55228 7.44771 10 8 10z"/>
      <path fill-rule="evenodd" d="M0 8.00003C-3.86258e-07 12.4183 3.5817 16 8 16C12.4183 16 16 12.4183 16 8.00003C16 3.58175 12.4183 3.8626e-07 8 0C3.5817 -3.8626e-07 3.86258e-07 3.58175 0 8.00003ZM15 8.00003C15 11.8598 11.8598 15 8 15C4.14017 15 0.999998 11.8598 0.999998 8.00003C0.999998 4.14022 4.14018 1 8 1C11.8598 1 15 4.14022 15 8.00003Z" clip-rule="evenodd"/>
    </g>
  </g>
</svg>
