<svg xmlns="http://www.w3.org/2000/svg" width="16" height="16" viewBox="0 0 16 16">
  <g class="neo-icon-kit--glyphs-nav">
    <path fill="#006FCF" fill-rule="evenodd" d="M16 3C16 2.44772 15.5523 2 15 2H1C0.447715 2 0 2.44772 0 3C0 3.55228 0.447715 4 1 4H15C15.5523 4 16 3.55228 16 3ZM15 7C15.5523 7 16 7.44772 16 8C16 8.55228 15.5523 9 15 9H1C0.447715 9 0 8.55228 0 8C0 7.44772 0.447715 7 1 7H15ZM15 12C15.5523 12 16 12.4477 16 13C16 13.5523 15.5523 14 15 14H1C0.447715 14 0 13.5523 0 13C0 12.4477 0.447715 12 1 12H15Z" class="svg-primary-fill" clip-rule="evenodd"/>
  </g>
</svg>
