<svg xmlns="http://www.w3.org/2000/svg" width="16" height="16" viewBox="0 0 16 16">
  <g class="neo-icon-kit--glyphs-link-out">
    <path fill="#006FCF" d="M13.0001 2C13.3651 2 13.6557 2.181 13.8279 2.438L13.8534 2.4785C13.9376 2.6175 13.9884 2.7757 13.9997 2.9383L14.0001 10C14.0001 10.5523 13.5524 11 13.0001 11C12.4873 11 12.0646 10.614 12.0068 10.1166L12.0001 5.414L3.7071 13.707C3.3166 14.0975 2.6834 14.0975 2.2929 13.707C1.9324 13.3465 1.9047 12.7793 2.2097 12.387L2.2929 12.2928L10.5841 4H6.00009C5.48729 4 5.0646 3.614 5.0068 3.1166L5.0001 3C5.0001 2.4872 5.3861 2.0645 5.8835 2.0067L6.00009 2H13.0001Z" class="svg-primary-fill"/>
  </g>
</svg>
