<svg xmlns="http://www.w3.org/2000/svg" width="16" height="16" viewBox="0 0 16 16">
  <g class="neo-icon-kit--glyphs-info">
    <g fill="#006FCF" class="svg-primary-fill">
      <path d="M8 3C8.55229 3 9 3.44772 9 4 9 4.55228 8.55229 5 8 5 7.44772 5 7 4.55228 7 4 7 3.44772 7.44772 3 8 3zM8 6C7.44772 6 7 6.44772 7 7V12C7 12.5523 7.44772 13 8 13 8.55229 13 9 12.5523 9 12V7C9 6.44772 8.55229 6 8 6z"/>
      <path fill-rule="evenodd" d="M16 7.99997C16 3.58169 12.4183 0 8 0C3.5817 0 0 3.58169 0 7.99997C0 12.4183 3.5817 16 8 16C12.4183 16 16 12.4182 16 7.99997ZM1 7.99997C1 4.14016 4.14018 1 8 1C11.8598 1 15 4.14016 15 7.99997C15 11.8598 11.8598 15 8 15C4.14018 15 1 11.8598 1 7.99997Z" clip-rule="evenodd"/>
    </g>
  </g>
</svg>
