<svg xmlns="http://www.w3.org/2000/svg" width="48" height="48" viewBox="0 0 48 48">
  <g class="neo-icon-kit--grid-view">
    <g fill="#006FCF" class="svg-primary-fill">
      <path d="M3 9C3 7.34315 4.34315 6 6 6 7.65685 6 9 7.34315 9 9 9 10.6569 7.65685 12 6 12 4.34315 12 3 10.6569 3 9zM3 24C3 22.3431 4.34315 21 6 21 7.65685 21 9 22.3431 9 24 9 25.6569 7.65685 27 6 27 4.34315 27 3 25.6569 3 24zM3 39C3 37.3431 4.34315 36 6 36 7.65685 36 9 37.3431 9 39 9 40.6569 7.65685 42 6 42 4.34315 42 3 40.6569 3 39zM15 9C15 8.17157 15.6716 7.5 16.5 7.5H43.5C44.3284 7.5 45 8.17157 45 9 45 9.82843 44.3284 10.5 43.5 10.5H16.5C15.6716 10.5 15 9.82843 15 9zM15 24C15 23.1716 15.6716 22.5 16.5 22.5H43.5C44.3284 22.5 45 23.1716 45 24 45 24.8284 44.3284 25.5 43.5 25.5H16.5C15.6716 25.5 15 24.8284 15 24zM15 39C15 38.1716 15.6716 37.5 16.5 37.5H43.5C44.3284 37.5 45 38.1716 45 39 45 39.8284 44.3284 40.5 43.5 40.5H16.5C15.6716 40.5 15 39.8284 15 39z"/>
    </g>
  </g>
</svg>
