<svg xmlns="http://www.w3.org/2000/svg" width="48" height="48" viewBox="0 0 48 48">
  <g class="neo-icon-kit--grid">
    <path fill="#006FCF" d="M19 26C19.7956 26 20.5587 26.3161 21.1213 26.8787C21.6839 27.4413 22 28.2044 22 29V42C22 42.7956 21.6839 43.5587 21.1213 44.1213C20.5587 44.6839 19.7956 45 19 45H6C5.20435 45 4.44129 44.6839 3.87868 44.1213C3.31607 43.5587 3 42.7956 3 42V29C3 28.2044 3.31607 27.4413 3.87868 26.8787C4.44129 26.3161 5.20435 26 6 26H19ZM42 26C42.7956 26 43.5587 26.3161 44.1213 26.8787C44.6839 27.4413 45 28.2044 45 29V42C45 42.7956 44.6839 43.5587 44.1213 44.1213C43.5587 44.6839 42.7956 45 42 45H29C28.2044 45 27.4413 44.6839 26.8787 44.1213C26.3161 43.5587 26 42.7956 26 42V29C26 28.2044 26.3161 27.4413 26.8787 26.8787C27.4413 26.3161 28.2044 26 29 26H42ZM19 29H6V42H19V29ZM42 29H29V42H42V29ZM19 3C19.7956 3 20.5587 3.31607 21.1213 3.87868C21.6839 4.44129 22 5.20435 22 6V19C22 19.7956 21.6839 20.5587 21.1213 21.1213C20.5587 21.6839 19.7956 22 19 22H6C5.20435 22 4.44129 21.6839 3.87868 21.1213C3.31607 20.5587 3 19.7956 3 19V6C3 5.20435 3.31607 4.44129 3.87868 3.87868C4.44129 3.31607 5.20435 3 6 3H19ZM42 3C42.7956 3 43.5587 3.31607 44.1213 3.87868C44.6839 4.44129 45 5.20435 45 6V19C45 19.7956 44.6839 20.5587 44.1213 21.1213C43.5587 21.6839 42.7956 22 42 22H29C28.2044 22 27.4413 21.6839 26.8787 21.1213C26.3161 20.5587 26 19.7956 26 19V6C26 5.20435 26.3161 4.44129 26.8787 3.87868C27.4413 3.31607 28.2044 3 29 3H42ZM19 6H6V19H19V6ZM42 6H29V19H42V6Z" class="svg-primary-fill"/>
  </g>
</svg>
