<svg xmlns="http://www.w3.org/2000/svg" width="48" height="48" viewBox="0 0 48 48">
  <g class="neo-icon-kit--grocery">
    <path fill="#006FCF" fill-rule="evenodd" d="M26.1003 6.29968L26.2201 6.21871C26.8861 5.81331 27.7427 5.9883 28.2003 6.60026L28.2813 6.72008L35.099 17.9208L46.5 17.9195C47.3281 17.9195 48 18.5932 48 19.4246C48 20.2098 47.4007 20.8543 46.6365 20.9234L45.125 20.9296L39.7417 39.8169C39.3904 41.0504 38.3019 41.9182 37.0387 41.9945L11.1429 42C9.8643 42 8.73363 41.1882 8.31342 39.9905L2.90625 20.9296H1.5C0.67139 20.9296 0 20.256 0 19.4246C0 18.6394 0.598863 17.9949 1.36344 17.9257L12.898 17.9228L19.7187 6.72008C20.1494 6.01244 21.0723 5.78797 21.7799 6.21871C22.4876 6.64944 22.712 7.57228 22.2813 8.27992L16.411 17.9228L31.586 17.9208L25.7187 8.27992C25.3133 7.61391 25.4883 6.75727 26.1003 6.29968ZM29 31.5H19V39H29V31.5ZM9 31.5H16V39H11.1429L9 31.5ZM39 31.5H32V39H36.8571L39 31.5ZM19 21H29V28.5H19V21ZM16 21H6L8.14288 28.5H16V21ZM32 21H42L39.8571 28.5H32V21Z" class="svg-primary-fill" clip-rule="evenodd"/>
  </g>
</svg>
