<svg xmlns="http://www.w3.org/2000/svg" width="48" height="48" viewBox="0 0 48 48">
  <g class="neo-icon-kit--grocery-filled">
    <path fill="#006FCF" fill-rule="evenodd" d="M26.2201 6.21871L26.1003 6.29968C25.4883 6.75727 25.3133 7.61391 25.7187 8.27992L31.586 17.9208L16.411 17.9228L22.2813 8.27992C22.712 7.57228 22.4876 6.64944 21.7799 6.21871C21.0723 5.78797 20.1494 6.01244 19.7187 6.72008L12.898 17.9228L1.36344 17.9257C0.598863 17.9949 0 18.6394 0 19.4246C0 20.256 0.67139 20.9296 1.5 20.9296H2.90625L5.036 28.5H16V21H19V28.5H29V21H32V28.5H42.963L45.125 20.9296L46.6365 20.9234C47.4007 20.8543 48 20.2098 48 19.4246C48 18.5932 47.3281 17.9195 46.5 17.9195L35.099 17.9208L28.2813 6.72008L28.2003 6.60026C27.7427 5.9883 26.8861 5.81331 26.2201 6.21871ZM16 41.999V31.5H5.89L8.31342 39.9905C8.73363 41.1882 9.8643 42 11.1429 42L16 41.999ZM29 41.999V31.5H19V41.999H29ZM42.109 31.5L39.7417 39.8169C39.3904 41.0504 38.3019 41.9182 37.0387 41.9945L32 41.999V31.5H42.109Z" class="svg-primary-fill" clip-rule="evenodd"/>
  </g>
</svg>
