<svg xmlns="http://www.w3.org/2000/svg" width="34" height="34" viewBox="0 0 34 34">
  <g class="neo-icon-kit--ground-transport-drive">
    <path fill="#444B61" fill-rule="evenodd" d="M0 17C0 7.61116 7.61116 0 17 0C26.3888 0 34 7.61116 34 17C34 26.3888 26.3888 34 17 34C7.61116 34 0 26.3888 0 17ZM17 2C8.71573 2 2 8.71573 2 17C2 25.2843 8.71573 32 17 32C25.2843 32 32 25.2843 32 17C32 8.71573 25.2843 2 17 2Z" class="svg-secondary-fill" clip-rule="evenodd"/>
    <g fill="#444B61" class="svg-primary-fill">
      <path d="M20.1539 13.428C20.1539 13.9924 19.6964 14.45 19.1319 14.45C18.5675 14.45 18.1099 13.9924 18.1099 13.428C18.1099 12.8636 18.5675 12.406 19.1319 12.406C19.6964 12.406 20.1539 12.8636 20.1539 13.428Z"/>
      <path fill-rule="evenodd" d="M24.7419 15.422V14.192L23.0889 14.285L21.3889 11.453H12.7279L11.0279 14.336H9.47192V15.516H10.5099V18.208L9.94692 18.303L9.99092 20.427H11.0759V22.695H13.2989L13.3419 20.475H20.9179V22.695H23.0879V20.384H24.2709V18.208H23.7509V15.475L24.7429 15.423L24.7419 15.422ZM12.7749 11.975H21.2339L22.6649 14.858H11.4999L12.7749 11.975ZM11.0749 18.235H13.3669V17.075H11.0749V18.235ZM23.2099 18.185H20.8939V17.053H23.2099V18.185Z" clip-rule="evenodd"/>
    </g>
  </g>
</svg>
