<svg xmlns="http://www.w3.org/2000/svg" width="34" height="34" viewBox="0 0 34 34">
  <g class="neo-icon-kit--ground-transport-walk">
    <path fill="#444B61" fill-rule="evenodd" d="M0 17C0 7.61116 7.61116 0 17 0C26.3888 0 34 7.61116 34 17C34 26.3888 26.3888 34 17 34C7.61116 34 0 26.3888 0 17ZM17 2C8.71573 2 2 8.71573 2 17C2 25.2843 8.71573 32 17 32C25.2843 32 32 25.2843 32 17C32 8.71573 25.2843 2 17 2Z" class="svg-secondary-fill" clip-rule="evenodd"/>
    <path fill="#444B61" d="M20.979 17.21C21.015 17.224 21.034 17.232 21.049 17.228C21.3968 17.318 21.7659 17.2106 22.011 16.948C22.197 16.758 22.29 16.504 22.29 16.236C22.2775 15.909 22.1095 15.6077 21.838 15.425C21.797 15.3844 21.7459 15.3554 21.69 15.341L19.636 14.716C19.777 14.151 19.814 13.75 19.8 13.148C19.7966 12.8557 19.7121 12.5701 19.556 12.323C20.438 12.2544 21.1139 11.5105 21.098 10.626C21.0878 10.1833 20.9017 9.76293 20.5808 9.45779C20.2599 9.15266 19.8307 8.98793 19.388 9.00001C18.4748 9.02992 17.7547 9.78742 17.771 10.701C17.781 11.011 17.873 11.308 18.037 11.561C17.8064 11.5852 17.5831 11.6563 17.381 11.77L12.852 14.432C12.83 14.444 12.812 14.462 12.788 14.482C12.4908 14.6673 12.3136 14.9959 12.322 15.346C12.336 15.856 12.728 16.271 13.228 16.322C13.268 16.325 13.304 16.325 13.35 16.322C13.5192 16.317 13.6844 16.2692 13.83 16.183C13.849 16.173 13.866 16.166 13.88 16.154L15.428 15.226C14.957 16.425 14.883 16.675 14.926 16.835L14.921 19.085L12.161 21.105C12.147 21.119 12.127 21.135 12.116 21.155C11.8264 21.3683 11.674 21.7209 11.717 22.078C11.779 22.617 12.297 23.031 12.847 22.968C13.014 22.9494 13.1729 22.8861 13.307 22.785C13.325 22.775 13.35 22.764 13.372 22.75L16.897 20.226C17.023 20.1704 17.1135 20.0563 17.139 19.921C17.199 19.553 17.252 19.232 17.287 18.966L18.692 20.209L18.772 23.938C18.7748 23.9665 18.7805 23.9947 18.789 24.022C18.8203 24.5353 19.221 24.9492 19.733 24.997C20.145 25.032 20.533 24.828 20.73 24.472C20.813 24.3217 20.8534 24.1516 20.847 23.98C20.847 23.955 20.849 23.938 20.852 23.916L20.847 19.799C20.858 19.777 20.862 19.752 20.867 19.729C20.88 19.591 20.809 19.462 20.723 19.413L18.7 17.42L18.975 16.476L20.886 17.174C20.919 17.194 20.961 17.212 20.979 17.212V17.21Z" class="svg-primary-fill"/>
  </g>
</svg>
