<svg xmlns="http://www.w3.org/2000/svg" width="48" height="48" viewBox="0 0 48 48">
  <g class="neo-icon-kit--ground-transport-transit">
    <path fill="#444B61" fill-rule="evenodd" d="M48 24C48 37.2548 37.2548 48 24 48C10.7452 48 0 37.2548 0 24C0 10.7452 10.7452 0 24 0C37.2548 0 48 10.7452 48 24ZM45 24C45 35.598 35.598 45 24 45C12.402 45 3 35.598 3 24C3 12.402 12.402 3 24 3C35.598 3 45 12.402 45 24Z" class="svg-secondary-fill" clip-rule="evenodd"/>
    <path fill="#444B61" fill-rule="evenodd" d="M19.3585 11.0001L20.1283 11.0275H28.8442C30.5672 11.0275 31.9969 11.1732 33.1334 11.4647C34.2699 11.7562 34.8564 12.1206 34.8931 12.5578V16.2198H37.3401C37.5051 16.2198 37.6426 16.2562 37.7525 16.3291C37.8625 16.4019 37.9175 16.493 37.9175 16.6023V16.821C37.9725 17.0943 38 17.4131 38 17.7774V19.6904C38 20.1094 37.9633 20.4601 37.89 20.7425C37.8167 21.0249 37.7342 21.1661 37.6426 21.1661H36.0204C35.9104 21.1661 35.8233 21.0249 35.7592 20.7425C35.695 20.4601 35.6629 20.1094 35.6629 19.6904V17.4768H34.9206V33.7096C34.9206 33.9647 34.8427 34.1742 34.6869 34.3382C34.5311 34.5021 34.334 34.5932 34.0957 34.6115H34.0132V36.5791C34.0132 36.9799 33.9766 37.3124 33.9033 37.5765C33.8299 37.8407 33.7383 37.9819 33.6283 38.0001H31.4837C31.3737 37.9819 31.2775 37.8407 31.195 37.5765C31.1125 37.3124 31.0713 36.9799 31.0713 36.5791V34.6115H18.0937V36.5791C18.0937 36.9799 18.0524 37.3124 17.97 37.5765C17.8875 37.8407 17.7912 37.9819 17.6813 38.0001H15.4817C15.3717 37.9819 15.2755 37.8407 15.193 37.5765C15.1105 37.3124 15.0692 36.9799 15.0692 36.5791V34.6115H14.9043C14.666 34.5932 14.4644 34.5021 14.2994 34.3382C14.1344 34.1742 14.0428 33.9647 14.0244 33.7096V33.2177L14.0794 33.0538V17.4768H13.3371V19.7451C13.3371 20.1641 13.305 20.5102 13.2408 20.7835C13.1767 21.0568 13.0896 21.2026 12.9796 21.2208H11.3574C11.2658 21.2026 11.1833 21.0568 11.11 20.7835C11.0367 20.5102 11 20.1641 11 19.7451V17.8321C11 17.4131 11.0321 17.0669 11.0962 16.7936C11.1604 16.5204 11.2475 16.3746 11.3574 16.3564C11.4674 16.2653 11.6049 16.2198 11.7699 16.2198H14.0794V12.5578C14.0978 12.1752 14.556 11.8427 15.4542 11.5603C16.3523 11.278 17.5071 11.1003 18.9185 11.0275C19.0652 11.0092 19.2118 11.0001 19.3585 11.0001ZM19.9353 12.5304C18.8172 12.5668 17.9282 12.6123 17.2683 12.667C16.6084 12.7217 16.2693 12.7854 16.251 12.8583V14.9899C16.2876 15.0992 16.8742 15.1903 18.0107 15.2632C19.1471 15.336 20.5768 15.3725 22.2999 15.3725H26.809C28.532 15.3725 29.9618 15.336 31.0982 15.2632C32.2347 15.1903 32.8212 15.0992 32.8579 14.9899V12.8583C32.8212 12.7672 32.2347 12.6898 31.0982 12.626C29.9618 12.5622 28.532 12.5304 26.809 12.5304H19.9353ZM16.6911 17.0396C16.2695 17.0396 15.9213 17.0942 15.6463 17.2036C15.518 17.2764 15.4218 17.3447 15.3576 17.4085C15.2935 17.4723 15.2522 17.5315 15.2339 17.5861V25.5112C15.2522 25.657 15.3989 25.78 15.6738 25.8802C15.9488 25.9804 16.2879 26.0396 16.6911 26.0578H32.3082C32.7298 26.0396 33.0735 25.9804 33.3393 25.8802C33.6051 25.78 33.7471 25.657 33.7655 25.5112V17.6135C33.7655 17.5588 33.7288 17.4951 33.6555 17.4222C33.5822 17.3493 33.4813 17.2764 33.353 17.2036C33.0781 17.0942 32.7298 17.0396 32.3082 17.0396H16.6911ZM29.0915 29.3373C28.8899 29.3373 28.7203 29.4056 28.5828 29.5422C28.4454 29.6789 28.3675 29.8474 28.3491 30.0478V31.0043C28.3675 31.2229 28.4454 31.4005 28.5828 31.5371C28.7203 31.6738 28.8899 31.7512 29.0915 31.7694H32.9683C33.1699 31.7512 33.3349 31.6738 33.4632 31.5371C33.5915 31.4005 33.6556 31.2229 33.6556 31.0043V30.0478C33.6556 29.8474 33.5915 29.6789 33.4632 29.5422C33.3349 29.4056 33.1699 29.3373 32.9683 29.3373H29.0915ZM16.1968 29.3921C15.9952 29.4103 15.8256 29.4877 15.6881 29.6243C15.5507 29.761 15.4819 29.9386 15.4819 30.1572V31.0864C15.4819 31.2868 15.5507 31.4599 15.6881 31.6056C15.8256 31.7514 15.9952 31.8242 16.1968 31.8242H20.1011C20.3027 31.8242 20.4677 31.7514 20.596 31.6056C20.7243 31.4599 20.7885 31.2868 20.7885 31.0864V30.1572C20.7885 29.9386 20.7243 29.761 20.596 29.6243C20.4677 29.4877 20.3027 29.4103 20.1011 29.3921H16.1968Z" class="svg-primary-fill" clip-rule="evenodd"/>
  </g>
</svg>
