<svg xmlns="http://www.w3.org/2000/svg" width="34" height="34" viewBox="0 0 34 34">
  <g class="neo-icon-kit--ground-transport-bike">
    <path fill="#444B61" fill-rule="evenodd" d="M0 17C0 7.61116 7.61116 0 17 0C26.3888 0 34 7.61116 34 17C34 26.3888 26.3888 34 17 34C7.61116 34 0 26.3888 0 17ZM17 2C8.71573 2 2 8.71573 2 17C2 25.2843 8.71573 32 17 32C25.2843 32 32 25.2843 32 17C32 8.71573 25.2843 2 17 2Z" class="svg-secondary-fill" clip-rule="evenodd"/>
    <g fill="#444B61" class="svg-primary-fill">
      <path d="M18.18 12.495C18.8461 12.495 19.386 11.9551 19.386 11.289C19.386 10.623 18.8461 10.083 18.18 10.083C17.514 10.083 16.974 10.623 16.974 11.289C16.974 11.9551 17.514 12.495 18.18 12.495Z"/>
      <path fill-rule="evenodd" d="M10.3161 17.47C9.31493 18.0558 8.70774 19.1362 8.72803 20.296 8.75893 22.0459 10.1863 23.4494 11.9365 23.4494 13.6867 23.4494 15.1141 22.0469 15.145 20.297 15.1657 19.1372 14.5588 18.0566 13.5578 17.4705 12.5568 16.8845 11.3174 16.8843 10.3161 17.47zM14.553 20.298C14.553 21.7433 13.3814 22.915 11.936 22.915V22.914C10.491 22.914 9.31953 21.7426 9.31953 20.2975 9.31953 18.8525 10.491 17.681 11.936 17.681 13.3814 17.681 14.553 18.8527 14.553 20.298zM19.7518 17.4819C18.7468 18.0729 18.1413 19.1624 18.17 20.328H18.169C18.1994 22.0785 19.6268 23.4818 21.3776 23.4824 23.1283 23.4829 24.5566 22.0805 24.588 20.33 24.6175 19.1645 24.0126 18.0746 23.008 17.4829 22.0033 16.8913 20.7569 16.8909 19.7518 17.4819zM21.38 22.944C22.3146 22.944 23.1783 22.4454 23.6456 21.636 24.1129 20.8266 24.1129 19.8294 23.6456 19.02 23.1783 18.2106 22.3146 17.712 21.38 17.712 19.9634 17.7512 18.8354 18.9109 18.8354 20.328 18.8354 21.7452 19.9634 22.9048 21.38 22.944z" clip-rule="evenodd"/>
      <path d="M17.7281 15.121C17.8671 15.34 18.0551 15.428 18.2301 15.424H20.5631C21.2871 15.424 21.2871 14.481 20.5631 14.481L18.5511 14.484L17.2261 12.407C17.2261 12.407 16.9451 11.942 16.4121 11.942C16.4121 11.942 15.9691 11.884 15.6521 12.242L13.1021 14.798C12.8972 15.0268 12.8072 15.3362 12.8576 15.6392C12.9079 15.9421 13.0932 16.2058 13.3611 16.356L15.9611 17.8V20.518C15.9605 20.9022 16.2709 21.2144 16.6551 21.216C17.0411 21.216 17.3511 20.902 17.3511 20.518V17.124C17.3511 17.124 17.4431 16.582 16.8271 16.286L15.3271 15.497L16.9441 13.896L17.7281 15.121Z"/>
    </g>
  </g>
</svg>
