<svg xmlns="http://www.w3.org/2000/svg" width="48" height="48" viewBox="0 0 48 48">
  <g class="neo-icon-kit--ground-transport-taxi">
    <path fill="#444B61" fill-rule="evenodd" d="M38.7692 20.9576L36.8529 21.0572V26.3631H37.8553V30.5889H35.5716V35.0769H31.3716V30.7662H16.7132L16.6338 35.0769H12.3323V30.6739H10.235L10.1501 26.5477L11.2393 26.3631V21.1348H9.23071V18.8456H12.2455L15.5316 13.2499H21.4929V11.0769H26.5107V13.248H32.2836L35.5735 18.7459L38.7692 18.5668V20.9576ZM15.4525 14.7693L12.9228 20.3077H35.0767L32.2364 14.7693H15.4525ZM16.6151 26.0084L16.6136 26.0069V24.1623H12.9228V26.0084H16.6151ZM35.0767 25.9625V24.1163H31.3844V25.9625H35.0767Z" class="svg-primary-fill" clip-rule="evenodd"/>
    <path fill="#444B61" fill-rule="evenodd" d="M24 45.1754C35.6954 45.1754 45.1754 35.6935 45.1754 23.9982C45.1754 12.3028 35.6972 2.82461 24 2.82461C12.3046 2.82461 2.82461 12.3028 2.82461 24C2.82461 35.6954 12.3046 45.1754 24 45.1754ZM24 48C10.7446 48 0 37.2554 0 24C0 10.7446 10.7446 0 24 0C37.2554 0 48 10.7446 48 24C48 37.2554 37.2554 48 24 48Z" class="svg-secondary-fill" clip-rule="evenodd"/>
  </g>
</svg>
