<svg xmlns="http://www.w3.org/2000/svg" width="48" height="48" viewBox="0 0 48 48">
  <g class="neo-icon-kit--guide-filled">
    <path fill="#006FCF" fill-rule="evenodd" d="M18.7838 6.00848L1.28626 6C0.560428 6.07989 0.017976 6.77767 0 7.41413L0.00679153 38.7318C0.0786136 39.4326 0.71011 40.0209 1.42442 40.0209C11.4392 39.9373 17.192 39.9391 18.6828 40.0262L18.9767 40.0511C19.558 40.1311 20.3733 40.5367 21.2174 40.9567C21.647 41.1704 22.0842 41.3879 22.5016 41.568L22.5016 6.81723C21.4538 6.28588 20.1872 6.00848 18.7838 6.00848ZM47.9968 7.29424C47.9197 6.69286 47.4003 6.0749 46.7197 6L28.8617 6.01453C27.5997 6.05767 26.458 6.33121 25.4994 6.81721L25.4998 41.5678C25.9168 41.3879 26.3533 41.1708 26.7824 40.9574L26.7834 40.9569C27.6277 40.5369 28.4436 40.1311 29.0251 40.0511C29.5262 39.9823 32.2745 39.9535 37.2699 39.965L46.7143 40.0141C47.3727 39.9469 47.9321 39.3888 47.9994 38.7318L47.9968 7.29424ZM17.5 29H7.5C6.67157 29 6 29.6716 6 30.5C6 31.2797 6.59489 31.9204 7.35554 31.9931L7.5 32H17.5C18.3284 32 19 31.3284 19 30.5C19 29.7203 18.4051 29.0796 17.6445 29.0069L17.5 29ZM30.5 29H40.5L40.6445 29.0069C41.4051 29.0796 42 29.7203 42 30.5C42 31.3284 41.3284 32 40.5 32H30.5L30.3555 31.9931C29.5949 31.9204 29 31.2797 29 30.5C29 29.6716 29.6716 29 30.5 29ZM17.5 22H7.5C6.67157 22 6 22.6716 6 23.5C6 24.2797 6.59489 24.9204 7.35554 24.9931L7.5 25H17.5C18.3284 25 19 24.3284 19 23.5C19 22.7203 18.4051 22.0796 17.6445 22.0069L17.5 22ZM30.5 22H40.5L40.6445 22.0069C41.4051 22.0796 42 22.7203 42 23.5C42 24.3284 41.3284 25 40.5 25H30.5L30.3555 24.9931C29.5949 24.9204 29 24.2797 29 23.5C29 22.6716 29.6716 22 30.5 22ZM17.5 15H7.5C6.67157 15 6 15.6716 6 16.5C6 17.2797 6.59489 17.9204 7.35554 17.9931L7.5 18H17.5C18.3284 18 19 17.3284 19 16.5C19 15.7203 18.4051 15.0796 17.6445 15.0069L17.5 15ZM30.5 15H40.5L40.6445 15.0069C41.4051 15.0796 42 15.7203 42 16.5C42 17.3284 41.3284 18 40.5 18H30.5L30.3555 17.9931C29.5949 17.9204 29 17.2797 29 16.5C29 15.6716 29.6716 15 30.5 15Z" class="svg-primary-fill" clip-rule="evenodd"/>
  </g>
</svg>
