<svg xmlns="http://www.w3.org/2000/svg" width="48" height="48" viewBox="0 0 48 48">
  <g class="neo-icon-kit--guide">
    <path fill="#006FCF" fill-rule="evenodd" d="M46.7204 6C47.4009 6.0749 47.9203 6.69292 47.9974 7.29434L48 38.7344C47.9327 39.3914 47.3734 39.9496 46.7151 40.0168C46.7151 40.0168 30.1645 39.8975 29.0278 40.0538C28.4464 40.1337 27.631 40.5394 26.7867 40.9594C25.9803 41.3606 25.1477 41.7749 24.4676 41.9308L24.1982 41.9795C24.1326 41.9915 24.0675 41.9982 24.0029 41.9996C23.9383 42.0007 23.8735 41.9965 23.8086 41.987C23.0869 41.8957 22.1365 41.4229 21.2201 40.967C20.3758 40.547 19.5604 40.1413 18.979 40.0614C17.7665 39.8947 1.42459 40.0311 1.42459 40.0311C0.710197 40.0311 0.0786232 39.4427 0.00679236 38.7419L0 7.42181C0.0179782 6.7853 0.560496 6.08747 1.28642 6.00757L18.7861 6.01605C20.5827 6.01605 22.1551 6.47059 23.3313 7.3305C23.5667 7.50222 23.7915 7.70234 24.0039 7.92751C24.2153 7.69477 24.44 7.49465 24.6754 7.32293C25.7733 6.52035 27.2162 6.07089 28.8644 6.01453L46.7204 6ZM45 9L29.2978 9.01407C28.1422 9.01407 27.1057 9.29136 26.4504 9.7736C25.8345 10.2262 25.5458 10.7686 25.5051 11.5637L25.5 11.7679V38C26.6165 37.5488 27.823 37.2205 28.9196 37.119C30.0161 37.0176 45 37.0767 45 37.0767V9ZM3 37.0767V9L18.7193 9.01407L18.9825 9.01895C20.0257 9.05794 20.9521 9.32845 21.5526 9.7736C22.2171 10.2639 22.5 10.8597 22.5 11.7679V38L22.2205 37.8879C20.9092 37.3805 19.5162 37.0975 18.7193 37.0938C17.9225 37.09 3 37.0767 3 37.0767ZM17.5 29C18.3284 29 19 29.6716 19 30.5C19 31.3284 18.3284 32 17.5 32H7.5C6.67157 32 6 31.3284 6 30.5C6 29.6716 6.67157 29 7.5 29H17.5ZM42 30.5C42 29.6716 41.3284 29 40.5 29H30.5C29.6716 29 29 29.6716 29 30.5C29 31.3284 29.6716 32 30.5 32H40.5C41.3284 32 42 31.3284 42 30.5ZM17.5 22C18.3284 22 19 22.6716 19 23.5C19 24.3284 18.3284 25 17.5 25H7.5C6.67157 25 6 24.3284 6 23.5C6 22.6716 6.67157 22 7.5 22H17.5ZM42 23.5C42 22.6716 41.3284 22 40.5 22H30.5C29.6716 22 29 22.6716 29 23.5C29 24.3284 29.6716 25 30.5 25H40.5C41.3284 25 42 24.3284 42 23.5ZM17.5 15C18.3284 15 19 15.6716 19 16.5C19 17.3284 18.3284 18 17.5 18H7.5C6.67157 18 6 17.3284 6 16.5C6 15.6716 6.67157 15 7.5 15H17.5ZM42 16.5C42 15.6716 41.3284 15 40.5 15H30.5C29.6716 15 29 15.6716 29 16.5C29 17.3284 29.6716 18 30.5 18H40.5C41.3284 18 42 17.3284 42 16.5Z" class="svg-primary-fill" clip-rule="evenodd"/>
  </g>
</svg>
