<svg xmlns="http://www.w3.org/2000/svg" width="48" height="48" viewBox="0 0 48 48">
  <g class="neo-icon-kit--gym">
    <path fill="#006FCF" fill-rule="evenodd" d="M9 31.5V34.5C9 36.1569 10.3431 37.5 12 37.5H15C16.6569 37.5 18 36.1569 18 34.5V28.5H30V34.5C30 36.1569 31.3431 37.5 33 37.5H36C37.6569 37.5 39 36.1569 39 34.5V31.5H42C43.6569 31.5 45 30.1569 45 28.5V19.5C45 17.8431 43.6569 16.5 42 16.5H39V13.5C39 11.8431 37.6569 10.5 36 10.5H33C31.3431 10.5 30 11.8431 30 13.5V19.5H18V13.5C18 11.8431 16.6569 10.5 15 10.5H12C10.3431 10.5 9 11.8431 9 13.5V16.5H6C4.34315 16.5 3 17.8431 3 19.5V28.5C3 30.1569 4.34315 31.5 6 31.5H9ZM15 13.5H12V34.5H15V13.5ZM30 22.5H18V25.5H30V22.5ZM39 19.5V28.5H42V19.5H39ZM33 34.5H36V13.5H33V34.5ZM9 28.5V19.5H6L6 28.5H9Z" class="svg-primary-fill" clip-rule="evenodd"/>
  </g>
</svg>
