<svg xmlns="http://www.w3.org/2000/svg" width="48" height="48" viewBox="0 0 48 48">
  <g class="neo-icon-kit--hearing">
    <path fill="#006FCF" fill-rule="evenodd" d="M36.7712 15.8064C36.7712 8.73598 31.0644 3 24.0195 3C18.7655 3 14.2558 6.19025 12.3024 10.745C12.3024 10.745 6.16309 4.59944 5.56066 3.98441C4.97487 3.39863 4.02513 3.39863 3.43934 3.98441C2.85355 4.5702 2.85355 5.51995 3.43934 6.10573C3.696 6.36856 12.8323 15.5111 22.1282 24.8134L22.1337 24.8189C31.8383 34.5301 41.7149 44.4136 41.8431 44.5487C42.4289 45.1344 43.3786 45.1344 43.9644 44.5487C44.5502 43.9629 44.5502 43.0131 43.9644 42.4273C43.7426 42.192 30.2716 28.7143 30.2716 28.7143C30.6677 28.1264 31.9608 26.2533 32.8361 24.9854C33.2851 24.335 33.6244 23.8435 33.676 23.7668C35.7842 20.6349 36.7712 18.3608 36.7712 15.8064ZM17.272 15.596V15.7146L14.654 13.0966C15.8226 8.99963 19.5747 6.00387 24.0195 6.00387C29.3978 6.00387 33.7619 10.3902 33.7619 15.8064C33.7619 17.626 33.2425 19.3249 32.2606 20.7517C31.9886 21.1469 31.518 21.7897 30.9623 22.549C30.0737 23.7629 28.9671 25.2746 28.1055 26.5482L20.3451 18.7878V15.596C20.3451 13.596 21.9664 11.9747 23.9664 11.9747C25.9663 11.9747 27.5876 13.596 27.5876 15.596C27.5876 16.4446 28.2755 17.1325 29.1242 17.1325C29.9728 17.1325 30.6608 16.4446 30.6608 15.596C30.6608 11.8987 27.6636 8.90156 23.9664 8.90156C20.2692 8.90156 17.272 11.8987 17.272 15.596ZM18.7983 26.005C19.6268 26.005 20.2983 26.6453 20.2983 27.4352V30.5747C20.2983 31.3646 19.6268 32.005 18.7983 32.005C17.9699 32.005 17.2983 31.3646 17.2983 30.5747V27.4352C17.2983 26.6453 17.9699 26.005 18.7983 26.005ZM25.9664 33.47C25.3263 33.47 24.7873 33.9026 24.6258 34.4913L24.6016 34.5725C24.3409 35.7592 24.296 36.0799 24.2215 36.6115C24.206 36.7223 24.1892 36.8421 24.1689 36.9808C24.0195 37.757 23.7283 38.5403 23.5171 39.0506C23.2651 39.6596 22.5667 40.5438 21.9291 41.0159C21.0768 41.6468 20.0492 41.9961 18.9895 41.9961C16.5361 41.9961 14.5076 40.1494 14.2063 37.757L14.1631 37.1367C14.1661 36.397 13.49 35.7787 12.663 35.7787C11.8671 35.7787 11.2129 36.3967 11.1628 37.1475C11.1611 37.2825 11.1611 37.3735 11.1625 37.401C11.3001 41.6286 14.7593 45 18.9895 45C22.9861 45 26.3272 41.9802 26.7709 38.0306C26.9435 36.8842 27.0993 36.0446 27.2713 35.3399C27.3263 35.1903 27.3564 35.0287 27.3564 34.86C27.3564 34.0923 26.734 33.47 25.9664 33.47Z" class="svg-primary-fill" clip-rule="evenodd"/>
  </g>
</svg>
