<svg xmlns="http://www.w3.org/2000/svg" width="48" height="48" viewBox="0 0 48 48">
  <g class="neo-icon-kit--hearing-filled">
    <path fill="#006FCF" fill-rule="evenodd" d="M3.43934 6.10573C2.85355 5.51995 2.85355 4.5702 3.43934 3.98441C4.02513 3.39863 4.97487 3.39863 5.56066 3.98441C6.16309 4.59944 12.2957 10.7383 12.2957 10.7383C14.2506 6.18712 18.7585 3 24.0099 3C31.0548 3 36.7616 8.73598 36.7616 15.8064C36.7616 18.3608 35.7746 20.6349 33.6664 23.7668C33.6146 23.8438 33.2741 24.3371 32.8236 24.9897C31.9499 26.2551 30.6627 28.1198 30.2659 28.7086L43.9644 42.4273C44.5502 43.0131 44.5502 43.9629 43.9644 44.5487C43.3786 45.1344 42.4289 45.1344 41.8431 44.5487C41.7149 44.4136 31.8383 34.5301 22.1337 24.8189L22.1282 24.8134C12.8323 15.5111 3.696 6.36856 3.43934 6.10573ZM27.5201 34.4126C27.2333 35.3191 27.0155 36.3422 26.7613 38.0306C26.3176 41.9802 22.9765 45 18.9799 45C14.7497 45 11.2905 41.6286 11.1529 37.401C11.1519 37.3818 11.1516 37.3316 11.1519 37.257L11.2466 18.1391L17.2624 24.1549L17.255 30.4634C17.255 31.312 17.943 32 18.7916 32C19.6403 32 20.3282 31.312 20.3282 30.4634L20.3355 27.2281L27.5201 34.4126ZM20.3355 15.596V18.7782L17.2624 15.705V15.596C17.2624 11.8987 20.2596 8.90156 23.9568 8.90156C27.654 8.90156 30.6511 11.8987 30.6511 15.596C30.6511 16.4446 29.9632 17.1325 29.1146 17.1325C28.2659 17.1325 27.578 16.4446 27.578 15.596C27.578 13.596 25.9567 11.9747 23.9568 11.9747C21.9568 11.9747 20.3355 13.596 20.3355 15.596Z" class="svg-primary-fill" clip-rule="evenodd"/>
  </g>
</svg>
