<svg xmlns="http://www.w3.org/2000/svg" width="48" height="48" viewBox="0 0 48 48">
  <g class="neo-icon-kit--help">
    <path fill="#006FCF" fill-rule="evenodd" d="M48 24C48 10.7452 37.2548 0 24 0C10.7452 0 0 10.7452 0 24C0 37.2548 10.7452 48 24 48C37.2548 48 48 37.2548 48 24ZM3 24C3 12.4205 12.4205 3 24 3C35.5795 3 45 12.4205 45 24C45 35.5794 35.5795 45 24 45C12.4205 45 3 35.5794 3 24ZM24 33L24.164 33.0066C25.1919 33.0901 26 33.9507 26 35C26 36.0493 25.1919 36.9099 24.164 36.9934L24 37C22.8954 37 22 36.1046 22 35C22 33.8954 22.8954 33 24 33ZM31.5 18.9567C31.5 15.1325 28.1221 12 23.9697 12C20.1133 12 16.9062 14.6974 16.5098 18.2464C16.417 19.0706 17.0098 19.8136 17.833 19.906C18.6572 19.9954 19.3994 19.4049 19.4902 18.5807C19.7178 16.553 21.6426 15.0244 23.9697 15.0244C26.4678 15.0244 28.5 16.7887 28.5 18.9567C28.5 21.1193 26.4727 22.883 23.9805 22.8879L23.8506 22.9006L23.7062 22.9075C22.9457 22.9802 22.3506 23.6216 22.3506 24.4023V28.4983L22.3575 28.6429C22.4302 29.4042 23.0712 30 23.8506 30C24.6787 30 25.3506 29.3274 25.3506 28.4983V25.7683L25.5987 25.7217C28.969 25.0334 31.5 22.2619 31.5 18.9567Z" class="svg-primary-fill" clip-rule="evenodd"/>
  </g>
</svg>
