<svg xmlns="http://www.w3.org/2000/svg" width="48" height="48" viewBox="0 0 48 48">
  <g class="neo-icon-kit--help-filled">
    <path fill="#006FCF" fill-rule="evenodd" d="M24 0C10.7452 0 0 10.7452 0 24C0 37.2548 10.7452 48 24 48C37.2548 48 48 37.2548 48 24C48 10.7452 37.2548 0 24 0ZM24 37C22.8954 37 22 36.1046 22 35C22 33.8954 22.8954 33 24 33C25.1046 33 26 33.8954 26 35C26 36.1046 25.1046 37 24 37ZM25.3506 28.4965V25.7634C28.8441 25.1627 31.5 22.3336 31.5 18.9437C31.5 15.1151 28.1221 12 23.9697 12C20.1133 12 16.9062 14.6795 16.5098 18.2326C16.417 19.0578 17.0098 19.8017 17.833 19.8942C18.6572 19.9837 19.3994 19.3925 19.4902 18.5674C19.7178 16.5373 21.6426 15.0069 23.9697 15.0069C26.4678 15.0069 28.5 16.7732 28.5 18.9437C28.5 21.1089 26.4727 22.8747 23.9805 22.8796C23.9533 22.8796 23.9272 22.8832 23.9011 22.8868C23.8854 22.889 23.8697 22.8912 23.8537 22.8926L23.8506 22.8923C23.0225 22.8923 22.3506 23.5652 22.3506 24.3958V28.4965C22.3506 29.3266 23.0225 30 23.8506 30C24.6787 30 25.3506 29.3266 25.3506 28.4965Z" class="svg-primary-fill" clip-rule="evenodd"/>
  </g>
</svg>
