<svg xmlns="http://www.w3.org/2000/svg" width="48" height="48" viewBox="0 0 48 48">
  <g class="neo-icon-kit--hide">
    <path fill="#006FCF" fill-rule="evenodd" d="M7.17399 4.06068L13.4026 10.2888C16.8437 8.06628 20.2995 7.00002 23.9956 7.00002C31.4081 7.00002 38.0658 11.524 45.5165 21.0572C46.7716 22.6631 46.9999 23 46.996 24C46.9913 25 46.7716 25.337 45.5165 26.9429C42.9703 30.2008 40.5167 32.8736 38.094 34.9808L44.6507 41.5373C45.2364 42.1231 45.2364 43.0729 44.6507 43.6587C44.0649 44.2444 43.1151 44.2444 42.5293 43.6587L5.05267 6.182C4.46688 5.59621 4.46688 4.64646 5.05267 4.06068C5.63846 3.47489 6.5882 3.47489 7.17399 4.06068ZM8.68892 14.6718C8.9963 14.6718 9.39451 14.7641 9.74854 15.1183C9.91177 15.2816 10.1147 15.5963 10.1719 16.0023C10.2291 16.4083 10.0399 16.9005 9.87383 17.0657C8.19687 18.734 6.47614 20.7192 4.68042 23.0397C4.24411 23.6036 4.07658 23.826 3.96041 24.0037C4.07882 24.1835 4.25578 24.4169 4.67591 24.9545C11.6332 33.8563 17.5971 37.9091 23.9956 37.9091C25.9967 37.9091 27.9551 37.5129 29.9145 36.6961C30.0725 36.6302 30.4658 36.5097 30.8847 36.6029C31.3036 36.6961 31.7454 36.9746 31.9495 37.4561C32.1807 38.0014 32.0835 38.5695 31.8538 38.891C31.6241 39.2125 31.417 39.3872 31.1338 39.5086C28.7995 40.5087 26.4385 41 23.9956 41C16.5837 41 9.92449 36.4748 2.47479 26.9429C1.2283 25.348 0.998814 24.9799 0.999268 24.0015C1.00107 23.0276 1.21142 22.6898 2.47029 21.0629C4.22229 18.7989 5.92374 16.822 7.59949 15.1225C7.96294 14.7539 8.38153 14.6718 8.68892 14.6718ZM17.0452 23.1986C17.1387 22.3755 16.5473 21.6324 15.7242 21.5388C15.6758 21.5333 15.6277 21.5301 15.5799 21.5293C14.8159 21.5156 14.1524 22.085 14.0644 22.8597C14.0215 23.2366 13.9999 23.6171 13.9999 24C13.9999 29.5229 18.4771 34 23.9999 34C24.3824 34 24.7625 33.9785 25.139 33.9357C25.9622 33.8422 26.5537 33.0991 26.4602 32.276C26.3667 31.4529 25.6236 30.8614 24.8005 30.9549C24.5363 30.9849 24.2692 31 23.9999 31C20.1339 31 16.9999 27.866 16.9999 24C16.9999 23.7305 17.0151 23.4631 17.0452 23.1986ZM23.9956 10.0909C21.1175 10.0909 18.3738 10.861 15.6084 12.494L18.6578 15.545C20.2032 14.5665 22.0354 14 23.9999 14C29.5228 14 33.9999 18.4772 33.9999 24C33.9999 25.9641 33.4337 27.7959 32.4556 29.3412L35.9657 32.8531C38.3283 30.8509 40.7544 28.2313 43.3153 24.9545C43.7414 24.4094 43.9161 24.1792 44.0343 24C43.9161 23.8208 43.7414 23.5907 43.3153 23.0455C36.3571 14.1425 30.3947 10.0909 23.9956 10.0909ZM20.8565 17.7438C21.8017 17.268 22.8695 17 23.9999 17C27.8659 17 30.9999 20.134 30.9999 24C30.9999 25.13 30.7322 26.1975 30.2566 27.1424L20.8565 17.7438Z" class="svg-primary-fill" clip-rule="evenodd"/>
  </g>
</svg>
