<svg xmlns="http://www.w3.org/2000/svg" width="48" height="48" viewBox="0 0 48 48">
  <g class="neo-icon-kit--hide-filled">
    <path fill="#006FCF" fill-rule="evenodd" d="M7.17396 4.06068L13.4026 10.2888C16.8437 8.06628 20.2994 7.00002 23.9956 7.00002C31.408 7.00002 38.0658 11.524 45.5164 21.0572C46.7715 22.6631 46.9999 23 46.996 24C46.9913 25 46.7715 25.337 45.5164 26.9429C42.9702 30.2008 40.5167 32.8736 38.0939 34.9808L44.6506 41.5373C45.2364 42.1231 45.2364 43.0729 44.6506 43.6587C44.0648 44.2444 43.1151 44.2444 42.5293 43.6587L5.05264 6.182C4.46685 5.59621 4.46685 4.64646 5.05264 4.06068C5.63842 3.47489 6.58817 3.47489 7.17396 4.06068ZM8.6986 14.4231C9.10163 14.4231 9.26326 14.6009 9.47856 14.8376C9.53035 14.8946 9.58528 14.955 9.64739 15.0171L16.3741 21.7466C16.6291 22.0017 16.821 22.435 16.8954 22.66C16.9698 22.885 17.0319 23.2333 17.0112 23.5984C17.0037 23.7313 16.9999 23.8652 16.9999 24C16.9999 27.866 20.1339 31 23.9999 31C24.2359 31 24.4691 30.9883 24.6991 30.9655C24.9616 30.9395 25.2348 30.95 25.401 31C25.5673 31.0501 25.7538 31.1257 25.8916 31.2635L32.0146 37.3874C32.3876 37.7604 32.6427 38.0155 32.6427 38.3509C32.6427 38.6915 32.3786 38.9305 31.9949 39.116C29.3795 40.3802 26.7393 41 23.9956 41C16.5836 41 9.92445 36.4748 2.47475 26.9429C1.22826 25.348 0.998779 24.9799 0.999513 24.0015C1.00104 23.0276 1.21139 22.6898 2.47025 21.0629C4.26217 18.7473 6.00119 16.7321 7.71394 15.0068C7.76061 14.9598 7.80386 14.9143 7.84521 14.8707C8.09183 14.6111 8.27038 14.4231 8.6986 14.4231ZM20.8565 17.7438C21.8017 17.268 22.8695 17 23.9999 17C27.8659 17 30.9999 20.134 30.9999 24C30.9999 25.13 30.7321 26.1975 30.2566 27.1424L20.8565 17.7438Z" class="svg-primary-fill" clip-rule="evenodd"/>
  </g>
</svg>
