<svg xmlns="http://www.w3.org/2000/svg" width="48" height="48" viewBox="0 0 48 48">
  <g class="neo-icon-kit--high-yield-filled" clip-path="url(#a)">
    <path fill="#006FCF" d="M1.503 42.0004C1.10438 42.0004 0.722086 41.842 0.440219 41.5602C0.158351 41.2783 0 40.896 0 40.4974C0 40.0988 0.158351 39.7165 0.440219 39.4346C0.722086 39.1527 1.10438 38.9944 1.503 38.9944H3V33.0004C3 32.2047 3.31607 31.4417 3.87868 30.8791C4.44129 30.3165 5.20435 30.0004 6 30.0004H12C12.7956 30.0004 13.5587 30.3165 14.1213 30.8791C14.6839 31.4417 15 32.2047 15 33.0004V38.9944H18V27.0004C18 26.2047 18.3161 25.4417 18.8787 24.8791C19.4413 24.3165 20.2044 24.0004 21 24.0004H27C27.7956 24.0004 28.5587 24.3165 29.1213 24.8791C29.6839 25.4417 30 26.2047 30 27.0004V38.9944H32.941V20.9474L32.777 20.9344C32.0767 20.8574 31.4231 20.5458 30.9225 20.0501C30.4219 19.5544 30.1038 18.9039 30.02 18.2044L30.005 18.0234L30 17.8474C30.0002 17.3116 30.1398 16.785 30.405 16.3194L30.526 16.1244L36.396 7.3854C36.8599 6.69854 37.5762 6.22263 38.3891 6.0612C39.2021 5.89977 40.0459 6.06588 40.737 6.5234C41.0115 6.70489 41.2555 6.92866 41.46 7.1864L41.605 7.3854L47.475 16.1244C47.7029 16.4636 47.8613 16.8446 47.941 17.2454C48.0208 17.6462 48.0203 18.0588 47.9395 18.4594C47.8588 18.86 47.6995 19.2407 47.4708 19.5793C47.2421 19.918 46.9485 20.2079 46.607 20.4324C46.1577 20.7297 45.6394 20.9063 45.102 20.9454L45.06 20.9464V38.9944H46.499C46.6964 38.9945 46.8918 39.0335 47.0741 39.1092C47.2564 39.1848 47.422 39.2957 47.5615 39.4353C47.701 39.575 47.8116 39.7407 47.887 39.9231C47.9624 40.1056 48.0011 40.301 48.001 40.4984C48.0009 40.6958 47.9619 40.8912 47.8862 41.0735C47.8106 41.2558 47.6997 41.4214 47.5601 41.5609C47.4204 41.7004 47.2547 41.811 47.0723 41.8864C46.8898 41.9618 46.6944 42.0005 46.497 42.0004H1.503Z" class="svg-primary-fill"/>
  </g>
  <defs>
    <clipPath id="a" class="a">
      <path fill="#fff" d="M0 0H48V48H0z"/>
    </clipPath>
  </defs>
</svg>
