<svg xmlns="http://www.w3.org/2000/svg" width="48" height="48" viewBox="0 0 48 48">
  <g class="neo-icon-kit--history-filled">
    <g fill="#006FCF" class="svg-primary-fill">
      <path d="M22.7454 11.8447C23.5221 11.8447 24.1715 12.4351 24.2454 13.2083V24.561L31.6486 31.9751C32.1431 32.5741 32.1014 33.4508 31.5522 34.0001C31.0029 34.5493 30.1262 34.591 29.5272 34.0965L21.6181 26.1757C21.4614 26.0101 21.3534 25.8044 21.306 25.5814C21.2663 25.4914 21.2456 25.3941 21.2454 25.2957V13.2083C21.3192 12.4351 21.9686 11.8447 22.7454 11.8447Z"/>
      <path d="M24 1C17.8475 1 11.974 3.53642 7.75753 7.99961L7.46606 8.31412L7 8.828V8C7 6.94564 6.18412 6.08183 5.14926 6.00549L5 6C3.94564 6 3.08183 6.81588 3.00549 7.85074L3 8V14L3.00549 14.1493L3.01814 14.2705L3.0441 14.4195L3.08553 14.5803L3.11465 14.6686L3.1729 14.8147L3.24985 14.9687C3.29659 15.053 3.34923 15.1335 3.40723 15.2098L3.48448 15.3052L3.59501 15.4234L3.66243 15.4869L3.78828 15.5913L3.94026 15.6966L4.08427 15.7786L4.23714 15.8494L4.39209 15.9059L4.5413 15.9471L4.69775 15.9772L4.84717 15.9942L5 16H11C12.1046 16 13 15.1046 13 14C13 12.9456 12.1841 12.0818 11.1493 12.0055L11 12H9.521L10.4258 11.0048C13.8086 7.28371 18.566 5.11906 23.5815 5.00477L24 5C34.4934 5 43 13.5066 43 24C43 34.4934 34.4934 43 24 43C13.6194 43 5.18317 34.6754 5.00294 24.3378L5 24V23C5 21.8954 4.10457 21 3 21C1.94564 21 1.08183 21.8159 1.00549 22.8507L1 23V24C1 36.7025 11.2975 47 24 47C36.7025 47 47 36.7025 47 24C47 11.2975 36.7025 1 24 1Z"/>
    </g>
  </g>
</svg>
