<svg xmlns="http://www.w3.org/2000/svg" width="48" height="48" viewBox="0 0 48 48">
  <g class="neo-icon-kit--history">
    <g fill="#006FCF" class="svg-primary-fill">
      <path d="M22.7454 11.8447C23.5221 11.8447 24.1715 12.4351 24.2454 13.2083V24.561L31.6486 31.9751C32.1431 32.5741 32.1014 33.4508 31.5522 34.0001C31.0029 34.5493 30.1262 34.591 29.5272 34.0965L21.6181 26.1757C21.4614 26.0101 21.3534 25.8044 21.306 25.5814C21.2663 25.4914 21.2456 25.3941 21.2454 25.2957V13.2083C21.3192 12.4351 21.9686 11.8447 22.7454 11.8447Z"/>
      <path d="M24 1.5C17.9884 1.5 12.2493 3.97698 8.12767 8.33591L7.83603 8.65045L6.5 10.12V8C6.5 7.2203 5.90511 6.57955 5.14446 6.50687L5 6.5C4.2203 6.5 3.57955 7.09489 3.50687 7.85554L3.5 8L3.50168 14.071L3.5159 14.2183L3.53388 14.3185L3.58984 14.5122L3.64639 14.6472L3.71782 14.7792L3.81601 14.9211L3.89856 15.0184L3.9883 15.1075L4.04259 15.1548L4.15477 15.2394L4.27668 15.3145L4.40396 15.3769L4.52517 15.4233L4.67265 15.4641L4.78211 15.4843L4.92741 15.4983L5 15.5H11C11.8284 15.5 12.5 14.8284 12.5 14C12.5 13.2203 11.9051 12.5796 11.1445 12.5069L11 12.5H8.391L10.0559 10.6685C13.5334 6.84316 18.4251 4.61905 23.5814 4.50464L24 4.5C34.7696 4.5 43.5 13.2304 43.5 24C43.5 34.7696 34.7696 43.5 24 43.5C13.345 43.5 4.68599 34.9543 4.50296 24.343L4.5 24V23C4.5 22.1716 3.82843 21.5 3 21.5C2.2203 21.5 1.57955 22.0949 1.50687 22.8555L1.5 23V24C1.5 36.4264 11.5736 46.5 24 46.5C36.4264 46.5 46.5 36.4264 46.5 24C46.5 11.5736 36.4264 1.5 24 1.5Z"/>
    </g>
  </g>
</svg>
