<svg xmlns="http://www.w3.org/2000/svg" width="48" height="48" viewBox="0 0 48 48">
  <g class="neo-icon-kit--home">
    <path fill="#006FCF" fill-rule="evenodd" d="M22.2662 3.69003L3.64213 22.9571L3.52642 23.0938C2.9755 23.7958 2.84083 24.7723 3.19926 25.5838C3.62748 26.5443 4.66264 27 5.49906 27L9.99906 26.9739V42.4896L10.0047 42.6467C10.0946 43.8973 11.2428 45 12.4991 45H19.4991L19.6436 44.9931C20.4043 44.9204 20.9991 44.2791 20.9991 43.4985L20.9882 43.3906H21.0014L20.999 36H26.9991V43.3906H27.0099L26.9991 43.4985C26.9991 44.3279 27.6705 45 28.4991 45H35.4991L35.6555 44.9944C36.9011 44.9049 37.9991 43.7613 37.9991 42.5V27L42.4991 26.9739L42.658 26.9688C43.4625 26.9181 44.3976 26.4839 44.8013 25.5789C45.1822 24.7162 45.0025 23.6619 44.3272 22.9268L25.7608 3.71985L25.6402 3.59902C24.7213 2.75437 23.0611 2.8195 22.2662 3.69003ZM6.83647 23.9709L23.9991 6.21505L41.1626 23.9709H36.4991L36.3546 23.9777C35.5938 24.0505 34.9991 24.6917 34.9991 25.4724V41.997H29.9991V35.983L29.994 35.8068C29.9025 34.2326 28.5943 32.98 26.9991 32.98H20.9991L20.823 32.9851C19.2504 33.0766 17.9991 34.3862 17.9991 35.983V41.997H12.9991V25.4724L12.9922 25.3277C12.9195 24.5662 12.2789 23.9709 11.4991 23.9709H6.83647Z" class="svg-primary-fill" clip-rule="evenodd"/>
  </g>
</svg>
