<svg xmlns="http://www.w3.org/2000/svg" width="48" height="48" viewBox="0 0 48 48">
  <g class="neo-icon-kit--home-filled">
    <path fill="#006FCF" d="M44.3482 22.9292L25.7711 3.72167C24.8798 2.74837 23.0923 2.78062 22.2598 3.69138L3.62385 22.9595C2.9858 23.6558 2.82089 24.6628 3.20471 25.531C3.58852 26.392 4.44743 27 5.39273 27H10V42.6166C10 43.9309 11.0017 45 12.322 45H19.5C20.3324 45 20.9847 44.3277 20.9847 43.499H20.9871L20.9887 35.9784H27.0158V43.499C27.0158 44.3277 27.6911 45 28.5235 45H35.6785C36.9988 45 38 43.9309 38 42.6166V27H42.6078C43.5531 27 44.412 26.392 44.7987 25.5252C45.1796 24.6628 45.0147 23.6558 44.3482 22.9292Z" class="svg-primary-fill"/>
  </g>
</svg>
