<svg xmlns="http://www.w3.org/2000/svg" width="16" height="16" viewBox="0 0 16 16">
  <g class="neo-icon-kit--hotel-restaurant">
    <g fill="#444B61" class="svg-primary-fill">
      <path d="M10.8199 6.9L9.63994 8.08L8.93994 7.37L10.1099 6.19C9.71632 5.62618 9.53279 4.94222 9.59125 4.25709C9.64972 3.57195 9.94649 2.92898 10.4299 2.44L11.8699 1L12.5699 1.71L11.1399 3.15C10.8437 3.44893 10.6538 3.83693 10.5996 4.25431C10.5454 4.67168 10.6298 5.09531 10.8399 5.46L13.5999 2.7L14.3099 3.4L11.5499 6.17C11.9181 6.36753 12.3388 6.44481 12.7531 6.39101C13.1674 6.3372 13.5545 6.15501 13.8599 5.87L15.2899 4.43L15.9999 5.14L14.5599 6.58C14.0767 7.06984 13.4345 7.37119 12.749 7.42984C12.0634 7.4885 11.3794 7.30063 10.8199 6.9Z"/>
      <path fill-rule="evenodd" d="M2.07002 1.91999L1.56002 1.41999H1.54002C1.49777 1.36936 1.44242 1.33131 1.38002 1.30999C1.31748 1.29582 1.25256 1.29582 1.19002 1.30999C1.12756 1.29511 1.06248 1.29511 1.00002 1.30999C0.942907 1.33581 0.891816 1.37327 0.850022 1.41999C0.306491 1.97187 0.00183105 2.71539 0.00183105 3.48999C0.00183105 4.26458 0.306491 5.0081 0.850022 5.55999L5.80002 10.51L1.00002 15.28L1.74002 16L6.51002 11.22L7.21002 11.93C7.3066 12.0239 7.43532 12.0776 7.57002 12.08C7.70168 12.077 7.8271 12.0233 7.92002 11.93L9.28002 10.57L14.7 16L15.41 15.29L2.07002 1.91999ZM7.56002 10.85L1.56002 4.84999C1.25287 4.5542 1.0554 4.16279 1.00002 3.73999C0.944375 3.31873 1.03624 2.8912 1.26002 2.52999L8.56002 9.84999L7.56002 10.85Z" clip-rule="evenodd"/>
    </g>
  </g>
</svg>
