<svg xmlns="http://www.w3.org/2000/svg" width="16" height="16" viewBox="0 0 16 16">
  <g class="neo-icon-kit--hotel-pool">
    <g fill="#444B61" class="svg-primary-fill">
      <path fill-rule="evenodd" d="M6.96402 6.581H9.01402V7.493H10.014V2.21C10.014 1.543 10.557 1 11.224 1H11.724V0H11.224C10.005 0 9.01402 0.991 9.01402 2.21V2.581H6.96402V2.21C6.96402 1.543 7.50702 1 8.17402 1H8.67402V0H8.17402C6.95502 0 5.96402 0.991 5.96402 2.21V7.493H6.96402V6.581ZM6.96402 5.58099H9.01402V3.58099H6.96402V5.58099Z" clip-rule="evenodd"/>
      <path d="M11.025 5.09198H13.79C15.009 5.09198 16 6.08198 16 7.30198V13.79C16 15.009 15.009 16 13.79 16H2.21C0.991 16 0 15.009 0 13.79V7.30198C0 6.08198 0.991 5.09198 2.21 5.09198H4.975V6.09198H2.21C1.543 6.09198 1 6.63498 1 7.30198V13.79C1 14.457 1.543 15 2.21 15H13.79C14.457 15 15 14.457 15 13.79V7.30198C15 6.63498 14.457 6.09198 13.79 6.09198H11.025V5.09198Z"/>
    </g>
    <g fill="#444B61" class="svg-secondary-fill">
      <path d="M5.08539 9.88574C4.78529 9.65793 4.568 9.49298 4.08798 9.49298 3.60719 9.49298 3.38898 9.65845 3.08913 9.88583L3.08498 9.88898C2.81498 10.097 2.48698 10.341 1.97498 10.441V9.40298C2.15698 9.33298 2.30598 9.22598 2.47798 9.09598 2.82798 8.82698 3.26598 8.49298 4.08798 8.49298 4.90998 8.49298 5.34698 8.82698 5.69798 9.09598L5.69901 9.09677C5.99947 9.32636 6.21753 9.49298 6.69998 9.49298 7.18345 9.49298 7.39951 9.32734 7.69901 9.09772L7.69998 9.09698C8.05188 8.82706 8.48741 8.49298 9.30998 8.49298 10.131 8.49298 10.567 8.82798 10.917 9.09698 11.217 9.32698 11.436 9.49298 11.917 9.49298 12.4 9.49298 12.617 9.32698 12.917 9.09698 13.184 8.89098 13.503 8.65098 14 8.54698V9.59098C13.831 9.66198 13.689 9.76398 13.526 9.88898L13.5245 9.89008C13.1738 10.1589 12.7379 10.493 11.917 10.493 11.096 10.493 10.66 10.159 10.31 9.88898 10.0092 9.65916 9.79173 9.49298 9.30998 9.49298 8.82698 9.49298 8.60898 9.65898 8.30998 9.88898 7.95898 10.159 7.52298 10.493 6.70098 10.493 5.87798 10.493 5.44098 10.16 5.09098 9.88998L5.08539 9.88574zM10.918 12.1C11.218 12.33 11.436 12.496 11.917 12.496 12.399 12.496 12.617 12.33 12.917 12.1 13.184 11.894 13.502 11.654 14 11.55V12.594C13.831 12.665 13.688 12.767 13.525 12.892 13.175 13.161 12.739 13.496 11.917 13.496 11.096 13.496 10.66 13.162 10.31 12.892 10.0092 12.6622 9.79173 12.496 9.30998 12.496 8.82698 12.496 8.60898 12.662 8.30998 12.892 7.95898 13.162 7.52198 13.496 6.70098 13.496 5.87798 13.496 5.44098 13.163 5.09098 12.893L5.08859 12.8912C4.78783 12.6621 4.5697 12.496 4.08798 12.496 3.60717 12.496 3.38986 12.6608 3.09095 12.8874L3.08498 12.892C2.81398 13.1 2.48698 13.344 1.97498 13.444V12.406C2.15698 12.336 2.30598 12.229 2.47798 12.099 2.82798 11.83 3.26598 11.496 4.08798 11.496 4.90998 11.496 5.34698 11.83 5.69798 12.099L5.699 12.0998C5.99947 12.3294 6.21753 12.496 6.70098 12.496 7.18274 12.496 7.39887 12.3308 7.69866 12.1017L7.70098 12.1C8.05198 11.83 8.48698 11.496 9.30998 11.496 10.1299 11.496 10.5658 11.8301 10.9165 12.0989L10.918 12.1z"/>
    </g>
  </g>
</svg>
