<svg xmlns="http://www.w3.org/2000/svg" width="48" height="48" viewBox="0 0 48 48">
  <g class="neo-icon-kit--hotel-default">
    <path fill="#00175A" fill-rule="evenodd" d="M2.99314 10.3556C2.92047 9.59516 2.27987 9 1.5 9C0.671387 9 0 9.67188 0 10.5V37.5L0.00686476 37.6444C0.0795307 38.4048 0.720129 39 1.5 39C2.32861 39 3 38.3281 3 37.5V35.9996H45V37.5L45.0069 37.6444C45.0795 38.4048 45.7201 39 46.5 39C47.3286 39 48 38.3281 48 37.5V19.5L47.9931 19.3556C47.9205 18.5952 47.2799 18 46.5 18C45.6714 18 45 18.6719 45 19.5V20.9996H40.7237L40.8025 20.7615C40.9248 20.3608 41 19.9403 41 19.5C41 17.0187 38.9813 15 36.5 15H15.5L15.2199 15.0091C14.4796 15.0574 13.7928 15.2948 13.1906 15.6583C12.9635 15.2849 12.7062 14.9281 12.3892 14.6113C11.3501 13.5723 9.96924 13 8.5 13C7.03076 13 5.6499 13.5723 4.61084 14.6113L4.42152 14.8099C3.5638 15.7549 3.06886 16.9501 3.00668 18.2255L3 18.488V10.5L2.99314 10.3556ZM3 23.9996H45V32.9996H3V23.9996ZM36.5 18H15.5C14.675 18 14 18.675 14 19.5C14 20.2751 14.596 20.9175 15.3522 20.9923L15.4958 20.9996H36.5042C37.3271 20.9973 38 20.3235 38 19.5C38 18.7235 37.4021 18.0799 36.6439 18.0069L36.5 18ZM6.73193 16.7359C7.20459 16.261 7.83252 16 8.5 16C9.16748 16 9.79541 16.261 10.2681 16.7359C10.7402 17.2108 11 17.8407 11 18.5118C11 19.1829 10.7402 19.8128 10.2681 20.2877C9.32275 21.2374 7.67725 21.2374 6.73193 20.2877C6.25977 19.8128 6 19.1829 6 18.5118C6 17.8407 6.25977 17.2108 6.73193 16.7359Z" class="svg-primary-fill" clip-rule="evenodd"/>
  </g>
</svg>
