<svg xmlns="http://www.w3.org/2000/svg" width="48" height="48" viewBox="0 0 48 48">
  <g class="neo-icon-kit--hotel-not-available-filled">
    <path fill="#006FCF" fill-rule="evenodd" d="M48 26.5C48 25.041 47.421 23.642 46.389 22.611 45.978 22.2 45.508 21.86 45 21.601V10.5C45 8.014 42.985 6 40.5 6H7.5L5.674 4.06C5.088 3.475 4.138 3.475 3.552 4.06 2.967 4.646 2.967 5.596 3.552 6.182L4.509 7.138 15.37 18 18.37 21 36.37 39 41.029 43.658C41.615 44.244 42.565 44.244 43.15 43.658 43.736 43.073 43.736 42.123 43.15 41.537L40.613 39H45V43.5C45 43.898 45.158 44.279 45.439 44.56 45.721 44.842 46.102 45 46.5 45 46.898 45 47.279 44.842 47.561 44.56 47.842 44.279 48 43.898 48 43.5V26.5ZM25.5 19.5V21H36V19.5C36 18.671 35.328 18 34.5 18H27C26.172 18 25.5 18.671 25.5 19.5ZM22.5 19.5C22.5 18.671 21.828 18 21 18H19.613L22.5 20.887V19.5ZM1.611 22.611C.579 23.642 0 25.041 0 26.5V43.5C0 43.898.158 44.279.439 44.56.721 44.842 1.102 45 1.5 45 1.898 45 2.279 44.842 2.561 44.56 2.842 44.279 3 43.898 3 43.5V39H32.128L14.128 21H12V19.5C12 19.313 12.034 19.134 12.097 18.969L3.038 9.91C3.013 10.103 3 10.3 3 10.5V21.601C2.492 21.86 2.022 22.2 1.611 22.611Z" class="svg-primary-fill" clip-rule="evenodd"/>
  </g>
</svg>
