<svg xmlns="http://www.w3.org/2000/svg" width="16" height="16" viewBox="0 0 16 16">
  <g class="neo-icon-kit--hotel-wifi">
    <path fill="#444B61" fill-rule="evenodd" d="M16 4.79469C11.365 1.06844 4.63497 1.06844 0 4.79469L0.637459 5.53378C4.90321 2.10474 11.0968 2.10474 15.3625 5.53378L16 4.79469ZM3.88193 8.52176L3.47531 8.79982L4.05242 9.58388L4.45903 9.30481C6.55738 7.86879 9.36637 7.86879 11.4647 9.30481L11.8713 9.58388L12.4484 8.79982L12.0429 8.52176C9.59853 6.84887 6.32628 6.84887 3.88193 8.52176ZM8 11.5282C7.29296 11.5282 6.71979 12.0815 6.71979 12.7641C6.71979 13.4467 7.29296 14 8 14C8.70704 14 9.28021 13.4467 9.28021 12.7641C9.28021 12.0815 8.70704 11.5282 8 11.5282Z" class="svg-primary-fill" clip-rule="evenodd"/>
  </g>
</svg>
