<svg xmlns="http://www.w3.org/2000/svg" width="48" height="48" viewBox="0 0 48 48">
  <g class="neo-icon-kit--hotel-white">
    <path fill="#fff" fill-rule="evenodd" d="M0 24C0 10.7452 10.7452 0 24 0C37.2548 0 48 10.7452 48 24C48 37.2548 37.2548 48 24 48C10.7452 48 0 37.2548 0 24ZM24 2.82353C12.3046 2.82353 2.82353 12.3046 2.82353 24C2.82353 35.6954 12.3046 45.1765 24 45.1765C35.6954 45.1765 45.1765 35.6954 45.1765 24C45.1765 12.3046 35.6954 2.82353 24 2.82353Z" class="svg-secondary-fill" clip-rule="evenodd"/>
    <g fill="#fff" class="svg-primary-fill">
      <path d="M34.203 23.1511V18.9269L36 18.9254V32H34.2003V30.0487H13.7997V32H12V16H13.7997V25.0994H15.3154V23.1511H20.1493V19.4829H21.9436V25.0994H23.7487V23.1511H34.203Z"/>
      <path d="M18.2691 20.0463C18.2691 21.2458 17.4429 22.2199 16.4243 22.2199C15.407 22.2199 14.5781 21.2473 14.5781 20.0463C14.5781 18.8497 15.407 17.8741 16.4256 17.8741C17.4429 17.8741 18.2691 18.8497 18.2691 20.0463Z"/>
    </g>
  </g>
</svg>
