<svg xmlns="http://www.w3.org/2000/svg" width="16" height="16" viewBox="0 0 16 16">
  <g class="neo-icon-kit--hotel-ac">
    <path fill="#444B61" fill-rule="evenodd" d="M7.52361 1L7.52641 2.5506L6.26508 1.37365L5.60402 1.99319L7.52735 3.78792L7.53202 7.24264L4.33333 5.51966L3.62646 3.06513L2.7223 3.29264L3.18607 4.90187L1.75175 4.12832L1.28518 4.88612L2.72137 5.65967L1 6.09369L1.24404 6.93812L3.86676 6.27658L7.06545 8.00131L3.8705 9.73217L1.24684 9.07675L1.00561 9.92293L2.72604 10.3526L1.29173 11.1288L1.7611 11.8857L3.19448 11.1086L2.73539 12.7196L3.63955 12.9454L4.33801 10.4891L7.53389 8.75824L7.53857 12.213L5.61992 14.0129L6.28284 14.6307L7.54044 13.4503L7.54231 15L8.47639 14.9991L8.47452 13.4494L9.73399 14.6272L10.396 14.0077L8.47265 12.2112L8.46798 8.75649L11.6676 10.4795L12.3735 12.9349L13.2768 12.7074L12.813 11.0981L14.2501 11.8717L14.7148 11.113L13.2805 10.3395L15 9.90631L14.7569 9.061L12.1342 9.72167L8.93548 7.99781L12.1304 6.26783L14.7541 6.92237L14.9953 6.07619L13.2749 5.64742L14.7073 4.87037L14.2398 4.11432L12.8055 4.89049L13.2646 3.27952L12.3614 3.05463L11.662 5.51003L8.46611 7.24089L8.46143 3.78617L10.3801 1.98794L9.71809 1.3684L8.4605 2.54885L8.45863 1L7.52361 1Z" class="svg-primary-fill" clip-rule="evenodd"/>
  </g>
</svg>
