<svg xmlns="http://www.w3.org/2000/svg" width="16" height="16" viewBox="0 0 16 16">
  <g class="neo-icon-kit--hotel-parking">
    <path fill="#444B61" fill-rule="evenodd" d="M2.212 0H13.788C15.0095 0.00220442 15.9989 0.992478 16 2.214V13.79C15.9972 15.0102 15.0082 15.9984 13.788 16H2.212C0.993 16 0 15.009 0 13.79V2.213C0.00165117 0.991869 0.990869 0.00220309 2.212 0ZM13.788 15.001C14.456 15.001 15 14.457 15 13.789V2.213C15 1.544 14.456 1 13.788 1H2.212C1.544 1 1 1.543 1 2.214V13.789C1.0011 14.4579 1.54309 14.9999 2.212 15.001H13.788Z" class="svg-secondary-fill" clip-rule="evenodd"/>
    <path fill="#444B61" fill-rule="evenodd" d="M5.13501 3.42499H9.49101V3.42599C10.9484 3.42764 12.1294 4.60864 12.131 6.06599C12.1288 7.5235 10.9475 8.70434 9.49001 8.70599H6.13501V12.987H5.13501V3.42499ZM6.13501 7.70499H9.49001C10.394 7.70499 11.131 6.96999 11.131 6.06499C11.131 5.16199 10.395 4.42499 9.49001 4.42499H6.13501V7.70499Z" class="svg-primary-fill" clip-rule="evenodd"/>
  </g>
</svg>
