<svg xmlns="http://www.w3.org/2000/svg" width="16" height="16" viewBox="0 0 16 16">
  <g class="neo-icon-kit--hotel-no-smoking">
    <path fill="#444B61" d="M14.117 4.65804C14.117 5.02204 13.995 5.20104 13.822 5.41404L14.552 6.00704C14.815 5.68404 15.058 5.29604 15.058 4.65704C15.058 3.91904 14.738 3.53104 14.479 3.22004C14.261 2.95404 14.117 2.78004 14.117 2.38004C14.117 1.98004 14.261 1.80504 14.48 1.54004L13.754 0.94104C13.496 1.25304 13.176 1.64204 13.176 2.38204C13.176 3.12004 13.496 3.50804 13.755 3.81904C13.973 4.08504 14.117 4.25904 14.117 4.65904" class="svg-secondary-fill"/>
    <g fill="#444B61" class="svg-primary-fill">
      <path fill-rule="evenodd" d="M0.189 1.87496L4.902 6.58796H0V10.353H8.668L14.044 15.731H14.046L14.711 15.067L0.854 1.20996L0.189 1.87496ZM0.940002 7.52893H5.842L7.725 9.41193H0.940002V7.52893Z" clip-rule="evenodd"/>
      <path d="M9.81299 7.52901V6.58801L15.059 6.58901V10.353H12.637V9.41301H14.118V7.52901H9.81299Z"/>
    </g>
  </g>
</svg>
