<svg xmlns="http://www.w3.org/2000/svg" width="48" height="48" viewBox="0 0 48 48">
  <g class="neo-icon-kit--hotel-not-available">
    <g fill="#006FCF" class="svg-primary-fill">
      <path fill-rule="evenodd" d="M41.0274 43.6584C41.6132 44.2442 42.5629 44.2442 43.1487 43.6584C43.7345 43.0726 43.7345 42.1229 43.1487 41.5371L40.6116 39H45V43.5C45 43.8978 45.158 44.2794 45.4393 44.5607C45.7206 44.842 46.1022 45 46.5 45C46.8978 45 47.2794 44.842 47.5607 44.5607C47.842 44.2794 48 43.8978 48 43.5V26.5C48 25.0413 47.4205 23.6424 46.3891 22.6109C45.978 22.1998 45.5084 21.8605 45 21.601V10.5C45 8.01472 42.9853 6 40.5 6H7.61161L5.67204 4.06043C5.08625 3.47465 4.13651 3.47465 3.55072 4.06043C2.96493 4.64622 2.96493 5.59597 3.55072 6.18175L41.0274 43.6584ZM21 15H16.6116L10.6116 9H40.5C41.3284 9 42 9.67157 42 10.5V21H39V19.5C39 17.0147 36.9853 15 34.5 15H27C25.8475 15 24.7961 15.4333 24 16.1458C23.2039 15.4333 22.1525 15 21 15ZM25.5 19.5V21H36V19.5C36 18.6716 35.3284 18 34.5 18H27C26.1716 18 25.5 18.6716 25.5 19.5ZM22.5 19.5V20.8884L19.6116 18H21C21.8284 18 22.5 18.6716 22.5 19.5ZM45 26.5C45 25.12 43.88 24 42.5 24H25.6116L37.6116 36H45V26.5Z" clip-rule="evenodd"/>
      <path d="M3 26.5C3 25.12 4.12 24 5.5 24H17.1263L14.1263 21H12V19.5V19.5C12 18.6716 11.3284 18 10.5 18V18C9.67157 18 9 18.6716 9 19.5V19.5V21H6V13.5C6 12.6716 5.32843 12 4.5 12V12C3.67157 12 3 12.6716 3 13.5V21.601C2.49158 21.8605 2.02205 22.1998 1.61091 22.6109C0.579463 23.6424 0 25.0413 0 26.5V43.5C0 43.8978 0.158035 44.2794 0.43934 44.5607C0.720644 44.842 1.10218 45 1.5 45C1.89782 45 2.27936 44.842 2.56066 44.5607C2.84196 44.2794 3 43.8978 3 43.5V39H28.5C29.3284 39 30 38.3284 30 37.5V37.5C30 36.6716 29.3284 36 28.5 36H3V26.5Z"/>
    </g>
  </g>
</svg>
