<svg xmlns="http://www.w3.org/2000/svg" width="16" height="16" viewBox="0 0 16 16">
  <g class="neo-icon-kit--hotel-bell">
    <path fill="#444B61" fill-rule="evenodd" d="M7.99997 4.298C4.30226 4.29856 1.30497 7.2963 1.30497 10.994V11.964H0.469971V15.303H15.53V11.965H14.695V10.995C14.6952 9.21911 13.99 7.51586 12.7345 6.25992C11.4789 5.00399 9.77586 4.29827 7.99997 4.298ZM1.30497 14.47V12.8H14.695V14.47H1.30497ZM13.754 10.994C13.7507 7.81737 11.1766 5.24286 7.99997 5.239C4.82395 5.24341 2.25038 7.81798 2.24597 10.994V11.858H13.754V10.994Z" class="svg-primary-fill" clip-rule="evenodd"/>
    <path fill="#444B61" d="M7.00042 2.02876C6.98994 1.66478 7.17814 1.32388 7.49172 1.13881C7.8053 0.953731 8.1947 0.953731 8.50828 1.13881C8.82186 1.32388 9.01006 1.66478 8.99958 2.02876C8.98402 2.56962 8.54109 3 8 3C7.45891 3 7.01598 2.56962 7.00042 2.02876Z" class="svg-secondary-fill"/>
  </g>
</svg>
