<svg xmlns="http://www.w3.org/2000/svg" width="48" height="48" viewBox="0 0 48 48">
  <g class="neo-icon-kit--hotel-filled">
    <path fill="#006FCF" fill-rule="evenodd" d="M0 26.5C0 25.0413 0.579463 23.6424 1.61091 22.6109C2.02205 22.1998 2.49158 21.8605 3 21.601V10.5C3 8.01472 5.01472 6 7.5 6H40.5C42.9853 6 45 8.01472 45 10.5V21.601C45.5084 21.8605 45.978 22.1998 46.3891 22.6109C47.4205 23.6424 48 25.0413 48 26.5V43.5C48 43.8978 47.842 44.2794 47.5607 44.5607C47.2794 44.842 46.8978 45 46.5 45C46.1022 45 45.7206 44.842 45.4393 44.5607C45.158 44.2794 45 43.8978 45 43.5V39H3V43.5C3 43.8978 2.84196 44.2794 2.56066 44.5607C2.27936 44.842 1.89782 45 1.5 45C1.10218 45 0.720644 44.842 0.43934 44.5607C0.158035 44.2794 0 43.8978 0 43.5V37.5V26.5ZM13.5 18C12.6716 18 12 18.6716 12 19.5V21H22.5V19.5C22.5 18.6716 21.8284 18 21 18H13.5ZM25.5 21V19.5C25.5 18.6716 26.1716 18 27 18H34.5C35.3284 18 36 18.6716 36 19.5V21H25.5Z" class="svg-primary-fill" clip-rule="evenodd"/>
  </g>
</svg>
