<svg xmlns="http://www.w3.org/2000/svg" width="48" height="48" viewBox="0 0 48 48">
  <g class="neo-icon-kit--image">
    <path fill="#006FCF" fill-rule="evenodd" d="M0 9C0 7.34 1.34 6 3 6H45C46.66 6 48 7.34 48 9V39C48 40.66 46.66 42 45 42H3C1.34 42 0 40.66 0 39V9ZM3 9H45V34.88L32.68 22.56C32.2629 22.1415 31.7673 21.8095 31.2216 21.583C30.6759 21.3564 30.0908 21.2398 29.5 21.2398C28.9092 21.2398 28.3241 21.3564 27.7784 21.583C27.2327 21.8095 26.7371 22.1415 26.32 22.56L19.06 29.82C18.48 30.4 17.52 30.4 16.94 29.82L15.18 28.06C14.7629 27.6415 14.2673 27.3095 13.7216 27.083C13.1759 26.8564 12.5908 26.7398 12 26.7398C11.4092 26.7398 10.8241 26.8564 10.2784 27.083C9.73273 27.3095 9.23712 27.6415 8.82 28.06L3 33.88V9ZM3 38.12V39H44.88L30.56 24.68C29.98 24.1 29.02 24.1 28.44 24.68L21.18 31.94C20.7629 32.3585 20.2673 32.6905 19.7216 32.917C19.1759 33.1436 18.5908 33.2602 18 33.2602C17.4092 33.2602 16.8241 33.1436 16.2784 32.917C15.7327 32.6905 15.2371 32.3585 14.82 31.94L13.06 30.18C12.48 29.6 11.52 29.6 10.94 30.18L3 38.12Z" class="svg-primary-fill" clip-rule="evenodd"/>
  </g>
</svg>
