<svg xmlns="http://www.w3.org/2000/svg" width="48" height="48" viewBox="0 0 48 48">
  <g class="neo-icon-kit--image-broken">
    <path fill="#006FCF" d="M45 6.48H8.1L6.06 4.44C5.48 3.86 4.52 3.86 3.94 4.44C3.38 5 3.36 5.9 3.9 6.48L40.9 43.5C40.9 43.5 40.9 43.52 40.92 43.54L41.94 44.56C42.52 45.14 43.48 45.14 44.06 44.56C44.64 43.98 44.64 43.08 44.1 42.48H45C46.66 42.48 48 41.14 48 39.48V9.48C48 7.82 46.66 6.48 45 6.48ZM41.1 39.48L27.6 25.98L28.42 25.16C29 24.58 29.96 24.58 30.54 25.16L44.86 39.48H41.08H41.1ZM45 35.36L32.68 23.04C32.2629 22.6215 31.7673 22.2895 31.2216 22.063C30.6759 21.8364 30.0908 21.7198 29.5 21.7198C28.9092 21.7198 28.3241 21.8364 27.7784 22.063C27.2327 22.2895 26.7371 22.6215 26.32 23.04L25.5 23.86L11.1 9.48H45V35.36ZM34.04 40.86C33.98 40.14 33.34 39.54 32.62 39.48H3V38.6L10.94 30.66C11.52 30.08 12.48 30.08 13.06 30.66L14.82 32.42C15.2371 32.8385 15.7327 33.1705 16.2784 33.397C16.8241 33.6236 17.4092 33.7402 18 33.7402C18.5908 33.7402 19.1759 33.6236 19.7216 33.397C20.2673 33.1705 20.7629 32.8385 21.18 32.42L23.38 30.22L21.26 28.1L19.06 30.3C18.48 30.88 17.52 30.88 16.94 30.3L15.18 28.54C14.7629 28.1215 14.2673 27.7895 13.7216 27.563C13.1759 27.3364 12.5908 27.2198 12 27.2198C11.4092 27.2198 10.8241 27.3364 10.2784 27.563C9.73273 27.7895 9.23712 28.1215 8.82 28.54L3 34.36V10.48C3 10.06 2.84 9.7 2.56 9.42C2.28 9.14 1.92 8.98 1.5 8.98C0.68 8.98 0 9.64 0 10.48V39.5C0 41.16 1.34 42.5 3 42.5H9.6C9.6 42.5 9.72 42.54 9.78 42.54L32.54 42.5C33.36 42.5 34.04 41.82 34.04 41V40.86Z" class="svg-primary-fill"/>
  </g>
</svg>
