<svg xmlns="http://www.w3.org/2000/svg" width="48" height="48" viewBox="0 0 48 48">
  <g class="neo-icon-kit--image-broken-filled">
    <path fill="#006FCF" d="M45 6.48H8.1L6.06 4.44C5.48 3.86 4.52 3.86 3.94 4.44C3.38 5 3.36 5.9 3.9 6.48L40.9 43.5C40.9 43.5 40.9 43.52 40.92 43.54L41.94 44.56C42.52 45.14 43.48 45.14 44.06 44.56C44.64 43.98 44.64 43.08 44.1 42.48H45C46.66 42.48 48 41.14 48 39.48V9.48C48 7.82 46.66 6.48 45 6.48ZM41.1 39.48L27.6 25.98L28.42 25.16C29 24.58 29.96 24.58 30.54 25.16L44.86 39.48H41.08H41.1ZM34.04 40.86C33.96 40.16 33.3 39.56 32.6 39.5C32.64 39.5 32.56 39.5 32.6 39.5H3V38.62L10.94 30.68C11.52 30.1 12.48 30.1 13.06 30.68L14.82 32.44C15.2371 32.8585 15.7327 33.1905 16.2784 33.417C16.8241 33.6436 17.4092 33.7602 18 33.7602C18.5908 33.7602 19.1759 33.6436 19.7216 33.417C20.2673 33.1905 20.7629 32.8585 21.18 32.44L23.38 30.24L2.56 9.42C2.28 9.14 1.92 8.98 1.5 8.98C0.68 8.98 0 9.64 0 10.48V39.5C0 41.16 1.34 42.5 3 42.5H32.56C33.38 42.5 34.04 41.84 34.04 41.02V40.86Z" class="svg-primary-fill"/>
  </g>
</svg>
