<svg xmlns="http://www.w3.org/2000/svg" width="48" height="48" viewBox="0 0 48 48">
  <g class="neo-icon-kit--image-filled">
    <path fill="#006FCF" fill-rule="evenodd" d="M45 6H3C1.34 6 0 7.34 0 9V39C0 40.66 1.34 42 3 42H45C46.66 42 48 40.66 48 39V9C48 7.34 46.66 6 45 6ZM3 39V38.12L10.94 30.18C11.52 29.6 12.48 29.6 13.06 30.18L14.82 31.94C15.2371 32.3585 15.7327 32.6905 16.2784 32.917C16.8241 33.1436 17.4092 33.2602 18 33.2602C18.5908 33.2602 19.1759 33.1436 19.7216 32.917C20.2673 32.6905 20.7629 32.3585 21.18 31.94L28.44 24.68C29.02 24.1 29.98 24.1 30.56 24.68L44.88 39H3Z" class="svg-primary-fill" clip-rule="evenodd"/>
  </g>
</svg>
