<svg xmlns="http://www.w3.org/2000/svg" width="48" height="48" viewBox="0 0 48 48">
  <g class="neo-icon-kit--infinity">
    <path fill="#006FCF" d="M30.259 17.8699C31.5998 16.6143 33.1554 16.0008 35.0005 16.0008C38.8026 16.0008 42.0005 18.8434 42.0005 24.0008C42.0005 29.1582 38.8026 32.0008 35.0005 32.0008C31.0243 32.0008 27.8435 29.257 25.4 23.4454C22.5093 16.5901 18.3583 13.0004 13 13.0004C7.6146 13.0004 3 17.1023 3 24.0004C3 30.8985 7.6146 35.0004 13 35.0004C15.6059 35.0004 17.8947 34.0977 19.792 32.3211C20.0089 32.118 20.2052 31.8938 20.3779 31.652C20.8594 30.9779 20.7033 30.0411 20.0292 29.5595C19.3551 29.0779 18.4183 29.2341 17.9367 29.9082C17.8791 29.9888 17.8137 30.0635 17.7414 30.1312C16.4006 31.3868 14.845 32.0003 13 32.0003C9.19793 32.0003 6.00003 29.1577 6.00003 24.0003C6.00003 18.8429 9.19793 16.0003 13 16.0003C16.9755 16.0003 20.169 18.7616 22.6346 24.609C25.5015 31.428 29.6429 35 34.9996 35C40.385 35 44.9996 30.8981 44.9996 24C44.9996 17.1019 40.385 13 34.9996 13C32.3937 13 30.1047 13.9027 28.2075 15.6794C27.6028 16.2457 27.5717 17.1949 28.138 17.7996C28.7042 18.4043 29.6535 18.4354 30.2582 17.8692L30.259 17.8699Z" class="svg-primary-fill"/>
  </g>
</svg>
