<svg xmlns="http://www.w3.org/2000/svg" width="48" height="48" viewBox="0 0 48 48">
  <g class="neo-icon-kit--infinity-filled">
    <path fill="#006FCF" d="M30.6 18.234C31.8481 17.0652 33.2815 16.4999 34.9997 16.4999C38.5379 16.4999 41.4997 19.1326 41.4997 23.9999C41.4997 28.8672 38.5379 31.4999 34.9997 31.4999C31.2536 31.4999 28.2329 28.8942 25.8602 23.2507C22.8986 16.2272 18.588 12.4997 13.0002 12.4997C7.35094 12.4997 2.50024 16.8114 2.50024 23.9997C2.50024 31.188 7.35094 35.4997 13.0002 35.4997C15.7329 35.4997 18.144 34.5489 20.1339 32.6854C20.3749 32.4597 20.593 32.2107 20.785 31.942C21.427 31.0431 21.2188 29.7941 20.32 29.1521C19.4212 28.5101 18.1721 28.7182 17.5301 29.6171C17.4917 29.6708 17.4481 29.7206 17.3999 29.7657C16.1518 30.9345 14.7184 31.4998 13.0002 31.4998C9.46204 31.4998 6.50024 28.8671 6.50024 23.9998C6.50024 19.1325 9.46204 16.4998 13.0002 16.4998C16.7453 16.4998 19.7792 19.1232 22.1741 24.8028C25.1115 31.7894 29.4129 35.4998 35.0001 35.4998C40.6494 35.4998 45.5001 31.1881 45.5001 23.9998C45.5001 16.8115 40.6494 12.4998 35.0001 12.4998C32.2673 12.4998 29.8562 13.4507 27.8662 15.3142C27.06 16.0692 27.0185 17.3349 27.7735 18.1411C28.5285 18.9473 29.7942 18.9888 30.6004 18.2338L30.6 18.234Z" class="svg-primary-fill"/>
  </g>
</svg>
