<svg xmlns="http://www.w3.org/2000/svg" width="48" height="48" viewBox="0 0 48 48">
  <g class="neo-icon-kit--info-support">
    <g fill="#006FCF" class="svg-primary-fill">
      <path fill-rule="evenodd" d="M48 24C48 10.7452 37.2548 0 24 0C10.7452 0 0 10.7452 0 24C0 37.2548 10.7452 48 24 48C37.2548 48 48 37.2548 48 24ZM3 24C3 12.4206 12.4206 3 24 3C35.5794 3 45 12.4206 45 24C45 35.5794 35.5794 45 24 45C12.4206 45 3 35.5794 3 24Z" clip-rule="evenodd"/>
      <path d="M24 19C24.828 19 25.5 19.672 25.5 20.5V33H27.5C28.328 33 29 33.672 29 34.5 29 35.328 28.328 36 27.5 36H20.5C19.672 36 19 35.328 19 34.5 19 33.672 19.672 33 20.5 33H22.5V22H21C20.172 22 19.5 21.328 19.5 20.5 19.5 19.672 20.172 19 21 19H24ZM23.5 12C24.605 12 25.5 12.895 25.5 14 25.5 15.105 24.605 16 23.5 16 22.395 16 21.5 15.105 21.5 14 21.5 12.895 22.395 12 23.5 12Z"/>
    </g>
  </g>
</svg>
