<svg xmlns="http://www.w3.org/2000/svg" width="48" height="48" viewBox="0 0 48 48">
  <g class="neo-icon-kit--info-support-white">
    <path fill="#fff" fill-rule="evenodd" d="M48 24C48 10.7452 37.2548 0 24 0C10.7452 0 0 10.7452 0 24C0 37.2548 10.7452 48 24 48C37.2548 48 48 37.2548 48 24ZM3 24C3 12.4206 12.4206 3 24 3C35.5794 3 45 12.4206 45 24C45 35.5794 35.5794 45 24 45C12.4206 45 3 35.5794 3 24Z" class="svg-secondary-fill" clip-rule="evenodd"/>
    <g fill="#fff" class="svg-primary-fill">
      <path d="M24 19C24.8284 19 25.5 19.6716 25.5 20.5V33H27.5C28.3284 33 29 33.6716 29 34.5 29 35.3284 28.3284 36 27.5 36H20.5C19.6716 36 19 35.3284 19 34.5 19 33.6716 19.6716 33 20.5 33H22.5V22H21C20.1716 22 19.5 21.3284 19.5 20.5 19.5 19.6716 20.1716 19 21 19H24zM23.5 12C24.6046 12 25.5 12.8954 25.5 14 25.5 15.1046 24.6046 16 23.5 16 22.3954 16 21.5 15.1046 21.5 14 21.5 12.8954 22.3954 12 23.5 12z"/>
    </g>
  </g>
</svg>
