<svg xmlns="http://www.w3.org/2000/svg" width="48" height="48" viewBox="0 0 48 48">
  <g class="neo-icon-kit--info-support-filled">
    <path fill="#006FCF" fill-rule="evenodd" d="M24 0C37.2548 0 48 10.7452 48 24C48 37.2548 37.2548 48 24 48C10.7452 48 0 37.2548 0 24C0 10.7452 10.7452 0 24 0ZM23.5 12C22.3954 12 21.5 12.8954 21.5 14C21.5 15.1046 22.3954 16 23.5 16C24.6046 16 25.5 15.1046 25.5 14C25.5 12.8954 24.6046 12 23.5 12ZM21 19H24L24.1445 19.0069C24.9051 19.0796 25.5 19.7203 25.5 20.5V33H27.5L27.6445 33.0069C28.4051 33.0796 29 33.7203 29 34.5C29 35.3284 28.3284 36 27.5 36H20.5L20.3555 35.9931C19.5949 35.9204 19 35.2797 19 34.5C19 33.6716 19.6716 33 20.5 33H22.5V22H21L20.8555 21.9931C20.0949 21.9204 19.5 21.2797 19.5 20.5C19.5 19.6716 20.1716 19 21 19Z" class="svg-primary-fill" clip-rule="evenodd"/>
  </g>
</svg>
