<svg xmlns="http://www.w3.org/2000/svg" width="48" height="48" viewBox="0 0 48 48">
  <g class="neo-icon-kit--instant-filled">
    <path fill="#006FCF" d="M34.5 5C34.8978 5 35.2794 5.15804 35.5607 5.43934C35.842 5.72064 36 6.10218 36 6.5C36 6.89782 35.842 7.27936 35.5607 7.56066C35.2794 7.84196 34.8978 8 34.5 8H33V10.031C41.371 10.547 48 17.5 48 26C48 34.837 40.837 42 32 42C23.163 42 16 34.837 16 26C16 17.841 22.107 11.108 30 10.124V8H28.5C28.1022 8 27.7206 7.84196 27.4393 7.56066C27.158 7.27936 27 6.89782 27 6.5C27 6.10218 27.158 5.72064 27.4393 5.43934C27.7206 5.15804 28.1022 5 28.5 5H34.5ZM14.5 33C14.8978 33 15.2794 33.158 15.5607 33.4393C15.842 33.7206 16 34.1022 16 34.5C16 34.8978 15.842 35.2794 15.5607 35.5607C15.2794 35.842 14.8978 36 14.5 36H9.5C9.10218 36 8.72064 35.842 8.43934 35.5607C8.15804 35.2794 8 34.8978 8 34.5C8 34.1022 8.15804 33.7206 8.43934 33.4393C8.72064 33.158 9.10218 33 9.5 33H14.5ZM31.5 19C31.1271 19 30.7676 19.1389 30.4916 19.3896C30.2156 19.6403 30.0428 19.9848 30.007 20.356L30 20.5V27.179C30.0001 27.6486 30.1654 28.1031 30.467 28.463L30.586 28.593L33.182 31.189C33.4541 31.4599 33.8197 31.6161 34.2035 31.6255C34.5873 31.6349 34.9601 31.4967 35.2452 31.2395C35.5302 30.9823 35.7057 30.6256 35.7357 30.2428C35.7656 29.86 35.6476 29.4804 35.406 29.182L35.303 29.068L33 26.765V20.5C33 20.1022 32.842 19.7206 32.5607 19.4393C32.2794 19.158 31.8978 19 31.5 19ZM12.5 27C12.8978 27 13.2794 27.158 13.5607 27.4393C13.842 27.7206 14 28.1022 14 28.5C14 28.8978 13.842 29.2794 13.5607 29.5607C13.2794 29.842 12.8978 30 12.5 30H4.5C4.10218 30 3.72064 29.842 3.43934 29.5607C3.15804 29.2794 3 28.8978 3 28.5C3 28.1022 3.15804 27.7206 3.43934 27.4393C3.72064 27.158 4.10218 27 4.5 27H12.5ZM12.5 21C12.8978 21 13.2794 21.158 13.5607 21.4393C13.842 21.7206 14 22.1022 14 22.5C14 22.8978 13.842 23.2794 13.5607 23.5607C13.2794 23.842 12.8978 24 12.5 24H1.5C1.10218 24 0.720644 23.842 0.43934 23.5607C0.158035 23.2794 0 22.8978 0 22.5C0 22.1022 0.158035 21.7206 0.43934 21.4393C0.720644 21.158 1.10218 21 1.5 21H12.5ZM14.5 15C14.8978 15 15.2794 15.158 15.5607 15.4393C15.842 15.7206 16 16.1022 16 16.5C16 16.8978 15.842 17.2794 15.5607 17.5607C15.2794 17.842 14.8978 18 14.5 18H8.5C8.10218 18 7.72064 17.842 7.43934 17.5607C7.15804 17.2794 7 16.8978 7 16.5C7 16.1022 7.15804 15.7206 7.43934 15.4393C7.72064 15.158 8.10218 15 8.5 15H14.5ZM41.624 9.006C41.8411 8.70309 42.1633 8.49187 42.5276 8.41349C42.892 8.33511 43.2725 8.39518 43.595 8.582L43.716 8.66L45.341 9.825C45.6643 10.0568 45.8823 10.4075 45.947 10.8001C46.0117 11.1926 45.9178 11.5947 45.686 11.918C45.4709 12.2194 45.1516 12.4304 44.79 12.5102C44.4284 12.59 44.05 12.5329 43.728 12.35L43.592 12.263L41.967 11.098C41.6437 10.8662 41.4257 10.5155 41.361 10.1229C41.2963 9.73044 41.3902 9.3283 41.622 9.005L41.624 9.006Z" class="svg-primary-fill"/>
  </g>
</svg>
