<svg xmlns="http://www.w3.org/2000/svg" width="48" height="48" viewBox="0 0 48 48">
  <g class="neo-icon-kit--insurance-filled">
    <path fill="#006FCF" d="M6 11C6 9.34315 7.34315 8 9 8C13.4857 8 17.7451 6.01228 21.8787 1.87868C23.0503 0.707107 24.9497 0.707107 26.1213 1.87868C30.2549 6.01228 34.5143 8 39 8C40.6569 8 42 9.34315 42 11V30C42 34.3548 38.7871 38.3237 33.6345 42.0548C30.0502 44.6504 25.5907 47 24 47C22.4093 47 17.9498 44.6504 14.3655 42.0548C9.2129 38.3237 6 34.3548 6 30V11Z" class="svg-primary-fill"/>
  </g>
</svg>
