<svg xmlns="http://www.w3.org/2000/svg" width="48" height="48" viewBox="0 0 48 48">
  <g class="neo-icon-kit--insurance">
    <path fill="#006FCF" fill-rule="evenodd" d="M9 8C7.34315 8 6 9.34315 6 11V30C6 34.3548 9.2129 38.3237 14.3655 42.0548C17.9498 44.6504 22.4093 47 24 47C25.5907 47 30.0502 44.6504 33.6345 42.0548C38.7871 38.3237 42 34.3548 42 30V11C42 9.34315 40.6569 8 39 8C34.5143 8 30.2549 6.01228 26.1213 1.87868C24.9497 0.707107 23.0503 0.707107 21.8787 1.87868C17.7451 6.01228 13.4857 8 9 8ZM9 30V11C14.3333 11 19.3333 8.66667 24 4C28.6667 8.66667 33.6667 11 39 11V30C39 37 25 44 24 44C23 44 9 37 9 30Z" class="svg-primary-fill" clip-rule="evenodd"/>
  </g>
</svg>
