<svg xmlns="http://www.w3.org/2000/svg" width="48" height="48" viewBox="0 0 48 48">
  <g class="neo-icon-kit--iron-filled">
    <path fill="#006FCF" fill-rule="evenodd" d="M14.5085 10.5C14.5085 8.01472 16.5242 6 19.0107 6H35.9651C38.1741 6 40.0568 7.60183 40.4095 9.7814L44.9411 37.7814C45.384 40.5179 43.2701 43 40.4967 43H7.34842C4.39563 43 2.01539 40.056 3.40884 37.088C3.86707 36.112 4.3987 35.0928 5.00293 34.0617V34H5.03917C6.56236 31.412 8.5424 28.7534 10.9665 26.5197C14.3845 23.37 18.763 21 24.0131 21H33.2468L32.2464 15H19.0107C16.5242 15 14.5085 12.9853 14.5085 10.5ZM6.80333 37H41.7742L41.9782 38.2605C42.1258 39.1726 41.4212 40 40.4967 40H7.34842C6.83264 40 6.43058 39.7555 6.2091 39.4386C5.99764 39.1362 5.93887 38.761 6.12599 38.3624C6.33577 37.9156 6.56163 37.4604 6.80333 37ZM19.0107 9C18.1818 9 17.5099 9.67157 17.5099 10.5C17.5099 11.3284 18.1818 12 19.0107 12H34.789L36.2897 21H39.1847L37.4466 10.2605C37.329 9.53394 36.7015 9 35.9651 9H19.0107ZM36.5029 31C37.3314 31 38.0029 30.3284 38.0029 29.5C38.0029 28.6716 37.3314 28 36.5029 28C35.6745 28 35.0029 28.6716 35.0029 29.5C35.0029 30.3284 35.6745 31 36.5029 31ZM32.0029 29.5C32.0029 30.3284 31.3314 31 30.5029 31C29.6745 31 29.0029 30.3284 29.0029 29.5C29.0029 28.6716 29.6745 28 30.5029 28C31.3314 28 32.0029 28.6716 32.0029 29.5ZM24.5029 31C25.3314 31 26.0029 30.3284 26.0029 29.5C26.0029 28.6716 25.3314 28 24.5029 28C23.6745 28 23.0029 28.6716 23.0029 29.5C23.0029 30.3284 23.6745 31 24.5029 31Z" class="svg-primary-fill" clip-rule="evenodd"/>
  </g>
</svg>
