<svg xmlns="http://www.w3.org/2000/svg" width="48" height="48" viewBox="0 0 48 48">
  <g class="neo-icon-kit--iron">
    <g fill="#006FCF" class="svg-primary-fill">
      <path fill-rule="evenodd" d="M14.5085 10.5C14.5085 8.01472 16.5242 6 19.0107 6H35.9651C38.1741 6 40.0568 7.60183 40.4095 9.7814L44.9411 37.7814C45.384 40.5179 43.2701 43 40.4967 43H7.34842C4.39563 43 2.01539 40.056 3.40884 37.088C5.02582 33.6439 7.55692 29.6616 10.9665 26.5197C14.3845 23.37 18.763 21 24.0131 21H33.2468L32.2464 15H19.0107C16.5242 15 14.5085 12.9853 14.5085 10.5ZM19.0107 9C18.1818 9 17.5099 9.67157 17.5099 10.5C17.5099 11.3284 18.1818 12 19.0107 12H34.789L36.2897 21H39.1847L37.4466 10.2605C37.329 9.53394 36.7015 9 35.9651 9H19.0107ZM39.6702 24H24.0131C19.7281 24 16.0425 25.9225 13.0009 28.7253C11.2923 30.2998 9.81146 32.1315 8.5756 34H41.2887L39.6702 24ZM6.12599 38.3624C6.33577 37.9156 6.56164 37.4604 6.80333 37H41.7742L41.9782 38.2605C42.1258 39.1726 41.4212 40 40.4967 40H7.34842C6.83264 40 6.43058 39.7555 6.2091 39.4386C5.99764 39.1362 5.93887 38.761 6.12599 38.3624Z" clip-rule="evenodd"/>
      <path d="M38.0029 29.5C38.0029 30.3284 37.3314 31 36.5029 31 35.6745 31 35.0029 30.3284 35.0029 29.5 35.0029 28.6716 35.6745 28 36.5029 28 37.3314 28 38.0029 28.6716 38.0029 29.5zM32.0029 29.5C32.0029 30.3284 31.3314 31 30.5029 31 29.6745 31 29.0029 30.3284 29.0029 29.5 29.0029 28.6716 29.6745 28 30.5029 28 31.3314 28 32.0029 28.6716 32.0029 29.5zM26.0029 29.5C26.0029 30.3284 25.3314 31 24.5029 31 23.6745 31 23.0029 30.3284 23.0029 29.5 23.0029 28.6716 23.6745 28 24.5029 28 25.3314 28 26.0029 28.6716 26.0029 29.5z"/>
    </g>
  </g>
</svg>
