<svg xmlns="http://www.w3.org/2000/svg" width="48" height="48" viewBox="0 0 48 48">
  <g class="neo-icon-kit--krone-regular">
    <path fill="#006FCF" fill-rule="evenodd" d="M47 24C47 11.2975 36.7025 1 24 1C11.2975 1 1 11.2975 1 24C1 36.7025 11.2975 47 24 47C36.7025 47 47 36.7025 47 24ZM4 24C4 12.9543 12.9543 4 24 4C35.0457 4 44 12.9543 44 24C44 35.0457 35.0457 44 24 44C12.9543 44 4 35.0457 4 24ZM37.1325 19.5104C37.8785 19.5104 38.4835 20.1154 38.4835 20.8614C38.4835 21.5645 37.9476 22.1417 37.2626 22.2072L37.1325 22.2124L37.131 22.2158C35.2311 22.3093 33.6458 23.1113 32.5954 24.8379L32.4615 25.0684V33.0004C32.4615 33.8254 31.7865 34.5004 30.9615 34.5004C30.185 34.5004 29.5414 33.9025 29.4684 33.1443L29.4615 33.0004V21.0104C29.4615 20.1854 30.1365 19.5104 30.9615 19.5104C31.738 19.5104 32.3816 20.1083 32.4546 20.8665L32.4615 21.0104V21.6134C33.7915 20.1304 34.9785 19.6614 36.9925 19.5174C36.9981 19.5174 37.0028 19.5223 37.0078 19.5277C37.0099 19.53 37.0121 19.5323 37.0145 19.5344C37.0328 19.5326 37.0499 19.5276 37.0669 19.5227C37.0881 19.5165 37.1092 19.5104 37.1325 19.5104ZM14.5785 14.7917C14.5165 14.0324 13.8818 13.425 13.1053 13.4134C12.2803 13.4017 11.5953 14.0667 11.5833 14.8917L11.3193 32.8897L11.3239 33.0327C11.3769 33.6925 11.8627 34.2367 12.4983 34.3767C12.5943 34.3977 12.6943 34.4097 12.7973 34.4117C12.8993 34.4127 12.9993 34.4037 13.0963 34.3857C13.7813 34.2557 14.3083 33.6567 14.3183 32.9337L14.3913 27.9977L14.4563 27.9507L17.9463 24.1287L23.3943 33.7017L23.4686 33.8233C23.8921 34.4464 24.7409 34.6575 25.4223 34.2857C26.1463 33.8907 26.4183 32.9807 26.0273 32.2637L20.0723 21.8007L25.2813 16.0967L25.378 15.9801C25.8265 15.3786 25.7514 14.5118 25.1823 13.9887C24.5753 13.4297 23.6263 13.4647 23.0733 14.0657L14.4573 23.5007L14.5833 14.9357L14.5785 14.7917Z" class="svg-primary-fill" clip-rule="evenodd"/>
  </g>
</svg>
