<svg xmlns="http://www.w3.org/2000/svg" width="48" height="48" viewBox="0 0 48 48">
  <g class="neo-icon-kit--krone-autopay-filled">
    <path fill="#006FCF" fill-rule="evenodd" d="M24.4288 1.00411L24 1L23.6197 1.00308C11.0925 1.20619 1 11.4245 1 24V25L1.00549 25.1493C1.08183 26.1841 1.94564 27 3 27C4.10457 27 5 26.1046 5 25V24L5.00301 23.6585C5.1832 13.435 13.4382 5.18119 23.6622 5.00294L24 5L24.4185 5.00477C29.434 5.11906 34.1914 7.28371 37.5742 11.0048L38.479 12H37L36.8507 12.0055C35.8159 12.0818 35 12.9456 35 14C35 15.1046 35.8954 16 37 16H43L43.1528 15.9942L43.3022 15.9772L43.4587 15.9471L43.6079 15.9059L43.7629 15.8494L43.9157 15.7786L44.0597 15.6966L44.2117 15.5913L44.3376 15.4869L44.405 15.4234L44.5155 15.3052L44.5928 15.2098C44.6508 15.1335 44.7034 15.053 44.7501 14.9687L44.8271 14.8147L44.8853 14.6686L44.9145 14.5803L44.9559 14.4195L44.9819 14.2705L44.9945 14.1493L45 14V8L44.9945 7.85074C44.9182 6.81588 44.0544 6 43 6L42.8507 6.00549C41.8159 6.08183 41 6.94564 41 8V8.828L40.5339 8.31412L40.2355 7.9922C36.1176 3.63735 30.4214 1.11895 24.4288 1.00411ZM15.6851 14.3154C16.3675 14.3256 16.9125 14.8869 16.9025 15.5693L16.7987 22.6242L23.8956 14.8527C24.3593 14.3587 25.1343 14.3303 25.633 14.789C26.1316 15.2476 26.1679 16.0223 25.7143 16.5256L21.4237 21.2239L26.3288 29.8422C26.6482 30.4401 26.4261 31.1838 25.8311 31.5087C25.2362 31.8337 24.4905 31.6185 24.16 31.0266L19.6726 23.1414L16.7979 26.2896L16.7444 26.3283L16.6842 30.394C16.6741 30.9806 16.254 31.4798 15.6777 31.59C15.5965 31.6051 15.514 31.6122 15.4314 31.6114C15.3486 31.6099 15.2661 31.6002 15.1851 31.5826C14.6123 31.4556 14.207 30.9444 14.2138 30.3578L14.4314 15.533C14.4414 14.8507 15.0027 14.3056 15.6851 14.3154ZM36.5892 20.4506C36.5892 19.8358 36.0908 19.3374 35.476 19.3374L35.3788 19.3572C35.3768 19.3555 35.375 19.3536 35.3733 19.3517C35.3691 19.3473 35.3653 19.3432 35.3607 19.3432C33.9202 19.3278 32.5494 19.9619 31.6285 21.0697V20.573C31.6285 19.8906 31.0754 19.3374 30.393 19.3374C29.7106 19.3374 29.1575 19.8906 29.1575 20.573V30.449C29.1575 31.1314 29.7106 31.6845 30.393 31.6845C31.0754 31.6845 31.6285 31.1314 31.6285 30.449V23.9154C32.3796 22.4841 33.8572 21.582 35.4735 21.5679L35.476 21.563L35.5973 21.5573C36.1551 21.4969 36.5892 21.0245 36.5892 20.4506ZM46.9945 22.8507C46.9182 21.8159 46.0544 21 45 21C43.8954 21 43 21.8954 43 23V24L42.9971 24.3378C42.8168 34.6754 34.3806 43 24 43C18.2736 43 12.8494 40.431 9.22131 36.001L11 36L11.1493 35.9945C12.1841 35.9182 13 35.0544 13 34C13 32.8954 12.1046 32 11 32L4.91777 32.0016L4.76185 32.014L4.61218 32.0376L4.47418 32.0698L4.28468 32.1317C4.19122 32.1675 4.10113 32.2102 4.015 32.259L3.8833 32.3406L3.75022 32.4386L3.67333 32.5033L3.60429 32.5675C3.49811 32.671 3.40339 32.7862 3.32221 32.911L3.2929 32.957L3.19225 33.1433L3.13347 33.2802L3.08475 33.4223L3.04508 33.576L3.02097 33.7095L3.0106 33.7942L3.00049 33.9542L3 40L3.00549 40.1493C3.08183 41.1841 3.94564 42 5 42C6.10457 42 7 41.1046 7 40L6.99982 39.5411C11.2627 44.1743 17.2464 46.8778 23.5674 46.996L24 47L24.3803 46.9969C36.9075 46.7938 47 36.5755 47 24V23L46.9945 22.8507Z" class="svg-primary-fill" clip-rule="evenodd"/>
  </g>
</svg>
