<svg xmlns="http://www.w3.org/2000/svg" width="48" height="48" viewBox="0 0 48 48">
  <g class="neo-icon-kit--krone-regular-filled">
    <path fill="#006FCF" fill-rule="evenodd" d="M24 1C36.7025 1 47 11.2975 47 24C47 36.7025 36.7025 47 24 47C11.2975 47 1 36.7025 1 24C1 11.2975 11.2975 1 24 1ZM37.1326 19.5099L37.0146 19.5339C37.0129 19.5326 37.0113 19.5311 37.0098 19.5296L37.0071 19.5268C37.0024 19.5219 36.9979 19.5172 36.9926 19.5179C35.0701 19.6544 33.9012 20.0879 32.6422 21.4169L32.4616 21.6129V21.0099C32.4616 20.1849 31.7866 19.5099 30.9616 19.5099C30.1851 19.5099 29.5415 20.1078 29.4685 20.866L29.4616 21.0099V32.9999C29.4616 33.8249 30.1366 34.4999 30.9616 34.4999C31.7381 34.4999 32.3817 33.902 32.4547 33.1438L32.4616 32.9999V25.0679C33.465 23.2605 35.013 22.3871 36.8838 22.2338L37.1296 22.2179L37.1326 22.2129L37.2627 22.2067C37.9477 22.1412 38.4836 21.564 38.4836 20.8619C38.4836 20.1588 37.9477 19.5816 37.2627 19.5161L37.1326 19.5099ZM11.4575 14.856C11.5305 14.0978 12.1741 13.4999 12.9506 13.4999C13.7756 13.4999 14.4506 14.1749 14.4506 14.9999V23.5659L22.9266 14.0049L23.0332 13.8973C23.5878 13.3922 24.4571 13.3822 25.0346 13.8969C25.6496 14.4469 25.7086 15.3949 25.1646 16.0029L20.0396 21.7839L26.1486 32.1589L26.2126 32.2862C26.5175 32.9747 26.2484 33.8068 25.5726 34.1889C24.8546 34.5949 23.9386 34.3449 23.5366 33.6349L17.9486 24.1429L14.5156 28.0159L14.4506 28.0639V32.9999L14.4438 33.1428C14.3808 33.8018 13.8871 34.3392 13.2496 34.4699C13.1526 34.4899 13.0526 34.4999 12.9506 34.4999C12.8486 34.4999 12.7476 34.4899 12.6516 34.4699C11.9686 34.3299 11.4506 33.7229 11.4506 32.9999V14.9999L11.4575 14.856Z" class="svg-primary-fill" clip-rule="evenodd"/>
  </g>
</svg>
