<svg xmlns="http://www.w3.org/2000/svg" width="48" height="48" viewBox="0 0 48 48">
  <g class="neo-icon-kit--krone-cashback-filled">
    <path fill="#006FCF" fill-rule="evenodd" d="M24 1C30.1525 1 36.026 3.53642 40.2425 7.99961L40.5339 8.31412L41 8.828V8C41 6.94564 41.8159 6.08183 42.8507 6.00549L43 6C44.0544 6 44.9182 6.81588 44.9945 7.85074L45 8V14L44.9945 14.1493L44.9819 14.2705L44.9559 14.4195L44.9145 14.5803L44.8853 14.6686L44.8271 14.8147L44.7501 14.9687C44.7034 15.053 44.6508 15.1335 44.5928 15.2098L44.5155 15.3052L44.405 15.4234L44.3376 15.4869L44.2117 15.5913L44.0597 15.6966L43.9157 15.7786L43.7629 15.8494L43.6079 15.9059L43.4587 15.9471L43.3022 15.9772L43.1528 15.9942L43 16H37C35.8954 16 35 15.1046 35 14C35 12.9456 35.8159 12.0818 36.8507 12.0055L37 12H38.479L37.5742 11.0048C34.1914 7.28371 29.434 5.11906 24.4185 5.00477L24 5C13.5066 5 5 13.5066 5 24C5 34.4934 13.5066 43 24 43C34.3806 43 42.8168 34.6754 42.9971 24.3378L43 24V23C43 21.8954 43.8954 21 45 21C46.0544 21 46.9182 21.8159 46.9945 22.8507L47 23V24C47 36.7025 36.7025 47 24 47C11.2975 47 1 36.7025 1 24C1 11.2975 11.2975 1 24 1ZM35.476 19.3374C36.0908 19.3374 36.5892 19.8358 36.5892 20.4506C36.5892 21.0245 36.1551 21.4969 35.5973 21.5573L35.476 21.563L35.4735 21.5679C33.8572 21.582 32.3796 22.4841 31.6285 23.9154V30.449C31.6285 31.1314 31.0754 31.6845 30.393 31.6845C29.7106 31.6845 29.1575 31.1314 29.1575 30.449V20.573C29.1575 19.8906 29.7106 19.3374 30.393 19.3374C31.0754 19.3374 31.6285 19.8906 31.6285 20.573V21.0697C32.5494 19.9619 33.9202 19.3278 35.3607 19.3432C35.3653 19.3432 35.3691 19.3473 35.3733 19.3517C35.375 19.3536 35.3768 19.3555 35.3788 19.3572L35.476 19.3374ZM16.9025 15.5693C16.9125 14.8869 16.3675 14.3256 15.6851 14.3154C15.0027 14.3056 14.4414 14.8507 14.4314 15.533L14.2138 30.3578C14.207 30.9444 14.6123 31.4556 15.1851 31.5826C15.2661 31.6002 15.3486 31.6099 15.4314 31.6114C15.514 31.6122 15.5965 31.6051 15.6777 31.59C16.254 31.4798 16.6741 30.9806 16.6842 30.394L16.7444 26.3283L16.7979 26.2896L19.6726 23.1414L24.16 31.0266C24.4905 31.6185 25.2362 31.8337 25.8311 31.5087C26.4261 31.1838 26.6482 30.4401 26.3288 29.8422L21.4237 21.2239L25.7143 16.5256C26.1679 16.0223 26.1316 15.2476 25.633 14.789C25.1343 14.3303 24.3593 14.3587 23.8956 14.8527L16.7987 22.6242L16.9025 15.5693Z" class="svg-primary-fill" clip-rule="evenodd"/>
  </g>
</svg>
