<svg xmlns="http://www.w3.org/2000/svg" width="48" height="48" viewBox="0 0 48 48">
  <g class="neo-icon-kit--krone-cashback">
    <path fill="#006FCF" fill-rule="evenodd" d="M24 1.5C30.0116 1.5 35.7507 3.97698 39.8723 8.33591L40.164 8.65045L41.5 10.12V8C41.5 7.2203 42.0949 6.57955 42.8555 6.50687L43 6.5C43.7797 6.5 44.4204 7.09489 44.4931 7.85554L44.5 8L44.4983 14.071L44.4841 14.2183L44.4661 14.3185L44.4102 14.5122L44.3536 14.6472L44.2822 14.7792L44.184 14.9211L44.1014 15.0184L44.0117 15.1075L43.9574 15.1548L43.8452 15.2394L43.7233 15.3145L43.596 15.3769L43.4748 15.4233L43.3273 15.4641L43.2179 15.4843L43.0726 15.4983L43 15.5H37C36.1716 15.5 35.5 14.8284 35.5 14C35.5 13.2203 36.0949 12.5796 36.8555 12.5069L37 12.5H39.609L37.9441 10.6685C34.4666 6.84316 29.5749 4.61905 24.4186 4.50464L24 4.5C13.2304 4.5 4.5 13.2304 4.5 24C4.5 34.7696 13.2304 43.5 24 43.5C34.655 43.5 43.314 34.9543 43.497 24.343L43.5 24V23C43.5 22.1716 44.1716 21.5 45 21.5C45.7797 21.5 46.4204 22.0949 46.4931 22.8555L46.5 23V24C46.5 36.4264 36.4264 46.5 24 46.5C11.5736 46.5 1.5 36.4264 1.5 24C1.5 11.5736 11.5736 1.5 24 1.5ZM35.476 19.3374C36.0908 19.3374 36.5892 19.8358 36.5892 20.4506C36.5892 21.0245 36.1551 21.4969 35.5973 21.5573L35.476 21.563L35.4735 21.5679C33.8572 21.582 32.3796 22.4841 31.6285 23.9154V30.449C31.6285 31.1314 31.0754 31.6845 30.393 31.6845C29.7106 31.6845 29.1575 31.1314 29.1575 30.449V20.573C29.1575 19.8906 29.7106 19.3374 30.393 19.3374C31.0754 19.3374 31.6285 19.8906 31.6285 20.573V21.0697C32.5494 19.9619 33.9202 19.3278 35.3607 19.3432C35.3653 19.3432 35.3691 19.3473 35.3733 19.3517C35.375 19.3536 35.3768 19.3555 35.3788 19.3572L35.476 19.3374ZM16.9025 15.5693C16.9125 14.8869 16.3675 14.3256 15.6851 14.3154C15.0027 14.3056 14.4414 14.8507 14.4314 15.533L14.2138 30.3578C14.207 30.9444 14.6123 31.4556 15.1851 31.5826C15.2661 31.6002 15.3486 31.6099 15.4314 31.6114C15.514 31.6122 15.5965 31.6051 15.6777 31.59C16.254 31.4798 16.6741 30.9806 16.6842 30.394L16.7444 26.3283L16.7979 26.2896L19.6726 23.1414L24.16 31.0266C24.4905 31.6185 25.2362 31.8337 25.8311 31.5087C26.4261 31.1838 26.6482 30.4401 26.3288 29.8422L21.4237 21.2239L25.7143 16.5256C26.1679 16.0223 26.1316 15.2476 25.633 14.789C25.1343 14.3303 24.3593 14.3587 23.8956 14.8527L16.7987 22.6242L16.9025 15.5693Z" class="svg-primary-fill" clip-rule="evenodd"/>
  </g>
</svg>
