<svg xmlns="http://www.w3.org/2000/svg" width="48" height="48" viewBox="0 0 48 48">
  <g class="neo-icon-kit--laptop">
    <path fill="#006FCF" fill-rule="evenodd" d="M44 9C44 7.34315 42.6569 6 41 6H7C5.34315 6 4 7.34315 4 9V33C4 34.6569 5.34315 36 7 36H41C42.6569 36 44 34.6569 44 33V9ZM48 39.9599C48 39.4298 47.5638 39 47.0257 39H0.974408C0.778882 39 0.58788 39.058 0.426236 39.1663C-0.0186166 39.4646 -0.133816 40.0617 0.168931 40.5C0.817126 41.4384 1.89459 42 3.04668 42H44.9534C46.1055 42 47.183 41.4384 47.8312 40.5C47.9412 40.3407 48 40.1526 48 39.9599ZM41 9H7V33H41V9ZM26 14C26 12.8954 25.1046 12 24 12C22.8954 12 22 12.8954 22 14C22 15.1046 22.8954 16 24 16C25.1046 16 26 15.1046 26 14Z" class="svg-primary-fill" clip-rule="evenodd"/>
  </g>
</svg>
