<svg xmlns="http://www.w3.org/2000/svg" width="48" height="48" viewBox="0 0 48 48">
  <g class="neo-icon-kit--laptop-filled">
    <path fill="#006FCF" fill-rule="evenodd" d="M41 6C42.6569 6 44 7.34315 44 9V33C44 34.6569 42.6569 36 41 36H7C5.34315 36 4 34.6569 4 33V9C4 7.34315 5.34315 6 7 6H41ZM47.0257 39C47.5638 39 48 39.4298 48 39.9599C48 40.1526 47.9412 40.3407 47.8312 40.5C47.183 41.4384 46.1055 42 44.9534 42H3.04668C1.89459 42 0.817126 41.4384 0.168931 40.5C-0.133816 40.0617 -0.0186166 39.4646 0.426236 39.1663C0.58788 39.058 0.778882 39 0.974408 39H47.0257ZM22 14C22 12.8954 22.8954 12 24 12C25.1046 12 26 12.8954 26 14C26 15.1046 25.1046 16 24 16C22.8954 16 22 15.1046 22 14Z" class="svg-primary-fill" clip-rule="evenodd"/>
  </g>
</svg>
