<svg xmlns="http://www.w3.org/2000/svg" width="48" height="48" viewBox="0 0 48 48">
  <g class="neo-icon-kit--launch-filled">
    <path fill="#006FCF" fill-rule="evenodd" d="M36 42C36 43.6569 34.6569 45 33 45H6C4.34315 45 3 43.6569 3 42V15C3 13.3431 4.34315 12 6 12H12V6C12 4.34315 13.3431 3 15 3H42C43.6569 3 45 4.34315 45 6V33C45 34.6569 43.6569 36 42 36H36V42ZM34.5 12H26L25.8555 12.0069C25.1424 12.075 24.575 12.6424 24.5069 13.3555L24.5 13.5L24.5069 13.6445C24.575 14.3576 25.1424 14.925 25.8555 14.9931L26 15H30.878L21.4393 24.4393L21.3364 24.5533C20.8879 25.1031 20.8879 25.8969 21.3364 26.4467L21.4393 26.5607L21.5533 26.6636C22.1031 27.1121 22.8969 27.1121 23.4467 26.6636L23.5607 26.5607L33 17.121V22L33.0069 22.1445C33.0796 22.9051 33.7203 23.5 34.5 23.5C35.2797 23.5 35.9204 22.9051 35.9931 22.1445L36 22V13.5L35.9931 13.3555C35.9204 12.5949 35.2797 12 34.5 12ZM15 36C13.3431 36 12 34.6569 12 33V15H6V42H33V36H15Z" class="svg-primary-fill" clip-rule="evenodd"/>
  </g>
</svg>
