<svg xmlns="http://www.w3.org/2000/svg" width="48" height="48" viewBox="0 0 48 48">
  <g class="neo-icon-kit--launch_default">
    <path fill="#444B61" fill-rule="evenodd" d="M36 42C36 43.6569 34.6569 45 33 45H6C4.34315 45 3 43.6569 3 42V15C3 13.3431 4.34315 12 6 12H12V6C12 4.34315 13.3431 3 15 3H42C43.6569 3 45 4.34315 45 6V33C45 34.6569 43.6569 36 42 36H36V42ZM42 6H15V33H42V6ZM34.5 12C35.2797 12 35.9204 12.5949 35.9931 13.3555L36 13.5V22C36 22.8284 35.3284 23.5 34.5 23.5C33.7203 23.5 33.0796 22.9051 33.0069 22.1445L33 22V17.121L23.5607 26.5607C23.0115 27.1098 22.1424 27.1442 21.5533 26.6636L21.4393 26.5607C20.8902 26.0115 20.8558 25.1424 21.3364 24.5533L21.4393 24.4393L30.878 15H26C25.2203 15 24.5796 14.4051 24.5069 13.6445L24.5 13.5C24.5 12.7203 25.0949 12.0796 25.8555 12.0069L26 12H34.5ZM15 36C13.3431 36 12 34.6569 12 33V15H6V42H33V36H15Z" class="svg-primary-fill" clip-rule="evenodd"/>
  </g>
</svg>
