<svg xmlns="http://www.w3.org/2000/svg" width="48" height="48" viewBox="0 0 48 48">
  <g class="neo-icon-kit--line-graph-filled">
    <path fill="#006FCF" d="M4.5 2.5C5.55436 2.5 6.41817 3.31588 6.49451 4.35074L6.5 4.5V30.17L16.0858 20.5858C16.8257 19.8458 18.0012 19.8069 18.787 20.469L18.9142 20.5858L24 25.6716L38.67 11H37.5C36.4456 11 35.5818 10.1841 35.5055 9.14926L35.5 9C35.5 7.94564 36.3159 7.08183 37.3507 7.00549L37.5 7H43.5C44.5544 7 45.4182 7.81588 45.4945 8.85074L45.5 9V15C45.5 16.1046 44.6046 17 43.5 17C42.4456 17 41.5818 16.1841 41.5055 15.1493L41.5 15V13.828L25.4142 29.9142C24.6743 30.6542 23.4988 30.6931 22.713 30.031L22.5858 29.9142L17.5 24.8284L6.5 35.828V41.5H43.5C44.6046 41.5 45.5 42.3954 45.5 43.5C45.5 44.5544 44.6841 45.4182 43.6493 45.4945L43.5 45.5H4.5C3.44564 45.5 2.58183 44.6841 2.50549 43.6493L2.5 43.5V4.5C2.5 3.39543 3.39543 2.5 4.5 2.5Z" class="svg-primary-fill"/>
  </g>
</svg>
