<svg xmlns="http://www.w3.org/2000/svg" width="48" height="48" viewBox="0 0 48 48">
  <g class="neo-icon-kit--line-graph">
    <path fill="#006FCF" d="M4.5 3C5.2797 3 5.92045 3.59489 5.99313 4.35554L6 4.5V31.378L16.4393 20.9393C16.9885 20.3902 17.8576 20.3558 18.4467 20.8364L18.5607 20.9393L24 26.3787L39.878 10.5H37.5C36.7203 10.5 36.0796 9.90511 36.0069 9.14446L36 9C36 8.2203 36.5949 7.57955 37.3555 7.50687L37.5 7.5H43.5C44.2797 7.5 44.9204 8.09489 44.9931 8.85554L45 9V15C45 15.8284 44.3284 16.5 43.5 16.5C42.7203 16.5 42.0796 15.9051 42.0069 15.1445L42 15V12.62L25.0607 29.5607C24.5115 30.1098 23.6424 30.1442 23.0533 29.6636L22.9393 29.5607L17.5 24.1213L6 35.62V42H43.5C44.3284 42 45 42.6716 45 43.5C45 44.2797 44.4051 44.9204 43.6445 44.9931L43.5 45H4.5C3.7203 45 3.07955 44.4051 3.00687 43.6445L3 43.5V4.5C3 3.67157 3.67157 3 4.5 3Z" class="svg-primary-fill"/>
  </g>
</svg>
