<svg xmlns="http://www.w3.org/2000/svg" width="48" height="48" viewBox="0 0 48 48">
  <g class="neo-icon-kit--link-broken">
    <g fill="#006FCF" class="svg-primary-fill">
      <path d="M27.9562 24.6683C27.2445 24.5539 26.7601 23.8842 26.8745 23.1724C26.9889 22.4607 27.6586 21.9764 28.3703 22.0907C29.9783 22.349 31.8909 23.6556 32.7718 24.9839C35.5881 28.8783 34.7141 34.3184 30.8197 37.1347L20.9476 44.2738C17.0531 47.0901 11.613 46.2161 8.79675 42.3216C5.98046 38.4272 6.85447 32.9871 10.7514 30.169L15.1963 26.9705C15.7815 26.5494 16.5972 26.6824 17.0182 27.2675C17.4393 27.8527 17.3063 28.6684 16.7212 29.0895L12.2787 32.2863C9.5526 34.2577 8.94079 38.0657 10.9122 40.7918C12.8836 43.5179 16.6917 44.1298 19.4178 42.1584L29.2899 35.0193C32.016 33.0479 32.6278 29.2398 30.6268 26.471C30.1058 25.6867 28.8178 24.8067 27.9562 24.6683Z"/>
      <path d="M23.0802 23.5503C23.7915 23.6675 24.2732 24.3391 24.156 25.0504C24.0389 25.7618 23.3672 26.2434 22.6559 26.1262C21.049 25.8615 19.1416 24.5474 18.2659 23.2156C15.4651 19.3101 16.3606 13.8735 20.2662 11.0726L30.1664 3.9727C34.072 1.17186 39.5086 2.0674 42.3094 5.97294C45.1103 9.8785 44.2148 15.3151 40.3067 18.1177L35.8492 21.2987C35.2624 21.7174 34.4472 21.5812 34.0284 20.9944C33.6097 20.4076 33.7459 19.5924 34.3327 19.1736L38.7878 15.9945C41.5217 14.0339 42.1486 10.2282 40.188 7.49436C38.2274 4.76048 34.4217 4.1336 31.6879 6.09419L21.7876 13.1941C19.0537 15.1547 18.4268 18.9603 20.4169 21.7371C20.9347 22.5235 22.2192 23.4085 23.0802 23.5503Z"/>
      <path fill-rule="evenodd" d="M10.2481 7.16795C10.9373 6.70842 11.8687 6.89468 12.3282 7.58397L14.6641 11.0878C15.1236 11.7771 14.9373 12.7084 14.2481 13.1679 13.5588 13.6275 12.6275 13.4412 12.1679 12.7519L9.83203 9.24807C9.3725 8.55878 9.55876 7.62747 10.2481 7.16795zM4.37751 25.6352C4.03373 24.8815 4.36606 23.9918 5.11979 23.648L8.96779 21.893C9.72152 21.5492 10.6112 21.8815 10.955 22.6352 11.2988 23.389 10.9664 24.2787 10.2127 24.6224L6.36473 26.3775C5.611 26.7213 4.72129 26.389 4.37751 25.6352zM3.5471 14.6033C3.84927 13.832 4.71953 13.4516 5.49089 13.7538L10.6976 15.7935C11.4689 16.0956 11.8493 16.9659 11.5471 17.7372 11.2449 18.5086 10.3747 18.889 9.60332 18.5868L4.39664 16.5471C3.62528 16.245 3.24493 15.3747 3.5471 14.6033z" clip-rule="evenodd"/>
    </g>
  </g>
</svg>
