<svg xmlns="http://www.w3.org/2000/svg" width="48" height="48" viewBox="0 0 48 48">
  <g class="neo-icon-kit--link-broken-filled">
    <g fill="#006FCF" fill-rule="evenodd" class="svg-primary-fill" clip-rule="evenodd">
      <path d="M24.1561 25.0504C24.2733 24.3391 23.7916 23.6674 23.0803 23.5503C22.2193 23.4084 20.9348 22.5234 20.4169 21.737C18.4269 18.9603 19.0538 15.1547 21.7877 13.1941L31.6879 6.09414C34.4218 4.13355 38.2274 4.76043 40.188 7.49431C42.1486 10.2282 41.5217 14.0338 38.7879 15.9944L34.3328 19.1736C33.746 19.5924 33.6097 20.4075 34.0285 20.9943C34.4472 21.5812 35.2624 21.7174 35.8492 21.2986L40.3068 18.1177C44.2148 15.3151 45.1104 9.87845 42.3095 5.9729C39.5087 2.06735 34.0721 1.17181 30.1665 3.97266L20.2662 11.0726C16.3607 13.8734 15.4652 19.31 18.266 23.2156C19.1417 24.5473 21.0491 25.8615 22.656 26.1262C23.3673 26.2434 24.0389 25.7617 24.1561 25.0504ZM26.9984 23.1723C26.884 23.8841 27.3683 24.5538 28.0801 24.6681C28.9416 24.8066 30.2297 25.6865 30.7506 26.4708C32.7516 29.2397 32.1398 33.0477 29.4137 35.0191L19.5416 42.1582C16.8155 44.1296 13.0075 43.5178 11.0361 40.7917C9.06465 38.0656 9.67646 34.2575 12.4026 32.2861L16.845 29.0893C17.4302 28.6682 17.5632 27.8525 17.1421 27.2674C16.721 26.6822 15.9053 26.5492 15.3202 26.9703L10.8752 30.1689C6.97833 32.987 6.10432 38.4271 8.92061 42.3215C11.7369 46.2159 17.177 47.0899 21.0714 44.2737L30.9435 37.1346C34.8379 34.3183 35.712 28.8782 32.8957 24.9838C32.0147 23.6555 30.1022 22.3489 28.4942 22.0906C27.7824 21.9762 27.1127 22.4605 26.9984 23.1723Z"/>
      <path d="M21.0764 21.2838L21.0851 21.297C21.2673 21.5738 21.6288 21.9224 22.0713 22.2249 22.5197 22.5313 22.9437 22.717 23.2103 22.7609 24.3576 22.9499 25.1344 24.0331 24.9455 25.1804 24.7565 26.3277 23.6732 27.1045 22.5259 26.9156 21.578 26.7594 20.5926 26.3066 19.7411 25.7354 18.8935 25.1668 18.1167 24.4393 17.6067 23.6689 14.5595 19.4053 15.5397 13.4777 19.8 10.4225L29.7003 3.32255C33.9649.264215 39.9013 1.24208 42.9596 5.50667 46.0181 9.77142 45.0399 15.7078 40.773 18.7678L40.7715 18.7689 36.3139 21.9498C35.3675 22.6252 34.0527 22.4055 33.3773 21.459 32.7019 20.5126 32.9216 19.1978 33.8681 18.5224L38.3216 15.3443C38.322 15.3441 38.3223 15.3438 38.3226 15.3436 40.6966 13.6403 41.2408 10.335 39.5379 7.96053 37.8348 5.58569 34.529 5.04114 32.1541 6.74425L22.2539 13.8442C19.8827 15.5447 19.3318 18.8496 21.0672 21.271L21.0764 21.2838zM38.7879 15.9944C41.5217 14.0338 42.1486 10.2282 40.188 7.49431 38.2274 4.76043 34.4218 4.13355 31.6879 6.09414L21.7877 13.1941C19.0538 15.1547 18.4269 18.9603 20.4169 21.737 20.9348 22.5234 22.2193 23.4084 23.0803 23.5503 23.7916 23.6674 24.2733 24.3391 24.1561 25.0504 24.0389 25.7617 23.3673 26.2434 22.656 26.1262 21.0491 25.8615 19.1417 24.5473 18.266 23.2156 15.4652 19.31 16.3607 13.8734 20.2662 11.0726L30.1665 3.97266C34.0721 1.17181 39.5087 2.06735 42.3095 5.9729 45.1104 9.87845 44.2148 15.3151 40.3068 18.1177L35.8492 21.2986C35.2624 21.7174 34.4472 21.5812 34.0285 20.9943 33.6097 20.4075 33.746 19.5924 34.3328 19.1736L38.7879 15.9944zM30.0929 26.9266L30.0842 26.9134C29.9008 26.6374 29.5381 26.2903 29.0943 25.9895 28.6447 25.6849 28.2199 25.5009 27.9532 25.458 26.8052 25.2736 26.024 24.1934 26.2085 23.0454 26.3929 21.8974 27.4731 21.1163 28.6211 21.3007 29.5697 21.4531 30.5569 21.902 31.4106 22.4698 32.2605 23.0351 33.0401 23.7595 33.5532 24.5278 36.6172 28.7794 35.6605 34.7107 31.4123 37.7828L21.5402 44.9219C17.2878 47.9971 11.3475 47.0427 8.27235 42.7903 5.19705 38.5377 6.15166 32.5975 10.4064 29.5206L10.408 29.5195 14.8529 26.321C15.7967 25.6418 17.1123 25.8563 17.7915 26.8001 18.4706 27.7439 18.2561 29.0595 17.3123 29.7387L12.8714 32.9344C12.871 32.9346 12.8706 32.9349 12.8702 32.9352 10.5031 34.6479 9.97208 37.9552 11.6843 40.3229 13.3968 42.691 16.7048 43.2224 19.0728 41.5099L28.9449 34.3709C31.3094 32.661 31.8472 29.3539 30.1022 26.9394L30.0929 26.9266zM12.4026 32.2861L16.845 29.0893C17.4302 28.6682 17.5632 27.8525 17.1421 27.2674 16.721 26.6822 15.9053 26.5492 15.3202 26.9703L10.8752 30.1689C6.97833 32.987 6.10432 38.4271 8.92061 42.3215 11.7369 46.2159 17.177 47.0899 21.0714 44.2737L30.9435 37.1346C34.8379 34.3183 35.712 28.8782 32.8957 24.9838 32.0147 23.6555 30.1022 22.3489 28.4942 22.0906 27.7824 21.9762 27.1127 22.4605 26.9984 23.1723 26.884 23.8841 27.3683 24.5538 28.0801 24.6681 28.9416 24.8066 30.2297 25.6865 30.7506 26.4708 32.7516 29.2397 32.1398 33.0477 29.4137 35.0191L19.5416 42.1582C16.8155 44.1296 13.0075 43.5178 11.0361 40.7917 9.06465 38.0656 9.67646 34.2575 12.4026 32.2861zM12.1707 3.75965C13.3694 3.07462 14.8966 3.49111 15.5816 4.68991L17.1009 7.34869C17.7859 8.54748 17.3694 10.0746 16.1707 10.7596 14.9719 11.4447 13.4447 11.0282 12.7597 9.82938L11.2404 7.1706C10.5554 5.97181 10.9719 4.44467 12.1707 3.75965zM3.9626 24.7254C3.38964 23.4692 3.94352 21.9864 5.19974 21.4134L7.22807 20.4883C8.48428 19.9153 9.96713 20.4692 10.5401 21.7254 11.1131 22.9816 10.5592 24.4645 9.30295 25.0374L7.27463 25.9626C6.01841 26.5355 4.53557 25.9816 3.9626 24.7254zM3.91192 12.6722C4.41554 11.3866 5.86597 10.7527 7.15156 11.2563L10.496 12.5665C11.7816 13.0701 12.4155 14.5206 11.9119 15.8061 11.4083 17.0917 9.95787 17.7256 8.67228 17.222L5.32781 15.9119C4.04222 15.4083 3.40831 13.9578 3.91192 12.6722z"/>
    </g>
  </g>
</svg>
