<svg xmlns="http://www.w3.org/2000/svg" width="48" height="48" viewBox="0 0 48 48">
  <g class="neo-icon-kit--link-filled">
    <path fill="#006FCF" fill-rule="evenodd" d="M25.4745 29.9712C25.4745 28.8666 24.5791 27.9712 23.4745 27.9712C22.6166 27.9712 21.1258 27.2693 20.4833 26.5734C17.8897 23.9776 17.8897 19.862 20.4281 17.3236L30.3276 7.42411C32.866 4.88571 36.9816 4.88571 39.52 7.42411C42.0584 9.96253 42.0584 14.0781 39.52 16.6165L35.0632 21.0525C34.2803 21.8318 34.2773 23.0981 35.0565 23.881C35.8358 24.6638 37.1021 24.6668 37.885 23.8876L42.3451 19.4482C46.4489 15.3444 46.4489 8.6962 42.3484 4.59569C38.2479 0.495186 31.5997 0.495182 27.4992 4.59569L17.5997 14.4952C13.4992 18.5957 13.4992 25.2439 17.5997 29.3444C18.9191 30.7756 21.4583 31.9712 23.4745 31.9712C24.5791 31.9712 25.4745 31.0757 25.4745 29.9712ZM22.4704 17.9722C22.4704 19.0768 23.3658 19.9722 24.4704 19.9722C25.3283 19.9722 26.8191 20.6741 27.4616 21.3699C30.0552 23.9658 30.0552 28.0813 27.5168 30.6198L17.6173 40.5192C15.0789 43.0577 10.9633 43.0577 8.42488 40.5192C5.88647 37.9808 5.88647 33.8653 8.42488 31.3269L12.8817 26.8908C13.6646 26.1116 13.6676 24.8453 12.8883 24.0624C12.1091 23.2795 10.8428 23.2766 10.0599 24.0558L5.59976 28.4951C1.49595 32.5989 1.49594 39.2472 5.59645 43.3477C9.69695 47.4482 16.3452 47.4482 20.4457 43.3477L30.3452 33.4482C34.4457 29.3477 34.4457 22.6994 30.3452 18.5989C29.0258 17.1677 26.4866 15.9722 24.4704 15.9722C23.3658 15.9722 22.4704 16.8676 22.4704 17.9722Z" class="svg-primary-fill" clip-rule="evenodd"/>
  </g>
</svg>
