<svg xmlns="http://www.w3.org/2000/svg" width="48" height="48" viewBox="0 0 48 48">
  <g class="neo-icon-kit--link">
    <path fill="#006FCF" fill-rule="evenodd" d="M24.9741 29.9713C24.9741 29.1428 24.3026 28.4713 23.4741 28.4713C22.4714 28.4713 20.8496 27.7077 20.1156 26.9127C17.3405 24.136 17.3405 19.7038 20.0742 16.9702L29.9737 7.07068C32.7074 4.33701 37.1395 4.33701 39.8732 7.07068C42.6069 9.80435 42.6068 14.2365 39.8732 16.9702L35.4155 21.407C34.8284 21.9915 34.8261 22.9412 35.4105 23.5283C35.995 24.1155 36.9447 24.1177 37.5319 23.5333L41.992 19.094C45.8997 15.1862 45.8997 8.8546 41.9945 4.94936C38.0893 1.04412 31.7576 1.04411 27.8524 4.94936L17.9529 14.8489C14.0476 18.7541 14.0476 25.0857 17.9529 28.991C19.1945 30.3375 21.6027 31.4713 23.4741 31.4713C24.3026 31.4713 24.9741 30.7997 24.9741 29.9713ZM22.9702 17.9721C22.9702 18.8005 23.6418 19.4721 24.4702 19.4721C25.4729 19.4721 27.0948 20.2357 27.8288 21.0306C30.6038 23.8074 30.6038 28.2395 27.8702 30.9732L17.9707 40.8727C15.237 43.6063 10.8049 43.6063 8.07118 40.8727C5.33751 38.139 5.33751 33.7069 8.07118 30.9732L12.5289 26.5363C13.116 25.9519 13.1182 25.0022 12.5338 24.415C11.9494 23.8278 10.9997 23.8256 10.4125 24.41L5.95234 28.8494C2.04462 32.7571 2.04462 39.0888 5.94986 42.994C9.8551 46.8992 16.1868 46.8992 20.092 42.994L29.9915 33.0945C33.8967 29.1893 33.8967 22.8576 29.9915 18.9524C28.7498 17.6059 26.3417 16.4721 24.4702 16.4721C23.6418 16.4721 22.9702 17.1437 22.9702 17.9721Z" class="svg-primary-fill" clip-rule="evenodd"/>
  </g>
</svg>
