<svg xmlns="http://www.w3.org/2000/svg" width="48" height="48" viewBox="0 0 48 48">
  <g class="neo-icon-kit--list-filled">
    <path fill="#006FCF" d="M43.5002 38.25C44.0843 38.2489 44.646 38.4751 45.0664 38.8806C45.4868 39.2861 45.7331 39.8392 45.7531 40.423C45.7731 41.0067 45.5653 41.5754 45.1736 42.0087C44.7819 42.4421 44.2371 42.7061 43.6542 42.745L4.50024 42.75C3.91612 42.7511 3.35449 42.525 2.93407 42.1194C2.51365 41.7139 2.26741 41.1608 2.24741 40.577C2.22741 39.9933 2.43522 39.4246 2.8269 38.9913C3.21857 38.5579 3.76342 38.2939 4.34624 38.255L43.5002 38.25ZM43.5002 21.75C44.0843 21.7489 44.646 21.9751 45.0664 22.3806C45.4868 22.7861 45.7331 23.3392 45.7531 23.923C45.7731 24.5067 45.5653 25.0754 45.1736 25.5087C44.7819 25.9421 44.2371 26.2061 43.6542 26.245L4.50024 26.25C3.91612 26.2511 3.35449 26.025 2.93407 25.6194C2.51365 25.2139 2.26741 24.6608 2.24741 24.077C2.22741 23.4933 2.43522 22.9246 2.8269 22.4913C3.21857 22.0579 3.76342 21.7939 4.34624 21.755L43.5002 21.75ZM43.5002 5.25C44.0843 5.24893 44.646 5.47505 45.0664 5.88056C45.4868 6.28607 45.7331 6.83919 45.7531 7.42296C45.7731 8.00673 45.5653 8.5754 45.1736 9.00873C44.7819 9.44207 44.2371 9.7061 43.6542 9.745L4.50024 9.75C3.91612 9.75108 3.35449 9.52496 2.93407 9.11944C2.51365 8.71393 2.26741 8.16082 2.24741 7.57705C2.22741 6.99328 2.43522 6.42461 2.8269 5.99127C3.21857 5.55794 3.76342 5.29391 4.34624 5.255L43.5002 5.25Z" class="svg-primary-fill"/>
  </g>
</svg>
