<svg xmlns="http://www.w3.org/2000/svg" width="48" height="48" viewBox="0 0 48 48">
  <g class="neo-icon-kit--list">
    <path fill="#006FCF" d="M43.5 39C43.8978 39 44.2794 39.158 44.5607 39.4393C44.842 39.7206 45 40.1022 45 40.5C45 40.8978 44.842 41.2794 44.5607 41.5607C44.2794 41.842 43.8978 42 43.5 42H4.5C4.10218 42 3.72064 41.842 3.43934 41.5607C3.15804 41.2794 3 40.8978 3 40.5C3 40.1022 3.15804 39.7206 3.43934 39.4393C3.72064 39.158 4.10218 39 4.5 39H43.5ZM43.5 22.5C43.8978 22.5 44.2794 22.658 44.5607 22.9393C44.842 23.2206 45 23.6022 45 24C45 24.3978 44.842 24.7794 44.5607 25.0607C44.2794 25.342 43.8978 25.5 43.5 25.5H4.5C4.10218 25.5 3.72064 25.342 3.43934 25.0607C3.15804 24.7794 3 24.3978 3 24C3 23.6022 3.15804 23.2206 3.43934 22.9393C3.72064 22.658 4.10218 22.5 4.5 22.5H43.5ZM43.5 6C43.8978 6 44.2794 6.15804 44.5607 6.43934C44.842 6.72064 45 7.10218 45 7.5C45 7.89782 44.842 8.27936 44.5607 8.56066C44.2794 8.84196 43.8978 9 43.5 9H4.5C4.10218 9 3.72064 8.84196 3.43934 8.56066C3.15804 8.27936 3 7.89782 3 7.5C3 7.10218 3.15804 6.72064 3.43934 6.43934C3.72064 6.15804 4.10218 6 4.5 6H43.5Z" class="svg-primary-fill"/>
  </g>
</svg>
