<svg xmlns="http://www.w3.org/2000/svg" width="48" height="48" viewBox="0 0 48 48">
  <g class="neo-icon-kit--location-white">
    <path fill="#fff" fill-rule="evenodd" d="M42 18.2729C42 8.1972 33.9252 0 24 0C14.0748 0 6 8.1972 6 18.2729C6 26.6289 17.509 41.6822 20.8995 45.9353L21.6802 46.9022C22.25 47.5971 23.1013 48 24 48C24.8986 48 25.7499 47.5971 26.3198 46.9022C27.9247 44.945 42 27.5136 42 18.2729ZM18 18C18 14.6916 20.6916 12 24 12C27.3084 12 30 14.6916 30 18C30 21.3084 27.3084 24 24 24C20.6916 24 18 21.3084 18 18Z" class="svg-primary-fill" clip-rule="evenodd"/>
  </g>
</svg>
