<svg xmlns="http://www.w3.org/2000/svg" width="48" height="48" viewBox="0 0 48 48">
  <g class="neo-icon-kit--location">
    <path fill="#006FCF" fill-rule="evenodd" d="M42 18C42 8.19721 33.9252 0 24 0C14.0748 0 6 8.19721 6 18C6 26.6289 17.509 41.6822 21 46L22 47C22.25 47.5971 23.1014 48 24 48C24.8986 48 25.75 47.5971 26 47C27.9247 44.945 42 27.5136 42 18ZM9 18C9 9.83922 15.7161 3 24 3C32.2839 3 39 9.83922 39 18C39 25.1645 28.9656 38.6646 25.2842 43.6175L25 44L24 45C24 45 9 26.7076 9 18ZM24 9C28.9706 9 33 13.0294 33 18C33 22.9706 28.9706 27 24 27C19.0294 27 15 22.9706 15 18C15 13.0294 19.0294 9 24 9ZM18 18C18 14.6916 20.6916 12 24 12C27.3084 12 30 14.6916 30 18C30 21.3084 27.3084 24 24 24C20.6916 24 18 21.3084 18 18Z" class="svg-primary-fill" clip-rule="evenodd"/>
  </g>
</svg>
