<svg xmlns="http://www.w3.org/2000/svg" width="48" height="48" viewBox="0 0 48 48">
  <g class="neo-icon-kit--lock">
    <path fill="#006FCF" fill-rule="evenodd" d="M32.9962 9.73693C32.8555 4.89516 28.8738 1 24 1C19.0376 1 15 5.03809 15 10.002V16.9918L8.82441 16.9969C7.25533 17.0886 6 18.4008 6 19.9918L6.00512 44.1756C6.09681 45.7447 7.40896 47 9 47L39.1756 46.9949C40.7447 46.9032 42 45.591 42 44L41.9949 19.8162C41.9032 18.2471 40.5911 16.9918 39 16.9918H33L32.9962 9.73693ZM9 20H15V20.0023H33V20H39V44H9V20ZM24 26C25.6569 26 27 27.3432 27 29.0002C27 30.0386 26.4665 30.9442 25.664 31.4816L25.5 31.5841V36.5004C25.5 37.3288 24.8286 38 24 38C23.2201 38 22.5795 37.4054 22.5069 36.6448L22.5 36.5004V31.5841C21.6071 31.0644 21 30.1078 21 29.0002C21 27.3432 22.3431 26 24 26ZM18.0041 9.78122C18.1227 6.57315 20.7666 4 24 4C27.3086 4 30 6.69422 30 10.006V17H18L18.0041 9.78122Z" class="svg-primary-fill" clip-rule="evenodd"/>
  </g>
</svg>
