<svg xmlns="http://www.w3.org/2000/svg" width="48" height="48" viewBox="0 0 48 48">
  <g class="neo-icon-kit--lock-card-filled">
    <path fill="#006FCF" fill-rule="evenodd" d="M24 15H44.96C46.6389 15 48 16.3431 48 18V21H24V27H48V42C48 43.6569 46.6389 45 44.96 45H13.04C11.3611 45 10 43.6569 10 42V33H3C1.34315 33 0 31.6569 0 30V15C0 13.3431 1.34315 12 3 12H6V9C6 5.68629 8.68629 3 12 3C15.3137 3 18 5.68629 18 9V12H21C22.6569 12 24 13.3431 24 15ZM21 30V15H3V30H21ZM15 12V9C15 7.34315 13.6569 6 12 6C10.3431 6 9 7.34315 9 9V12H15ZM9.75 20.25C9.75 20.9138 10.0428 21.5042 10.5 21.9161V25.5C10.5 26.3281 11.1719 27 12 27C12.8281 27 13.5 26.3281 13.5 25.5V21.9161C13.9572 21.5042 14.25 20.9138 14.25 20.25C14.25 19.0073 13.2426 18 12 18C10.7574 18 9.75 19.0073 9.75 20.25Z" class="svg-primary-fill" clip-rule="evenodd"/>
  </g>
</svg>
