<svg xmlns="http://www.w3.org/2000/svg" width="48" height="48" viewBox="0 0 48 48">
  <g class="neo-icon-kit--lock-card">
    <path fill="#006FCF" fill-rule="evenodd" d="M44.96 15H24C24 13.3431 22.6569 12 21 12H18V9C18 5.68629 15.3137 3 12 3C8.68629 3 6 5.68629 6 9V12H3C1.34315 12 0 13.3431 0 15V30C0 31.6569 1.34315 33 3 33H10V42C10 43.6569 11.3611 45 13.04 45H44.96C46.6389 45 48 43.6569 48 42V18C48 16.3431 46.6389 15 44.96 15ZM21 15V30H3V15H21ZM13 33V42H45V24H23.9875V30C23.9875 31.6569 22.641 33 20.9799 33H13ZM45 21H24V18H45V21ZM15 12V9C15 7.34315 13.6569 6 12 6C10.3431 6 9 7.34315 9 9V12H15ZM9.75 20.25C9.75 20.9138 10.0428 21.5042 10.5 21.9161V25.5C10.5 26.3281 11.1719 27 12 27C12.8281 27 13.5 26.3281 13.5 25.5V21.9161C13.9572 21.5042 14.25 20.9138 14.25 20.25C14.25 19.0073 13.2426 18 12 18C10.7574 18 9.75 19.0073 9.75 20.25Z" class="svg-primary-fill" clip-rule="evenodd"/>
  </g>
</svg>
