<svg xmlns="http://www.w3.org/2000/svg" width="48" height="48" viewBox="0 0 48 48">
  <g class="neo-icon-kit--lock-filled">
    <path fill="#006FCF" fill-rule="evenodd" d="M24 1C28.8738 1 32.8555 4.89516 32.9962 9.73693L33 16.9918H39C40.5911 16.9918 41.9032 18.2471 41.9949 19.8162L42 44C42 45.591 40.7447 46.9032 39.1756 46.9949L9 47C7.40896 47 6.09681 45.7447 6.00512 44.1756L6 19.9918C6 18.4008 7.25533 17.0886 8.82441 16.9969L15 16.9918V10.002C15 5.03809 19.0376 1 24 1ZM24 26C22.3431 26 21 27.3432 21 29.0002C21 30.0386 21.5335 30.9442 22.336 31.4816L22.5 31.5841V36.5004L22.5069 36.6448C22.5795 37.4054 23.2201 38 24 38C24.7799 38 25.4205 37.4054 25.4931 36.6448L25.5 36.5004V31.5841L25.664 31.4816C26.4665 30.9442 27 30.0386 27 29.0002C27 27.3432 25.6569 26 24 26ZM18.0041 9.78122C18.1227 6.57315 20.7666 4 24 4C27.3086 4 30 6.69422 30 10.006V17H18L18.0041 9.78122Z" class="svg-primary-fill" clip-rule="evenodd"/>
  </g>
</svg>
