<svg xmlns="http://www.w3.org/2000/svg" width="48" height="48" viewBox="0 0 48 48">
  <g class="neo-icon-kit--lounge">
    <path fill="#006FCF" fill-rule="evenodd" d="M5.5 9.5L22.5 26.5V41H15C14.1716 41 13.5 41.6716 13.5 42.5V42.5C13.5 43.3284 14.1716 44 15 44H33C33.8284 44 34.5 43.3284 34.5 42.5V42.5C34.5 41.6716 33.8284 41 33 41H25.5V26.5L42.5 9.5C43.5 8.5 44 8 44 6.5C44 4.80066 42.6224 4 40.9231 4H7.07692C5.37759 4 4 4.80066 4 6.5C4 8 4.5 8.5 5.5 9.5ZM14 14L24 24L34 14H14ZM11.0588 11.0588L7.07692 7.07692H40.9231L37 11L11.0588 11.0588Z" class="svg-primary-fill" clip-rule="evenodd"/>
  </g>
</svg>
