<svg xmlns="http://www.w3.org/2000/svg" width="48" height="48" viewBox="0 0 48 48">
  <g class="neo-icon-kit--luggage">
    <g fill="#006FCF" class="svg-primary-fill">
      <path d="M17.5 35.5C18.3284 35.5 19 34.8284 19 34L19 22C19 21.1716 18.3284 20.5 17.5 20.5 16.6716 20.5 16 21.1716 16 22L16 34C16 34.8284 16.6716 35.5 17.5 35.5zM32 34C32 34.8284 31.3284 35.5 30.5 35.5 29.6716 35.5 29 34.8284 29 34L29 22C29 21.1716 29.6716 20.5 30.5 20.5 31.3284 20.5 32 21.1716 32 22L32 34zM24 35.5C24.8284 35.5 25.5 34.8284 25.5 34L25.5 22C25.5 21.1716 24.8284 20.5 24 20.5 23.1716 20.5 22.5 21.1716 22.5 22L22.5 34C22.5 34.8284 23.1716 35.5 24 35.5z"/>
      <path fill-rule="evenodd" d="M36 13H30V3.5C30 2.67157 29.3284 2 28.5 2H19.5C19.4482 2 19.3971 2.00262 19.3466 2.00774C18.5903 2.08456 18 2.72335 18 3.5L18 13H12C10.3431 13 9 14.3431 9 16V40C9 41.6569 10.3431 43 12 43C12 44.6569 13.3431 46 15 46C16.6569 46 18 44.6569 18 43H30C30 44.6569 31.3431 46 33 46C34.6569 46 36 44.6569 36 43C37.6569 43 39 41.6569 39 40V16C39 14.3431 37.6569 13 36 13ZM27 13H21L21 5L27 5V13ZM36 40H12V16H36V40Z" clip-rule="evenodd"/>
    </g>
  </g>
</svg>
