<svg xmlns="http://www.w3.org/2000/svg" width="48" height="48" viewBox="0 0 48 48">
  <g class="neo-icon-kit--map-view">
    <path fill="#006FCF" fill-rule="evenodd" d="M5 10.9449L5 39.487L12.6641 35.9132C12.9361 35.7864 13.2156 35.681 13.5 35.5973V7.64192L5 10.9449ZM17.0758 35.6664C16.8859 35.6024 16.6937 35.5483 16.5 35.5042V7.51171L30.9242 12.3693C31.1141 12.4333 31.3063 12.4874 31.5 12.5316V40.524L17.0758 35.6664ZM34.5 40.1864L43 36.2229L43 8.54874L35.3359 12.1225C35.0639 12.2493 34.7844 12.3547 34.5 12.4384V40.1864ZM3.92306 8.11595L13.9954 4.20203C14.6449 3.94967 15.361 3.93323 16.0211 4.15554L31.8729 9.49395C32.5969 9.73779 33.3858 9.69365 34.0787 9.37052L41.7428 5.79678C43.7307 4.86985 46 6.3368 46 8.54874V36.2229C46 37.4051 45.3196 38.4794 44.2572 38.9749L34.0787 43.721C33.3858 44.0442 32.5969 44.0883 31.8729 43.8445L16.1271 38.5418C15.4031 38.2979 14.6142 38.3421 13.9213 38.6652L6.25717 42.2389C4.26931 43.1659 2 41.6989 2 39.487V10.9449C2 9.69075 2.76449 8.56615 3.92306 8.11595Z" class="svg-primary-fill" clip-rule="evenodd"/>
  </g>
</svg>
