<svg xmlns="http://www.w3.org/2000/svg" width="48" height="48" viewBox="0 0 48 48">
  <g class="neo-icon-kit--maximum">
    <g fill="#006FCF" class="svg-primary-fill">
      <path d="M6.87976 19.0917C5.70675 20.2108 5.70675 22.0419 6.87976 23.1607C8.05277 24.2797 9.97205 24.2797 11.145 23.1607L24.9999 9.94282L38.855 23.1606C40.028 24.2797 41.9473 24.2797 43.1202 23.1606C44.2933 22.0418 44.2933 20.2106 43.1202 19.0916L27.1327 3.83927C25.9597 2.72024 24.0403 2.72024 22.8673 3.83927L6.87976 19.0917Z"/>
      <path d="M6.87976 40.0917C5.70675 41.2108 5.70675 43.0419 6.87976 44.1607C8.05277 45.2797 9.97205 45.2797 11.145 44.1607L24.9999 30.9428L38.855 44.1606C40.028 45.2797 41.9473 45.2797 43.1202 44.1606C44.2933 43.0418 44.2933 41.2106 43.1202 40.0916L27.1327 24.8393C25.9597 23.7202 24.0403 23.7202 22.8673 24.8393L6.87976 40.0917Z"/>
    </g>
  </g>
</svg>
