<svg xmlns="http://www.w3.org/2000/svg" width="48" height="48" viewBox="0 0 48 48">
  <g class="neo-icon-kit--medical">
    <path fill="#006FCF" d="M32 5C32.7652 4.99996 33.5015 5.29233 34.0583 5.81728C34.615 6.34224 34.9501 7.06011 34.995 7.824L35 11H45C45.7956 11 46.5587 11.3161 47.1213 11.8787C47.6839 12.4413 48 13.2044 48 14V39C48 39.7956 47.6839 40.5587 47.1213 41.1213C46.5587 41.6839 45.7956 42 45 42H3C2.20435 42 1.44129 41.6839 0.87868 41.1213C0.31607 40.5587 0 39.7956 0 39L0 14C0 13.2044 0.31607 12.4413 0.87868 11.8787C1.44129 11.3161 2.20435 11 3 11H13V8C13 7.23479 13.2923 6.49849 13.8173 5.94174C14.3422 5.38499 15.0601 5.04989 15.824 5.005L32 5ZM45 14H3V39H45V14ZM25.5 17C26.2652 17 27.0015 17.2923 27.5583 17.8173C28.115 18.3422 28.4501 19.0601 28.495 19.824L28.5 22H30.5C31.2351 21.9999 31.9447 22.2697 32.494 22.7582C33.0434 23.2467 33.3942 23.9199 33.48 24.65L33.495 24.824L33.5 28C33.5 28.7652 33.2077 29.5015 32.6827 30.0583C32.1578 30.615 31.4399 30.9501 30.676 30.995L28.5 31V33C28.5001 33.7351 28.2303 34.4447 27.7418 34.994C27.2533 35.5434 26.5801 35.8942 25.85 35.98L25.676 35.995L22.5 36C21.7348 36 20.9985 35.7077 20.4417 35.1827C19.885 34.6578 19.5499 33.9399 19.505 33.176L19.5 31H17.5C16.7649 31.0001 16.0553 30.7303 15.506 30.2418C14.9566 29.7533 14.6058 29.0801 14.52 28.35L14.505 28.176L14.5 25C14.5 24.2348 14.7923 23.4985 15.3173 22.9417C15.8422 22.385 16.5601 22.0499 17.324 22.005L19.5 22V20C19.4999 19.2649 19.7697 18.5553 20.2582 18.006C20.7467 17.4566 21.4199 17.1058 22.15 17.02L22.324 17.005L25.5 17ZM25.5 20H22.5V25H17.5V28H22.5V33H25.5V28H30.5V25H25.5V20ZM16 8V11H32V8H16Z" class="svg-primary-fill"/>
  </g>
</svg>
