<svg xmlns="http://www.w3.org/2000/svg" width="48" height="48" viewBox="0 0 48 48">
  <g class="neo-icon-kit--medical-filled">
    <path fill="#006FCF" d="M32 5C32.7652 4.99996 33.5015 5.29233 34.0583 5.81728C34.615 6.34224 34.9501 7.06011 34.995 7.824L35 11H45C45.7956 11 46.5587 11.3161 47.1213 11.8787C47.6839 12.4413 48 13.2044 48 14V39C48 39.7956 47.6839 40.5587 47.1213 41.1213C46.5587 41.6839 45.7956 42 45 42H3C2.20435 42 1.44129 41.6839 0.87868 41.1213C0.31607 40.5587 0 39.7956 0 39L0 14C0 13.2044 0.31607 12.4413 0.87868 11.8787C1.44129 11.3161 2.20435 11 3 11H13V8C13 7.23479 13.2923 6.49849 13.8173 5.94174C14.3422 5.38499 15.0601 5.04989 15.824 5.005L32 5ZM25.5 17L22.324 17.005C21.5601 17.0499 20.8422 17.385 20.3173 17.9417C19.7923 18.4985 19.5 19.2348 19.5 20V22H17.5C16.7044 22 15.9413 22.3161 15.3787 22.8787C14.8161 23.4413 14.5 24.2044 14.5 25L14.505 28.176C14.5499 28.9399 14.885 29.6578 15.4417 30.1827C15.9985 30.7077 16.7348 31 17.5 31H19.5V33C19.5 33.7956 19.8161 34.5587 20.3787 35.1213C20.9413 35.6839 21.7044 36 22.5 36L25.676 35.995C26.4399 35.9501 27.1578 35.615 27.6827 35.0583C28.2077 34.5015 28.5 33.7652 28.5 33V31H30.5C31.2956 31 32.0587 30.6839 32.6213 30.1213C33.1839 29.5587 33.5 28.7956 33.5 28L33.495 24.824C33.4501 24.0601 33.115 23.3422 32.5583 22.8173C32.0015 22.2923 31.2652 22 30.5 22H28.5V20C28.5 19.2044 28.1839 18.4413 27.6213 17.8787C27.0587 17.3161 26.2956 17 25.5 17ZM25.5 20V25H30.5V28H25.5V33H22.5V28H17.5V25H22.5V20H25.5ZM32 8H16V11H32V8Z" class="svg-primary-fill"/>
  </g>
</svg>
