<svg xmlns="http://www.w3.org/2000/svg" width="32" height="32" viewBox="0 0 32 32">
  <g class="neo-icon-kit--meeting">
    <path fill="#444B61" fill-rule="evenodd" d="M16 30C23.732 30 30 23.732 30 16C30 8.26801 23.732 2 16 2C8.26801 2 2 8.26801 2 16C2 23.732 8.26801 30 16 30ZM32 16C32 24.8366 24.8366 32 16 32C7.16344 32 0 24.8366 0 16C0 7.16344 7.16344 0 16 0C24.8366 0 32 7.16344 32 16Z" class="svg-secondary-fill" clip-rule="evenodd"/>
    <g fill="#444B61" class="svg-primary-fill">
      <path d="M23.5911 11.9429C23.5911 12.799 22.8971 13.4929 22.0411 13.4929 21.185 13.4929 20.4911 12.799 20.4911 11.9429 20.4911 11.0869 21.185 10.3929 22.0411 10.3929 22.8971 10.3929 23.5911 11.0869 23.5911 11.9429zM23.323 14.837C23.323 14.31 22.717 13.88 21.978 13.88 21.238 13.88 20.632 14.31 20.632 14.837V18.5H18.024C17.9993 18.5 17.9746 18.501 17.95 18.503 17.9268 18.501 17.9034 18.5 17.88 18.5 17.371 18.5 16.955 18.931 16.955 19.458L16.345 23.799C16.345 24.326 16.762 24.757 17.271 24.757 17.779 24.757 18.196 24.326 18.196 23.799L18.805 20.349H22.365C22.892 20.349 23.323 19.933 23.323 19.425 23.3228 19.3808 23.3195 19.3367 23.313 19.293 23.3194 19.2557 23.3228 19.2179 23.323 19.18V14.837z"/>
      <path d="M19.7156 17.8893C19.7697 17.8355 19.8001 17.7623 19.8001 17.686H19.7991V17.432C19.7991 17.273 19.6711 17.145 19.5121 17.145H12.1541C11.9951 17.145 11.8671 17.273 11.8671 17.432V17.686C11.8671 17.7621 11.8973 17.8351 11.9511 17.889 12.0049 17.9428 12.0779 17.973 12.1541 17.973H19.5121C19.5883 17.9733 19.6616 17.9432 19.7156 17.8893zM23.1831 21.522C23.2981 21.522 23.3921 21.394 23.3921 21.235V20.981C23.3921 20.822 23.2981 20.694 23.1831 20.694H19.4211C19.3061 20.694 19.2131 20.822 19.2131 20.981V21.235C19.2131 21.394 19.3061 21.522 19.4211 21.522H23.1831zM12.5671 21.235C12.5671 21.394 12.4741 21.522 12.3591 21.522H8.44505C8.32905 21.522 8.23605 21.394 8.23605 21.235V20.981C8.23605 20.822 8.32905 20.694 8.44505 20.694H12.3591C12.4741 20.694 12.5671 20.822 12.5671 20.981V21.235zM9.67305 13.637C10.5291 13.637 11.223 12.943 11.223 12.087 11.223 11.2309 10.5291 10.537 9.67305 10.537 8.81701 10.537 8.12305 11.2309 8.12305 12.087 8.12305 12.943 8.81701 13.637 9.67305 13.637z"/>
      <path d="M13.7 18.5019C13.7233 18.5004 13.7467 18.4997 13.77 18.4999 14.279 18.4999 14.695 18.9299 14.695 19.4569L15.304 23.7979C15.304 24.3249 14.888 24.7559 14.38 24.7559 13.871 24.7559 13.455 24.3249 13.455 23.7989L12.845 20.3489H9.28503C8.75803 20.3489 8.32803 19.9329 8.32803 19.4249V15.0499C8.32803 14.5229 8.93303 14.0929 9.67303 14.0929 10.412 14.0929 11.018 14.5239 11.018 15.0489V18.4989H13.626C13.6507 18.4991 13.6754 18.5001 13.7 18.5019zM17.459 11.978C17.459 12.834 16.7651 13.528 15.909 13.528 15.053 13.528 14.359 12.834 14.359 11.978 14.359 11.1219 15.053 10.428 15.909 10.428 16.7651 10.428 17.459 11.1219 17.459 11.978zM18.2421 16.042V14.576C18.2421 14.133 17.892 13.771 17.4641 13.771H16.436L15.909 14.386 15.383 13.771H14.353C13.926 13.771 13.576 14.133 13.576 14.576V16.042C14.2795 16.4683 15.0865 16.6931 15.909 16.692 16.762 16.692 17.561 16.455 18.2421 16.042z"/>
    </g>
  </g>
</svg>
