<svg xmlns="http://www.w3.org/2000/svg" width="48" height="48" viewBox="0 0 48 48">
  <g class="neo-icon-kit--membership">
    <path fill="#006FCF" fill-rule="evenodd" d="M25.8173 0.427751L25.6032 0.327497C24.4467 -0.171546 23.0674 -0.100254 21.9745 0.541372L5.02692 10.4834L4.83351 10.6045C3.6972 11.3617 3 12.6626 3 14.053V33.9375L3.00641 34.1684C3.08308 35.5478 3.84264 36.8117 5.0274 37.5066L21.9755 47.4491L22.2099 47.5763C22.7654 47.8542 23.379 48 24 48C24.7097 48 25.4098 47.8095 26.0255 47.4491L42.9716 37.5066L43.1653 37.3856C44.3028 36.6288 45 35.3283 45 33.9375V14.053L44.9936 13.8222C44.9169 12.4431 44.1574 11.1788 42.9726 10.4834L26.0255 0.541372L25.8173 0.427751ZM23.577 3.0857C23.7105 3.02939 23.8544 3 24 3C24.1941 3 24.3853 3.05225 24.5527 3.15089L41.4492 13.0914L41.5575 13.1641C41.833 13.374 42 13.7069 42 14.0607V33.9422L41.9923 34.0736C41.9517 34.4203 41.7518 34.7339 41.4492 34.911L24.5536 44.852L24.4381 44.9105C24.1216 45.0469 23.7448 45.0274 23.4473 44.852L6.5498 34.911L6.44167 34.8385C6.16659 34.629 6 34.2964 6 33.9422V14.0607L6.0077 13.9292C6.04843 13.5823 6.2485 13.2689 6.5498 13.0914L23.4473 3.15089L23.577 3.0857ZM27.4708 10.3465C29.302 11.3578 30.4751 13.1781 30.6758 15.7059L30.6985 16.0428L30.7251 16.3692C30.8085 17.6618 30.7239 19.1194 30.3324 20.5413C30.019 21.6798 29.5304 22.6824 28.8311 23.4982L28.8958 23.7569C28.9068 23.7975 28.918 23.8368 28.9293 23.8745L28.9807 24.034L29.0071 24.1059L29.5782 24.4266L30.9791 25.2268C31.3878 25.4629 31.8038 25.7058 32.2236 25.9536L33.5686 26.7583C35.4558 27.8883 36.2752 29.252 36.4744 31.2543L36.5053 31.635L36.4929 31.7617C36.3424 33.3022 35.0679 34.5 33.5129 34.5L14.4135 34.4982L14.197 34.486C12.7721 34.347 11.656 33.2066 11.508 31.7801L11.4943 31.6479L11.5271 31.2524C11.7307 29.2646 12.5564 27.8963 14.4231 26.763C15.2324 26.2717 16.0716 25.7758 16.9121 25.2893L17.7519 24.8065L18.9834 24.1105L19.028 23.9768L19.085 23.7744L19.1539 23.4822L18.9525 23.2329C18.3668 22.4686 17.9466 21.5593 17.6663 20.5413C17.314 19.2616 17.2102 17.953 17.2538 16.7617L17.2736 16.3692L17.3172 15.7765C17.6778 11.3369 20.5561 9.55923 23.7536 9.50095L23.9721 9.50312C24.9916 9.46449 26.2648 9.68044 27.4708 10.3465ZM23.792 12.5008L24.0207 12.502C24.6067 12.4812 25.363 12.6095 26.0205 12.9726C27.0112 13.5198 27.6217 14.5061 27.7067 16.2558L27.7313 16.5623L27.7476 16.8973C27.7776 17.8042 27.6965 18.8136 27.44 19.745C27.1833 20.6775 26.7781 21.4017 26.2242 21.8752L25.6075 22.4023L25.7111 23.207C25.7319 23.3685 25.7562 23.4981 25.7896 23.635L25.8292 23.7922C26.0928 25.1876 26.3731 26.0257 27.1877 26.5249L28.2997 27.1501L28.8819 27.4815C29.4711 27.8186 30.0794 28.1715 30.691 28.5325L32.0279 29.3324C33.0454 29.9417 33.375 30.4493 33.4844 31.5H14.5172C14.6301 30.461 14.9696 29.9408 15.9799 29.3274C16.7703 28.8476 17.5923 28.3619 18.4162 27.885L19.5218 27.2508L20.687 26.5958L20.8037 26.5242L20.8829 26.4705L21.0078 26.3759C21.612 25.8667 21.8606 25.1787 22.0975 24.0628L22.1627 23.7482L22.2092 23.5814L22.4619 22.4627L21.7745 21.8752C21.2206 21.4017 20.8154 20.6775 20.5587 19.745C20.3022 18.8136 20.2212 17.8042 20.2511 16.8973L20.2674 16.5623L20.3091 15.9947C20.4311 14.4953 20.9811 13.5895 21.8488 13.0536C22.3778 12.7268 22.9932 12.5593 23.5549 12.5132L23.792 12.5008Z" class="svg-primary-fill" clip-rule="evenodd"/>
  </g>
</svg>
