<svg xmlns="http://www.w3.org/2000/svg" width="48" height="48" viewBox="0 0 48 48">
  <g class="neo-icon-kit--membership-filled">
    <path fill="#006FCF" fill-rule="evenodd" d="M25.8173 0.427751L25.6032 0.327497C24.4467 -0.171546 23.0674 -0.100254 21.9745 0.541372L5.02692 10.4834L4.83351 10.6045C3.6972 11.3617 3 12.6626 3 14.053V33.9375L3.00641 34.1684C3.08308 35.5478 3.84264 36.8117 5.0274 37.5066L21.9755 47.4491L22.2099 47.5763C22.7654 47.8542 23.379 48 24 48C24.7097 48 25.4098 47.8095 26.0255 47.4491L42.9716 37.5066L43.1653 37.3856C44.3028 36.6288 45 35.3283 45 33.9375V14.053L44.9936 13.8222C44.9169 12.4431 44.1574 11.1788 42.9726 10.4834L26.0255 0.541372L25.8173 0.427751ZM23.7809 11.0007L24.0289 11.002C24.6215 10.9796 28.9556 11.0509 29.2049 16.183C29.2049 16.183 29.7382 20.8448 27.1988 23.0154C27.2141 23.1337 27.2297 23.2094 27.2469 23.2799L27.2836 23.4253C27.4106 24.0913 27.6559 25.0854 28.0368 25.2827C28.0368 25.2827 29.5708 26.1295 31.4535 27.2408L32.7981 28.0452C34.4664 29.0442 34.893 30.1329 35 31.6159C34.9242 32.3918 34.2915 33 33.5129 33H14.4862L14.3426 32.993C13.6341 32.9239 13.075 32.3486 13 31.6253C13.1095 30.1375 13.5525 29.0463 15.2015 28.0452C17.6391 26.5654 19.9619 25.2827 19.9619 25.2827L20.0411 25.229C20.3227 24.9917 20.5083 24.3254 20.6302 23.7513L20.6905 23.4504C20.7079 23.383 20.7211 23.3361 20.7326 23.2951C20.7413 23.2641 20.7491 23.2363 20.7571 23.2055L20.7999 23.0154C18.2606 20.8448 18.7938 16.183 18.7938 16.183L18.8123 15.8979C19.1759 11.4213 22.788 11.0188 23.7809 11.0007Z" class="svg-primary-fill" clip-rule="evenodd"/>
  </g>
</svg>
