<svg xmlns="http://www.w3.org/2000/svg" width="48" height="48" viewBox="0 0 48 48">
  <g class="neo-icon-kit--menu-filled">
    <path fill="#006FCF" fill-rule="evenodd" d="M20 12C20 9.79086 21.7909 8 24 8C26.2091 8 28 9.79086 28 12C28 14.2091 26.2091 16 24 16C21.7909 16 20 14.2091 20 12ZM20 24C20 21.7909 21.7909 20 24 20C26.2091 20 28 21.7909 28 24C28 26.2091 26.2091 28 24 28C21.7909 28 20 26.2091 20 24ZM24 32C21.7909 32 20 33.7909 20 36C20 38.2091 21.7909 40 24 40C26.2091 40 28 38.2091 28 36C28 33.7909 26.2091 32 24 32Z" class="svg-primary-fill" clip-rule="evenodd"/>
  </g>
</svg>
