<svg xmlns="http://www.w3.org/2000/svg" width="48" height="48" viewBox="0 0 48 48">
  <g class="neo-icon-kit--merchandise-filled">
    <path fill="#006FCF" fill-rule="evenodd" d="M32.9962 8.73506C32.8555 3.89469 28.8743 0 24 0C19.0371 0 15 4.0376 15 9H12L11.8244 9.00512C10.2553 9.09681 9 10.4089 9 12L6 45L6.00512 45.1756C6.09681 46.7447 7.40891 48 9 48H39.0001L39.1756 47.9949C40.7447 47.9032 42.0001 46.591 42.0001 45L39.0001 12L38.9949 11.8244C38.9032 10.2553 37.5911 9 36.0001 9H33L32.9962 8.73506ZM18.0041 8.77539C18.1227 5.57046 20.7666 3 24 3C27.3086 3 30 5.69141 30 9H18L18.0041 8.77539Z" class="svg-primary-fill" clip-rule="evenodd"/>
  </g>
</svg>
