<svg xmlns="http://www.w3.org/2000/svg" width="48" height="48" viewBox="0 0 48 48">
  <g class="neo-icon-kit--merchandise">
    <path fill="#006FCF" fill-rule="evenodd" d="M24 0C28.8743 0 32.8555 3.89469 32.9962 8.73506L33 9H36.0001C37.5911 9 38.9032 10.2553 38.9949 11.8244L39.0001 12L42.0001 45C42.0001 46.591 40.7447 47.9032 39.1756 47.9949L39.0001 48H9C7.40891 48 6.09681 46.7447 6.00512 45.1756L6 45L9 12C9 10.4089 10.2553 9.09681 11.8244 9.00512L12 9H15C15 4.0376 19.0371 0 24 0ZM14.9925 12H11.9901L11.987 12.1359L11.9777 12.2716L9 45H39L36.0223 12.2716L36.013 12.1359L36.0099 12H33.0074V15C33.0074 15.8284 32.3353 16.5 31.5062 16.5C30.7258 16.5 30.0845 15.9051 30.0118 15.1445L30.0049 15V12H17.995V15C17.995 15.8284 17.3229 16.5 16.4938 16.5C15.7134 16.5 15.0722 15.9051 14.9994 15.1445L14.9925 15V12ZM18.0041 8.77539C18.1227 5.57046 20.7666 3 24 3C27.3086 3 30 5.69141 30 9H18L18.0041 8.77539Z" class="svg-primary-fill" clip-rule="evenodd"/>
  </g>
</svg>
