<svg xmlns="http://www.w3.org/2000/svg" width="48" height="48" viewBox="0 0 48 48">
  <g class="neo-icon-kit--merge">
    <path fill="#006FCF" d="M36.4393 16.9393C37.0251 16.3536 37.9749 16.3536 38.5607 16.9393L44.5607 22.9393C45.1464 23.5251 45.1464 24.4749 44.5607 25.0607L38.5607 31.0607C37.9749 31.6464 37.0251 31.6464 36.4393 31.0607C35.8536 30.4749 35.8536 29.5251 36.4393 28.9393L39.8787 25.5H33H29.0084C28.9563 25.5015 28.9043 25.5047 28.8524 25.5087C28.7246 25.5186 28.5254 25.5395 28.2714 25.5835C27.7619 25.6717 27.0428 25.8506 26.2405 26.2116C24.6609 26.9225 22.7035 28.3604 21.3707 31.3592C19.7035 35.1104 17.1609 37.0475 14.9905 38.0241C13.9178 38.5069 12.9494 38.7498 12.2402 38.8726C11.8848 38.9341 11.5918 38.9659 11.3797 38.9823C11.2736 38.9906 11.1874 38.995 11.1234 38.9973C11.0914 38.9985 11.065 38.9992 11.0443 38.9996L11.0177 38.9999L11.0077 39L11.0036 39L11.0017 39C11.0017 39 11 39 11 37.5V39H4.5C3.67157 39 3 38.3284 3 37.5C3 36.6716 3.67157 36 4.5 36H10.9916L11.0128 35.9994C11.0382 35.9984 11.0839 35.9963 11.1476 35.9913C11.2754 35.9814 11.4746 35.9605 11.7286 35.9165C12.2381 35.8283 12.9572 35.6494 13.7595 35.2884C15.3391 34.5775 17.2965 33.1396 18.6293 30.1408C20.0391 26.9687 22.0749 25.0939 23.9823 24C22.0749 22.9061 20.0391 21.0313 18.6293 17.8592C17.2965 14.8604 15.3391 13.4225 13.7595 12.7116C12.9572 12.3506 12.2381 12.1717 11.7286 12.0835C11.4746 12.0395 11.2754 12.0186 11.1476 12.0087C11.0839 12.0037 11.0382 12.0016 11.0128 12.0006L10.9916 12H4.5C3.67157 12 3 11.3284 3 10.5C3 9.67157 3.67157 9 4.5 9H11C11.0207 9.00037 11.0914 9.00149 11.1234 9.00267C11.1874 9.00503 11.2736 9.00944 11.3797 9.01768C11.5918 9.03413 11.8848 9.06593 12.2402 9.12744C12.9494 9.25019 13.9178 9.49313 14.9905 9.97587C17.1609 10.9525 19.7035 12.8896 21.3707 16.6408C22.7035 19.6396 24.6609 21.0775 26.2405 21.7884C27.0428 22.1494 27.7619 22.3283 28.2714 22.4165C28.5254 22.4605 28.7246 22.4814 28.8524 22.4913C28.9043 22.4953 28.9563 22.4985 29.0084 22.5L33 22.5H39.8787L36.4393 19.0607C35.8536 18.4749 35.8536 17.5251 36.4393 16.9393Z" class="svg-primary-fill"/>
  </g>
</svg>
