<svg xmlns="http://www.w3.org/2000/svg" width="48" height="48" viewBox="0 0 48 48">
  <g class="neo-icon-kit--merge-filled">
    <path fill="#006FCF" fill-rule="evenodd" d="M11.0017 39.5L11 39.5H4.5C3.39543 39.5 2.5 38.6046 2.5 37.5C2.5 36.3954 3.39543 35.5 4.5 35.5H10.9842L10.9944 35.4997L10.996 35.4996C11.0155 35.4989 11.0538 35.4971 11.109 35.4928C11.2227 35.484 11.4062 35.4649 11.6433 35.4238C12.1195 35.3414 12.7971 35.1731 13.5543 34.8324C15.0353 34.1659 16.8953 32.8113 18.1724 29.9377C19.4585 27.044 21.2568 25.1827 23.0326 24C21.2568 22.8173 19.4585 20.956 18.1724 18.0623C16.8953 15.1887 15.0353 13.8341 13.5543 13.1676C12.7971 12.8269 12.1195 12.6586 11.6433 12.5762C11.4062 12.5351 11.2227 12.516 11.109 12.5072C11.0539 12.5029 11.0156 12.5011 10.9961 12.5004L10.9842 12.5H4.5C3.39543 12.5 2.5 11.6046 2.5 10.5C2.5 9.39543 3.39543 8.5 4.5 8.5H11.009C11.0111 8.50004 11.0141 8.50017 11.0179 8.50024C11.0444 8.50069 11.1085 8.50178 11.1418 8.50301C11.2122 8.5056 11.3052 8.51039 11.4184 8.51918C11.6445 8.53672 11.9532 8.57033 12.3255 8.63477C13.068 8.76328 14.0779 9.01688 15.1957 9.51991C17.4645 10.5408 20.1047 12.5611 21.8276 16.4377C23.1047 19.3113 24.9647 20.6659 26.4457 21.3324C27.2029 21.6731 27.8805 21.8414 28.3567 21.9238C28.5938 21.9649 28.7773 21.984 28.891 21.9928C28.9347 21.9962 28.9762 21.9987 29.0162 22L38.6716 22L36.0858 19.4142C35.3047 18.6332 35.3047 17.3668 36.0858 16.5858C36.8668 15.8047 38.1332 15.8047 38.9142 16.5858L44.9142 22.5858C45.6953 23.3668 45.6953 24.6332 44.9142 25.4142L38.9142 31.4142C38.1332 32.1953 36.8668 32.1953 36.0858 31.4142C35.3047 30.6332 35.3047 29.3668 36.0858 28.5858L38.6716 26H29.0162C28.9762 26.0013 28.9348 26.0038 28.891 26.0072C28.7773 26.016 28.5938 26.0351 28.3567 26.0762C27.8805 26.1586 27.2029 26.3269 26.4457 26.6676C24.9647 27.3341 23.1047 28.6887 21.8276 31.5623C20.1047 35.4389 17.4645 37.4592 15.1957 38.4801C14.0779 38.9831 13.068 39.2367 12.3255 39.3652C11.9962 39.4222 11.7167 39.4551 11.5 39.4741V39.5L11.0027 39.5L11.0017 39.5Z" class="svg-primary-fill" clip-rule="evenodd"/>
  </g>
</svg>
