<svg xmlns="http://www.w3.org/2000/svg" width="48" height="48" viewBox="0 0 48 48">
  <g class="neo-icon-kit--minibar-filled">
    <path fill="#006FCF" fill-rule="evenodd" d="M9 2C7.34315 2 6 3.34315 6 5V41C6 42.6569 7.34315 44 9 44L9 45.5C9 46.3284 9.67157 47 10.5 47C11.3284 47 12 46.3284 12 45.5V44H36V45.5C36 46.3284 36.6716 47 37.5 47C38.3284 47 39 46.3284 39 45.5V44C40.6569 44 42 42.6569 42 41V5C42 3.34315 40.6569 2 39 2H9ZM15 8.5C15 7.67157 14.3284 7 13.5 7C12.6716 7 12 7.67157 12 8.5V11.5C12 12.3284 12.6716 13 13.5 13C14.3284 13 15 12.3284 15 11.5V8.5ZM13.5 24C14.3284 24 15 24.6716 15 25.5V34.5C15 35.3284 14.3284 36 13.5 36C12.6716 36 12 35.3284 12 34.5L12 25.5C12 24.6716 12.6716 24 13.5 24ZM10.5 17C9.67157 17 9 17.6716 9 18.5C9 19.3284 9.67157 20 10.5 20H37.5C38.3284 20 39 19.3284 39 18.5C39 17.6716 38.3284 17 37.5 17H10.5Z" class="svg-primary-fill" clip-rule="evenodd"/>
  </g>
</svg>
