<svg xmlns="http://www.w3.org/2000/svg" width="48" height="48" viewBox="0 0 48 48">
  <g class="neo-icon-kit--minimum">
    <g fill="#006FCF" class="svg-primary-fill">
      <path d="M43.1202 7.90828C44.2933 6.78925 44.2933 4.95812 43.1202 3.83929C41.9472 2.72026 40.0279 2.72026 38.855 3.83929L25.0001 17.0572L11.145 3.83937C9.97202 2.72034 8.05274 2.72034 6.87976 3.83937C5.70675 4.9582 5.70675 6.78936 6.87976 7.90836L22.8673 23.1607C24.0403 24.2798 25.9597 24.2798 27.1327 23.1607L43.1202 7.90828Z"/>
      <path d="M43.1202 28.9083C44.2933 27.7893 44.2933 25.9581 43.1202 24.8393C41.9472 23.7203 40.0279 23.7203 38.855 24.8393L25.0001 38.0572L11.145 24.8394C9.97202 23.7203 8.05274 23.7203 6.87976 24.8394C5.70675 25.9582 5.70675 27.7894 6.87976 28.9084L22.8673 44.1607C24.0403 45.2798 25.9597 45.2798 27.1327 44.1607L43.1202 28.9083Z"/>
    </g>
  </g>
</svg>
