<svg xmlns="http://www.w3.org/2000/svg" width="48" height="48" viewBox="0 0 48 48">
  <g class="neo-icon-kit--minibar">
    <g fill="#006FCF" class="svg-primary-fill">
      <path d="M13.5 8C14.3284 8 15 8.67157 15 9.5V12.5C15 13.3284 14.3284 14 13.5 14 12.6716 14 12 13.3284 12 12.5V9.5C12 8.67157 12.6716 8 13.5 8zM13.5 23C14.3284 23 15 23.6716 15 24.5V33.5C15 34.3284 14.3284 35 13.5 35 12.6716 35 12 34.3284 12 33.5L12 24.5C12 23.6716 12.6716 23 13.5 23z"/>
      <path fill-rule="evenodd" d="M6 5C6 3.34315 7.34315 2 9 2H39C40.6569 2 42 3.34315 42 5V41C42 42.6569 40.6569 44 39 44V45.5C39 46.3284 38.3284 47 37.5 47C36.6716 47 36 46.3284 36 45.5V44H12V45.5C12 46.3284 11.3284 47 10.5 47C9.67157 47 9 46.3284 9 45.5L9 44C7.34315 44 6 42.6569 6 41V5ZM9 5H39V17H9L9 5ZM39 20V41H9L9 20H39Z" clip-rule="evenodd"/>
    </g>
  </g>
</svg>
