<svg xmlns="http://www.w3.org/2000/svg" width="48" height="48" viewBox="0 0 48 48">
  <g class="neo-icon-kit--minus-circle">
    <path fill="#006FCF" fill-rule="evenodd" d="M24 0C37.2548 0 48 10.7452 48 24C48 37.2548 37.2548 48 24 48C10.7452 48 0 37.2548 0 24C0 10.7452 10.7452 0 24 0ZM24 3C12.4205 3 3 12.4205 3 24C3 35.5794 12.4205 45 24 45C35.5795 45 45 35.5794 45 24C45 12.4205 35.5795 3 24 3ZM36 24C36 22.8954 35.1046 22 34 22H14L13.8507 22.0055C12.8159 22.0818 12 22.9456 12 24C12 25.1046 12.8954 26 14 26H34L34.1493 25.9945C35.1841 25.9182 36 25.0544 36 24Z" class="svg-primary-fill" clip-rule="evenodd"/>
  </g>
</svg>
