<svg xmlns="http://www.w3.org/2000/svg" width="48" height="48" viewBox="0 0 48 48">
  <g class="neo-icon-kit--minus-circle-filled">
    <path fill="#006FCF" fill-rule="evenodd" d="M48 24C48 10.7452 37.2548 0 24 0C10.7452 0 0 10.7452 0 24C0 37.2548 10.7452 48 24 48C37.2548 48 48 37.2548 48 24ZM13.8507 22.0055L14 22H34L34.1493 22.0055C35.1841 22.0818 36 22.9456 36 24C36 25.0544 35.1841 25.9182 34.1493 25.9945L34 26H14L13.8507 25.9945C12.8159 25.9182 12 25.0544 12 24C12 22.9456 12.8159 22.0818 13.8507 22.0055Z" class="svg-primary-fill" clip-rule="evenodd"/>
  </g>
</svg>
