<svg xmlns="http://www.w3.org/2000/svg" width="48" height="48" viewBox="0 0 48 48">
  <g class="neo-icon-kit--mobile-check">
    <g fill="#006FCF" class="svg-primary-fill">
      <path fill-rule="evenodd" d="M35 0C36.6569 0 38 1.34315 38 3V45C38 46.6569 36.6569 48 35 48H13C11.3431 48 10 46.6569 10 45V3C10 1.34315 11.3431 0 13 0H35ZM29 5H19C17.8954 5 17 4.10457 17 3H13V45H35V3H31C31 4.10457 30.1046 5 29 5ZM26 40C26 38.8954 25.1046 38 24 38C22.8954 38 22 38.8954 22 40C22 41.1046 22.8954 42 24 42C25.1046 42 26 41.1046 26 40Z" clip-rule="evenodd"/>
      <path d="M21.5433 23.3354L18.6022 19.4826C18.0403 18.8738 17.0913 18.8359 16.4826 19.3978C15.8739 19.9597 15.8359 20.9087 16.3978 21.5174L20.3978 26.5174C20.9757 27.1434 21.9583 27.1631 22.5607 26.5607L31.5607 17.5607C32.1465 16.9749 32.1465 16.0251 31.5607 15.4393C30.9749 14.8536 30.0251 14.8536 29.4393 15.4393L21.5433 23.3354Z"/>
    </g>
  </g>
</svg>
