<svg xmlns="http://www.w3.org/2000/svg" width="48" height="48" viewBox="0 0 48 48">
  <g class="neo-icon-kit--mobile">
    <path fill="#006FCF" fill-rule="evenodd" d="M35 0C36.6569 0 38 1.34315 38 3V45C38 46.6569 36.6569 48 35 48H13C11.3431 48 10 46.6569 10 45V3C10 1.34315 11.3431 0 13 0H35ZM29 5H19C17.8954 5 17 4.10457 17 3H13V45H35V3H31C31 4.10457 30.1046 5 29 5ZM26 40C26 38.8954 25.1046 38 24 38C22.8954 38 22 38.8954 22 40C22 41.1046 22.8954 42 24 42C25.1046 42 26 41.1046 26 40Z" class="svg-primary-fill" clip-rule="evenodd"/>
  </g>
</svg>
