<svg xmlns="http://www.w3.org/2000/svg" width="48" height="48" viewBox="0 0 48 48">
  <g class="neo-icon-kit--month-view-filled">
    <path fill="#006FCF" fill-rule="evenodd" d="M34.5 3C33.6716 3 33 3.67157 33 4.5V6H15V4.5C15 3.67157 14.3284 3 13.5 3C12.6716 3 12 3.67157 12 4.5V6H8C6.89543 6 6 6.89543 6 8V43C6 44.1046 6.89543 45 8 45H40C41.1046 45 42 44.1046 42 43V8C42 6.89543 41.1046 6 40 6H36V4.5C36 3.67157 35.3284 3 34.5 3ZM12 10.5V9H9V15H39V9H36V10.5C36 11.3284 35.3284 12 34.5 12C33.6716 12 33 11.3284 33 10.5V9H15V10.5C15 11.3284 14.3284 12 13.5 12C12.6716 12 12 11.3284 12 10.5ZM15 22.5C15 21.6716 14.3284 21 13.5 21C12.6716 21 12 21.6716 12 22.5C12 23.3284 12.6716 24 13.5 24C14.3284 24 15 23.3284 15 22.5ZM13.5 26C14.3284 26 15 26.6716 15 27.5C15 28.3284 14.3284 29 13.5 29C12.6716 29 12 28.3284 12 27.5C12 26.6716 12.6716 26 13.5 26ZM15 32.5C15 31.6716 14.3284 31 13.5 31C12.6716 31 12 31.6716 12 32.5C12 33.3284 12.6716 34 13.5 34C14.3284 34 15 33.3284 15 32.5ZM13.5 36C14.3284 36 15 36.6716 15 37.5C15 38.3284 14.3284 39 13.5 39C12.6716 39 12 38.3284 12 37.5C12 36.6716 12.6716 36 13.5 36ZM22 22.5C22 21.6716 21.3284 21 20.5 21C19.6716 21 19 21.6716 19 22.5C19 23.3284 19.6716 24 20.5 24C21.3284 24 22 23.3284 22 22.5ZM20.5 26C21.3284 26 22 26.6716 22 27.5C22 28.3284 21.3284 29 20.5 29C19.6716 29 19 28.3284 19 27.5C19 26.6716 19.6716 26 20.5 26ZM22 32.5C22 31.6716 21.3284 31 20.5 31C19.6716 31 19 31.6716 19 32.5C19 33.3284 19.6716 34 20.5 34C21.3284 34 22 33.3284 22 32.5ZM20.5 36C21.3284 36 22 36.6716 22 37.5C22 38.3284 21.3284 39 20.5 39C19.6716 39 19 38.3284 19 37.5C19 36.6716 19.6716 36 20.5 36ZM29 22.5C29 21.6716 28.3284 21 27.5 21C26.6716 21 26 21.6716 26 22.5C26 23.3284 26.6716 24 27.5 24C28.3284 24 29 23.3284 29 22.5ZM27.5 26C28.3284 26 29 26.6716 29 27.5C29 28.3284 28.3284 29 27.5 29C26.6716 29 26 28.3284 26 27.5C26 26.6716 26.6716 26 27.5 26ZM29 32.5C29 31.6716 28.3284 31 27.5 31C26.6716 31 26 31.6716 26 32.5C26 33.3284 26.6716 34 27.5 34C28.3284 34 29 33.3284 29 32.5ZM27.5 36C28.3284 36 29 36.6716 29 37.5C29 38.3284 28.3284 39 27.5 39C26.6716 39 26 38.3284 26 37.5C26 36.6716 26.6716 36 27.5 36ZM36 22.5C36 21.6716 35.3284 21 34.5 21C33.6716 21 33 21.6716 33 22.5C33 23.3284 33.6716 24 34.5 24C35.3284 24 36 23.3284 36 22.5ZM34.5 26C35.3284 26 36 26.6716 36 27.5C36 28.3284 35.3284 29 34.5 29C33.6716 29 33 28.3284 33 27.5C33 26.6716 33.6716 26 34.5 26ZM36 32.5C36 31.6716 35.3284 31 34.5 31C33.6716 31 33 31.6716 33 32.5C33 33.3284 33.6716 34 34.5 34C35.3284 34 36 33.3284 36 32.5Z" class="svg-primary-fill" clip-rule="evenodd"/>
  </g>
</svg>
