<svg xmlns="http://www.w3.org/2000/svg" width="48" height="48" viewBox="0 0 48 48">
  <g class="neo-icon-kit--month-view">
    <g fill="#006FCF" class="svg-primary-fill">
      <path d="M15 22.5C15 21.6716 14.3284 21 13.5 21 12.6716 21 12 21.6716 12 22.5 12 23.3284 12.6716 24 13.5 24 14.3284 24 15 23.3284 15 22.5zM15 27.5C15 26.6716 14.3284 26 13.5 26 12.6716 26 12 26.6716 12 27.5 12 28.3284 12.6716 29 13.5 29 14.3284 29 15 28.3284 15 27.5zM13.5 31C14.3284 31 15 31.6716 15 32.5 15 33.3284 14.3284 34 13.5 34 12.6716 34 12 33.3284 12 32.5 12 31.6716 12.6716 31 13.5 31zM15 37.5C15 36.6716 14.3284 36 13.5 36 12.6716 36 12 36.6716 12 37.5 12 38.3284 12.6716 39 13.5 39 14.3284 39 15 38.3284 15 37.5zM20.5 21C21.3284 21 22 21.6716 22 22.5 22 23.3284 21.3284 24 20.5 24 19.6716 24 19 23.3284 19 22.5 19 21.6716 19.6716 21 20.5 21zM22 27.5C22 26.6716 21.3284 26 20.5 26 19.6716 26 19 26.6716 19 27.5 19 28.3284 19.6716 29 20.5 29 21.3284 29 22 28.3284 22 27.5zM20.5 31C21.3284 31 22 31.6716 22 32.5 22 33.3284 21.3284 34 20.5 34 19.6716 34 19 33.3284 19 32.5 19 31.6716 19.6716 31 20.5 31zM22 37.5C22 36.6716 21.3284 36 20.5 36 19.6716 36 19 36.6716 19 37.5 19 38.3284 19.6716 39 20.5 39 21.3284 39 22 38.3284 22 37.5zM27.5 21C28.3284 21 29 21.6716 29 22.5 29 23.3284 28.3284 24 27.5 24 26.6716 24 26 23.3284 26 22.5 26 21.6716 26.6716 21 27.5 21zM29 27.5C29 26.6716 28.3284 26 27.5 26 26.6716 26 26 26.6716 26 27.5 26 28.3284 26.6716 29 27.5 29 28.3284 29 29 28.3284 29 27.5zM27.5 31C28.3284 31 29 31.6716 29 32.5 29 33.3284 28.3284 34 27.5 34 26.6716 34 26 33.3284 26 32.5 26 31.6716 26.6716 31 27.5 31zM29 37.5C29 36.6716 28.3284 36 27.5 36 26.6716 36 26 36.6716 26 37.5 26 38.3284 26.6716 39 27.5 39 28.3284 39 29 38.3284 29 37.5zM34.5 21C35.3284 21 36 21.6716 36 22.5 36 23.3284 35.3284 24 34.5 24 33.6716 24 33 23.3284 33 22.5 33 21.6716 33.6716 21 34.5 21zM36 27.5C36 26.6716 35.3284 26 34.5 26 33.6716 26 33 26.6716 33 27.5 33 28.3284 33.6716 29 34.5 29 35.3284 29 36 28.3284 36 27.5zM34.5 31C35.3284 31 36 31.6716 36 32.5 36 33.3284 35.3284 34 34.5 34 33.6716 34 33 33.3284 33 32.5 33 31.6716 33.6716 31 34.5 31z"/>
      <path fill-rule="evenodd" d="M34.5 3C33.6716 3 33 3.67157 33 4.5V6H15V4.5C15 3.67157 14.3284 3 13.5 3C12.6716 3 12 3.67157 12 4.5V6H8C6.89543 6 6 6.89543 6 8V43C6 44.1046 6.89543 45 8 45H40C41.1046 45 42 44.1046 42 43V8C42 6.89543 41.1046 6 40 6H36V4.5C36 3.67157 35.3284 3 34.5 3ZM12 10.5V9H9V15H39V9H36V10.5C36 11.3284 35.3284 12 34.5 12C33.6716 12 33 11.3284 33 10.5V9H15V10.5C15 11.3284 14.3284 12 13.5 12C12.6716 12 12 11.3284 12 10.5ZM39 42V18H9V42H39Z" clip-rule="evenodd"/>
    </g>
  </g>
</svg>
