<svg xmlns="http://www.w3.org/2000/svg" width="48" height="48" viewBox="0 0 48 48">
  <g class="neo-icon-kit--moped-filled">
    <path fill="#006FCF" fill-rule="evenodd" d="M37.885 9C38.5011 9 39.0002 9.49909 39.0002 10.1152V16.9977C39.0002 17.5509 38.5511 17.999 37.9979 17.9977L36.0002 17.9932V23.1325C36.4871 23.0458 36.9884 23.0006 37.5002 23.0006C41.6034 23.0006 45.0275 25.9079 45.8249 29.775C45.944 30.3524 45.5561 30.8938 44.9867 31.0463C44.9957 31.1966 45.0002 31.3481 45.0002 31.5006C45.0002 35.6427 41.6423 39.0006 37.5002 39.0006C34.5622 39.0006 32.0187 37.3112 30.7882 34.8508C30.2188 35.0034 29.6124 34.7287 29.4275 34.1689C29.3024 33.7904 29.2032 33.4 29.132 33H20.8502C20.1553 36.4234 17.1286 39 13.5002 39C9.87177 39 6.84514 36.4234 6.15023 33H6.0002C4.34335 33 2.97734 31.6512 3.14304 30.0026C3.81466 23.3206 6.68095 21 8.0002 21V18C8.0002 16.3431 9.34335 15 11.0002 15H21.0002C22.6571 15 24.0002 16.3431 24.0002 18V30H29.1322C29.5609 27.5934 31.0024 25.5372 33.0002 24.2881V18C31.5002 17.9932 30.0031 16.5 30.0031 13.5918L27.3992 13.1352C26.583 12.992 26.0375 12.2142 26.1809 11.398C26.3244 10.5822 27.102 10.0371 27.9178 10.1804L30.965 10.7158C31.351 10.2258 31.835 9.82019 32.3879 9.52637C33.0383 9.18076 33.7637 8.99989 34.5002 9H37.885ZM6.0002 30C6.0002 28.5 6.5002 24 9.5002 24H21.0002V30H6.0002ZM33.4397 12.4395C33.721 12.1581 34.1024 12 34.5002 12H36.0002V15H34.5002C34.1024 15 33.721 14.8419 33.4397 14.5605C33.1584 14.2792 33.0002 13.8978 33.0002 13.5C33.0002 13.1022 33.1584 12.7208 33.4397 12.4395ZM37.5002 26C34.4893 26 32.0435 28.4194 32.0008 31.4201L42.2237 28.6808C41.2633 27.0751 39.5073 26 37.5002 26Z" class="svg-primary-fill" clip-rule="evenodd"/>
  </g>
</svg>
