<svg xmlns="http://www.w3.org/2000/svg" width="48" height="48" viewBox="0 0 48 48">
  <g class="neo-icon-kit--moped">
    <path fill="#006FCF" fill-rule="evenodd" d="M37.885 8.99939C38.5011 8.99939 39.0002 9.49848 39.0002 10.1146V16.9971C39.0002 17.5503 38.5511 17.9984 37.9979 17.9971L36.0002 17.9926V23.1319C36.4871 23.0452 36.9884 23 37.5002 23C41.6034 23 45.0275 25.9073 45.8249 29.7744C45.944 30.3518 45.5561 30.8932 44.9867 31.0457C44.9957 31.196 45.0002 31.3474 45.0002 31.5C45.0002 35.6421 41.6423 39 37.5002 39C34.5622 39 32.0187 37.3106 30.7882 34.8502C30.2188 35.0028 29.6124 34.7281 29.4275 34.1683C29.3024 33.7898 29.2032 33.3994 29.132 32.9994H20.8502C20.1553 36.4228 17.1286 38.9994 13.5002 38.9994C9.87177 38.9994 6.84514 36.4228 6.15023 32.9994H6.0002C4.34335 32.9994 2.97734 31.6506 3.14304 30.002C3.81466 23.32 6.68095 20.9994 8.0002 20.9994V17.9994C8.0002 16.3425 9.34335 14.9994 11.0002 14.9994H21.0002C22.6571 14.9994 24.0002 16.3425 24.0002 17.9994V29.9994H29.1322C29.5609 27.5927 31.0024 25.5366 33.0002 24.2875V17.9994C31.5002 17.9926 30.0031 16.4994 30.0031 13.5912L27.3992 13.1346C26.583 12.9914 26.0375 12.2136 26.1809 11.3974C26.3244 10.5816 27.102 10.0365 27.9178 10.1798L30.965 10.7152C31.351 10.2252 31.835 9.81958 32.3879 9.52576C33.0383 9.18015 33.7637 8.99928 34.5002 8.99939H37.885ZM6.0002 29.9994C6.0002 28.4994 6.5002 23.9994 9.5002 23.9994H21.0002V29.9994H6.0002ZM21.0002 20.9994H11.0002V17.9994H21.0002V20.9994ZM33.4397 12.4388C33.721 12.1575 34.1024 11.9994 34.5002 11.9994H36.0002V14.9994H34.5002C34.1024 14.9994 33.721 14.8412 33.4397 14.5599C33.1584 14.2786 33.0002 13.8972 33.0002 13.4994C33.0002 13.1016 33.1584 12.7201 33.4397 12.4388ZM9.25626 32.9994C9.87402 34.7472 11.5409 35.9994 13.5002 35.9994C15.4595 35.9994 17.1264 34.7472 17.7441 32.9994H9.25626ZM37.5002 25.9994C34.4893 25.9994 32.0435 28.4188 32.0008 31.4195L42.2237 28.6802C41.2633 27.0745 39.5073 25.9994 37.5002 25.9994ZM33.7893 34.0461C34.6005 35.2261 35.96 36 37.5002 36C39.8678 36 41.8084 34.1714 41.9868 31.8495L33.7893 34.0461Z" class="svg-primary-fill" clip-rule="evenodd"/>
  </g>
</svg>
