<svg xmlns="http://www.w3.org/2000/svg" width="48" height="48" viewBox="0 0 48 48">
  <g class="neo-icon-kit--more-white">
    <path fill="#fff" fill-rule="evenodd" d="M25 28C23.3431 28 22 26.6569 22 25C22 23.3431 23.3431 22 25 22C26.6569 22 28 23.3431 28 25C28 26.6569 26.6569 28 25 28ZM15 28C13.3431 28 12 26.6569 12 25C12 23.3431 13.3431 22 15 22C16.6569 22 18 23.3431 18 25C18 26.6569 16.6569 28 15 28ZM35 28C33.3431 28 32 26.6569 32 25C32 23.3431 33.3431 22 35 22C36.6569 22 38 23.3431 38 25C38 26.6569 36.6569 28 35 28Z" class="svg-primary-fill" clip-rule="evenodd"/>
  </g>
</svg>
