<svg xmlns="http://www.w3.org/2000/svg" width="48" height="48" viewBox="0 0 48 48">
  <g class="neo-icon-kit--more">
    <path fill="#006FCF" fill-rule="evenodd" d="M26.1214 21.8787C25.5355 21.2929 24.7678 21 24 21C23.2323 21 22.4645 21.2929 21.8787 21.8787C20.7071 23.0502 20.7071 24.9497 21.8787 26.1213C22.4645 26.7071 23.2323 27 24 27C24.7678 27 25.5355 26.7071 26.1214 26.1213C27.2929 24.9497 27.2929 23.0502 26.1214 21.8787ZM36 21C36.7678 21 37.5355 21.2929 38.1214 21.8787C39.2929 23.0502 39.2929 24.9497 38.1214 26.1213C37.5355 26.7071 36.7678 27 36 27C35.2323 27 34.4645 26.7071 33.8787 26.1213C32.7071 24.9497 32.7071 23.0502 33.8787 21.8787C34.4645 21.2929 35.2323 21 36 21ZM14.1214 21.8787C13.5355 21.2929 12.7678 21 12 21C11.2323 21 10.4645 21.2929 9.87868 21.8787C8.70711 23.0502 8.70711 24.9497 9.87868 26.1213C10.4645 26.7071 11.2323 27 12 27C12.7678 27 13.5355 26.7071 14.1214 26.1213C15.2929 24.9497 15.2929 23.0502 14.1214 21.8787Z" class="svg-primary-fill" clip-rule="evenodd"/>
  </g>
</svg>
