<svg xmlns="http://www.w3.org/2000/svg" width="48" height="48" viewBox="0 0 48 48">
  <g class="neo-icon-kit--more-filled">
    <path fill="#006FCF" fill-rule="evenodd" d="M26.8284 21.1716C26.0474 20.3905 25.0237 20 24 20C22.9763 20 21.9526 20.3905 21.1716 21.1715C19.6095 22.7336 19.6095 25.2663 21.1716 26.8284C21.9526 27.6095 22.9763 28 24 28C25.0237 28 26.0474 27.6095 26.8284 26.8284C28.3905 25.2663 28.3905 22.7337 26.8284 21.1716ZM36 20C37.0237 20 38.0473 20.3905 38.8284 21.1716C40.3905 22.7337 40.3905 25.2663 38.8284 26.8284C38.0473 27.6095 37.0237 28 36 28C34.9763 28 33.9526 27.6095 33.1715 26.8284C31.6094 25.2663 31.6094 22.7336 33.1715 21.1715C33.9526 20.3905 34.9763 20 36 20ZM14.8285 21.1716C14.0474 20.3905 13.0237 20 12 20C10.9763 20 9.95266 20.3905 9.17157 21.1715C7.60948 22.7336 7.60948 25.2663 9.17157 26.8284C9.95266 27.6095 10.9763 28 12 28C13.0237 28 14.0474 27.6095 14.8285 26.8284C16.3906 25.2663 16.3906 22.7337 14.8285 21.1716Z" class="svg-primary-fill" clip-rule="evenodd"/>
  </g>
</svg>
