<svg xmlns="http://www.w3.org/2000/svg" width="48" height="48" viewBox="0 0 48 48">
  <g class="neo-icon-kit--more-circle-filled">
    <path fill="#006FCF" fill-rule="evenodd" d="M48 24.0001C48 10.7451 37.2548 0 23.9999 0C10.7451 0 0 10.7451 0 24.0001C0 37.2548 10.7451 48.0001 23.9999 48.0001C37.2548 48.0001 48 37.2548 48 24.0001ZM12.8787 21.8787C13.4645 21.293 14.2322 21.0001 15 21.0001C15.7678 21.0001 16.5355 21.293 17.1213 21.8787C18.2929 23.0503 18.2929 24.9498 17.1213 26.1213C16.5355 26.7071 15.7678 27.0001 15 27.0001C14.2322 27.0001 13.4645 26.7071 12.8787 26.1213C11.7071 24.9498 11.7071 23.0503 12.8787 21.8787ZM24 21.0001C23.2322 21.0001 22.4645 21.293 21.8787 21.8787C20.7071 23.0503 20.7071 24.9498 21.8787 26.1213C22.4645 26.7071 23.2322 27.0001 24 27.0001C24.7678 27.0001 25.5355 26.7071 26.1213 26.1213C27.2929 24.9498 27.2929 23.0503 26.1213 21.8787C25.5355 21.293 24.7678 21.0001 24 21.0001ZM30.8787 21.8787C31.4645 21.293 32.2322 21.0001 33 21.0001C33.7678 21.0001 34.5355 21.293 35.1213 21.8787C36.2929 23.0503 36.2929 24.9498 35.1213 26.1213C34.5355 26.7071 33.7678 27.0001 33 27.0001C32.2322 27.0001 31.4645 26.7071 30.8787 26.1213C29.7071 24.9498 29.7071 23.0503 30.8787 21.8787Z" class="svg-primary-fill" clip-rule="evenodd"/>
  </g>
</svg>
