<svg xmlns="http://www.w3.org/2000/svg" width="48" height="48" viewBox="0 0 48 48">
  <g class="neo-icon-kit--motorbike">
    <path fill="#006FCF" d="M20.9999 10.5C20.9999 10.1022 21.158 9.72064 21.4393 9.43934C21.7206 9.15804 22.1021 9 22.4999 9H25.8359C26.6934 9.00021 27.533 9.24541 28.2559 9.70674C28.9787 10.1681 29.5546 10.8263 29.9159 11.604L30.9209 13.77C31.7429 12.693 33.0419 12 34.4999 12H37.4999C37.8978 12 38.2793 12.158 38.5606 12.4393C38.8419 12.7206 38.9999 13.1022 38.9999 13.5V19.5C38.9999 19.8978 38.8419 20.2794 38.5606 20.5607C38.2793 20.842 37.8978 21 37.4999 21H34.4999C34.4239 21 34.3489 20.998 34.2749 20.994L35.7659 24.204C36.3219 24.068 36.8999 24 37.4999 24C39.2832 23.9998 41.0082 24.6351 42.3654 25.7918C43.7227 26.9485 44.6234 28.551 44.9059 30.3118C45.1884 32.0725 44.8343 33.8764 43.9071 35.3996C42.9798 36.9229 41.5402 38.066 39.8464 38.6237C38.1526 39.1815 36.3154 39.1174 34.6646 38.4431C33.0137 37.7688 31.6571 36.5283 30.8382 34.9442C30.0193 33.36 29.7916 31.536 30.196 29.7991C30.6004 28.0623 31.6105 26.5264 33.0449 25.467L32.5649 24.432C32.1995 25.2006 31.6237 25.8499 30.9042 26.3044C30.1847 26.759 29.351 27.0002 28.4999 27H27.9269L26.9999 28.854C26.3771 30.0998 25.4196 31.1475 24.2348 31.8798C23.05 32.6121 21.6848 33 20.2919 33H17.8499C17.5661 34.3904 16.8937 35.6717 15.9107 36.6952C14.9278 37.7186 13.6746 38.4422 12.2969 38.7819C10.9191 39.1216 9.47318 39.0635 8.12712 38.6142C6.78106 38.165 5.59007 37.3431 4.69248 36.244C3.79488 35.1449 3.22752 33.8137 3.05628 32.405C2.88504 30.9964 3.11695 29.568 3.72508 28.2859C4.33321 27.0038 5.2926 25.9205 6.49182 25.1618C7.69105 24.4032 9.08089 24.0003 10.4999 24H15.5729L16.5929 21.96C17.1885 20.7704 18.1033 19.77 19.235 19.0707C20.3667 18.3713 21.6706 18.0006 23.0009 18H28.4999C28.8979 18 29.2799 18.05 29.6459 18.15L27.1949 12.87C27.0749 12.6106 26.8832 12.3908 26.6424 12.2367C26.4016 12.0826 26.1218 12.0004 25.8359 12H22.4999C22.1021 12 21.7206 11.842 21.4393 11.5607C21.158 11.2794 20.9999 10.8978 20.9999 10.5ZM36.1409 32.13L34.3529 28.284C33.5941 29.0263 33.1221 30.013 33.0204 31.0696C32.9187 32.1263 33.1938 33.1849 33.7971 34.0583C34.4004 34.9318 35.2931 35.5638 36.3173 35.8427C37.3416 36.1216 38.4314 36.0295 39.3943 35.5825C40.3572 35.1356 41.131 34.3627 41.5791 33.4003C42.0272 32.438 42.1207 31.3483 41.843 30.3237C41.5653 29.2991 40.9344 28.4057 40.0617 27.8013C39.189 27.197 38.1307 26.9206 37.0739 27.021L38.8589 30.867C39.0116 31.2251 39.0191 31.6285 38.8798 31.992C38.7405 32.3556 38.4654 32.6507 38.1125 32.815C37.7596 32.9794 37.3566 33.0002 36.9887 32.8729C36.6208 32.7456 36.3168 32.4803 36.1409 32.133M27.0299 24H28.4999C28.8978 24 29.2793 23.842 29.5606 23.5607C29.8419 23.2794 29.9999 22.8978 29.9999 22.5C29.9999 22.1022 29.8419 21.7206 29.5606 21.4393C29.2793 21.158 28.8978 21 28.4999 21H23.0009C21.4229 21 19.9799 21.891 19.2749 23.304L18.9299 24H27.0359M24.5759 27H16.5059C17.1599 27.87 17.6279 28.89 17.8529 30H20.2949C21.1311 30 21.9507 29.767 22.6618 29.3272C23.3729 28.8873 23.9475 28.2581 24.3209 27.51L24.5759 27ZM10.4999 27C9.30646 27 8.16187 27.4741 7.31796 28.318C6.47404 29.1619 5.99994 30.3065 5.99994 31.5C5.99994 32.6935 6.47404 33.8381 7.31796 34.682C8.16187 35.5259 9.30646 36 10.4999 36C11.6934 36 12.838 35.5259 13.6819 34.682C14.5258 33.8381 14.9999 32.6935 14.9999 31.5C14.9999 30.3065 14.5258 29.1619 13.6819 28.318C12.838 27.4741 11.6934 27 10.4999 27ZM32.9999 16.5C32.9999 16.8978 33.158 17.2794 33.4393 17.5607C33.7206 17.842 34.1021 18 34.4999 18H35.9999V15H34.4999C34.1021 15 33.7206 15.158 33.4393 15.4393C33.158 15.7206 32.9999 16.1022 32.9999 16.5Z" class="svg-primary-fill"/>
  </g>
</svg>
