<svg xmlns="http://www.w3.org/2000/svg" width="48" height="48" viewBox="0 0 48 48">
  <g class="neo-icon-kit--motorbike-filled">
    <path fill="#006FCF" d="M20.9999 10.5C20.9999 10.1022 21.158 9.72064 21.4393 9.43934C21.7206 9.15804 22.1021 9 22.4999 9H25.8359C26.6934 9.00021 27.533 9.24541 28.2559 9.70674C28.9787 10.1681 29.5546 10.8263 29.9159 11.604L30.9209 13.77C31.7429 12.693 33.0419 12 34.4999 12H37.4999C37.8978 12 38.2793 12.158 38.5606 12.4393C38.8419 12.7206 38.9999 13.1022 38.9999 13.5V19.5C38.9999 19.8978 38.8419 20.2794 38.5606 20.5607C38.2793 20.842 37.8978 21 37.4999 21H34.4999C34.4239 21 34.3489 20.998 34.2749 20.994L35.7659 24.204C36.3219 24.068 36.8999 24 37.4999 24C39.2832 23.9998 41.0082 24.6351 42.3654 25.7918C43.7227 26.9485 44.6234 28.551 44.9059 30.3118C45.1884 32.0725 44.8343 33.8764 43.9071 35.3996C42.9798 36.9229 41.5402 38.066 39.8464 38.6237C38.1526 39.1815 36.3154 39.1174 34.6646 38.4431C33.0137 37.7688 31.6571 36.5283 30.8382 34.9442C30.0193 33.36 29.7916 31.536 30.196 29.7991C30.6004 28.0623 31.6105 26.5264 33.0449 25.467L32.5649 24.432C32.1995 25.2006 31.6237 25.8499 30.9042 26.3044C30.1847 26.759 29.351 27.0002 28.4999 27H27.9269L26.9999 28.854C26.3771 30.0998 25.4196 31.1475 24.2348 31.8798C23.05 32.6121 21.6848 33 20.2919 33H17.8499C17.5661 34.3904 16.8937 35.6717 15.9107 36.6952C14.9278 37.7186 13.6746 38.4422 12.2969 38.7819C10.9191 39.1216 9.47318 39.0635 8.12712 38.6142C6.78106 38.165 5.59007 37.3431 4.69248 36.244C3.79488 35.1449 3.22752 33.8137 3.05628 32.405C2.88504 30.9964 3.11695 29.568 3.72508 28.2859C4.33321 27.0038 5.2926 25.9205 6.49182 25.1618C7.69105 24.4032 9.08089 24.0003 10.4999 24H15.5729L16.5929 21.96C17.1885 20.7704 18.1033 19.77 19.235 19.0707C20.3667 18.3713 21.6706 18.0006 23.0009 18H28.4999C28.8979 18 29.2799 18.05 29.6459 18.15L27.1949 12.87C27.0749 12.6106 26.8832 12.3908 26.6424 12.2367C26.4016 12.0826 26.1218 12.0004 25.8359 12H22.4999C22.1021 12 21.7206 11.842 21.4393 11.5607C21.158 11.2794 20.9999 10.8978 20.9999 10.5ZM24.5759 27H16.5059C17.1599 27.87 17.6279 28.89 17.8529 30H20.2949C21.1311 30 21.9507 29.767 22.6618 29.3272C23.3729 28.8873 23.9475 28.2581 24.3209 27.51L24.5759 27ZM32.9999 16.5C32.9999 16.8978 33.158 17.2794 33.4393 17.5607C33.7206 17.842 34.1021 18 34.4999 18H35.9999V15H34.4999C34.1021 15 33.7206 15.158 33.4393 15.4393C33.158 15.7206 32.9999 16.1022 32.9999 16.5Z" class="svg-primary-fill"/>
  </g>
</svg>
