<svg xmlns="http://www.w3.org/2000/svg" width="48" height="48" viewBox="0 0 48 48">
  <g class="neo-icon-kit--multi-channel">
    <path fill="#006FCF" d="M38 6C38.7956 6 39.5587 6.31607 40.1213 6.87868C40.6839 7.44129 41 8.20435 41 9V15H44.154C45.324 15 45.842 15.107 46.28 15.308L46.465 15.4C46.9484 15.6554 47.3436 16.0506 47.599 16.534L47.691 16.719C47.893 17.158 47.999 17.675 47.999 18.845V38.153C47.999 39.323 47.892 39.841 47.691 40.279L47.599 40.464C47.3436 40.9474 46.9484 41.3426 46.465 41.598L46.28 41.69C45.841 41.892 45.324 41.998 44.154 41.998H34.846C33.676 41.998 33.158 41.891 32.72 41.69L32.535 41.598C32.0516 41.3426 31.6564 40.9474 31.401 40.464L31.309 40.279C31.122 39.872 31.016 39.396 31.002 38.394L31 36L25.94 36.002C26.3 37.205 26.807 38.249 27.263 39.08L27.883 40.161C28.357 40.972 27.782 41.917 26.9 41.995L26.783 42H14.217C13.27 42 12.623 41.007 13.117 40.161L13.472 39.552C13.985 38.659 14.631 37.445 15.063 36.001L3 36C2.20435 36 1.44129 35.6839 0.87868 35.1213C0.31607 34.5587 0 33.7956 0 33L0 9C0 8.20435 0.31607 7.44129 0.87868 6.87868C1.44129 6.31607 2.20435 6 3 6H38ZM45 17.7H34V39.3H45V17.7ZM22.839 36.002H18.161C17.9457 36.9063 17.6533 37.7906 17.287 38.645L17.132 39H23.869C23.4305 38.036 23.0849 37.0321 22.839 36.002ZM39.5 34C39.8978 34 40.2794 34.158 40.5607 34.4393C40.842 34.7206 41 35.1022 41 35.5C41 35.8978 40.842 36.2794 40.5607 36.5607C40.2794 36.842 39.8978 37 39.5 37C39.1022 37 38.7206 36.842 38.4393 36.5607C38.158 36.2794 38 35.8978 38 35.5C38 35.1022 38.158 34.7206 38.4393 34.4393C38.7206 34.158 39.1022 34 39.5 34ZM38 9H3V33L31 32.999V18.846C31 17.676 31.107 17.158 31.308 16.72L31.4 16.535C31.6554 16.0516 32.0506 15.6564 32.534 15.401L32.719 15.309C33.126 15.122 33.602 15.016 34.604 15.002L38 15V9Z" class="svg-primary-fill"/>
  </g>
</svg>
