<svg xmlns="http://www.w3.org/2000/svg" width="48" height="48" viewBox="0 0 48 48">
  <g class="neo-icon-kit--ndc-fare">
    <path fill="#006FCF" fill-rule="evenodd" d="M26.1639 2.95585C25.0028 1.68139 22.9972 1.68138 21.8361 2.95584L20.4149 4.51571C19.6446 5.36116 18.4525 5.68058 17.3627 5.33355L15.352 4.69326C13.7091 4.17012 11.9723 5.1729 11.6039 6.8572L11.153 8.91868C10.9087 10.036 10.036 10.9087 8.91868 11.153L6.8572 11.6039C5.17291 11.9723 4.17012 13.7091 4.69326 15.352L5.33355 17.3627C5.68058 18.4525 5.36116 19.6446 4.51571 20.4149L2.95585 21.8361C1.68139 22.9972 1.68138 25.0028 2.95584 26.1639L4.51571 27.5851C5.36116 28.3554 5.68058 29.5475 5.33355 30.6373L4.69326 32.648C4.17012 34.2909 5.1729 36.0277 6.8572 36.3961L8.91868 36.847C10.036 37.0913 10.9087 37.964 11.153 39.0813L11.6039 41.1428C11.9723 42.8271 13.7091 43.8299 15.352 43.3067L17.3627 42.6665C18.4525 42.3194 19.6446 42.6388 20.4149 43.4843L21.8361 45.0442C22.9972 46.3186 25.0028 46.3186 26.1639 45.0442L27.5851 43.4843C28.3554 42.6388 29.5475 42.3194 30.6373 42.6665L32.648 43.3067C34.2909 43.8299 36.0277 42.8271 36.3961 41.1428L36.847 39.0813C37.0913 37.964 37.964 37.0913 39.0813 36.847L41.1428 36.3961C42.8271 36.0277 43.8299 34.2909 43.3067 32.648L42.6665 30.6373C42.3194 29.5475 42.6388 28.3554 43.4843 27.5851L45.0442 26.1639C46.3186 25.0028 46.3186 22.9972 45.0442 21.8361L43.4843 20.4149C42.6388 19.6446 42.3194 18.4525 42.6665 17.3627L43.3067 15.352C43.8299 13.7091 42.8271 11.9723 41.1428 11.6039L39.0813 11.153C37.964 10.9087 37.0913 10.036 36.847 8.91868L36.3961 6.8572C36.0277 5.17291 34.2909 4.17012 32.6481 4.69326L30.6373 5.33355C29.5475 5.68058 28.3554 5.36116 27.5851 4.51571L26.1639 2.95585ZM15.0002 13C14.0534 13 13.2859 13.7675 13.2859 14.7143V17.2856H10.7143C9.76751 17.2856 9 18.0532 9 18.9999C9 19.9467 9.76751 20.7142 10.7143 20.7142H13.2859V23.2857C13.2859 24.2325 14.0534 25 15.0002 25C15.9469 25 16.7145 24.2325 16.7145 23.2857V20.7142H19.2857C20.2325 20.7142 21 19.9467 21 18.9999C21 18.0532 20.2325 17.2856 19.2857 17.2856H16.7145V14.7143C16.7145 13.7675 15.9469 13 15.0002 13ZM25.7004 14C24.6844 14 23.8608 14.8218 23.8608 15.8356V27.0785H20.8433C19.2111 27.0785 18.3873 29.0418 19.5326 30.2021L26.6893 37.4525C27.4099 38.1825 28.5901 38.1825 29.3107 37.4525L36.4674 30.2021C37.6127 29.0418 36.7889 27.0785 35.1567 27.0785H32.1392V15.8356C32.1392 14.8218 31.3156 14 30.2996 14H25.7004Z" class="svg-primary-fill" clip-rule="evenodd"/>
  </g>
</svg>
