<svg xmlns="http://www.w3.org/2000/svg" width="48" height="48" viewBox="0 0 48 48">
  <g class="neo-icon-kit--night-moon">
    <path fill="#006FCF" fill-rule="evenodd" d="M11.5512 10.9165C12.7317 24.6091 23.6607 35.6343 36.7239 36.3602C34.0024 38.0737 30.8214 39 27.1164 39C16.9982 39 9 30.9363 9 20.4981C9 17.1217 9.94842 13.7359 11.5512 10.9165ZM14.4456 8.45901C14.4456 22.2179 25.4263 33.3983 38.0947 33.3983C38.5275 33.3983 38.9358 33.3732 39.3279 33.3316C41.6709 33.0831 42.9301 35.1511 41.1836 36.7266C37.414 40.1272 32.7247 42 27.1164 42C15.2906 42 6 32.542 6 20.4981C6 15.5039 7.78009 10.5085 10.6946 6.82961C12.058 5.10868 14.4456 6.26673 14.4456 8.45901Z" class="svg-primary-fill" clip-rule="evenodd"/>
  </g>
</svg>
