<svg xmlns="http://www.w3.org/2000/svg" width="48" height="48" viewBox="0 0 48 48">
  <g class="neo-icon-kit--no-concierge-filled">
    <g fill="#006FCF" class="svg-primary-fill">
      <path fill-rule="evenodd" d="M27.021 5.99988C27.8496 5.99994 28.521 6.67234 28.521 7.50085C28.5209 8.28055 27.9262 8.92219 27.1655 8.995L25.521 9.00183V12.1385C34.6356 12.8964 41.8476 20.4653 42.0181 29.7362L42.021 34.4989C42.021 35.2787 41.4262 35.9202 40.6655 35.993L32.7104 35.994L35.7222 39.0009L43.521 38.9999C44.3496 38.9999 45.021 39.6718 45.021 40.4999C45.021 41.2792 44.4262 41.9203 43.6655 41.993H38.7183L39.1655 42.4393C39.7516 43.0247 39.7527 43.9742 39.1675 44.5604C38.5822 45.1465 37.6326 45.1474 37.0464 44.5624L8.09326 15.6522C7.50705 15.0669 7.50597 14.1164 8.09131 13.5302C8.67667 12.944 9.62718 12.9438 10.2134 13.5292L12.7446 16.0565C15.3859 13.9288 18.6384 12.5299 22.1929 12.1688L22.521 12.1385V9.00183H21.021C20.1925 9.00176 19.5211 8.32928 19.521 7.50085C19.521 6.72109 20.1158 6.07954 20.8765 6.00671L27.021 5.99988ZM22.4829 19.663C22.2967 18.8559 21.4911 18.352 20.6841 18.538C19.2745 18.8633 18.0202 19.4377 16.9136 20.2196L19.0825 22.3856C19.7723 21.9652 20.5291 21.6531 21.3579 21.4618C22.1649 21.2755 22.6689 20.47 22.4829 19.663Z" clip-rule="evenodd"/>
      <path d="M26.645 39.01C27.401 39.087 27.991 39.725 27.992 40.502 27.992 41.278 27.401 41.917 26.645 41.994L26.492 42.003 4.499 42.007C3.67 42.007 2.999 41.335 2.999 40.507 2.999 39.678 3.67 39.007 4.499 39.007L26.492 39.003 26.645 39.01ZM7.742 22.322C8.145 21.678 8.98 21.431 9.676 21.774L21.358 33.345C21.702 33.62 21.922 34.043 21.922 34.518 21.922 35.346 21.25 36.017 20.422 36.018H7.535C6.801 36.017 6.183 35.488 6.058 34.779L6.041 34.636C5.965 33.67 5.853 31.704 6.01 29.467 6.166 27.254 6.591 24.642 7.667 22.457L7.742 22.322Z"/>
    </g>
  </g>
</svg>
