<svg xmlns="http://www.w3.org/2000/svg" width="48" height="48" viewBox="0 0 48 48">
  <g class="neo-icon-kit--no-concierge">
    <g fill="#006FCF" class="svg-primary-fill">
      <path fill-rule="evenodd" d="M27.021 5.99988C27.8496 5.99988 28.521 6.6723 28.521 7.50085C28.5209 8.28058 27.9263 8.92225 27.1655 8.995L25.521 9.00183V12.1385C34.6356 12.8963 41.8476 20.4652 42.0181 29.7362L42.021 34.4989C42.021 35.2787 41.4263 35.9203 40.6655 35.993L32.7104 35.994L35.7222 39.0009L43.521 38.9999C44.3496 38.9999 45.021 39.6718 45.021 40.4999C45.021 41.2793 44.4263 41.9203 43.6655 41.993H38.7183L39.1655 42.4393C39.7517 43.0247 39.7528 43.9742 39.1675 44.5604C38.5822 45.1466 37.6326 45.1475 37.0464 44.5624L8.09326 15.6522C7.50705 15.0669 7.50596 14.1164 8.09131 13.5302C8.67666 12.9439 9.62716 12.9438 10.2134 13.5292L12.7446 16.0565C15.3859 13.9288 18.6383 12.5299 22.1929 12.1688L22.521 12.1385V9.00183H21.021C20.1925 9.00177 19.5211 8.32928 19.521 7.50085C19.521 6.72109 20.1158 6.07954 20.8765 6.00671L27.021 5.99988ZM24.021 14.9999C20.5679 14.9999 17.3842 16.1786 14.8462 18.1552L16.9136 20.2196C18.0202 19.4377 19.2745 18.8633 20.6841 18.538C21.4911 18.352 22.2967 18.8559 22.4829 19.663C22.6689 20.47 22.165 21.2755 21.3579 21.4618C20.5291 21.6531 19.7723 21.9652 19.0825 22.3856L29.7124 32.9999H39.021V30.0624C39.0208 21.7564 32.2919 14.9999 24.021 14.9999Z" clip-rule="evenodd"/>
      <path d="M26.645 39.01C27.401 39.087 27.991 39.725 27.992 40.502 27.992 41.278 27.401 41.917 26.645 41.994L26.492 42.003 4.499 42.007C3.67 42.007 2.999 41.335 2.999 40.507 2.999 39.678 3.67 39.007 4.499 39.007L26.492 39.003 26.645 39.01ZM7.742 22.322C8.145 21.678 8.98 21.431 9.676 21.774 10.373 22.118 10.685 22.929 10.419 23.642L10.358 23.783C9.533 25.458 9.147 27.619 9.002 29.677 8.914 30.931 8.919 32.099 8.952 33.018H20.422C21.25 33.018 21.922 33.689 21.922 34.518 21.922 35.346 21.251 36.017 20.422 36.018H7.535C6.801 36.017 6.183 35.488 6.058 34.779L6.041 34.636C5.965 33.67 5.853 31.704 6.01 29.467 6.166 27.254 6.591 24.642 7.667 22.457L7.742 22.322Z"/>
    </g>
  </g>
</svg>
