<svg xmlns="http://www.w3.org/2000/svg" width="48" height="49" viewBox="0 0 48 49">
  <g class="neo-icon-kit--no-dining">
    <g fill="#006FCF" class="svg-primary-fill">
      <path d="M16.643 19C17.471 19 18.143 19.672 18.143 20.5V47.5C18.142 48.328 17.471 49 16.643 49 15.814 49 15.143 48.328 15.143 47.5V20.5C15.143 19.672 15.814 19 16.643 19ZM37.516 40C38.344 40 39.016 40.672 39.016 41.5V47.5C39.015 48.328 38.344 49 37.516 49 36.687 49 36.016 48.328 36.016 47.5V41.5C36.016 40.672 36.687 40 37.516 40Z"/>
      <path fill-rule="evenodd" d="M4.96766 0.884854C5.55345 0.299152 6.503 0.299096 7.08875 0.884854L9.01063 2.80673V2.50399C9.01083 1.67555 9.68214 1.00399 10.5106 1.00399C11.339 1.00412 12.0104 1.67563 12.0106 2.50399V5.80673L15.0106 8.80673V2.50399C15.0108 1.67555 15.6826 1.004 16.5106 1.00399C17.3385 1.00412 18.0104 1.67563 18.0106 2.50399V10.004H21.0106V2.50399C21.0108 1.67555 21.6826 1.004 22.5106 1.00399C23.3385 1.00412 24.0104 1.67563 24.0106 2.50399V14.504C24.0106 15.4392 23.7206 16.3063 23.2304 17.0265L29.5429 23.339C29.434 22.192 29.4106 20.9484 29.4149 19.6368L29.4413 16.6866L29.4432 16.004C29.4433 7.70485 32.8779 1.25741 37.4335 1.00692C37.8445 0.984039 38.247 1.13198 38.5468 1.41513C38.808 1.66287 38.9711 1.9955 39.0077 2.35067L39.0155 2.50399V32.8116L43.0321 36.8282C43.6178 37.414 43.6178 38.3635 43.0321 38.9493C42.4464 39.5351 41.4968 39.535 40.911 38.9493L9.01063 7.05087V7.04892L4.96766 3.00595C4.38187 2.42016 4.38187 1.47064 4.96766 0.884854ZM36.0155 4.73056C34.1658 6.31964 32.5289 10.3697 32.4462 15.5899L32.4413 16.6974L32.4159 19.4679C32.4012 22.5852 32.5213 25.3605 33.6727 26.5245C34.1343 26.9904 34.7965 27.22 35.7665 27.254L36.0155 27.2579V4.73056ZM20.9833 14.7794C21 14.69 21.0106 14.5982 21.0106 14.504V13.004H19.2079L20.9833 14.7794Z" clip-rule="evenodd"/>
    </g>
  </g>
</svg>
