<svg xmlns="http://www.w3.org/2000/svg" width="48" height="49" viewBox="0 0 48 49">
  <g class="neo-icon-kit--no-dining-filled">
    <path fill="#006FCF" d="M16.643 19C17.471 19 18.143 19.672 18.143 20.5V47.5C18.142 48.328 17.471 49 16.643 49 15.814 49 15.143 48.328 15.143 47.5V20.5C15.143 19.672 15.814 19 16.643 19ZM37.516 40C38.344 40 39.016 40.672 39.016 41.5V47.5C39.015 48.328 38.344 49 37.516 49 36.687 49 36.016 48.328 36.016 47.5V41.5C36.016 40.672 36.687 40 37.516 40ZM4.968.885C5.553.299 6.503.299 7.089.885L9 2.796V2.5C9 1.672 9.672 1 10.5 1 11.279 1 11.92 1.595 11.993 2.356L12 2.5V5.796L15 8.796V2.5C15 1.672 15.672 1 16.5 1 17.279 1 17.92 1.595 17.993 2.356L18 2.5V10H21V2.5C21 1.672 21.672 1 22.5 1 23.279 1 23.92 1.595 23.993 2.356L24 2.5V14.5C24 15.434 23.711 16.299 23.223 17.019L29.531 23.327C29.423 22.182 29.4 20.942 29.404 19.633L29.431 16.683 29.433 16C29.433 7.701 32.867 1.254 37.423 1.003 37.835.98 38.236 1.128 38.536 1.411 38.797 1.659 38.96 1.992 38.997 2.347L39.005 2.5V32.801L43.032 36.828C43.618 37.414 43.618 38.364 43.032 38.949 42.446 39.535 41.497 39.535 40.911 38.949L9 7.041V7.038L4.968 3.006C4.382 2.42 4.382 1.471 4.968.885Z" class="svg-primary-fill"/>
  </g>
</svg>
