<svg xmlns="http://www.w3.org/2000/svg" width="48" height="48" viewBox="0 0 48 48">
  <g class="neo-icon-kit--no-receipt">
    <g fill="#006FCF" class="svg-primary-fill">
      <path fill-rule="evenodd" d="M24.4605 4.79416C22.394 3.65714 20.0264 2.99976 17.5 2.99976C9.492 2.99976 3 9.49176 3 17.4998C3 24.6538 8.186 30.5828 15 31.7698V43.4998L15.0072 43.6472C15.06 44.1824 15.3973 44.6528 15.896 44.8728C16.439 45.1118 17.075 45.0068 17.513 44.6068L21 41.4138L24.487 44.6068L24.6055 44.7048C25.176 45.1294 25.9782 45.0968 26.513 44.6068L30 41.4138L33.487 44.6068L33.6055 44.7048C34.176 45.1294 34.9782 45.0968 35.513 44.6068L39 41.4138L42.487 44.6068L42.6129 44.7094C42.8736 44.8998 43.1846 44.9998 43.5 44.9998C43.704 44.9998 43.91 44.9578 44.104 44.8728C44.648 44.6328 45 44.0948 45 43.4998V7.99976L44.9949 7.82347C44.9037 6.24854 43.5978 4.99976 42 4.99976H24.822L24.4605 4.79416ZM28.458 8.02264L42 7.99996V39.6461L40.013 37.8524L39.8945 37.7556C39.324 37.336 38.5218 37.3683 37.987 37.8524L34.5 41L31.013 37.8524L30.8859 37.7492C30.623 37.5588 30.3111 37.4639 30 37.4639C29.637 37.4639 29.273 37.5931 28.987 37.8524L25.5 41L22.013 37.8524L21.8945 37.7556C21.324 37.336 20.5218 37.3683 19.987 37.8524L18 39.6461V31.6411L18.3186 31.627C25.9434 31.2065 32 24.9916 32 17.3677C32 13.7912 30.659 10.5292 28.458 8.02264ZM28.5 31H37.5C38.328 31 39 31.672 39 32.5C39 33.2793 38.4047 33.9204 37.6444 33.9931L37.5 34H28.5C27.672 34 27 33.328 27 32.5C27 31.7207 27.5953 31.0796 28.3556 31.0068L28.5 31ZM6 17.4998C6 11.1588 11.159 5.99976 17.5 5.99976C23.841 5.99976 29 11.1588 29 17.4998C29 23.8408 23.841 28.9998 17.5 28.9998C11.159 28.9998 6 23.8408 6 17.4998ZM33.5 25H37.5C38.328 25 39 25.671 39 26.5C39 27.2793 38.4047 27.9204 37.6444 27.9931L37.5 28H33.5C32.672 28 32 27.328 32 26.5C32 25.7197 32.5953 25.0794 33.3556 25.0068L33.5 25ZM37.5 18.9995H35.5L35.3556 19.0063C34.5953 19.0789 34 19.7192 34 20.4995C34 21.3285 34.672 21.9995 35.5 21.9995H37.5L37.6444 21.9926C38.4047 21.92 39 21.2797 39 20.4995C39 19.6705 38.328 18.9995 37.5 18.9995Z" clip-rule="evenodd"/>
      <path d="M23.5104 11.4896C24.0615 12.0407 24.0945 12.9143 23.6078 13.5039L23.5104 13.6109L19.6213 17.5L23.5104 21.3891C24.0959 21.9746 24.0966 22.9242 23.5104 23.5104C22.9587 24.0621 22.085 24.094 21.496 23.6077L21.3891 23.5104L17.5 19.6213L13.6109 23.5104C13.0254 24.0959 12.0751 24.0959 11.4896 23.5104C10.9385 22.9594 10.9061 22.0851 11.3923 21.4961L11.4896 21.3891L15.3787 17.5L11.4896 13.6109C10.9041 13.0254 10.9034 12.0758 11.4896 11.4896C12.0413 10.9379 12.915 10.9061 13.504 11.3924L13.6109 11.4896L17.5 15.3787L21.3891 11.4896C21.9753 10.9034 22.9249 10.9041 23.5104 11.4896Z"/>
    </g>
  </g>
</svg>
