<svg xmlns="http://www.w3.org/2000/svg" width="48" height="48" viewBox="0 0 48 48">
  <g class="neo-icon-kit--no-receipt-filled">
    <g fill="#006FCF" class="svg-primary-fill">
      <path d="M38.5344 31.4144C38.2556 31.1486 37.8852 31.0002 37.5 31H28.5L28.356 31.007C27.9726 31.0442 27.6182 31.2274 27.3662 31.5188 27.1142 31.8102 26.984 32.1873 27.0025 32.5721 27.021 32.9569 27.1868 33.3198 27.4656 33.5856 27.7444 33.8514 28.1148 33.9998 28.5 34H37.5L37.644 33.993C38.0274 33.9558 38.3818 33.7726 38.6338 33.4812 38.8858 33.1898 39.016 32.8127 38.9975 32.4279 38.979 32.0431 38.8132 31.6802 38.5344 31.4144zM38.5344 25.4144C38.2556 25.1486 37.8852 25.0002 37.5 25H33.5L33.356 25.007C32.9726 25.0442 32.6182 25.2274 32.3662 25.5188 32.1142 25.8102 31.984 26.1873 32.0025 26.5721 32.021 26.9569 32.1868 27.3198 32.4656 27.5856 32.7444 27.8514 33.1148 27.9998 33.5 28H37.5L37.644 27.993C38.0274 27.9558 38.3818 27.7726 38.6338 27.4812 38.8858 27.1898 39.016 26.8127 38.9975 26.4279 38.979 26.0431 38.8132 25.6802 38.5344 25.4144zM38.5344 19.4144C38.2556 19.1486 37.8852 19.0002 37.5 19H35.5L35.356 19.007C34.9726 19.0442 34.6182 19.2274 34.3662 19.5188 34.1142 19.8102 33.984 20.1873 34.0025 20.5721 34.021 20.9569 34.1868 21.3198 34.4656 21.5856 34.7444 21.8514 35.1148 21.9998 35.5 22H37.5L37.644 21.993C38.0274 21.9558 38.3818 21.7726 38.6338 21.4812 38.8858 21.1898 39.016 20.8127 38.9975 20.4279 38.979 20.0431 38.8132 19.6802 38.5344 19.4144z"/>
      <path fill-rule="evenodd" d="M24.46 4.794C22.3291 3.61691 19.9344 2.99965 17.5 3C9.492 3 3 9.492 3 17.5C3 24.654 8.186 30.583 15 31.77V43.5L15.007 43.647C15.0331 43.9118 15.1292 44.165 15.2854 44.3804C15.4416 44.5959 15.6524 44.7659 15.896 44.873C16.439 45.112 17.075 45.007 17.513 44.607L21 41.414L24.486 44.607L24.606 44.705C24.8858 44.9127 25.2291 45.0165 25.5771 44.9986C25.9251 44.9808 26.256 44.8423 26.513 44.607L30 41.414L33.486 44.607L33.606 44.705C33.8858 44.9127 34.2291 45.0165 34.5771 44.9986C34.9251 44.9808 35.256 44.8423 35.513 44.607L39 41.414L42.487 44.597L42.613 44.7C42.874 44.9 43.185 45 43.5 45C43.704 45 43.91 44.958 44.104 44.873C44.3705 44.7558 44.5971 44.5635 44.7562 44.3197C44.9153 44.0759 45 43.7911 45 43.5V8L44.995 7.824C44.9501 7.06011 44.615 6.34224 44.0583 5.81728C43.5015 5.29233 42.7652 4.99996 42 5H24.822L24.46 4.794ZM28.458 8.023L42 8V39.646L40.014 37.852L39.894 37.755C39.324 37.336 38.522 37.368 37.987 37.852L34.5 41L31.013 37.85L30.886 37.747C30.628 37.5611 30.318 37.4613 30 37.462C29.637 37.462 29.273 37.592 28.987 37.852L25.5 41L22.014 37.853L21.894 37.756C21.324 37.337 20.522 37.369 19.987 37.853L18 39.647V31.642L18.32 31.628C25.943 31.208 32 24.992 32 17.368C32 13.79 30.66 10.53 28.458 8.023ZM23.6078 13.5039C24.0945 12.9143 24.0615 12.0407 23.5104 11.4897C22.9249 10.9042 21.9753 10.9035 21.3891 11.4897L17.5 15.3787L13.6109 11.4897L13.504 11.3924C12.915 10.9061 12.0413 10.9379 11.4896 11.4897C10.9034 12.0758 10.9041 13.0255 11.4896 13.611L15.3787 17.5001L11.4896 21.3892L11.3923 21.4961C10.9061 22.0852 10.9385 22.9594 11.4896 23.5105C12.0751 24.096 13.0254 24.096 13.6109 23.5105L17.5 19.6214L21.3891 23.5105L21.496 23.6077C22.085 24.094 22.9587 24.0622 23.5104 23.5105C24.0966 22.9243 24.0959 21.9746 23.5104 21.3892L19.6213 17.5001L23.5104 13.611L23.6078 13.5039Z" clip-rule="evenodd"/>
    </g>
  </g>
</svg>
