<svg xmlns="http://www.w3.org/2000/svg" width="32" height="32" viewBox="0 0 32 32">
  <g class="neo-icon-kit--no-slash-orange">
    <path fill="#F85D22" d="M16 32C24.8366 32 32 24.8366 32 16C32 7.16344 24.8366 0 16 0C7.16344 0 0 7.16344 0 16C0 24.8366 7.16344 32 16 32Z" class="svg-secondary-fill"/>
    <path fill="#fff" fill-rule="evenodd" d="M16 7.44995C11.2779 7.44995 7.44995 11.2779 7.44995 16C7.44995 20.722 11.2779 24.55 16 24.55C20.722 24.55 24.55 20.722 24.55 16C24.55 13.7324 23.6492 11.5576 22.0457 9.95419C20.4423 8.35075 18.2676 7.44995 16 7.44995ZM19.35 21.09C16.9355 22.6888 13.729 22.3662 11.6814 20.3185C9.6337 18.2709 9.31115 15.0644 10.91 12.65L19.35 21.09ZM20.3185 11.6814C18.2709 9.6337 15.0644 9.31115 12.65 10.91L21.09 19.35C22.6888 16.9355 22.3662 13.729 20.3185 11.6814Z" class="svg-primary-fill" clip-rule="evenodd"/>
  </g>
</svg>
