<svg xmlns="http://www.w3.org/2000/svg" width="48" height="48" viewBox="0 0 48 48">
  <g class="neo-icon-kit--no-slash">
    <path fill="#444B61" fill-rule="evenodd" d="M4 24C4 35.0455 12.9545 44 24 44C35.0455 44 44 35.0455 44 24C44 12.9545 35.0455 4 24 4C12.9545 4 4 12.9545 4 24ZM13.7855 11.2145L36.7855 34.2145C41.9937 27.7036 41.4736 18.3178 35.5779 12.4221C29.6822 6.52643 20.2964 6.00634 13.7855 11.2145ZM11.2145 13.7855C6.00634 20.2964 6.52643 29.6822 12.4221 35.5779C18.3178 41.4736 27.7036 41.9937 34.2145 36.7855L11.2145 13.7855Z" class="svg-primary-fill" clip-rule="evenodd"/>
  </g>
</svg>
