<svg xmlns="http://www.w3.org/2000/svg" width="48" height="48" viewBox="0 0 48 48">
  <g class="neo-icon-kit--no-wifi">
    <path fill="#006FCF" d="M7.30323 3.05996L12.5212 8.27996L12.5792 8.25596C16.1662 6.77066 20.0099 6.00416 23.8922 5.99996C32.5322 5.99996 40.8172 9.81296 46.6202 16.46C46.8742 16.75 47.0002 17.115 47.0002 17.476C47.0002 17.894 46.8342 18.309 46.5082 18.61C45.8982 19.172 44.9622 19.12 44.4162 18.494C39.1722 12.488 31.6922 9.04396 23.8922 9.04396C20.815 9.04676 17.7614 9.58129 14.8662 10.624L20.5202 16.278L20.5882 16.266C21.6846 16.0884 22.7936 15.9995 23.9042 16C30.5072 16 36.6242 19.113 40.6922 24.542C40.8927 24.8117 41.0007 25.1389 41.0002 25.475C41.0017 25.7059 40.9513 25.9341 40.8526 26.1429C40.7539 26.3516 40.6096 26.5355 40.4302 26.681C40.2786 26.8034 40.1036 26.8937 39.916 26.9465C39.7283 26.9993 39.532 27.0135 39.3387 26.9881C39.1454 26.9628 38.9593 26.8985 38.7917 26.7991C38.624 26.6997 38.4782 26.5673 38.3632 26.41C34.8602 21.732 29.5892 19.05 23.9032 19.05C23.7032 19.05 23.5012 19.053 23.3012 19.06L44.7792 40.54C45.0525 40.8229 45.2037 41.2018 45.2002 41.5951C45.1968 41.9884 45.0391 42.3646 44.761 42.6427C44.4828 42.9208 44.1066 43.0786 43.7133 43.082C43.32 43.0854 42.9411 42.9342 42.6582 42.661L5.18223 5.18196C5.03897 5.04359 4.9247 4.87807 4.84608 4.69507C4.76747 4.51206 4.72609 4.31523 4.72436 4.11606C4.72263 3.91689 4.76058 3.71937 4.836 3.53503C4.91142 3.35068 5.0228 3.18321 5.16364 3.04237C5.30448 2.90153 5.47196 2.79015 5.6563 2.71473C5.84065 2.63931 6.03817 2.60135 6.23734 2.60308C6.43651 2.60481 6.63334 2.64619 6.81634 2.72481C6.99935 2.80342 7.16486 2.91769 7.30323 3.06096V3.05996ZM24.0002 36C25.6542 36 27.0002 37.345 27.0002 39C27.0002 40.655 25.6542 42 24.0002 42C22.3462 42 21.0002 40.654 21.0002 39C21.0002 37.346 22.3472 36 24.0002 36ZM21.4342 26.295C22.2542 26.295 22.9192 26.96 22.9192 27.78C22.9192 28.38 22.5692 28.982 22.0512 29.15L21.9382 29.18C20.6353 29.4822 19.412 30.0597 18.3508 30.8739C17.2895 31.688 16.4147 32.7198 15.7852 33.9C15.4012 34.624 14.5052 34.9 13.7852 34.514C13.4385 34.3276 13.1797 34.0116 13.0652 33.635C12.9507 33.2584 12.9899 32.8518 13.1742 32.504C13.9502 31.0291 15.0207 29.7292 16.3193 28.6847C17.618 27.6403 19.1172 26.8735 20.7242 26.432L21.0742 26.332C21.1933 26.302 21.3155 26.2869 21.4382 26.287L21.4342 26.295ZM13.9392 18.803C14.2643 18.8035 14.5804 18.9092 14.8403 19.1043C15.1003 19.2993 15.2902 19.5732 15.3817 19.8851C15.4732 20.197 15.4613 20.5301 15.3479 20.8347C15.2344 21.1392 15.0255 21.3989 14.7522 21.575C12.7721 22.7719 11.0323 24.3275 9.62223 26.162C9.50459 26.3172 9.35669 26.4469 9.18747 26.5433C9.01825 26.6397 8.83124 26.7008 8.63773 26.7229C8.44423 26.7449 8.24826 26.7275 8.06168 26.6717C7.8751 26.6158 7.70179 26.5227 7.55223 26.398C7.24597 26.1389 7.0513 25.7717 7.00865 25.3728C6.96601 24.9739 7.07867 24.574 7.32323 24.256C8.9303 22.1713 10.9047 20.3979 13.1492 19.023C13.3874 18.8793 13.6601 18.8032 13.9382 18.803H13.9392ZM6.85923 11.723C7.17281 11.7236 7.47836 11.8222 7.73324 12.0049C7.98812 12.1875 8.17962 12.4452 8.28103 12.7419C8.38243 13.0387 8.38869 13.3597 8.29891 13.6601C8.20913 13.9606 8.02781 14.2255 7.78023 14.418C6.25169 15.5539 4.84246 16.8422 3.57423 18.263C3.02123 18.883 2.07423 18.925 1.48123 18.356C0.888234 17.787 0.838235 16.826 1.39123 16.206C2.77043 14.6598 4.30145 13.2561 5.96123 12.016C6.22414 11.829 6.53768 11.7265 6.86023 11.722L6.85923 11.723Z" class="svg-primary-fill"/>
  </g>
</svg>
