<svg xmlns="http://www.w3.org/2000/svg" width="49" height="48" viewBox="0 0 49 48">
  <g class="neo-icon-kit--no-wifi-filled">
    <path fill="#006FCF" d="M8.30351 3.05996L12.7595 7.51496C16.5908 5.86047 20.7192 5.0047 24.8925 4.99996C33.8245 4.99996 42.3825 8.93996 48.3745 15.804C48.7785 16.2676 49.0006 16.862 48.9995 17.477C48.9995 18.183 48.7115 18.861 48.1855 19.347C47.9441 19.5709 47.6601 19.7439 47.3505 19.8557C47.0408 19.9676 46.7118 20.0159 46.3831 19.9979C46.0543 19.9799 45.7325 19.8959 45.437 19.7509C45.1414 19.6059 44.878 19.4029 44.6625 19.154C39.6075 13.354 32.4025 10.046 24.8925 10.046C22.0745 10.046 19.2925 10.516 16.6525 11.411L20.6625 15.421C22.0592 15.1415 23.4801 15.0005 24.9045 15C31.8245 15 38.2385 18.264 42.4945 23.943C42.8239 24.3857 43.0014 24.9231 43.0005 25.475C43.0005 26.243 42.6605 26.977 42.0555 27.461C41.7992 27.6672 41.5038 27.8195 41.1871 27.9087C40.8704 27.9979 40.5389 28.0221 40.2126 27.9799C39.8863 27.9377 39.5719 27.8299 39.2884 27.663C39.0048 27.4962 38.7579 27.2737 38.5625 27.009C35.3275 22.689 30.5125 20.173 25.2955 20.053L45.7805 40.537C46.0537 40.8199 46.2049 41.1988 46.2015 41.5921C46.1981 41.9854 46.0403 42.3616 45.7622 42.6397C45.4841 42.9178 45.1079 43.0756 44.7146 43.079C44.3213 43.0824 43.9424 42.9312 43.6595 42.658L6.18251 5.18196C6.03924 5.04359 5.92497 4.87807 5.84635 4.69507C5.76774 4.51206 5.72636 4.31523 5.72463 4.11606C5.7229 3.91689 5.76085 3.71937 5.83627 3.53503C5.91169 3.35068 6.02307 3.18321 6.16391 3.04237C6.30475 2.90153 6.47223 2.79015 6.65657 2.71473C6.84092 2.63931 7.03844 2.60135 7.23761 2.60308C7.43678 2.60481 7.63361 2.64619 7.81661 2.72481C7.99962 2.80342 8.16514 2.91769 8.30351 3.06096V3.05996ZM25.0005 35C27.2065 35 29.0005 36.793 29.0005 39C29.0005 41.207 27.2075 43 25.0005 43C22.7935 43 21.0005 41.206 21.0005 39C21.0005 36.794 22.7945 35 25.0005 35ZM21.3605 25.588C21.9368 25.5877 22.4956 25.7865 22.9422 26.1509C23.3887 26.5152 23.6957 27.0227 23.8111 27.5874C23.9265 28.152 23.8432 28.7392 23.5754 29.2496C23.3076 29.7599 22.8717 30.1621 22.3415 30.388C20.3303 31.0628 18.6568 32.4873 17.6695 34.365C17.5168 34.653 17.3089 34.9081 17.0575 35.1157C16.8062 35.3233 16.5163 35.4793 16.2046 35.5748C15.8929 35.6702 15.5655 35.7033 15.241 35.6721C14.9165 35.6409 14.6013 35.5461 14.3135 35.393C13.734 35.0814 13.3011 34.5533 13.1093 33.9239C12.9174 33.2945 12.9822 32.6148 13.2895 32.033C14.767 29.227 17.2059 27.0472 20.1595 25.893C20.5277 25.6914 20.9408 25.5871 21.3605 25.588ZM14.0955 18.35C14.7585 18.35 15.3944 18.6134 15.8633 19.0822C16.3321 19.551 16.5955 20.1869 16.5955 20.85C16.5955 21.713 16.1585 22.473 15.4935 22.923L15.4995 22.933C13.9422 23.9879 12.563 25.2841 11.4135 26.773C11.2137 27.034 10.9632 27.252 10.677 27.4139C10.3909 27.5757 10.075 27.6781 9.74825 27.7148C9.42154 27.7515 9.09078 27.7218 8.77584 27.6275C8.4609 27.5332 8.16826 27.3762 7.91551 27.166C7.4096 26.7412 7.08748 26.1373 7.01648 25.4806C6.94547 24.8238 7.13108 24.165 7.53451 23.642C8.99787 21.7448 10.753 20.0919 12.7345 18.745C13.1419 18.4868 13.6142 18.3495 14.0965 18.349L14.0955 18.35ZM7.06051 11.337C7.72355 11.337 8.35943 11.6004 8.82827 12.0692C9.29711 12.538 9.56051 13.1739 9.56051 13.837C9.56051 14.623 9.19851 15.323 8.63051 15.782L8.63751 15.792C7.44363 16.7424 6.33294 17.7929 5.31751 18.932C5.09874 19.1776 4.83298 19.3768 4.53592 19.518C4.23886 19.6592 3.91652 19.7394 3.58793 19.754C3.25935 19.7685 2.93118 19.7171 2.62281 19.6027C2.31444 19.4883 2.03211 19.3133 1.79251 19.088C1.3124 18.6322 1.02832 18.0077 1.00033 17.3463C0.972338 16.685 1.20262 16.0386 1.64251 15.544C2.83349 14.2093 4.13439 12.977 5.53151 11.86C5.95551 11.535 6.48451 11.34 7.05951 11.34L7.06051 11.337Z" class="svg-primary-fill"/>
  </g>
</svg>
