<svg xmlns="http://www.w3.org/2000/svg" width="48" height="48" viewBox="0 0 48 48">
  <g class="neo-icon-kit--not-available-filled">
    <path fill="#006FCF" fill-rule="evenodd" d="M7.02944 40.9706C16.402 50.3431 31.598 50.3431 40.9706 40.9706C50.3431 31.598 50.3431 16.402 40.9706 7.02944C31.598 -2.34315 16.402 -2.34315 7.02944 7.02944C-2.34315 16.402 -2.34315 31.598 7.02944 40.9706ZM12.6492 8.76012L39.2399 35.3508C44.7962 27.9102 44.1946 17.3245 37.435 10.565C30.6755 3.8054 20.0898 3.20379 12.6492 8.76012ZM35.3508 39.2399L8.76012 12.6492C3.20379 20.0898 3.8054 30.6755 10.565 37.435C17.3245 44.1946 27.9102 44.7962 35.3508 39.2399Z" class="svg-primary-fill" clip-rule="evenodd"/>
  </g>
</svg>
