<svg xmlns="http://www.w3.org/2000/svg" width="48" height="48" viewBox="0 0 48 48">
  <g class="neo-icon-kit--not-available">
    <path fill="#006FCF" fill-rule="evenodd" d="M0 24C0 37.2548 10.7452 48 24 48C37.2548 48 48 37.2548 48 24C48 10.7452 37.2548 0 24 0C10.7452 0 0 10.7452 0 24ZM10.4395 7.96465L40.0353 37.5605C43.1325 33.9018 45 29.169 45 24C45 12.402 35.598 3 24 3C18.831 3 14.0982 4.86752 10.4395 7.96465ZM37.5605 40.0353L7.96465 10.4395C4.86752 14.0981 3 18.8309 3 23.9999C3 35.5979 12.402 44.9999 24 44.9999C29.169 44.9999 33.9018 43.1324 37.5605 40.0353Z" class="svg-primary-fill" clip-rule="evenodd"/>
  </g>
</svg>
