<svg xmlns="http://www.w3.org/2000/svg" width="48" height="48" viewBox="0 0 48 48">
  <g class="neo-icon-kit--offer-mobile-filled">
    <path fill="#006FCF" fill-rule="evenodd" d="M14.8828 3H33.1172C34.6502 3 35.9073 4.20045 35.9951 5.70864L36 5.87744V27.0742C36 27.834 35.6904 28.5771 35.1514 29.1123C35.0706 29.1943 34.9769 29.2768 34.8747 29.3551L34.7158 29.4688L25.5957 35.5186C25.123 35.833 24.5713 36 24 36C23.5052 36 23.024 35.8744 22.5954 35.6349L22.415 35.5254L13.2988 29.54C12.5396 29.0424 12.0662 28.2257 12.0064 27.329L12 27.1357V5.87744C12 5.10889 12.3008 4.38574 12.8457 3.8418C13.3411 3.34775 13.9842 3.05627 14.6744 3.00736L14.8828 3ZM37.6055 30.9736C37.8955 30.1973 38.7578 29.8018 39.5361 30.0957C43.1621 31.4541 45 33.583 45 36.4229C45 40.6348 37.9578 44.8973 24.4896 44.9982L24 45C10.2129 45 3 40.6855 3 36.4229C3 33.585 4.83691 31.4561 8.45996 30.0967C9.24023 29.8057 10.1016 30.1992 10.3916 30.9736C10.6826 31.75 10.29 32.6143 9.51465 32.9053C6.39941 34.0742 6 35.3994 6 36.4229C6 38.6652 12.8156 41.9072 23.5381 41.998L24 42C34.9883 42 42 38.6973 42 36.4229L41.9951 36.2334C41.9416 35.2383 41.4117 34.0015 38.4834 32.9043C37.708 32.6143 37.3145 31.749 37.6055 30.9736ZM22.6054 26.4622C21.8261 25.6769 21.7851 24.3955 22.5644 23.6101C23.3437 22.8247 24.6152 22.7834 25.3946 23.5688C26.1739 24.3542 26.2149 25.6355 25.4356 26.4209C24.6973 27.1649 23.4258 27.2062 22.6054 26.4622Z" class="svg-primary-fill" clip-rule="evenodd"/>
  </g>
</svg>
