<svg xmlns="http://www.w3.org/2000/svg" width="48" height="48" viewBox="0 0 48 48">
  <g class="neo-icon-kit--offer-mobile">
    <path fill="#006FCF" fill-rule="evenodd" d="M36 27.0742L35.9951 5.70864C35.9073 4.20045 34.6502 3 33.1172 3L14.6744 3.00736C13.9842 3.05627 13.3411 3.34775 12.8457 3.8418C12.3003 4.38574 12 5.10889 12 5.87744V27.1357L12.0064 27.329C12.0662 28.2257 12.54 29.0424 13.2988 29.54L22.5954 35.6349C23.024 35.8744 23.5052 36 24 36C24.5713 36 25.123 35.833 25.5957 35.5186L34.7158 29.4688C34.7158 29.4688 35.0706 29.1943 35.1514 29.1123C35.6904 28.5771 36 27.834 36 27.0742ZM39.5361 30.0957C38.7578 29.8018 37.8955 30.1973 37.6055 30.9736C37.3145 31.749 37.708 32.6143 38.4834 32.9043C41.4117 34.0015 41.9416 35.2383 41.9951 36.2334L42 36.4229C42 38.6973 34.9883 42 24 42C13.0117 42 6 38.6973 6 36.4229C6 35.3994 6.39941 34.0742 9.51416 32.9053C10.29 32.6143 10.6826 31.75 10.3916 30.9736C10.1006 30.1982 9.2334 29.8037 8.46045 30.0967C4.83691 31.4561 3 33.584 3 36.4229C3 40.6855 10.2134 45 24 45C37.7871 45 45 40.6855 45 36.4229C45 33.583 43.1621 31.4541 39.5361 30.0957ZM33 6H15V27.0859L24 33L33 27.0243V6ZM25.3946 23.5688C24.6152 22.7834 23.3437 22.8247 22.5644 23.6101C21.7851 24.3955 21.8261 25.6769 22.6054 26.4622C23.4258 27.2062 24.6973 27.1649 25.4356 26.4209C26.2149 25.6355 26.1739 24.3542 25.3946 23.5688Z" class="svg-primary-fill" clip-rule="evenodd"/>
  </g>
</svg>
