<svg xmlns="http://www.w3.org/2000/svg" width="48" height="48" viewBox="0 0 48 48">
  <g class="neo-icon-kit--offer-desktop-bg500">
    <path fill="#848996" fill-rule="evenodd" d="M48 9C48 7.34315 46.6569 6 45 6H9C7.34315 6 6 7.34315 6 9V14H3C1.34315 14 0 15.3431 0 17V39C0 40.6569 1.34315 42 3 42H39C40.6569 42 42 40.6569 42 39V34H45C46.6569 34 48 32.6569 48 31V9ZM3 17H39V39H3V17ZM45 9H9V14H39C40.6569 14 42 15.3431 42 17V31H45V9ZM32 21.5C32 20.6716 31.3284 20 30.5 20C29.6716 20 29 20.6716 29 21.5V24H26.5C25.6716 24 25 24.6716 25 25.5C25 26.3284 25.6716 27 26.5 27H29V29.5C29 30.3284 29.6716 31 30.5 31C31.3284 31 32 30.3284 32 29.5V27H34.5C35.3284 27 36 26.3284 36 25.5C36 24.6716 35.3284 24 34.5 24H32V21.5Z" class="svg-primary-fill" clip-rule="evenodd"/>
  </g>
</svg>
