<svg xmlns="http://www.w3.org/2000/svg" width="48" height="48" viewBox="0 0 48 48">
  <g class="neo-icon-kit--offer-desktop-filled">
    <path fill="#006FCF" fill-rule="evenodd" d="M45 6C46.6569 6 48 7.34315 48 9V31C48 32.6569 46.6569 34 45 34H42V39C42 40.6569 40.6569 42 39 42H3C1.34315 42 0 40.6569 0 39V17C0 15.3431 1.34315 14 3 14H6V9C6 7.34315 7.34315 6 9 6H45ZM45 9H9V14H39C40.6569 14 42 15.3431 42 17V31H45V9ZM29.0069 21.3555C29.0796 20.5949 29.7203 20 30.5 20C31.3284 20 32 20.6716 32 21.5V24H34.5L34.6445 24.0069C35.4051 24.0796 36 24.7203 36 25.5C36 26.3284 35.3284 27 34.5 27H32V29.5L31.9931 29.6445C31.9204 30.4051 31.2797 31 30.5 31C29.6716 31 29 30.3284 29 29.5V27H26.5L26.3555 26.9931C25.5949 26.9204 25 26.2797 25 25.5C25 24.6716 25.6716 24 26.5 24H29V21.5L29.0069 21.3555Z" class="svg-primary-fill" clip-rule="evenodd"/>
  </g>
</svg>
