<svg xmlns="http://www.w3.org/2000/svg" width="48" height="48" viewBox="0 0 48 48">
  <g class="neo-icon-kit--office-supply-filled">
    <path fill="#006FCF" fill-rule="evenodd" d="M24 21V6C24 4.34315 25.3431 3 27 3H35C36.6569 3 38 4.34315 38 6V21H39C40.6569 21 42 22.3431 42 24V27C42 28.6569 40.6569 30 39 30V42C39 43.6569 37.6569 45 36 45H12C10.3431 45 9 43.6569 9 42L9 30C7.34315 30 6 28.6569 6 27V24C6 22.3431 7.34315 21 9 21H9.21783L6.59921 11.2272C6.39328 10.4586 6.50109 9.63976 6.89891 8.95071L9.02023 5.27647C9.84866 3.84159 11.6834 3.34997 13.1183 4.1784L16.7925 6.29972C17.4816 6.69754 17.9844 7.3528 18.1903 8.12133L21.6411 21H24ZM27 6H35V21H27V18H30.5C31.3284 18 32 17.3284 32 16.5C32 15.6716 31.3284 15 30.5 15H27V12H30.5C31.3284 12 32 11.3284 32 10.5C32 9.67157 31.3284 9 30.5 9H27V6ZM39 24V27H9L9 24H39ZM18.5353 21L16.0469 11.7131C15.9102 11.807 15.7554 11.8796 15.586 11.925L10.2734 13.3485L12.3237 21H18.5353ZM11.6183 6.77647L15.2925 8.89779L15.3146 8.98021C15.1493 8.9673 14.9789 8.9818 14.8096 9.02718L9.497 10.4507L11.6183 6.77647Z" class="svg-primary-fill" clip-rule="evenodd"/>
  </g>
</svg>
