<svg xmlns="http://www.w3.org/2000/svg" width="48" height="48" viewBox="0 0 48 48">
  <g class="neo-icon-kit--office-supply">
    <path fill="#006FCF" fill-rule="evenodd" d="M24 6V21H21.6411L18.1903 8.12133C17.9844 7.3528 17.4816 6.69754 16.7925 6.29972L13.1183 4.1784C11.6834 3.34997 9.84866 3.84159 9.02023 5.27647L6.89891 8.95071C6.50109 9.63976 6.39328 10.4586 6.59921 11.2272L9.21783 21H9C7.34315 21 6 22.3431 6 24V27C6 28.6569 7.34315 30 9 30L9 42C9 43.6569 10.3431 45 12 45H36C37.6569 45 39 43.6569 39 42V30C40.6569 30 42 28.6569 42 27V24C42 22.3431 40.6569 21 39 21H38V6C38 4.34315 36.6569 3 35 3H27C25.3431 3 24 4.34315 24 6ZM35 6H27V9H30.5C31.3284 9 32 9.67157 32 10.5C32 11.3284 31.3284 12 30.5 12H27V15H30.5C31.3284 15 32 15.6716 32 16.5C32 17.3284 31.3284 18 30.5 18H27V21H35V6ZM36 30H12V42H36V30ZM39 27V24H9L9 27H39ZM16.0469 11.7131L18.5353 21H12.3237L10.2734 13.3485L15.586 11.925C15.7554 11.8796 15.9102 11.807 16.0469 11.7131ZM15.2925 8.89779L11.6183 6.77647L9.497 10.4507L14.8096 9.02718C14.9789 8.9818 15.1493 8.9673 15.3146 8.98021L15.2925 8.89779Z" class="svg-primary-fill" clip-rule="evenodd"/>
  </g>
</svg>
