<svg xmlns="http://www.w3.org/2000/svg" width="48" height="48" viewBox="0 0 48 48">
  <g class="neo-icon-kit--open-banking">
    <path fill="#006FCF" d="M24.764 3.21029L24.889 3.29329L43.889 17.2933C45.017 18.1233 44.485 19.8833 43.137 19.9953L43 20.0003H37.5V25.0003H40C40.3978 25.0003 40.7794 25.1583 41.0607 25.4396C41.342 25.7209 41.5 26.1025 41.5 26.5003C41.5 26.8981 41.342 27.2796 41.0607 27.5609C40.7794 27.8423 40.3978 28.0003 40 28.0003H36C35.6022 28.0003 35.2206 27.8423 34.9393 27.5609C34.658 27.2796 34.5 26.8981 34.5 26.5003V20.0003H31.5V33.0003H38.756C39.0542 32.1568 39.5971 31.4214 40.3153 30.8879C41.0335 30.3545 41.8943 30.0472 42.788 30.0053L43 30.0003C44.1935 30.0003 45.3381 30.4744 46.182 31.3183C47.0259 32.1622 47.5 33.3068 47.5 34.5003C47.5 35.6938 47.0259 36.8384 46.182 37.6823C45.3381 38.5262 44.1935 39.0003 43 39.0003C42.0693 39.0003 41.1614 38.7118 40.4014 38.1745C39.6414 37.6373 39.0665 36.8777 38.756 36.0003H30C29.6022 36.0003 29.2206 35.8423 28.9393 35.5609C28.658 35.2796 28.5 34.8981 28.5 34.5003V20.0003H25.5V42.0003H40.5C40.8978 42.0003 41.2794 42.1583 41.5607 42.4396C41.842 42.7209 42 43.1025 42 43.5003C42 43.8981 41.842 44.2796 41.5607 44.5609C41.2794 44.8423 40.8978 45.0003 40.5 45.0003H7.5C7.10218 45.0003 6.72064 44.8423 6.43934 44.5609C6.15804 44.2796 6 43.8981 6 43.5003C6 43.1025 6.15804 42.7209 6.43934 42.4396C6.72064 42.1583 7.10218 42.0003 7.5 42.0003H22.5V20.0003H19.5V37.5003C19.5 37.8732 19.3611 38.2327 19.1104 38.5087C18.8597 38.7847 18.5152 38.9575 18.144 38.9933L18 39.0003H4.5C4.10218 39.0003 3.72064 38.8423 3.43934 38.5609C3.15804 38.2796 3 37.8981 3 37.5003C3 37.1025 3.15804 36.7209 3.43934 36.4396C3.72064 36.1583 4.10218 36.0003 4.5 36.0003H16.5V20.0003H13.5V28.5003C13.5 28.8732 13.3611 29.2327 13.1104 29.5087C12.8597 29.7847 12.5152 29.9575 12.144 29.9933L12 30.0003H9.244C8.93348 30.8777 8.35865 31.6373 7.59862 32.1745C6.8386 32.7118 5.93074 33.0003 5 33.0003C3.80653 33.0003 2.66193 32.5262 1.81802 31.6823C0.974106 30.8384 0.5 29.6938 0.5 28.5003C0.5 27.3068 0.974106 26.1622 1.81802 25.3183C2.66193 24.4744 3.80653 24.0003 5 24.0003C5.93077 24.0002 6.8387 24.2886 7.59875 24.8258C8.3588 25.3631 8.93361 26.1228 9.244 27.0003H10.5V20.0003H5C3.6 20.0003 2.985 18.2703 4.003 17.3803L4.11 17.2943L23.11 3.29429C23.3471 3.11961 23.6304 3.0186 23.9245 3.00384C24.2186 2.98908 24.5106 3.06023 24.764 3.21029ZM43 33.0003C42.6022 33.0003 42.2206 33.1583 41.9393 33.4396C41.658 33.7209 41.5 34.1025 41.5 34.5003C41.5 34.8981 41.658 35.2796 41.9393 35.5609C42.2206 35.8423 42.6022 36.0003 43 36.0003C43.3978 36.0003 43.7794 35.8423 44.0607 35.5609C44.342 35.2796 44.5 34.8981 44.5 34.5003C44.5 34.1025 44.342 33.7209 44.0607 33.4396C43.7794 33.1583 43.3978 33.0003 43 33.0003ZM5 27.0003C4.60218 27.0003 4.22064 27.1583 3.93934 27.4396C3.65804 27.7209 3.5 28.1025 3.5 28.5003C3.5 28.8981 3.65804 29.2796 3.93934 29.5609C4.22064 29.8423 4.60218 30.0003 5 30.0003C5.39782 30.0003 5.77936 29.8423 6.06066 29.5609C6.34196 29.2796 6.5 28.8981 6.5 28.5003C6.5 28.1025 6.34196 27.7209 6.06066 27.4396C5.77936 27.1583 5.39782 27.0003 5 27.0003ZM24 6.36229L9.563 17.0003H38.436L24 6.36229ZM24 10.5003C24.5304 10.5003 25.0391 10.711 25.4142 11.0861C25.7893 11.4611 26 11.9699 26 12.5003C26 13.0307 25.7893 13.5394 25.4142 13.9145C25.0391 14.2896 24.5304 14.5003 24 14.5003C23.4696 14.5003 22.9609 14.2896 22.5858 13.9145C22.2107 13.5394 22 13.0307 22 12.5003C22 11.9699 22.2107 11.4611 22.5858 11.0861C22.9609 10.711 23.4696 10.5003 24 10.5003Z" class="svg-primary-fill"/>
  </g>
</svg>
