<svg xmlns="http://www.w3.org/2000/svg" width="48" height="48" viewBox="0 0 48 48">
  <g class="neo-icon-kit--options">
    <path fill="#006FCF" fill-rule="evenodd" d="M12 6H36C39.3137 6 42 8.68629 42 12C42 15.3137 39.3137 18 36 18H12C8.68629 18 6 15.3137 6 12C6 8.68629 8.68629 6 12 6ZM3 12C3 7.02944 7.02944 3 12 3H36C40.9706 3 45 7.02944 45 12C45 16.9706 40.9706 21 36 21H12C7.02944 21 3 16.9706 3 12ZM12 16C14.2091 16 16 14.2091 16 12C16 9.79086 14.2091 8 12 8C9.79086 8 8 9.79086 8 12C8 14.2091 9.79086 16 12 16ZM3 36C3 31.0294 7.02944 27 12 27H36C40.9706 27 45 31.0294 45 36C45 40.9706 40.9706 45 36 45H12C7.02944 45 3 40.9706 3 36ZM41 36C41 38.7614 38.7614 41 36 41C33.2386 41 31 38.7614 31 36C31 33.2386 33.2386 31 36 31C38.7614 31 41 33.2386 41 36Z" class="svg-primary-fill" clip-rule="evenodd"/>
  </g>
</svg>
