<svg xmlns="http://www.w3.org/2000/svg" width="48" height="48" viewBox="0 0 48 48">
  <g class="neo-icon-kit--oversize-bag-filled">
    <path fill="#006FCF" fill-rule="evenodd" d="M31 4C32.5 4 34 5.5 33.9949 6.99994L34 9.99987H42C43.5911 9.99987 44.9032 11.2552 44.9949 12.8242L45 37.9993C45 39.5904 43.7447 40.9024 42.1756 40.9941L35.9913 40.9992C35.9903 42.1281 35.3577 43.2096 34.2671 43.7182C33.5163 44.0683 32.6947 44.081 31.9732 43.8183C31.2518 43.5558 30.6305 43.0179 30.2803 42.2672C30.1206 41.9246 30.0371 41.5679 30.014 41.2124L30.0072 40.9992H17.9921C17.991 42.1281 17.3585 43.2096 16.2679 43.7182C15.517 44.0683 14.6954 44.081 13.9739 43.8183C13.2525 43.5558 12.6312 43.0179 12.2811 42.2672C12.1213 41.9246 12.0378 41.5679 12.0147 41.2124L12.014 40.999L6 40.9992C4.40891 40.9992 3.09681 39.744 3.00512 38.1749L3 12.9998C3 11.4088 4.25527 10.0967 5.82441 10.005L14 9.99987V6.99994C14 5.40894 15 4 16.8244 4.00512L31 4ZM32.5412 18.4387L32.4272 18.3359C31.8373 17.856 30.9673 17.8903 30.4174 18.4387C29.9023 18.9526 29.8396 19.7469 30.2295 20.329L30.32 20.4502L33.8714 24.0023L14.1271 24.0023L17.6785 20.4503C18.1655 19.8619 18.1331 18.9893 17.5811 18.4388C17.0313 17.8904 16.1612 17.8561 15.5714 18.3359L15.4573 18.4388L9.34241 24.5476C8.88789 25.0969 8.88588 25.8936 9.33633 26.4451L9.43978 26.5593L15.5644 32.6584C16.1151 33.1118 16.9138 33.1139 17.4666 32.6645L17.5811 32.5613L17.6785 32.4544C18.1331 31.9052 18.1351 31.1085 17.6846 30.5571L17.5811 30.4429L14.1278 26.9984L23.999 26.992L33.8707 26.9984L30.4174 30.4429L30.314 30.5571C29.8956 31.0691 29.8675 31.7926 30.2295 32.3331L30.32 32.4544L30.4174 32.5612L30.532 32.6644C31.0453 33.0817 31.7706 33.1098 32.3125 32.7486L32.4341 32.6584L38.5587 26.5592L38.6621 26.4449C39.0805 25.9329 39.1086 25.2094 38.7466 24.6689L38.6561 24.5476L32.5412 18.4387ZM17 7H31V10H17V7Z" class="svg-primary-fill" clip-rule="evenodd"/>
  </g>
</svg>
