<svg xmlns="http://www.w3.org/2000/svg" width="48" height="48" viewBox="0 0 48 48">
  <g class="neo-icon-kit--oversize-bag">
    <path fill="#006FCF" fill-rule="evenodd" d="M33.9949 6.99994C34 5.5 32.5 4 31 4L16.8244 4.00512C15 4 14 5.40894 14 6.99994V9.99987L5.82441 10.005C4.25527 10.0967 3 11.4088 3 12.9998L3.00512 38.1749C3.09681 39.744 4.40891 40.9992 6 40.9992L12.014 40.999L12.0147 41.2124C12.0378 41.5679 12.1213 41.9246 12.2811 42.2672C12.6312 43.0179 13.2525 43.5558 13.9739 43.8183C14.6954 44.081 15.517 44.0683 16.2679 43.7182C17.3585 43.2096 17.991 42.1281 17.9921 40.9992H30.0072L30.014 41.2124C30.0371 41.5679 30.1206 41.9246 30.2803 42.2672C30.6305 43.0179 31.2518 43.5558 31.9732 43.8183C32.6947 44.081 33.5163 44.0683 34.2671 43.7182C35.3577 43.2096 35.9903 42.1281 35.9913 40.9992L42.1756 40.9941C43.7447 40.9024 45 39.5904 45 37.9993L44.9949 12.8242C44.9032 11.2552 43.5911 9.99987 42 9.99987H34L33.9949 6.99994ZM6 13H42V38H6V13ZM32.4272 18.3359L32.5412 18.4387L38.6561 24.5476C39.1106 25.0969 39.1127 25.8935 38.6621 26.4449L38.5587 26.5592L32.4341 32.6584C31.8835 33.1118 31.0848 33.1138 30.532 32.6644L30.4174 32.5612L30.32 32.4544C29.8655 31.9052 29.8634 31.1085 30.314 30.5571L30.4174 30.4429L33.8707 26.9984L23.999 26.992L14.1278 26.9984L17.5811 30.4429C18.1331 30.9935 18.1655 31.866 17.6785 32.4544L17.5811 32.5613C17.0291 33.1118 16.1544 33.1442 15.5644 32.6584L9.43978 26.5593C8.8879 26.0087 8.85543 25.1361 9.34241 24.5476L15.4573 18.4388C16.0438 17.8538 16.9946 17.8538 17.5811 18.4388C18.1331 18.9893 18.1655 19.8619 17.6785 20.4503L14.1271 24.0023L33.8714 24.0023L30.32 20.4502C29.833 19.8618 29.8655 18.9893 30.4174 18.4387C30.9673 17.8903 31.8373 17.856 32.4272 18.3359ZM17 7H31V10H17V7Z" class="svg-primary-fill" clip-rule="evenodd"/>
  </g>
</svg>
