<svg xmlns="http://www.w3.org/2000/svg" width="48" height="48" viewBox="0 0 48 48">
  <g class="neo-icon-kit--overdraft-protection-filled">
    <path fill="#006FCF" d="M38.921 8.00001C34.464 7.97701 30.231 5.98801 26.123 1.88001C25.8418 1.59998 25.5081 1.37812 25.1411 1.22712C24.7741 1.07612 24.3809 0.99895 23.984 1.00001C23.231 1.00001 22.48 1.27901 21.916 1.84401C17.793 5.97801 13.546 7.97801 9.074 8.00001C7.389 8.00801 6 9.31101 6 10.997V30C6 34.355 9.213 38.324 14.365 42.055C17.95 44.65 22.41 47 24 47C25.59 47 30.05 44.65 33.635 42.055C38.787 38.324 42 34.355 42 30V10.998C42 9.31001 40.609 8.00901 38.921 8.00001ZM31.8 28.764C31.791 31.639 29.354 33.674 25.6 34.1V36.114C25.6 36.5118 25.442 36.8934 25.1607 37.1747C24.8794 37.456 24.4978 37.614 24.1 37.614C23.7022 37.614 23.3206 37.456 23.0393 37.1747C22.758 36.8934 22.6 36.5118 22.6 36.114V34.046C19.883 33.563 17.121 31.797 16.259 28.834C16.148 28.4521 16.1931 28.0417 16.3846 27.6931C16.5761 27.3445 16.8981 27.0862 17.28 26.975C17.4691 26.9196 17.6673 26.9021 17.8632 26.9235C18.059 26.9448 18.2488 27.0047 18.4215 27.0995C18.5942 27.1944 18.7465 27.3224 18.8696 27.4762C18.9928 27.6301 19.0843 27.8067 19.139 27.996C19.72 29.993 22.116 31.186 24.097 31.186C26.433 31.186 28.793 30.434 28.799 28.754C28.805 26.979 27.193 26.278 23.772 25.205C20.766 24.262 17.026 23.088 16.972 19.306C16.978 16.571 18.972 14.554 22.175 14.016C22.315 13.993 22.458 13.978 22.6 13.96V11.885C22.6 11.688 22.6388 11.493 22.7142 11.311C22.7896 11.129 22.9001 10.9636 23.0393 10.8244C23.1786 10.6851 23.344 10.5746 23.526 10.4992C23.708 10.4238 23.903 10.385 24.1 10.385C24.297 10.385 24.492 10.4238 24.674 10.4992C24.856 10.5746 25.0214 10.6851 25.1607 10.8244C25.2999 10.9636 25.4104 11.129 25.4858 11.311C25.5612 11.493 25.6 11.688 25.6 11.885V14.049C28.131 14.511 30.5 15.955 31.386 18.501C31.4541 18.6878 31.4844 18.8863 31.475 19.0849C31.4657 19.2835 31.417 19.4783 31.3318 19.6579C31.2465 19.8375 31.1264 19.9984 30.9784 20.1312C30.8304 20.2639 30.6575 20.366 30.4697 20.4313C30.282 20.4967 30.0831 20.5241 29.8846 20.5118C29.6862 20.4996 29.4921 20.4481 29.3138 20.3602C29.1354 20.2724 28.9763 20.1499 28.8457 20C28.7151 19.8501 28.6156 19.6757 28.553 19.487C27.842 17.443 24.949 16.591 22.671 16.973C21.861 17.109 19.976 17.607 19.972 19.286C19.993 20.765 21.761 21.428 24.67 22.34C27.852 23.339 31.813 24.581 31.799 28.761L31.8 28.764Z" class="svg-primary-fill"/>
  </g>
</svg>
