<svg xmlns="http://www.w3.org/2000/svg" width="48" height="48" viewBox="0 0 48 48">
  <g class="neo-icon-kit--overdraft-protection">
    <path fill="#006FCF" d="M23.984 1.00006C24.69 1.00006 25.399 1.24506 25.959 1.72806L26.123 1.88106L26.486 2.23806C30.48 6.10306 34.595 7.97806 38.921 8.00006C40.548 8.00806 41.9 9.21907 41.994 10.8191L41.999 10.9981V30.0001C41.999 34.3551 38.786 38.3241 33.634 42.0551L33.046 42.4731L32.446 42.8851L31.838 43.2891L31.532 43.4871L30.918 43.8751L30.304 44.2491L29.695 44.6081L29.093 44.9501L28.503 45.2731L27.927 45.5741L27.37 45.8521C25.912 46.5611 24.688 47.0001 24 47.0001C23.355 47.0001 22.239 46.6141 20.901 45.9821L20.354 45.7161L20.073 45.5741L19.497 45.2731L18.907 44.9501L18.305 44.6081L17.696 44.2491L17.082 43.8751L16.468 43.4871L16.162 43.2891L15.554 42.8851L14.954 42.4731L14.366 42.0551C9.331 38.4091 6.148 34.5351 6.006 30.2961L6 30.0001V10.9971C6 9.37106 7.291 8.10206 8.895 8.00606L9.074 8.00006C13.546 7.97806 17.792 5.97806 21.916 1.84406C22.1881 1.57403 22.5108 1.36044 22.8657 1.2156C23.2206 1.07075 23.6007 0.997504 23.984 1.00006ZM24.002 4.00106L23.636 4.36106C19.116 8.74206 14.224 10.9751 9.089 11.0001C9.06158 10.9994 9.03433 11.0046 9.009 11.0151L8.986 11.0301L9 30.0001C9 32.9631 11.397 36.2021 16.125 39.6251L16.746 40.0661L17.361 40.4871L18.265 41.0781L18.852 41.4451L19.14 41.6201L19.702 41.9531L19.976 42.1111L20.508 42.4091L21.016 42.6831L21.498 42.9331L21.951 43.1581L22.372 43.3581L22.758 43.5321L22.938 43.6091L23.268 43.7441L23.418 43.8011L23.686 43.8951C23.7898 43.9302 23.8953 43.9602 24.002 43.9851C24.1087 43.9602 24.2142 43.9302 24.318 43.8951L24.586 43.8011L24.896 43.6801L25.066 43.6091L25.434 43.4481L25.838 43.2611L26.275 43.0481L26.505 42.9321L26.987 42.6821L27.238 42.5481L27.758 42.2621L28.301 41.9521L28.863 41.6191L29.151 41.4441L29.738 41.0771L30.338 40.6881L30.949 40.2781L31.879 39.6241C36.482 36.2911 38.875 33.1331 38.998 30.2341L39 30.0001V11.0141L38.951 11.0041C38.9361 11.0015 38.9211 11.0002 38.906 11.0001C33.772 10.9731 28.883 8.74007 24.367 4.36106L24.002 4.00106ZM24.101 10.3861C24.4739 10.3861 24.8334 10.525 25.1094 10.7757C25.3854 11.0264 25.5582 11.3709 25.594 11.7421L25.601 11.8861V14.0501C28.132 14.5121 30.501 15.9561 31.387 18.5021C31.5127 18.8657 31.4938 19.2638 31.3343 19.6139C31.1748 19.9641 30.8869 20.2395 30.53 20.3834C30.1731 20.5272 29.7746 20.5284 29.4169 20.3867C29.0592 20.245 28.7696 19.9713 28.608 19.6221L28.554 19.4881C27.843 17.4441 24.95 16.5921 22.672 16.9741L22.467 17.0121L22.353 17.0371L22.106 17.0991C21.206 17.3461 19.976 17.9311 19.972 19.2881C19.987 20.3231 20.858 20.9591 22.377 21.5601L22.828 21.7311L23.314 21.9021L23.833 22.0751L25.707 22.6731L26.34 22.8871L26.762 23.0391L26.972 23.1181L27.389 23.2841L27.801 23.4611C29.976 24.4341 31.809 25.9181 31.8 28.7641C31.791 31.5671 29.475 33.5721 25.879 34.0651L25.6 34.1001V36.1141C25.5998 36.4993 25.4514 36.8697 25.1856 37.1485C24.9198 37.4272 24.5569 37.5931 24.1721 37.6116C23.7873 37.6301 23.4102 37.4999 23.1188 37.2479C22.8274 36.9959 22.6442 36.6415 22.607 36.2581L22.6 36.1141V34.0461C19.883 33.5631 17.121 31.7971 16.259 28.8341C16.148 28.4522 16.1931 28.0418 16.3846 27.6932C16.5761 27.3446 16.8981 27.0863 17.28 26.9751C17.4691 26.9197 17.6673 26.9022 17.8632 26.9235C18.059 26.9449 18.2488 27.0047 18.4215 27.0996C18.5942 27.1944 18.7465 27.3224 18.8696 27.4763C18.9928 27.6301 19.0843 27.8068 19.139 27.9961C19.72 29.9931 22.116 31.1861 24.097 31.1861C26.433 31.1861 28.793 30.4341 28.799 28.7541C28.803 27.4781 27.972 26.7571 26.233 26.0541L25.759 25.8711L25.243 25.6861L24.686 25.4981L22.725 24.8711L22.299 24.7281L21.873 24.5771L21.449 24.4171L21.238 24.3331L20.822 24.1571C18.759 23.2501 17.009 21.8841 16.972 19.3051C16.978 16.5701 18.972 14.5531 22.175 14.0151L22.386 13.9851L22.6 13.9601V11.8851C22.6 11.4872 22.758 11.1057 23.0393 10.8244C23.3206 10.5431 23.7022 10.3851 24.1 10.3851L24.101 10.3861Z" class="svg-primary-fill"/>
  </g>
</svg>
