<svg xmlns="http://www.w3.org/2000/svg" width="48" height="48" viewBox="0 0 48 48">
  <g class="neo-icon-kit--p2p-filled">
    <path fill="#006FCF" fill-rule="evenodd" d="M40.4931 4.35551C40.4204 3.59472 39.7794 3 39 3C38.1719 3 37.5 3.67139 37.5 4.5V7.5H34.5L34.3556 7.50686C33.5952 7.57953 33 8.22013 33 9C33 9.82861 33.6719 10.5 34.5 10.5H37.5V13.5L37.5069 13.6445C37.5796 14.4053 38.2206 15 39 15C39.8281 15 40.5 14.3286 40.5 13.5V10.5H43.5L43.6444 10.4931C44.4048 10.4205 45 9.77987 45 9C45 8.17139 44.3281 7.5 43.5 7.5H40.5V4.5L40.4931 4.35551ZM22.7566 7L22.4989 7.00585C21.7336 6.9632 13.721 6.92062 13.2708 15.9525C13.2708 15.9525 12.3256 24.0047 16.827 27.7538C16.7937 27.9145 16.7699 28.0129 16.7465 28.0997L16.6332 28.5054C16.4082 29.6557 16.0168 31.3293 15.3415 31.6701L14.4515 32.1541C13.2715 32.7998 11.0482 34.0293 8.57758 35.4613L6.90258 36.4418C3.97949 38.1709 3.19404 40.0557 3 42.6256C3.14194 43.9581 4.26002 45 5.63456 45H39.3638L39.5349 44.9946C40.8358 44.912 41.8711 43.8937 42 42.6092C41.8104 40.0478 41.0541 38.1672 38.0965 36.4418C33.7752 33.8856 29.6562 31.6701 29.6562 31.6701L29.5458 31.6009C29.0053 31.1944 28.6306 29.9072 28.4038 28.8636L28.3209 28.4619C28.3091 28.4146 28.2977 28.3713 28.2867 28.3295C28.2437 28.1663 28.2065 28.025 28.1707 27.7538C32.5269 24.1256 31.7822 16.4675 31.7296 15.9773L31.7045 15.5913C31.1066 7.51557 24.3284 6.99889 22.7566 7Z" class="svg-primary-fill" clip-rule="evenodd"/>
  </g>
</svg>
