<svg xmlns="http://www.w3.org/2000/svg" width="48" height="48" viewBox="0 0 48 48">
  <g class="neo-icon-kit--p2p">
    <path fill="#006FCF" fill-rule="evenodd" d="M40.4931 4.35551C40.4204 3.59472 39.7794 3 39 3C38.1719 3 37.5 3.67139 37.5 4.5V7.5H34.5L34.3556 7.50686C33.5952 7.57953 33 8.22013 33 9C33 9.82861 33.6719 10.5 34.5 10.5H37.5V13.5L37.5069 13.6445C37.5796 14.4053 38.2206 15 39 15C39.8281 15 40.5 14.3286 40.5 13.5V10.5H43.5L43.6444 10.4931C44.4048 10.4205 45 9.77987 45 9C45 8.17139 44.3281 7.5 43.5 7.5H40.5V4.5L40.4931 4.35551ZM22.7617 7L23.0043 7.00378L23.303 7.01765C25.5047 7.15438 31.1583 8.24644 31.7042 15.5865L31.7296 15.9773L31.7679 16.4358L31.7893 16.8231C31.887 19.0068 31.7701 24.7559 28.1707 27.7538C28.2065 28.025 28.2437 28.1663 28.2867 28.3294C28.2977 28.3713 28.3091 28.4146 28.3209 28.4619L28.4038 28.8636L28.5024 29.2914L28.6084 29.6979C28.8343 30.511 29.1443 31.2989 29.5458 31.6009L29.6562 31.6701L31.3045 32.5705C32.6998 33.3398 34.8311 34.5306 37.1053 35.8592L38.0965 36.4418C41.0541 38.1672 41.8104 40.0478 42 42.6092C41.8711 43.8937 40.8358 44.912 39.5349 44.9946L39.3638 45H5.63456C4.26002 45 3.14194 43.9581 3 42.6256C3.19404 40.0557 3.97949 38.1709 6.90258 36.4418L8.57758 35.4613L10.9363 34.1109L12.9532 32.9803C13.5489 32.6494 14.0582 32.3693 14.4515 32.1541L15.3415 31.6701C16.0168 31.3293 16.4082 29.6557 16.6332 28.5054L16.7465 28.0997L16.827 27.7538C12.3256 24.0047 13.2708 15.9525 13.2708 15.9525C13.6902 7.5397 20.6707 7 22.2442 7L22.4989 7.00585L22.7617 7ZM22.3184 9.95954L21.9853 9.96197C19.8903 10.0235 16.6451 10.9171 16.2786 15.7752L16.2551 16.1717L16.2435 16.2712C16.0494 18.0174 16.0983 22.9491 18.5264 25.2451L18.7404 25.4353L20.1189 26.5854L19.7555 28.3426C19.7215 28.5073 19.6942 28.6272 19.6691 28.7278L19.546 29.176L19.4467 29.6583C19.0651 31.4339 18.4682 33.2612 16.9496 34.1853L14.3902 35.5958L12.6381 36.5787L11.6506 37.1398C10.6337 37.7204 9.53672 38.3555 8.43018 39.0112C6.90788 39.9132 6.3544 40.6765 6.12259 41.8189L6.08856 42.0025H38.8931C38.714 40.8541 38.2687 40.0711 36.7878 39.1583L35.7285 38.5317L34.7 37.9324L33.2173 37.0804C32.5798 36.7168 31.9753 36.3755 31.4214 36.065L28.0735 34.2167C26.7992 33.4708 25.9969 32.0119 25.4447 29.437L25.3677 29.0738L25.3012 28.8084C25.2686 28.6687 25.2371 28.5144 25.2078 28.3267L25.1791 28.1273L24.9636 26.4923L26.2306 25.4353C28.8141 23.2799 28.9197 18.2276 28.7429 16.4147L28.7159 16.1717L28.7109 16.0715C28.4562 10.9533 25.1273 10.0248 22.9934 9.96197L22.6431 9.96009L22.4869 9.96765L22.3184 9.95954Z" class="svg-primary-fill" clip-rule="evenodd"/>
  </g>
</svg>
