<svg xmlns="http://www.w3.org/2000/svg" width="48" height="48" viewBox="0 0 48 48">
  <g class="neo-icon-kit--pagination-next-s">
    <path fill="#444B61" fill-rule="evenodd" d="M26.782 24L15.7231 35.4715C15.2539 35.9755 14.9942 36.6505 15.0001 37.3511C15.006 38.0517 15.2769 38.7219 15.7545 39.2173C16.2321 39.7128 16.8782 39.9938 17.5536 39.9999C18.2291 40.006 18.8798 39.7366 19.3656 39.2499L32.2458 25.8892C32.7287 25.3881 33 24.7086 33 24C33 23.2914 32.7287 22.6119 32.2458 22.1108L19.3656 8.7501C18.8798 8.26335 18.2291 7.99401 17.5536 8.0001C16.8782 8.00619 16.2321 8.28722 15.7545 8.78265C15.2769 9.27809 15.006 9.94829 15.0001 10.6489C14.9942 11.3495 15.2539 12.0245 15.7231 12.5285L26.782 24Z" class="svg-primary-fill" clip-rule="evenodd"/>
  </g>
</svg>
