<svg xmlns="http://www.w3.org/2000/svg" width="48" height="48" viewBox="0 0 48 48">
  <g class="neo-icon-kit--pagination-last-s">
    <path fill="#444B61" fill-rule="evenodd" d="M36.2758 8C36.9983 8 37.6912 8.28066 38.2021 8.78025C38.713 9.27983 39 9.95742 39 10.6639V37.3033C39 38.0098 38.713 38.6874 38.2021 39.187C37.6912 39.6866 36.9983 39.9673 36.2758 39.9673C35.5533 39.9673 34.8603 39.6866 34.3495 39.187C33.8386 38.6874 33.5515 38.0098 33.5515 37.3033V10.6639C33.5515 9.95742 33.8386 9.27983 34.3495 8.78025C34.8603 8.28066 35.5533 8 36.2758 8ZM9.83168 8.78053C10.3425 8.28112 11.0353 8.00057 11.7577 8.00057C12.4801 8.00057 13.1729 8.28112 13.6837 8.78053L27.3049 22.1002C27.8156 22.5998 28.1025 23.2773 28.1025 23.9836C28.1025 24.69 27.8156 25.3675 27.3049 25.867L13.6837 39.1867C13.4324 39.4412 13.1318 39.6441 12.7995 39.7837C12.4671 39.9233 12.1096 39.9968 11.7479 39.9999C11.3862 40.003 11.0275 39.9356 10.6927 39.8016C10.3579 39.6677 10.0537 39.4699 9.79791 39.2197C9.54212 38.9696 9.33984 38.6722 9.20286 38.3448C9.06589 38.0174 8.99696 37.6666 9.0001 37.3129C9.00325 36.9592 9.0784 36.6096 9.22117 36.2846C9.36395 35.9596 9.57148 35.6657 9.83168 35.4199L21.5268 23.9836L9.83168 12.5473C9.32096 12.0478 9.03406 11.3703 9.03406 10.6639C9.03406 9.95756 9.32096 9.2801 9.83168 8.78053Z" class="svg-primary-fill" clip-rule="evenodd"/>
  </g>
</svg>
