<svg xmlns="http://www.w3.org/2000/svg" width="48" height="48" viewBox="0 0 48 48">
  <g class="neo-icon-kit--pagination-prev-s">
    <path fill="#444B61" fill-rule="evenodd" d="M21.218 24L32.2769 12.5285C32.7461 12.0245 33.0058 11.3495 32.9999 10.6489C32.994 9.94829 32.7231 9.27809 32.2455 8.78265C31.7679 8.28722 31.1218 8.00619 30.4464 8.0001C29.7709 7.99401 29.1202 8.26335 28.6344 8.7501L15.7542 22.1108C15.2713 22.6119 15 23.2914 15 24C15 24.7086 15.2713 25.3881 15.7542 25.8892L28.6344 39.2499C29.1202 39.7366 29.7709 40.006 30.4464 39.9999C31.1218 39.9938 31.7679 39.7128 32.2455 39.2173C32.7231 38.7219 32.994 38.0517 32.9999 37.3511C33.0058 36.6505 32.7461 35.9755 32.2769 35.4715L21.218 24Z" class="svg-primary-fill" clip-rule="evenodd"/>
  </g>
</svg>
