<svg xmlns="http://www.w3.org/2000/svg" width="48" height="48" viewBox="0 0 48 48">
  <g class="neo-icon-kit--pagination-first-s">
    <path fill="#444B61" fill-rule="evenodd" d="M11.7242 40C11.0017 40 10.3088 39.7193 9.79791 39.2197C9.28702 38.7202 9 38.0426 9 37.3361V10.6967C9 9.99015 9.28702 9.31257 9.79791 8.81298C10.3088 8.3134 11.0017 8.03273 11.7242 8.03273C12.4467 8.03273 13.1397 8.3134 13.6505 8.81298C14.1614 9.31257 14.4485 9.99015 14.4485 10.6967V37.3361C14.4485 38.0426 14.1614 38.7202 13.6505 39.2197C13.1397 39.7193 12.4467 40 11.7242 40ZM38.1683 39.2195C37.6575 39.7189 36.9647 39.9994 36.2423 39.9994C35.5199 39.9994 34.8271 39.7189 34.3163 39.2195L20.6951 25.8998C20.1844 25.4002 19.8975 24.7227 19.8975 24.0164C19.8975 23.31 20.1844 22.6325 20.6951 22.133L34.3163 8.81327C34.5676 8.55884 34.8682 8.35589 35.2005 8.21628C35.5329 8.07666 35.8904 8.00317 36.2521 8.0001C36.6138 7.99703 36.9725 8.06443 37.3073 8.19837C37.6421 8.33232 37.9463 8.53013 38.2021 8.78025C38.4579 9.03037 38.6602 9.32781 38.7971 9.6552C38.9341 9.98258 39.003 10.3334 38.9999 10.6871C38.9968 11.0408 38.9216 11.3904 38.7788 11.7154C38.6361 12.0404 38.4285 12.3343 38.1683 12.5801L26.4732 24.0164L38.1683 35.4527C38.679 35.9522 38.9659 36.6297 38.9659 37.3361C38.9659 38.0424 38.679 38.7199 38.1683 39.2195Z" class="svg-primary-fill" clip-rule="evenodd"/>
  </g>
</svg>
