<svg xmlns="http://www.w3.org/2000/svg" width="48" height="48" viewBox="0 0 48 48">
  <g class="neo-icon-kit--paperless">
    <path fill="#006FCF" fill-rule="evenodd" d="M41.9235 3.64657L41.7348 3.90129C39.2957 6.98795 32.7844 8.05199 30.4203 8.20223L29.9933 8.23075C22.2205 8.78694 17.4454 11.1499 17.1865 11.2823L16.7946 11.5059C4.41321 18.7266 7.23838 32.1554 7.45799 33.108L7.55489 33.4612C7.83071 34.4079 8.68722 37.0655 10.1641 39.2431C7.6232 40.3905 5.59705 40.9879 4.69739 41.2247L4.05362 41.3851C3.32477 41.6121 2.87315 42.3603 3.03165 43.1231C3.17908 43.8311 3.80196 44.3175 4.49757 44.3175C4.59813 44.3175 4.70015 44.3077 4.80266 44.2862C5.10098 44.2244 8.24784 43.5398 12.3625 41.5744C15.3545 43.8396 18.545 44.9992 21.8567 45.0001L22.26 44.9945C31.3686 44.7406 38.234 35.9715 39.2181 34.649L39.554 34.1814C46.7027 23.9221 44.8216 5.865 44.654 4.39301L44.6224 4.1825C44.5022 3.62788 44.0766 3.18285 43.5183 3.04403C42.9125 2.89461 42.2784 3.13289 41.9235 3.64657ZM30.6058 11.1964C30.945 11.1759 37.5463 10.7286 41.8972 7.75789C42.1759 13.4347 42.0773 25.6134 36.897 32.7413C36.8312 32.8341 30.1796 42.0011 21.8552 42.0001C19.6321 41.9993 17.4508 41.3189 15.3479 39.996C20.4422 37.0336 26.236 32.2008 29.9507 24.4932C30.3104 23.7472 29.9971 22.8507 29.2512 22.4903C28.5053 22.1319 27.6085 22.4444 27.2493 23.1905C23.6551 30.648 17.7938 35.2046 12.8793 37.8902C11.699 36.2936 10.8302 33.9461 10.4663 32.7311L10.3725 32.4024C10.3417 32.2813 7.40938 20.1749 18.5914 13.9317C18.6363 13.9093 23.1879 11.6563 30.6058 11.1964Z" class="svg-primary-fill" clip-rule="evenodd"/>
  </g>
</svg>
