<svg xmlns="http://www.w3.org/2000/svg" width="48" height="48" viewBox="0 0 48 48">
  <g class="neo-icon-kit--paperless-filled">
    <path fill="#006FCF" fill-rule="evenodd" d="M43.519 3.04553C42.9098 2.89221 42.2781 3.1344 41.9237 3.64703C39.6509 6.93066 32.848 8.04932 30.42 8.20361L29.993 8.23206C22.2197 8.78685 17.4451 11.1512 17.1862 11.2826L16.7943 11.5062C4.5423 18.652 7.18085 31.8756 7.44993 33.0744L7.58764 33.5723L7.81279 34.2845L8.10855 35.1203L8.29439 35.605L8.39644 35.8589L8.55351 36.2318L8.79198 36.7694L9.0603 37.329C9.19585 37.6014 9.34016 37.8755 9.49341 38.149L9.60868 38.3525L9.81254 38.6946L10.0568 39.0795L10.1644 39.2428L9.87353 39.3728C7.46929 40.4358 5.56266 40.997 4.69757 41.2247L4.05385 41.385C3.32528 41.6121 2.87281 42.3602 3.03178 43.1231C3.1792 43.8311 3.8021 44.3174 4.49822 44.3174C4.59878 44.3174 4.70032 44.3076 4.80277 44.2861C5.10116 44.2244 8.24811 43.5396 12.3631 41.5743L12.7847 41.8853C13.7712 42.594 14.7782 43.1845 15.8041 43.6512L16.2138 43.8306C16.4669 43.9381 16.7209 44.0387 16.9763 44.1307L17.4592 44.2933C17.6937 44.3708 17.9289 44.443 18.1653 44.5065L18.459 44.5739C18.7631 44.6488 19.0673 44.7233 19.374 44.778C19.4915 44.7991 19.6098 44.8135 19.7282 44.828C19.7932 44.8359 19.8582 44.8439 19.9231 44.8529C19.9891 44.862 20.0549 44.8717 20.1208 44.8815C20.2813 44.9052 20.4418 44.929 20.6035 44.9433C21.0186 44.9805 21.4357 44.9999 21.8568 45L22.2601 44.9944C31.2353 44.7442 38.0318 36.2277 39.1707 34.7123L39.5537 34.1816C46.8502 23.711 44.7403 5.11802 44.6456 4.32379L44.6221 4.18299C44.5024 3.62851 44.0768 3.18435 43.519 3.04553ZM27.2489 23.1905C27.6092 22.4439 28.5064 22.13 29.2513 22.4908C29.9972 22.8502 30.3106 23.7471 29.9513 24.4932C26.2349 32.2045 20.4405 37.0333 15.3453 39.9941C14.8602 39.6887 14.378 39.3602 13.9019 38.9855C13.5398 38.7004 13.1977 38.3202 12.8776 37.8868C17.7927 35.2028 23.6534 30.652 27.2489 23.1905Z" class="svg-primary-fill" clip-rule="evenodd"/>
  </g>
</svg>
