<svg xmlns="http://www.w3.org/2000/svg" width="48" height="48" viewBox="0 0 48 48">
  <g class="neo-icon-kit--parking">
    <g fill="#006FCF" fill-rule="evenodd" class="svg-primary-fill" clip-rule="evenodd">
      <path d="M42 6H6L6 42H42V6ZM6 3C4.34315 3 3 4.34315 3 6V42C3 43.6569 4.34315 45 6 45H42C43.6569 45 45 43.6569 45 42V6C45 4.34315 43.6569 3 42 3H6Z"/>
      <path d="M16.5 12C15.6716 12 15 12.6716 15 13.5V34.5C15 35.3284 15.6716 36 16.5 36C17.3284 36 18 35.3284 18 34.5V27H25.5C29.6421 27 33 23.6421 33 19.5C33 15.3579 29.6421 12 25.5 12H16.5ZM18 15V24H25.5C27.9853 24 30 21.9853 30 19.5C30 17.0147 27.9853 15 25.5 15H18Z"/>
    </g>
  </g>
</svg>
