<svg xmlns="http://www.w3.org/2000/svg" width="48" height="48" viewBox="0 0 48 48">
  <g class="neo-icon-kit--parking-filled">
    <g fill="#006FCF" class="svg-primary-fill">
      <path d="M18 24V15H25.5C27.9853 15 30 17.0147 30 19.5C30 21.9853 27.9853 24 25.5 24H18Z"/>
      <path fill-rule="evenodd" d="M3 6C3 4.34315 4.34315 3 6 3H42C43.6569 3 45 4.34315 45 6V42C45 43.6569 43.6569 45 42 45H6C4.34315 45 3 43.6569 3 42V6ZM15 13.5C15 12.6716 15.6716 12 16.5 12H25.5C29.6421 12 33 15.3579 33 19.5C33 23.6421 29.6421 27 25.5 27H18V34.5C18 35.3284 17.3284 36 16.5 36C15.6716 36 15 35.3284 15 34.5V13.5Z" clip-rule="evenodd"/>
    </g>
  </g>
</svg>
