<svg xmlns="http://www.w3.org/2000/svg" width="48" height="48" viewBox="0 0 48 48">
  <g class="neo-icon-kit--partnership-filled">
    <path fill="#006FCF" fill-rule="evenodd" d="M36.5001 4.00052C40.6422 4.00052 44.0001 7.35842 44.0001 11.5005C44.0001 13.2911 43.3726 14.9351 42.3256 16.2246C45.5856 17.0396 48.0001 19.988 48.0001 23.5005V41.0005C48.0001 42.6574 46.657 44.0005 45.0001 44.0005H36.0001C34.3432 44.0005 33.0001 42.6574 33.0001 41.0005L33.0012 30.3345C30.1127 31.3519 26.8779 31.8369 23.3463 31.8369C20.2401 31.8369 17.4846 31.4302 15.0001 30.5671L15 41.0001C15 42.657 13.6569 44.0001 12 44.0001H3C1.3431 44.0001 0 42.657 0 41.0001V23.5001C0 19.9877 2.4145 17.0392 5.6743 16.2239C4.6275 14.9347 4 13.2907 4 11.5001C4 7.35802 7.3579 4.00012 11.5 4.00012C15.6421 4.00012 19 7.35802 19 11.5001C19 15.0125 16.5855 17.961 13.3257 18.7763L13.4677 18.9604C15.6345 21.3078 17.8685 22.3697 21.3478 22.7321C22.3663 22.8019 23.0325 22.8368 23.3463 22.8368C28.4374 22.8368 32.1345 21.5479 34.5983 18.8752L34.6742 18.7759C31.4142 17.9609 28.9997 15.0125 28.9997 11.5C28.9997 7.3579 32.358 4.00052 36.5001 4.00052ZM7.50605 19.0005C6.89494 19.0005 6.31225 19.1222 5.78085 19.3426L5.52133 19.4579C4.33053 20.0419 3.43573 21.1365 3.12213 22.4563L3.0818 22.6438L3.06898 22.7185C3.04675 22.8419 3.02997 22.9669 3.01856 23.0934L3.00526 23.2941L3.00061 23.452L3.00036 41.0009H12.0004L11.9994 34.001H12.0118L12.0115 25.6472C14.5857 27.4624 17.5233 28.4235 21.2013 28.7462C22.0266 28.8186 22.7543 28.2083 22.8267 27.3831C22.8991 26.5578 22.2888 25.8301 21.4636 25.7577C16.997 25.3657 13.9751 23.965 11.1896 20.9151C10.3753 19.7563 9.02875 19.0005 7.50605 19.0005ZM7.00035 11.5005C7.00035 9.01522 9.01505 7.00052 11.5004 7.00052C13.9857 7.00052 16.0004 9.01522 16.0004 11.5005C16.0004 13.9858 13.9857 16.0005 11.5004 16.0005C9.01505 16.0005 7.00035 13.9858 7.00035 11.5005Z" class="svg-primary-fill" clip-rule="evenodd"/>
  </g>
</svg>
