<svg xmlns="http://www.w3.org/2000/svg" width="48" height="48" viewBox="0 0 48 48">
  <g class="neo-icon-kit--partnership">
    <path fill="#006FCF" fill-rule="evenodd" d="M36.5001 4.00052C40.6422 4.00052 44.0001 7.35842 44.0001 11.5005C44.0001 13.2911 43.3726 14.9351 42.3256 16.2246C45.5856 17.0396 48.0001 19.988 48.0001 23.5005V41.0005C48.0001 42.6574 46.657 44.0005 45.0001 44.0005H36.0001C34.3432 44.0005 33.0001 42.6574 33.0001 41.0005L33.0012 30.3345C30.1127 31.3519 26.8779 31.8369 23.3463 31.8369C20.2401 31.8369 17.4846 31.4302 15.0001 30.5671L15 41.0001C15 42.657 13.6569 44.0001 12 44.0001H3C1.3431 44.0001 0 42.657 0 41.0001V23.5001C0 19.9877 2.4145 17.0392 5.6743 16.2239C4.6275 14.9347 4 13.2907 4 11.5001C4 7.35802 7.3579 4.00012 11.5 4.00012C15.6421 4.00012 19 7.35802 19 11.5001C19 15.0125 16.5855 17.961 13.3257 18.7763L13.4677 18.9604C15.6345 21.3078 17.8685 22.3697 21.3478 22.7321C22.3663 22.8019 23.0325 22.8368 23.3463 22.8368C28.4374 22.8368 32.1345 21.5479 34.5983 18.8752L34.6742 18.7759C31.4142 17.9609 28.9997 15.0125 28.9997 11.5C28.9997 7.3579 32.358 4.00052 36.5001 4.00052ZM40.5058 19.0005C39.0354 19.0005 37.7295 19.7049 36.9071 20.7946C34.2153 23.7851 30.4278 25.391 25.5771 25.7562C25.7851 26.3436 25.8731 26.9838 25.8151 27.6449C25.7807 28.0362 25.6973 28.4113 25.5714 28.7648C29.6314 28.4896 33.1302 27.4365 36.0014 25.5199L36.0006 41.0009H45.0006V34.0009H45.0121V23.5069C45.0121 21.0185 42.9942 19.0005 40.5058 19.0005ZM5.78055 19.3426C6.31195 19.1222 6.89464 19.0005 7.50575 19.0005C9.02845 19.0005 10.375 19.7563 11.1893 20.9151C13.9748 23.965 16.9967 25.3657 21.4633 25.7577C22.2885 25.8301 22.8988 26.5578 22.8264 27.3831C22.754 28.2083 22.0263 28.8186 21.201 28.7462C17.523 28.4235 14.5854 27.4624 12.0112 25.6472L12.0115 34.001H11.9991L12.0001 41.0009H3.00006L3.00031 23.452L3.00496 23.2941L3.01826 23.0934C3.02967 22.9669 3.04645 22.8419 3.06868 22.7185L3.0815 22.6438L3.12183 22.4563C3.43543 21.1365 4.33023 20.0419 5.52103 19.4579L5.78055 19.3426ZM36.4998 7.00052C34.0145 7.00052 31.9998 9.01522 31.9998 11.5005C31.9998 13.9858 34.0145 16.0005 36.4998 16.0005C38.9851 16.0005 40.9998 13.9858 40.9998 11.5005C40.9998 9.01522 38.9851 7.00052 36.4998 7.00052ZM6.99975 11.5005C6.99975 9.01522 9.01445 7.00052 11.4998 7.00052C13.9851 7.00052 15.9998 9.01522 15.9998 11.5005C15.9998 13.9858 13.9851 16.0005 11.4998 16.0005C9.01445 16.0005 6.99975 13.9858 6.99975 11.5005Z" class="svg-primary-fill" clip-rule="evenodd"/>
  </g>
</svg>
