<svg xmlns="http://www.w3.org/2000/svg" width="48" height="48" viewBox="0 0 48 48">
  <g class="neo-icon-kit--passport">
    <g fill="#006FCF" class="svg-primary-fill">
      <path fill-rule="evenodd" d="M9 11.3381C9 10.9537 9.08685 10.5834 9.24589 10.2458C9.58237 9.53134 10.2419 8.96282 11.0857 8.71494L30.0857 3.13302C32.0215 2.56432 34 3.89024 34 5.75622V10H36C37.6569 10 39 11.3431 39 13V42C39 43.6569 37.6569 45 36 45H12C10.3431 45 9 43.6569 9 42V11.3381ZM16.5548 10L31 5.75622V10H16.5548ZM36 13V42H12V13H36Z" clip-rule="evenodd"/>
      <path fill-rule="evenodd" d="M24 30C26.4853 30 28.5 27.9853 28.5 25.5C28.5 23.0147 26.4853 21 24 21C21.5147 21 19.5 23.0147 19.5 25.5C19.5 27.9853 21.5147 30 24 30ZM24 33C28.1421 33 31.5 29.6421 31.5 25.5C31.5 21.3579 28.1421 18 24 18C19.8579 18 16.5 21.3579 16.5 25.5C16.5 29.6421 19.8579 33 24 33Z" clip-rule="evenodd"/>
      <path d="M18 37.5C18 36.6716 18.6716 36 19.5 36H28.5C29.3284 36 30 36.6716 30 37.5C30 38.3284 29.3284 39 28.5 39H19.5C18.6716 39 18 38.3284 18 37.5Z"/>
    </g>
  </g>
</svg>
