<svg xmlns="http://www.w3.org/2000/svg" width="48" height="48" viewBox="0 0 48 48">
  <g class="neo-icon-kit--passport-filled">
    <path fill="#006FCF" fill-rule="evenodd" d="M9.24589 10.2458C9.08685 10.5834 9 10.9537 9 11.3381V42C9 43.6569 10.3431 45 12 45H36C37.6569 45 39 43.6569 39 42V13C39 11.3431 37.6569 10 36 10H34V5.75622C34 3.89024 32.0215 2.56432 30.0857 3.13302L11.0857 8.71494C10.2419 8.96282 9.58237 9.53134 9.24589 10.2458ZM31 5.75622L16.5548 10H31V5.75622ZM24 30C27.3137 30 30 27.3137 30 24C30 20.6863 27.3137 18 24 18C20.6863 18 18 20.6863 18 24C18 27.3137 20.6863 30 24 30ZM19.5 36C18.6716 36 18 36.6716 18 37.5C18 38.3284 18.6716 39 19.5 39H28.5C29.3284 39 30 38.3284 30 37.5C30 36.6716 29.3284 36 28.5 36H19.5Z" class="svg-primary-fill" clip-rule="evenodd"/>
  </g>
</svg>
