<svg xmlns="http://www.w3.org/2000/svg" width="48" height="48" viewBox="0 0 48 48">
  <g class="neo-icon-kit--pause-circle-filled">
    <path fill="#006FCF" fill-rule="evenodd" d="M24 0C37.3 0 48 10.7 48 24C48 37.3 37.3 48 24 48C10.7 48 0 37.3 0 24C0 10.7 10.7 0 24 0ZM19.25 13.5C18.3318 13.5 17.5788 14.2071 17.5058 15.1065L17.5 15.25V32.75C17.5 33.7165 18.2835 34.5 19.25 34.5C20.1682 34.5 20.9212 33.7929 20.9942 32.8935L21 32.75V15.25C21 14.2835 20.2165 13.5 19.25 13.5ZM27.0058 15.1065C27.0788 14.2071 27.8318 13.5 28.75 13.5C29.7165 13.5 30.5 14.2835 30.5 15.25V32.75L30.4942 32.8935C30.4212 33.7929 29.6682 34.5 28.75 34.5C27.7835 34.5 27 33.7165 27 32.75V15.25L27.0058 15.1065Z" class="svg-primary-fill" clip-rule="evenodd"/>
  </g>
</svg>
