<svg xmlns="http://www.w3.org/2000/svg" width="48" height="48" viewBox="0 0 48 48">
  <g class="neo-icon-kit--pause-circle">
    <path fill="#006FCF" fill-rule="evenodd" d="M48 24C48 10.7 37.3 0 24 0C10.7 0 0 10.7 0 24C0 37.3 10.7 48 24 48C37.3 48 48 37.3 48 24ZM3 24C3 12.4 12.4 3 24 3C35.6 3 45 12.4 45 24C45 35.6 35.6 45 24 45C12.4 45 3 35.6 3 24ZM19.25 13.5C20.2165 13.5 21 14.2835 21 15.25V32.75C21 33.7165 20.2165 34.5 19.25 34.5C18.2835 34.5 17.5 33.7165 17.5 32.75V15.25C17.5 14.2835 18.2835 13.5 19.25 13.5ZM30.5 15.25C30.5 14.2835 29.7165 13.5 28.75 13.5C27.7835 13.5 27 14.2835 27 15.25V32.75C27 33.7165 27.7835 34.5 28.75 34.5C29.7165 34.5 30.5 33.7165 30.5 32.75V15.25Z" class="svg-primary-fill" clip-rule="evenodd"/>
  </g>
</svg>
