<svg xmlns="http://www.w3.org/2000/svg" width="48" height="48" viewBox="0 0 48 48">
  <g class="neo-icon-kit--pay-over-time-filled" clip-path="url(#a)">
    <path fill="#006FCF" d="M36 4C29.71 4 24.55 8.84 24.04 15H3C2.20435 15 1.44129 15.3161 0.87868 15.8787C0.31607 16.4413 0 17.2044 0 18L0 39C0 39.7956 0.31607 40.5587 0.87868 41.1213C1.44129 41.6839 2.20435 42 3 42H35C35.7956 42 36.5587 41.6839 37.1213 41.1213C37.6839 40.5587 38 39.7956 38 39V27.834C43.676 26.882 48 21.946 48 16C48 9.373 42.627 4 36 4ZM8 28H15C15.5047 27.9999 15.9909 28.1906 16.3609 28.5339C16.7309 28.8772 16.9574 29.3477 16.995 29.851L17 30V33C17.0001 33.5047 16.8094 33.9909 16.4661 34.3609C16.1228 34.7309 15.6523 34.9574 15.149 34.995L15 35H8C7.49526 35.0001 7.00914 34.8094 6.63913 34.4661C6.26913 34.1228 6.0426 33.6523 6.005 33.149L6 33V30C6 29.4696 6.21071 28.9609 6.58579 28.5858C6.96086 28.2107 7.46957 28 8 28ZM36 7C38.3869 7 40.6761 7.94821 42.364 9.63604C44.0518 11.3239 45 13.6131 45 16C45 18.3869 44.0518 20.6761 42.364 22.364C40.6761 24.0518 38.3869 25 36 25C33.6131 25 31.3239 24.0518 29.636 22.364C27.9482 20.6761 27 18.3869 27 16C27 13.6131 27.9482 11.3239 29.636 9.63604C31.3239 7.94821 33.6131 7 36 7ZM0 21H25.09C25.595 22.1 26.26 23.11 27.058 24H0V21ZM35.5 10C35.8729 10 36.2324 10.1389 36.5084 10.3896C36.7844 10.6403 36.9572 10.9848 36.993 11.356L37 11.5V16.045L38.748 18.668C38.9547 18.9782 39.0385 19.3543 38.983 19.7229C38.9276 20.0916 38.7368 20.4263 38.448 20.662L38.332 20.748C38.0218 20.9547 37.6457 21.0385 37.2771 20.983C36.9084 20.9276 36.5737 20.7368 36.338 20.448L36.252 20.332L34.504 17.71C34.1754 17.2172 34.0001 16.6383 34 16.046V11.5C34 11.1022 34.158 10.7206 34.4393 10.4393C34.7206 10.158 35.1022 10 35.5 10Z" class="svg-primary-fill"/>
  </g>
  <defs>
    <clipPath id="a" class="a">
      <path fill="#fff" d="M0 0H48V48H0z"/>
    </clipPath>
  </defs>
</svg>
