<svg xmlns="http://www.w3.org/2000/svg" width="48" height="48" viewBox="0 0 48 48">
  <g class="neo-icon-kit--pay-over-time" clip-path="url(#a)">
    <path fill="#006FCF" d="M36 4C29.71 4 24.55 8.84 24.04 15H3C2.20435 15 1.44129 15.3161 0.87868 15.8787C0.31607 16.4413 0 17.2044 0 18L0 39C0 39.7956 0.31607 40.5587 0.87868 41.1213C1.44129 41.6839 2.20435 42 3 42H35C35.7956 42 36.5587 41.6839 37.1213 41.1213C37.6839 40.5587 38 39.7956 38 39V27.834C43.676 26.882 48 21.946 48 16C48 9.373 42.627 4 36 4ZM3 18H24.166C24.34 19.0363 24.6503 20.0451 25.089 21H3V24H27.056C29.0988 26.2889 31.9425 27.7061 35 27.959V39H3V18ZM9 27C8.20435 27 7.44129 27.3161 6.87868 27.8787C6.31607 28.4413 6 29.2044 6 30V33C6 33.7956 6.31607 34.5587 6.87868 35.1213C7.44129 35.6839 8.20435 36 9 36H15C15.7956 36 16.5587 35.6839 17.1213 35.1213C17.6839 34.5587 18 33.7956 18 33V30C18 29.2044 17.6839 28.4413 17.1213 27.8787C16.5587 27.3161 15.7956 27 15 27H9ZM9 30H15V33H9V30ZM36 7C38.3869 7 40.6761 7.94821 42.364 9.63604C44.0518 11.3239 45 13.6131 45 16C45 18.3869 44.0518 20.6761 42.364 22.364C40.6761 24.0518 38.3869 25 36 25C33.6131 25 31.3239 24.0518 29.636 22.364C27.9482 20.6761 27 18.3869 27 16C27 13.6131 27.9482 11.3239 29.636 9.63604C31.3239 7.94821 33.6131 7 36 7ZM35.5 10C35.8729 10 36.2324 10.1389 36.5084 10.3896C36.7844 10.6403 36.9572 10.9848 36.993 11.356L37 11.5V16.045L38.748 18.668C38.9547 18.9782 39.0385 19.3543 38.983 19.7229C38.9276 20.0916 38.7368 20.4263 38.448 20.662L38.332 20.748C38.0218 20.9547 37.6457 21.0385 37.2771 20.983C36.9084 20.9276 36.5737 20.7368 36.338 20.448L36.252 20.332L34.504 17.71C34.1754 17.2172 34.0001 16.6383 34 16.046V11.5C34 11.1022 34.158 10.7206 34.4393 10.4393C34.7206 10.158 35.1022 10 35.5 10Z" class="svg-primary-fill"/>
  </g>
  <defs>
    <clipPath id="a" class="a">
      <path fill="#fff" d="M0 0H48V48H0z"/>
    </clipPath>
  </defs>
</svg>
