<svg xmlns="http://www.w3.org/2000/svg" width="48" height="48" viewBox="0 0 48 48">
  <g class="neo-icon-kit--payment-due-filled">
    <path fill="#006FCF" d="M24 1C30.1525 1 36.026 3.53642 40.2425 7.99961L40.5339 8.31412L41 8.828V8C41 6.94564 41.8159 6.08183 42.8507 6.00549L43 6C44.0544 6 44.9182 6.81588 44.9945 7.85074L45 8V14L44.9945 14.1493L44.9819 14.2705L44.9559 14.4195L44.9145 14.5803L44.8853 14.6686L44.8271 14.8147L44.7501 14.9687C44.7034 15.053 44.6508 15.1335 44.5928 15.2098L44.5155 15.3052L44.405 15.4234L44.3376 15.4869L44.2117 15.5913L44.0597 15.6966L43.9157 15.7786L43.7629 15.8494L43.6079 15.9059L43.4587 15.9471L43.3022 15.9772L43.1528 15.9942L43 16H37C35.8954 16 35 15.1046 35 14C35 12.9456 35.8159 12.0818 36.8507 12.0055L37 12H38.479L37.5742 11.0048C34.1914 7.28371 29.434 5.11906 24.4185 5.00477L24 5C13.5066 5 5 13.5066 5 24C5 34.4934 13.5066 43 24 43C34.3806 43 42.8168 34.6754 42.9971 24.3378L43 24V23C43 21.8954 43.8954 21 45 21C46.0544 21 46.9182 21.8159 46.9945 22.8507L47 23V24C47 36.7025 36.7025 47 24 47C11.2975 47 1 36.7025 1 24C1 11.2975 11.2975 1 24 1Z" class="svg-primary-fill"/>
    <path fill="#006FCF" d="M22.7454 11.8447C23.5221 11.8447 24.1715 12.4351 24.2454 13.2083V24.561L31.6486 31.9751C32.1431 32.574 32.1014 33.4508 31.5522 34C31.0029 34.5492 30.1262 34.591 29.5272 34.0964L21.6181 26.1756C21.4614 26.01 21.3534 25.8044 21.306 25.5813C21.2663 25.4913 21.2456 25.394 21.2454 25.2956V13.2083C21.3192 12.4351 21.9686 11.8447 22.7454 11.8447Z" class="svg-secondary-fill"/>
  </g>
</svg>
