<svg xmlns="http://www.w3.org/2000/svg" width="48" height="48" viewBox="0 0 48 48">
  <g class="neo-icon-kit--payment-due">
    <path fill="#006FCF" d="M24 1.5C30.0116 1.5 35.7507 3.97698 39.8723 8.33591L40.164 8.65045L41.5 10.12V8C41.5 7.2203 42.0949 6.57955 42.8555 6.50687L43 6.5C43.7797 6.5 44.4204 7.09489 44.4931 7.85554L44.5 8L44.4983 14.071L44.4841 14.2183L44.4661 14.3185L44.4102 14.5122L44.3536 14.6472L44.2822 14.7792L44.184 14.9211L44.1014 15.0184L44.0117 15.1075L43.9574 15.1548L43.8452 15.2394L43.7233 15.3145L43.596 15.3769L43.4748 15.4233L43.3273 15.4641L43.2179 15.4843L43.0726 15.4983L43 15.5H37C36.1716 15.5 35.5 14.8284 35.5 14C35.5 13.2203 36.0949 12.5796 36.8555 12.5069L37 12.5H39.609L37.9441 10.6685C34.4666 6.84316 29.5749 4.61905 24.4186 4.50464L24 4.5C13.2304 4.5 4.5 13.2304 4.5 24C4.5 34.7696 13.2304 43.5 24 43.5C34.655 43.5 43.314 34.9543 43.497 24.343L43.5 24V23C43.5 22.1716 44.1716 21.5 45 21.5C45.7797 21.5 46.4204 22.0949 46.4931 22.8555L46.5 23V24C46.5 36.4264 36.4264 46.5 24 46.5C11.5736 46.5 1.5 36.4264 1.5 24C1.5 11.5736 11.5736 1.5 24 1.5Z" class="svg-primary-fill"/>
    <path fill="#006FCF" d="M22.7454 11.8447C23.5221 11.8447 24.1715 12.4351 24.2454 13.2083V24.561L31.6486 31.9751C32.1431 32.574 32.1014 33.4508 31.5522 34C31.0029 34.5492 30.1262 34.591 29.5272 34.0964L21.6181 26.1756C21.4614 26.01 21.3534 25.8044 21.306 25.5813C21.2663 25.4913 21.2456 25.394 21.2454 25.2956V13.2083C21.3192 12.4351 21.9686 11.8447 22.7454 11.8447Z" class="svg-secondary-fill"/>
  </g>
</svg>
