<svg xmlns="http://www.w3.org/2000/svg" width="48" height="48" viewBox="0 0 48 48">
  <g class="neo-icon-kit--pdf-filled">
    <path fill="#006FCF" fill-rule="evenodd" d="M30 0.00012207V0.0167821C30.2982 0.0377135 30.5928 0.135318 30.8385 0.330363L30.957 0.436102L41.5635 11.043C41.7915 11.2711 41.9187 11.5557 41.9658 11.8515L41.9827 12.0001H42V45C42 46.5911 40.7447 47.9032 39.1756 47.9949L39 48H9C7.40897 48 6.09681 46.7447 6.00512 45.1756L6 45V3.00012C6 1.40903 7.25533 0.0969319 8.82441 0.00523998L9 0.00012207H30ZM22.9193 14.0805C22.1024 14.0805 21.3774 14.4728 20.9327 15.1555C19.7198 17.0138 20.8505 20.3939 21.4023 21.7821C21.0312 22.7997 20.5767 23.8925 20.0823 24.961C19.5239 26.1674 18.9246 27.3457 18.3414 28.3855C15.3788 29.8689 13.7602 31.3101 13.5297 32.6712C13.4172 33.3388 13.6271 33.9966 14.1053 34.4749C14.4992 34.8688 15.0175 35.0862 15.5671 35.0862L15.7053 35.0823C16.6474 35.0279 18.0165 34.3649 20.3052 30.4986C21.53 29.9305 22.8575 29.4296 24.1624 29.0433C25.0464 28.7804 25.9358 28.5673 26.8111 28.4093C28.551 29.4188 30.4921 30.0388 31.9419 30.0388C33.7715 30.0388 34.4618 28.9838 34.4976 28.0858C34.5257 27.4896 34.3082 26.9194 33.8873 26.479C33.1559 25.7119 31.8586 25.3397 29.9208 25.3397C29.1504 25.3397 28.3086 25.4014 27.4116 25.5231C26.6348 24.9718 25.991 24.3459 25.5409 23.6994C25.1016 23.0686 24.7056 22.3859 24.3604 21.6658C25.4706 18.309 25.5972 16.1909 24.7618 15.0137C24.3334 14.4122 23.6799 14.0805 22.9193 14.0805ZM15.5624 33.1605C15.8498 33.1605 16.5968 32.6394 17.7866 30.8818C16.2665 31.7941 15.4991 32.5718 15.4283 32.9919C15.4186 33.0492 15.4255 33.072 15.467 33.1126C15.514 33.1605 15.541 33.1605 15.5624 33.1605ZM29.9212 27.2662C31.4356 27.2662 32.2441 27.5465 32.4937 27.8083C32.5649 27.8824 32.5756 27.9391 32.5737 27.9932C32.5286 28.0305 32.3475 28.1114 31.9418 28.1114C31.2195 28.1114 30.0916 27.8567 28.8687 27.3058C29.2347 27.2793 29.5854 27.2662 29.9212 27.2662ZM24.1938 26.1707L23.1638 24.8101L23.0082 25.168C22.9006 25.4144 22.7859 25.6748 22.6679 25.9396L22.3079 26.7376C22.6628 26.6175 23.0198 26.5039 23.3769 26.3989C23.6496 26.3178 23.9222 26.2421 24.1938 26.1707ZM22.919 16.0053C23.0727 16.0053 23.1379 16.0528 23.1919 16.1296C23.4662 16.5152 23.497 17.7694 22.8329 20.0857C22.2219 18.2001 22.1953 16.7425 22.5441 16.2083C22.6382 16.0644 22.7472 16.0053 22.919 16.0053ZM30 12V3.72131L38.2783 12H30Z" class="svg-primary-fill" clip-rule="evenodd"/>
  </g>
</svg>
