<svg xmlns="http://www.w3.org/2000/svg" width="48" height="48" viewBox="0 0 48 48">
  <g class="neo-icon-kit--pdf">
    <path fill="#006FCF" fill-rule="evenodd" d="M29.8984 0.00110191L9 0.00012207L8.82441 0.00523998C7.25533 0.0969319 6 1.40903 6 3.00012V45L6.00512 45.1756C6.09681 46.7447 7.40897 48 9 48H39L39.1756 47.9949C40.7447 47.9032 42 46.5911 42 45V12.1188L41.9802 11.9495C41.924 11.5676 41.7963 11.2758 41.5635 11.043L30.957 0.436102L30.8385 0.330363C30.5928 0.135318 30.2982 0.0377135 30 0.0167821L29.8984 0.00110191ZM9 3.00012H27V12L27.0051 12.1756C27.0968 13.7447 28.4089 15 30 15H39V45H9V3.00012ZM22.9193 14.0805C23.6799 14.0805 24.3334 14.4122 24.7618 15.0137C25.5972 16.1909 25.4706 18.309 24.3604 21.6658C24.7056 22.3859 25.1016 23.0686 25.5409 23.6994C25.991 24.3459 26.6348 24.9718 27.4116 25.5231C28.3086 25.4014 29.1504 25.3397 29.9208 25.3397C31.8586 25.3397 33.1559 25.7119 33.8873 26.479C34.3082 26.9194 34.5257 27.4896 34.4975 28.0858C34.4618 28.9838 33.7715 30.0388 31.9419 30.0388C30.4921 30.0388 28.551 29.4188 26.8111 28.4093C25.9358 28.5673 25.0464 28.7804 24.1624 29.0433C22.8575 29.4296 21.53 29.9305 20.3052 30.4986C17.902 34.5582 16.5127 35.0862 15.5628 35.0862C15.0174 35.0862 14.4992 34.8688 14.1053 34.4749C13.6271 33.9966 13.4172 33.3388 13.5297 32.6712C13.7602 31.3101 15.3788 29.8689 18.3414 28.3855C18.9246 27.3457 19.5239 26.1674 20.0823 24.961C20.5767 23.8925 21.0312 22.7997 21.4023 21.7821L21.2223 21.3094C20.6478 19.7331 19.8411 16.828 20.9327 15.1555C21.3774 14.4728 22.1024 14.0805 22.9193 14.0805ZM15.4283 32.9919C15.4991 32.5718 16.2665 31.7941 17.7866 30.8818C16.5968 32.6394 15.8498 33.1605 15.5624 33.1605C15.541 33.1605 15.514 33.1605 15.467 33.1126C15.4255 33.072 15.4186 33.0492 15.4283 32.9919ZM29.9212 27.2662C29.5855 27.2662 29.2347 27.2793 28.8687 27.3058C30.0916 27.8568 31.2195 28.1115 31.9418 28.1115C32.3475 28.1115 32.5286 28.0305 32.5737 27.9932C32.5756 27.9391 32.5649 27.8824 32.4936 27.8083C32.2441 27.5465 31.4356 27.2662 29.9212 27.2662ZM23.1637 24.8101L24.1938 26.1707L23.7858 26.2812L23.3769 26.3989C23.0198 26.5039 22.6628 26.6175 22.3079 26.7376C22.4287 26.4736 22.5499 26.2044 22.6679 25.9396L23.1637 24.8101ZM22.919 16.0053C22.7472 16.0053 22.6382 16.0644 22.5441 16.2083C22.1953 16.7425 22.2219 18.2001 22.8329 20.0857C23.497 17.7694 23.4662 16.5152 23.1919 16.1296C23.1379 16.0528 23.0727 16.0053 22.919 16.0053ZM30 12V3.72131L38.2783 12H30Z" class="svg-primary-fill" clip-rule="evenodd"/>
  </g>
</svg>
