<svg xmlns="http://www.w3.org/2000/svg" width="48" height="48" viewBox="0 0 48 48">
  <g class="neo-icon-kit--pet-filled">
    <path fill="#006FCF" fill-rule="evenodd" d="M17.5 3C20.0234 3 22 5.63574 22 9C22 12.3643 20.0234 15 17.5 15C14.9766 15 13 12.3643 13 9C13 5.63574 14.9766 3 17.5 3ZM7.5 13C10.0234 13 12 15.6357 12 19C12 22.3643 10.0234 25 7.5 25C4.97656 25 3 22.3643 3 19C3 15.6357 4.97656 13 7.5 13ZM24 18C29.9082 18 31.7097 20.8989 33.4344 23.6742C34.191 24.8916 34.9328 26.0853 36 27C36.5747 27.4926 37.1223 27.932 37.6364 28.3445C40.2535 30.4443 42 31.8455 42 36C42 40.9706 37.9706 45 33 45C30.1122 45 29.0163 44.4486 27.9754 43.9249C27.0338 43.4511 26.1372 43 24 43C21.8628 43 20.9662 43.4511 20.0246 43.9249C18.9837 44.4486 17.8878 45 15 45C10.0294 45 6 40.9706 6 36C6 31.9649 7.36642 30.8427 10.0993 28.5983C10.6727 28.1274 11.3063 27.607 12 27C13.2647 25.8934 14.0796 24.5868 14.8713 23.3174C16.5835 20.5719 18.1875 18 24 18ZM45 19C45 15.6357 43.0234 13 40.5 13C37.9766 13 36 15.6357 36 19C36 22.3643 37.9766 25 40.5 25C43.0234 25 45 22.3643 45 19ZM35 9C35 5.63574 33.0234 3 30.5 3C27.9766 3 26 5.63574 26 9C26 12.3643 27.9766 15 30.5 15C33.0234 15 35 12.3643 35 9Z" class="svg-primary-fill" clip-rule="evenodd"/>
  </g>
</svg>
