<svg xmlns="http://www.w3.org/2000/svg" width="48" height="48" viewBox="0 0 48 48">
  <g class="neo-icon-kit--pet">
    <path fill="#006FCF" fill-rule="evenodd" d="M17.5 3C20.0234 3 22 5.63574 22 9C22 12.2802 20.121 14.8678 17.6882 14.9951L17.5 15C14.9766 15 13 12.3643 13 9C13 5.71985 14.879 3.13224 17.3118 3.00491L17.5 3ZM7.5 13C10.0234 13 12 15.6357 12 19C12 22.2802 10.121 24.8678 7.68821 24.9951L7.5 25C4.97656 25 3 22.3643 3 19C3 15.7198 4.87897 13.1322 7.31179 13.0049L7.5 13ZM33.4344 23.6742C31.7097 20.8989 29.9082 18 24 18L23.6081 18.004C18.1142 18.1176 16.5444 20.6346 14.8713 23.3174C14.0796 24.5868 13.2647 25.8934 12 27C11.3063 27.607 10.6727 28.1273 10.0993 28.5982C7.36649 30.8426 6 31.9649 6 36C6 40.9706 10.0294 45 15 45L15.391 44.9965C17.9895 44.9488 19.0321 44.4243 20.0246 43.9249C20.9662 43.4511 21.8628 43 24 43L24.3196 43.0035C26.2294 43.0464 27.0822 43.4755 27.9754 43.9249C29.0163 44.4486 30.1122 45 33 45L33.2654 44.9962C38.1132 44.8558 42 40.8818 42 36C42 31.8455 40.2535 30.4443 37.6364 28.3445C37.2647 28.0462 36.8753 27.7338 36.4709 27.3974L36 27C34.9328 26.0853 34.191 24.8916 33.4344 23.6742ZM17.6943 24.4626C19.4761 21.6608 20.5035 21 24 21C27.4676 21 28.6973 21.816 30.5204 24.6734L30.9858 25.4176C32.1652 27.3131 32.882 28.2786 34.0476 29.2778L34.9703 30.0421C35.2022 30.2318 35.4507 30.4343 35.6946 30.633C36.3312 31.1516 36.936 31.6444 37.1309 31.8157L37.3071 31.9731C38.6176 33.1637 39 34.0114 39 36C39 39.3137 36.3137 42 33 42C31.2693 42 30.5768 41.8509 29.6356 41.3995L28.9297 41.0504C27.3882 40.3119 26.1122 40 24 40C21.7558 40 20.4555 40.3521 18.7779 41.1939L18.3644 41.3995C17.4232 41.8509 16.7307 42 15 42C11.6863 42 9 39.3137 9 36C9 34.0664 9.27497 33.3812 10.2354 32.4405C10.5412 32.1409 11.7523 31.1269 12.735 30.3042C13.079 30.0161 13.3951 29.7515 13.6344 29.5492L13.9755 29.2577C15.0671 28.3026 15.8724 27.3037 16.7954 25.8865L17.6943 24.4626ZM45 19C45 15.6357 43.0234 13 40.5 13L40.3118 13.0049C37.879 13.1322 36 15.7198 36 19C36 22.3643 37.9766 25 40.5 25L40.6882 24.9951C43.121 24.8678 45 22.2802 45 19ZM7.5 16C6.85168 16 6 17.1356 6 19C6 20.8644 6.85168 22 7.5 22C8.14832 22 9 20.8644 9 19C9 17.1356 8.14832 16 7.5 16ZM39 19C39 17.1356 39.8517 16 40.5 16C41.1483 16 42 17.1356 42 19C42 20.8644 41.1483 22 40.5 22C39.8517 22 39 20.8644 39 19ZM35 9C35 5.63574 33.0234 3 30.5 3L30.3118 3.00491C27.879 3.13224 26 5.71985 26 9C26 12.3643 27.9766 15 30.5 15L30.6882 14.9951C33.121 14.8678 35 12.2802 35 9ZM17.5 6C16.8517 6 16 7.13561 16 9C16 10.8644 16.8517 12 17.5 12C18.1483 12 19 10.8644 19 9C19 7.13561 18.1483 6 17.5 6ZM29 9C29 7.13561 29.8517 6 30.5 6C31.1483 6 32 7.13561 32 9C32 10.8644 31.1483 12 30.5 12C29.8517 12 29 10.8644 29 9Z" class="svg-primary-fill" clip-rule="evenodd"/>
  </g>
</svg>
