<svg xmlns="http://www.w3.org/2000/svg" width="48" height="48" viewBox="0 0 48 48">
  <g class="neo-icon-kit--pie-chart">
    <path fill="#006FCF" fill-rule="evenodd" d="M26.501 3C36.7183 3 45.001 11.2827 45.001 21.5C45.001 22.0052 44.9807 22.5058 44.941 23.0008L25 23L25.0007 3.05995C25.4956 3.02024 25.9959 3 26.501 3ZM23.0008 8.06C22.5058 8.02025 22.0052 8 21.5 8C11.2827 8 3 16.2827 3 26.5C3 36.7173 11.2827 45 21.5 45C31.7173 45 40 36.7173 40 26.5C40 25.9951 39.9798 25.4949 39.9401 25.0002L23 25L23.0008 8.06ZM6 26.5C6 18.4455 12.1436 11.8259 20.0003 11.0716L20 28L36.9283 28.0005L36.8935 28.3268C35.9895 36.0263 29.4424 42 21.5 42C12.9396 42 6 35.0604 6 26.5ZM28 19.9997L28.0005 6.07169L28.3392 6.10798C35.5423 6.95957 41.2323 12.7506 41.9284 20.0002L28 19.9997Z" class="svg-primary-fill" clip-rule="evenodd"/>
  </g>
</svg>
