<svg xmlns="http://www.w3.org/2000/svg" width="48" height="48" viewBox="0 0 48 48">
  <g class="neo-icon-kit--plane-train-filled" clip-path="url(#a)">
    <g fill="#006FCF" class="svg-primary-fill">
      <path d="M29.9993 46.5005V45H20.9993V46.5005C20.999 47.3287 20.3275 48.0005 19.4993 48.0005C18.6712 48.0002 17.9995 47.3285 17.9993 46.5005V45H8.99928V46.5005C8.99902 47.3287 8.32755 48.0005 7.49928 48.0005C6.67124 48.0002 5.99955 47.3285 5.99928 46.5005V45H1.49977C0.671344 45 -0.000228819 44.3284 -0.000228819 43.5C-0.000228336 42.6716 0.671344 42 1.49977 42H40.5003C41.3285 42.0003 42.0003 42.6717 42.0003 43.5C42.0003 44.3283 41.3285 44.9997 40.5003 45H32.9993V46.5005C32.999 47.3287 32.3275 48.0005 31.4993 48.0005C30.6712 48.0002 29.9995 47.3285 29.9993 46.5005Z"/>
      <path fill-rule="evenodd" d="M36.9913 39H1.51632C0.678753 39 -0.000228819 38.3284 -0.000228819 37.5V31.5004C-0.000228819 30.6719 0.671344 30.0004 1.49977 30.0004H11.8504C11.7044 29.3444 11.4663 28.8769 11.198 28.5336C10.8449 28.0818 10.3703 27.755 9.77809 27.5189C8.52327 27.0188 6.96668 27.0004 5.49977 27.0004H1.49977C0.671344 27.0004 -0.000228819 26.3288 -0.000228819 25.5004V19.5C-0.000228819 18.6716 0.678753 18 1.51632 18H13.1086C14.1095 18 15.0263 17.9994 15.8739 18.0048L18.8787 15H13.4998C11.5077 15 9.67916 14.0144 8.15602 12.7959C6.61227 11.5608 5.21295 9.95154 4.04958 8.40039C2.87955 6.84035 1.91019 5.28811 1.23512 4.13086C0.896697 3.5507 0.630191 3.06552 0.447037 2.72363C0.355484 2.55273 0.284695 2.4173 0.236099 2.32324C0.211785 2.27618 0.192492 2.23952 0.179459 2.21387C0.17298 2.20112 0.168425 2.19077 0.16481 2.18359C0.163011 2.18002 0.161006 2.17695 0.159927 2.1748L0.158951 2.17285L0.157974 2.17188C-0.074517 1.70689 -0.049906 1.15316 0.223404 0.710938C0.496732 0.268809 0.979968 0 1.49977 0H7.08571C7.7487 3.99966e-05 8.38448 0.263617 8.85329 0.732422L10.6814 2.56055C10.9626 2.84174 11.3443 2.99988 11.742 3H37.2234C39.611 3.00006 41.9658 3.55625 44.1013 4.62402L44.614 4.87988C46.6891 5.91743 47.9997 8.03843 47.9998 10.3584C47.9998 12.3506 46.4656 14.0074 44.4793 14.1602L33.9353 14.9697L25.6622 19.4833C31.2719 21.6534 38.7054 26.0941 41.267 31.2363C43.0679 34.8522 41.5144 38.9289 36.9913 39ZM30.4998 30C26.9099 30 23.9998 27.0899 23.9998 23.5V22.0708C27.9158 23.535 33.507 26.634 36.679 30H30.4998Z" clip-rule="evenodd"/>
    </g>
  </g>
  <defs>
    <clipPath id="a" class="a">
      <path fill="#fff" d="M0 0H48V48H0z"/>
    </clipPath>
  </defs>
</svg>
