<svg xmlns="http://www.w3.org/2000/svg" width="48" height="48" viewBox="0 0 48 48">
  <g class="neo-icon-kit--plane-train" clip-path="url(#a)">
    <g fill="#006FCF" class="svg-primary-fill">
      <path d="M29.999 46.501V45H20.999V46.501C20.999 47.329 20.328 48.001 19.499 48.001 18.671 48 18 47.329 17.999 46.501V45H8.999V46.501C8.999 47.329 8.328 48.001 7.499 48.001 6.671 48 6 47.329 5.999 46.501V45H1.5C.671 45 0 44.328 0 43.5 0 42.672.671 42 1.5 42H40.5C41.329 42 42 42.672 42 43.5 42 44.328 41.329 45 40.5 45H32.999V46.501C32.999 47.329 32.328 48.001 31.499 48.001 30.671 48 30 47.329 29.999 46.501ZM5.5 24 6.649 24.009C7.915 24.039 9.479 24.169 10.889 24.732 11.865 25.121 12.815 25.732 13.561 26.686 14.31 27.644 14.782 28.859 14.94 30.342 15.104 31.885 13.831 33 12.5 33H1.5C.671 33 0 32.329 0 31.5 0 30.672.671 30 1.5 30H11.85C11.704 29.344 11.466 28.877 11.198 28.534 10.845 28.082 10.37 27.755 9.778 27.519 8.523 27.019 6.967 27 5.5 27H1.5C.671 27 0 26.329 0 25.5 0 24.672.671 24 1.5 24H5.5Z"/>
      <path fill-rule="evenodd" d="M36.9913 39H1.51632C0.678753 39 -0.000228819 38.3284 -0.000228819 37.5C-0.000228429 36.6716 0.678754 36 1.51632 36H36.9425C39.0295 35.9672 39.3278 34.5106 38.7394 33H30.4998C25.2531 33 20.9998 28.7467 20.9998 23.5V21.2664C19.211 21.0086 16.9186 21 13.1086 21H1.51632C0.678753 21 -0.000228819 20.3284 -0.000228819 19.5C-0.000228819 18.6716 0.678753 18 1.51632 18H13.1086C14.1095 18 15.0263 17.9994 15.8739 18.0048L18.8787 15H13.4998C11.5077 15 9.67916 14.0144 8.15602 12.7959C6.61227 11.5608 5.21295 9.95154 4.04958 8.40039C2.87955 6.84035 1.91019 5.28811 1.23512 4.13086C0.896697 3.5507 0.630191 3.06552 0.447037 2.72363C0.355484 2.55273 0.284695 2.4173 0.236099 2.32324C0.211785 2.27618 0.192492 2.23952 0.179459 2.21387C0.17298 2.20112 0.168425 2.19077 0.16481 2.18359C0.163011 2.18002 0.161006 2.17695 0.159927 2.1748L0.158951 2.17285L0.157974 2.17188C-0.074517 1.70689 -0.049906 1.15316 0.223404 0.710938C0.496732 0.268809 0.979968 0 1.49977 0H7.08571C7.7487 3.99966e-05 8.38448 0.263617 8.85329 0.732422L10.6814 2.56055C10.9626 2.84174 11.3443 2.99988 11.742 3H37.2234C39.611 3.00006 41.9658 3.55625 44.1013 4.62402L44.614 4.87988C46.6891 5.91743 47.9997 8.03843 47.9998 10.3584C47.9998 12.3506 46.4656 14.0074 44.4793 14.1602L33.9353 14.9697L25.6622 19.4833C31.2719 21.6534 38.7054 26.0941 41.267 31.2363C43.0679 34.8523 41.5144 38.9289 36.9913 39ZM30.4998 30C26.9099 30 23.9998 27.0899 23.9998 23.5V22.0708C27.9158 23.535 33.507 26.634 36.679 30H30.4998ZM43.2722 7.56348C44.3309 8.09285 44.9997 9.17475 44.9998 10.3584C44.9998 10.7829 44.673 11.1363 44.2498 11.1689L33.3845 12.0049C33.2261 12.0171 33.0707 12.0536 32.9246 12.1143L32.781 12.1836L22.1179 18H20.1209L23.5603 14.5605C23.9893 14.1315 24.1177 13.4863 23.8855 12.9258C23.6533 12.3654 23.1064 12 22.4998 12H13.4998C12.4919 12 11.3202 11.4853 10.031 10.4541C8.76251 9.4393 7.53645 8.04825 6.44997 6.59961C5.49167 5.32187 4.67264 4.03658 4.05446 3H6.87868L8.56032 4.68164C9.40412 5.52545 10.5486 5.99988 11.742 6H37.2234C39.1452 6.00006 41.0406 6.44726 42.7595 7.30664L43.2722 7.56348Z" clip-rule="evenodd"/>
    </g>
  </g>
  <defs>
    <clipPath id="a" class="a">
      <path fill="#fff" d="M0 0H48V48H0z"/>
    </clipPath>
  </defs>
</svg>
