<svg xmlns="http://www.w3.org/2000/svg" width="48" height="48" viewBox="0 0 48 48">
  <g class="neo-icon-kit--plane-return-no-circle">
    <path fill="#444B61" fill-rule="evenodd" d="M34 38.9967V36H13V39L34 38.9967Z" class="svg-secondary-fill" clip-rule="evenodd"/>
    <path fill="#444B61" fill-rule="evenodd" d="M13.3674 16.2648C10.5048 15.273 6.70756 15.4408 6.08575 17.2133C5.46394 18.982 8.33223 21.4673 11.1911 22.4591L32.8123 29.9583C36.073 30.2789 39.1385 28.7307 40.585 26.0286L41.9215 23.8753C42.0276 23.7112 42.0163 23.5057 41.9461 23.3265C41.8616 23.1434 41.7075 23.001 41.5177 22.9306L39.4058 22.1763C39.2264 22.1197 39.0323 22.1297 38.8598 22.2046C38.801 22.231 38.7404 22.2574 38.71 22.2932L36.5849 23.534C36.0541 23.8451 35.3905 23.9017 34.7877 23.6942L27.2748 21.0864L34.5052 11.3943C34.6303 11.2184 34.6654 10.9944 34.6 10.789C34.5173 10.5893 34.3554 10.4324 34.1526 10.3553L30.3402 9.03157C30.1127 8.96934 29.8359 8.99574 29.6672 9.14093L18.1334 17.9185L13.3674 16.2648Z" class="svg-primary-fill" clip-rule="evenodd"/>
  </g>
</svg>
