<svg xmlns="http://www.w3.org/2000/svg" width="48" height="48" viewBox="0 0 48 48">
  <g class="neo-icon-kit--plane-filled">
    <path fill="#006FCF" d="M28.7793 11.5737L35.8636 7.46679C38.8706 5.72358 43.8929 5.90146 45.4866 8.67329C47.0804 11.4451 44.7227 15.9013 41.7157 17.6445L34.6314 21.7513L32.0956 40.7916C31.9554 41.8439 31.3393 42.7706 30.4252 43.3005L28.2826 44.5426C26.6488 45.4898 24.5603 44.9174 23.6152 43.2737C23.3179 42.7568 23.1589 42.1714 23.1539 41.5751L23.0379 27.8252L18.9157 29.907L16.5625 36.3975C16.4336 37.1071 16.0018 37.724 15.3798 38.0846L14.0986 38.8273C12.7616 39.6024 11.0539 39.1344 10.2817 37.7915C10.1043 37.4829 9.98657 37.1435 9.93486 36.7911L9.77168 29.9108L4.01396 25.1822C2.81773 24.1676 2.65533 22.3712 3.65822 21.1645C3.87095 20.9085 4.12686 20.6923 4.41432 20.5256L5.69553 19.7829C6.31749 19.4223 7.06551 19.3553 7.74191 19.598L13.8873 21.1618L17.4347 18.822L5.92835 11.7112C4.2878 10.6973 3.76212 8.54089 4.75788 6.8877C5.06096 6.38453 5.48539 5.96671 5.99219 5.67291L8.09016 4.45669C9.00425 3.92677 10.1116 3.85434 11.0893 4.25864L28.7793 11.5737Z" class="svg-primary-fill"/>
  </g>
</svg>
