<svg xmlns="http://www.w3.org/2000/svg" width="48" height="48" viewBox="0 0 48 48">
  <g class="neo-icon-kit--plane">
    <path fill="#006FCF" fill-rule="evenodd" d="M35.8636 7.46679L28.7793 11.5737L11.0893 4.25864C10.1116 3.85434 9.00425 3.92677 8.09016 4.45669L5.99219 5.67291C5.48539 5.96671 5.06096 6.38453 4.75788 6.8877C3.76212 8.54089 4.2878 10.6973 5.92835 11.7112L17.4347 18.822L13.8873 21.1618L7.74191 19.598C7.06551 19.3553 6.31749 19.4223 5.69553 19.7829L4.41432 20.5256C4.12686 20.6923 3.87095 20.9085 3.65822 21.1645C2.65533 22.3712 2.81773 24.1676 4.01396 25.1822L9.77168 29.9108L9.93486 36.7911C9.98657 37.1435 10.1043 37.4829 10.2817 37.7915C11.0539 39.1344 12.7616 39.6024 14.0986 38.8273L15.3798 38.0846C16.0018 37.724 16.4336 37.1071 16.5625 36.3975L18.9157 29.907L23.0379 27.8252L23.1539 41.5751C23.1589 42.1714 23.3179 42.7568 23.6152 43.2737C24.5603 44.9174 26.6488 45.4898 28.2826 44.5426L30.4252 43.3005C31.3393 42.7706 31.9554 41.8439 32.0956 40.7916L34.6314 21.7513L41.7157 17.6445C44.7227 15.9013 47.0804 11.4451 45.4866 8.67329C43.8929 5.90146 38.8706 5.72358 35.8636 7.46679ZM25.9172 22.9906L16.1834 27.9056L13.6014 35.6192L12.7676 36.1025L12.617 29.2853C12.5297 28.6885 12.2278 28.1442 11.7686 27.7552L6 23.0243L6.89683 22.5046L14.2139 24.4815L22.9255 18.7387L7.42468 9.17542C7.17417 9.02085 7.09391 8.6912 7.24177 8.44614C7.28517 8.37422 7.34542 8.31497 7.41712 8.27342L9.51754 7.0562C9.63046 6.99075 9.76888 6.98162 9.89403 7.03325L28.9491 14.8947L37.3117 10.0484C39.0766 9.02564 42.2846 9.13717 42.8712 10.157C43.4578 11.1768 41.95 14.0212 40.1851 15.0439L31.8225 19.8902L29.0777 40.3849C29.0597 40.5195 28.9826 40.6353 28.8697 40.7007L26.7246 41.9438C26.5203 42.0622 26.2506 41.9885 26.1248 41.7698C26.0846 41.6998 26.0631 41.6208 26.0625 41.5411L25.9172 22.9906Z" class="svg-primary-fill" clip-rule="evenodd"/>
  </g>
</svg>
