<svg xmlns="http://www.w3.org/2000/svg" width="48" height="48" viewBox="0 0 48 48">
  <g class="neo-icon-kit--plane-outbound-no-circle-white">
    <path fill="#fff" fill-rule="evenodd" d="M14 38.9967V36H35V39L14 38.9967Z" class="svg-secondary-fill" clip-rule="evenodd"/>
    <path fill="#fff" fill-rule="evenodd" d="M34.6326 16.2648C37.4952 15.273 41.2924 15.4408 41.9143 17.2133C42.5361 18.982 39.6678 21.4673 36.8089 22.4591L15.1877 29.9583C11.927 30.2789 8.86152 28.7307 7.41505 26.0286L6.07853 23.8753C5.97237 23.7112 5.98374 23.5057 6.05389 23.3265C6.13842 23.1434 6.29248 23.001 6.48233 22.9306L8.59422 22.1763C8.77365 22.1197 8.96765 22.1297 9.1402 22.2046C9.19897 22.231 9.25963 22.2574 9.28996 22.2932L11.4151 23.534C11.9459 23.8451 12.6095 23.9017 13.2123 23.6942L20.7252 21.0864L13.4948 11.3943C13.3697 11.2184 13.3346 10.9944 13.4 10.789C13.4827 10.5893 13.6446 10.4324 13.8474 10.3553L17.6598 9.03157C17.8873 8.96934 18.1641 8.99574 18.3328 9.14093L29.8666 17.9185L34.6326 16.2648Z" class="svg-primary-fill" clip-rule="evenodd"/>
  </g>
</svg>
