<svg xmlns="http://www.w3.org/2000/svg" width="48" height="48" viewBox="0 0 48 48">
  <g class="neo-icon-kit--plane-return">
    <path fill="#444B61" fill-rule="evenodd" d="M48 24C48 37.254 37.254 48 24 48C10.746 48 0 37.254 0 24C0 10.746 10.746 0 24 0C37.254 0 48 10.746 48 24ZM2.82397 24C2.82397 35.696 12.304 45.176 24 45.176C35.696 45.176 45.176 35.696 45.176 24C45.176 12.304 35.696 2.82397 24 2.82397C12.304 2.82397 2.82397 12.304 2.82397 24Z" class="svg-secondary-fill" clip-rule="evenodd"/>
    <g fill="#444B61" class="svg-primary-fill">
      <path d="M12.0585 19.7591C12.4779 18.5239 15.0092 18.4008 16.9177 19.0854L20.0928 20.2255 27.8021 14.0993C27.9153 13.9978 28.0999 13.9784 28.253 14.0216L30.7905 14.9329C30.9262 14.9867 31.0341 15.0962 31.0883 15.2352 31.1318 15.378 31.1085 15.5335 31.0254 15.6563L26.1851 22.4108 31.189 24.2096C31.5917 24.3543 32.0342 24.3111 32.3886 24.0952L33.8084 23.2271C33.8294 23.2033 33.8692 23.1839 33.907 23.1666 34.0222 23.1145 34.152 23.1076 34.2719 23.1472L35.6812 23.6654C35.8072 23.7145 35.909 23.8132 35.9643 23.9397 36.0104 24.0628 36.0188 24.2074 35.9475 24.3219L35.052 25.8227C34.081 27.7057 32.0342 28.7854 29.8594 28.5694L15.4559 23.3977C13.5475 22.7132 11.6391 20.99 12.0585 19.7591zM32.913 33.186V34.9999H17.4274V33.186H32.913z"/>
    </g>
  </g>
</svg>
