<svg xmlns="http://www.w3.org/2000/svg" width="48" height="48" viewBox="0 0 48 48">
  <g class="neo-icon-kit--plane-outbound">
    <path fill="#444B61" fill-rule="evenodd" d="M0 24C0 37.254 10.746 48 24 48C37.254 48 48 37.254 48 24C48 10.746 37.254 0 24 0C10.746 0 0 10.746 0 24ZM45.176 24.0001C45.176 35.6961 35.696 45.1761 24 45.1761C12.304 45.1761 2.82397 35.6961 2.82397 24.0001C2.82397 12.3041 12.304 2.8241 24 2.8241C35.696 2.8241 45.176 12.3041 45.176 24.0001Z" class="svg-secondary-fill" clip-rule="evenodd"/>
    <g fill="#444B61" class="svg-primary-fill">
      <path d="M35.9415 19.7591C35.5221 18.5239 32.9908 18.4008 31.0823 19.0854L27.9072 20.2255 20.1979 14.0993C20.0847 13.9978 19.9001 13.9784 19.747 14.0216L17.2095 14.9329C17.0738 14.9867 16.9659 15.0962 16.9117 15.2352 16.8682 15.378 16.8915 15.5335 16.9746 15.6563L21.8149 22.4108 16.811 24.2096C16.4083 24.3543 15.9658 24.3111 15.6114 24.0952L14.1916 23.2271C14.1706 23.2033 14.1308 23.1839 14.093 23.1666 13.9778 23.1145 13.848 23.1076 13.7281 23.1472L12.3188 23.6654C12.1928 23.7145 12.091 23.8132 12.0357 23.9397 11.9896 24.0628 11.9812 24.2074 12.0525 24.3219L12.948 25.8227C13.919 27.7057 15.9658 28.7854 18.1406 28.5694L32.5441 23.3977C34.4525 22.7132 36.3609 20.99 35.9415 19.7591zM15.0872 33.186V34.9999H30.5728V33.186H15.0872z"/>
    </g>
  </g>
</svg>
