<svg xmlns="http://www.w3.org/2000/svg" width="48" height="48" viewBox="0 0 48 48">
  <g class="neo-icon-kit--play-circle">
    <path fill="#006FCF" fill-rule="evenodd" d="M48 24C48 10.7 37.3 0 24 0C10.7 0 0 10.7 0 24C0 37.3 10.7 48 24 48C37.3 48 48 37.3 48 24ZM3 24C3 12.4 12.4 3 24 3C35.6 3 45 12.4 45 24C45 35.6 35.6 45 24 45C12.4 45 3 35.6 3 24ZM21.0598 14.4374L32.5598 21.4374C34.4801 22.6062 34.4801 25.3938 32.5598 26.5626L21.0598 33.5626C19.0607 34.7795 16.5 33.3404 16.5 31V17C16.5 14.6596 19.0607 13.2205 21.0598 14.4374ZM31 24L19.5 31V17L31 24Z" class="svg-primary-fill" clip-rule="evenodd"/>
  </g>
</svg>
