<svg xmlns="http://www.w3.org/2000/svg" width="48" height="48" viewBox="0 0 48 48">
  <g class="neo-icon-kit--plus-filled">
    <g fill="#006FCF" class="svg-primary-fill">
      <path d="M21.5 8.5C21.5 7.11929 22.6193 6 24 6C25.3807 6 26.5 7.11929 26.5 8.5V39.5C26.5 40.8807 25.3807 42 24 42C22.6193 42 21.5 40.8807 21.5 39.5V8.5Z"/>
      <path d="M39.5 22C40.8807 22 42 23.1193 42 24.5C42 25.8807 40.8807 27 39.5 27L8.5 27C7.11929 27 6 25.8807 6 24.5C6 23.1193 7.11929 22 8.5 22L39.5 22Z"/>
    </g>
  </g>
</svg>
