<svg xmlns="http://www.w3.org/2000/svg" width="48" height="48" viewBox="0 0 48 48">
  <g class="neo-icon-kit--plus-circle">
    <path fill="#006FCF" fill-rule="evenodd" d="M0 24C0 10.7452 10.7452 0 24 0C37.2548 0 48 10.7452 48 24C48 37.2548 37.2548 48 24 48C10.7452 48 0 37.2548 0 24ZM3 24C3 35.5795 12.4205 45 24 45C35.5794 45 45 35.5795 45 24C45 12.4205 35.5794 3 24 3C12.4205 3 3 12.4205 3 24ZM13.8507 22.0055C12.8159 22.0818 12 22.9456 12 24L12.0055 24.1493L12.0228 24.3028C12.1687 25.2637 12.9984 26 14 26H22V34L22.0055 34.1493C22.0818 35.1841 22.9456 36 24 36L24.1493 35.9945C25.1841 35.9182 26 35.0544 26 34V26L34 26L34.1493 25.9945C35.1841 25.9182 36 25.0544 36 24L35.9945 23.8507C35.9182 22.8159 35.0544 22 34 22L26 22L26 14L25.9945 13.8507C25.9182 12.8159 25.0544 12 24 12L23.8507 12.0055C22.8159 12.0818 22 12.9456 22 14L22 22H14L13.8507 22.0055Z" class="svg-primary-fill" clip-rule="evenodd"/>
  </g>
</svg>
