<svg xmlns="http://www.w3.org/2000/svg" width="48" height="48" viewBox="0 0 48 48">
  <g class="neo-icon-kit--plus-circle-filled">
    <path fill="#006FCF" fill-rule="evenodd" d="M24 0C10.7452 0 0 10.7452 0 24C0 37.2548 10.7452 48 24 48C37.2548 48 48 37.2548 48 24C48 10.7452 37.2548 0 24 0ZM12.0055 24.1493L12 24L12.006 23.8433C12.0821 22.8612 12.8676 22.078 13.8507 22.0055L14 22H22L22 14L22.006 13.8433C22.0821 12.8612 22.8676 12.078 23.8507 12.0055L24 12L24.1567 12.006C25.1388 12.0821 25.922 12.8676 25.9945 13.8507L26 14L26 22L34 22L34.1567 22.006C35.1388 22.0821 35.922 22.8676 35.9945 23.8507L36 24L35.994 24.1567C35.9179 25.1388 35.1324 25.922 34.1493 25.9945L34 26L26 26V34L25.994 34.1567C25.9179 35.1388 25.1324 35.922 24.1493 35.9945L24 36L23.8433 35.994C22.8612 35.9179 22.078 35.1324 22.0055 34.1493L22 34V26H14L13.8347 25.9933C12.9083 25.9175 12.1606 25.2103 12.0228 24.3028L12.0055 24.1493Z" class="svg-primary-fill" clip-rule="evenodd"/>
  </g>
</svg>
