<svg xmlns="http://www.w3.org/2000/svg" width="48" height="48" viewBox="0 0 48 48">
  <g class="neo-icon-kit--point-20k-filled">
    <path fill="#006FCF" fill-rule="evenodd" d="M23.9999 0C37.2548 0 48 10.7451 48 24.0001C48 37.2548 37.2548 48.0001 23.9999 48.0001C10.7451 48.0001 0 37.2548 0 24.0001C0 10.7451 10.7451 0 23.9999 0ZM22.616 17C21.992 17 21.401 17.108 20.843 17.324C20.285 17.54 19.796 17.9 19.376 18.404C18.956 18.908 18.623 19.577 18.377 20.411C18.131 21.245 18.008 22.274 18.008 23.498C18.008 24.758 18.131 25.811 18.377 26.657C18.623 27.503 18.956 28.178 19.376 28.682C19.796 29.186 20.285 29.546 20.843 29.762C21.401 29.978 21.992 30.086 22.616 30.086C23.252 30.086 23.849 29.978 24.407 29.762C24.965 29.546 25.457 29.186 25.883 28.682C26.309 28.178 26.645 27.503 26.891 26.657C27.137 25.811 27.26 24.758 27.26 23.498C27.26 22.274 27.137 21.245 26.891 20.411C26.645 19.577 26.309 18.908 25.883 18.404C25.457 17.9 24.965 17.54 24.407 17.324C23.849 17.108 23.252 17 22.616 17ZM10.853 17.387C11.435 17.129 12.104 17 12.86 17C13.436 17 13.985 17.09 14.507 17.27C15.029 17.45 15.488 17.708 15.884 18.044C16.28 18.38 16.595 18.794 16.829 19.286C17.063 19.778 17.18 20.33 17.18 20.942C17.18 21.578 17.078 22.124 16.874 22.58C16.67 23.036 16.4 23.441 16.064 23.795C15.728 24.149 15.347 24.47 14.921 24.758C14.495 25.046 14.066 25.331 13.634 25.613C13.202 25.895 12.782 26.198 12.374 26.522C11.966 26.846 11.606 27.224 11.294 27.656H17.252V29.852H8C8 29.12 8.105 28.484 8.315 27.944C8.525 27.404 8.81 26.921 9.17 26.495C9.53 26.069 9.953 25.676 10.439 25.316C10.925 24.956 11.438 24.59 11.978 24.218L12.26 24.025C12.452 23.8957 12.652 23.765 12.86 23.633C13.172 23.435 13.457 23.216 13.715 22.976C13.973 22.736 14.189 22.466 14.363 22.166C14.537 21.866 14.624 21.524 14.624 21.14C14.624 20.528 14.447 20.051 14.093 19.709C13.739 19.367 13.286 19.196 12.734 19.196C12.362 19.196 12.047 19.283 11.789 19.457C11.531 19.631 11.324 19.859 11.168 20.141C11.012 20.423 10.901 20.735 10.835 21.077C10.769 21.419 10.736 21.758 10.736 22.094H8.288C8.264 21.374 8.348 20.705 8.54 20.087C8.732 19.469 9.02 18.929 9.404 18.467C9.788 18.005 10.271 17.645 10.853 17.387ZM31.706 17H28.88V29.852H31.706V25.712L33.326 24.074L37.196 29.852H40.742L35.234 22.076L40.256 17H36.728L31.706 22.328V17ZM23.498 19.34C23.258 19.184 22.964 19.106 22.616 19.106C22.268 19.106 21.977 19.184 21.743 19.34C21.509 19.496 21.317 19.7 21.167 19.952C21.017 20.204 20.9 20.489 20.816 20.807C20.732 21.125 20.672 21.446 20.636 21.77C20.6 22.094 20.579 22.409 20.573 22.715C20.57 22.868 20.5677 23.0098 20.5662 23.1403L20.5654 23.723C20.5661 23.775 20.5669 23.8283 20.568 23.883L20.577 24.227L20.6 24.803C20.624 25.313 20.699 25.805 20.825 26.279C20.951 26.753 21.152 27.158 21.428 27.494C21.704 27.83 22.1 27.998 22.616 27.998C23.144 27.998 23.549 27.83 23.831 27.494C24.113 27.158 24.317 26.753 24.443 26.279C24.569 25.805 24.644 25.313 24.668 24.803C24.6824 24.497 24.6925 24.218 24.6982 23.966L24.704 23.498L24.695 22.715C24.689 22.409 24.665 22.094 24.623 21.77C24.581 21.446 24.521 21.125 24.443 20.807C24.365 20.489 24.248 20.204 24.092 19.952C23.936 19.7 23.738 19.496 23.498 19.34Z" class="svg-primary-fill" clip-rule="evenodd"/>
  </g>
</svg>
