<svg xmlns="http://www.w3.org/2000/svg" width="48" height="48" viewBox="0 0 48 48">
  <g class="neo-icon-kit--point-3x">
    <path fill="#006FCF" fill-rule="evenodd" d="M48 24.0001C48 10.7451 37.2549 0 23.9999 0C10.7452 0 0 10.7451 0 24.0001C0 37.2549 10.7451 48.0001 23.9999 48.0001C37.2548 48.0001 48 37.2549 48 24.0001ZM3 24.0001C3 12.4206 12.4205 3 23.9999 3C35.5794 3 45 12.4206 45 24.0001C45 35.5795 35.5794 45.0001 23.9999 45.0001C12.4205 45.0001 3 35.5795 3 24.0001ZM16.9813 17C17.5197 17 18.0581 17.0802 18.5965 17.2407C19.1349 17.4012 19.6188 17.6419 20.0483 17.9629C20.4777 18.2838 20.827 18.6754 21.0962 19.1376C21.3654 19.5997 21.5 20.1325 21.5 20.7359C21.5 21.3906 21.343 21.9684 21.0289 22.4691C20.7498 22.9141 20.3465 23.2324 19.8192 23.4238L19.6156 23.4897V23.5282C20.3591 23.6951 20.9424 24.0546 21.3654 24.6066C21.7885 25.1586 22 25.8198 22 26.5901C22 27.2962 21.8622 27.9253 21.5866 28.4773C21.311 29.0293 20.9424 29.4915 20.4809 29.8638C20.0194 30.2361 19.4874 30.5186 18.8849 30.7111C18.2824 30.9037 17.6543 31 17.0005 31C16.2442 31 15.5551 30.8909 14.9334 30.6726C14.3117 30.4544 13.7829 30.1366 13.347 29.7194C12.9112 29.3022 12.5746 28.7918 12.3375 28.1884C12.13 27.6605 12.0182 27.0637 12.002 26.3981L12.001 26.1087H14.5969C14.6097 26.4681 14.6674 26.8116 14.7699 27.1389C14.8725 27.4663 15.0199 27.7487 15.2122 27.9862C15.4045 28.2238 15.6449 28.4131 15.9333 28.5543C16.2217 28.6956 16.5646 28.7662 16.962 28.7662C17.5774 28.7662 18.0965 28.5768 18.5196 28.1981C18.9426 27.8193 19.1541 27.3026 19.1541 26.6479C19.1541 26.1343 19.0548 25.7428 18.8561 25.4732C18.6574 25.2036 18.4042 25.0078 18.0965 24.8858C17.7889 24.7639 17.4524 24.6933 17.087 24.674C16.8435 24.6612 16.607 24.6526 16.3777 24.6483L16.039 24.6451V22.7194C16.3339 22.7451 16.648 22.7451 16.9813 22.7194C17.3146 22.6937 17.6254 22.6199 17.9139 22.4979C18.2023 22.376 18.4395 22.1995 18.6253 21.9684C18.8112 21.7373 18.9042 21.4292 18.9042 21.044C18.9042 20.4663 18.7119 20.0234 18.3273 19.7153C17.9427 19.4072 17.5004 19.2531 17.0005 19.2531C16.3083 19.2531 15.7859 19.481 15.4333 19.9367C15.12 20.3418 14.951 20.8408 14.9263 21.4336L14.9238 21.6602H12.3279C12.3535 20.967 12.4785 20.3347 12.7028 19.7634C12.9272 19.1921 13.2412 18.7011 13.6451 18.2902C14.0489 17.8794 14.5328 17.5617 15.0968 17.337C15.6609 17.1123 16.289 17 16.9813 17ZM29.5383 21.4706L26.854 17H23.3643L27.7743 23.6667L23 31H26.3746L29.4233 26.1569L32.4145 31H36L31.2257 23.6863L35.6165 17H32.3186L29.5383 21.4706Z" class="svg-primary-fill" clip-rule="evenodd"/>
  </g>
</svg>
