<svg xmlns="http://www.w3.org/2000/svg" width="48" height="48" viewBox="0 0 48 48">
  <g class="neo-icon-kit--point-3x-filled">
    <path fill="#006FCF" fill-rule="evenodd" d="M23.9999 0C37.2548 0 48 10.7451 48 24.0001C48 37.2548 37.2548 48.0001 23.9999 48.0001C10.7451 48.0001 0 37.2548 0 24.0001C0 10.7451 10.7451 0 23.9999 0ZM16.9813 17C16.289 17 15.6609 17.1123 15.0968 17.337C14.5328 17.5617 14.0489 17.8794 13.6451 18.2902C13.2412 18.7011 12.9272 19.1921 12.7028 19.7634C12.4785 20.3347 12.3535 20.967 12.3279 21.6602H14.9238C14.911 20.967 15.0808 20.3925 15.4333 19.9367C15.7859 19.481 16.3083 19.2531 17.0005 19.2531C17.5004 19.2531 17.9427 19.4072 18.3273 19.7153C18.7119 20.0234 18.9042 20.4663 18.9042 21.044C18.9042 21.4292 18.8112 21.7373 18.6253 21.9684C18.4395 22.1995 18.2023 22.376 17.9139 22.4979C17.6254 22.6199 17.3146 22.6937 16.9813 22.7194C16.648 22.7451 16.3339 22.7451 16.039 22.7194V24.6451C16.3724 24.6451 16.7217 24.6547 17.087 24.674C17.4524 24.6933 17.7889 24.7639 18.0965 24.8858C18.4042 25.0078 18.6574 25.2036 18.8561 25.4732C19.0548 25.7428 19.1541 26.1343 19.1541 26.6479C19.1541 27.3026 18.9426 27.8193 18.5196 28.1981C18.0965 28.5768 17.5774 28.7662 16.962 28.7662C16.5646 28.7662 16.2217 28.6956 15.9333 28.5543C15.6449 28.4131 15.4045 28.2238 15.2122 27.9862C15.0199 27.7487 14.8725 27.4663 14.7699 27.1389C14.6674 26.8116 14.6097 26.4681 14.5969 26.1087H12.001C11.9882 26.8918 12.1003 27.5851 12.3375 28.1884C12.5746 28.7918 12.9112 29.3022 13.347 29.7194C13.7829 30.1366 14.3117 30.4544 14.9334 30.6726C15.5551 30.8909 16.2442 31 17.0005 31C17.6543 31 18.2824 30.9037 18.8849 30.7111C19.4874 30.5186 20.0194 30.2361 20.4809 29.8638C20.9424 29.4915 21.311 29.0293 21.5866 28.4773C21.8622 27.9253 22 27.2962 22 26.5901C22 25.8198 21.7885 25.1586 21.3654 24.6066C20.9424 24.0546 20.3591 23.6951 19.6156 23.5282V23.4897C20.2438 23.3099 20.7149 22.9697 21.0289 22.4691C21.343 21.9684 21.5 21.3906 21.5 20.7359C21.5 20.1325 21.3654 19.5997 21.0962 19.1376C20.827 18.6754 20.4777 18.2838 20.0483 17.9629C19.6188 17.6419 19.1349 17.4012 18.5965 17.2407C18.0581 17.0802 17.5197 17 16.9813 17ZM23.3643 17H26.854L29.5383 21.4706L32.3186 17H35.6165L31.2257 23.6863L36 31H32.4145L29.4233 26.1569L26.3746 31H23L27.7743 23.6667L23.3643 17Z" class="svg-primary-fill" clip-rule="evenodd"/>
  </g>
</svg>
