<svg xmlns="http://www.w3.org/2000/svg" width="48" height="48" viewBox="0 0 48 48">
  <g class="neo-icon-kit--point-10k-filled">
    <path fill="#006FCF" fill-rule="evenodd" d="M23.9999 0C37.2548 0 48 10.7451 48 24.0001C48 37.2548 37.2548 48.0001 23.9999 48.0001C10.7451 48.0001 0 37.2548 0 24.0001C0 10.7451 10.7451 0 23.9999 0ZM21.662 17C21.038 17 20.447 17.108 19.889 17.324C19.331 17.54 18.842 17.9 18.422 18.404C18.002 18.908 17.669 19.577 17.423 20.411C17.177 21.245 17.054 22.274 17.054 23.498C17.054 24.758 17.177 25.811 17.423 26.657C17.669 27.503 18.002 28.178 18.422 28.682C18.842 29.186 19.331 29.546 19.889 29.762C20.447 29.978 21.038 30.086 21.662 30.086C22.298 30.086 22.895 29.978 23.453 29.762C24.011 29.546 24.503 29.186 24.929 28.682C25.355 28.178 25.691 27.503 25.937 26.657C26.183 25.811 26.306 24.758 26.306 23.498C26.306 22.274 26.183 21.245 25.937 20.411C25.691 19.577 25.355 18.908 24.929 18.404C24.503 17.9 24.011 17.54 23.453 17.324C22.895 17.108 22.298 17 21.662 17ZM11.69 17.252H13.724V29.852H11.168V21.68H8V19.754C8.444 19.766 8.873 19.733 9.287 19.655C9.701 19.577 10.073 19.439 10.403 19.241C10.733 19.043 11.012 18.782 11.24 18.458C11.468 18.134 11.618 17.732 11.69 17.252ZM30.752 17H27.926V29.852H30.752V25.712L32.372 24.074L36.242 29.852H39.788L34.28 22.076L39.302 17H35.774L30.752 22.328V17ZM22.544 19.34C22.304 19.184 22.01 19.106 21.662 19.106C21.314 19.106 21.023 19.184 20.789 19.34C20.555 19.496 20.363 19.7 20.213 19.952C20.063 20.204 19.946 20.489 19.862 20.807C19.778 21.125 19.718 21.446 19.682 21.77C19.646 22.094 19.625 22.409 19.619 22.715C19.616 22.868 19.6138 23.0098 19.6123 23.1403L19.6114 23.723C19.6121 23.775 19.6129 23.8283 19.614 23.883L19.623 24.227L19.646 24.803C19.67 25.313 19.745 25.805 19.871 26.279C19.997 26.753 20.198 27.158 20.474 27.494C20.75 27.83 21.146 27.998 21.662 27.998C22.19 27.998 22.595 27.83 22.877 27.494C23.159 27.158 23.363 26.753 23.489 26.279C23.615 25.805 23.69 25.313 23.714 24.803C23.7284 24.497 23.7385 24.218 23.7442 23.966L23.75 23.498L23.741 22.715C23.735 22.409 23.711 22.094 23.669 21.77C23.627 21.446 23.567 21.125 23.489 20.807C23.411 20.489 23.294 20.204 23.138 19.952C22.982 19.7 22.784 19.496 22.544 19.34Z" class="svg-primary-fill" clip-rule="evenodd"/>
  </g>
</svg>
