<svg xmlns="http://www.w3.org/2000/svg" width="48" height="48" viewBox="0 0 48 48">
  <g class="neo-icon-kit--point-2x">
    <path fill="#006FCF" fill-rule="evenodd" d="M48 24.0001C48 10.7451 37.2549 0 23.9999 0C10.7452 0 0 10.7451 0 24.0001C0 37.2549 10.7452 48.0001 23.9999 48.0001C37.2548 48.0001 48 37.2549 48 24.0001ZM3 24.0001C3 12.4206 12.4205 3 23.9999 3C35.5794 3 45 12.4206 45 24.0001C45 35.5795 35.5794 45.0001 23.9999 45.0001C12.4205 45.0001 3 35.5795 3 24.0001ZM17.2529 17C17.8755 17 18.4689 17.098 19.0331 17.2941C19.5973 17.4902 20.0934 17.7712 20.5214 18.1373C20.9494 18.5033 21.2899 18.9542 21.5428 19.4902C21.7957 20.0261 21.9222 20.6274 21.9222 21.2941C21.9222 21.9869 21.8119 22.5817 21.5914 23.0784C21.3709 23.5752 21.0791 24.0163 20.716 24.402C20.3528 24.7876 19.941 25.1373 19.4805 25.451C19.0201 25.7647 18.5564 26.0752 18.0895 26.3824C17.6226 26.6895 17.1686 27.0196 16.7276 27.3725C16.3748 27.6549 16.0553 27.9749 15.7689 28.3325L15.5603 28.6078H22V31H12C12 30.2026 12.1135 29.5098 12.3405 28.9216C12.5674 28.3333 12.8755 27.8072 13.2646 27.3431C13.6537 26.8791 14.1109 26.451 14.6362 26.0588C14.9864 25.7974 15.3495 25.533 15.7257 25.2658L16.2996 24.8627L16.6044 24.6525C16.8119 24.5116 17.0281 24.3693 17.2529 24.2255C17.5901 24.0098 17.8982 23.7712 18.177 23.5098C18.4559 23.2484 18.6894 22.9543 18.8774 22.6275C19.0655 22.3007 19.1595 21.9281 19.1595 21.5098C19.1595 20.8431 18.9682 20.3235 18.5856 19.951C18.203 19.5784 17.7134 19.3922 17.1167 19.3922C16.7147 19.3922 16.3742 19.4869 16.0953 19.6765C15.8165 19.866 15.5927 20.1144 15.4241 20.4216C15.2555 20.7288 15.1355 21.0686 15.0642 21.4412C15.0107 21.7206 14.9773 21.9982 14.9639 22.2739L14.9572 22.549H12.3113C12.2853 21.7647 12.3761 21.036 12.5837 20.3627C12.7912 19.6895 13.1025 19.1013 13.5175 18.598C13.9326 18.0948 14.4546 17.7026 15.0837 17.4216C15.7127 17.1405 16.4358 17 17.2529 17ZM29.5383 21.4706L26.854 17H23.3643L27.7743 23.6667L23 31H26.3746L29.4233 26.1569L32.4145 31H36L31.2257 23.6863L35.6165 17H32.3186L29.5383 21.4706Z" class="svg-primary-fill" clip-rule="evenodd"/>
  </g>
</svg>
