<svg xmlns="http://www.w3.org/2000/svg" width="48" height="48" viewBox="0 0 48 48">
  <g class="neo-icon-kit--point-2x-filled">
    <path fill="#006FCF" fill-rule="evenodd" d="M23.9999 0C37.2548 0 48 10.7451 48 24.0001C48 37.2548 37.2548 48.0001 23.9999 48.0001C10.7451 48.0001 0 37.2548 0 24.0001C0 10.7451 10.7451 0 23.9999 0ZM17.2529 17C16.4358 17 15.7127 17.1405 15.0837 17.4216C14.4546 17.7026 13.9326 18.0948 13.5175 18.598C13.1025 19.1013 12.7912 19.6895 12.5837 20.3627C12.4058 20.9398 12.3137 21.5576 12.3073 22.2163L12.3113 22.549H14.9572L14.9639 22.2739C14.9773 21.9982 15.0107 21.7206 15.0642 21.4412C15.1355 21.0686 15.2555 20.7288 15.4241 20.4216C15.5927 20.1144 15.8165 19.866 16.0953 19.6765C16.3742 19.4869 16.7147 19.3922 17.1167 19.3922C17.7134 19.3922 18.203 19.5784 18.5856 19.951C18.9682 20.3235 19.1595 20.8431 19.1595 21.5098C19.1595 21.9281 19.0655 22.3007 18.8774 22.6275C18.6894 22.9543 18.4559 23.2484 18.177 23.5098C17.8982 23.7712 17.5901 24.0098 17.2529 24.2255L16.9222 24.4401L16.6044 24.6525L16.2996 24.8627L15.7257 25.2658C15.3495 25.533 14.9864 25.7974 14.6362 26.0588C14.1109 26.451 13.6537 26.8791 13.2646 27.3431C12.8755 27.8072 12.5674 28.3333 12.3405 28.9216C12.1419 29.4363 12.0301 30.031 12.0053 30.7059L12 31H22V28.6078H15.5603L15.7689 28.3325C16.0553 27.9749 16.3748 27.6549 16.7276 27.3725C17.1686 27.0196 17.6226 26.6895 18.0895 26.3824C18.5564 26.0752 19.0201 25.7647 19.4805 25.451C19.941 25.1373 20.3528 24.7876 20.716 24.402C21.0791 24.0163 21.3709 23.5752 21.5914 23.0784C21.8119 22.5817 21.9222 21.9869 21.9222 21.2941C21.9222 20.6274 21.7957 20.0261 21.5428 19.4902C21.2899 18.9542 20.9494 18.5033 20.5214 18.1373C20.0934 17.7712 19.5973 17.4902 19.0331 17.2941C18.4689 17.098 17.8755 17 17.2529 17ZM23.3643 17H26.854L29.5383 21.4706L32.3186 17H35.6165L31.2257 23.6863L36 31H32.4145L29.4233 26.1569L26.3746 31H23L27.7743 23.6667L23.3643 17Z" class="svg-primary-fill" clip-rule="evenodd"/>
  </g>
</svg>
