<svg xmlns="http://www.w3.org/2000/svg" width="48" height="48" viewBox="0 0 48 48">
  <g class="neo-icon-kit--point-5x-filled">
    <path fill="#006FCF" fill-rule="evenodd" d="M23.9999 0C37.2548 0 48 10.7451 48 24.0001C48 37.2548 37.2548 48.0001 23.9999 48.0001C10.7451 48.0001 0 37.2548 0 24.0001C0 10.7451 10.7451 0 23.9999 0ZM26.854 17H23.3643L27.7743 23.6667L23 31H26.3746L29.4233 26.1569L32.4145 31H36L31.2257 23.6863L35.6165 17H32.3186L29.5383 21.4706L26.854 17ZM13.75 17H21.2692V19.2972H15.7115L15.1731 22.419L15.2115 22.4582L15.3996 22.2774C15.7165 21.9911 16.0513 21.7798 16.4038 21.6434C16.8269 21.4798 17.3077 21.398 17.8462 21.398C18.5128 21.398 19.1026 21.5223 19.6154 21.771C20.1282 22.0197 20.5609 22.3535 20.9135 22.7724C21.266 23.1912 21.5353 23.6854 21.7212 24.2547C21.9071 24.8241 22 25.4295 22 26.0709C22 26.7777 21.8654 27.4354 21.5962 28.0441C21.3269 28.6527 20.9647 29.1796 20.5096 29.6246C20.0545 30.0697 19.5256 30.4132 18.9231 30.6554C18.3205 30.8976 17.6795 31.0121 17 30.999C16.3462 30.999 15.7212 30.9106 15.125 30.7339C14.5288 30.5572 14 30.2856 13.5385 29.9191C13.0769 29.5526 12.7083 29.0978 12.4327 28.5546C12.1915 28.0793 12.0509 27.5363 12.011 26.9257L12 26.6599H14.7308L14.7583 26.8646C14.8482 27.3979 15.0698 27.8303 15.4231 28.1619C15.8205 28.5349 16.3269 28.7215 16.9423 28.7215C17.3013 28.7215 17.625 28.6462 17.9135 28.4957C18.2019 28.3451 18.4455 28.1488 18.6442 27.9066C18.8429 27.6645 18.9968 27.3831 19.1058 27.0624C19.2147 26.7417 19.2692 26.4112 19.2692 26.0709C19.2692 25.7175 19.2179 25.3837 19.1154 25.0695C19.0128 24.7554 18.859 24.4805 18.6538 24.2449C18.4487 24.0093 18.2051 23.8261 17.9231 23.6952C17.641 23.5643 17.3141 23.4988 16.9423 23.4988C16.4551 23.4988 16.0577 23.5872 15.75 23.7639C15.4936 23.9111 15.2505 24.1288 15.0208 24.417L14.8846 24.5983H12.4231L13.75 17Z" class="svg-primary-fill" clip-rule="evenodd"/>
  </g>
</svg>
