<svg xmlns="http://www.w3.org/2000/svg" width="48" height="48" viewBox="0 0 48 48">
  <g class="neo-icon-kit--point-8x-filled">
    <path fill="#006FCF" fill-rule="evenodd" d="M23.9999 0C37.2548 0 48 10.7451 48 24.0001C48 37.2548 37.2548 48.0001 23.9999 48.0001C10.7451 48.0001 0 37.2548 0 24.0001C0 10.7451 10.7451 0 23.9999 0ZM17.0189 17C16.476 17 15.9394 17.077 15.4091 17.2311C14.8788 17.3851 14.4021 17.6162 13.9792 17.9243C13.5562 18.2325 13.2121 18.6176 12.947 19.0798C12.6818 19.542 12.5492 20.0747 12.5492 20.6781C12.5492 21.3457 12.7134 21.9298 13.0417 22.4305C13.3335 22.8756 13.75 23.1939 14.2912 23.3853L14.5 23.4512V23.4897L14.2668 23.5532C13.5832 23.7612 13.0455 24.1252 12.6534 24.6451C12.2178 25.2228 12 25.9418 12 26.8019C12 27.5337 12.142 28.1628 12.4261 28.6891C12.7102 29.2155 13.089 29.652 13.5625 29.9986C14.036 30.3453 14.5726 30.5988 15.1723 30.7593C15.7721 30.9198 16.3939 31 17.0379 31C17.6566 31 18.2626 30.9133 18.8561 30.74C19.4495 30.5667 19.9798 30.3067 20.447 29.9601C20.9141 29.6135 21.2898 29.177 21.5739 28.6506C21.858 28.1243 22 27.5016 22 26.7827C22 25.9353 21.7854 25.2196 21.3561 24.6355C20.9697 24.1098 20.435 23.7478 19.7521 23.5497L19.5189 23.4897V23.4512L19.7276 23.3732C20.2682 23.1513 20.6816 22.8178 20.9678 22.3728C21.2898 21.8721 21.4508 21.2879 21.4508 20.6204C21.4508 20.2866 21.375 19.9111 21.2235 19.4938C21.072 19.0766 20.8226 18.685 20.4754 18.3191C20.1282 17.9532 19.6705 17.6419 19.1023 17.3851C18.5341 17.1284 17.8397 17 17.0189 17ZM23.3643 17H26.854L29.5383 21.4706L32.3186 17H35.6165L31.2257 23.6863L36 31H32.4145L29.4233 26.1569L26.3746 31H23L27.7743 23.6667L23.3643 17ZM17.0379 24.5296C17.3535 24.5296 17.6471 24.5809 17.9186 24.6836C18.19 24.7863 18.4299 24.934 18.6383 25.1265C18.8466 25.3191 19.0107 25.547 19.1307 25.8102C19.2506 26.0734 19.3106 26.3654 19.3106 26.6864C19.3106 27.0202 19.2538 27.3283 19.1402 27.6107C19.0265 27.8932 18.8655 28.1339 18.6572 28.3329C18.4489 28.5319 18.209 28.6859 17.9375 28.795C17.666 28.9042 17.3662 28.9587 17.0379 28.9587C16.7222 28.9587 16.4192 28.9042 16.1288 28.795C15.8384 28.6859 15.589 28.5319 15.3807 28.3329C15.1723 28.1339 15.0051 27.8932 14.8788 27.6107C14.7525 27.3283 14.6894 27.0138 14.6894 26.6671C14.6894 25.9739 14.9167 25.4443 15.3712 25.0784C15.8258 24.7125 16.3813 24.5296 17.0379 24.5296ZM18.0322 19.2531C17.7734 19.1247 17.4356 19.0605 17.0189 19.0605C16.7538 19.0605 16.4981 19.1022 16.2519 19.1857C16.0057 19.2691 15.7879 19.3879 15.5985 19.542C15.4091 19.696 15.2607 19.8886 15.1534 20.1197C15.0461 20.3508 14.9924 20.6204 14.9924 20.9285C14.9924 21.5062 15.1944 21.9459 15.5985 22.2476C16.0025 22.5493 16.476 22.7001 17.0189 22.7001C17.5871 22.7001 18.0606 22.5493 18.4394 22.2476C18.8182 21.9459 19.0076 21.5062 19.0076 20.9285C19.0076 20.7487 18.9823 20.553 18.9318 20.3411C18.8813 20.1293 18.7835 19.9271 18.6383 19.7345C18.4931 19.542 18.291 19.3815 18.0322 19.2531Z" class="svg-primary-fill" clip-rule="evenodd"/>
  </g>
</svg>
