<svg xmlns="http://www.w3.org/2000/svg" width="48" height="48" viewBox="0 0 48 48">
  <g class="neo-icon-kit--point-20k">
    <path fill="#006FCF" fill-rule="evenodd" d="M48 24.0001C48 10.7451 37.2548 0 23.9999 0C10.7451 0 0 10.7451 0 24.0001C0 37.2548 10.7451 48.0001 23.9999 48.0001C37.2548 48.0001 48 37.2548 48 24.0001ZM3 24.0001C3 12.4206 12.4205 3 23.9999 3C35.5794 3 45 12.4206 45 24.0001C45 35.5795 35.5794 45.0001 23.9999 45.0001C12.4205 45.0001 3 35.5795 3 24.0001ZM22.616 17C23.252 17 23.849 17.108 24.407 17.324C24.965 17.54 25.457 17.9 25.883 18.404C26.309 18.908 26.645 19.577 26.891 20.411C27.137 21.245 27.26 22.274 27.26 23.498C27.26 24.758 27.137 25.811 26.891 26.657C26.645 27.503 26.309 28.178 25.883 28.682C25.457 29.186 24.965 29.546 24.407 29.762C23.849 29.978 23.252 30.086 22.616 30.086C21.992 30.086 21.401 29.978 20.843 29.762C20.285 29.546 19.796 29.186 19.376 28.682C18.956 28.178 18.623 27.503 18.377 26.657C18.131 25.811 18.008 24.758 18.008 23.498C18.008 22.274 18.131 21.245 18.377 20.411C18.623 19.577 18.956 18.908 19.376 18.404C19.796 17.9 20.285 17.54 20.843 17.324C21.401 17.108 21.992 17 22.616 17ZM14.507 17.27C13.985 17.09 13.436 17 12.86 17C12.104 17 11.435 17.129 10.853 17.387C10.271 17.645 9.788 18.005 9.404 18.467C9.02 18.929 8.732 19.469 8.54 20.087C8.348 20.705 8.264 21.374 8.288 22.094H10.736L10.7422 21.8414C10.7546 21.5883 10.7855 21.3335 10.835 21.077C10.901 20.735 11.012 20.423 11.168 20.141C11.324 19.859 11.531 19.631 11.789 19.457C12.047 19.283 12.362 19.196 12.734 19.196C13.286 19.196 13.739 19.367 14.093 19.709C14.447 20.051 14.624 20.528 14.624 21.14C14.624 21.524 14.537 21.866 14.363 22.166C14.189 22.466 13.973 22.736 13.715 22.976C13.457 23.216 13.172 23.435 12.86 23.633C12.652 23.765 12.452 23.8957 12.26 24.025L11.978 24.218L11.447 24.588C11.099 24.8333 10.763 25.076 10.439 25.316C9.953 25.676 9.53 26.069 9.17 26.495C8.81 26.921 8.525 27.404 8.315 27.944C8.105 28.484 8 29.12 8 29.852H17.252V27.656H11.294L11.487 27.4033C11.7519 27.075 12.0476 26.7812 12.374 26.522C12.782 26.198 13.202 25.895 13.634 25.613C14.066 25.331 14.495 25.046 14.921 24.758C15.347 24.47 15.728 24.149 16.064 23.795C16.4 23.441 16.67 23.036 16.874 22.58C17.078 22.124 17.18 21.578 17.18 20.942C17.18 20.33 17.063 19.778 16.829 19.286C16.595 18.794 16.28 18.38 15.884 18.044C15.488 17.708 15.029 17.45 14.507 17.27ZM31.706 17V22.328L36.728 17H40.256L35.234 22.076L40.742 29.852H37.196L33.326 24.074L31.706 25.712V29.852H28.88V17H31.706ZM21.743 19.34C21.977 19.184 22.268 19.106 22.616 19.106C22.964 19.106 23.258 19.184 23.498 19.34C23.738 19.496 23.936 19.7 24.092 19.952C24.248 20.204 24.365 20.489 24.443 20.807C24.521 21.125 24.581 21.446 24.623 21.77C24.665 22.094 24.689 22.409 24.695 22.715L24.704 23.498L24.6982 23.966L24.691 24.227L24.668 24.803C24.644 25.313 24.569 25.805 24.443 26.279C24.317 26.753 24.113 27.158 23.831 27.494C23.549 27.83 23.144 27.998 22.616 27.998C22.1 27.998 21.704 27.83 21.428 27.494C21.152 27.158 20.951 26.753 20.825 26.279C20.699 25.805 20.624 25.313 20.6 24.803L20.577 24.227L20.5654 23.723L20.568 23.006L20.584 22.406C20.5947 22.198 20.612 21.986 20.636 21.77C20.672 21.446 20.732 21.125 20.816 20.807C20.9 20.489 21.017 20.204 21.167 19.952C21.317 19.7 21.509 19.496 21.743 19.34Z" class="svg-primary-fill" clip-rule="evenodd"/>
  </g>
</svg>
