<svg xmlns="http://www.w3.org/2000/svg" width="48" height="48" viewBox="0 0 48 48">
  <g class="neo-icon-kit--point-5x">
    <path fill="#006FCF" fill-rule="evenodd" d="M48 24.0001C48 10.7451 37.2548 0 23.9999 0C10.7451 0 0 10.7451 0 24.0001C0 37.2548 10.7451 48.0001 23.9999 48.0001C37.2548 48.0001 48 37.2548 48 24.0001ZM3 24.0001C3 12.4206 12.4205 3 23.9999 3C35.5794 3 45 12.4206 45 24.0001C45 35.5795 35.5794 45.0001 23.9999 45.0001C12.4205 45.0001 3 35.5795 3 24.0001ZM26.854 17L29.5383 21.4706L32.3186 17H35.6165L31.2257 23.6863L36 31H32.4145L29.4233 26.1569L26.3746 31H23L27.7743 23.6667L23.3643 17H26.854ZM21.2692 19.2972V17H13.75L12.4231 24.5983H14.8846L15.0208 24.417C15.2505 24.1288 15.4936 23.9111 15.75 23.7639C16.0577 23.5872 16.4551 23.4988 16.9423 23.4988C17.3141 23.4988 17.641 23.5643 17.9231 23.6952C18.2051 23.8261 18.4487 24.0093 18.6538 24.2449C18.859 24.4805 19.0128 24.7554 19.1154 25.0695C19.2179 25.3837 19.2692 25.7175 19.2692 26.0709C19.2692 26.4112 19.2147 26.7417 19.1058 27.0624C18.9968 27.3831 18.8429 27.6645 18.6442 27.9066C18.4455 28.1488 18.2019 28.3451 17.9135 28.4957C17.625 28.6462 17.3013 28.7215 16.9423 28.7215C16.3269 28.7215 15.8205 28.5349 15.4231 28.1619C15.0256 27.7888 14.7949 27.2882 14.7308 26.6599H12L12.011 26.9257C12.0509 27.5363 12.1915 28.0793 12.4327 28.5546C12.7083 29.0978 13.0769 29.5526 13.5385 29.9191C14 30.2856 14.5288 30.5572 15.125 30.7339C15.7212 30.9106 16.3462 30.999 17 30.999C17.6795 31.0121 18.3205 30.8976 18.9231 30.6554C19.5256 30.4132 20.0545 30.0697 20.5096 29.6246C20.9647 29.1796 21.3269 28.6527 21.5962 28.0441C21.8654 27.4354 22 26.7777 22 26.0709C22 25.4295 21.9071 24.8241 21.7212 24.2547C21.5353 23.6854 21.266 23.1912 20.9135 22.7724C20.5609 22.3535 20.1282 22.0197 19.6154 21.771C19.1026 21.5223 18.5128 21.398 17.8462 21.398C17.3077 21.398 16.8269 21.4798 16.4038 21.6434C15.9808 21.807 15.5833 22.0786 15.2115 22.4582L15.1731 22.419L15.7115 19.2972H21.2692Z" class="svg-primary-fill" clip-rule="evenodd"/>
  </g>
</svg>
