<svg xmlns="http://www.w3.org/2000/svg" width="48" height="48" viewBox="0 0 48 48">
  <g class="neo-icon-kit--point-10k">
    <path fill="#006FCF" fill-rule="evenodd" d="M48 24.0001C48 10.7451 37.2548 0 23.9999 0C10.7451 0 0 10.7451 0 24.0001C0 37.2548 10.7451 48.0001 23.9999 48.0001C37.2548 48.0001 48 37.2548 48 24.0001ZM3 24.0001C3 12.4206 12.4205 3 23.9999 3C35.5794 3 45 12.4206 45 24.0001C45 35.5795 35.5794 45.0001 23.9999 45.0001C12.4205 45.0001 3 35.5795 3 24.0001ZM21.662 17C22.298 17 22.895 17.108 23.453 17.324C24.011 17.54 24.503 17.9 24.929 18.404C25.355 18.908 25.691 19.577 25.937 20.411C26.183 21.245 26.306 22.274 26.306 23.498C26.306 24.758 26.183 25.811 25.937 26.657C25.691 27.503 25.355 28.178 24.929 28.682C24.503 29.186 24.011 29.546 23.453 29.762C22.895 29.978 22.298 30.086 21.662 30.086C21.038 30.086 20.447 29.978 19.889 29.762C19.331 29.546 18.842 29.186 18.422 28.682C18.002 28.178 17.669 27.503 17.423 26.657C17.177 25.811 17.054 24.758 17.054 23.498C17.054 22.274 17.177 21.245 17.423 20.411C17.669 19.577 18.002 18.908 18.422 18.404C18.842 17.9 19.331 17.54 19.889 17.324C20.447 17.108 21.038 17 21.662 17ZM13.724 29.852V17.252H11.69L11.6475 17.4855C11.5658 17.8638 11.43 18.188 11.24 18.458C11.012 18.782 10.733 19.043 10.403 19.241C10.073 19.439 9.701 19.577 9.287 19.655C8.873 19.733 8.444 19.766 8 19.754V21.68H11.168V29.852H13.724ZM30.752 17V22.328L35.774 17H39.302L34.28 22.076L39.788 29.852H36.242L32.372 24.074L30.752 25.712V29.852H27.926V17H30.752ZM20.789 19.34C21.023 19.184 21.314 19.106 21.662 19.106C22.01 19.106 22.304 19.184 22.544 19.34C22.784 19.496 22.982 19.7 23.138 19.952C23.294 20.204 23.411 20.489 23.489 20.807C23.567 21.125 23.627 21.446 23.669 21.77C23.711 22.094 23.735 22.409 23.741 22.715L23.75 23.498L23.7442 23.966L23.737 24.227L23.714 24.803C23.69 25.313 23.615 25.805 23.489 26.279C23.363 26.753 23.159 27.158 22.877 27.494C22.595 27.83 22.19 27.998 21.662 27.998C21.146 27.998 20.75 27.83 20.474 27.494C20.198 27.158 19.997 26.753 19.871 26.279C19.745 25.805 19.67 25.313 19.646 24.803L19.623 24.227L19.6114 23.723L19.614 23.006L19.63 22.406C19.6407 22.198 19.658 21.986 19.682 21.77C19.718 21.446 19.778 21.125 19.862 20.807C19.946 20.489 20.063 20.204 20.213 19.952C20.363 19.7 20.555 19.496 20.789 19.34Z" class="svg-primary-fill" clip-rule="evenodd"/>
  </g>
</svg>
