<svg xmlns="http://www.w3.org/2000/svg" width="48" height="48" viewBox="0 0 48 48">
  <g class="neo-icon-kit--point-8x">
    <path fill="#006FCF" fill-rule="evenodd" d="M48 24.0001C48 10.7451 37.2548 0 23.9999 0C10.7451 0 0 10.7451 0 24.0001C0 37.2548 10.7451 48.0001 23.9999 48.0001C37.2548 48.0001 48 37.2548 48 24.0001ZM3 24.0001C3 12.4206 12.4205 3 23.9999 3C35.5794 3 45 12.4206 45 24.0001C45 35.5795 35.5794 45.0001 23.9999 45.0001C12.4205 45.0001 3 35.5795 3 24.0001ZM17.0189 17C17.8397 17 18.5341 17.1284 19.1023 17.3851C19.6705 17.6419 20.1282 17.9532 20.4754 18.3191C20.8226 18.685 21.072 19.0766 21.2235 19.4938C21.375 19.9111 21.4508 20.2866 21.4508 20.6204C21.4508 21.2879 21.2898 21.8721 20.9678 22.3728C20.6816 22.8178 20.2682 23.1513 19.7276 23.3732L19.5189 23.4512V23.4897C20.3144 23.6694 20.9268 24.0513 21.3561 24.6355C21.7854 25.2196 22 25.9353 22 26.7827C22 27.5016 21.858 28.1243 21.5739 28.6506C21.2898 29.177 20.9141 29.6135 20.447 29.9601C19.9798 30.3067 19.4495 30.5667 18.8561 30.74C18.2626 30.9133 17.6566 31 17.0379 31C16.3939 31 15.7721 30.9198 15.1723 30.7593C14.5726 30.5988 14.036 30.3453 13.5625 29.9986C13.089 29.652 12.7102 29.2155 12.4261 28.6891C12.142 28.1628 12 27.5337 12 26.8019C12 25.9418 12.2178 25.2228 12.6534 24.6451C13.0455 24.1252 13.5832 23.7612 14.2668 23.5532L14.5 23.4897V23.4512C13.8561 23.2714 13.37 22.9312 13.0417 22.4305C12.7134 21.9298 12.5492 21.3457 12.5492 20.6781C12.5492 20.0747 12.6818 19.542 12.947 19.0798C13.2121 18.6176 13.5562 18.2325 13.9792 17.9243C14.4021 17.6162 14.8788 17.3851 15.4091 17.2311C15.9394 17.077 16.476 17 17.0189 17ZM29.5383 21.4706L26.854 17H23.3643L27.7743 23.6667L23 31H26.3746L29.4233 26.1569L32.4145 31H36L31.2257 23.6863L35.6165 17H32.3186L29.5383 21.4706ZM17.0379 24.5296C16.3813 24.5296 15.8258 24.7125 15.3712 25.0784C14.9167 25.4443 14.6894 25.9739 14.6894 26.6671C14.6894 27.0138 14.7525 27.3283 14.8788 27.6107C15.0051 27.8932 15.1723 28.1339 15.3807 28.3329C15.589 28.5319 15.8384 28.6859 16.1288 28.795C16.4192 28.9042 16.7222 28.9587 17.0379 28.9587C17.3662 28.9587 17.666 28.9042 17.9375 28.795C18.209 28.6859 18.4489 28.5319 18.6572 28.3329C18.8655 28.1339 19.0265 27.8932 19.1402 27.6107C19.2538 27.3283 19.3106 27.0202 19.3106 26.6864C19.3106 26.3654 19.2506 26.0734 19.1307 25.8102C19.0107 25.547 18.8466 25.3191 18.6383 25.1265C18.4299 24.934 18.19 24.7863 17.9186 24.6836C17.6471 24.5809 17.3535 24.5296 17.0379 24.5296ZM16.2519 19.1857C16.4981 19.1022 16.7538 19.0605 17.0189 19.0605C17.4356 19.0605 17.7734 19.1247 18.0322 19.2531C18.291 19.3815 18.4931 19.542 18.6383 19.7345C18.7835 19.9271 18.8813 20.1293 18.9318 20.3411C18.9823 20.553 19.0076 20.7487 19.0076 20.9285C19.0076 21.5062 18.8182 21.9459 18.4394 22.2476C18.0606 22.5493 17.5871 22.7001 17.0189 22.7001C16.476 22.7001 16.0025 22.5493 15.5985 22.2476C15.1944 21.9459 14.9924 21.5062 14.9924 20.9285C14.9924 20.6204 15.0461 20.3508 15.1534 20.1197C15.2607 19.8886 15.4091 19.696 15.5985 19.542C15.7879 19.3879 16.0057 19.2691 16.2519 19.1857Z" class="svg-primary-fill" clip-rule="evenodd"/>
  </g>
</svg>
