<svg xmlns="http://www.w3.org/2000/svg" width="48" height="48" viewBox="0 0 48 48">
  <g class="neo-icon-kit--pool">
    <g fill="#006FCF" class="svg-primary-fill">
      <path fill-rule="evenodd" d="M23.76 3.79047C25.2803 2.93486 27.545 2.90953 28.7279 3.09 29.5454 3.2147 30.1071 3.97972 29.9826 4.7987 29.8582 5.61769 29.0946 6.18052 28.2772 6.05581 27.4639 5.93174 25.9518 5.99785 25.2264 6.40608 24.6331 6.73996 23.9942 7.42083 23.9942 9.14103V27.5C23.9942 28.3285 23.3239 29 22.497 29 21.6702 29 20.9999 28.3285 20.9999 27.5V9.14103C20.9999 6.47587 22.1076 4.72042 23.76 3.79047zM35.76 4.79047C37.2803 3.93486 39.545 3.90953 40.7279 4.09 41.5454 4.2147 42.1071 4.97972 41.9826 5.7987 41.8582 6.61769 41.0946 7.18052 40.2772 7.05581 39.4639 6.93174 37.9518 6.99786 37.2264 7.40609 36.6331 7.73997 35.9942 8.42084 35.9942 10.141V27.4998C35.9942 28.3283 35.3239 28.9998 34.497 28.9998 33.6702 28.9998 32.9999 28.3283 32.9999 27.4998V10.141C32.9999 7.47587 34.1076 5.72043 35.76 4.79047z" clip-rule="evenodd"/>
      <path d="M21.9999 9.99999H34.9999V13H21.9999V9.99999zM21.9999 19H34.9999V22H21.9999V19z"/>
      <path fill-rule="evenodd" d="M30.0242 30.3619L30.0253 30.361C30.705 29.7784 31.7464 29.9169 32.243 30.6618L32.2458 30.6656C32.2523 30.6748 32.266 30.6937 32.2868 30.7211 32.3286 30.7759 32.3984 30.8636 32.496 30.9734 32.6924 31.1943 32.9945 31.4972 33.3999 31.8012 34.2062 32.4059 35.3982 33.0012 36.9999 33.0012 38.6162 33.0012 39.9547 32.3953 40.9179 31.7532 41.3965 31.434 41.7678 31.1154 42.0152 30.881 42.1383 30.7644 42.2291 30.6702 42.2855 30.6095 42.3136 30.5791 42.3331 30.5573 42.3436 30.5454L42.3522 30.5354C42.8834 29.904 43.8256 29.8201 44.4602 30.3489 45.0966 30.8792 45.1826 31.8251 44.6522 32.4615L43.4999 31.5012C44.6522 32.4615 44.6515 32.4624 44.6515 32.4624L44.6488 32.4656 44.6444 32.4708 44.6328 32.4845C44.6238 32.4951 44.6122 32.5084 44.5982 32.5244 44.5701 32.5565 44.5319 32.5991 44.4839 32.6508 44.3879 32.7541 44.2522 32.8943 44.0784 33.0589 43.732 33.3871 43.2283 33.8184 42.582 34.2493 41.2952 35.1072 39.3836 36.0012 36.9999 36.0012 34.6017 36.0012 32.7937 35.0965 31.5999 34.2012 31.2935 33.9714 31.0261 33.7414 30.7974 33.5256 30.4469 33.7654 30.028 34.0342 29.5566 34.3036 28.1614 35.1009 26.1377 36.0012 23.9999 36.0012 21.8621 36.0012 19.8385 35.1009 18.4432 34.3036 17.9104 33.9992 17.4447 33.6954 17.0691 33.4334 16.7583 33.6829 16.3825 33.9656 15.957 34.2493 14.7573 35.0491 12.9508 36.0012 10.9999 36.0012 8.3937 36.0012 6.47217 35.1265 5.19739 34.2267 4.56503 33.7803 4.09511 33.3306 3.777 32.9836 3.6176 32.8097 3.49514 32.6603 3.40834 32.5481 3.36489 32.492 3.33025 32.445 3.30425 32.4087 3.29124 32.3905 3.28039 32.3751 3.27167 32.3624L3.26017 32.3456 3.25561 32.3389 3.25271 32.3346C3.25271 32.3346 3.25184 32.3333 4.49992 31.5012L3.25184 32.3333C2.79231 31.644 2.97857 30.7127 3.66787 30.2531 4.3535 29.7961 5.27859 29.9779 5.74065 30.6583L5.7427 30.6611C5.7482 30.6688 5.76092 30.6863 5.78095 30.7122 5.82109 30.764 5.89004 30.849 5.98846 30.9564 6.18597 31.1718 6.4973 31.4721 6.92744 31.7758 7.77766 32.3759 9.10613 33.0012 10.9999 33.0012 12.049 33.0012 13.2426 32.4533 14.2929 31.7531 14.7936 31.4193 15.2139 31.0833 15.5081 30.8311 15.6544 30.7057 15.7676 30.6027 15.8417 30.5336 15.8787 30.499 15.9058 30.473 15.9224 30.457L15.9402 30.4397 15.9413 30.4386C16.4944 29.8855 17.3803 29.8517 17.9742 30.3607L17.9752 30.3615 17.9761 30.3623 17.9772 30.3633 17.9977 30.3804C18.0177 30.397 18.0502 30.4236 18.0942 30.4588 18.1823 30.5293 18.3164 30.6339 18.4896 30.7612 18.8374 31.0167 19.3358 31.3584 19.9316 31.6989 21.1614 32.4016 22.6377 33.0012 23.9999 33.0012 25.3621 33.0012 26.8385 32.4016 28.0682 31.6989 28.664 31.3584 29.1624 31.0167 29.5102 30.7612 29.6835 30.6339 29.8175 30.5293 29.9056 30.4588 29.9497 30.4236 29.9821 30.397 30.0021 30.3804L30.0226 30.3633 30.0242 30.3619zM30.0242 38.3619L30.0253 38.361C30.705 37.7784 31.7464 37.9169 32.243 38.6618L32.2458 38.6656C32.2523 38.6748 32.266 38.6937 32.2868 38.7211 32.3286 38.7759 32.3984 38.8636 32.496 38.9734 32.6924 39.1943 32.9945 39.4972 33.3999 39.8012 34.2062 40.4059 35.3982 41.0012 36.9999 41.0012 38.6162 41.0012 39.9547 40.3953 40.9179 39.7532 41.3965 39.434 41.7678 39.1154 42.0152 38.881 42.1383 38.7644 42.2291 38.6702 42.2855 38.6095 42.3136 38.5791 42.3331 38.5573 42.3436 38.5454L42.3522 38.5354C42.8834 37.904 43.8256 37.8201 44.4602 38.3489 45.0966 38.8792 45.1826 39.8251 44.6522 40.4615L43.4999 39.5012C44.6522 40.4615 44.6515 40.4624 44.6515 40.4624L44.6488 40.4656 44.6444 40.4708 44.6328 40.4845C44.6238 40.4951 44.6122 40.5084 44.5982 40.5244 44.5701 40.5565 44.5319 40.5991 44.4839 40.6508 44.3879 40.7541 44.2522 40.8943 44.0784 41.0589 43.732 41.3871 43.2283 41.8184 42.582 42.2493 41.2952 43.1072 39.3836 44.0012 36.9999 44.0012 34.6017 44.0012 32.7937 43.0965 31.5999 42.2012 31.2935 41.9714 31.0261 41.7414 30.7974 41.5256 30.4469 41.7654 30.028 42.0342 29.5566 42.3036 28.1614 43.1009 26.1377 44.0012 23.9999 44.0012 21.8621 44.0012 19.8385 43.1009 18.4432 42.3036 17.9104 41.9992 17.4447 41.6954 17.0691 41.4334 16.7583 41.6829 16.3825 41.9656 15.957 42.2493 14.7573 43.0491 12.9508 44.0012 10.9999 44.0012 8.3937 44.0012 6.47217 43.1265 5.19739 42.2267 4.56503 41.7803 4.09511 41.3306 3.777 40.9836 3.6176 40.8097 3.49514 40.6603 3.40834 40.5481 3.36489 40.492 3.33025 40.445 3.30425 40.4087 3.29124 40.3906 3.28039 40.3751 3.27167 40.3624L3.26017 40.3456 3.25561 40.3389 3.25271 40.3346C3.25271 40.3346 3.25184 40.3333 4.49992 39.5012L3.25184 40.3333C2.79231 39.644 2.97857 38.7127 3.66787 38.2531 4.3535 37.7961 5.27859 37.9779 5.74065 38.6583L5.7427 38.6611C5.7482 38.6688 5.76092 38.6863 5.78095 38.7122 5.82109 38.764 5.89004 38.849 5.98846 38.9564 6.18597 39.1718 6.4973 39.4721 6.92744 39.7758 7.77766 40.3759 9.10613 41.0012 10.9999 41.0012 12.049 41.0012 13.2426 40.4533 14.2929 39.7532 14.7936 39.4193 15.2139 39.0833 15.5081 38.8311 15.6544 38.7057 15.7676 38.6027 15.8417 38.5336 15.8787 38.499 15.9058 38.473 15.9224 38.457L15.9402 38.4397 15.9413 38.4386C16.4944 37.8855 17.3803 37.8517 17.9742 38.3607L17.9752 38.3615 17.9761 38.3623 17.9772 38.3633 17.9977 38.3804C18.0177 38.397 18.0502 38.4236 18.0942 38.4588 18.1823 38.5293 18.3164 38.6339 18.4896 38.7612 18.8374 39.0167 19.3358 39.3584 19.9316 39.6989 21.1614 40.4016 22.6377 41.0012 23.9999 41.0012 25.3621 41.0012 26.8385 40.4016 28.0682 39.6989 28.664 39.3584 29.1624 39.0167 29.5102 38.7612 29.6835 38.6339 29.8175 38.5293 29.9056 38.4588 29.9497 38.4236 29.9821 38.397 30.0021 38.3804L30.0226 38.3633 30.0242 38.3619z" clip-rule="evenodd"/>
    </g>
  </g>
</svg>
