<svg xmlns="http://www.w3.org/2000/svg" width="48" height="48" viewBox="0 0 48 48">
  <g class="neo-icon-kit--pound-no-fee">
    <path fill="#006FCF" d="M6.278 11.732C6.61985 11.9355 6.86689 12.2664 6.96479 12.6519C7.06268 13.0375 7.0034 13.4462 6.8 13.788C4.96121 16.8765 3.99359 20.4056 4 24C4 35.046 12.954 44 24 44C27.643 44 31.139 43.026 34.2 41.207C34.5417 41.0104 34.947 40.9562 35.3284 41.0562C35.7097 41.1561 36.0364 41.4022 36.2377 41.7411C36.4391 42.08 36.4989 42.4846 36.4042 42.8673C36.3096 43.25 36.0681 43.58 35.732 43.786C32.1828 45.896 28.129 47.0065 24 47C11.297 47 1 36.703 1 24C1 19.809 2.124 15.779 4.222 12.254C4.42543 11.9122 4.75633 11.6651 5.1419 11.5672C5.52747 11.4693 5.93613 11.5286 6.278 11.732ZM24 1.00002C36.703 1.00002 47 11.297 47 24C47.0079 29.341 45.1495 34.5169 41.746 38.633L44.651 41.537C44.9214 41.8076 45.0782 42.1713 45.0893 42.5536C45.1004 42.936 44.9651 43.3082 44.7109 43.594C44.4567 43.8799 44.1029 44.0578 43.7219 44.0915C43.3408 44.1251 42.9613 44.0119 42.661 43.775L42.557 43.659L5.081 6.18302C5.03908 6.14105 4.99466 6.10165 4.948 6.06502C4.70822 5.76623 4.59185 5.38701 4.62277 5.00516C4.65369 4.6233 4.82954 4.26774 5.11427 4.01141C5.39899 3.75508 5.771 3.61741 6.154 3.62664C6.537 3.63586 6.90195 3.79128 7.174 4.06102L9.368 6.25402C13.4839 2.85076 18.6594 0.992361 24 1.00002ZM24 4.00002C19.4551 3.99229 15.0445 5.54003 11.501 8.38602L18.423 15.308C19.609 12.79 22.211 11.453 24.857 11.143C26.209 11.005 28.616 11.192 30.191 12.455C31.853 13.708 32.873 15.603 33.106 17.935C33.193 18.664 32.61 19.392 31.794 19.48C30.978 19.568 30.337 18.984 30.249 18.168C30.104 16.623 29.521 15.457 28.5 14.729C27.626 14.058 26.459 13.911 25.148 13.912C23.222 14.115 21.031 14.958 20.646 17.531L24.13 21.015L27.533 21.016C27.9016 21.0174 28.2566 21.1554 28.5294 21.4032C28.8021 21.6511 28.9734 21.9913 29.01 22.358L29.017 22.521C29.0156 22.8896 28.8777 23.2446 28.6298 23.5174C28.3819 23.7902 28.0418 23.9614 27.675 23.998L27.533 24.005L27.119 24.004L39.614 36.5C42.4599 32.9561 44.0076 28.5452 44 24C44 12.954 35.046 4.00002 24 4.00002ZM15.79 21.135L20.984 26.329C21.179 26.524 21.292 26.786 21.299 27.062L21.301 27.292C21.301 27.92 21.228 28.521 21.117 29.118C21.7753 28.9702 22.4539 28.935 23.124 29.014L23.083 29.01C23.53 29.095 23.952 29.295 24.273 29.615L28.227 33.571C28.2969 33.6424 28.3405 33.7354 28.3506 33.8347C28.3606 33.9341 28.3365 34.034 28.2823 34.1179C28.2281 34.2018 28.1469 34.2647 28.0522 34.2964C27.9575 34.328 27.8548 34.3265 27.761 34.292L27.327 34.12L26.906 33.939L26.702 33.846L26.308 33.658L25.935 33.47L25.586 33.285L25.263 33.107L24.835 32.859L24.483 32.645L24.217 32.476C22.301 31.448 20.803 32.224 19.881 33.061L19.686 33.247L19.51 33.431L19.429 33.521L19.217 33.775L19.051 33.996L18.904 34.213L18.863 34.279C18.7287 34.4992 18.5401 34.6812 18.3153 34.8074C18.0904 34.9337 17.8369 35 17.579 35L17.496 34.994L17.329 34.966L17.227 34.952L17.171 34.936L17.115 34.917C17.0423 34.8954 16.9714 34.8679 16.903 34.835L16.801 34.781C16.5737 34.6514 16.3845 34.4642 16.2525 34.2383C16.1205 34.0124 16.0503 33.7557 16.049 33.494C16.049 33.106 16.203 32.758 16.448 32.492C16.596 32.269 16.767 32.037 16.963 31.801C17.91 30.22 18.49 29.001 18.387 27.564L18.314 26.853L18.275 26.33L18.169 24.572L18.127 24.004H15.5C15.1314 24.0026 14.7764 23.8647 14.5036 23.6168C14.2309 23.369 14.0596 23.0288 14.023 22.662L14.016 22.5C14.0171 22.1313 14.155 21.776 14.4029 21.503C14.6508 21.23 14.9911 21.0586 15.358 21.022L15.5 21.015C15.554 21.0149 15.6075 21.0254 15.6575 21.046C15.7074 21.0666 15.7528 21.0968 15.791 21.135H15.79Z" class="svg-primary-fill"/>
  </g>
</svg>
