<svg xmlns="http://www.w3.org/2000/svg" width="48" height="48" viewBox="0 0 48 48">
  <g class="neo-icon-kit--pound-autopay-filled">
    <path fill="#006FCF" fill-rule="evenodd" d="M24.4288 1.00411L24 1L23.6197 1.00308C11.0925 1.20619 1 11.4245 1 24V25L1.00549 25.1493C1.08183 26.1841 1.94564 27 3 27C4.10457 27 5 26.1046 5 25V24L5.00301 23.6585C5.1832 13.435 13.4382 5.18119 23.6622 5.00294L24 5L24.4185 5.00477C29.434 5.11906 34.1914 7.28371 37.5742 11.0048L38.479 12H37L36.8507 12.0055C35.8159 12.0818 35 12.9456 35 14C35 15.1046 35.8954 16 37 16H43L43.1528 15.9942L43.3022 15.9772L43.4587 15.9471L43.6079 15.9059L43.7629 15.8494L43.9157 15.7786L44.0597 15.6966L44.2117 15.5913L44.3376 15.4869L44.405 15.4234L44.5155 15.3052L44.5928 15.2098C44.6508 15.1335 44.7034 15.053 44.7501 14.9687L44.8271 14.8147L44.8853 14.6686L44.9145 14.5803L44.9559 14.4195L44.9819 14.2705L44.9945 14.1493L45 14V8L44.9945 7.85074C44.9182 6.81588 44.0544 6 43 6L42.8507 6.00549C41.8159 6.08183 41 6.94564 41 8V8.828L40.5339 8.31412L40.2355 7.9922C36.1176 3.63735 30.4214 1.11895 24.4288 1.00411ZM28.8348 13.3668C30.4195 14.5978 31.4031 16.447 31.5383 18.4491C31.5908 19.1785 31.0497 19.8156 30.3215 19.882C29.9682 19.9198 29.6148 19.811 29.344 19.581C29.0731 19.351 28.9085 19.02 28.8886 18.6652C28.8529 17.4128 28.2576 16.2423 27.2665 15.4758C26.3418 14.8882 25.2491 14.6219 24.1577 14.7181L23.8395 14.7578C21.8663 15.0438 19.7357 16.1063 19.9408 19.2606C19.9755 19.5722 20.0054 19.8881 20.0346 20.1963C20.0715 20.5871 20.1073 20.9654 20.1503 21.3065H26.3688C27.0836 21.3089 27.6703 21.8541 27.7385 22.5513L27.7451 22.7023C27.7427 23.4615 27.1279 24.0763 26.3688 24.0786H20.4545L20.5335 25.4398C20.565 26.0541 20.5899 26.6782 20.5899 27.128C20.5856 27.6966 20.5284 28.2635 20.4193 28.8215C21.7844 28.533 23.2045 28.7343 24.4323 29.3847L24.7223 29.5476L24.768 29.5765C26.876 30.9537 29.5007 31.8375 30.0618 31.3608C30.4402 31.0353 30.964 30.9375 31.4344 31.1045C31.9048 31.2716 32.2496 31.6779 32.338 32.1691C32.4263 32.6604 32.2446 33.1614 31.8619 33.4818C29.3273 35.6353 24.3915 32.6481 23.2934 31.9367C20.3979 30.3824 18.531 33.2732 18.327 33.608C18.0738 34.0232 17.6225 34.2767 17.1362 34.2767C17.0582 34.2725 16.9806 34.262 16.9043 34.2452L16.8097 34.2322L16.7058 34.1997C16.6385 34.1796 16.5729 34.1542 16.5096 34.1238L16.4137 34.0736C15.9851 33.8285 15.7197 33.3736 15.7172 32.88C15.7186 32.5345 15.8508 32.2025 16.0872 31.9507C16.2349 31.7287 16.3943 31.5147 16.5648 31.3098C17.4429 29.8434 17.9809 28.7129 17.885 27.3804L17.8595 27.128C17.8052 26.7091 17.7687 26.0693 17.7317 25.4209C17.7048 24.951 17.6777 24.4765 17.6434 24.0786H15.2099C14.4954 24.0764 13.9088 23.5316 13.8402 22.8347L13.8336 22.6838C13.8355 21.9243 14.4504 21.309 15.2099 21.3065H17.4487C17.4291 21.0901 17.4168 20.8499 17.4039 20.5973C17.3851 20.2298 17.365 19.8356 17.3189 19.4498C17.048 14.8544 20.4276 12.5562 23.8879 12.15C25.6293 11.9506 27.3845 12.3824 28.8348 13.3668ZM45 21C46.0544 21 46.9182 21.8159 46.9945 22.8507L47 23V24C47 36.5755 36.9075 46.7938 24.3803 46.9969L24 47L23.5674 46.996C17.2464 46.8778 11.2627 44.1743 6.99982 39.5411L7 40C7 41.1046 6.10457 42 5 42C3.94564 42 3.08183 41.1841 3.00549 40.1493L3 40L3.00049 33.9542L3.0106 33.7942L3.02097 33.7095L3.04508 33.576L3.08475 33.4223L3.13347 33.2802L3.19225 33.1433L3.2929 32.957L3.32221 32.911C3.40339 32.7862 3.49811 32.671 3.60429 32.5675L3.67333 32.5033L3.75022 32.4386L3.8833 32.3406L4.015 32.259C4.10113 32.2102 4.19122 32.1675 4.28468 32.1317L4.47418 32.0698L4.61218 32.0376L4.76185 32.014L4.91777 32.0016L11 32C12.1046 32 13 32.8954 13 34C13 35.0544 12.1841 35.9182 11.1493 35.9945L11 36L9.22131 36.001C12.8494 40.431 18.2736 43 24 43C34.3806 43 42.8168 34.6754 42.9971 24.3378L43 24V23C43 21.8954 43.8954 21 45 21Z" class="svg-primary-fill" clip-rule="evenodd"/>
  </g>
</svg>
