<svg xmlns="http://www.w3.org/2000/svg" width="48" height="48" viewBox="0 0 48 48">
  <g class="neo-icon-kit--pound-regular">
    <path fill="#006FCF" fill-rule="evenodd" d="M24 1C36.7025 1 47 11.2975 47 24C47 36.7025 36.7025 47 24 47C11.2975 47 1 36.7025 1 24C1 11.2975 11.2975 1 24 1ZM24 4C12.9543 4 4 12.9543 4 24C4 35.0457 12.9543 44 24 44C35.0457 44 44 35.0457 44 24C44 12.9543 35.0457 4 24 4ZM30.1906 12.4545C28.6156 11.1915 26.2086 11.0045 24.8566 11.1425C21.1256 11.5805 17.4816 14.0585 17.7736 19.0135C17.8234 19.4296 17.8451 19.8544 17.8653 20.2507C17.8792 20.5231 17.8924 20.7821 17.9136 21.0155H15.4996L15.3572 21.0223C14.6073 21.0946 14.0156 21.7316 14.0156 22.5005L14.0224 22.6629C14.0947 23.4128 14.7316 24.0045 15.4996 24.0045H18.1236L18.1466 24.2936C18.1732 24.6547 18.1961 25.0548 18.2187 25.4519C18.2586 26.151 18.298 26.8409 18.3566 27.2925L18.3841 27.5646C18.4875 29.0014 17.9074 30.2203 16.9606 31.8015C16.7646 32.0375 16.5936 32.2695 16.4456 32.4925C16.2006 32.7585 16.0466 33.1065 16.0466 33.4945C16.0466 34.0445 16.3516 34.5225 16.7986 34.7815L16.9006 34.8355C16.9686 34.8682 17.0393 34.8955 17.1126 34.9175L17.1682 34.9361L17.2246 34.9525L17.3266 34.9665C17.3464 34.9698 17.3662 34.9734 17.386 34.9771C17.4498 34.9888 17.5132 35.0005 17.5766 35.0005C18.0826 35.0005 18.5766 34.7435 18.8606 34.2795C19.0806 33.9185 21.0936 30.8015 24.2156 32.4775C25.3996 33.2445 30.7216 36.4655 33.4546 34.1435C34.0866 33.6075 34.1636 32.6615 33.6276 32.0295C33.0916 31.3985 32.1466 31.3205 31.5136 31.8565C30.9086 32.3705 28.0786 31.4175 25.8056 29.9325L25.7056 29.8725C24.0206 28.9485 22.4696 28.8165 21.1166 29.1185C21.2276 28.5215 21.3006 27.9205 21.3006 27.2925C21.3006 26.7105 21.2619 25.8578 21.2187 25.0776L21.1546 24.0045H27.5316L27.674 23.9977C28.4239 23.9254 29.0156 23.2885 29.0156 22.5205L29.0088 22.358C28.9365 21.6072 28.2996 21.0155 27.5316 21.0155H20.8266L20.7794 20.6066C20.7524 20.3541 20.7274 20.089 20.7017 19.8184C20.6703 19.4862 20.6381 19.1455 20.6006 18.8095C20.3676 15.2245 22.9326 14.1455 25.1476 13.9115C26.4586 13.9105 27.6256 14.0575 28.4996 14.7285C29.5206 15.4565 30.1036 16.6225 30.2486 18.1675C30.3366 18.9835 30.9776 19.5665 31.7936 19.4795C32.6096 19.3915 33.1926 18.6635 33.1056 17.9345C32.8726 15.6025 31.8526 13.7075 30.1906 12.4545Z" class="svg-primary-fill" clip-rule="evenodd"/>
  </g>
</svg>
