<svg xmlns="http://www.w3.org/2000/svg" width="48" height="48" viewBox="0 0 48 48">
  <g class="neo-icon-kit--pound-no-fee-filled">
    <path fill="#006FCF" d="M5.702 11.535L5.87 11.566C5.99743 11.5974 6.12016 11.6455 6.235 11.709L6.359 11.784L6.45 11.851L6.498 11.891L6.571 11.961L15.619 21.014L15.501 21.015L15.359 21.022C15.0164 21.0562 14.6962 21.2079 14.4528 21.4515C14.2094 21.695 14.0579 22.0154 14.024 22.358L14.017 22.501L14.024 22.663C14.0581 23.0055 14.2097 23.3256 14.4531 23.5689C14.6964 23.8123 15.0165 23.9639 15.359 23.998L15.501 24.005H18.125L18.169 24.604L18.266 26.237L18.309 26.826L18.333 27.085L18.357 27.292L18.384 27.564C18.487 29.001 17.907 30.22 16.96 31.801C16.7761 32.022 16.6042 32.2527 16.445 32.492C16.19 32.7635 16.0474 33.1216 16.046 33.494C16.046 33.994 16.298 34.434 16.68 34.705L16.798 34.781L16.9 34.835L17.004 34.88L17.168 34.936L17.224 34.952L17.326 34.966L17.493 34.994C17.521 34.997 17.548 35 17.576 35C18.031 35 18.477 34.792 18.769 34.412L19.049 33.997L19.215 33.776L19.427 33.522L19.508 33.432L19.684 33.248L19.879 33.062C20.802 32.225 22.3 31.449 24.215 32.477L24.567 32.699L25.052 32.988L25.44 33.207L25.873 33.439C26.855 33.95 28.112 34.503 29.379 34.784L36.064 41.473L36.188 41.626L36.233 41.698L36.322 41.871L36.383 42.005L36.385 42.023C36.4783 42.2895 36.4944 42.5769 36.4316 42.8522C36.3688 43.1274 36.2296 43.3794 36.03 43.579C35.8788 43.7307 35.6966 43.848 35.496 43.923L35.732 43.785C32.1831 45.8957 28.1291 47.0066 24 47C11.297 47 1 36.703 1 24C1 19.809 2.124 15.779 4.222 12.254C4.37168 12.0027 4.59169 11.8006 4.85487 11.6728C5.11806 11.5451 5.4119 11.4972 5.702 11.535ZM24 1.00003C36.703 1.00003 47 11.297 47 24C47.0078 29.3344 45.1539 34.5042 41.758 38.618L44.678 41.538C44.9592 41.8193 45.1172 42.2008 45.1172 42.5985C45.1172 42.9963 44.9592 43.3777 44.678 43.659C44.5361 43.8013 44.367 43.9135 44.1807 43.9889C43.9945 44.0644 43.7949 44.1015 43.594 44.098C43.3962 44.0985 43.2003 44.0599 43.0176 43.9844C42.8348 43.9089 42.6687 43.798 42.529 43.658L33.205 34.335L33.221 34.323L30.895 31.996L30.867 31.995L22.875 24.004H22.902L17.767 18.869L17.768 18.897L5.053 6.18203C4.77179 5.90073 4.61382 5.51927 4.61382 5.12153C4.61382 4.72378 4.77179 4.34232 5.053 4.06103C5.19509 3.91873 5.3644 3.80652 5.55082 3.73109C5.73723 3.65567 5.93693 3.61857 6.138 3.62203C6.33559 3.62167 6.5313 3.66036 6.7139 3.73587C6.89649 3.81138 7.06237 3.92222 7.202 4.06203L9.382 6.24303L9.741 5.95303C13.7977 2.73817 18.8239 0.992303 24 1.00003ZM21.291 26.693L23.711 29.112C22.8562 28.9249 21.9708 28.9273 21.117 29.119C21.2347 28.5174 21.2963 27.9061 21.301 27.293L21.296 26.906L21.291 26.693ZM27.144 24.004L27.532 24.005L27.674 23.998C28.0165 23.9639 28.3366 23.8123 28.5799 23.5689C28.8233 23.3256 28.9749 23.0055 29.009 22.663L29.016 22.521L29.009 22.358C28.9751 22.0154 28.8236 21.695 28.5802 21.4515C28.3368 21.2079 28.0166 21.0562 27.674 21.022L27.532 21.015L24.155 21.014L27.144 24.004ZM24.857 11.142C22.217 11.452 19.621 12.783 18.431 15.291L20.649 17.509C21.044 14.953 23.227 14.115 25.148 13.912C26.459 13.911 27.626 14.058 28.5 14.729C29.521 15.457 30.104 16.623 30.249 18.168C30.337 18.984 30.978 19.567 31.794 19.48C32.61 19.393 33.193 18.664 33.106 17.935C32.873 15.603 31.853 13.708 30.191 12.455C28.616 11.192 26.209 11.004 24.857 11.142Z" class="svg-primary-fill"/>
  </g>
</svg>
