<svg xmlns="http://www.w3.org/2000/svg" width="48" height="48" viewBox="0 0 48 48">
  <g class="neo-icon-kit--pound-autopay">
    <path fill="#006FCF" fill-rule="evenodd" d="M24.4289 1.5042L24 1.5L23.6279 1.50301C11.3731 1.70171 1.5 11.6979 1.5 24V25L1.50687 25.1445C1.57955 25.9051 2.2203 26.5 3 26.5C3.82843 26.5 4.5 25.8284 4.5 25V24L4.50296 23.657C4.68402 13.1598 13.1598 4.68402 23.657 4.50296L24 4.5L24.4186 4.50464C29.5749 4.61905 34.4666 6.84316 37.9441 10.6685L39.609 12.5H37L36.8555 12.5069C36.0949 12.5796 35.5 13.2203 35.5 14C35.5 14.8284 36.1716 15.5 37 15.5H43L43.0726 15.4983L43.2179 15.4843L43.3273 15.4641L43.4748 15.4233L43.596 15.3769L43.7233 15.3145L43.8452 15.2394L43.9574 15.1548L44.009 15.1099L44.1014 15.0184L44.184 14.9211L44.2822 14.7792L44.3536 14.6472L44.4102 14.5122L44.4661 14.3185L44.4841 14.2183L44.4983 14.071L44.5 8L44.4931 7.85554C44.4204 7.09489 43.7797 6.5 43 6.5L42.8555 6.50687C42.0949 6.57955 41.5 7.2203 41.5 8V10.12L40.164 8.65045L39.8652 8.32831C35.8422 4.07784 30.2805 1.61895 24.4289 1.5042ZM28.8348 13.3668C30.4195 14.5978 31.4031 16.447 31.5383 18.4491C31.5908 19.1785 31.0497 19.8156 30.3215 19.882C29.9682 19.9198 29.6148 19.811 29.344 19.581C29.0731 19.351 28.9085 19.02 28.8886 18.6652C28.8529 17.4128 28.2576 16.2423 27.2665 15.4758C26.3418 14.8882 25.2491 14.6219 24.1577 14.7181L23.8395 14.7578C21.8663 15.0438 19.7357 16.1063 19.9408 19.2606C19.9755 19.5722 20.0054 19.8881 20.0346 20.1963C20.0715 20.5871 20.1073 20.9654 20.1503 21.3065H26.3688C27.0836 21.3089 27.6703 21.8541 27.7385 22.5513L27.7451 22.7023C27.7427 23.4615 27.1279 24.0763 26.3688 24.0786H20.4545L20.5335 25.4398C20.565 26.0541 20.5899 26.6782 20.5899 27.128C20.5856 27.6966 20.5284 28.2635 20.4193 28.8215C21.7844 28.533 23.2045 28.7343 24.4323 29.3847L24.7223 29.5476L24.768 29.5765C26.876 30.9537 29.5007 31.8375 30.0618 31.3608C30.4402 31.0353 30.964 30.9375 31.4344 31.1045C31.9048 31.2716 32.2496 31.6779 32.338 32.1691C32.4263 32.6604 32.2446 33.1614 31.8619 33.4818C29.3273 35.6353 24.3915 32.6481 23.2934 31.9367C20.3979 30.3824 18.531 33.2732 18.327 33.608C18.0738 34.0232 17.6225 34.2767 17.1362 34.2767C17.0582 34.2725 16.9806 34.262 16.9043 34.2452L16.8097 34.2322L16.7058 34.1997C16.6385 34.1796 16.5729 34.1542 16.5096 34.1238L16.4137 34.0736C15.9851 33.8285 15.7197 33.3736 15.7172 32.88C15.7186 32.5345 15.8508 32.2025 16.0872 31.9507C16.2349 31.7287 16.3943 31.5147 16.5648 31.3098C17.4429 29.8434 17.9809 28.7129 17.885 27.3804L17.8595 27.128C17.8052 26.7091 17.7687 26.0693 17.7317 25.4209C17.7048 24.951 17.6777 24.4765 17.6434 24.0786H15.2099C14.4954 24.0764 13.9088 23.5316 13.8402 22.8347L13.8336 22.6838C13.8355 21.9243 14.4504 21.309 15.2099 21.3065H17.4487C17.4291 21.09 17.4168 20.8498 17.4039 20.5972C17.3851 20.2296 17.365 19.8356 17.3189 19.4498C17.048 14.8544 20.4276 12.5562 23.8879 12.15C25.6293 11.9506 27.3845 12.3824 28.8348 13.3668ZM45 21.5C45.7797 21.5 46.4204 22.0949 46.4931 22.8555L46.5 23V24C46.5 36.3021 36.6269 46.2983 24.3721 46.497L24 46.5L23.5678 46.4959C17.0924 46.3723 10.9797 43.4756 6.78357 38.5422L6.5 38.203V40C6.5 40.7797 5.90511 41.4204 5.14446 41.4931L5 41.5C4.2203 41.5 3.57955 40.9051 3.50687 40.1445L3.5 40V34C3.5 33.7535 3.55948 33.5208 3.66488 33.3156L3.73288 33.1969L3.79995 33.0999L3.88774 32.9935L3.98156 32.8987L4.06289 32.8288L4.16484 32.7539L4.28343 32.6819L4.31126 32.6671C4.3949 32.6238 4.48301 32.5882 4.57475 32.5611L4.7631 32.5186L4.89544 32.5035L4.95947 32.5005L11 32.5C11.8284 32.5 12.5 33.1716 12.5 34C12.5 34.7797 11.9051 35.4204 11.1445 35.4931L11 35.5H8.165L8.82856 36.3106C12.465 40.7552 17.8626 43.3762 23.5903 43.4957L24 43.5C34.655 43.5 43.314 34.9543 43.497 24.343L43.5 24V23C43.5 22.1716 44.1716 21.5 45 21.5Z" class="svg-primary-fill" clip-rule="evenodd"/>
  </g>
</svg>
