<svg xmlns="http://www.w3.org/2000/svg" width="48" height="48" viewBox="0 0 48 48">
  <g class="neo-icon-kit--pound-regular-filled">
    <path fill="#006FCF" fill-rule="evenodd" d="M47 24C47 11.2975 36.7025 1 24 1C11.2975 1 1 11.2975 1 24C1 36.7025 11.2975 47 24 47C36.7025 47 47 36.7025 47 24ZM24.8561 11.1425C26.2091 11.0045 28.6151 11.1915 30.1911 12.4545C31.8521 13.7075 32.8721 15.6025 33.1061 17.9345C33.1931 18.6625 32.6101 19.3915 31.7941 19.4795C30.9781 19.5665 30.3361 18.9835 30.2491 18.1675C30.1031 16.6225 29.5201 15.4565 28.5001 14.7275C27.6261 14.0575 26.4591 13.9105 25.1481 13.9115C22.9331 14.1445 20.3681 15.2245 20.6011 18.8095C20.6386 19.1455 20.6708 19.4862 20.7023 19.8185C20.7421 20.2398 20.7807 20.6476 20.8271 21.0155H27.5311L27.6736 21.0223C28.4244 21.0946 29.0161 21.7315 29.0161 22.4995L29.0093 22.6629C28.937 23.4128 28.3 24.0045 27.5311 24.0045H21.1551L21.2394 25.4722C21.2732 26.1345 21.3001 26.8075 21.3001 27.2925C21.3001 27.9205 21.2271 28.5215 21.1171 29.1185C22.4691 28.8165 24.0211 28.9485 25.7061 29.8725C25.7391 29.8905 25.7731 29.9115 25.8061 29.9325L26.0277 30.0744C28.2593 31.4765 30.9276 32.3539 31.5141 31.8565C32.1461 31.3205 33.0921 31.3985 33.6281 32.0295C34.1641 32.6615 34.0871 33.6075 33.4551 34.1435C30.9954 36.2333 26.4378 33.8333 24.6885 32.7732L24.2161 32.4775C21.4489 30.992 19.5529 33.2712 19.0039 34.0605L18.8601 34.2795C18.5771 34.7435 18.0831 34.9995 17.5771 34.9995C17.511 34.9995 17.4443 34.9875 17.378 34.9755C17.361 34.9724 17.344 34.9694 17.3271 34.9665L17.2251 34.9525C17.1987 34.9462 17.1727 34.9376 17.1466 34.9288C17.1351 34.925 17.1237 34.9212 17.1121 34.9175L17.0048 34.8805C16.9343 34.8532 16.8661 34.8205 16.8001 34.7825L16.6793 34.7053C16.2992 34.4342 16.0471 33.9944 16.0471 33.4935C16.0471 33.1065 16.2011 32.7585 16.4451 32.4925C16.5941 32.2685 16.7641 32.0375 16.9601 31.8015C17.9671 30.1215 18.5591 28.8505 18.3561 27.2925C18.2972 26.8384 18.2577 26.1431 18.2178 25.44C18.2017 25.1562 18.1855 24.8712 18.1679 24.6003L18.1241 24.0045H15.5001L15.3577 23.9977C14.6078 23.9254 14.0161 23.2885 14.0161 22.5205L14.0229 22.3571C14.0952 21.6072 14.7321 21.0155 15.5001 21.0155H17.9141L17.8915 20.7166C17.8821 20.5694 17.8742 20.4152 17.866 20.2565C17.8456 19.8585 17.8237 19.4317 17.7731 19.0135C17.4821 14.0585 21.1261 11.5795 24.8561 11.1425Z" class="svg-primary-fill" clip-rule="evenodd"/>
  </g>
</svg>
