<svg xmlns="http://www.w3.org/2000/svg" width="48" height="48" viewBox="0 0 48 48">
  <g class="neo-icon-kit--pound-cashback-filled">
    <path fill="#006FCF" fill-rule="evenodd" d="M40.2425 7.99961C36.026 3.53642 30.1525 1 24 1C11.2975 1 1 11.2975 1 24C1 36.7025 11.2975 47 24 47C36.7025 47 47 36.7025 47 24V23L46.9945 22.8507C46.9182 21.8159 46.0544 21 45 21C43.8954 21 43 21.8954 43 23V24L42.9971 24.3378C42.8168 34.6754 34.3806 43 24 43C13.5066 43 5 34.4934 5 24C5 13.5066 13.5066 5 24 5L24.4185 5.00477C29.434 5.11906 34.1914 7.28371 37.5742 11.0048L38.479 12H37L36.8507 12.0055C35.8159 12.0818 35 12.9456 35 14C35 15.1046 35.8954 16 37 16H43L43.1528 15.9942L43.3022 15.9772L43.4587 15.9471L43.6079 15.9059L43.7629 15.8494L43.9157 15.7786L44.0597 15.6966L44.2117 15.5913L44.3376 15.4869L44.405 15.4234L44.5155 15.3052L44.5928 15.2098C44.6508 15.1335 44.7034 15.053 44.7501 14.9687L44.8271 14.8147L44.8853 14.6686L44.9145 14.5803L44.9559 14.4195L44.9819 14.2705L44.9945 14.1493L45 14V8L44.9945 7.85074C44.9182 6.81588 44.0544 6 43 6L42.8507 6.00549C41.8159 6.08183 41 6.94564 41 8V8.828L40.5339 8.31412L40.2425 7.99961ZM31.5383 18.4491C31.4031 16.447 30.4195 14.5978 28.8348 13.3668C27.3845 12.3824 25.6293 11.9506 23.8879 12.15C20.4276 12.5562 17.048 14.8544 17.3189 19.4498C17.365 19.8356 17.3851 20.2296 17.4039 20.5972C17.4168 20.8498 17.4291 21.09 17.4487 21.3065H15.2099C14.4504 21.309 13.8355 21.9243 13.8336 22.6838L13.8402 22.8347C13.9088 23.5316 14.4954 24.0764 15.2099 24.0786H17.6434C17.6777 24.4765 17.7048 24.951 17.7317 25.4209C17.7687 26.0693 17.8052 26.7091 17.8595 27.128L17.885 27.3804C17.9809 28.7129 17.4429 29.8434 16.5648 31.3098C16.3943 31.5147 16.2349 31.7287 16.0872 31.9507C15.8508 32.2025 15.7186 32.5345 15.7172 32.88C15.7197 33.3736 15.9851 33.8285 16.4137 34.0736L16.5096 34.1238C16.5729 34.1542 16.6385 34.1796 16.7058 34.1997L16.8097 34.2322L16.9043 34.2452C16.9806 34.262 17.0582 34.2725 17.1362 34.2767C17.6225 34.2767 18.0738 34.0232 18.327 33.608C18.531 33.2732 20.3979 30.3824 23.2934 31.9367C24.3915 32.6481 29.3273 35.6353 31.8619 33.4818C32.2446 33.1614 32.4263 32.6604 32.338 32.1691C32.2496 31.6779 31.9048 31.2716 31.4344 31.1045C30.964 30.9375 30.4402 31.0353 30.0618 31.3608C29.5007 31.8375 26.876 30.9537 24.768 29.5765L24.7223 29.5476L24.4323 29.3847C23.2045 28.7343 21.7844 28.533 20.4193 28.8215C20.5284 28.2635 20.5856 27.6966 20.5899 27.128C20.5899 26.6782 20.565 26.0541 20.5335 25.4398L20.4545 24.0786H26.3688C27.1279 24.0763 27.7427 23.4615 27.7451 22.7023L27.7385 22.5513C27.6703 21.8541 27.0836 21.3089 26.3688 21.3065H20.1503C20.1073 20.9654 20.0715 20.5871 20.0346 20.1963C20.0054 19.8881 19.9755 19.5722 19.9408 19.2606C19.7357 16.1063 21.8663 15.0438 23.8395 14.7578L24.1577 14.7181C25.2491 14.6219 26.3418 14.8882 27.2665 15.4758C28.2576 16.2423 28.8529 17.4128 28.8886 18.6652C28.9085 19.02 29.0731 19.351 29.344 19.581C29.6148 19.811 29.9682 19.9198 30.3215 19.882C31.0497 19.8156 31.5908 19.1785 31.5383 18.4491Z" class="svg-primary-fill" clip-rule="evenodd"/>
  </g>
</svg>
