<svg xmlns="http://www.w3.org/2000/svg" width="48" height="48" viewBox="0 0 48 48">
  <g class="neo-icon-kit--power-outlet-filled">
    <path fill="#006FCF" fill-rule="evenodd" d="M30 11C30 9.34315 31.3431 8 33 8H36C37.6569 8 39 9.34315 39 11V14L43.5 14C44.3284 14 45 14.6716 45 15.5C45 16.3284 44.3284 17 43.5 17H39V29H43.5C44.3284 29 45 29.6716 45 30.5C45 31.3284 44.3284 32 43.5 32H39V35C39 36.6569 37.6569 38 36 38H33C31.3431 38 30 36.6569 30 35H24C19.0294 35 15 30.9706 15 26V25H7.5C6.67157 25 6 25.6716 6 26.5V39.5C6 40.3284 5.32843 41 4.5 41C3.67157 41 3 40.3284 3 39.5V26.5C3 24.0147 5.01472 22 7.5 22H15V20C15 15.0294 19.0294 11 24 11L30 11ZM33 11H36V35H33V11Z" class="svg-primary-fill" clip-rule="evenodd"/>
  </g>
</svg>
