<svg xmlns="http://www.w3.org/2000/svg" width="48" height="48" viewBox="0 0 48 48">
  <g class="neo-icon-kit--premium">
    <path fill="#006FCF" fill-rule="evenodd" d="M44.3997 18.7431C44.9861 17.96 45.1552 16.9373 44.8525 16.0049L40.9762 5.06638C40.5759 3.83374 39.4345 3 38.1472 3L9.74134 3C8.44503 3 7.29781 3.84526 6.90492 5.08982L3.14003 16.0159C2.84752 16.9425 3.01909 17.9544 3.60032 18.7307L21.6286 43.8072C22.8194 45.3976 25.19 45.3976 26.3808 43.8072L44.3997 18.7431ZM9.74134 5.99867L6.58591 14.9941H13.9023L16.2834 5.99867L9.74134 5.99867ZM19.3444 5.99867L16.9633 14.9941H31.0461L28.665 5.99867L19.3444 5.99867ZM31.7259 5.99867L34.107 14.9941H41.3927L38.1472 5.99868L31.7259 5.99867ZM30.8442 17.9928H17.1651L24.0047 38.8992L30.8442 17.9928ZM14.0155 17.9928H6.7762L20.1539 36.8586L14.0155 17.9928ZM27.8555 36.8586L33.9939 17.9928H41.2331L27.8555 36.8586Z" class="svg-primary-fill" clip-rule="evenodd"/>
  </g>
</svg>
