<svg xmlns="http://www.w3.org/2000/svg" width="48" height="48" viewBox="0 0 48 48">
  <g class="neo-icon-kit--presentation">
    <path fill="#006FCF" fill-rule="evenodd" d="M23.5 3C24.3284 3 25 3.67157 25 4.5V7H43.5C44.3284 7 45 7.67157 45 8.5C45 9.32843 44.3284 10 43.5 10H42V31H43.5C44.3284 31 45 31.6716 45 32.5C45 33.3284 44.3284 34 43.5 34H36.5074L38.9485 43.1104C39.1629 43.9106 38.6881 44.7331 37.8879 44.9475C37.0877 45.1619 36.2652 44.6871 36.0507 43.8869L33.4016 34H14.5984L11.9493 43.8869C11.7348 44.6871 10.9123 45.1619 10.1121 44.9475C9.31194 44.7331 8.83707 43.9106 9.05148 43.1104L11.4926 34H4.5C3.67157 34 3 33.3284 3 32.5C3 31.6716 3.67157 31 4.5 31H6L6 10H4.5C3.67157 10 3 9.32843 3 8.5C3 7.67157 3.67157 7 4.5 7H22V4.5C22 3.67157 22.6716 3 23.5 3ZM9 31H39V10H9L9 31Z" class="svg-primary-fill" clip-rule="evenodd"/>
  </g>
</svg>
