<svg xmlns="http://www.w3.org/2000/svg" width="48" height="48" viewBox="0 0 48 48">
  <g class="neo-icon-kit--presentation-filled">
    <path fill="#006FCF" fill-rule="evenodd" d="M25 4.5C25 3.67157 24.3284 3 23.5 3C22.6716 3 22 3.67157 22 4.5V7H4.5C3.67157 7 3 7.67157 3 8.5C3 9.32843 3.67157 10 4.5 10H6.08535C6.03008 10.1564 6 10.3247 6 10.5L6 31H4.5C3.67157 31 3 31.6716 3 32.5C3 33.3284 3.67157 34 4.5 34H11.4926L9.05148 43.1104C8.83707 43.9106 9.31194 44.7331 10.1121 44.9475C10.9123 45.1619 11.7348 44.6871 11.9493 43.8869L14.5984 34H33.4016L36.0507 43.8869C36.2652 44.6871 37.0877 45.1619 37.8879 44.9475C38.6881 44.7331 39.1629 43.9106 38.9485 43.1104L36.5074 34H43.5C44.3284 34 45 33.3284 45 32.5C45 31.6716 44.3284 31 43.5 31H42V10.5C42 10.3247 41.9699 10.1564 41.9146 10H43.5C44.3284 10 45 9.32843 45 8.5C45 7.67157 44.3284 7 43.5 7H25V4.5ZM39.0854 10C39.0301 10.1564 39 10.3247 39 10.5V10H39.0854ZM9 10V10.5C9 10.3247 8.96992 10.1564 8.91465 10H9Z" class="svg-primary-fill" clip-rule="evenodd"/>
  </g>
</svg>
