<svg xmlns="http://www.w3.org/2000/svg" width="48" height="48" viewBox="0 0 48 48">
  <g class="neo-icon-kit--print">
    <path fill="#006FCF" fill-rule="evenodd" d="M18 3H30C31.5911 3 32.9032 4.25527 32.9949 5.82441L33 6V9H42C43.5911 9 44.9032 10.2553 44.9949 11.8244L45 12V33C45 34.591 43.7447 35.9032 42.1756 35.9949L42 36H35.9111L36.947 41.4387C37.1143 42.3168 36.8812 43.2238 36.3113 43.9126C35.7852 44.5483 35.0227 44.937 34.2054 44.993L34 45H14C13.106 45 12.2587 44.6013 11.6887 43.9126C11.1626 43.2768 10.9235 42.4551 11.0215 41.6417L11.053 41.4387L12.0889 36H6C4.40891 36 3.09681 34.7447 3.00512 33.1756L3 33V12C3 10.4089 4.25527 9.09681 5.82441 9.00512L6 9H15V6C15 4.40891 16.2553 3.09681 17.8244 3.00512L18 3ZM31.1429 27H16.8571L14 42H34L31.1429 27ZM6 12H42V33H35.3397L34.7682 30H36L36.1756 29.9949C37.7447 29.9032 39 28.591 39 27V21L38.9949 20.8244C38.9032 19.2553 37.5911 18 36 18H12L11.8244 18.0051C10.2553 18.0968 9 19.4089 9 21V27.0469L9.00504 27.2197C9.0953 28.7643 10.3869 30 11.9531 30H13.2318L12.6603 33H6V12ZM36 21H12V27H13.8032L13.9101 26.4387C14.1684 25.0826 15.3153 24.086 16.6782 24.0053L16.8571 24H31.1429C32.5232 24 33.7169 24.9402 34.0512 26.2639L34.0899 26.4387L34.1968 27H36V21ZM18 6H30V9H18V6Z" class="svg-primary-fill" clip-rule="evenodd"/>
  </g>
</svg>
