<svg xmlns="http://www.w3.org/2000/svg" width="48" height="48" viewBox="0 0 48 48">
  <g class="neo-icon-kit--print-filled">
    <path fill="#006FCF" fill-rule="evenodd" d="M30 3H18L17.8244 3.00512C16.2553 3.09681 15 4.40891 15 6V9H6L5.82441 9.00512C4.25527 9.09681 3 10.4089 3 12V33L3.00512 33.1756C3.09681 34.7447 4.40891 36 6 36H12.0889L11.053 41.4387L11.0215 41.6417C10.9236 42.4551 11.1626 43.2768 11.6887 43.9126C12.2587 44.6013 13.106 45 14 45H34L34.2054 44.993C35.0227 44.937 35.7852 44.5483 36.3113 43.9126C36.8812 43.2238 37.1143 42.3168 36.947 41.4387L35.9111 36H42L42.1756 35.9949C43.7447 35.9032 45 34.591 45 33V12L44.9949 11.8244C44.9032 10.2553 43.5911 9 42 9H33V6L32.9949 5.82441C32.9032 4.25527 31.5911 3 30 3ZM16.8571 27H31.1429L34 42H14L16.8571 27ZM36 21H12V27H13.8032L13.9101 26.4387C14.1684 25.0826 15.3153 24.086 16.6782 24.0053L16.8571 24H31.1429C32.5232 24 33.7169 24.9402 34.0512 26.2639L34.0899 26.4387L34.1968 27H36V21ZM18 6H30V9H18V6Z" class="svg-primary-fill" clip-rule="evenodd"/>
  </g>
</svg>
