<svg xmlns="http://www.w3.org/2000/svg" width="48" height="48" viewBox="0 0 48 48">
  <g class="neo-icon-kit--processing">
    <path fill="#006FCF" fill-rule="evenodd" d="M24.4289 1.5042L24 1.5L23.6279 1.50301C11.3731 1.70171 1.5 11.6979 1.5 24V25L1.50687 25.1445C1.57955 25.9051 2.2203 26.5 3 26.5C3.82843 26.5 4.5 25.8284 4.5 25V24L4.50296 23.657C4.68402 13.1598 13.1598 4.68402 23.657 4.50296L24 4.5L24.4186 4.50464C29.5749 4.61905 34.4666 6.84316 37.9441 10.6685L39.609 12.5H37L36.8555 12.5069C36.0949 12.5796 35.5 13.2203 35.5 14C35.5 14.8284 36.1716 15.5 37 15.5H43L43.0726 15.4983L43.2179 15.4843L43.3273 15.4641L43.4748 15.4233L43.596 15.3769L43.7233 15.3145L43.8452 15.2394L43.9574 15.1548L44.009 15.1099L44.1014 15.0184L44.184 14.9211L44.2822 14.7792L44.3536 14.6472L44.4102 14.5122L44.4661 14.3185L44.4841 14.2183L44.4983 14.071L44.5 8L44.4931 7.85554C44.4204 7.09489 43.7797 6.5 43 6.5L42.8555 6.50687C42.0949 6.57955 41.5 7.2203 41.5 8V10.12L40.164 8.65045L39.8652 8.32831C35.8422 4.07784 30.2805 1.61895 24.4289 1.5042ZM46.4931 22.8555C46.4204 22.0949 45.7797 21.5 45 21.5C44.1716 21.5 43.5 22.1716 43.5 23V24L43.497 24.343C43.314 34.9543 34.655 43.5 24 43.5L23.5903 43.4957C17.8626 43.3762 12.465 40.7552 8.82856 36.3106L8.165 35.5H11L11.1445 35.4931C11.9051 35.4204 12.5 34.7797 12.5 34C12.5 33.1716 11.8284 32.5 11 32.5L4.95947 32.5005L4.89544 32.5035L4.7631 32.5186L4.57475 32.5611C4.48301 32.5882 4.3949 32.6238 4.31126 32.6671L4.28343 32.6819L4.16484 32.7539L4.06289 32.8288L3.98156 32.8987L3.88774 32.9935L3.79995 33.0999L3.73288 33.1969L3.66488 33.3156C3.55948 33.5208 3.5 33.7535 3.5 34V40L3.50687 40.1445C3.57955 40.9051 4.2203 41.5 5 41.5L5.14446 41.4931C5.90511 41.4204 6.5 40.7797 6.5 40V38.203L6.78357 38.5422C10.9797 43.4756 17.0924 46.3723 23.5678 46.4959L24 46.5L24.3721 46.497C36.6269 46.2983 46.5 36.3021 46.5 24V23L46.4931 22.8555Z" class="svg-primary-fill" clip-rule="evenodd"/>
  </g>
</svg>
