<svg xmlns="http://www.w3.org/2000/svg" width="48" height="48" viewBox="0 0 48 48">
  <g class="neo-icon-kit--processing-filled">
    <path fill="#006FCF" fill-rule="evenodd" d="M24.4288 1.00411L24 1L23.6197 1.00308C11.0925 1.20619 1 11.4245 1 24V25L1.00549 25.1493C1.08183 26.1841 1.94564 27 3 27C4.10457 27 5 26.1046 5 25V24L5.00301 23.6585C5.1832 13.435 13.4382 5.18119 23.6622 5.00294L24 5L24.4185 5.00477C29.434 5.11906 34.1914 7.28371 37.5742 11.0048L38.479 12H37L36.8507 12.0055C35.8159 12.0818 35 12.9456 35 14C35 15.1046 35.8954 16 37 16H43L43.1528 15.9942L43.3022 15.9772L43.4587 15.9471L43.6079 15.9059L43.7629 15.8494L43.9157 15.7786L44.0597 15.6966L44.2117 15.5913L44.3376 15.4869L44.405 15.4234L44.5155 15.3052L44.5928 15.2098C44.6508 15.1335 44.7034 15.053 44.7501 14.9687L44.8271 14.8147L44.8853 14.6686L44.9145 14.5803L44.9559 14.4195L44.9819 14.2705L44.9945 14.1493L45 14V8L44.9945 7.85074C44.9182 6.81588 44.0544 6 43 6L42.8507 6.00549C41.8159 6.08183 41 6.94564 41 8V8.828L40.5339 8.31412L40.2355 7.9922C36.1176 3.63735 30.4214 1.11895 24.4288 1.00411ZM46.9945 22.8507C46.9182 21.8159 46.0544 21 45 21C43.8954 21 43 21.8954 43 23V24L42.9971 24.3378C42.8168 34.6754 34.3806 43 24 43C18.2736 43 12.8494 40.431 9.22131 36.001L11 36L11.1493 35.9945C12.1841 35.9182 13 35.0544 13 34C13 32.8954 12.1046 32 11 32L4.91777 32.0016L4.76185 32.014L4.61218 32.0376L4.47418 32.0698L4.28468 32.1317C4.19122 32.1675 4.10113 32.2102 4.015 32.259L3.8833 32.3406L3.75022 32.4386L3.67333 32.5033L3.60429 32.5675C3.49811 32.671 3.40339 32.7862 3.32221 32.911L3.2929 32.957L3.19225 33.1433L3.13347 33.2802L3.08475 33.4223L3.04508 33.576L3.02097 33.7095L3.0106 33.7942L3.00049 33.9542L3 40L3.00549 40.1493C3.08183 41.1841 3.94564 42 5 42C6.10457 42 7 41.1046 7 40L6.99982 39.5411C11.2627 44.1743 17.2464 46.8778 23.5674 46.996L24 47L24.3803 46.9969C36.9075 46.7938 47 36.5755 47 24V23L46.9945 22.8507Z" class="svg-primary-fill" clip-rule="evenodd"/>
  </g>
</svg>
