<svg xmlns="http://www.w3.org/2000/svg" width="48" height="48" viewBox="0 0 48 48">
  <g class="neo-icon-kit--qr-scan-filled">
    <path fill="#006FCF" fill-rule="evenodd" d="M6.5 15.5C6.5 16.6046 5.60457 17.5 4.5 17.5C3.39543 17.5 2.5 16.6046 2.5 15.5V7.5C2.5 4.73858 4.73858 2.5 7.5 2.5H15.5C16.6046 2.5 17.5 3.39543 17.5 4.5C17.5 5.60457 16.6046 6.5 15.5 6.5H7.5C6.94772 6.5 6.5 6.94772 6.5 7.5V15.5ZM14 13C13.4477 13 13 13.4477 13 14V21C13 21.5523 13.4477 22 14 22H21C21.5523 22 22 21.5523 22 21V14C22 13.4477 21.5523 13 21 13H14ZM28.25 26H26.75C26.3358 26 26 26.3358 26 26.75V28.25C26 28.6642 26.3358 29 26.75 29H28.25C28.6642 29 29 28.6642 29 28.25V26.75C29 26.3358 28.6642 26 28.25 26ZM28.25 32H26.75C26.3358 32 26 32.3358 26 32.75V34.25C26 34.6642 26.3358 35 26.75 35H28.25C28.6642 35 29 34.6642 29 34.25V32.75C29 32.3358 28.6642 32 28.25 32ZM32.75 26H34.25C34.6642 26 35 26.3358 35 26.75V28.25C35 28.6642 34.6642 29 34.25 29H32.75C32.3358 29 32 28.6642 32 28.25V26.75C32 26.3358 32.3358 26 32.75 26ZM29.75 29C29.3358 29 29 29.3358 29 29.75V31.25C29 31.6642 29.3358 32 29.75 32H31.25C31.6642 32 32 31.6642 32 31.25V29.75C32 29.3358 31.6642 29 31.25 29H29.75ZM32.75 32H34.25C34.6642 32 35 32.3358 35 32.75V34.25C35 34.6642 34.6642 35 34.25 35H32.75C32.3358 35 32 34.6642 32 34.25V32.75C32 32.3358 32.3358 32 32.75 32ZM21 26C21.5523 26 22 26.4477 22 27V34C22 34.5523 21.5523 35 21 35H14C13.4477 35 13 34.5523 13 34V27C13 26.4477 13.4477 26 14 26H21ZM34 13H27C26.4477 13 26 13.4477 26 14V21C26 21.5523 26.4477 22 27 22H34C34.5523 22 35 21.5523 35 21V14C35 13.4477 34.5523 13 34 13ZM6.5 40.5V32.5C6.5 31.3954 5.60457 30.5 4.5 30.5C3.39543 30.5 2.5 31.3954 2.5 32.5V40.5C2.5 43.2614 4.73858 45.5 7.5 45.5H15.5C16.6046 45.5 17.5 44.6046 17.5 43.5C17.5 42.3954 16.6046 41.5 15.5 41.5H7.5C6.94772 41.5 6.5 41.0523 6.5 40.5ZM41.5 15.5V7.5C41.5 6.94772 41.0523 6.5 40.5 6.5H32.5C31.3954 6.5 30.5 5.60457 30.5 4.5C30.5 3.39543 31.3954 2.5 32.5 2.5H40.5C43.2614 2.5 45.5 4.73858 45.5 7.5V15.5C45.5 16.6046 44.6046 17.5 43.5 17.5C42.3954 17.5 41.5 16.6046 41.5 15.5ZM43.5 30.5C42.3954 30.5 41.5 31.3954 41.5 32.5V40.5C41.5 41.0523 41.0523 41.5 40.5 41.5H32.5C31.3954 41.5 30.5 42.3954 30.5 43.5C30.5 44.6046 31.3954 45.5 32.5 45.5H40.5C43.2614 45.5 45.5 43.2614 45.5 40.5V32.5C45.5 31.3954 44.6046 30.5 43.5 30.5Z" class="svg-primary-fill" clip-rule="evenodd"/>
  </g>
</svg>
