<svg xmlns="http://www.w3.org/2000/svg" width="48" height="48" viewBox="0 0 48 48">
  <g class="neo-icon-kit--qr-scan">
    <path fill="#006FCF" fill-rule="evenodd" d="M6 15.5C6 16.3284 5.32843 17 4.5 17C3.67157 17 3 16.3284 3 15.5V7.5C3 5.01472 5.01472 3 7.5 3H15.5C16.3284 3 17 3.67157 17 4.5C17 5.32843 16.3284 6 15.5 6H7.5C6.67157 6 6 6.67157 6 7.5V15.5ZM26.75 26H28.25C28.6642 26 29 26.3358 29 26.75V28.25C29 28.6642 28.6642 29 28.25 29H26.75C26.3358 29 26 28.6642 26 28.25V26.75C26 26.3358 26.3358 26 26.75 26ZM26.75 32H28.25C28.6642 32 29 32.3358 29 32.75V34.25C29 34.6642 28.6642 35 28.25 35H26.75C26.3358 35 26 34.6642 26 34.25V32.75C26 32.3358 26.3358 32 26.75 32ZM34.25 26H32.75C32.3358 26 32 26.3358 32 26.75V28.25C32 28.6642 32.3358 29 32.75 29H34.25C34.6642 29 35 28.6642 35 28.25V26.75C35 26.3358 34.6642 26 34.25 26ZM29.75 29H31.25C31.6642 29 32 29.3358 32 29.75V31.25C32 31.6642 31.6642 32 31.25 32H29.75C29.3358 32 29 31.6642 29 31.25V29.75C29 29.3358 29.3358 29 29.75 29ZM34.25 32H32.75C32.3358 32 32 32.3358 32 32.75V34.25C32 34.6642 32.3358 35 32.75 35H34.25C34.6642 35 35 34.6642 35 34.25V32.75C35 32.3358 34.6642 32 34.25 32ZM6 40.5V32.5C6 31.6716 5.32843 31 4.5 31C3.67157 31 3 31.6716 3 32.5V40.5C3 42.9853 5.01472 45 7.5 45H15.5C16.3284 45 17 44.3284 17 43.5C17 42.6716 16.3284 42 15.5 42H7.5C6.67157 42 6 41.3284 6 40.5ZM42 15.5V7.5C42 6.67157 41.3284 6 40.5 6H32.5C31.6716 6 31 5.32843 31 4.5C31 3.67157 31.6716 3 32.5 3H40.5C42.9853 3 45 5.01472 45 7.5V15.5C45 16.3284 44.3284 17 43.5 17C42.6716 17 42 16.3284 42 15.5ZM43.5 31C42.6716 31 42 31.6716 42 32.5V40.5C42 41.3284 41.3284 42 40.5 42H32.5C31.6716 42 31 42.6716 31 43.5C31 44.3284 31.6716 45 32.5 45H40.5C42.9853 45 45 42.9853 45 40.5V32.5C45 31.6716 44.3284 31 43.5 31ZM14 13H21C21.5523 13 22 13.4477 22 14V21C22 21.5523 21.5523 22 21 22H14C13.4477 22 13 21.5523 13 21V14C13 13.4477 13.4477 13 14 13ZM15.5 19.5V15.5H19.5V19.5H15.5ZM14 26H21C21.5523 26 22 26.4477 22 27V34C22 34.5523 21.5523 35 21 35H14C13.4477 35 13 34.5523 13 34V27C13 26.4477 13.4477 26 14 26ZM15.5 32.5V28.5H19.5V32.5H15.5ZM27 13H34C34.5523 13 35 13.4477 35 14V21C35 21.5523 34.5523 22 34 22H27C26.4477 22 26 21.5523 26 21V14C26 13.4477 26.4477 13 27 13ZM28.5 19.5V15.5H32.5V19.5H28.5Z" class="svg-primary-fill" clip-rule="evenodd"/>
  </g>
</svg>
