<svg xmlns="http://www.w3.org/2000/svg" width="18" height="18" viewBox="0 0 18 18">
  <g class="neo-icon-kit--question-support-white">
    <path fill="#fff" fill-rule="evenodd" d="M0.5 9C0.5 4.30558 4.30558 0.5 9 0.5C13.6944 0.5 17.5 4.30558 17.5 9C17.5 13.6944 13.6944 17.5 9 17.5C4.30558 17.5 0.5 13.6944 0.5 9ZM9 1.5C4.85786 1.5 1.5 4.85786 1.5 9C1.5 13.1421 4.85786 16.5 9 16.5C13.1421 16.5 16.5 13.1421 16.5 9C16.5 4.85786 13.1421 1.5 9 1.5Z" class="svg-secondary-fill" clip-rule="evenodd"/>
    <path fill="#fff" fill-rule="evenodd" d="M7.97405 9.90801V10.305H9.39705V9.98201C9.38916 9.79882 9.43692 9.61754 9.53405 9.46201C9.62605 9.32901 9.84305 9.13601 10.187 8.88201C10.688 8.52401 11.028 8.20101 11.208 7.91501C11.386 7.62901 11.476 7.28801 11.476 6.89501C11.476 6.30401 11.259 5.83101 10.824 5.47701C10.388 5.12201 9.80205 4.94501 9.06405 4.94501C8.17341 4.94382 7.29789 5.17511 6.52405 5.61601L7.10905 6.79201C7.79605 6.44201 8.40905 6.26601 8.94605 6.26601C9.25405 6.26601 9.49405 6.32701 9.66605 6.44901C9.83805 6.57001 9.92405 6.74801 9.92405 6.98001C9.92572 7.1824 9.86265 7.38002 9.74405 7.54401C9.62405 7.71301 9.37605 7.93101 9.00005 8.20001C8.61005 8.48601 8.34105 8.75701 8.19405 9.01101C8.04805 9.26501 7.97405 9.56401 7.97405 9.90801ZM8.04405 11.46C7.88205 11.614 7.80205 11.842 7.80205 12.142C7.80205 12.432 7.88505 12.656 8.04905 12.816C8.21405 12.975 8.44705 13.055 8.74805 13.055C9.04105 13.055 9.27005 12.974 9.43505 12.811C9.60005 12.648 9.68205 12.425 9.68205 12.142C9.68205 11.848 9.60105 11.623 9.43805 11.465C9.27505 11.308 9.04505 11.229 8.74805 11.229C8.44005 11.229 8.20505 11.306 8.04405 11.46Z" class="svg-primary-fill" clip-rule="evenodd"/>
  </g>
</svg>
