<svg xmlns="http://www.w3.org/2000/svg" width="48" height="48" viewBox="0 0 48 48">
  <g class="neo-icon-kit--quick-transfer-filled">
    <path fill="#006FCF" d="M12.5396 25.4998C12.9201 25.5004 13.2926 25.6094 13.6134 25.8141C13.9342 26.0187 14.19 26.3106 14.3509 26.6554C14.5117 27.0002 14.571 27.3838 14.5217 27.7611C14.4724 28.1384 14.3167 28.4939 14.0726 28.7858L9.34661 33.4998H21.4966C21.7596 33.4992 22.0201 33.5504 22.2632 33.6507C22.5063 33.7509 22.7273 33.8981 22.9134 34.084C23.0994 34.2698 23.247 34.4905 23.3476 34.7334C23.4482 34.9764 23.4999 35.2368 23.4996 35.4998C23.4995 36.0018 23.3107 36.4854 22.9706 36.8546C22.6304 37.2239 22.1639 37.4517 21.6636 37.4928L9.34761 37.4998L13.9526 42.0838C14.3436 42.4738 14.5406 42.9858 14.5406 43.4978C14.5412 43.8788 14.433 44.2521 14.2288 44.5738C14.0246 44.8955 13.7328 45.1522 13.3877 45.3138C13.0427 45.4754 12.6587 45.5352 12.2808 45.4861C11.903 45.4371 11.5469 45.2812 11.2546 45.0368L3.08761 36.9168C2.7324 36.5625 2.52332 36.0877 2.50184 35.5864C2.48035 35.0852 2.64803 34.5942 2.97161 34.2108L11.1236 26.0838C11.5156 25.6938 12.0286 25.4998 12.5406 25.5008L12.5396 25.4998ZM36.5176 36.4998C37.0656 36.4998 37.5616 36.7238 37.9206 37.0878C38.2786 37.4488 38.4996 37.9478 38.4996 38.4998C38.4996 39.0158 38.3056 39.4868 37.9876 39.8418C37.6518 40.2176 37.1848 40.4505 36.6826 40.4928L30.4826 40.4998C30.2213 40.5 29.9625 40.4481 29.7214 40.3471C29.4804 40.2462 29.2618 40.0982 29.0786 39.9118C28.7068 39.536 28.4987 39.0284 28.4996 38.4998C28.4996 37.9838 28.6936 37.5128 29.0116 37.1578C29.3474 36.782 29.8144 36.5491 30.3166 36.5068L36.5166 36.4998H36.5176ZM40.5116 30.4998C41.0616 30.4998 41.5586 30.7238 41.9186 31.0868C42.2916 31.4624 42.5006 31.9705 42.4996 32.4998C42.4998 32.9996 42.3129 33.4814 41.9757 33.8502C41.6385 34.2191 41.1754 34.4483 40.6776 34.4928L30.4876 34.4998C29.9376 34.4998 29.4406 34.2758 29.0806 33.9128C28.7076 33.5373 28.4987 33.0291 28.4996 32.4998C28.4994 32 28.6863 31.5183 29.0235 31.1494C29.3607 30.7805 29.8238 30.5513 30.3216 30.5068L40.5116 30.4998ZM35.3476 2.50282C35.8376 2.47682 36.3376 2.63082 36.7366 2.96282L44.9106 11.0828C45.2662 11.437 45.4757 11.912 45.4974 12.4135C45.519 12.915 45.3514 13.4062 45.0276 13.7898L36.8676 21.9168C36.4918 22.291 35.9829 22.5007 35.4526 22.4998C35.0716 22.5002 34.6983 22.3918 34.3768 22.1873C34.0553 21.9828 33.7988 21.6907 33.6376 21.3455C33.4764 21.0002 33.4171 20.6161 33.4667 20.2383C33.5163 19.8605 33.6727 19.5047 33.9176 19.2128L38.6476 14.4998H26.5036C25.9863 14.5007 25.4888 14.301 25.1156 13.9428C24.7423 13.5846 24.5224 13.0958 24.5019 12.5789C24.4815 12.062 24.6621 11.5573 25.0059 11.1707C25.3497 10.7842 25.8299 10.5458 26.3456 10.5058L38.6456 10.4998L34.0376 5.91682C33.8507 5.73158 33.7024 5.51118 33.6011 5.26832C33.4998 5.02546 33.4477 4.76495 33.4476 4.50182C33.4477 3.98864 33.6447 3.49508 33.9981 3.12293C34.3514 2.75079 34.8341 2.52846 35.3466 2.50182L35.3476 2.50282ZM17.5176 13.4998C18.0656 13.4998 18.5616 13.7238 18.9206 14.0878C19.2786 14.4488 19.4996 14.9478 19.4996 15.4998C19.4996 16.0158 19.3056 16.4868 18.9876 16.8418C18.6518 17.2176 18.1848 17.4505 17.6826 17.4928L11.4826 17.4998C11.2213 17.5 10.9625 17.4481 10.7214 17.3471C10.4804 17.2462 10.2618 17.0982 10.0786 16.9118C9.70684 16.536 9.49872 16.0284 9.49961 15.4998C9.49961 14.9838 9.69361 14.5128 10.0116 14.1578C10.3474 13.782 10.8144 13.5491 11.3166 13.5068L17.5176 13.4998ZM17.5116 7.49982C18.0616 7.49982 18.5586 7.72382 18.9186 8.08682C19.2916 8.46237 19.5006 8.97049 19.4996 9.49982C19.4998 9.9996 19.3129 10.4814 18.9757 10.8502C18.6385 11.2191 18.1754 11.4483 17.6776 11.4928L7.48761 11.4998C6.93761 11.4998 6.44061 11.2758 6.08061 10.9128C5.70759 10.5373 5.49866 10.0291 5.49961 9.49982C5.49937 9.00004 5.68627 8.51828 6.02349 8.14941C6.36071 7.78054 6.82381 7.5513 7.32161 7.50682L17.5116 7.49982Z" class="svg-primary-fill"/>
  </g>
</svg>
