<svg xmlns="http://www.w3.org/2000/svg" width="48" height="48" viewBox="0 0 48 48">
  <g class="neo-icon-kit--quick-transfer">
    <path fill="#006FCF" d="M11.4772 26.4382C11.7597 26.1571 12.1422 25.9995 12.5408 26.0001C12.9394 26.0006 13.3214 26.1593 13.6032 26.4412C13.8655 26.7041 14.0209 27.055 14.0394 27.4259C14.0579 27.7969 13.9381 28.1615 13.7032 28.4492L13.6002 28.5632L8.13719 34.0002H21.4972C21.8825 34.0001 22.253 34.1483 22.532 34.4141C22.811 34.6798 22.977 35.0427 22.9957 35.4276C23.0143 35.8124 22.8842 36.1897 22.6322 36.4812C22.3802 36.7727 22.0257 36.956 21.6422 36.9932L21.4972 37.0002H8.13719L13.6002 42.4382C13.7398 42.5773 13.8506 42.7425 13.9263 42.9245C14.002 43.1064 14.0411 43.3015 14.0414 43.4985C14.0416 43.6956 14.0031 43.8908 13.9279 44.073C13.8527 44.2551 13.7424 44.4207 13.6032 44.5602C13.3102 44.8532 12.9242 45.0002 12.5392 45.0002C12.1944 45.0007 11.86 44.8824 11.5922 44.6652L11.4782 44.5622L3.44219 36.5622C3.17796 36.2989 3.02131 35.9466 3.00282 35.574C2.98433 35.2014 3.10532 34.8353 3.34219 34.5472L3.44219 34.4372L11.4782 26.4372L11.4772 26.4382ZM36.5182 37.0002C37.3362 37.0002 38.0002 37.6722 38.0002 38.5002C38.0002 39.2792 37.4122 39.9202 36.6602 39.9932L36.5172 40.0002H30.4822C30.0868 39.9975 29.7087 39.8381 29.4308 39.5568C29.1529 39.2756 28.9981 38.8955 29.0002 38.5002C29.0002 37.7212 29.5882 37.0802 30.3402 37.0072L30.4832 37.0002H36.5182ZM40.5132 31.0002C41.3342 31.0002 42.0012 31.6722 42.0012 32.5002C42.0012 33.2792 41.4112 33.9202 40.6572 33.9932L40.5142 34.0002H30.4882C30.292 33.9994 30.0979 33.96 29.9169 33.8842C29.736 33.8083 29.5717 33.6976 29.4335 33.5583C29.2953 33.4191 29.186 33.2539 29.1116 33.0724C29.0373 32.8908 28.9994 32.6964 29.0002 32.5002C29.0002 31.7212 29.5902 31.0802 30.3442 31.0072L30.4872 31.0002H40.5132ZM34.3882 3.44017C34.6517 3.17765 35.0029 3.02165 35.3744 3.00209C35.7459 2.98253 36.1115 3.10078 36.4012 3.33417L36.5152 3.43717L44.5582 11.4372C44.8224 11.7005 44.9791 12.0528 44.9976 12.4253C45.016 12.7979 44.8951 13.164 44.6582 13.4522L44.5582 13.5622L36.5152 21.5622C36.3754 21.7017 36.2095 21.8123 36.0269 21.8877C35.8444 21.9632 35.6488 22.0019 35.4513 22.0017C35.2538 22.0015 35.0582 21.9624 34.8758 21.8867C34.6934 21.8109 34.5277 21.7 34.3882 21.5602C34.1259 21.2972 33.9705 20.9463 33.952 20.5754C33.9335 20.2045 34.0533 19.8399 34.2882 19.5522L34.3912 19.4382L39.8582 14.0002H26.5042C25.6742 14.0002 25.0002 13.3282 25.0002 12.5002C25.0002 11.7182 25.6012 11.0752 26.3672 11.0062L26.5042 11.0002H39.8582L34.3902 5.56217C34.2506 5.42307 34.1398 5.25782 34.0641 5.07588C33.9884 4.89393 33.9493 4.69885 33.949 4.50179C33.9487 4.30473 33.9873 4.10954 34.0625 3.92738C34.1377 3.74522 34.249 3.57967 34.3882 3.44017ZM17.5182 14.0002C18.3362 14.0002 19.0002 14.6722 19.0002 15.5002C19.0002 16.2792 18.4122 16.9202 17.6602 16.9932L17.5172 17.0002H11.4822C11.0868 16.9975 10.7087 16.8381 10.4308 16.5568C10.1529 16.2756 9.99806 15.8955 10.0002 15.5002C10.0002 14.7212 10.5882 14.0802 11.3402 14.0072L11.4832 14.0002H17.5182ZM17.5132 8.00017C18.3342 8.00017 19.0002 8.67217 19.0002 9.50017C19.0002 10.2792 18.4102 10.9202 17.6562 10.9932L17.5132 11.0002H7.48819C7.29199 10.9994 7.09787 10.96 6.91691 10.8842C6.73595 10.8083 6.5717 10.6976 6.43352 10.5583C6.29535 10.4191 6.18596 10.2539 6.11161 10.0724C6.03726 9.89079 5.9994 9.69636 6.00019 9.50017C6.00019 8.72117 6.59019 8.08017 7.34419 8.00717L7.48819 8.00017H17.5132Z" class="svg-primary-fill"/>
  </g>
</svg>
