<svg xmlns="http://www.w3.org/2000/svg" width="48" height="48" viewBox="0 0 48 48">
  <g class="neo-icon-kit--receipt-view">
    <path fill="#006FCF" fill-rule="evenodd" d="M17.5 2.99976C20.0264 2.99976 22.394 3.65714 24.4605 4.79416L24.822 4.99976H42C43.5978 4.99976 44.9037 6.24854 44.9949 7.82347L45 7.99976V43.4998C45 44.0948 44.648 44.6328 44.104 44.8728C43.91 44.9578 43.704 44.9998 43.5 44.9998C43.1846 44.9998 42.8736 44.8998 42.6129 44.7094L42.487 44.6068L39 41.4138L35.513 44.6068C34.9782 45.0968 34.176 45.1294 33.6055 44.7048L33.487 44.6068L30 41.4138L26.513 44.6068C25.9782 45.0968 25.176 45.1294 24.6055 44.7048L24.487 44.6068L21 41.4138L17.513 44.6068C17.075 45.0068 16.439 45.1118 15.896 44.8728C15.3973 44.6528 15.06 44.1824 15.0072 43.6472L15 43.4998V31.7698C8.186 30.5828 3 24.6538 3 17.4998C3 9.49176 9.492 2.99976 17.5 2.99976ZM42 7.99996L28.458 8.02264C30.659 10.5292 32 13.7912 32 17.3677C32 24.9916 25.9434 31.2065 18.3186 31.627L18 31.6411V39.6461L19.987 37.8524C20.5218 37.3683 21.324 37.336 21.8945 37.7556L22.013 37.8524L25.5 41L28.987 37.8524C29.273 37.5931 29.637 37.4639 30 37.4639C30.3111 37.4639 30.623 37.5588 30.8859 37.7492L31.013 37.8524L34.5 41L37.987 37.8524C38.5218 37.3683 39.324 37.336 39.8945 37.7556L40.013 37.8524L42 39.6461V7.99996ZM39 32.5C39 31.672 38.328 31 37.5 31H28.5L28.3556 31.0068C27.5953 31.0796 27 31.7207 27 32.5C27 33.328 27.672 34 28.5 34H37.5L37.6444 33.9931C38.4047 33.9204 39 33.2793 39 32.5ZM17.5 5.99976C11.159 5.99976 6 11.1588 6 17.4998C6 23.8408 11.159 28.9998 17.5 28.9998C23.841 28.9998 29 23.8408 29 17.4998C29 11.1588 23.841 5.99976 17.5 5.99976ZM39 26.5C39 25.671 38.328 25 37.5 25H33.5L33.3556 25.0068C32.5953 25.0794 32 25.7197 32 26.5C32 27.328 32.672 28 33.5 28H37.5L37.6444 27.9931C38.4047 27.9204 39 27.2793 39 26.5ZM24.4965 12.3789C25.1157 12.9292 25.1715 13.8773 24.6211 14.4965L16.6211 23.4965C16.0364 24.1543 15.0137 24.1697 14.4095 23.5299L10.4095 19.2946C9.84067 18.6923 9.86779 17.743 10.4701 17.1742C11.0723 16.6053 12.0217 16.6325 12.5905 17.2347L15.4665 20.2799L22.3789 12.5034C22.9293 11.8842 23.8774 11.8285 24.4965 12.3789ZM39 20.4995C39 19.6705 38.328 18.9995 37.5 18.9995H35.5L35.3556 19.0063C34.5953 19.0789 34 19.7192 34 20.4995C34 21.3285 34.672 21.9995 35.5 21.9995H37.5L37.6444 21.9926C38.4047 21.92 39 21.2797 39 20.4995Z" class="svg-primary-fill" clip-rule="evenodd"/>
  </g>
</svg>
