<svg xmlns="http://www.w3.org/2000/svg" width="48" height="48" viewBox="0 0 48 48">
  <g class="neo-icon-kit--receipt-missing-filled">
    <path fill="#006FCF" fill-rule="evenodd" d="M17.5 3C20.0264 3 22.394 3.65739 24.4605 4.79441L24.822 5H42C43.5978 5 44.9037 6.24878 44.9949 7.82371L45 8V43.5C45 44.095 44.648 44.633 44.104 44.873C43.91 44.958 43.704 45 43.5 45C43.1846 45 42.8736 44.9001 42.6129 44.7097L42.487 44.607L39 41.414L35.513 44.607C34.9782 45.097 34.176 45.1297 33.6055 44.705L33.487 44.607L30 41.414L26.513 44.607C25.9782 45.097 25.176 45.1297 24.6055 44.705L24.487 44.607L21 41.414L17.513 44.607C17.075 45.007 16.439 45.112 15.896 44.873C15.3973 44.653 15.06 44.1826 15.0072 43.6474L15 43.5V31.77C8.186 30.583 3 24.654 3 17.5C3 9.492 9.492 3 17.5 3ZM42 8.0002L28.458 8.02288C30.659 10.5295 32 13.7914 32 17.3679C32 24.9919 25.9434 31.2067 18.3186 31.6272L18 31.6414V39.6463L19.987 37.8526C20.5218 37.3685 21.324 37.3363 21.8945 37.7558L22.013 37.8526L25.5 41.0002L28.987 37.8526C29.273 37.5933 29.637 37.4641 30 37.4641C30.3111 37.4641 30.623 37.559 30.8859 37.7495L31.013 37.8526L34.5 41.0002L37.987 37.8526C38.5218 37.3685 39.324 37.3363 39.8945 37.7558L40.013 37.8526L42 39.6463V8.0002ZM37.5 31.0002H28.5L28.3556 31.0071C27.5953 31.0798 27 31.7209 27 32.5002C27 33.3282 27.672 34.0002 28.5 34.0002H37.5L37.6444 33.9933C38.4047 33.9206 39 33.2795 39 32.5002C39 31.6722 38.328 31.0002 37.5 31.0002ZM37.5 25.0002H33.5L33.3556 25.0071C32.5953 25.0797 32 25.72 32 26.5002C32 27.3282 32.672 28.0002 33.5 28.0002H37.5L37.6444 27.9933C38.4047 27.9206 39 27.2795 39 26.5002C39 25.6712 38.328 25.0002 37.5 25.0002ZM37.5 18.9997H35.5L35.3556 19.0066C34.5953 19.0792 34 19.7195 34 20.4997C34 21.3287 34.672 21.9997 35.5 21.9997H37.5L37.6444 21.9928C38.4047 21.9202 39 21.2799 39 20.4997C39 19.6707 38.328 18.9997 37.5 18.9997ZM17.0006 9.0002C14.2392 9.0002 12.0006 11.2388 12.0006 14.0002C12.0006 14.0002 12.0001 15.5002 13.5001 15.5002C15.0001 15.5002 15.0006 14.0002 15.0006 14.0002C15.0006 12.8956 15.896 12.0002 17.0006 12.0002C18.1052 12.0002 19.0006 12.8956 19.0006 14.0002C19.0006 14.9939 18.2745 15.8204 17.3247 15.9743C16.724 16.0716 15.8448 16.4091 15.3851 17.3149C15.2341 17.6123 15.116 17.9084 15.0537 18.2437C15.0002 18.531 15.0005 18.7932 15.0006 18.9607L15.0006 19.5002C15.0006 20.3286 15.6722 21.0002 16.5006 21.0002C17.329 21.0002 18.0006 20.3286 18.0006 19.5002V19.0002C18.0006 18.9596 18.0007 18.9268 18.0009 18.8998C20.2831 18.4357 22.0006 16.4201 22.0006 14.0002C22.0006 11.2388 19.762 9.0002 17.0006 9.0002ZM15.0004 24.5002C15.0004 23.6718 15.6719 23.0002 16.5004 23.0002C17.3288 23.0002 18.0004 23.6718 18.0004 24.5002V25.5002C18.0004 26.3286 17.3288 27.0002 16.5004 27.0002C15.6719 27.0002 15.0004 26.3286 15.0004 25.5002V24.5002Z" class="svg-primary-fill" clip-rule="evenodd"/>
  </g>
</svg>
