<svg xmlns="http://www.w3.org/2000/svg" width="48" height="48" viewBox="0 0 48 48">
  <g class="neo-icon-kit--receipt">
    <g fill="#006FCF" class="svg-primary-fill">
      <path d="M18 16.5C18 15.6716 18.6716 15 19.5 15H28.5C29.3284 15 30 15.6716 30 16.5 30 17.3284 29.3284 18 28.5 18H19.5C18.6716 18 18 17.3284 18 16.5zM18 22.5C18 21.6716 18.6716 21 19.5 21H28.5C29.3284 21 30 21.6716 30 22.5 30 23.3284 29.3284 24 28.5 24H19.5C18.6716 24 18 23.3284 18 22.5zM18 28.5C18 27.6716 18.6716 27 19.5 27H28.5C29.3284 27 30 27.6716 30 28.5 30 29.3284 29.3284 30 28.5 30H19.5C18.6716 30 18 29.3284 18 28.5z"/>
      <path d="M36 6H12V43L9.00002 43.5V6C9.00002 4.34315 10.3432 3 12 3H36C37.6569 3 39 4.34315 39 6V43.5H36V6Z"/>
      <path fill-rule="evenodd" d="M13.3391 38.9694C14.2863 38.1275 15.7137 38.1275 16.6609 38.9694L19.5 41.4931L22.3391 38.9694C23.2863 38.1275 24.7137 38.1275 25.6609 38.9694L28.5 41.4931L31.3391 38.9694C32.2863 38.1275 33.7137 38.1275 34.6609 38.9694L38.4966 42.3789C39.1157 42.9293 39.1715 43.8774 38.6211 44.4965C38.0708 45.1157 37.1226 45.1715 36.5035 44.6211L33 41.5069L30.1609 44.0306C29.2137 44.8725 27.7863 44.8725 26.8391 44.0306L24 41.5069L21.1609 44.0306C20.2137 44.8725 18.7863 44.8725 17.8391 44.0306L15 41.5069L11.4966 44.6211C10.8774 45.1715 9.92928 45.1157 9.3789 44.4965C8.82853 43.8774 8.8843 42.9293 9.50347 42.3789L13.3391 38.9694Z" clip-rule="evenodd"/>
    </g>
  </g>
</svg>
