<svg xmlns="http://www.w3.org/2000/svg" width="48" height="48" viewBox="0 0 48 48">
  <g class="neo-icon-kit--receipt-filled">
    <path fill="#006FCF" fill-rule="evenodd" d="M39 43.4934V6C39 4.34315 37.6569 3 36 3H12C10.3432 3 9.00002 4.34315 9.00002 6V43H9.08549C8.90998 43.498 9.00325 44.0739 9.3789 44.4965C9.92928 45.1157 10.8774 45.1714 11.4966 44.621L15 41.5069L17.8391 44.0305C18.7863 44.8725 20.2137 44.8725 21.1609 44.0305L24 41.5069L26.8391 44.0305C27.7863 44.8725 29.2137 44.8725 30.1609 44.0305L33 41.5069L36.5035 44.621C37.1226 45.1714 38.0708 45.1157 38.6211 44.4965C38.8768 44.2088 39.0017 43.8502 39 43.4934ZM18 16.5C18 15.6716 18.6716 15 19.5 15H28.5C29.3284 15 30 15.6716 30 16.5C30 17.3284 29.3284 18 28.5 18H19.5C18.6716 18 18 17.3284 18 16.5ZM19.5 21C18.6716 21 18 21.6716 18 22.5C18 23.3284 18.6716 24 19.5 24H28.5C29.3284 24 30 23.3284 30 22.5C30 21.6716 29.3284 21 28.5 21H19.5ZM18 28.5C18 27.6716 18.6716 27 19.5 27H28.5C29.3284 27 30 27.6716 30 28.5C30 29.3284 29.3284 30 28.5 30H19.5C18.6716 30 18 29.3284 18 28.5Z" class="svg-primary-fill" clip-rule="evenodd"/>
  </g>
</svg>
