<svg xmlns="http://www.w3.org/2000/svg" width="48" height="48" viewBox="0 0 48 48">
  <g class="neo-icon-kit--recent-points-filled">
    <path fill="#006FCF" fill-rule="evenodd" d="M40.2425 7.99961C36.026 3.53642 30.1525 1 24 1C11.2975 1 1 11.2975 1 24C1 36.7025 11.2975 47 24 47C36.7025 47 47 36.7025 47 24V23L46.9945 22.8507C46.9182 21.8159 46.0544 21 45 21C43.8954 21 43 21.8954 43 23V24L42.9971 24.3378C42.8168 34.6754 34.3806 43 24 43C13.5066 43 5 34.4934 5 24C5 13.5066 13.5066 5 24 5L24.4185 5.00477C29.434 5.11906 34.1914 7.28371 37.5742 11.0048L38.479 12H37L36.8507 12.0055C35.8159 12.0818 35 12.9456 35 14C35 15.1046 35.8954 16 37 16H43L43.1528 15.9942L43.3022 15.9772L43.4587 15.9471L43.6079 15.9059L43.7629 15.8494L43.9157 15.7786L44.0597 15.6966L44.2117 15.5913L44.3376 15.4869L44.405 15.4234L44.5155 15.3052L44.5928 15.2098C44.6508 15.1335 44.7034 15.053 44.7501 14.9687L44.8271 14.8147L44.8853 14.6686L44.9145 14.5803L44.9559 14.4195L44.9819 14.2705L44.9945 14.1493L45 14V8L44.9945 7.85074C44.9182 6.81588 44.0544 6 43 6L42.8507 6.00549C41.8159 6.08183 41 6.94564 41 8V8.828L40.5339 8.31412L40.2425 7.99961ZM28.2026 18.771L25.2499 12.7782C24.7386 11.7406 23.2614 11.7406 22.7501 12.7782L19.7974 18.771L13.1949 19.732C12.0517 19.8984 11.5952 21.3056 12.4224 22.1133L17.2001 26.7781L16.0722 33.3648C15.8769 34.5053 17.072 35.375 18.0945 34.8365L24 31.7267L29.9055 34.8365C30.928 35.375 32.1231 34.5053 31.9278 33.3648L30.7999 26.7781L35.5776 22.1133C36.4048 21.3056 35.9483 19.8984 34.8051 19.732L28.2026 18.771Z" class="svg-primary-fill" clip-rule="evenodd"/>
  </g>
</svg>
