<svg xmlns="http://www.w3.org/2000/svg" width="48" height="48" viewBox="0 0 48 48">
  <g class="neo-icon-kit--receipt-add-filled">
    <path fill="#006FCF" d="M17.5 3C19.9344 2.99965 22.3291 3.61691 24.46 4.794L24.822 5H42C42.7652 4.99996 43.5015 5.29233 44.0583 5.81728C44.615 6.34224 44.9501 7.06011 44.995 7.824L45 8V43.5C45 43.7911 44.9153 44.0759 44.7562 44.3197C44.5971 44.5635 44.3705 44.7558 44.104 44.873C43.91 44.958 43.704 45 43.5 45C43.185 45 42.874 44.9 42.613 44.7L42.487 44.597L39 41.414L35.513 44.607C35.256 44.8423 34.9251 44.9808 34.5771 44.9986C34.2291 45.0165 33.8858 44.9127 33.606 44.705L33.486 44.607L30 41.414L26.513 44.607C26.256 44.8423 25.9251 44.9808 25.5771 44.9986C25.2291 45.0165 24.8858 44.9127 24.606 44.705L24.486 44.607L21 41.414L17.513 44.607C17.075 45.007 16.439 45.112 15.896 44.873C15.6524 44.7659 15.4416 44.5959 15.2854 44.3804C15.1292 44.165 15.0331 43.9118 15.007 43.647L15 43.5V31.77C8.186 30.583 3 24.654 3 17.5C3 9.492 9.492 3 17.5 3ZM42 8L28.458 8.023C30.66 10.53 32 13.79 32 17.368C32 24.992 25.943 31.208 18.32 31.628L18 31.642V39.647L19.987 37.853C20.522 37.369 21.324 37.337 21.894 37.756L22.014 37.853L25.5 41L28.987 37.852C29.273 37.592 29.637 37.462 30 37.462C30.318 37.4613 30.628 37.5611 30.886 37.747L31.013 37.85L34.5 41L37.987 37.852C38.522 37.368 39.324 37.336 39.894 37.755L40.014 37.852L42 39.646V8ZM37.5 31C37.8852 31.0002 38.2556 31.1486 38.5344 31.4144C38.8132 31.6802 38.979 32.0431 38.9975 32.4279C39.016 32.8127 38.8858 33.1898 38.6338 33.4812C38.3818 33.7726 38.0274 33.9558 37.644 33.993L37.5 34H28.5C28.1148 33.9998 27.7444 33.8514 27.4656 33.5856C27.1868 33.3198 27.021 32.9569 27.0025 32.5721C26.984 32.1873 27.1142 31.8102 27.3662 31.5188C27.6182 31.2274 27.9726 31.0442 28.356 31.007L28.5 31H37.5ZM37.5 25C37.8852 25.0002 38.2556 25.1486 38.5344 25.4144C38.8132 25.6802 38.979 26.0431 38.9975 26.4279C39.016 26.8127 38.8858 27.1898 38.6338 27.4812C38.3818 27.7726 38.0274 27.9558 37.644 27.993L37.5 28H33.5C33.1148 27.9998 32.7444 27.8514 32.4656 27.5856C32.1868 27.3198 32.021 26.9569 32.0025 26.5721C31.984 26.1873 32.1142 25.8102 32.3662 25.5188C32.6182 25.2274 32.9726 25.0442 33.356 25.007L33.5 25H37.5ZM17.5 9C17.1273 8.99999 16.7679 9.13876 16.4919 9.38925C16.2159 9.63974 16.043 9.98402 16.007 10.355L16 10.5V16H10.5L10.356 16.007C9.98497 16.043 9.64063 16.2158 9.39009 16.4918C9.13954 16.7678 9.00074 17.1272 9.00074 17.5C9.00074 17.8728 9.13954 18.2322 9.39009 18.5082C9.64063 18.7842 9.98497 18.957 10.356 18.993L10.5 19H16V24.5L16.007 24.644C16.043 25.015 16.2158 25.3594 16.4918 25.6099C16.7678 25.8605 17.1272 25.9993 17.5 25.9993C17.8728 25.9993 18.2322 25.8605 18.5082 25.6099C18.7842 25.3594 18.957 25.015 18.993 24.644L19 24.5V19H24.5L24.644 18.993C25.015 18.957 25.3594 18.7842 25.6099 18.5082C25.8605 18.2322 25.9993 17.8728 25.9993 17.5C25.9993 17.1272 25.8605 16.7678 25.6099 16.4918C25.3594 16.2158 25.015 16.043 24.644 16.007L24.5 16H19V10.5L18.993 10.355C18.957 9.98402 18.7841 9.63974 18.5081 9.38925C18.2321 9.13876 17.8727 8.99999 17.5 9ZM37.5 19C37.8852 19.0002 38.2556 19.1486 38.5344 19.4144C38.8132 19.6802 38.979 20.0431 38.9975 20.4279C39.016 20.8127 38.8858 21.1898 38.6338 21.4812C38.3818 21.7726 38.0274 21.9558 37.644 21.993L37.5 22H35.5C35.1148 21.9998 34.7444 21.8514 34.4656 21.5856C34.1868 21.3198 34.021 20.9569 34.0025 20.5721C33.984 20.1873 34.1142 19.8102 34.3662 19.5188C34.6182 19.2274 34.9726 19.0442 35.356 19.007L35.5 19H37.5Z" class="svg-primary-fill"/>
  </g>
</svg>
