<svg xmlns="http://www.w3.org/2000/svg" width="48" height="48" viewBox="0 0 48 48">
  <g class="neo-icon-kit--recent-points">
    <path fill="#006FCF" fill-rule="evenodd" d="M24 1.5C30.0116 1.5 35.7507 3.97698 39.8723 8.33591L40.164 8.65045L41.5 10.12V8C41.5 7.2203 42.0949 6.57955 42.8555 6.50687L43 6.5C43.7797 6.5 44.4204 7.09489 44.4931 7.85554L44.5 8L44.4983 14.071L44.4841 14.2183L44.4661 14.3185L44.4102 14.5122L44.3536 14.6472L44.2822 14.7792L44.184 14.9211L44.1014 15.0184L44.0117 15.1075L43.9574 15.1548L43.8452 15.2394L43.7233 15.3145L43.596 15.3769L43.4748 15.4233L43.3273 15.4641L43.2179 15.4843L43.0726 15.4983L43 15.5H37C36.1716 15.5 35.5 14.8284 35.5 14C35.5 13.2203 36.0949 12.5796 36.8555 12.5069L37 12.5H39.609L37.9441 10.6685C34.4666 6.84316 29.5749 4.61905 24.4186 4.50464L24 4.5C13.2304 4.5 4.5 13.2304 4.5 24C4.5 34.7696 13.2304 43.5 24 43.5C34.655 43.5 43.314 34.9543 43.497 24.343L43.5 24V23C43.5 22.1716 44.1716 21.5 45 21.5C45.7797 21.5 46.4204 22.0949 46.4931 22.8555L46.5 23V24C46.5 36.4264 36.4264 46.5 24 46.5C11.5736 46.5 1.5 36.4264 1.5 24C1.5 11.5736 11.5736 1.5 24 1.5ZM25.2499 12.7782L28.2026 18.771L34.8051 19.732C35.9483 19.8984 36.4048 21.3056 35.5776 22.1133L30.7999 26.7781L31.9278 33.3648C32.1231 34.5053 30.928 35.375 29.9055 34.8365L24 31.7267L18.0945 34.8365C17.072 35.375 15.8769 34.5053 16.0722 33.3648L17.2 26.7781L12.4224 22.1133C11.5952 21.3056 12.0517 19.8984 13.1949 19.732L19.7974 18.771L22.7501 12.7782C23.2614 11.7406 24.7386 11.7406 25.2499 12.7782ZM21.5279 20.9377L24 16L26.4721 20.9377L32 21.7295L28 25.5729L28.9443 31L24 28.4377L19.0557 31L20 25.5729L16 21.7295L21.5279 20.9377Z" class="svg-primary-fill" clip-rule="evenodd"/>
  </g>
</svg>
