<svg xmlns="http://www.w3.org/2000/svg" width="48" height="48" viewBox="0 0 48 48">
  <g class="neo-icon-kit--receipt-paper-filled">
    <path fill="#006FCF" fill-rule="evenodd" d="M3.00004 0C1.34319 0 4.36149e-05 1.34315 4.36149e-05 3L6.99598e-07 40.463C-0.0300513 40.8085 0.07646 41.1563 0.378929 41.4965C0.929306 42.1157 1.87742 42.1715 2.49659 41.6211L6.00004 38.5069L8.83913 41.0306C9.78635 41.8725 11.2137 41.8725 12.161 41.0306L15 38.5069L17.8391 41.0306C18.7863 41.8725 20.2137 41.8725 21.161 41.0306L24 38.5069C25.049 39.3623 28.051 41.9316 28.051 41.9316C28.051 41.9316 29.064 43.0926 29.446 43.611L29.864 44.191C31.306 46.091 33.278 47.311 35.664 47.791C38.413 48.337 40.995 47.753 43.297 46.085L44.237 45.379L45.187 44.637L46.315 43.737C47.1706 43.0471 47.7459 42.0695 47.9336 40.9866C48.1212 39.9037 47.9085 38.7896 47.335 37.852L46.639 36.726L46.463 36.446L45.983 35.691L45.571 35.066L45.335 34.721C44.687 33.795 44.295 32.838 44.155 31.815L44.041 30.898L43.991 30.441L43.919 29.671L43.619 26.014L43.584 25.644L43.392 23.99C43.156 22.412 42.302 20.775 41.142 19.59C40.176 18.642 38.996 17.679 37.716 16.752L37.306 16.466L36.982 16.253L36.292 15.818L35.749 15.488L34.387 14.684L30.57 12.486L30 12.208L30 3C30 1.34315 28.6569 0 27 0H3.00004ZM30 22.99V28.728L31.17 29.688C31.407 29.895 31.498 29.938 31.667 29.828L31.735 29.78L31.885 29.66C32.708 28.963 33.149 28.027 33.285 26.773C33.387 25.613 33.303 25.147 32.873 24.647L32.798 24.577L32.658 24.471L32.46 24.334L32.11 24.112L31.86 23.965L30 22.99ZM30 19.366L29.99 15.632L29.995 15.643L32.855 17.289L33.41 17.614C34.657 18.34 35.477 18.856 35.957 19.204L36.343 19.487C37.361 20.245 38.287 21.015 39.021 21.733C39.725 22.455 40.279 23.515 40.415 24.433L40.505 25.157L40.595 26.014L40.687 27.052L40.923 29.98L40.956 30.346L41.022 31.009L41.092 31.623L41.172 32.239C41.362 33.641 41.868 34.945 42.662 36.165L43.166 36.909L43.302 37.116L43.602 37.581L43.94 38.114L44.766 39.447L44.838 39.577C44.9854 39.8838 45.0248 40.2314 44.9498 40.5634C44.8748 40.8954 44.6899 41.1923 44.425 41.406L42.921 42.603L42.249 43.123L41.863 43.415L41.527 43.663C39.899 44.853 38.168 45.243 36.251 44.863C34.505 44.511 33.135 43.63 32.138 42.203L31.89 41.857L31.756 41.677C31.2701 41.0304 30.7081 40.3676 30 39.6069L27 36.5945L26.876 36.474L24.123 33.839L23.056 32.803C21.36 31.142 20.388 30.098 19.656 29.138L19.42 28.82L19.226 28.545C18.9004 28.0783 18.7771 27.5165 18.8766 27C18.9724 26.5028 19.2747 26.0474 19.802 25.759C20.2209 25.5301 20.6133 25.4197 20.9979 25.4199C21.7021 25.4202 22.3803 25.791 23.148 26.483L27 30.0025L30 32.5284C31.2535 33.1796 32.5903 33.0091 33.82 31.979C35.283 30.739 36.06 29.089 36.278 27.079C36.448 25.145 36.23 23.933 35.15 22.679C34.905 22.394 34.587 22.134 34.17 21.854L33.68 21.541L33.32 21.328L31.813 20.491L31.387 20.251C30.72 19.868 30.276 19.582 30.05 19.406L30 19.366ZM19.5 12H10.5C9.67162 12 9.00004 12.6716 9.00004 13.5C9.00004 14.3284 9.67162 15 10.5 15H19.5C20.3285 15 21 14.3284 21 13.5C21 12.6716 20.3285 12 19.5 12ZM10.5 18H19.5C20.3285 18 21 18.6716 21 19.5C21 20.3284 20.3285 21 19.5 21H10.5C9.67162 21 9.00004 20.3284 9.00004 19.5C9.00004 18.6716 9.67162 18 10.5 18ZM11.9999 24H10.4999C9.67145 24 8.99988 24.6716 8.99988 25.5C8.99988 26.3284 9.67145 27 10.4999 27H11.9999C12.8283 27 13.4999 26.3284 13.4999 25.5C13.4999 24.6716 12.8283 24 11.9999 24Z" class="svg-primary-fill" clip-rule="evenodd"/>
  </g>
</svg>
