<svg xmlns="http://www.w3.org/2000/svg" width="48" height="48" viewBox="0 0 48 48">
  <g class="neo-icon-kit--receipt-paper">
    <g fill="#006FCF" class="svg-primary-fill">
      <path d="M9 13.5C9 12.672 9.672 12 10.5 12H19.5C20.329 12 21 12.672 21 13.5 21 14.328 20.329 15 19.5 15H10.5C9.672 15 9 14.328 9 13.5ZM9 19.5C9 18.672 9.672 18 10.5 18H19.5C20.329 18 21 18.672 21 19.5 21 20.328 20.329 21 19.5 21H10.5C9.672 21 9 20.328 9 19.5Z"/>
      <path fill-rule="evenodd" d="M4.36149e-05 3C4.36149e-05 1.34315 1.34319 0 3.00004 0H27C28.6569 0 30 1.34315 30 3L30 12.208L30.57 12.486L34.387 14.684L35.749 15.488L36.292 15.818L36.982 16.253L37.306 16.466L37.716 16.752C38.996 17.679 40.176 18.642 41.142 19.59C42.302 20.775 43.156 22.412 43.392 23.99L43.584 25.644L43.619 26.014L43.919 29.671L43.991 30.441L44.041 30.898L44.155 31.815C44.295 32.838 44.687 33.795 45.335 34.721L45.571 35.066L45.983 35.691L46.463 36.446L46.639 36.726L47.335 37.852C47.9085 38.7896 48.1212 39.9037 47.9336 40.9866C47.7459 42.0695 47.1706 43.0471 46.315 43.737L45.187 44.637L44.237 45.379L43.297 46.085C40.995 47.753 38.413 48.337 35.664 47.791C33.278 47.311 31.306 46.091 29.864 44.191L29.446 43.611C29.064 43.0926 28.051 41.9316 28.051 41.9316C28.051 41.9316 25.049 39.3623 24 38.5069L21.161 41.0306C20.2137 41.8725 18.7863 41.8725 17.8391 41.0306L15 38.5069L12.161 41.0306C11.2137 41.8725 9.78635 41.8725 8.83913 41.0306L6.00004 38.5069L2.49659 41.6211C1.87742 42.1715 0.929306 42.1157 0.378929 41.4965C0.07646 41.1563 -0.0300513 40.8085 6.99598e-07 40.463L4.36149e-05 3ZM30 28.728V22.99L31.86 23.965L32.11 24.112L32.46 24.334L32.658 24.471L32.798 24.577L32.873 24.647C33.303 25.147 33.387 25.613 33.285 26.773C33.149 28.027 32.708 28.963 31.885 29.66L31.735 29.78L31.667 29.828C31.498 29.938 31.407 29.895 31.17 29.688L30 28.728ZM29.99 15.632L30 19.366L30.05 19.406C30.276 19.582 30.72 19.868 31.387 20.251L31.813 20.491L33.32 21.328L33.68 21.541L34.17 21.854C34.587 22.134 34.905 22.394 35.15 22.679C36.23 23.933 36.448 25.145 36.278 27.079C36.06 29.089 35.283 30.739 33.82 31.979C32.5903 33.0091 31.2535 33.1796 30 32.5284L27 30.0025L23.148 26.483C22.3803 25.791 21.7021 25.4202 20.9979 25.4199C20.6133 25.4197 20.2209 25.5301 19.802 25.759C19.2747 26.0474 18.9724 26.5028 18.8766 27C18.7771 27.5165 18.9004 28.0783 19.226 28.545L19.42 28.82L19.656 29.138C20.388 30.098 21.36 31.142 23.056 32.803L24.123 33.839L26.876 36.474L27 36.5945L30 39.6069C30.7081 40.3676 31.2701 41.0304 31.756 41.677L31.89 41.857L32.138 42.203C33.135 43.63 34.505 44.511 36.251 44.863C38.168 45.243 39.899 44.853 41.527 43.663L41.863 43.415L42.249 43.123L42.921 42.603L44.425 41.406C44.6899 41.1923 44.8748 40.8954 44.9498 40.5634C45.0248 40.2314 44.9854 39.8838 44.838 39.577L44.766 39.447L43.94 38.114L43.602 37.581L43.302 37.116L43.166 36.909L42.662 36.165C41.868 34.945 41.362 33.641 41.172 32.239L41.092 31.623L41.022 31.009L40.956 30.346L40.923 29.98L40.687 27.052L40.595 26.014L40.505 25.157L40.415 24.433C40.279 23.515 39.725 22.455 39.021 21.733C38.287 21.015 37.361 20.245 36.343 19.487L35.957 19.204C35.477 18.856 34.657 18.34 33.41 17.614L32.855 17.289L29.995 15.643L29.99 15.632ZM27 3H3.00004V37.1597L4.33913 35.9694C5.28635 35.1275 6.71374 35.1275 7.66095 35.9694L10.5 38.4931L13.3391 35.9694C14.2863 35.1275 15.7137 35.1275 16.661 35.9694L19.5 38.4931L22.2656 36.0348L22.232 36L19 33C18.3249 32.3043 17.7009 31.5607 17.133 30.775L16.955 30.53L16.755 30.243C16.0852 29.2844 15.7679 28.1299 15.8396 27C15.8396 25.5 16.4999 24.647 17.1628 24C17.497 23.657 17.896 23.3503 18.362 23.093C20.906 21.701 23.138 22.39 25.178 24.233L27 25.9125V3ZM10.5 12H19.5C20.3285 12 21 12.6716 21 13.5C21 14.3284 20.3285 15 19.5 15H10.5C9.67162 15 9.00004 14.3284 9.00004 13.5C9.00004 12.6716 9.67162 12 10.5 12ZM10.5 18H19.5C20.3285 18 21 18.6716 21 19.5C21 20.3284 20.3285 21 19.5 21H10.5C9.67162 21 9.00004 20.3284 9.00004 19.5C9.00004 18.6716 9.67162 18 10.5 18Z" clip-rule="evenodd"/>
      <path d="M8.99988 25.5C8.99988 24.6716 9.67145 24 10.4999 24H11.9999C12.8283 24 13.4999 24.6716 13.4999 25.5C13.4999 26.3284 12.8283 27 11.9999 27H10.4999C9.67145 27 8.99988 26.3284 8.99988 25.5Z"/>
    </g>
  </g>
</svg>
