<svg xmlns="http://www.w3.org/2000/svg" width="48" height="48" viewBox="0 0 48 48">
  <g class="neo-icon-kit--recommended">
    <path fill="#006FCF" fill-rule="evenodd" d="M42 19C42 9.05887 33.9411 1 24 1C14.0589 1 6 9.05887 6 19C6 22.4381 6.96391 25.651 8.63622 28.3833L1.34151 37.1048L1.26177 37.2087C0.618999 38.1243 1.22335 39.4157 2.38402 39.4973L8.90269 39.9557L10.2873 45.8635L10.3233 45.9919C10.6784 47.0741 12.1352 47.3689 12.8888 46.4615L20.9601 36.7444C21.9483 36.9125 22.9639 37 24 37C25.0361 37 26.0517 36.9125 27.0399 36.7444L35.1112 46.4615C35.8938 47.4039 37.4347 47.0497 37.7127 45.8635L39.0973 39.9557L45.616 39.4973C46.8213 39.4125 47.4267 38.0232 46.6585 37.1048L39.3638 28.3833C41.0361 25.651 42 22.4381 42 19ZM5.4707 36.777L10.4389 30.8364C12.4118 33.095 14.9399 34.8563 17.8103 35.9075L12.5051 42.2954L11.5551 38.2422L11.5177 38.1106C11.3298 37.5519 10.8166 37.153 10.2114 37.1104L5.4707 36.777ZM30.1899 35.9075L35.4951 42.2954L36.4451 38.2422C36.592 37.6154 37.1371 37.1562 37.7888 37.1104L42.5295 36.777L37.5613 30.8364C35.5884 33.095 33.0603 34.8563 30.1899 35.9075ZM9 19C9 10.7157 15.7157 4 24 4C32.2843 4 39 10.7157 39 19C39 27.2843 32.2843 34 24 34C15.7157 34 9 27.2843 9 19ZM25.1457 8.71057L27.8524 14.1822L33.9047 15.0597C34.9526 15.2116 35.3711 16.4965 34.6128 17.2339L30.2333 21.493L31.2671 27.507C31.4462 28.5483 30.3507 29.3424 29.4133 28.8507L24 26.0113L18.5867 28.8507C17.6493 29.3424 16.5538 28.5483 16.7329 27.507L17.7667 21.493L13.3872 17.2339C12.6289 16.4965 13.0474 15.2116 14.0953 15.0597L20.1476 14.1822L22.8543 8.71057C23.3229 7.76314 24.6771 7.76314 25.1457 8.71057ZM21.8369 16.2793L24 12L26.1631 16.2793L31 16.9656L27.5 20.2966L28.3262 25L24 22.7793L19.6738 25L20.5 20.2966L17 16.9656L21.8369 16.2793Z" class="svg-primary-fill" clip-rule="evenodd"/>
  </g>
</svg>
