<svg xmlns="http://www.w3.org/2000/svg" width="48" height="48" viewBox="0 0 48 48">
  <g class="neo-icon-kit--recommended-filled">
    <path fill="#006FCF" fill-rule="evenodd" d="M24 1C33.9411 1 42 9.05887 42 19L41.9923 19.533C41.9753 20.1179 41.9303 20.6959 41.8588 21.2657L41.7998 21.6934L41.736 22.0886L41.6299 22.649C41.5651 22.9636 41.4921 23.2752 41.4112 23.5836L41.2838 24.0438L41.1529 24.473L41.0116 24.8976L40.8824 25.2578C40.7374 25.6489 40.579 26.034 40.4079 26.4121L40.2352 26.7825L40.021 27.2136L39.8292 27.5768L39.6292 27.9352L39.3735 28.3675C36.6893 32.7634 32.1724 35.9183 26.8848 36.7701L26.5326 36.8232L26.1056 36.8782L25.5855 36.9311L25.1309 36.9651C24.9291 36.9776 24.7265 36.9867 24.523 36.9925L24.5342 36.9921L24.511 36.9929L24 37L23.489 36.9929L23.4777 36.9926C23.3175 36.988 23.1575 36.9813 22.9984 36.9726L23.0505 36.9748L22.8687 36.965L22.414 36.9311L21.894 36.8781L21.6733 36.851L21.237 36.7893L21.007 36.7523C15.6465 35.8552 11.0885 32.5888 8.44661 28.0663L8.25672 27.7331L8.03361 27.3191L7.82108 26.8987L7.59173 26.4114C7.45935 26.1188 7.33444 25.8217 7.21735 25.5205L7.04764 25.0658L6.93375 24.7375L6.79784 24.3159L6.67206 23.8896C6.55722 23.4818 6.45637 23.0681 6.37009 22.649L6.26398 22.0886L6.20016 21.6934C6.11656 21.1363 6.05848 20.5706 6.02719 19.9978L6.00487 19.4229L6 19C6 9.16933 13.8808 1.17932 23.6693 1.00298L24 1ZM6.62128 30.7927L1.34151 37.1048L1.26177 37.2087C0.618999 38.1244 1.22335 39.4157 2.38402 39.4974L8.90269 39.9558L10.2873 45.8636L10.3233 45.9919C10.6784 47.0742 12.1352 47.369 12.8888 46.4615L18.7962 39.3503C13.7653 38.0677 9.46043 34.9686 6.62128 30.7927ZM46.6583 37.1048L41.3785 30.7927L41.1164 31.1694C38.2778 35.1548 34.0821 38.1066 29.2036 39.3503L35.111 46.4615C35.8936 47.4039 37.4345 47.0498 37.7125 45.8636L39.0971 39.9558L45.6158 39.4974C46.8211 39.4126 47.4265 38.0233 46.6583 37.1048ZM22.8543 8.71057L22.9203 8.59236L22.9993 8.48006C23.557 7.77065 24.7188 7.84749 25.1457 8.71057L27.8524 14.1822L33.9047 15.0597L34.0274 15.0832C34.9842 15.3135 35.3407 16.526 34.6128 17.2339L30.2333 21.493L31.2671 27.507L31.2822 27.626C31.3621 28.6075 30.3146 29.3235 29.4133 28.8507L24 26.0113L18.5867 28.8507L18.4779 28.9018C17.567 29.2809 16.5607 28.5082 16.7329 27.507L17.7667 21.493L13.3872 17.2339L13.3018 17.1429C12.6634 16.3955 13.0893 15.2055 14.0953 15.0597L20.1476 14.1822L22.8543 8.71057Z" class="svg-primary-fill" clip-rule="evenodd"/>
  </g>
</svg>
