<svg xmlns="http://www.w3.org/2000/svg" width="48" height="48" viewBox="0 0 48 48">
  <g class="neo-icon-kit--recurring-interest">
    <path fill="#006FCF" d="M45 21.5C45.3729 21.5 45.7324 21.6389 46.0084 21.8896C46.2844 22.1403 46.4572 22.4848 46.493 22.856L46.5 23V24C46.5 36.302 36.627 46.298 24.372 46.497L24 46.5L23.568 46.496C20.3666 46.4349 17.2147 45.6941 14.3211 44.3229C11.4276 42.9516 8.85849 40.9811 6.784 38.542L6.5 38.203V40C6.49998 40.3729 6.36108 40.7324 6.11038 41.0084C5.85968 41.2844 5.51516 41.4572 5.144 41.493L5 41.5C4.62727 41.5 4.2679 41.3612 3.99189 41.1108C3.71589 40.8603 3.54303 40.516 3.507 40.145L3.5 40V34C3.5 33.753 3.559 33.521 3.665 33.316L3.733 33.197L3.8 33.1L3.888 32.994L3.982 32.899L4.063 32.829L4.165 32.754L4.284 32.682L4.312 32.667C4.3961 32.6234 4.48416 32.5879 4.575 32.561L4.763 32.518L4.895 32.503L4.959 32.5H11C11.3852 32.5002 11.7556 32.6486 12.0344 32.9144C12.3132 33.1802 12.479 33.5431 12.4975 33.9279C12.516 34.3127 12.3858 34.6898 12.1338 34.9812C11.8818 35.2726 11.5274 35.4558 11.144 35.493L11 35.5H8.165L8.829 36.311C10.6237 38.5048 12.8729 40.2832 15.4215 41.5236C17.97 42.7641 20.7572 43.437 23.591 43.496L24.001 43.5C34.656 43.5 43.315 34.954 43.498 24.343L43.5 24V23C43.5 22.6022 43.658 22.2206 43.9393 21.9393C44.2206 21.658 44.6022 21.5 45 21.5ZM30.998 25C31.4956 25.0007 31.9897 25.0824 32.461 25.242C35.101 26.13 36.587 29.204 35.78 32.108C35.122 34.476 33.142 36 31.002 36C30.5044 35.9993 30.0103 35.9176 29.539 35.758C26.899 34.87 25.413 31.796 26.22 28.892C26.878 26.524 28.859 25 30.999 25H30.998ZM31.86 12.771C32.1858 12.9992 32.4076 13.3475 32.4766 13.7393C32.5456 14.131 32.4562 14.5342 32.228 14.86L18.228 34.86C17.937 35.277 17.471 35.5 16.999 35.5C16.6916 35.5004 16.3915 35.4058 16.14 35.229C15.8142 35.0008 15.5924 34.6525 15.5234 34.2607C15.4544 33.869 15.5438 33.4658 15.772 33.14L29.772 13.14C29.8849 12.9786 30.0286 12.841 30.1947 12.7351C30.3608 12.6293 30.5461 12.5571 30.7401 12.5228C30.9341 12.4886 31.1329 12.4929 31.3252 12.5354C31.5175 12.578 31.6986 12.6581 31.86 12.771ZM30.999 28C30.164 28 29.388 28.697 29.11 29.696C28.731 31.061 29.365 32.535 30.495 32.915C30.6583 32.9706 30.8295 32.9994 31.002 33C31.836 33 32.613 32.303 32.89 31.304C33.269 29.939 32.635 28.465 31.505 28.085C31.3421 28.0291 31.1712 28.0004 30.999 28ZM24.001 1.5L24.43 1.504C27.3269 1.56102 30.1835 2.19372 32.8336 3.36526C35.4836 4.5368 37.8741 6.22378 39.866 8.328L40.165 8.65L41.5 10.12V8C41.5 7.62727 41.6388 7.2679 41.8892 6.99189C42.1397 6.71589 42.484 6.54303 42.855 6.507L43 6.5C43.3729 6.50002 43.7324 6.63892 44.0084 6.88962C44.2844 7.14032 44.4572 7.48484 44.493 7.856L44.5 8L44.498 14.071L44.484 14.218L44.466 14.318L44.41 14.512L44.353 14.647L44.282 14.779L44.184 14.921L44.101 15.018L44.009 15.11L43.957 15.155L43.845 15.24L43.723 15.315L43.596 15.377L43.475 15.423L43.328 15.464L43.219 15.484L43.074 15.498L37 15.5C36.6147 15.5001 36.2441 15.3519 35.9652 15.0861C35.6862 14.8204 35.5201 14.4574 35.5015 14.0726C35.4829 13.6877 35.613 13.3105 35.865 13.019C36.117 12.7275 36.4715 12.5442 36.855 12.507L37 12.5H39.609L37.944 10.668C36.2249 8.77742 34.1394 7.2561 31.8142 6.19646C29.489 5.13683 26.9726 4.56101 24.418 4.504L24 4.5L23.657 4.503C13.16 4.684 4.684 13.16 4.503 23.657L4.5 24V25C4.50007 25.3853 4.35186 25.7559 4.08611 26.0348C3.82035 26.3138 3.45744 26.4799 3.07258 26.4985C2.68773 26.5171 2.31046 26.387 2.01899 26.135C1.72751 25.883 1.54418 25.5285 1.507 25.145L1.5 25V24C1.5 11.698 11.373 1.702 23.628 1.503L24.001 1.5ZM16.998 12C17.4956 12.0007 17.9897 12.0824 18.461 12.242C21.101 13.13 22.587 16.204 21.78 19.108C21.122 21.476 19.142 23 17.002 23C16.5044 22.9993 16.0103 22.9176 15.539 22.758C12.899 21.87 11.413 18.796 12.22 15.892C12.878 13.524 14.859 12 16.999 12H16.998ZM16.999 15C16.164 15 15.388 15.697 15.11 16.696C14.731 18.061 15.365 19.535 16.495 19.915C16.6583 19.9706 16.8295 19.9994 17.002 20C17.836 20 18.613 19.303 18.89 18.304C19.269 16.939 18.635 15.465 17.505 15.085C17.3421 15.0291 17.1712 15.0004 16.999 15Z" class="svg-primary-fill"/>
  </g>
</svg>
