<svg xmlns="http://www.w3.org/2000/svg" width="48" height="48" viewBox="0 0 48 48">
  <g class="neo-icon-kit--recurring-interest-filled">
    <path fill="#006FCF" d="M45 21C45.5047 20.9999 45.9909 21.1906 46.3609 21.5339C46.7309 21.8772 46.9574 22.3477 46.995 22.851L47 23V24C47 36.576 36.907 46.794 24.38 46.997L24 47L23.567 46.996C20.4449 46.9374 17.3671 46.2466 14.5195 44.9653C11.6719 43.684 9.11353 41.8387 6.999 39.541V40C7.00105 40.5189 6.80135 41.0183 6.44208 41.3927C6.0828 41.767 5.59209 41.9872 5.07356 42.0065C4.55503 42.0258 4.04928 41.8429 3.66312 41.4963C3.27695 41.1497 3.04061 40.6666 3.004 40.149L2.999 40V33.954L3.009 33.794L3.019 33.709L3.043 33.575L3.083 33.421L3.132 33.279L3.191 33.142L3.292 32.956L3.321 32.91C3.40204 32.7856 3.49662 32.6706 3.603 32.567L3.672 32.503L3.749 32.438L3.882 32.34L4.014 32.258C4.10069 32.209 4.19095 32.1665 4.284 32.131L4.474 32.069L4.612 32.037L4.762 32.013L4.918 32.001L10.999 32C11.5155 32.0015 12.0115 32.2027 12.383 32.5616C12.7544 32.9205 12.9727 33.4093 12.9919 33.9254C13.0112 34.4416 12.83 34.9452 12.4863 35.3308C12.1426 35.7164 11.663 35.954 11.148 35.994L10.999 35.999L9.22 36C12.849 40.431 18.273 43 24 43C34.381 43 42.817 34.675 42.997 24.338L43 24V23C42.9999 22.4953 43.1906 22.0091 43.5339 21.6391C43.8772 21.2691 44.3477 21.0426 44.851 21.005L45 21ZM30.998 25C31.4956 25.0007 31.9897 25.0824 32.461 25.242C35.101 26.13 36.587 29.204 35.78 32.108C35.122 34.476 33.142 36 31.002 36C30.5044 35.9993 30.0103 35.9176 29.539 35.758C26.899 34.87 25.413 31.796 26.22 28.892C26.878 26.524 28.859 25 30.999 25H30.998ZM31.86 12.771C32.1858 12.9992 32.4076 13.3475 32.4766 13.7393C32.5456 14.131 32.4562 14.5342 32.228 14.86L18.228 34.86C17.937 35.277 17.471 35.5 16.999 35.5C16.6916 35.5004 16.3915 35.4058 16.14 35.229C15.8142 35.0008 15.5924 34.6525 15.5234 34.2607C15.4544 33.869 15.5438 33.4658 15.772 33.14L29.772 13.14C29.8849 12.9786 30.0286 12.841 30.1947 12.7351C30.3608 12.6293 30.5461 12.5571 30.7401 12.5228C30.9341 12.4886 31.1329 12.4929 31.3252 12.5354C31.5175 12.578 31.6986 12.6581 31.86 12.771ZM30.999 28C30.164 28 29.388 28.697 29.11 29.696C28.731 31.061 29.365 32.535 30.495 32.915C30.6583 32.9706 30.8295 32.9994 31.002 33C31.836 33 32.613 32.303 32.89 31.304C33.269 29.939 32.635 28.465 31.505 28.085C31.3421 28.0291 31.1712 28.0004 30.999 28ZM24 1L24.428 1.004C27.3948 1.06089 30.3205 1.70811 33.0345 2.9079C35.7484 4.10769 38.1962 5.83601 40.235 7.992L40.533 8.314L40.999 8.828V8C40.9991 7.49544 41.1899 7.00956 41.5332 6.63977C41.8765 6.26997 42.3468 6.04359 42.85 6.006L43 6C43.5047 5.99986 43.9909 6.19056 44.3609 6.53386C44.7309 6.87716 44.9574 7.34767 44.995 7.851L45 8V14L44.995 14.149L44.982 14.27L44.956 14.419L44.915 14.58L44.886 14.668L44.828 14.814L44.751 14.968C44.7045 15.052 44.6521 15.1325 44.594 15.209L44.517 15.304L44.406 15.422L44.339 15.486L44.213 15.59L44.061 15.695L43.917 15.777L43.764 15.848L43.609 15.905L43.46 15.946L43.304 15.976L43.155 15.993L43 16H37C36.4811 16.002 35.9817 15.8023 35.6073 15.4431C35.233 15.0838 35.0128 14.5931 34.9935 14.0746C34.9742 13.556 35.1571 13.0503 35.5037 12.6641C35.8503 12.278 36.3334 12.0416 36.851 12.005L37 12H38.479L37.574 11.005C35.902 9.16574 33.8737 7.68547 31.6121 6.65405C29.3506 5.62264 26.903 5.0616 24.418 5.005L24 5L23.662 5.003C13.438 5.181 5.183 13.435 5.003 23.659L5 24V25C5.00205 25.5189 4.80235 26.0183 4.44308 26.3927C4.0838 26.767 3.59309 26.9872 3.07456 27.0065C2.55603 27.0258 2.05028 26.8429 1.66412 26.4963C1.27795 26.1497 1.04161 25.6666 1.005 25.149L1 25.001V24.001C1 11.425 11.093 1.207 23.62 1.004L24 1ZM16.998 12C17.4956 12.0007 17.9897 12.0824 18.461 12.242C21.101 13.13 22.587 16.204 21.78 19.108C21.122 21.476 19.142 23 17.002 23C16.5044 22.9993 16.0103 22.9176 15.539 22.758C12.899 21.87 11.413 18.796 12.22 15.892C12.878 13.524 14.859 12 16.999 12H16.998ZM16.999 15C16.164 15 15.388 15.697 15.11 16.696C14.731 18.061 15.365 19.535 16.495 19.915C16.6583 19.9706 16.8295 19.9994 17.002 20C17.836 20 18.613 19.303 18.89 18.304C19.269 16.939 18.635 15.465 17.505 15.085C17.3421 15.0291 17.1712 15.0004 16.999 15Z" class="svg-primary-fill"/>
  </g>
</svg>
