<svg xmlns="http://www.w3.org/2000/svg" width="48" height="48" viewBox="0 0 48 48">
  <g class="neo-icon-kit--refer">
    <path fill="#006FCF" d="M40.419 26.331L40.53 26.433L44.5 30.435C45.127 31.068 45.164 32.071 44.614 32.745L44.504 32.868L40.53 36.873C40.3944 37.0099 40.2331 37.1185 40.0552 37.1927C39.8774 37.2668 39.6867 37.305 39.494 37.305C39.119 37.305 38.744 37.16 38.459 36.873C38.2024 36.6133 38.0503 36.2682 38.0319 35.9036C38.0134 35.5389 38.1299 35.1803 38.359 34.896L38.459 34.784L40.159 33.071H28.176C27.416 33.071 26.789 33.657 26.718 34.405L26.711 34.547V43.524C26.711 44.339 26.055 45 25.246 45C24.8807 44.9986 24.5289 44.8612 24.2594 44.6146C23.9898 44.3679 23.8218 44.0298 23.788 43.666L23.782 43.524V34.547C23.782 32.175 25.642 30.232 27.969 30.123L28.176 30.118H40.044L38.459 28.52C38.1843 28.2422 38.0302 27.8672 38.0302 27.4765C38.0302 27.0858 38.1843 26.7108 38.459 26.433C38.7142 26.1747 39.0566 26.021 39.4192 26.0021C39.7818 25.9833 40.1384 26.1005 40.419 26.331ZM20.953 3L21.283 3.003L21.671 3.025L22.018 3.059L22.398 3.111C24.733 3.481 28.778 5.016 29.22 11.124L29.247 11.536L29.274 11.868L29.294 12.227L29.307 12.529C29.377 14.743 29.168 19.918 25.993 22.661C26.033 22.984 26.077 23.112 26.13 23.331L26.206 23.712L26.296 24.117C26.506 25.011 26.821 25.972 27.249 26.305L27.371 26.383L28.663 27.117H28.176C24.115 27.117 20.813 30.447 20.813 34.547L20.812 38.999H5.407C4.15 39 3.13 38.012 3 36.75C3.177 34.316 3.895 32.53 6.565 30.892L8.342 29.816C11.57 27.881 14.274 26.372 14.274 26.372C14.891 26.049 15.248 24.464 15.454 23.374L15.557 22.989L15.631 22.662C11.519 19.11 12.382 11.482 12.382 11.482C12.748 3.872 18.577 3.062 20.355 3.004L20.675 3.001L20.812 3.006L20.952 3.001L20.953 3ZM20.571 5.998L20.329 6.005L20.069 6.024C19.28 6.098 18.391 6.344 17.633 6.812C16.405 7.569 15.609 8.837 15.392 11.021L15.366 11.324L15.348 11.626L15.313 12.041L15.285 12.568C15.229 14.028 15.353 15.668 15.76 17.164C16.092 18.381 16.579 19.352 17.213 20.044L17.39 20.225L17.56 20.38L18.886 21.526L18.541 23.254L18.464 23.61L18.35 24.037L18.301 24.287L18.231 24.624C18.161 24.952 18.086 25.258 18.004 25.551L17.92 25.84L17.83 26.122L17.744 26.369C17.369 27.412 16.904 28.204 16.115 28.752L15.911 28.884L14.434 29.719L14.092 29.914L12.308 30.946C10.888 31.774 9.468 32.621 8.106 33.456C6.988 34.141 6.449 34.709 6.181 35.6L6.131 35.783L6.081 35.999L17.843 35.997L17.844 34.547C17.8402 32.624 18.3677 30.7372 19.3682 29.0949C20.3687 27.4527 21.8034 26.1186 23.514 25.24C23.464 25.0505 23.4173 24.8601 23.374 24.669L23.31 24.374L23.235 24.002L23.155 23.672L23.115 23.474L23.08 23.268L23.048 23.043L22.844 21.434L24.064 20.38L24.234 20.225C24.954 19.527 25.501 18.491 25.863 17.165C26.23 15.817 26.367 14.354 26.35 13.011L26.338 12.568L26.31 12.041L26.276 11.626L26.257 11.316C26.087 8.977 25.297 7.634 24.052 6.841C23.309 6.367 22.43 6.112 21.628 6.029L21.364 6.009L21.107 5.999L20.972 6L20.807 6.01L20.651 6L20.571 5.998Z" class="svg-primary-fill"/>
  </g>
</svg>
