<svg xmlns="http://www.w3.org/2000/svg" width="48" height="48" viewBox="0 0 48 48">
  <g class="neo-icon-kit--refer-filled">
    <path fill="#006FCF" d="M40.419 26.331L40.53 26.433L44.5 30.435C45.127 31.068 45.164 32.071 44.614 32.745L44.504 32.868L40.53 36.873C40.3944 37.0099 40.2331 37.1185 40.0552 37.1927C39.8774 37.2668 39.6867 37.305 39.494 37.305C39.119 37.305 38.744 37.16 38.459 36.873C38.2024 36.6133 38.0503 36.2682 38.0319 35.9036C38.0134 35.5389 38.1299 35.1803 38.359 34.896L38.459 34.784L40.159 33.071H28.176C27.416 33.071 26.789 33.657 26.718 34.405L26.711 34.547V43.524C26.711 44.339 26.055 45 25.246 45C24.8807 44.9986 24.5289 44.8612 24.2594 44.6146C23.9898 44.3679 23.8218 44.0298 23.788 43.666L23.782 43.524V34.547C23.782 32.175 25.642 30.232 27.969 30.123L28.176 30.118H40.044L38.459 28.52C38.1843 28.2422 38.0302 27.8672 38.0302 27.4765C38.0302 27.0858 38.1843 26.7108 38.459 26.433C38.7142 26.1747 39.0566 26.021 39.4192 26.0021C39.7818 25.9833 40.1384 26.1005 40.419 26.331ZM20.953 3L21.283 3.003L21.671 3.025L22.018 3.059L22.398 3.111C24.733 3.481 28.778 5.016 29.22 11.124L29.247 11.536L29.274 11.868L29.294 12.227L29.307 12.529C29.377 14.743 29.168 19.918 25.993 22.661C26.033 22.984 26.077 23.112 26.13 23.331L26.206 23.712L26.296 24.117C26.506 25.011 26.821 25.972 27.249 26.305L27.371 26.383L28.663 27.117H28.176C24.115 27.117 20.813 30.447 20.813 34.547L20.812 38.999H5.407C4.15 39 3.13 38.012 3 36.75C3.177 34.316 3.895 32.53 6.565 30.892L8.342 29.816C11.57 27.881 14.274 26.372 14.274 26.372C14.891 26.049 15.248 24.464 15.454 23.374L15.557 22.989L15.631 22.662C11.519 19.11 12.382 11.482 12.382 11.482C12.748 3.872 18.577 3.062 20.355 3.004L20.675 3.001L20.812 3.006L20.952 3.001L20.953 3Z" class="svg-primary-fill"/>
  </g>
</svg>
