<svg xmlns="http://www.w3.org/2000/svg" width="48" height="48" viewBox="0 0 48 48">
  <g class="neo-icon-kit--refreshment">
    <path fill="#006FCF" fill-rule="evenodd" d="M7.76632 0.0240547C7.01452 -0.112338 6.26815 0.342971 6.05663 1.09338C5.8319 1.8907 6.29607 2.71923 7.09339 2.94396L15.2263 5.23631L17.717 11.999L12.8688 12.0046C11.194 12.0965 9.91172 13.5121 10.0048 15.1664L12.6921 45.1664C12.7815 46.7562 14.1126 48 15.7245 48H32.2755C33.8875 48 35.2186 46.7562 35.308 45.1664L37.8528 17.7085C40.2598 16.9278 42 14.6671 42 12C42 8.68629 39.3137 6 36 6C32.7616 6 30.1224 8.56557 30.0041 11.7751L29.999 11.999L20.9136 11.9992L17.7141 3.3356C17.5271 2.95708 17.1874 2.67237 16.7763 2.55649L7.76632 0.0240547ZM13.508 23.999H34.492L32.307 45H15.693L13.508 23.999ZM35 15H13L13.339 20.999H34.661L35 15ZM33 11.999C33.0005 10.3426 34.3435 9 36 9C37.6569 9 39 10.3431 39 12C39 12.9275 38.5791 13.7566 37.9181 14.3051C37.6007 12.9833 36.398 12 34.9628 12L33 11.999Z" class="svg-primary-fill" clip-rule="evenodd"/>
  </g>
</svg>
