<svg xmlns="http://www.w3.org/2000/svg" width="26" height="26" viewBox="0 0 26 26">
  <g class="neo-icon-kit--refresh-blue-light">
    <path fill="#F0F1F4" fill-rule="evenodd" d="M16.7519 6.73199C13.3813 4.94295 9.21628 5.78357 6.80344 8.7399C4.39059 11.6962 4.40165 15.9452 6.82985 18.8889C9.25806 21.8326 13.4273 22.6516 16.7886 20.845C20.1499 19.0384 21.7672 15.1093 20.6519 11.46C20.5475 11.1183 20.6335 10.7468 20.8772 10.4856C21.121 10.2244 21.4856 10.1131 21.8337 10.1936C22.1818 10.2742 22.4605 10.5343 22.5649 10.876C23.3788 13.5277 23.0516 16.3985 21.6619 18.799C18.9009 23.582 12.7849 25.221 8.00186 22.459C5.66848 21.1155 3.97762 18.8854 3.31386 16.276C2.66338 13.7453 3.03253 11.0603 4.34186 8.79899C7.05686 4.09699 13.0139 2.43299 17.7599 5.00299L17.3649 3.24299C17.2599 2.71094 17.5982 2.19222 18.1274 2.07369C18.6566 1.95516 19.1838 2.28002 19.3159 2.80599L20.2079 6.77599C20.3286 7.29019 20.0286 7.8096 19.5229 7.96199L15.6379 9.17499C15.2955 9.28611 14.9198 9.20466 14.6543 8.96173C14.3887 8.71881 14.2741 8.35189 14.3543 8.001C14.4345 7.65011 14.6971 7.3694 15.0419 7.26599L16.7519 6.73199Z" class="svg-primary-fill" clip-rule="evenodd"/>
  </g>
</svg>
