<svg xmlns="http://www.w3.org/2000/svg" width="24" height="24" viewBox="0 0 24 24">
  <g class="neo-icon-kit--remove-white">
    <path fill="#fff" fill-rule="evenodd" d="M13 4C13.5 4 14 4.5 14 5V6H19.5C19.75 6 20 6.25 20 6.5C20 6.75 19.75 7 19.5 7H18V17C18 19 17 20 15 20H8C6 20 5 19 5 17V7H3.5C3.25 7 3 6.75 3 6.5C3 6.25 3.25 6 3.5 6H9V5C9 4.5 9.5 4 10 4H13ZM17.018 7H6V17C6 18.5 6.5 19 8 19H15C16.5 19 17 18.5 17 17L17.018 7ZM13 5H10V6H13V5Z" class="svg-primary-fill" clip-rule="evenodd"/>
    <g fill="#fff" class="svg-secondary-fill">
      <path d="M8.5 17C8.75 17 9 16.75 9 16.5V9.5C9 9.25 8.75 9 8.5 9 8.25 9 8 9.25 8 9.5V16.5C8 16.75 8.25 17 8.5 17zM11.5 17C11.75 17 12 16.75 12 16.5V9.5C12 9.25 11.75 9 11.5 9 11.25 9 11 9.25 11 9.5V16.5C11 16.75 11.25 17 11.5 17zM15 16.5C15 16.75 14.75 17 14.5 17 14.25 17 14 16.75 14 16.5V9.5C14 9.25 14.25 9 14.5 9 14.75 9 15 9.25 15 9.5V16.5z"/>
    </g>
  </g>
</svg>
