<svg xmlns="http://www.w3.org/2000/svg" width="48" height="48" viewBox="0 0 48 48">
  <g class="neo-icon-kit--remove-from-itenerary">
    <path fill="#444B61" fill-rule="evenodd" d="M48 24C48 37.2548 37.2548 48 24 48C10.7452 48 0 37.2548 0 24C0 10.7452 10.7452 0 24 0C37.2548 0 48 10.7452 48 24Z" class="svg-primary-fill" clip-rule="evenodd"/>
    <path fill="#fff" fill-rule="evenodd" d="M27.1472 23.9986L34.3452 16.8015C35.2147 15.9312 35.214 14.521 34.3437 13.6516C33.4733 12.7822 32.0629 12.7829 31.1934 13.6531L23.9984 20.8502L16.8035 13.6531C15.9228 12.8494 14.5655 12.8806 13.7227 13.7241C12.88 14.5676 12.85 15.9247 13.6547 16.8045L20.8497 23.9986L13.6517 31.1926C12.7822 32.0628 12.7829 33.4731 13.6532 34.3425C14.5236 35.2118 15.934 35.2112 16.8035 34.3409L24.0015 27.1469L31.1934 34.344C31.6103 34.7639 32.1775 35 32.7693 35C33.361 35 33.9283 34.7639 34.3452 34.344C34.7644 33.9267 35 33.3597 35 32.7683C35 32.1769 34.7644 31.6098 34.3452 31.1926L27.1472 23.9955V23.9986Z" class="svg-secondary-fill" clip-rule="evenodd"/>
  </g>
</svg>
