<svg xmlns="http://www.w3.org/2000/svg" width="18" height="18" viewBox="0 0 18 18">
  <g class="neo-icon-kit--remove-white-s">
    <path fill="#fff" fill-rule="evenodd" d="M16.5 4C16.75 4 17 4.25 17 4.5C17 4.75 16.75 5 16.5 5H15V13C15 15 14 16 12 16H7C5 16 4 15 4 13V5H2.5C2.25 5 2 4.75 2 4.5C2 4.25 2.25 4 2.5 4H7V3C7 2.5 7.5 2 8 2H11C11.5 2 12 2.5 12 3V4H16.5ZM14 13L14.018 5H5V13C5 14.5 5.5 15 7 15H12C13.5 15 14 14.5 14 13ZM8 3V4H11V3H8Z" class="svg-primary-fill" clip-rule="evenodd"/>
    <g fill="#fff" class="svg-secondary-fill">
      <path d="M7.5 13C7.75 13 8 12.75 8 12.5V7.5C8 7.25 7.75 7 7.5 7 7.25 7 7 7.25 7 7.5V12.5C7 12.75 7.25 13 7.5 13zM9.5 13C9.75 13 10 12.75 10 12.5V7.5C10 7.25 9.75 7 9.5 7 9.25 7 9 7.25 9 7.5V12.5C9 12.75 9.25 13 9.5 13zM12 12.5C12 12.75 11.75 13 11.5 13 11.25 13 11 12.75 11 12.5V7.5C11 7.25 11.25 7 11.5 7 11.75 7 12 7.25 12 7.5V12.5z"/>
    </g>
  </g>
</svg>
