<svg xmlns="http://www.w3.org/2000/svg" width="48" height="48" viewBox="0 0 48 48">
  <g class="neo-icon-kit--rental-key">
    <g fill="#006FCF" class="svg-primary-fill">
      <path d="M7 41.2424C7 40.414 7.67157 39.7424 8.5 39.7424H14.5C15.3284 39.7424 16 40.414 16 41.2424 16 42.0709 15.3284 42.7424 14.5 42.7424H8.5C7.67157 42.7424 7 42.0709 7 41.2424zM7 35.2424C7 34.414 7.67157 33.7424 8.5 33.7424H14.5C15.3284 33.7424 16 34.414 16 35.2424 16 36.0709 15.3284 36.7424 14.5 36.7424H8.5C7.67157 36.7424 7 36.0709 7 35.2424z"/>
      <path fill-rule="evenodd" d="M10.6267 12.2231C10.8641 11.0813 11.4505 10.025 12.5127 9.1668C14.0048 7.96134 16.6186 7 21 7C24.2409 7 26.7681 7.69895 28.5019 9.08623C30.1207 10.3815 31.2467 12.4372 31.477 15.6513L25.0807 17.7104C23.8407 18.1096 23 19.2634 23 20.5661L23 42C23 43.6569 24.3431 45 26 45H41C42.6569 45 44 43.6568 44 42V20.5661C44 19.2634 43.1593 18.1096 41.9193 17.7104L34.4596 15.3089C34.1605 11.5143 32.7591 8.65042 30.3762 6.74377C27.9107 4.77105 24.6126 4 21 4C16.2349 4 12.8487 5.03866 10.6274 6.8332C8.78561 8.32118 7.87076 10.2268 7.59358 12.1657C4.95839 12.7987 3 15.1706 3 18C3 20.6124 4.66961 22.8349 7 23.6586L7 43.5C7 44.3284 7.67157 45 8.5 45C9.32843 45 10 44.3284 10 43.5L10 23.917C12.8377 23.441 15 20.973 15 18C15 15.2501 13.15 12.9322 10.6267 12.2231ZM9 21C10.6569 21 12 19.6569 12 18C12 16.3431 10.6569 15 9 15C7.34315 15 6 16.3431 6 18C6 19.6569 7.34315 21 9 21ZM26 37V42H41V37H26ZM26 34H41V20.5661L33.5 18.1516L26 20.5661L26 34Z" clip-rule="evenodd"/>
    </g>
  </g>
</svg>
