<svg xmlns="http://www.w3.org/2000/svg" width="48" height="48" viewBox="0 0 48 48">
  <g class="neo-icon-kit--rental-car-white">
    <path fill="#fff" fill-rule="evenodd" d="M24 45.1754C35.6954 45.1754 45.1754 35.6954 45.1754 24C45.1754 12.3046 35.6954 2.82462 24 2.82462C12.3046 2.82462 2.82462 12.3028 2.82462 24C2.82462 35.6954 12.3046 45.1754 24 45.1754ZM24 48C10.7446 48 0 37.2554 0 24C0 10.7446 10.7446 0 24 0C37.2554 0 48 10.7446 48 24C48 37.2554 37.2554 48 24 48Z" class="svg-secondary-fill" clip-rule="evenodd"/>
    <g fill="#fff" fill-rule="evenodd" class="svg-primary-fill" clip-rule="evenodd">
      <path d="M16.8108 12.1422C17.4689 11.4638 18.3728 11.0798 19.3179 11.0769 20.2635 11.0782 21.1684 11.4617 21.8268 12.1403 22.0517 12.3721 22.2426 12.6306 22.3965 12.9083H29.5253L30.7438 14.1489C30.9672 14.3852 30.9616 14.544 30.7438 14.7637L29.2705 16.2868 28.3881 15.3895 27.5204 16.2868 26.6601 15.4006 25.8256 16.2628 24.9561 15.3637 23.8152 16.5341H22.3783C21.7675 17.6228 20.6265 18.3563 19.3179 18.3526 17.3628 18.3582 15.7807 16.7132 15.7844 14.7009 15.777 13.7428 16.1481 12.8216 16.8108 12.1422zM17.7506 13.728C18.2809 13.739 18.7058 14.1705 18.7087 14.7009 18.7073 14.9555 18.6051 15.1992 18.4244 15.3785 18.2457 15.556 18.0024 15.6533 17.7506 15.648 17.5017 15.6526 17.262 15.5544 17.0878 15.3766 16.9114 15.1965 16.8149 14.953 16.8201 14.7009 16.8098 14.1759 17.2256 13.7411 17.7506 13.728zM35.4261 23.8415V25.839L33.8476 25.9221V30.3584H34.6747V33.8882H32.7916V37.6415H29.3282V34.0378H17.247L17.1787 37.6415H13.6341V33.9602H11.9042L11.8341 30.5116 12.7313 30.3584V25.9885H11.0771V24.0741H13.5602L16.2704 19.3959H30.0815L32.7916 23.9891 35.4261 23.8415zM29.8318 20.2396H16.3438L14.313 24.9196H32.1154L29.8318 20.2396zM13.6333 30.3987H17.2887V28.5193H13.6333V30.3987zM29.2935 30.3212H32.9858V28.4843H29.2935V30.3212z"/>
    </g>
  </g>
</svg>
