<svg xmlns="http://www.w3.org/2000/svg" width="48" height="48" viewBox="0 0 48 48">
  <g class="neo-icon-kit--rental-car-no-circle">
    <path fill="#444B61" fill-rule="evenodd" d="M40.4308 25.3539V22.6936L36.853 22.8949L33.1754 16.7656H14.4333L10.7539 23.0075H7.38464V25.5589H9.62957V31.3853L8.41111 31.5921L8.50526 36.189H10.8554V41.0924H15.6665L15.7588 36.2887H32.1526V41.0924H36.853V36.0893H39.4117V31.3816H38.2856V25.4684L40.4308 25.3576M14.5348 17.8937H32.8394L35.9373 24.1337H11.7767L14.5348 17.8937ZM15.8142 31.4389H10.8554V28.9319H15.8142V31.4426M37.117 31.3318H32.1047V28.8819H37.117V31.3336" class="svg-primary-fill" clip-rule="evenodd"/>
    <path fill="#444B61" fill-rule="evenodd" d="M14.316 7.09446C15.2163 6.1872 16.4413 5.67649 17.7195 5.67554C18.9978 5.6755 20.2232 6.18594 21.1235 7.09348C21.429 7.40147 21.6885 7.74654 21.8976 8.11801H31.5731L33.2254 9.77216C33.53 10.086 33.5208 10.2983 33.2254 10.5919L31.226 12.6226L30.0278 11.4263L28.8482 12.6226L27.6851 11.4411L26.5497 12.5894L25.3681 11.3931L23.8229 12.9531H21.8718C21.0433 14.4041 19.4957 15.382 17.7195 15.3771C15.0647 15.3845 12.9177 13.1931 12.9232 10.5088C12.9144 9.23062 13.4157 8.00173 14.316 7.09446ZM16.8887 10.5088C16.8798 9.79501 16.3028 9.21887 15.589 9.21091C14.8833 9.22305 14.3199 9.80295 14.3281 10.5088C14.3215 10.8453 14.4522 11.1701 14.6901 11.4083C14.9279 11.6465 15.2525 11.7776 15.589 11.7715C15.9296 11.7789 16.2589 11.6495 16.5032 11.4121C16.7474 11.1748 16.8863 10.8494 16.8887 10.5088Z" class="svg-secondary-fill" clip-rule="evenodd"/>
  </g>
</svg>
