<svg xmlns="http://www.w3.org/2000/svg" width="48" height="48" viewBox="0 0 48 48">
  <g class="neo-icon-kit--rental-key-filled">
    <g fill="#006FCF" class="svg-primary-fill">
      <path fill-rule="evenodd" d="M12.5127 9.1668C11.4505 10.025 10.8641 11.0813 10.6267 12.2231C13.15 12.9322 15 15.2501 15 18C15 20.7958 13.0878 23.1449 10.5 23.811L10.5 33.7424H15C15.8284 33.7424 16.5 34.414 16.5 35.2424C16.5 36.0709 15.8284 36.7424 15 36.7424H10.5L10.5 39.7424H15C15.8284 39.7424 16.5 40.414 16.5 41.2424C16.5 42.0709 15.8284 42.7424 15 42.7424H10.5V43.5C10.5 44.3284 9.82843 45 9 45C8.17157 45 7.5 44.3284 7.5 43.5V23.811C4.91216 23.1449 3 20.7958 3 18C3 15.1706 4.95839 12.7987 7.59358 12.1657C7.87076 10.2268 8.78561 8.32118 10.6274 6.8332C12.8487 5.03866 16.2349 4 21 4C24.6126 4 27.9107 4.77105 30.3762 6.74377C32.7591 8.65042 34.1605 11.5143 34.4596 15.3089L41.9193 17.7104C43.1593 18.1096 44 19.2634 44 20.5661L44 34H23V20.5661C23 19.2634 23.8407 18.1096 25.0807 17.7104L31.477 15.6512C31.2467 12.4372 30.1207 10.3815 28.5019 9.08623C26.7681 7.69895 24.2409 7 21 7C16.6186 7 14.0048 7.96134 12.5127 9.1668ZM12 18C12 19.6569 10.6569 21 9 21C7.34315 21 6 19.6569 6 18C6 16.3431 7.34315 15 9 15C10.6569 15 12 16.3431 12 18Z" clip-rule="evenodd"/>
      <path d="M26 45C24.3431 45 23 43.6568 23 42V37H44V42C44 43.6568 42.6569 45 41 45H26Z"/>
    </g>
  </g>
</svg>
