<svg xmlns="http://www.w3.org/2000/svg" width="48" height="48" viewBox="0 0 48 48">
  <g class="neo-icon-kit--retirement-filled" clip-path="url(#a)">
    <path fill="#006FCF" d="M39.1665 30.0002H25.5115V24.7282C26.4458 25.0119 27.4162 25.1584 28.3925 25.1632C29.7055 25.1632 31.1475 24.8832 32.6215 24.1062C37.8725 21.3352 37.6825 15.3212 37.6825 15.3212C37.6825 15.3212 35.1685 13.4832 31.8025 13.4832C30.4895 13.4832 29.0475 13.7632 27.5735 14.5402C26.8188 14.9395 26.1245 15.4438 25.5115 16.0382V12.0572C26.0725 12.1562 26.6915 12.2232 27.3515 12.2232C29.2798 12.2374 31.1618 11.6331 32.7215 10.4992C37.5375 7.02824 36.5165 1.09824 36.5165 1.09824C36.5165 1.09824 34.4715 0.000241683 31.7675 0.000241683C29.8393 -0.0138701 27.9572 0.590343 26.3975 1.72424C22.9885 4.18124 22.5065 7.86224 22.5145 9.80724C21.901 9.21162 21.2057 8.70654 20.4495 8.30724C19.1485 7.61187 17.6958 7.24878 16.2205 7.25024C12.8555 7.25024 10.3405 9.08824 10.3405 9.08824C10.3405 9.08824 10.1505 15.1022 15.4015 17.8732C16.7026 18.5686 18.1553 18.9317 19.6305 18.9302C20.6935 18.9302 21.6705 18.7462 22.5115 18.4952V30.0002H8.83253C7.20553 30.0002 5.91353 31.4482 6.00453 33.1672L6.45553 41.7062C6.64153 45.2382 9.39953 48.0002 12.7395 48.0002H35.2595C38.5985 48.0002 41.3575 45.2382 41.5435 41.7062L41.9945 33.1672C42.0855 31.4472 40.7925 30.0002 39.1665 30.0002Z" class="svg-primary-fill"/>
  </g>
  <defs>
    <clipPath id="a" class="a">
      <path fill="#fff" d="M0 0H48V48H0z"/>
    </clipPath>
  </defs>
</svg>
