<svg xmlns="http://www.w3.org/2000/svg" width="48" height="48" viewBox="0 0 48 48">
  <g class="neo-icon-kit--retirement" clip-path="url(#a)">
    <path fill="#006FCF" d="M39.1665 30.0002H25.5115V24.7282C26.4458 25.0119 27.4162 25.1584 28.3925 25.1632C29.7055 25.1632 31.1475 24.8832 32.6215 24.1062C37.8725 21.3352 37.6825 15.3212 37.6825 15.3212C37.6825 15.3212 35.1685 13.4832 31.8025 13.4832C30.4895 13.4832 29.0475 13.7632 27.5735 14.5402C26.8188 14.9395 26.1245 15.4438 25.5115 16.0382V12.0572C26.0725 12.1562 26.6915 12.2232 27.3515 12.2232C29.2798 12.2374 31.1618 11.6331 32.7215 10.4992C37.5375 7.02824 36.5165 1.09824 36.5165 1.09824C36.5165 1.09824 34.4715 0.000241683 31.7675 0.000241683C29.8393 -0.0138701 27.9572 0.590343 26.3975 1.72424C22.9885 4.18124 22.5065 7.86224 22.5145 9.80724C21.901 9.21162 21.2057 8.70654 20.4495 8.30724C19.1485 7.61187 17.6958 7.24878 16.2205 7.25024C12.8555 7.25024 10.3405 9.08824 10.3405 9.08824C10.3405 9.08824 10.1505 15.1022 15.4015 17.8732C16.7026 18.5686 18.1553 18.9317 19.6305 18.9302C20.6935 18.9302 21.6705 18.7462 22.5115 18.4952V30.0002H8.83253C7.20553 30.0002 5.91353 31.4482 6.00453 33.1672L6.45553 41.7062C6.64153 45.2382 9.39953 48.0002 12.7395 48.0002H35.2595C38.5985 48.0002 41.3575 45.2382 41.5435 41.7062L41.9945 33.1672C42.0855 31.4472 40.7925 30.0002 39.1665 30.0002ZM28.9735 17.1932C29.8427 16.7246 30.8151 16.4805 31.8025 16.4832C32.8275 16.4832 33.7585 16.7362 34.4745 17.0152C34.1505 18.3972 33.3245 20.3432 31.2205 21.4522C30.3514 21.9209 29.379 22.165 28.3915 22.1622C27.3645 22.1622 26.4315 21.9082 25.7155 21.6282C26.0365 20.2422 26.8605 18.3072 28.9735 17.1922V17.1932ZM28.1515 4.15824C29.1991 3.38968 30.4684 2.98318 31.7675 3.00024C32.4385 3.00024 33.0595 3.09724 33.5795 3.22024C33.4535 4.63724 32.9055 6.66824 30.9675 8.06424C29.92 8.83281 28.6507 9.2393 27.3515 9.22224C26.7411 9.219 26.133 9.14518 25.5395 9.00224C25.6655 7.58524 26.2135 5.55424 28.1515 4.15824ZM19.6305 15.9302C18.6431 15.9329 17.6707 15.6888 16.8015 15.2202C14.6865 14.1042 13.8625 12.1652 13.5425 10.7852C14.2605 10.5042 15.1935 10.2502 16.2205 10.2502C17.2175 10.2502 18.1425 10.4822 19.0485 10.9602C21.1635 12.0762 21.9875 14.0152 22.3075 15.3952C21.5895 15.6762 20.6565 15.9302 19.6295 15.9302H19.6305ZM38.9995 33.0092L38.5485 41.5482C38.4465 43.4842 37.0015 45.0002 35.2595 45.0002H12.7395C10.9975 45.0002 9.55353 43.4842 9.45153 41.5482L8.99953 33.0092L38.9995 33.0002V33.0092Z" class="svg-primary-fill"/>
  </g>
  <defs>
    <clipPath id="a" class="a">
      <path fill="#fff" d="M0 0H48V48H0z"/>
    </clipPath>
  </defs>
</svg>
