<svg xmlns="http://www.w3.org/2000/svg" width="48" height="48" viewBox="0 0 48 48">
  <g class="neo-icon-kit--return-filled">
    <path fill="#006FCF" d="M27.5533 18.068C28.1431 17.4863 28.1497 16.5366 27.568 15.9467C26.9863 15.3569 26.0366 15.3503 25.4467 15.932L18.4467 22.8353C18.1635 23.1146 18.0028 23.4951 18 23.8929C17.9973 24.2908 18.1527 24.6734 18.4321 24.9566L25.4321 32.0534C26.0138 32.6432 26.9636 32.6497 27.5534 32.0679C28.1431 31.4862 28.1497 30.5364 27.5679 29.9466L23.1819 25.5L40.5 25.5C41.3284 25.5 42 24.8284 42 24C42 23.1716 41.3284 22.5 40.5 22.5L23.0592 22.5L27.5533 18.068Z" class="svg-secondary-fill"/>
    <path fill="#006FCF" d="M15.0424 10.4455C17.593 9.04146 20.4892 8.37399 23.4033 8.51962C26.3174 8.66525 29.1312 9.61806 31.5264 11.2689C32.4358 11.8957 33.6813 11.6665 34.3081 10.7571C34.9349 9.84758 34.7058 8.60215 33.7963 7.97532C30.7882 5.90206 27.2572 4.70722 23.603 4.5246C19.9487 4.34199 16.3153 5.17877 13.1135 6.94132C9.91153 8.70393 7.26821 11.3226 5.48415 14.5025C3.70001 17.6826 2.84694 21.2962 3.02254 24.9345C3.19814 28.5726 4.3953 32.0883 6.47713 35.0837C8.55887 38.0789 11.4417 40.4339 14.7981 41.8839C18.1545 43.3339 21.8516 43.8216 25.4716 43.2926C29.0916 42.7635 32.4918 41.2385 35.2871 38.8884C36.1325 38.1776 36.2417 36.916 35.5308 36.0705C34.82 35.2251 33.5584 35.1159 32.7129 35.8267C30.4883 37.6971 27.7797 38.9128 24.8932 39.3346C22.0066 39.7565 19.0591 39.3674 16.3845 38.2119C13.71 37.0565 11.4164 35.1815 9.76173 32.8008C8.10719 30.4202 7.15723 27.6285 7.01789 24.7416C6.87855 21.8547 7.55529 18.9859 8.97263 16.4597C10.39 13.9333 12.4921 11.8494 15.0424 10.4455Z" class="svg-primary-fill"/>
  </g>
</svg>
