<svg xmlns="http://www.w3.org/2000/svg" width="48" height="48" viewBox="0 0 48 48">
  <g class="neo-icon-kit--rewards">
    <path fill="#006FCF" fill-rule="evenodd" d="M26.0255 0.541372L25.8173 0.427751L25.6032 0.327497C24.4467 -0.171546 23.0674 -0.100254 21.9745 0.541372L5.02692 10.4834L4.83351 10.6045C3.6972 11.3617 3 12.6626 3 14.053V33.9375L3.00641 34.1684C3.08308 35.5478 3.84264 36.8117 5.0274 37.5066L21.9755 47.4491L22.2099 47.5763C22.7654 47.8542 23.379 48 24 48C24.7097 48 25.4098 47.8095 26.0255 47.4491L42.9716 37.5066L43.1653 37.3856C44.3028 36.6288 45 35.3283 45 33.9375V14.053L44.9936 13.8222C44.9169 12.4431 44.1574 11.1788 42.9726 10.4834L26.0255 0.541372ZM23.577 3.0857C23.7105 3.02939 23.8544 3 24 3C24.1941 3 24.3853 3.05225 24.5527 3.15089L41.4492 13.0914L41.5575 13.1641C41.833 13.374 42 13.7069 42 14.0607V33.9422L41.9923 34.0736C41.9517 34.4203 41.7518 34.7339 41.4492 34.911L24.5536 44.852L24.4381 44.9105C24.1216 45.0469 23.7448 45.0274 23.4473 44.852L6.5498 34.911L6.44167 34.8385C6.16659 34.629 6 34.2964 6 33.9422V14.0607L6.0077 13.9292C6.04843 13.5823 6.2485 13.2689 6.5498 13.0914L23.4473 3.15089L23.577 3.0857ZM25.2499 12.7782L28.2026 18.771L34.8051 19.732C35.9483 19.8984 36.4048 21.3056 35.5776 22.1133L30.7999 26.7781L31.9278 33.3648C32.1231 34.5053 30.928 35.375 29.9055 34.8365L24 31.7267L18.0945 34.8365C17.072 35.375 15.8769 34.5053 16.0722 33.3648L17.2 26.7781L12.4224 22.1133C11.5952 21.3056 12.0517 19.8984 13.1949 19.732L19.7974 18.771L22.7501 12.7782C23.2614 11.7406 24.7386 11.7406 25.2499 12.7782ZM21.5279 20.9377L24 16L26.4721 20.9377L32 21.7295L28 25.5729L28.9443 31L24 28.4377L19.0557 31L20 25.5729L16 21.7295L21.5279 20.9377Z" class="svg-primary-fill" clip-rule="evenodd"/>
  </g>
</svg>
