<svg xmlns="http://www.w3.org/2000/svg" width="48" height="48" viewBox="0 0 48 48">
  <g class="neo-icon-kit--rewards-filled">
    <path fill="#006FCF" fill-rule="evenodd" d="M25.8173 0.427751L25.6032 0.327497C24.4467 -0.171546 23.0674 -0.100254 21.9745 0.541372L5.02692 10.4834L4.83351 10.6045C3.6972 11.3617 3 12.6626 3 14.053V33.9375L3.00641 34.1684C3.08308 35.5478 3.84264 36.8117 5.0274 37.5066L21.9755 47.4491L22.2099 47.5763C22.7654 47.8542 23.379 48 24 48C24.7097 48 25.4098 47.8095 26.0255 47.4491L42.9716 37.5066L43.1653 37.3856C44.3028 36.6288 45 35.3283 45 33.9375V14.053L44.9936 13.8222C44.9169 12.4431 44.1574 11.1788 42.9726 10.4834L26.0255 0.541372L25.8173 0.427751ZM25.2499 12.7782L28.2026 18.771L34.8051 19.732L34.9339 19.7566C35.9815 20.0058 36.373 21.3367 35.5776 22.1133L30.7999 26.7781L31.9278 33.3648L31.9435 33.4859C32.0379 34.5656 30.8915 35.3558 29.9055 34.8365L24 31.7267L18.0945 34.8365L17.9844 34.8889C16.9884 35.3125 15.8839 34.4645 16.0722 33.3648L17.2 26.7781L12.4224 22.1133L12.3326 22.0176C11.6313 21.1992 12.0956 19.892 13.1949 19.732L19.7974 18.771L22.7501 12.7782L22.8189 12.6539C23.3828 11.7424 24.7599 11.7838 25.2499 12.7782Z" class="svg-primary-fill" clip-rule="evenodd"/>
  </g>
</svg>
