<svg xmlns="http://www.w3.org/2000/svg" width="48" height="48" viewBox="0 0 48 48">
  <g class="neo-icon-kit--rotate-filled">
    <g fill="#006FCF" class="svg-primary-fill">
      <path d="M25.5082 4.57186C26.079 3.9512 26.042 2.98219 25.4255 2.40752C24.809 1.83284 23.8466 1.87012 23.2758 2.49077L19.405 6.69971C19.1309 6.99778 18.9856 7.39328 19.0011 7.7992C19.0167 8.20512 19.1917 8.58819 19.4878 8.86415L23.7268 12.8151C24.3433 13.3897 25.3058 13.3523 25.8765 12.7316C26.4473 12.1109 26.4101 11.1419 25.7936 10.5673L24.2225 9.1029C24.9746 9.06243 25.7388 9.07234 26.5116 9.13589C35.7667 9.89689 42.6566 18.0675 41.9007 27.3855C41.1449 36.7036 33.0294 43.6404 23.7744 42.8794C22.9371 42.8105 22.2028 43.4381 22.1344 44.2812C22.0661 45.1242 22.6894 45.8635 23.5268 45.9323C34.4565 46.831 44.0404 38.639 44.933 27.6349C45.8257 16.6308 37.689 6.98165 26.7593 6.08295C25.8832 6.01091 25.015 5.99732 24.1588 6.03909L25.5082 4.57186Z"/>
      <path d="M14.3953 14.8718C15.5577 13.7094 17.4423 13.7094 18.6047 14.8718L29.1282 25.3953C30.2906 26.5577 30.2906 28.4423 29.1282 29.6047L18.6047 40.1282C17.4423 41.2906 15.5577 41.2906 14.3953 40.1282L3.8718 29.6047C2.7094 28.4423 2.7094 26.5577 3.8718 25.3953L14.3953 14.8718Z"/>
    </g>
  </g>
</svg>
