<svg xmlns="http://www.w3.org/2000/svg" width="48" height="48" viewBox="0 0 48 48">
  <g class="neo-icon-kit--round-the-clock">
    <path fill="#006FCF" d="M24.001 1.5C26.9725 1.49988 29.9127 2.10608 32.6418 3.28149C35.3709 4.45691 37.8315 6.17683 39.873 8.336L40.165 8.651L41.501 10.12V8C41.501 7.62727 41.6398 7.2679 41.8902 6.99189C42.1407 6.71589 42.485 6.54303 42.856 6.507L43 6.5C43.3729 6.50002 43.7324 6.63892 44.0084 6.88962C44.2844 7.14032 44.4572 7.48484 44.493 7.856L44.5 8L44.498 14.071L44.484 14.218L44.466 14.318L44.41 14.512L44.353 14.647L44.282 14.779L44.184 14.921L44.101 15.018L44.011 15.107L43.957 15.154L43.845 15.239L43.723 15.314L43.596 15.376L43.475 15.422L43.328 15.463L43.219 15.483L43.074 15.497L37.001 15.499C36.6157 15.4991 36.2451 15.3509 35.9662 15.0851C35.6872 14.8194 35.5211 14.4564 35.5025 14.0716C35.4839 13.6867 35.614 13.3095 35.866 13.018C36.118 12.7265 36.4725 12.5432 36.856 12.506L37 12.499H39.609L37.944 10.668C36.2249 8.77742 34.1394 7.2561 31.8142 6.19646C29.489 5.13683 26.9726 4.56101 24.418 4.504L24 4.5C13.23 4.5 4.5 13.23 4.5 24C4.5 34.77 13.23 43.5 24 43.5C34.655 43.5 43.314 34.954 43.497 24.343L43.5 24V23C43.4999 22.6147 43.6481 22.2441 43.9139 21.9652C44.1796 21.6862 44.5426 21.5201 44.9274 21.5015C45.3123 21.4829 45.6895 21.613 45.981 21.865C46.2725 22.117 46.4558 22.4715 46.493 22.855L46.5 23V24C46.5 36.426 36.426 46.5 24 46.5C11.574 46.5 1.5 36.426 1.5 24C1.5 11.698 11.374 1.702 23.628 1.503L24.001 1.5ZM17.215 16.994C20.285 16.994 22.041 18.665 22.041 21.271C22.041 22.85 21.643 24.26 19.134 25.973L18.374 26.478L18.135 26.64L17.681 26.957C16.295 27.944 15.424 28.774 15.363 29.467H22.042V31.993H11.637V31.675L11.642 31.339L11.657 31.004C11.779 29.106 12.534 27.215 15.902 24.99L16.832 24.377L17.229 24.105C18.477 23.231 18.99 22.636 18.99 21.489C18.99 20.395 18.314 19.698 17.117 19.698C15.998 19.698 14.82 20.455 13.99 21.807L11.771 20.195C13.006 18.246 14.686 16.993 17.213 16.993L17.215 16.994ZM33.994 16.994V26.46H36.529V29.055H33.994V31.995H30.809V29.055H23.528V26.663L30.363 16.994H33.994ZM30.809 20.926H30.769L26.936 26.459H30.809V20.926Z" class="svg-primary-fill"/>
  </g>
</svg>
