<svg xmlns="http://www.w3.org/2000/svg" width="48" height="48" viewBox="0 0 48 48">
  <g class="neo-icon-kit--round-the-clock-filled">
    <path fill="#006FCF" d="M24 1C26.9653 1.00519 29.9001 1.59804 32.6349 2.74427C35.3697 3.8905 37.8502 5.56738 39.933 7.678L40.236 7.992L41.001 8.826V8C40.999 7.52886 41.1642 7.0723 41.4673 6.71156C41.7704 6.35082 42.1916 6.10931 42.656 6.03L42.809 6.01L42.978 6.001C43.986 6.001 44.807 6.703 44.971 7.656L44.991 7.809L45 7.974L44.959 14.406L44.721 15.021L44.285 15.534L43.654 15.891L43.014 16.001H37C35.897 16.001 35 15.104 35 14.001C34.998 13.5299 35.1632 13.0733 35.4663 12.7126C35.7694 12.3518 36.1906 12.1103 36.655 12.031L36.808 12.011L36.977 12.002H38.479L37.574 11.007C34.2869 7.4055 29.7065 5.2534 24.836 5.022L24.408 5.007L23.994 5C13.523 5 5 13.523 5 24C5 34.477 13.523 43 24 43C34.184 43 42.632 34.81 42.988 24.673L42.997 24.334L43 23C43 21.897 43.897 21 45 21C45.4713 20.9978 45.9281 21.1629 46.2891 21.466C46.65 21.7691 46.8917 22.1904 46.971 22.655L46.992 22.808L47 22.977V24C47 36.683 36.683 47 24 47C11.317 47 1 36.683 1 24C1 11.317 11.317 1 24 1ZM17.215 16.994C20.285 16.994 22.041 18.665 22.041 21.271C22.041 22.85 21.643 24.26 19.134 25.973L18.374 26.478L17.903 26.8L17.68 26.957L17.26 27.263C16.12 28.117 15.416 28.847 15.362 29.467H22.041V31.993H11.637V31.675C11.6369 31.5073 11.6405 31.3396 11.648 31.172L11.67 30.837C11.826 28.995 12.634 27.15 15.903 24.991L16.618 24.521L17.037 24.239C18.425 23.289 18.991 22.694 18.991 21.489C18.991 20.395 18.315 19.698 17.118 19.698C15.999 19.698 14.821 20.455 13.991 21.807L11.772 20.195C13.007 18.246 14.687 16.993 17.214 16.993L17.215 16.994ZM33.994 16.994V26.46H36.529V29.055H33.994V31.995H30.809V29.055H23.528V26.663L30.363 16.994H33.994ZM30.809 20.926H30.769L26.936 26.459H30.809V20.926Z" class="svg-primary-fill"/>
  </g>
</svg>
