<svg xmlns="http://www.w3.org/2000/svg" width="48" height="48" viewBox="0 0 48 48">
  <g class="neo-icon-kit--roundtrip">
    <path fill="#006FCF" d="M26.568 15.9467C27.1497 16.5366 27.1431 17.4863 26.5533 18.068L22.0592 22.5L39.8181 22.5L35.4321 18.0534C34.8504 17.4636 34.8569 16.5138 35.4467 15.9321C36.0364 15.3503 36.9862 15.3569 37.5679 15.9466L44.5679 23.0434C44.8473 23.3266 45.0027 23.7092 45 24.1071C44.9972 24.5049 44.8365 24.8854 44.5533 25.1647L37.5533 32.068C36.9634 32.6497 36.0137 32.6431 35.432 32.0533C34.8503 31.4634 34.8569 30.5137 35.4468 29.932L39.9408 25.5L22.1819 25.5L26.5679 29.9466C27.1497 30.5364 27.1431 31.4862 26.5534 32.0679C25.9636 32.6497 25.0138 32.6432 24.4321 32.0534L17.4321 24.9566C17.1527 24.6734 16.9973 24.2908 17 23.8929C17.0028 23.4951 17.1635 23.1146 17.4467 22.8353L24.4467 15.932C25.0366 15.3503 25.9863 15.3569 26.568 15.9467Z" class="svg-secondary-fill"/>
    <path fill="#006FCF" fill-rule="evenodd" d="M23.9283 8.02024C20.9217 7.86999 17.9332 8.55862 15.3013 10.0074C12.6695 11.4562 10.4998 13.6069 9.03657 16.215C7.57338 18.823 6.8746 21.7849 7.01847 24.7657C7.16235 27.7466 8.1432 30.6287 9.85115 33.0862C11.5592 35.5437 13.9265 37.4787 16.6862 38.6709C19.446 39.8632 22.4872 40.2646 25.4655 39.8294C28.4437 39.3941 31.2388 38.1398 33.5347 36.2094C34.1688 35.6763 35.115 35.7582 35.6481 36.3923C36.1813 37.0264 36.0994 37.9726 35.4653 38.5057C32.7414 40.7958 29.4276 42.2822 25.8993 42.7978C22.371 43.3135 18.7676 42.8381 15.4964 41.4249C12.2252 40.0117 9.41605 37.7167 7.3877 34.7983C5.35929 31.8798 4.19303 28.4546 4.02196 24.9104C3.85089 21.3661 4.68192 17.8455 6.42021 14.7471C8.15844 11.6489 10.7341 9.09711 13.8546 7.37933C16.975 5.6616 20.5163 4.84599 24.078 5.02398C27.6397 5.20198 31.081 6.36656 34.0126 8.38702C34.6947 8.85714 34.8665 9.79121 34.3964 10.4733C33.9263 11.1554 32.9922 11.3273 32.3101 10.8572C29.8383 9.15356 26.9349 8.1705 23.9283 8.02024Z" class="svg-primary-fill" clip-rule="evenodd"/>
  </g>
</svg>
