<svg xmlns="http://www.w3.org/2000/svg" width="48" height="48" viewBox="0 0 48 48">
  <g class="neo-icon-kit--rupee-regular">
    <path fill="#006FCF" fill-rule="evenodd" d="M24 1C36.7025 1 47 11.2975 47 24C47 36.7025 36.7025 47 24 47C11.2975 47 1 36.7025 1 24C1 11.2975 11.2975 1 24 1ZM24 4C12.9543 4 4 12.9543 4 24C4 35.0457 12.9543 44 24 44C35.0457 44 44 35.0457 44 24C44 12.9543 35.0457 4 24 4ZM31.4975 13.0119H16.5055L16.3688 13.0181C15.6036 13.0873 15.0015 13.732 15.0015 14.5159C15.0015 15.3449 15.6765 16.0199 16.5055 16.0199H21.0975L21.3206 16.0265C23.1676 16.1259 24.7122 17.3353 25.3285 18.9949H16.5055L16.3688 19.0011C15.6036 19.0704 15.0015 19.716 15.0015 20.4989C15.0015 21.3279 15.6765 22.0029 16.5055 22.0029H25.3735L25.2944 22.2208C24.7599 23.5844 23.5975 24.6256 22.1535 24.9799H16.8275L16.8185 25.0119L16.5615 25.0029L16.4259 25.0015C15.8431 25.0228 15.3256 25.3935 15.1055 25.9469C14.8695 26.5329 15.0285 27.2089 15.5045 27.6329L25.8215 36.6909L26.1635 36.9109L26.2105 36.8949L26.3309 36.9336C26.4531 36.9681 26.5807 36.9889 26.7135 36.9889C27.5365 36.9889 28.2025 36.3219 28.2025 35.4999C28.2025 35.0739 28.0215 34.6929 27.7355 34.4209L27.7005 34.3679L20.5295 28.0639H21.0735L21.3266 28.0597C24.8556 27.942 27.7711 25.3717 28.4265 22.0029H31.4975L31.6342 21.9967C32.3995 21.9274 33.0025 21.2818 33.0025 20.4989C33.0025 19.6699 32.3265 18.9949 31.4975 18.9949H28.3975L28.3309 18.7201C28.0598 17.7157 27.5 16.7514 26.8125 16.0199H31.4975L31.6342 16.0137C32.3995 15.9444 33.0025 15.2988 33.0025 14.5159C33.0025 13.6859 32.3265 13.0119 31.4975 13.0119Z" class="svg-primary-fill" clip-rule="evenodd"/>
  </g>
</svg>
