<svg xmlns="http://www.w3.org/2000/svg" width="48" height="48" viewBox="0 0 48 48">
  <g class="neo-icon-kit--rupee-regular-filled">
    <path fill="#006FCF" fill-rule="evenodd" d="M47 24C47 11.2975 36.7025 1 24 1C11.2975 1 1 11.2975 1 24C1 36.7025 11.2975 47 24 47C36.7025 47 47 36.7025 47 24ZM16.5051 13.022H31.4981L31.6348 13.0282C32.4 13.0974 33.0021 13.7421 33.0021 14.526C33.0021 15.355 32.3271 16.03 31.4981 16.03H26.8121L26.9963 16.2351C27.6593 17.0074 28.1798 17.9948 28.3971 19.005H31.4981L31.6348 19.0112C32.4 19.0805 33.0021 19.7261 33.0021 20.509C33.0021 21.338 32.3271 22.013 31.4981 22.013H28.4261L28.3755 22.2522C27.6134 25.5821 24.6304 28.074 21.0741 28.074H20.5301L27.7011 34.378L27.7351 34.431C28.0221 34.703 28.2031 35.084 28.2031 35.51C28.2031 36.332 27.5361 36.999 26.7141 36.999C26.5361 36.999 26.3681 36.962 26.2101 36.905L26.1641 36.921L25.8221 36.701L15.5041 27.643L15.4001 27.5408C15.007 27.1155 14.8882 26.4979 15.1051 25.957C15.3421 25.361 15.9241 24.977 16.5611 25.013L16.8181 25.022L16.8271 24.99H22.1541L22.3796 24.9284C23.7922 24.5028 24.9067 23.4095 25.3731 22.013H16.5051L16.3684 22.0068C15.6032 21.9375 15.0011 21.2919 15.0011 20.509C15.0011 19.68 15.6761 19.005 16.5051 19.005H25.3291L25.2507 18.8081C24.561 17.1855 22.9673 16.0396 21.0981 16.03H16.5051L16.3684 16.0238C15.6032 15.9545 15.0011 15.3089 15.0011 14.526C15.0011 13.696 15.6761 13.022 16.5051 13.022Z" class="svg-primary-fill" clip-rule="evenodd"/>
  </g>
</svg>
