<svg xmlns="http://www.w3.org/2000/svg" width="48" height="48" viewBox="0 0 48 48">
  <g class="neo-icon-kit--rupee-cashback-filled">
    <path fill="#006FCF" fill-rule="evenodd" d="M40.2425 7.99961C36.026 3.53642 30.1525 1 24 1C11.2975 1 1 11.2975 1 24C1 36.7025 11.2975 47 24 47C36.7025 47 47 36.7025 47 24V23L46.9945 22.8507C46.9182 21.8159 46.0544 21 45 21C43.8954 21 43 21.8954 43 23V24L42.9971 24.3378C42.8168 34.6754 34.3806 43 24 43C13.5066 43 5 34.4934 5 24C5 13.5066 13.5066 5 24 5L24.4185 5.00477C29.434 5.11906 34.1914 7.28371 37.5742 11.0048L38.479 12H37L36.8507 12.0055C35.8159 12.0818 35 12.9456 35 14C35 15.1046 35.8954 16 37 16H43L43.1528 15.9942L43.3022 15.9772L43.4587 15.9471L43.6079 15.9059L43.7629 15.8494L43.9157 15.7786L44.0597 15.6966L44.2117 15.5913L44.3376 15.4869L44.405 15.4234L44.5155 15.3052L44.5928 15.2098C44.6508 15.1335 44.7034 15.053 44.7501 14.9687L44.8271 14.8147L44.8853 14.6686L44.9145 14.5803L44.9559 14.4195L44.9819 14.2705L44.9945 14.1493L45 14V8L44.9945 7.85074C44.9182 6.81588 44.0544 6 43 6L42.8507 6.00549C41.8159 6.08183 41 6.94564 41 8V8.828L40.5339 8.31412L40.2425 7.99961ZM31.8854 15.1877C31.8842 14.4088 31.2528 13.7777 30.4738 13.7771H16.4119C15.6328 13.7771 15.0012 14.4086 15.0012 15.1877C15.0012 15.9669 15.6328 16.5984 16.4119 16.5984H20.719C22.4939 16.6115 24.0748 17.7231 24.6875 19.3889H16.4119C15.6328 19.3889 15.0012 20.0205 15.0012 20.7996C15.0012 21.5787 15.6328 22.2103 16.4119 22.2103H24.7297C24.2682 23.5972 23.1283 24.651 21.7095 25.0025H16.7139L16.7055 25.0326L16.4644 25.0241C15.866 24.9941 15.3156 25.3509 15.0988 25.9095C14.8778 26.4629 15.0275 27.0953 15.473 27.4909L25.15 35.987L25.4707 36.1933L25.5148 36.1783C26.1365 36.4113 26.8362 36.1717 27.1846 35.6065C27.533 35.0413 27.4327 34.3086 26.9452 33.8578L26.9124 33.8081L20.1863 27.8952H20.6965C24.0581 27.8905 26.9471 25.5091 27.5933 22.2102H30.4738C31.2529 22.2102 31.8845 21.5786 31.8845 20.7995C31.8845 20.0204 31.2529 19.3888 30.4738 19.3888H27.5661C27.3258 18.3437 26.8129 17.3809 26.0795 16.5984H30.4738C31.2526 16.5974 31.8839 15.9666 31.8854 15.1877Z" class="svg-primary-fill" clip-rule="evenodd"/>
  </g>
</svg>
