<svg xmlns="http://www.w3.org/2000/svg" width="48" height="48" viewBox="0 0 48 48">
  <g class="neo-icon-kit--rupee-cashback">
    <path fill="#006FCF" fill-rule="evenodd" d="M39.8723 8.33591C35.7507 3.97698 30.0116 1.5 24 1.5C11.5736 1.5 1.5 11.5736 1.5 24C1.5 36.4264 11.5736 46.5 24 46.5C36.4264 46.5 46.5 36.4264 46.5 24V23L46.4931 22.8555C46.4204 22.0949 45.7797 21.5 45 21.5C44.1716 21.5 43.5 22.1716 43.5 23V24L43.497 24.343C43.314 34.9543 34.655 43.5 24 43.5C13.2304 43.5 4.5 34.7696 4.5 24C4.5 13.2304 13.2304 4.5 24 4.5L24.4186 4.50464C29.5749 4.61905 34.4666 6.84316 37.9441 10.6685L39.609 12.5H37L36.8555 12.5069C36.0949 12.5796 35.5 13.2203 35.5 14C35.5 14.8284 36.1716 15.5 37 15.5H43L43.0726 15.4983L43.2179 15.4843L43.3273 15.4641L43.4748 15.4233L43.596 15.3769L43.7233 15.3145L43.8452 15.2394L43.9574 15.1548L44.0117 15.1075L44.1014 15.0184L44.184 14.9211L44.2822 14.7792L44.3536 14.6472L44.4102 14.5122L44.4661 14.3185L44.4841 14.2183L44.4983 14.071L44.5 8L44.4931 7.85554C44.4204 7.09489 43.7797 6.5 43 6.5L42.8555 6.50687C42.0949 6.57955 41.5 7.2203 41.5 8V10.12L40.164 8.65045L39.8723 8.33591ZM31.8854 15.1877C31.8842 14.4088 31.2528 13.7777 30.4738 13.7771H16.4119C15.6328 13.7771 15.0012 14.4086 15.0012 15.1877C15.0012 15.9669 15.6328 16.5984 16.4119 16.5984H20.719C22.4939 16.6115 24.0748 17.7231 24.6875 19.3889H16.4119C15.6328 19.3889 15.0012 20.0205 15.0012 20.7996C15.0012 21.5787 15.6328 22.2103 16.4119 22.2103H24.7297C24.2682 23.5972 23.1283 24.651 21.7095 25.0025H16.7139L16.7055 25.0326L16.4644 25.0241C15.866 24.9941 15.3156 25.3509 15.0988 25.9095C14.8778 26.4629 15.0275 27.0953 15.473 27.4909L25.15 35.987L25.4707 36.1933L25.5148 36.1783C26.1365 36.4113 26.8362 36.1717 27.1846 35.6065C27.533 35.0413 27.4327 34.3086 26.9452 33.8578L26.9124 33.8081L20.1863 27.8952H20.6965C24.0581 27.8905 26.9471 25.5091 27.5933 22.2102H30.4738C31.2529 22.2102 31.8845 21.5786 31.8845 20.7995C31.8845 20.0204 31.2529 19.3888 30.4738 19.3888H27.5661C27.3258 18.3437 26.8129 17.3809 26.0795 16.5984H30.4738C31.2526 16.5974 31.8839 15.9666 31.8854 15.1877Z" class="svg-primary-fill" clip-rule="evenodd"/>
  </g>
</svg>
