<svg xmlns="http://www.w3.org/2000/svg" width="48" height="48" viewBox="0 0 48 48">
  <g class="neo-icon-kit--rupee-autopay">
    <path fill="#006FCF" fill-rule="evenodd" d="M24.4289 1.5042L24 1.5L23.6279 1.50301C11.3731 1.70171 1.5 11.6979 1.5 24V25L1.50687 25.1445C1.57955 25.9051 2.2203 26.5 3 26.5C3.82843 26.5 4.5 25.8284 4.5 25V24L4.50296 23.657C4.68402 13.1598 13.1598 4.68402 23.657 4.50296L24 4.5L24.4186 4.50464C29.5749 4.61905 34.4666 6.84316 37.9441 10.6685L39.609 12.5H37L36.8555 12.5069C36.0949 12.5796 35.5 13.2203 35.5 14C35.5 14.8284 36.1716 15.5 37 15.5H43L43.0726 15.4983L43.2179 15.4843L43.3273 15.4641L43.4748 15.4233L43.596 15.3769L43.7233 15.3145L43.8452 15.2394L43.9574 15.1548L44.009 15.1099L44.1014 15.0184L44.184 14.9211L44.2822 14.7792L44.3536 14.6472L44.4102 14.5122L44.4661 14.3185L44.4841 14.2183L44.4983 14.071L44.5 8L44.4931 7.85554C44.4204 7.09489 43.7797 6.5 43 6.5L42.8555 6.50687C42.0949 6.57955 41.5 7.2203 41.5 8V10.12L40.164 8.65045L39.8652 8.32831C35.8422 4.07784 30.2805 1.61895 24.4289 1.5042ZM30.4738 13.7771C31.2528 13.7777 31.8842 14.4088 31.8854 15.1877C31.8839 15.9666 31.2526 16.5974 30.4738 16.5984H26.0795C26.8129 17.3809 27.3258 18.3437 27.5661 19.3888H30.4738C31.2529 19.3888 31.8845 20.0204 31.8845 20.7995C31.8845 21.5786 31.2529 22.2102 30.4738 22.2102H27.5933C26.9471 25.5091 24.0581 27.8905 20.6965 27.8952H20.1863L26.9124 33.8081L26.9452 33.8578C27.4327 34.3086 27.533 35.0413 27.1846 35.6065C26.8362 36.1717 26.1365 36.4113 25.5148 36.1783L25.4707 36.1933L25.15 35.987L15.473 27.4909C15.0275 27.0953 14.8778 26.4629 15.0988 25.9095C15.3156 25.3509 15.866 24.9941 16.4644 25.0241L16.7055 25.0326L16.7139 25.0025H21.7095C23.1283 24.651 24.2682 23.5972 24.7297 22.2103H16.4119C15.6328 22.2103 15.0012 21.5787 15.0012 20.7996C15.0012 20.0205 15.6328 19.3889 16.4119 19.3889H24.6875C24.0748 17.7231 22.4939 16.6115 20.719 16.5984H16.4119C15.6328 16.5984 15.0012 15.9669 15.0012 15.1877C15.0012 14.4086 15.6328 13.7771 16.4119 13.7771H30.4738ZM45 21.5C45.7797 21.5 46.4204 22.0949 46.4931 22.8555L46.5 23V24C46.5 36.3021 36.6269 46.2983 24.3721 46.497L24 46.5L23.5678 46.4959C17.0924 46.3723 10.9797 43.4756 6.78357 38.5422L6.5 38.203V40C6.5 40.7797 5.90511 41.4204 5.14446 41.4931L5 41.5C4.2203 41.5 3.57955 40.9051 3.50687 40.1445L3.5 40V34C3.5 33.7535 3.55948 33.5208 3.66488 33.3156L3.73288 33.1969L3.79995 33.0999L3.88774 32.9935L3.98156 32.8987L4.06289 32.8288L4.16484 32.7539L4.28343 32.6819L4.31126 32.6671C4.3949 32.6238 4.48301 32.5882 4.57475 32.5611L4.7631 32.5186L4.89544 32.5035L4.95947 32.5005L11 32.5C11.8284 32.5 12.5 33.1716 12.5 34C12.5 34.7797 11.9051 35.4204 11.1445 35.4931L11 35.5H8.165L8.82856 36.3106C12.465 40.7552 17.8626 43.3762 23.5903 43.4957L24 43.5C34.655 43.5 43.314 34.9543 43.497 24.343L43.5 24V23C43.5 22.1716 44.1716 21.5 45 21.5Z" class="svg-primary-fill" clip-rule="evenodd"/>
  </g>
</svg>
