<svg xmlns="http://www.w3.org/2000/svg" width="48" height="48" viewBox="0 0 48 48">
  <g class="neo-icon-kit--savings-filled">
    <path fill="#006FCF" d="M35.4324 6C36.9174 6 38.2244 6.897 38.4144 8.396L38.4314 8.579L38.7904 14.158C40.2064 15.528 41.3284 17.116 42.0664 18.857L42.2294 19.262H43.0764C44.6334 19.262 45.9054 20.445 45.9944 21.937L45.9994 22.104V27.789C45.9994 29.303 44.7824 30.54 43.2484 30.627L43.0764 30.632H41.0354C40.1551 32.0062 39.0606 33.2307 37.7934 34.259L37.4364 34.543L36.6374 39.59C36.4274 40.919 35.2914 41.914 33.9274 41.995L33.7484 42H30.4104C28.8534 42 27.5814 40.817 27.4924 39.325L27.4874 39.158V38.349L25.5384 38.448C25.0434 38.448 24.5554 38.428 24.0714 38.392L23.5894 38.352V39.158C23.5894 40.672 22.3724 41.909 20.8384 41.996L20.6664 42.001H17.3284C15.9454 42.001 14.7614 41.061 14.4724 39.762L14.4394 39.591L13.6384 34.528C11.0494 32.521 9.17939 29.874 8.40139 26.884C8.12793 27.011 7.84253 27.1105 7.54939 27.181C6.97463 27.3198 6.37808 27.3433 5.79417 27.2503C5.21026 27.1573 4.65056 26.9495 4.14739 26.639C3.64274 26.3311 3.20418 25.9261 2.8571 25.4476C2.51002 24.969 2.26132 24.4263 2.12539 23.851C1.98635 23.2764 1.96267 22.68 2.0557 22.0962C2.14874 21.5124 2.35665 20.9529 2.66739 20.45C2.86922 20.1221 3.1894 19.8844 3.56166 19.7861C3.93391 19.6877 4.32972 19.7363 4.66715 19.9217C5.00459 20.1071 5.2578 20.4152 5.37437 20.7822C5.49094 21.1491 5.46195 21.5468 5.29339 21.893L5.22339 22.02C5.11904 22.1875 5.04901 22.3741 5.01737 22.5689C4.98572 22.7637 4.99309 22.9629 5.03905 23.1548C5.08501 23.3467 5.16864 23.5276 5.28509 23.687C5.40154 23.8463 5.54848 23.9809 5.71739 24.083C5.88504 24.1867 6.0716 24.2561 6.26625 24.2871C6.46091 24.3182 6.65979 24.3103 6.85139 24.264C7.1887 24.1839 7.48752 23.9887 7.69639 23.712L7.78039 23.589C7.78539 23.58 7.80139 23.561 7.82239 23.532L7.89639 23.417C7.94393 23.3345 7.98025 23.2461 8.00439 23.154C8.05339 22.96 8.07839 22.725 8.09539 22.525L8.11639 22.259L8.12639 22.162C9.08039 14.807 16.5014 9.079 25.5394 9.079C26.6154 9.079 27.6644 9.168 28.6864 9.323C30.3208 7.92894 32.2105 6.86558 34.2504 6.192C34.6324 6.0675 35.0316 6.00372 35.4334 6.003L35.4324 6ZM24.1244 15.069L23.9464 15.03L23.7184 15.001L23.4094 14.977L23.1104 14.967H22.9994L22.7604 14.971L22.5004 14.984L22.2214 15.007L22.0754 15.023L21.7704 15.064C21.663 15.0802 21.556 15.0986 21.4494 15.119L21.1144 15.189C19.4604 15.57 17.3554 16.56 15.5314 18.992C15.4132 19.1496 15.3272 19.3289 15.2783 19.5197C15.2294 19.7105 15.2186 19.9091 15.2465 20.1041C15.2743 20.2991 15.3403 20.4867 15.4407 20.6562C15.541 20.8257 15.6738 20.9738 15.8314 21.092C15.9889 21.2104 16.1682 21.2967 16.359 21.3457C16.5499 21.3947 16.7486 21.4056 16.9436 21.3777C17.1387 21.3499 17.3264 21.2838 17.4959 21.1833C17.6654 21.0828 17.8134 20.9498 17.9314 20.792C19.0334 19.323 20.2434 18.606 21.2504 18.263L21.5464 18.171C21.7269 18.12 21.9098 18.0779 22.0944 18.045L22.3424 18.007L22.5704 17.982L22.8714 17.965H23.1184L23.4604 17.991C23.8388 18.0562 24.2278 17.9737 24.5473 17.7607C24.8667 17.5476 25.0923 17.2202 25.1776 16.8457C25.2628 16.4713 25.2012 16.0785 25.0055 15.7481C24.8097 15.4178 24.4947 15.1751 24.1254 15.07L24.1244 15.069ZM34.2204 18.235C33.8226 18.235 33.441 18.393 33.1597 18.6743C32.8784 18.9556 32.7204 19.3372 32.7204 19.735C32.7204 20.1328 32.8784 20.5144 33.1597 20.7957C33.441 21.077 33.8226 21.235 34.2204 21.235C34.6182 21.235 34.9997 21.077 35.281 20.7957C35.5624 20.5144 35.7204 20.1328 35.7204 19.735C35.7204 19.3372 35.5624 18.9556 35.281 18.6743C34.9997 18.393 34.6182 18.235 34.2204 18.235Z" class="svg-primary-fill"/>
  </g>
</svg>
