<svg xmlns="http://www.w3.org/2000/svg" width="48" height="48" viewBox="0 0 48 48">
  <g class="neo-icon-kit--savings">
    <path fill="#006FCF" d="M35.4324 6C36.9174 6 38.2244 6.897 38.4144 8.396L38.4314 8.579L38.7904 14.158C40.2064 15.528 41.3284 17.116 42.0664 18.857L42.2294 19.262H43.0764C44.6334 19.262 45.9054 20.445 45.9944 21.937L45.9994 22.104V27.789C45.9994 29.303 44.7824 30.54 43.2484 30.627L43.0764 30.632H41.0354C40.1551 32.0062 39.0606 33.2307 37.7934 34.259L37.4364 34.543L36.6374 39.59C36.4274 40.919 35.2914 41.914 33.9274 41.995L33.7484 42H30.4104C28.8534 42 27.5814 40.817 27.4924 39.325L27.4874 39.158V38.349L25.5384 38.448C25.0434 38.448 24.5554 38.428 24.0714 38.392L23.5894 38.352V39.158C23.5894 40.672 22.3724 41.909 20.8384 41.996L20.6664 42.001H17.3284C15.9454 42.001 14.7614 41.061 14.4724 39.762L14.4394 39.591L13.6384 34.528C11.0494 32.521 9.17939 29.874 8.40139 26.884C8.12793 27.011 7.84253 27.1105 7.54939 27.181C6.97463 27.3198 6.37808 27.3433 5.79417 27.2503C5.21026 27.1573 4.65056 26.9495 4.14739 26.639C3.64274 26.3311 3.20418 25.9261 2.8571 25.4476C2.51002 24.969 2.26132 24.4263 2.12539 23.851C1.98635 23.2764 1.96267 22.68 2.0557 22.0962C2.14874 21.5124 2.35665 20.9529 2.66739 20.45C2.86922 20.1221 3.1894 19.8844 3.56166 19.7861C3.93391 19.6877 4.32972 19.7363 4.66715 19.9217C5.00459 20.1071 5.2578 20.4152 5.37437 20.7822C5.49094 21.1491 5.46195 21.5468 5.29339 21.893L5.22339 22.02C5.11904 22.1875 5.04901 22.3741 5.01737 22.5689C4.98572 22.7637 4.99309 22.9629 5.03905 23.1548C5.08501 23.3467 5.16864 23.5276 5.28509 23.687C5.40154 23.8463 5.54848 23.9809 5.71739 24.083C5.88504 24.1867 6.0716 24.2561 6.26625 24.2871C6.46091 24.3182 6.65979 24.3103 6.85139 24.264C7.1887 24.1839 7.48752 23.9887 7.69639 23.712L7.78039 23.589C7.78539 23.58 7.80139 23.561 7.82239 23.532L7.89639 23.417C7.94393 23.3345 7.98025 23.2461 8.00439 23.154C8.05339 22.96 8.07839 22.725 8.09539 22.525L8.11639 22.259L8.12639 22.162C9.08039 14.807 16.5014 9.079 25.5394 9.079C26.6154 9.079 27.6644 9.168 28.6864 9.323C30.3208 7.92894 32.2105 6.86558 34.2504 6.192C34.6324 6.0675 35.0316 6.00372 35.4334 6.003L35.4324 6ZM35.8714 15.507L35.4534 9H35.4334C35.3446 9.00103 35.2566 9.01587 35.1724 9.044C33.6391 9.55222 32.2087 10.3297 30.9484 11.34L30.6474 11.591L29.6014 12.494L28.2354 12.286C27.3429 12.1485 26.4414 12.0783 25.5384 12.076C17.5224 12.076 11.0004 17.318 11.0004 23.762C11.0004 26.831 12.4864 29.72 15.1924 31.931L15.4764 32.157L16.4154 32.885L17.3834 39H20.5904V35.06L23.8674 35.364C24.4231 35.4176 24.9811 35.4452 25.5394 35.447C25.9756 35.4455 26.4116 35.4272 26.8464 35.392L27.2104 35.361L30.4874 35.057V39H33.6944L34.6594 32.899L35.5994 32.171C36.6302 31.382 37.5323 30.4377 38.2734 29.372L38.5024 29.025L39.3854 27.631H43.0004V22.262H40.1694L39.4304 20.338C38.9144 18.995 38.1004 17.745 37.0094 16.618L36.7054 16.314L35.8724 15.508L35.8714 15.507ZM15.5304 18.991C17.3544 16.559 19.4594 15.569 21.1134 15.188L21.4484 15.118L21.6104 15.089L21.9234 15.042L22.0744 15.023L22.3624 14.995L22.6324 14.978L22.9984 14.969L23.3144 14.975L23.7174 15.003L23.9824 15.038C24.3619 15.1055 24.7008 15.3164 24.9289 15.6271C25.157 15.9377 25.2568 16.3243 25.2075 16.7066C25.1583 17.0888 24.9638 17.4375 24.6643 17.6801C24.3649 17.9228 23.9836 18.041 23.5994 18.01L23.3014 17.976L23.1154 17.966H22.8684L22.6734 17.975L22.4554 17.994L22.3384 18.008L22.0904 18.046C21.9058 18.0789 21.7229 18.121 21.5424 18.172L21.2464 18.264C20.2394 18.607 19.0284 19.324 17.9274 20.793C17.8094 20.9508 17.6614 21.0838 17.4919 21.1843C17.3224 21.2848 17.1347 21.3509 16.9396 21.3787C16.7446 21.4066 16.5459 21.3957 16.355 21.3467C16.1642 21.2977 15.9849 21.2114 15.8274 21.093C15.6698 20.9748 15.537 20.8267 15.4367 20.6572C15.3363 20.4877 15.2703 20.3001 15.2425 20.1051C15.2146 19.9101 15.2254 19.7115 15.2743 19.5207C15.3232 19.3299 15.4092 19.1506 15.5274 18.993L15.5304 18.991ZM34.2214 18.235C34.6192 18.235 35.0007 18.393 35.2821 18.6743C35.5634 18.9556 35.7214 19.3372 35.7214 19.735C35.7214 20.1328 35.5634 20.5144 35.2821 20.7957C35.0007 21.077 34.6192 21.235 34.2214 21.235C33.8236 21.235 33.442 21.077 33.1607 20.7957C32.8794 20.5144 32.7214 20.1328 32.7214 19.735C32.7214 19.3372 32.8794 18.9556 33.1607 18.6743C33.442 18.393 33.8236 18.235 34.2214 18.235Z" class="svg-primary-fill"/>
  </g>
</svg>
