<svg xmlns="http://www.w3.org/2000/svg" width="48" height="48" viewBox="0 0 48 48">
  <g class="neo-icon-kit--scan-receipt">
    <g fill="#006FCF" class="svg-primary-fill">
      <path d="M3 24.5C3 23.6716 3.67157 23 4.5 23H43.5C44.3284 23 45 23.6716 45 24.5C45 25.3284 44.3284 26 43.5 26H4.5C3.67157 26 3 25.3284 3 24.5Z"/>
      <path fill-rule="evenodd" d="M10.3466 3.00774C9.59025 3.08456 9 3.72335 9 4.5V8L8.99956 18.5C8.99956 19.3284 9.67113 20 10.4995 20C11.328 20 11.9995 19.3284 11.9995 18.5V9.538C11.9998 9.52537 12 9.5127 12 9.5V6L36 6L35.9995 18.5C35.9995 19.3284 36.6711 20 37.4995 20C38.328 20 38.9996 19.3284 38.9996 18.5V9.53695C38.9997 9.53197 38.9998 9.52698 38.9998 9.52199C38.9999 9.51467 39 9.50734 39 9.5V4.5C39 3.67157 38.3284 3 37.5 3H10.5C10.4482 3 10.3971 3.00262 10.3466 3.00774ZM10.4995 29C11.328 29 11.9995 29.6716 11.9995 30.5V39.093L13.9868 37.2737C14.5209 36.7833 15.3238 36.7506 15.8938 37.1756L16.0122 37.2737L19.4995 40.4661L22.9868 37.2737C23.273 37.011 23.6362 36.8801 23.9995 36.8801C24.3109 36.8801 24.6223 36.9763 24.8851 37.1692L25.0122 37.2737L28.4995 40.4661L31.9868 37.2737C32.5209 36.7833 33.3238 36.7506 33.8938 37.1756L34.0122 37.2737L35.9995 39.093L35.9995 30.5C35.9995 29.6716 36.6711 29 37.4995 29C38.328 29 38.9996 29.6716 38.9996 30.5V42.5C38.9996 43.0947 38.648 43.6328 38.104 43.8731C37.9097 43.9581 37.7037 44.0001 37.4996 44.0001C37.184 44.0001 36.8727 43.9003 36.6125 43.7095L36.4869 43.6065L32.9996 40.4141L29.5123 43.6065C28.9781 44.0969 28.1753 44.1296 27.6053 43.7046L27.4869 43.6065L23.9996 40.4141L20.5123 43.6065C19.9781 44.0969 19.1753 44.1296 18.6053 43.7046L18.4869 43.6065L14.9996 40.4141L11.5123 43.6065C11.0748 44.0069 10.4395 44.1114 9.89508 43.8731C9.39646 43.6529 9.0595 43.1824 9.0068 42.6474L8.99956 42.5V30.5C8.99956 29.6716 9.67113 29 10.4995 29Z" clip-rule="evenodd"/>
    </g>
  </g>
</svg>
