<svg xmlns="http://www.w3.org/2000/svg" width="48" height="48" viewBox="0 0 48 48">
  <g class="neo-icon-kit--scan-receipt-filled">
    <g fill="#006FCF" class="svg-primary-fill">
      <path d="M3 24.5C3 23.6716 3.67157 23 4.5 23H43.5C44.3284 23 45 23.6716 45 24.5 45 25.3284 44.3284 26 43.5 26H4.5C3.67157 26 3 25.3284 3 24.5zM10.3466 3.00774C9.59025 3.08456 9 3.72335 9 4.5V8L8.99957 18.5C8.99957 18.5122 8.99971 18.5244 9 18.5365V20H39V4.5C39 3.67157 38.3284 3 37.5 3H10.5C10.4482 3 10.3971 3.00262 10.3466 3.00774zM9 29H39L38.9996 42.5C38.9996 43.0947 38.648 43.6328 38.104 43.8731 37.9097 43.9581 37.7037 44.0001 37.4996 44.0001 37.184 44.0001 36.8727 43.9003 36.6125 43.7095L36.4869 43.6065 33.0934 40.5H32.9057L29.5123 43.6065C28.9781 44.0969 28.1753 44.1296 27.6053 43.7046L27.4869 43.6065 24.0934 40.5H23.9057L20.5123 43.6065C19.9781 44.0969 19.1753 44.1296 18.6053 43.7046L18.4869 43.6065 15.0934 40.5H14.9057L11.5123 43.6065C11.0748 44.0069 10.4395 44.1114 9.89508 43.8731 9.39646 43.6529 9.0595 43.1824 9.0068 42.6474L8.99957 42.5V30.5C8.99957 30.4878 8.99971 30.4756 9 30.4635V29z"/>
    </g>
  </g>
</svg>
