<svg xmlns="http://www.w3.org/2000/svg" width="20" height="20" viewBox="0 0 20 20">
  <g class="neo-icon-kit--search-s">
    <path fill="#444B61" fill-rule="evenodd" d="M18 16.587L13.749 12.335C15.752 9.59338 15.3064 5.77199 12.7275 3.56346C10.1485 1.35493 6.30423 1.50343 3.90334 3.90432C1.50245 6.30521 1.35395 10.1495 3.56248 12.7285C5.77101 15.3074 9.5924 15.752 12.334 13.749L16.584 17.999L18 16.587ZM13 8.5C13 10.9853 10.9853 13 8.50003 13C6.01475 13 4.00003 10.9853 4.00003 8.5C4.00003 6.01472 6.01475 4.00001 8.50003 4.00001C10.9853 4.00001 13 6.01472 13 8.5Z" class="svg-primary-fill" clip-rule="evenodd"/>
  </g>
</svg>
