<svg xmlns="http://www.w3.org/2000/svg" width="48" height="48" viewBox="0 0 48 48">
  <g class="neo-icon-kit--search">
    <path fill="#006FCF" fill-rule="evenodd" d="M32.1742 30.0532L44.5605 42.4395C45.1465 43.0249 45.1465 43.9751 44.5605 44.5605C44.2676 44.8535 43.8838 45 43.5 45C43.1162 45 42.7324 44.8535 42.4394 44.5605L30.0531 32.1743C27.0025 34.7198 23.2534 36 19.5 36C15.2773 36 11.0546 34.3891 7.83275 31.1672C1.38908 24.7236 1.38908 14.2764 7.83275 7.83276C11.0546 4.6109 15.2773 3 19.5 3C23.7227 3 27.9454 4.6109 31.1673 7.83276C37.2529 13.9183 37.5836 23.5707 32.1742 30.0532ZM5.99998 19.5C5.99998 23.106 7.40422 26.4962 9.95409 29.046C12.5039 31.5958 15.894 33 19.5 33C23.106 33 26.4961 31.5958 29.0459 29.046C31.5957 26.4962 33 23.106 33 19.5C33 15.894 31.5957 12.5038 29.0459 9.95404C26.4961 7.40424 23.106 6 19.5 6C15.894 6 12.5039 7.40424 9.95409 9.95404C7.40422 12.5038 5.99998 15.894 5.99998 19.5Z" class="svg-primary-fill" clip-rule="evenodd"/>
  </g>
</svg>
