<svg xmlns="http://www.w3.org/2000/svg" width="48" height="48" viewBox="0 0 48 48">
  <g class="neo-icon-kit--search-filled">
    <path fill="#006FCF" fill-rule="evenodd" d="M31.1673 7.8327C27.9454 4.6109 23.7227 3 19.5 3C15.2773 3 11.0546 4.6109 7.83275 7.8327C1.38908 14.2764 1.38908 24.7236 7.83275 31.1672C11.0546 34.3891 15.2773 36 19.5 36C22.933 36 26.3565 34.9163 29.2517 32.7869L40.7324 44.2676L40.8833 44.4067C41.3486 44.8022 41.9243 45 42.5 45C43.1396 45 43.7793 44.7559 44.2676 44.2676C45.2441 43.2915 45.2441 41.7085 44.2676 40.7324L32.7869 29.2518L33.0024 28.9519C37.5183 22.5155 36.9186 13.584 31.1673 7.8327ZM11.3645 11.3683C13.5376 9.19623 16.4268 8 19.5 8C22.5732 8 25.4624 9.19623 27.6355 11.3683C32.1215 15.8521 32.1215 23.1479 27.6355 27.6317C25.4624 29.8038 22.5732 31 19.5 31C16.4268 31 13.5376 29.8038 11.3645 27.6317C6.8785 23.1479 6.8785 15.8521 11.3645 11.3683Z" class="svg-primary-fill" clip-rule="evenodd"/>
  </g>
</svg>
