<svg xmlns="http://www.w3.org/2000/svg" width="48" height="48" viewBox="0 0 48 48">
  <g class="neo-icon-kit--seat-luggage">
    <g fill="#006FCF" fill-rule="evenodd" class="svg-primary-fill" clip-rule="evenodd">
      <path d="M24.0746 9.375L27.0516 21H35.141C36.3307 21 37.4679 21.4787 38.3035 22.3246 40.0378 24.0804 40.0378 26.9196 38.3035 28.6754 37.4679 29.5213 36.3307 30 35.141 30H29.3563L29.8379 31.8808C30.0096 32.5513 30.5995 33 31.2532 33H40.5368C41.7265 33 42.8637 33.4787 43.6993 34.3246 45.4336 36.0804 45.4336 38.9196 43.6993 40.6754 42.8637 41.5213 41.7265 42 40.5368 42H22.6963C20.4238 42 18.5341 40.2852 18.2652 38.0393L15.0326 11.0393C14.7142 8.38019 16.766 6 19.4637 6H19.7531C21.7997 6 23.5686 7.3992 24.0746 9.375zM18.0113 10.6827C17.9018 9.76795 18.6054 9 19.4637 9H19.7531C20.4068 9 20.9967 9.44874 21.1684 10.1192L24.0417 21.3397C23.4992 21.5652 23.0015 21.8982 22.5803 22.3246 20.846 24.0804 20.846 26.9196 22.5803 28.6754 23.4159 29.5213 24.5531 30 25.7428 30H26.2595L26.9317 32.625C27.4377 34.6008 29.2067 36 31.2532 36H40.5368C40.9189 36 41.2891 36.1535 41.5649 36.4328 42.1451 37.0201 42.1451 37.9799 41.5649 38.5672 41.2891 38.8465 40.9189 39 40.5368 39H22.6963C21.9715 39 21.3357 38.4492 21.244 37.6827L18.0113 10.6827zM24.7147 24.4328C24.9906 24.1535 25.3608 24 25.7428 24H35.141C35.523 24 35.8932 24.1535 36.1691 24.4328 36.7492 25.0201 36.7492 25.9799 36.1691 26.5672 35.8932 26.8465 35.523 27 35.141 27H25.7428C25.3608 27 24.9906 26.8465 24.7147 26.5672 24.1346 25.9799 24.1346 25.0201 24.7147 24.4328zM10.5 19.5C10.5 18.6716 9.82843 18 9 18 8.17157 18 7.5 18.6716 7.5 19.5V21H4.5C3.67157 21 3 21.6716 3 22.5V40.5C3 41.3284 3.67157 42 4.5 42H13.5C14.3284 42 15 41.3284 15 40.5V22.5C15 21.6716 14.3284 21 13.5 21H10.5V19.5zM6 39V24H12V39H6z"/>
    </g>
  </g>
</svg>
