<svg xmlns="http://www.w3.org/2000/svg" width="48" height="48" viewBox="0 0 48 48">
  <g class="neo-icon-kit--seat-position">
    <path fill="#006FCF" fill-rule="evenodd" d="M11.4637 9C10.6054 9 9.90182 9.76795 10.0113 10.6827L13.244 37.6827C13.3357 38.4492 13.9715 39 14.6963 39H35.5368C35.9189 39 36.2891 38.8465 36.5649 38.5672C37.1451 37.9799 37.1451 37.0201 36.5649 36.4328C36.2891 36.1535 35.9189 36 35.5368 36H23.2532C21.2067 36 19.4377 34.6008 18.9317 32.625L18.2595 30H17.7428C16.5531 30 15.4159 29.5213 14.5803 28.6754C12.846 26.9196 12.846 24.0804 14.5803 22.3246C15.0015 21.8982 15.4992 21.5652 16.0417 21.3397L13.1684 10.1192C12.9967 9.44874 12.4068 9 11.7531 9H11.4637ZM19.0516 21L16.0746 9.375C15.5686 7.3992 13.7997 6 11.7531 6H11.4637C8.76605 6 6.71425 8.38019 7.03262 11.0393L10.2652 38.0393C10.5341 40.2852 12.4238 42 14.6963 42H35.5368C36.7265 42 37.8637 41.5213 38.6993 40.6754C40.4336 38.9196 40.4336 36.0804 38.6993 34.3246C37.8637 33.4787 36.7265 33 35.5368 33H23.2532C22.5995 33 22.0096 32.5513 21.8379 31.8808L21.3563 30H27.141C28.3307 30 29.4679 29.5213 30.3035 28.6754C32.0378 26.9196 32.0378 24.0804 30.3035 22.3246C29.4679 21.4787 28.3307 21 27.141 21H19.0516ZM17.7428 24C17.3608 24 16.9906 24.1535 16.7147 24.4328C16.1346 25.0201 16.1346 25.9799 16.7147 26.5672C16.9906 26.8465 17.3608 27 17.7428 27H27.141C27.523 27 27.8932 26.8465 28.1691 26.5672C28.7492 25.9799 28.7492 25.0201 28.1691 24.4328C27.8932 24.1535 27.523 24 27.141 24H17.7428Z" class="svg-primary-fill" clip-rule="evenodd"/>
  </g>
</svg>
