<svg xmlns="http://www.w3.org/2000/svg" width="48" height="48" viewBox="0 0 48 48">
  <g class="neo-icon-kit--seat-forward">
    <g fill="#006FCF" class="svg-primary-fill">
      <path fill-rule="evenodd" d="M12.0746 9.375L15.0516 21H23.141C24.3307 21 25.4679 21.4787 26.3035 22.3246C28.0378 24.0804 28.0378 26.9196 26.3035 28.6754C25.4679 29.5213 24.3307 30 23.141 30H17.3563L17.8379 31.8808C18.0096 32.5513 18.5995 33 19.2532 33H31.5368C32.7265 33 33.8637 33.4787 34.6993 34.3246C36.4336 36.0804 36.4336 38.9196 34.6993 40.6754C33.8637 41.5213 32.7265 42 31.5368 42H10.6963C8.42383 42 6.53414 40.2852 6.26524 38.0393L3.03262 11.0393C2.71425 8.38019 4.76605 6 7.46369 6H7.75309C9.79966 6 11.5686 7.3992 12.0746 9.375ZM6.01134 10.6827C5.90183 9.76795 6.60543 9 7.46369 9H7.75309C8.4068 9 8.99669 9.44874 9.16839 10.1192L12.0417 21.3397C11.4992 21.5652 11.0015 21.8982 10.5803 22.3246C8.84602 24.0804 8.84602 26.9196 10.5803 28.6754C11.4159 29.5213 12.5531 30 13.7428 30H14.2595L14.9317 32.625C15.4377 34.6008 17.2067 36 19.2532 36H31.5368C31.9189 36 32.2891 36.1535 32.5649 36.4328C33.1451 37.0201 33.1451 37.9799 32.5649 38.5672C32.2891 38.8465 31.9189 39 31.5368 39H10.6963C9.97149 39 9.33574 38.4492 9.24397 37.6827L6.01134 10.6827ZM12.7147 24.4328C12.9906 24.1535 13.3608 24 13.7428 24H23.141C23.523 24 23.8932 24.1535 24.1691 24.4328C24.7492 25.0201 24.7492 25.9799 24.1691 26.5672C23.8932 26.8465 23.523 27 23.141 27H13.7428C13.3608 27 12.9906 26.8465 12.7147 26.5672C12.1346 25.9799 12.1346 25.0201 12.7147 24.4328Z" clip-rule="evenodd"/>
      <path d="M38.5607 6.43934C37.9749 5.85355 37.0251 5.85355 36.4393 6.43934C35.8536 7.02513 35.8536 7.97487 36.4393 8.56066L39.8787 12H28.5C27.6716 12 27 12.6716 27 13.5C27 14.3284 27.6716 15 28.5 15H39.8787L36.4393 18.4393C35.8536 19.0251 35.8536 19.9749 36.4393 20.5607C37.0251 21.1464 37.9749 21.1464 38.5607 20.5607L44.5607 14.5607C45.1464 13.9749 45.1464 13.0251 44.5607 12.4393L38.5607 6.43934Z"/>
    </g>
  </g>
</svg>
