<svg xmlns="http://www.w3.org/2000/svg" width="48" height="48" viewBox="0 0 48 48">
  <g class="neo-icon-kit--seat-reservation">
    <g fill="#006FCF" class="svg-primary-fill">
      <path d="M32 14.3354L28.6022 10.4826C28.0403 9.87385 27.0913 9.83589 26.4826 10.3978C25.8739 10.9597 25.8359 11.9087 26.3978 12.5174L30.8545 17.5174C31.4324 18.1434 32.415 18.1631 33.0174 17.5607L41.5607 8.56066C42.1465 7.97487 42.1465 7.02513 41.5607 6.43934C40.9749 5.85355 40.0251 5.85355 39.4393 6.43934L32 14.3354Z"/>
      <path fill-rule="evenodd" d="M7.46369 9C6.60543 9 5.90182 9.76795 6.01134 10.6827L9.24397 37.6827C9.33574 38.4492 9.97149 39 10.6963 39H31.5368C31.9189 39 32.2891 38.8465 32.5649 38.5672C33.1451 37.9799 33.1451 37.0201 32.5649 36.4328C32.2891 36.1535 31.9189 36 31.5368 36H19.2532C17.2067 36 15.4377 34.6008 14.9317 32.625L14.2595 30H13.7428C12.5531 30 11.4159 29.5213 10.5803 28.6754C8.84602 26.9196 8.84602 24.0804 10.5803 22.3246C11.0015 21.8982 11.4992 21.5652 12.0417 21.3397L9.16839 10.1192C8.99669 9.44874 8.4068 9 7.75309 9H7.46369ZM15.0516 21L12.0746 9.375C11.5686 7.3992 9.79966 6 7.75309 6H7.46369C4.76605 6 2.71425 8.38019 3.03262 11.0393L6.26524 38.0393C6.53414 40.2852 8.42383 42 10.6963 42H31.5368C32.7265 42 33.8637 41.5213 34.6993 40.6754C36.4336 38.9196 36.4336 36.0804 34.6993 34.3246C33.8637 33.4787 32.7265 33 31.5368 33H19.2532C18.5995 33 18.0096 32.5513 17.8379 31.8808L17.3563 30H23.141C24.3307 30 25.4679 29.5213 26.3035 28.6754C28.0378 26.9196 28.0378 24.0804 26.3035 22.3246C25.4679 21.4787 24.3307 21 23.141 21H15.0516ZM13.7428 24C13.3608 24 12.9906 24.1535 12.7147 24.4328C12.1346 25.0201 12.1346 25.9799 12.7147 26.5672C12.9906 26.8465 13.3608 27 13.7428 27H23.141C23.523 27 23.8932 26.8465 24.1691 26.5672C24.7492 25.9799 24.7492 25.0201 24.1691 24.4328C23.8932 24.1535 23.523 24 23.141 24H13.7428Z" clip-rule="evenodd"/>
    </g>
  </g>
</svg>
