<svg xmlns="http://www.w3.org/2000/svg" width="48" height="48" viewBox="0 0 48 48">
  <g class="neo-icon-kit--seat">
    <path fill="#006FCF" fill-rule="evenodd" d="M39 41C39 42.6569 37.6569 44 36 44H12C10.3431 44 9 42.6569 9 41H6C4.34315 41 3 39.6569 3 38V26C3 24.3431 4.34315 23 6 23H9V10C9 6.68629 11.6863 4 15 4H33C36.3137 4 39 6.68629 39 10V23H42C43.6569 23 45 24.3431 45 26V38C45 39.6569 43.6569 41 42 41H39ZM15 7H33C34.6569 7 36 8.34315 36 10V32.8027C35.1175 32.2922 34.0929 32 33 32H15C13.9071 32 12.8825 32.2922 12 32.8027V10C12 8.34315 13.3431 7 15 7ZM9 38V26H6L6 38H9ZM39 38V26H42V38H39ZM36 38C36 36.3431 34.6569 35 33 35H15C13.3431 35 12 36.3431 12 38V41H36V38Z" class="svg-primary-fill" clip-rule="evenodd"/>
  </g>
</svg>
