<svg xmlns="http://www.w3.org/2000/svg" width="48" height="48" viewBox="0 0 48 48">
  <g class="neo-icon-kit--seat-window">
    <path fill="#006FCF" fill-rule="evenodd" d="M7.5 6C6.67157 6 6 6.67157 6 7.5V25.5C6 26.3284 6.67157 27 7.5 27H10.989L9.41831 14.0415C9.09341 11.3611 11.1856 9 13.8856 9H14.1786C16.2289 9 18.02 10.386 18.5346 12.3707L21.5496 24H29.7574C30.9508 24 32.0954 24.4741 32.9394 25.318C33.4302 25.8089 33.784 26.3859 34.0007 27H40.5C41.3284 27 42 26.3284 42 25.5V7.5C42 6.67157 41.3284 6 40.5 6H7.5ZM34.0007 30H40.5C42.9853 30 45 27.9853 45 25.5V7.5C45 5.01472 42.9853 3 40.5 3H7.5C5.01472 3 3 5.01472 3 7.5V25.5C3 27.9853 5.01472 30 7.5 30H11.3527L12.691 41.0415C12.9649 43.3008 14.8825 45 17.1583 45H38.2574C39.4509 45 40.5954 44.5259 41.4394 43.682C43.1967 41.9246 43.1967 39.0754 41.4394 37.318C40.5954 36.4741 39.4509 36 38.2574 36H25.8214C25.138 36 24.5409 35.538 24.3694 34.8764L23.8829 33H29.7574C30.9508 33 32.0954 32.5259 32.9394 31.682C33.4302 31.1911 33.784 30.6141 34.0007 30ZM20.7838 33H20.2427C19.0492 33 17.9046 32.5259 17.0607 31.682C15.3033 29.9246 15.3033 27.0754 17.0607 25.318C17.487 24.8917 17.9901 24.5597 18.5374 24.3356L15.6306 13.1236C15.4591 12.462 14.8621 12 14.1786 12H13.8856C12.9856 12 12.2882 12.787 12.3965 13.6805L15.6692 40.6805C15.7605 41.4336 16.3997 42 17.1583 42H38.2574C38.6552 42 39.0367 41.842 39.318 41.5607C39.9038 40.9749 39.9038 40.0251 39.318 39.4393C39.0367 39.158 38.6552 39 38.2574 39H25.8214C23.7711 39 21.98 37.614 21.4654 35.6293L20.7838 33ZM20.2427 27C19.8448 27 19.4633 27.158 19.182 27.4393C18.5962 28.0251 18.5962 28.9749 19.182 29.5607C19.4633 29.842 19.8448 30 20.2427 30H29.7574C30.1552 30 30.5367 29.842 30.818 29.5607C31.1112 29.2675 31.2574 28.8862 31.2574 28.5C31.2574 28.1138 31.1112 27.7325 30.818 27.4393C30.5367 27.158 30.1552 27 29.7574 27H20.2427Z" class="svg-primary-fill" clip-rule="evenodd"/>
  </g>
</svg>
