<svg xmlns="http://www.w3.org/2000/svg" width="48" height="48" viewBox="0 0 48 48">
  <g class="neo-icon-kit--seat-aisle">
    <path fill="#006FCF" fill-rule="evenodd" d="M8.58432 28H6.5C4.01472 28 2 25.9853 2 23.5V6.5C2 4.01472 4.01472 2 6.5 2H41.5C43.9853 2 46 4.01472 46 6.5V23.5C46 25.9853 43.9853 28 41.5 28H35.0007C34.784 28.6141 34.4302 29.1911 33.9394 29.682C33.2397 30.3817 32.3333 30.8271 31.3637 30.959C31.1514 31.5849 30.7983 32.1744 30.3034 32.6754C29.4679 33.5213 28.3307 34 27.1409 34H39.5C40.6935 34 41.8381 34.4741 42.682 35.318C44.4393 37.0754 44.4393 39.9246 42.682 41.682C41.8968 42.4672 40.8512 42.9323 39.7482 42.9932C39.5346 43.6071 39.1849 44.1838 38.6993 44.6754C37.8637 45.5213 36.7265 46 35.5368 46H14.6963C12.4238 46 10.5341 44.2852 10.2652 42.0393L8.58432 28ZM5 6.5C5 5.67157 5.67157 5 6.5 5L41.5 5C42.3284 5 43 5.67157 43 6.5V23.5C43 24.3284 42.3284 25 41.5 25H35.0007C34.784 24.3859 34.4302 23.8089 33.9394 23.318C33.0954 22.4741 31.9508 22 30.7574 22H22.5496L19.5346 10.3707C19.02 8.38596 17.2289 7 15.1786 7H14.8856C12.8765 7 11.2039 8.30738 10.6134 10.0808C8.34998 10.518 6.74864 12.6677 7.03258 15.0393L8.22514 25H6.5C5.67157 25 5 24.3284 5 23.5V6.5ZM10.0113 14.6827C9.90179 13.768 10.6054 13 11.4636 13H11.7531C12.4068 13 12.9967 13.4487 13.1684 14.1192L16.0417 25.3396C15.4992 25.5652 15.0014 25.8982 14.5803 26.3246C12.846 28.0804 12.846 30.9196 14.5803 32.6754C15.4158 33.5213 16.5531 34 17.7428 34H18.2595L18.9317 36.625C19.4376 38.6008 21.2066 40 23.2532 40H35.5368C35.9188 40 36.289 40.1535 36.5649 40.4328C37.145 41.0201 37.145 41.9799 36.5649 42.5672C36.289 42.8465 35.9188 43 35.5368 43H14.6963C13.9715 43 13.3357 42.4492 13.2439 41.6827L10.0113 14.6827ZM16.7146 28.4328C16.9905 28.1535 17.3607 28 17.7428 28H27.1409C27.523 28 27.8932 28.1535 28.1691 28.4328C28.4574 28.7247 28.6042 29.108 28.6042 29.5C28.6042 29.892 28.4574 30.2753 28.1691 30.5672C27.8932 30.8465 27.523 31 27.1409 31H17.7428C17.3607 31 16.9905 30.8465 16.7146 30.5672C16.1345 29.9799 16.1345 29.0201 16.7146 28.4328Z" class="svg-primary-fill" clip-rule="evenodd"/>
  </g>
</svg>
