<svg xmlns="http://www.w3.org/2000/svg" width="48" height="48" viewBox="0 0 48 48">
  <g class="neo-icon-kit--security">
    <path fill="#006FCF" d="M42.143 3C42.8714 3.00073 43.5721 3.27938 44.1021 3.77908C44.6321 4.27878 44.9514 4.96188 44.995 5.689L45 42.143C44.9993 42.8714 44.7206 43.5721 44.2209 44.1021C43.7212 44.6321 43.0381 44.9514 42.311 44.995L5.857 45C5.12858 44.9993 4.42789 44.7206 3.8979 44.2209C3.3679 43.7212 3.04855 43.0381 3.005 42.311L3 32.893C2.419 32.686 2 32.137 2 31.485C2 30.883 2.357 30.369 2.869 30.131L3 30.077V17.893C2.419 17.686 2 17.137 2 16.485C2 15.883 2.357 15.368 2.869 15.13L3 15.077V5.857C3.00073 5.12858 3.27938 4.42789 3.77908 3.8979C4.27878 3.3679 4.96188 3.04855 5.689 3.005L42.143 3ZM42 6H6V14.985H9V12C8.99996 11.2348 9.29233 10.4985 9.81728 9.94174C10.3422 9.38499 11.0601 9.04989 11.824 9.005L36 9C36.7652 8.99996 37.5015 9.29233 38.0583 9.81728C38.615 10.3422 38.9501 11.0601 38.995 11.824L39 36C39 36.7652 38.7077 37.5015 38.1827 38.0583C37.6578 38.615 36.9399 38.9501 36.176 38.995L12 39C11.2348 39 10.4985 38.7077 9.94174 38.1827C9.38499 37.6578 9.04989 36.9399 9.005 36.176L9 32.985H6V42H42V6ZM36 12H12V36H36V12ZM9 18H6V30H9V18ZM30 21C30.7956 21 31.5587 21.3161 32.1213 21.8787C32.6839 22.4413 33 23.2044 33 24C33 24.7956 32.6839 25.5587 32.1213 26.1213C31.5587 26.6839 30.7956 27 30 27C29.5083 26.9993 29.0245 26.8769 28.5916 26.6438C28.1587 26.4107 27.7902 26.0741 27.519 25.664L27.417 25.5H22.5C22.1148 25.4998 21.7444 25.3514 21.4656 25.0856C21.1868 24.8198 21.021 24.4569 21.0025 24.0721C20.984 23.6873 21.1142 23.3102 21.3662 23.0188C21.6182 22.7274 21.9726 22.5442 22.356 22.507L22.5 22.5H27.416C27.6771 22.0451 28.0534 21.667 28.507 21.4037C28.9606 21.1404 29.4755 21.0012 30 21Z" class="svg-primary-fill"/>
  </g>
</svg>
