<svg xmlns="http://www.w3.org/2000/svg" width="48" height="48" viewBox="0 0 48 48">
  <g class="neo-icon-kit--selection-filled">
    <path fill="#006FCF" fill-rule="evenodd" d="M21 6H36C39.3137 6 42 8.68629 42 12V27C42 30.3137 39.3137 33 36 33V21C36 16.0294 31.9706 12 27 12L15 12C15 8.68629 17.6863 6 21 6ZM12 12C12 7.02944 16.0294 3 21 3H36C40.9706 3 45 7.02944 45 12V27C45 31.9706 40.9706 36 36 36C36 40.9706 31.9706 45 27 45H12C7.02944 45 3 40.9706 3 36V21C3 16.0294 7.02944 12 12 12ZM29.4909 21.3739C30.1129 21.9212 30.1734 22.869 29.6261 23.491L19.3046 35.2199C18.3752 36.2761 16.7576 36.3576 15.7267 35.4003L9.47933 29.5992C8.87226 29.0355 8.83711 28.0864 9.40082 27.4793C9.96452 26.8723 10.9136 26.8371 11.5207 27.4008L17.3917 32.8525L27.3739 21.5091C27.9212 20.8872 28.869 20.8267 29.4909 21.3739Z" class="svg-primary-fill" clip-rule="evenodd"/>
  </g>
</svg>
