<svg xmlns="http://www.w3.org/2000/svg" width="48" height="48" viewBox="0 0 48 48">
  <g class="neo-icon-kit--send-filled">
    <path fill="#006FCF" d="M32.366 43.312 32.368 43.306 44.971 6.197C45.13 5.739 44.595 5.525 44.252 5.869L22.007 28.111C21.721 28.397 21.636 28.827 21.79 29.201L27.687 43.447C27.878 43.914 28.206 44.313 28.628 44.59 29.054 44.87 29.556 45.013 30.065 45 30.575 44.987 31.069 44.819 31.48 44.517 31.892 44.215 32.201 43.794 32.366 43.312ZM3.412 19.375C3.692 19.801 4.097 20.13 4.57 20.32L18.793 26.21C19.167 26.365 19.597 26.279 19.883 25.993L42.129 3.747C42.472 3.405 42.259 2.87 41.801 3.029L4.696 15.633 4.69 15.635C4.268 15.78 3.893 16.035 3.603 16.372L3.485 16.521C3.183 16.932 3.015 17.426 3.002 17.936 2.989 18.446 3.132 18.948 3.412 19.375Z" class="svg-primary-fill"/>
  </g>
</svg>
