<svg xmlns="http://www.w3.org/2000/svg" width="48" height="48" viewBox="0 0 48 48">
  <g class="neo-icon-kit--send">
    <path fill="#006FCF" fill-rule="evenodd" d="M41.6903 3.1393C42.0716 3.00681 42.4781 2.96757 42.8758 3.02699L43.0497 3.05922L43.2215 3.10414C43.5602 3.20539 43.8735 3.37744 44.1405 3.60902L44.2694 3.72914L44.3905 3.85902C44.622 4.12604 44.7941 4.43934 44.8954 4.77797L44.9403 4.94887L44.9666 5.08851C44.9896 5.2287 45.001 5.37015 44.9998 5.51137C44.9977 5.78128 44.9494 6.04999 44.8602 6.30726L44.8622 6.30824L32.367 43.3063L32.3651 43.3121C32.1996 43.7947 31.8906 44.2155 31.4793 44.5172C31.0681 44.819 30.5742 44.9876 30.0643 45.0006C29.5545 45.0137 29.0529 44.8706 28.6268 44.5905C28.205 44.313 27.8772 43.914 27.6864 43.4469L21.326 28.0817C21.3242 28.0773 21.3219 28.0724 21.3202 28.068C21.1941 27.7551 21.0062 27.4704 20.7674 27.2321C20.5286 26.9937 20.2437 26.8067 19.9305 26.6813L19.9139 26.6745L4.56918 20.32C4.09586 20.13 3.69129 19.8007 3.41098 19.3746C3.13066 18.9485 2.98776 18.4461 3.00082 17.9362C3.01391 17.4263 3.18248 16.9324 3.48422 16.5211L3.60238 16.3717C3.89161 16.0347 4.26708 15.7802 4.6893 15.6354L4.69516 15.6334L41.6903 3.13734V3.1393ZM30.0379 41.1745L40.6151 9.50355L23.8623 26.2554L30.0379 41.1745ZM6.92074 18.0475L38.493 7.38344L21.7054 24.1701L6.92074 18.0475Z" class="svg-primary-fill" clip-rule="evenodd"/>
  </g>
</svg>
