<svg xmlns="http://www.w3.org/2000/svg" width="48" height="48" viewBox="0 0 48 48">
  <g class="neo-icon-kit--send-and-split">
    <path fill="#006FCF" d="M32.7798 14.8303C32.9184 14.9704 33.0835 15.0814 33.2655 15.157C33.4475 15.2325 33.6427 15.271 33.8398 15.2703C34.2198 15.2703 34.6098 15.1203 34.8998 14.8303L40.5298 9.20027C41.1298 8.60027 41.1298 7.66027 40.5298 7.08027L34.9298 1.48027C34.3298 0.880273 33.3898 0.880273 32.8098 1.48027C32.2098 2.08027 32.2098 3.02027 32.8098 3.60027L35.8698 6.66027H19.0998C13.5298 6.64027 8.99977 10.8603 8.99977 16.0403C8.99977 21.2803 13.5298 25.5403 19.0998 25.5403H28.9998C32.8398 25.5403 35.9698 28.4103 35.9698 31.9403C35.9698 35.4703 32.8398 38.3403 28.9998 38.3403H12.1598L15.2198 35.2803C15.8198 34.6803 15.8198 33.7403 15.2198 33.1603C14.6198 32.5603 13.6798 32.5603 13.0998 33.1603L7.45977 38.8003C6.85977 39.4003 6.85977 40.3403 7.45977 40.9203L13.0598 46.5203C13.1984 46.6604 13.3635 46.7714 13.5455 46.847C13.7275 46.9225 13.9227 46.961 14.1198 46.9603C14.4998 46.9603 14.8898 46.8103 15.1798 46.5203C15.7798 45.9203 15.7798 44.9803 15.1798 44.4003L12.1098 41.3303H28.9998C34.4998 41.3303 38.9698 37.1103 38.9698 31.9303C38.9698 26.7503 34.4998 22.5303 28.9998 22.5303H19.0998C15.1998 22.5403 11.9998 19.6303 11.9998 16.0303C11.9998 12.4303 15.1198 9.63027 19.0998 9.63027H35.8498L32.7798 12.7003C32.5002 12.9828 32.3442 13.3648 32.3461 13.7623C32.348 14.1598 32.5075 14.5403 32.7898 14.8203L32.7798 14.8303Z" class="svg-primary-fill"/>
  </g>
</svg>
