<svg xmlns="http://www.w3.org/2000/svg" width="48" height="48" viewBox="0 0 48 48">
  <g class="neo-icon-kit--send-and-split-filled">
    <path fill="#006FCF" d="M32.4296 15.1997C32.8296 15.5997 33.3297 15.7997 33.8297 15.7997C34.3297 15.7997 34.8496 15.5997 35.2296 15.1997L40.8596 9.56969C41.6396 8.78969 41.6396 7.51969 40.8596 6.73969L35.2596 1.13969C34.4796 0.359688 33.2096 0.359688 32.4296 1.13969C31.6496 1.91969 31.6496 3.18969 32.4296 3.96969L34.6297 6.16969H19.0996C13.2596 6.16969 8.49965 10.6097 8.49965 16.0697C8.49965 21.5897 13.2496 26.0697 19.0996 26.0697H28.9996C32.5696 26.0697 35.4697 28.7197 35.4697 31.9697C35.4697 35.2197 32.5696 37.8697 28.9996 37.8697H13.3596L15.5596 35.6697C16.3396 34.8897 16.3396 33.6197 15.5596 32.8397C14.7796 32.0597 13.5096 32.0597 12.7296 32.8397L7.09965 38.4397C6.31965 39.2197 6.31965 40.4897 7.09965 41.2697L12.6996 46.8697C13.0996 47.2697 13.5996 47.4697 14.0996 47.4697C14.5996 47.4697 15.1196 47.2697 15.4996 46.8697C16.2796 46.0897 16.2796 44.8197 15.4996 44.0397L13.2996 41.8397H28.9996C34.7696 41.8397 39.4697 37.3997 39.4697 31.9397C39.4697 26.4797 34.7696 22.0397 28.9996 22.0397H19.0796C15.4496 22.0397 12.4796 19.3397 12.4796 16.0397C12.4796 12.7397 15.3796 10.1397 19.0796 10.1397H34.6196L32.4196 12.3397C31.6496 13.1397 31.6496 14.4097 32.4396 15.1897H32.4296V15.1997Z" class="svg-primary-fill"/>
  </g>
</svg>
