<svg xmlns="http://www.w3.org/2000/svg" width="48" height="48" viewBox="0 0 48 48">
  <g class="neo-icon-kit--setting-filled">
    <path fill="#006FCF" fill-rule="evenodd" d="M27.7718 0H20.2262L20.056 0.00493299C18.5357 0.0933159 17.3264 1.35822 17.3264 2.9008V4.93948L16.7963 5.13375C16.269 5.3355 15.75 5.55965 15.2411 5.80555L13.7976 4.3621L13.6603 4.23484C12.5724 3.30176 10.708 3.34767 9.69643 4.3621L4.36012 9.69692L4.21693 9.85077C3.76033 10.3778 3.5119 11.0436 3.5119 11.748C3.5119 12.5233 3.8135 13.2515 4.36111 13.7986L5.80556 15.2421L5.56672 15.7548C5.33532 16.2706 5.12624 16.7951 4.93948 17.3264H2.8998L2.72965 17.3313C1.20935 17.4197 0 18.6846 0 20.2272V27.7728L0.00493111 27.943C0.0932803 29.4633 1.35771 30.6736 2.8998 30.6736H4.93948L5.13382 31.2024C5.33569 31.7286 5.56001 32.247 5.80555 32.756L4.36012 34.2014L4.22995 34.3404C3.23205 35.4784 3.27635 37.2178 4.36111 38.3026L9.69743 43.6379L9.83846 43.7691C10.9505 44.7312 12.749 44.6875 13.7986 43.6379L15.2441 42.1925L15.7568 42.4313C16.2725 42.6626 16.7969 42.8715 17.3274 43.0575V45.0992L17.3323 45.2694C17.4207 46.7897 18.6851 48 20.2272 48H27.7728L27.943 47.9951C29.4633 47.9067 30.6726 46.6413 30.6726 45.0992V43.0575L31.2021 42.8638C31.729 42.6623 32.2478 42.438 32.756 42.1925L34.2014 43.6369L34.3385 43.7639C35.4247 44.6954 37.2901 44.6513 38.3026 43.6369L43.6389 38.3016L43.7692 38.1626C44.768 37.0246 44.7246 35.2861 43.6389 34.2004L42.1935 32.755L42.4319 32.2429C42.6631 31.7279 42.8728 31.2039 43.0595 30.6726H45.1002L45.2704 30.6677C46.7906 30.5793 48 29.3139 48 27.7718V20.2262L47.9951 20.056C47.9067 18.5357 46.6423 17.3264 45.1002 17.3264H43.0605L42.8662 16.797C42.6643 16.2702 42.44 15.7516 42.1945 15.2431L43.6379 13.8001L43.7814 13.6464C44.2389 13.1197 44.4882 12.4538 44.4891 11.749C44.4891 10.9742 44.1875 10.246 43.6389 9.69743L38.3026 4.36211L38.1617 4.23096C37.0509 3.26907 35.2567 3.31058 34.2004 4.36161L32.756 5.80556L32.2439 5.56721C31.7287 5.33607 31.2044 5.12662 30.6716 4.93949V2.9008L30.6667 2.73059C30.5783 1.20981 29.3139 0 27.7718 0ZM17.9047 24C17.9047 20.6337 20.6336 17.9048 23.9999 17.9048C27.3663 17.9048 30.0952 20.6337 30.0952 24C30.0952 27.3663 27.3663 30.0952 23.9999 30.0952C20.6336 30.0952 17.9047 27.3663 17.9047 24Z" class="svg-primary-fill" clip-rule="evenodd"/>
  </g>
</svg>
