<svg xmlns="http://www.w3.org/2000/svg" width="48" height="48" viewBox="0 0 48 48">
  <g class="neo-icon-kit--setting">
    <path fill="#006FCF" fill-rule="evenodd" d="M30.6718 2.90077C30.6718 1.30108 29.3712 0 27.772 0H20.2265C18.6273 0 17.3267 1.30108 17.3267 2.90077V4.93944C16.6164 5.18844 15.92 5.47763 15.2414 5.8055L13.798 4.36206C12.738 3.30155 10.7529 3.30354 9.69683 4.36206L4.36157 9.69682C3.81396 10.2449 3.51237 10.9731 3.51237 11.7479C3.51237 12.5232 3.81445 13.2513 4.36206 13.798L5.8055 15.2419C5.47763 15.921 5.18845 16.6174 4.93944 17.3262H2.90077C1.30108 17.3262 0 18.6273 0 20.227V27.7725C0 29.3717 1.30108 30.6733 2.90077 30.6733H4.94042C5.18943 31.3826 5.47861 32.0781 5.80599 32.7556L4.36107 34.201C3.23162 35.332 3.23212 37.1722 4.36206 38.3022L9.69782 43.6384C10.794 44.7337 12.7037 44.7327 13.799 43.6375L15.2444 42.192C15.924 42.5204 16.6204 42.8091 17.3277 43.0571V45.0988C17.3277 46.6979 18.6283 47.9995 20.2275 47.9995H27.773C29.3722 47.9995 30.6728 46.6979 30.6728 45.0987V43.0571C31.3821 42.8091 32.0785 42.5194 32.7561 42.192L34.2015 43.6364C35.262 44.6969 37.2451 44.695 38.3027 43.6364L43.6389 38.3012C44.7699 37.1702 44.7699 35.331 43.6389 34.2L42.1935 32.7546C42.5209 32.076 42.8106 31.3806 43.0596 30.6723H45.1002C46.6994 30.6723 48 29.3707 48 27.7715V20.226C48 18.6268 46.6994 17.3262 45.1002 17.3262H43.0606C42.8116 16.6169 42.5219 15.921 42.1945 15.2429L43.6379 13.7999C44.1866 13.2523 44.4881 12.5242 44.4891 11.7489C44.4891 10.9741 44.1876 10.2459 43.6389 9.69731L38.3027 4.36205C37.2075 3.26732 35.3027 3.26484 34.2005 4.36156L32.7561 5.80549C32.0775 5.47811 31.3821 5.18894 30.6718 4.93943V2.90077ZM20.3743 3.04759H27.6242V6.0525C27.6242 6.73205 28.0746 7.32977 28.7274 7.51727C29.9694 7.87341 31.1728 8.3734 32.3037 9.00286C32.896 9.33222 33.639 9.23054 34.1222 8.74939L36.2511 6.62045L41.38 11.7479L39.2511 13.8758C38.7699 14.357 38.6658 15.0995 38.9971 15.6943C39.6261 16.8267 40.1261 18.0301 40.4832 19.2706C40.6707 19.9239 41.2679 20.3738 41.9475 20.3738H44.9524V27.6247H41.9475C41.2679 27.6247 40.6717 28.0741 40.4832 28.7269C40.1261 29.966 39.6261 31.1703 38.9961 32.3052C38.6658 32.8995 38.7699 33.6405 39.2511 34.1217L41.38 36.2506L36.2521 41.3776L34.1222 39.2486C33.639 38.7655 32.896 38.6623 32.3037 38.9946C31.1718 39.6246 29.9694 40.1236 28.7294 40.4788C28.0756 40.6663 27.6252 41.2645 27.6252 41.944V44.9519H20.3753V41.944C20.3753 41.2635 19.9249 40.6662 19.2701 40.4787C18.037 40.1266 16.8346 39.6266 15.6958 38.9936C15.1015 38.6633 14.3585 38.7655 13.8783 39.2486L11.7484 41.3785L6.62047 36.2506L8.74991 34.1217C9.23155 33.6405 9.33522 32.8975 9.00388 32.3032C8.37343 31.1713 7.87393 29.9689 7.51828 28.7299C7.33078 28.0761 6.73308 27.6257 6.05352 27.6257H3.04759V20.3738H6.05251C6.73206 20.3738 7.32977 19.9234 7.51727 19.2701C7.87243 18.0321 8.37243 16.8282 9.00337 15.6928C9.33421 15.0981 9.23005 14.3565 8.7489 13.8754L6.62094 11.7474L11.7474 6.62096L13.8753 8.74891C14.3585 9.23254 15.1015 9.33274 15.6938 9.00288C16.8257 8.37342 18.0291 7.87343 19.2701 7.51728C19.9239 7.32978 20.3743 6.73208 20.3743 6.05252V3.04759ZM24.0002 16.3808C28.208 16.3808 31.6192 19.7919 31.6192 23.9998C31.6192 28.2076 28.208 31.6187 24.0002 31.6187C19.7923 31.6187 16.3812 28.2076 16.3812 23.9998C16.3812 19.7919 19.7923 16.3808 24.0002 16.3808ZM19.4288 23.9998C19.4288 21.4791 21.4795 19.4284 24.0002 19.4284C26.5209 19.4284 28.5716 21.4791 28.5716 23.9998C28.5716 26.5204 26.5209 28.5711 24.0002 28.5711C21.4795 28.5711 19.4288 26.5204 19.4288 23.9998Z" class="svg-primary-fill" clip-rule="evenodd"/>
  </g>
</svg>
