<svg xmlns="http://www.w3.org/2000/svg" width="48" height="48" viewBox="0 0 48 48">
  <g class="neo-icon-kit--share">
    <path fill="#006FCF" fill-rule="evenodd" d="M42 8C42 4.13401 38.866 1 35 1C31.134 1 28 4.13401 28 8C28 8.99902 28.2093 9.94917 28.5864 10.809L17.6476 18.7654C16.4114 17.6671 14.7836 17 13 17C9.13401 17 6 20.134 6 24C6 27.866 9.13401 31 13 31C14.7831 31 16.4106 30.3333 17.6466 29.2355L28.5864 37.191C28.2093 38.0508 28 39.001 28 40C28 43.866 31.134 47 35 47C38.866 47 42 43.866 42 40C42 36.134 38.866 33 35 33C33.2164 33 31.5886 33.6671 30.3524 34.7654L19.4132 26.81C19.7906 25.9499 20 24.9994 20 24C20 23.001 19.7907 22.0508 19.4136 21.191L30.3524 13.2346C31.5886 14.3329 33.2164 15 35 15C38.866 15 42 11.866 42 8ZM31 40C31 37.7909 32.7909 36 35 36C37.2091 36 39 37.7909 39 40C39 42.2091 37.2091 44 35 44C32.7909 44 31 42.2091 31 40ZM13 20C10.7909 20 9 21.7909 9 24C9 26.2091 10.7909 28 13 28C15.2091 28 17 26.2091 17 24C17 21.7909 15.2091 20 13 20ZM31 8C31 5.79086 32.7909 4 35 4C37.2091 4 39 5.79086 39 8C39 10.2091 37.2091 12 35 12C32.7909 12 31 10.2091 31 8Z" class="svg-primary-fill" clip-rule="evenodd"/>
  </g>
</svg>
