<svg xmlns="http://www.w3.org/2000/svg" width="48" height="48" viewBox="0 0 48 48">
  <g class="neo-icon-kit--share-filled">
    <path fill="#006FCF" d="M35 1C38.866 1 42 4.13401 42 8C42 11.866 38.866 15 35 15C33.2164 15 31.5886 14.3329 30.3524 13.2346L19.4136 21.191C19.7907 22.0508 20 23.001 20 24C20 24.9994 19.7906 25.9499 19.4132 26.81L30.3524 34.7654C31.5886 33.6671 33.2164 33 35 33C38.866 33 42 36.134 42 40C42 43.866 38.866 47 35 47C31.134 47 28 43.866 28 40C28 39.001 28.2093 38.0508 28.5864 37.191L17.6466 29.2355C16.4106 30.3333 14.7831 31 13 31C9.13401 31 6 27.866 6 24C6 20.134 9.13401 17 13 17C14.7836 17 16.4114 17.6671 17.6476 18.7654L28.5864 10.809C28.2093 9.94917 28 8.99902 28 8C28 4.13401 31.134 1 35 1Z" class="svg-primary-fill"/>
  </g>
</svg>
