<svg xmlns="http://www.w3.org/2000/svg" width="48" height="48" viewBox="0 0 48 48">
  <g class="neo-icon-kit--shipping-truck">
    <path fill="#006FCF" fill-rule="evenodd" d="M29.9909 6H2.99909L2.82355 6.00512C1.25489 6.09681 0 7.40897 0 9.00001V33.0002L0.00511635 33.1757C0.0967802 34.7448 1.40848 36.0002 2.99909 36.0002L5.997 36L6.00172 36.2246C6.12019 39.4295 8.76334 42 11.9958 42C15.3029 42 17.9935 39.3086 17.9935 36.0002H29.9888V36.0312H29.9914L29.9967 36.2548C30.1308 39.4455 32.7659 42 35.988 42C39.285 42 41.9675 39.3253 41.9846 36.0312H45.4139L45.5762 36.0262C46.9184 35.9424 47.9844 34.8275 47.9844 33.4707L48 22.7936L47.996 22.5598C47.8716 18.9112 44.846 15.9811 41.1447 15.9811H32.99V9.00001L32.9849 8.82442C32.8932 7.25533 31.5815 6 29.9909 6ZM9 36C9 34.3457 10.3458 33 12.0002 33C13.6542 33 15 34.3457 15 36C15 37.6543 13.6542 39 12.0002 39C10.3458 39 9 37.6543 9 36ZM36 33C34.3457 33 33 34.3457 33 36C33 37.6543 34.3457 39 36 39C37.6543 39 39 37.6543 39 36C39 34.3457 37.6543 33 36 33ZM3 9H30V32.9999H17.1873L17.0635 32.796C15.999 31.1182 14.1292 29.9997 11.9994 29.9997C9.86932 29.9997 7.99945 31.1182 6.93483 32.796L6.81104 32.9999H3V9ZM41.1467 19H33.0119L33 30.785L33.244 30.6529C33.9859 30.2678 34.8165 30.0305 35.6983 29.9869L35.994 29.9796C38.1343 29.9796 40.0122 31.1066 41.0724 32.7948L41.1957 33H44.9854L45 22.797C45 20.7697 43.3777 19.1069 41.3447 19.005L41.1467 19ZM23.6211 16.4966C24.1715 15.8774 24.1157 14.9293 23.4965 14.3789C22.8774 13.8285 21.9293 13.8843 21.3789 14.5035L14.4665 22.2799L11.5905 19.2348C11.0217 18.6325 10.0723 18.6054 9.47007 19.1742C8.86779 19.743 8.84067 20.6924 9.40948 21.2947L13.4095 25.53C14.0137 26.1698 15.0364 26.1543 15.6211 25.4966L23.6211 16.4966Z" class="svg-primary-fill" clip-rule="evenodd"/>
  </g>
</svg>
