<svg xmlns="http://www.w3.org/2000/svg" width="48" height="48" viewBox="0 0 48 48">
  <g class="neo-icon-kit--shipping-truck-filled">
    <path fill="#006FCF" fill-rule="evenodd" d="M29.9909 6C31.5815 6 32.8932 7.25533 32.9849 8.82442L32.99 9.00001V15.9811H41.1447C44.846 15.9811 47.8716 18.9112 47.996 22.5598L48 22.7936L47.9844 33.4707C47.9844 34.8275 46.9184 35.9424 45.5762 36.0262L45.4139 36.0312H41.9846C41.9675 39.3253 39.285 42 35.988 42C32.7659 42 30.1308 39.4455 29.9967 36.2548L29.9914 36.0312H29.9888V36.0002H17.9935C17.9935 39.3086 15.3029 42 11.9958 42C8.76334 42 6.12019 39.4295 6.00172 36.2246L5.997 36L2.99909 36.0002C1.40848 36.0002 0.0967802 34.7448 0.00511635 33.1757L0 33.0002V9.00001C0 7.40897 1.25489 6.09681 2.82355 6.00512L2.99909 6H29.9909ZM12.0002 33C10.3458 33 9 34.3457 9 36C9 37.6543 10.3458 39 12.0002 39C13.6542 39 15 37.6543 15 36C15 34.3457 13.6542 33 12.0002 33ZM33 36C33 34.3457 34.3457 33 36 33C37.6543 33 39 34.3457 39 36C39 37.6543 37.6543 39 36 39C34.3457 39 33 37.6543 33 36ZM41.1467 19H33.0119L33 30.785L33.244 30.6529C33.9859 30.2678 34.8165 30.0305 35.6983 29.9869L35.994 29.9796C38.1343 29.9796 40.0122 31.1066 41.0724 32.7948L41.1957 33H44.9854L45 22.797C45 20.7697 43.3777 19.1069 41.3447 19.005L41.1467 19ZM21.4866 14.394C22.0465 13.8797 22.9161 13.8629 23.4965 14.3789C24.1157 14.9293 24.1715 15.8774 23.6211 16.4966L15.6211 25.4966L15.5136 25.606C14.9176 26.1539 13.9782 26.1321 13.4095 25.53L9.40948 21.2947L9.30981 21.1778C8.8463 20.5752 8.90543 19.7075 9.47007 19.1742C10.0723 18.6054 11.0217 18.6325 11.5905 19.2348L14.4665 22.2799L21.3789 14.5035L21.4866 14.394Z" class="svg-primary-fill" clip-rule="evenodd"/>
  </g>
</svg>
