<svg xmlns="http://www.w3.org/2000/svg" width="48" height="48" viewBox="0 0 48 48">
  <g class="neo-icon-kit--ship-filled">
    <path fill="#006FCF" fill-rule="evenodd" d="M9 20.7776V12C9 10.3431 10.3431 9 12 9H19.5V6C19.5 4.34315 20.8431 3 22.5 3H25.5C27.1569 3 28.5 4.34315 28.5 6V9H36C37.6569 9 39 10.3431 39 12V20.7776L41.4611 21.5726C42.3351 21.855 42.7524 22.8493 42.3416 23.6708L36.3145 36.4487C35.9848 36.4659 35.657 36.5294 35.3421 36.6391C34.7382 36.8495 34.1814 37.23 33.748 37.7815C32.5507 39.3054 31.4364 39.9438 30.2502 39.9438C29.0639 39.9438 27.9497 39.3054 26.7523 37.7815C25.351 35.998 22.6494 35.998 21.248 37.7815C20.0507 39.3054 18.9364 39.9438 17.7502 39.9438C16.5639 39.9438 15.4497 39.3054 14.2523 37.7815C14.2327 37.7565 14.2128 37.7319 14.1927 37.7076C13.5366 36.9162 12.6188 36.4974 11.6855 36.4487L5.65836 23.6708C5.24762 22.8493 5.66492 21.855 6.53888 21.5726L9 20.7776ZM12 19.8084L23.5389 16.0807C23.8387 15.9838 24.1613 15.9838 24.4611 16.0807L36 19.8084V12H12V19.8084ZM24 42.4343C25.8368 44.0894 27.9328 44.9487 30.25 44.9487C32.5568 44.9487 34.6445 44.0971 36.4754 42.4563C38.5463 44.3896 40.9772 45.248 43.6859 44.9381C44.5079 44.8441 45.091 44.158 44.9883 43.4057C44.8855 42.6534 44.1358 42.1197 43.3138 42.2138C41.2201 42.4533 39.3957 41.6184 37.6999 39.5491C37.1083 38.8272 35.9296 38.8151 35.3204 39.5247C33.7544 41.3488 32.0874 42.2032 30.25 42.2032C28.4125 42.2032 26.7456 41.3488 25.1795 39.5247C24.5789 38.8251 23.4211 38.8251 22.8205 39.5247C21.2544 41.3488 19.5875 42.2032 17.75 42.2032C15.9126 42.2032 14.2456 41.3488 12.6796 39.5247C12.0704 38.8151 10.8917 38.8272 10.3001 39.5491C8.60432 41.6184 6.77987 42.4533 4.6862 42.2138C3.86417 42.1197 3.11449 42.6534 3.01174 43.4057C2.90899 44.158 3.49207 44.8441 4.3141 44.9381C7.02283 45.248 9.45371 44.3896 11.5246 42.4563C13.3555 44.0971 15.4432 44.9487 17.75 44.9487C20.0672 44.9487 22.1632 44.0894 24 42.4343ZM14.4266 25.3176C13.6387 25.5736 13.2075 26.4199 13.4635 27.2077C13.7195 27.9956 14.5658 28.4268 15.3536 28.1708L21.06 26.3167C21.8479 26.0607 22.279 25.2145 22.023 24.4266C21.767 23.6387 20.9208 23.2075 20.1329 23.4635L14.4266 25.3176ZM26.4635 24.4266C26.7195 23.6387 27.5658 23.2075 28.3536 23.4635L34.06 25.3176C34.8479 25.5736 35.279 26.4199 35.023 27.2077C34.767 27.9956 33.9208 28.4268 33.1329 28.1708L27.4266 26.3167C26.6387 26.0607 26.2075 25.2145 26.4635 24.4266Z" class="svg-primary-fill" clip-rule="evenodd"/>
  </g>
</svg>
