<svg xmlns="http://www.w3.org/2000/svg" width="48" height="48" viewBox="0 0 48 48">
  <g class="neo-icon-kit--ship">
    <path fill="#006FCF" fill-rule="evenodd" d="M9 12V20.7776L6.53888 21.5726C5.66492 21.855 5.24762 22.8493 5.65836 23.6708L11.6855 36.4487C12.6474 36.4989 13.5929 36.9422 14.2523 37.7815C15.0352 38.778 15.7827 39.3958 16.5379 39.7042L9.12239 23.8907L24 19.0844L38.8776 23.8907L31.462 39.7043C32.2174 39.396 32.9649 38.7781 33.748 37.7815C34.4074 36.9423 35.3527 36.499 36.3145 36.4487L42.3416 23.6708C42.7524 22.8493 42.3351 21.855 41.4611 21.5726L39 20.7776V12C39 10.3431 37.6569 9 36 9H28.5V6C28.5 4.34315 27.1569 3 25.5 3H22.5C20.8431 3 19.5 4.34315 19.5 6V9H12C10.3431 9 9 10.3431 9 12ZM23.5389 16.0807L12 19.8084V12H36V19.8084L24.4611 16.0807C24.1613 15.9838 23.8387 15.9838 23.5389 16.0807ZM22.5 9H25.5V6H22.5V9ZM24 42.4343C25.8368 44.0894 27.9328 44.9487 30.25 44.9487C32.5568 44.9487 34.6445 44.0971 36.4754 42.4563C38.5463 44.3896 40.9772 45.248 43.6859 44.9381C44.5079 44.8441 45.091 44.158 44.9883 43.4057C44.8855 42.6534 44.1358 42.1197 43.3138 42.2138C41.2201 42.4533 39.3957 41.6184 37.6999 39.5491C37.1083 38.8272 35.9296 38.8151 35.3204 39.5247C33.7544 41.3488 32.0874 42.2032 30.25 42.2032C28.4125 42.2032 26.7456 41.3488 25.1795 39.5247C24.5789 38.8251 23.4211 38.8251 22.8205 39.5247C21.2544 41.3488 19.5875 42.2032 17.75 42.2032C15.9126 42.2032 14.2456 41.3488 12.6796 39.5247C12.0704 38.8151 10.8917 38.8272 10.3001 39.5491C8.60432 41.6184 6.77987 42.4533 4.6862 42.2138C3.86417 42.1197 3.11449 42.6534 3.01174 43.4057C2.90899 44.158 3.49207 44.8441 4.3141 44.9381C7.02283 45.248 9.45371 44.3896 11.5246 42.4563C13.3555 44.0971 15.4432 44.9487 17.75 44.9487C20.0672 44.9487 22.1632 44.0894 24 42.4343ZM14.4266 25.3176L20.1329 23.4635C20.9208 23.2075 21.767 23.6387 22.023 24.4266C22.279 25.2145 21.8479 26.0607 21.06 26.3167L15.3536 28.1708C14.5658 28.4268 13.7195 27.9956 13.4635 27.2077C13.2075 26.4199 13.6387 25.5736 14.4266 25.3176ZM34.06 25.3176L28.3536 23.4635C27.5658 23.2075 26.7195 23.6387 26.4635 24.4266C26.2075 25.2145 26.6387 26.0607 27.4266 26.3167L33.1329 28.1708C33.9208 28.4268 34.767 27.9956 35.023 27.2077C35.279 26.4199 34.8479 25.5736 34.06 25.3176Z" class="svg-primary-fill" clip-rule="evenodd"/>
  </g>
</svg>
