<svg xmlns="http://www.w3.org/2000/svg" width="48" height="48" viewBox="0 0 48 48">
  <g class="neo-icon-kit--show">
    <path fill="#006FCF" fill-rule="evenodd" d="M45.5164 21.0571C38.0658 11.524 31.408 7 23.9956 7C16.4589 7 9.92196 11.4332 2.47025 21.0629C1.21138 22.6897 1.00104 23.0276 0.999513 24.0015C0.998777 24.9799 1.22826 25.348 2.47475 26.9429C9.92445 36.4748 16.5836 41 23.9956 41C31.4081 41 38.0657 36.4762 45.5164 26.9429C46.7715 25.3369 46.9913 25 46.9959 24C46.9999 23 46.7715 22.6631 45.5164 21.0571ZM4.68039 23.0397C11.6394 14.0467 17.4724 10.0909 23.9956 10.0909C30.3946 10.0909 36.3571 14.1424 43.3153 23.0455C43.7413 23.5907 43.9161 23.8208 44.0342 24C43.9161 24.1792 43.7413 24.4093 43.3153 24.9545C36.357 33.8577 30.3947 37.9091 23.9956 37.9091C17.5971 37.9091 11.6331 33.8563 4.67588 24.9545C4.25575 24.4169 4.07878 24.1835 3.96038 24.0037C4.07655 23.826 4.24407 23.6036 4.68039 23.0397ZM23.9999 14C29.5227 14 33.9999 18.4772 33.9999 24C33.9999 29.5228 29.5227 34 23.9999 34C18.477 34 13.9999 29.5228 13.9999 24C13.9999 18.4772 18.477 14 23.9999 14ZM16.9999 24C16.9999 20.134 20.1339 17 23.9999 17C27.8659 17 30.9999 20.134 30.9999 24C30.9999 27.866 27.8659 31 23.9999 31C20.1339 31 16.9999 27.866 16.9999 24Z" class="svg-primary-fill" clip-rule="evenodd"/>
  </g>
</svg>
