<svg xmlns="http://www.w3.org/2000/svg" width="48" height="48" viewBox="0 0 48 48">
  <g class="neo-icon-kit--show-filled">
    <path fill="#006FCF" fill-rule="evenodd" d="M45.5164 21.0571C38.0658 11.524 31.4081 7 23.9956 7C16.4589 7 9.92196 11.4332 2.47025 21.0629C1.21139 22.6897 1.00104 23.0276 0.999513 24.0015C0.998779 24.9799 1.22826 25.348 2.47475 26.9429C9.92445 36.4748 16.5836 41 23.9956 41C31.4081 41 38.0657 36.4762 45.5164 26.9429C46.7715 25.3369 46.9913 25 46.9959 24C46.9999 23 46.7715 22.6631 45.5164 21.0571ZM16.9999 24C16.9999 20.134 20.1339 17 23.9999 17C27.8659 17 30.9999 20.134 30.9999 24C30.9999 27.866 27.8659 31 23.9999 31C20.1339 31 16.9999 27.866 16.9999 24Z" class="svg-primary-fill" clip-rule="evenodd"/>
  </g>
</svg>
