<svg xmlns="http://www.w3.org/2000/svg" width="48" height="48" viewBox="0 0 48 48">
  <g class="neo-icon-kit--shuttle-filled">
    <path fill="#006FCF" fill-rule="evenodd" d="M45 15C45 11.3015 42.4902 8.18914 39.0808 7.27328C37.7406 4.73218 35.0726 3 32 3H16C12.9274 3 10.2594 4.73218 8.91922 7.27328C5.50983 8.18914 3 11.3015 3 15C3 15.2089 3.00801 15.416 3.02373 15.6208C3.00807 15.745 3 15.8716 3 16V40.5C3 42.9853 5.01472 45 7.5 45C9.98528 45 12 42.9853 12 40.5V39H36V40.5C36 42.9853 38.0147 45 40.5 45C42.9853 45 45 42.9853 45 40.5V16C45 15.8716 44.9919 15.745 44.9763 15.6208C44.992 15.416 45 15.2089 45 15ZM42 39H39V40.5C39 41.3284 39.6716 42 40.5 42C41.3284 42 42 41.3284 42 40.5V39ZM6 40.5L6 39H9V40.5C9 41.3284 8.32843 42 7.5 42C6.67157 42 6 41.3284 6 40.5ZM11.0002 29C12.102 29.004 12.998 29.8984 13 31.009C12.998 32.1058 12.102 32.9997 11.0002 33C9.89168 32.9997 8.99514 32.1058 9.00002 31.009C8.99483 29.8982 9.89138 29.0037 11.0002 29ZM39 31.009C38.998 29.8984 38.102 29.004 37.0002 29C35.8914 29.0037 34.9948 29.8982 35 31.009C34.9951 32.1058 35.8917 32.9997 37.0002 33C38.102 32.9997 38.998 32.1058 39 31.009ZM9 19C9 17.3431 10.3431 16 12 16H36C37.6569 16 39 17.3431 39 19V22C39 23.6569 37.6569 25 36 25H12C10.3431 25 9 23.6569 9 22V19ZM19.5 7C18.6716 7 18 7.67157 18 8.5C18 9.32843 18.6716 10 19.5 10H28.5C29.3284 10 30 9.32843 30 8.5C30 7.67157 29.3284 7 28.5 7H19.5Z" class="svg-primary-fill" clip-rule="evenodd"/>
  </g>
</svg>
