<svg xmlns="http://www.w3.org/2000/svg" width="48" height="48" viewBox="0 0 48 48">
  <g class="neo-icon-kit--shuttle">
    <g fill="#006FCF" class="svg-primary-fill">
      <path d="M18 9.5C18 8.67157 18.6716 8 19.5 8H28.5C29.3284 8 30 8.67157 30 9.5C30 10.3284 29.3284 11 28.5 11H19.5C18.6716 11 18 10.3284 18 9.5Z"/>
      <path fill-rule="evenodd" d="M9 17C9 15.3431 10.3431 14 12 14H36C37.6569 14 39 15.3431 39 17V23C39 24.6569 37.6569 26 36 26H12C10.3431 26 9 24.6569 9 23V17ZM12 17H36V23H12V17Z" clip-rule="evenodd"/>
      <path d="M11.0002 29C12.102 29.004 12.998 29.8984 13 31.009 12.998 32.1058 12.102 32.9997 11.0002 33 9.89168 32.9997 8.99514 32.1058 9.00002 31.009 8.99483 29.8982 9.89138 29.0037 11.0002 29zM37.0002 29C38.102 29.004 38.998 29.8984 39 31.009 38.998 32.1058 38.102 32.9997 37.0002 33 35.8917 32.9997 34.9951 32.1058 35 31.009 34.9948 29.8982 35.8914 29.0037 37.0002 29z"/>
      <path fill-rule="evenodd" d="M45 16V40.5C45 42.9853 42.9853 45 40.5 45C38.0147 45 36 42.9853 36 40.5V39H12V40.5C12 42.9853 9.98528 45 7.5 45C5.01472 45 3 42.9853 3 40.5V16C3 15.8716 3.00807 15.745 3.02373 15.6208C3.00801 15.416 3 15.2089 3 15C3 11.3015 5.50983 8.18914 8.91922 7.27328C10.2594 4.73218 12.9274 3 16 3H32C35.0726 3 37.7406 4.73218 39.0808 7.27328C42.4902 8.18914 45 11.3015 45 15C45 15.2089 44.992 15.416 44.9763 15.6208C44.9919 15.745 45 15.8716 45 16ZM36.4272 8.67278L37.038 9.83089L38.3025 10.1706C40.4344 10.7433 42 12.6926 42 15C42 15.1322 41.9949 15.2627 41.9851 15.3913L41.9618 15.6945L41.9999 15.9962L42 16V36H6L6 16L6.00008 15.9971L6.03821 15.6945L6.01494 15.3912C6.00507 15.2627 6 15.1322 6 15C6 12.6926 7.56559 10.7433 9.69752 10.1706L10.962 9.83089L11.5728 8.67278C12.4144 7.07701 14.0838 6 16 6H32C33.9162 6 35.5856 7.07701 36.4272 8.67278ZM39 39H42V40.5C42 41.3284 41.3284 42 40.5 42C39.6716 42 39 41.3284 39 40.5V39ZM9 39V40.5C9 41.3284 8.32843 42 7.5 42C6.67157 42 6 41.3284 6 40.5L6 39H9Z" clip-rule="evenodd"/>
    </g>
  </g>
</svg>
