<svg xmlns="http://www.w3.org/2000/svg" width="48" height="48" viewBox="0 0 48 48">
  <g class="neo-icon-kit--social">
    <path fill="#006FCF" fill-rule="evenodd" d="M28.4204 0.420257C22.1204 -0.779232 15.7204 0.620172 10.4204 4.21864C5.12044 7.81711 1.62044 13.3148 0.420436 19.6121C-0.779564 25.9094 0.620436 32.3067 4.22044 37.6044C8.92044 44.3016 16.4204 48 24.0204 48C28.7204 48 33.4204 46.6006 37.5204 43.8018C38.2204 43.302 38.4204 42.4024 37.9204 41.7027C37.4204 41.003 36.5204 40.8031 35.8204 41.3029C26.3204 47.8001 13.2204 45.4011 6.62044 35.9051C3.42044 31.3071 2.22044 25.7095 3.32044 20.2118L3.40374 19.7793C4.4847 14.4628 7.54412 9.83204 12.1204 6.71758C16.7204 3.51894 22.3204 2.31945 27.8204 3.41898L28.2532 3.50225C33.572 4.58275 38.2046 7.64087 41.3204 12.2152C44.4204 16.7133 45.6204 22.211 44.7204 27.6087C44.3204 30.0077 42.4204 31.8069 40.2204 31.8069H39.6204L39.4095 31.8018C37.0987 31.689 35.1204 29.7401 35.1204 27.5087V12.6151L35.1133 12.4751C35.0377 11.7355 34.3734 11.1157 33.6204 11.1157C32.8204 11.1157 32.0204 11.7154 32.0204 12.5151V15.9137L31.8 15.6687C29.7131 13.4131 26.8032 12.0153 23.5204 12.0153C17.2204 12.0153 12.0204 17.413 12.0204 24.0102C12.0204 30.6074 17.1204 36.0051 23.5204 36.0051C27.4204 36.0051 30.9204 34.006 32.9204 30.8073C34.2204 33.1063 36.7204 34.6057 39.5204 34.6057H40.1204L40.3747 34.601C43.6691 34.4801 46.5429 32.0193 47.4204 28.6083C47.5204 28.6083 47.7204 27.6087 47.7204 27.6087L47.7886 27.1222C48.5486 21.2824 47.2258 15.3761 43.8204 10.416C40.2204 5.11826 34.7204 1.61975 28.4204 0.420257ZM15.0204 24.0102C15.0204 19.0123 18.8204 15.014 23.5204 15.014C28.2204 15.014 32.0204 19.0123 32.0204 24.0102C32.0204 29.0081 28.2204 33.0064 23.5204 33.0064C18.8204 33.0064 15.0204 29.0081 15.0204 24.0102Z" class="svg-primary-fill" clip-rule="evenodd"/>
  </g>
</svg>
