<svg xmlns="http://www.w3.org/2000/svg" width="49" height="48" viewBox="0 0 49 48">
  <g class="neo-icon-kit--social-filled">
    <path fill="#006FCF" fill-rule="evenodd" d="M43.8368 10.3859C36.234 -0.41811 21.3284 -3.31919 10.4243 4.18361C5.12235 7.78496 1.52101 13.287 0.420593 19.5894L0.337392 20.0507C-0.710228 26.2034 0.708506 32.4234 4.22202 37.5961C8.92377 44.3987 16.4266 48 24.0294 48C28.7312 48 33.4329 46.5995 37.5345 43.7984C38.6349 42.9981 38.935 41.4976 38.2347 40.2971C37.4344 39.1967 35.9339 38.8966 34.7334 39.5969C26.1302 45.4991 14.2258 43.2982 8.32355 34.695C5.42246 30.4935 4.42209 25.4916 5.32243 20.4897C6.22276 15.4878 9.02381 11.1862 13.2254 8.28515C21.8286 2.38294 33.7331 4.58376 39.6353 13.187C42.5363 17.3885 43.5367 22.3904 42.6364 27.2923C42.3363 28.9929 41.0358 30.5935 39.1351 30.5935H38.5349L38.3552 30.5885C36.6227 30.4932 35.0335 29.0362 35.0335 27.3923V12.2866L35.0283 12.1201C34.945 10.7998 33.8771 9.78571 32.5326 9.78571C31.1321 9.78571 30.0317 10.8861 30.0317 12.2866V13.9873L29.7433 13.7861C27.9885 12.6048 25.8038 11.8865 23.5292 11.8865C17.2269 11.8865 12.0249 17.2885 12.0249 23.991C12.0249 30.6935 17.1268 36.0955 23.5292 36.0955C26.7304 36.0955 29.7316 34.695 31.8323 32.3942C33.4329 34.3949 35.9339 35.6954 38.6349 35.6954H39.2351L39.5715 35.6884C41.2472 35.6188 42.824 35.0326 44.1369 34.0948C45.8376 32.8943 46.938 31.0937 47.5382 29.0929C47.8383 28.1926 47.9384 27.2923 47.9384 26.492C48.0384 25.2915 48.0384 23.991 48.0384 22.7906C47.9384 20.9899 47.6383 19.1892 47.1381 17.4886C46.5378 15.3878 45.6375 13.3871 44.5371 11.5864C44.4037 11.2529 44.2259 10.9639 44.0628 10.7194L43.8368 10.3859ZM17.0268 23.991C17.0268 20.1896 19.9279 16.9884 23.5292 16.9884C27.0305 16.9884 29.9316 19.9895 30.0317 23.7909V24.2911L30.0212 24.5315C29.8052 28.1216 26.9544 30.9936 23.5292 30.9936C19.9279 30.9936 17.0268 27.7924 17.0268 23.991Z" class="svg-primary-fill" clip-rule="evenodd"/>
  </g>
</svg>
