<svg xmlns="http://www.w3.org/2000/svg" width="48" height="48" viewBox="0 0 48 48">
  <g class="neo-icon-kit--sort-down-filled">
    <path fill="#006FCF" d="M45.81 30.56C45.936 30.864 46 31.189 46 31.517 46 31.846 45.935 32.171 45.809 32.474 45.683 32.777 45.498 33.053 45.266 33.284L36.162 42.364 36.073 42.444C35.628 42.804 35.073 43.001 34.501 43.001 33.928 43.001 33.373 42.805 32.928 42.445L32.838 42.363 23.635 33.172 23.558 33.087C23.168 32.608 22.969 32.001 23 31.384 23.031 30.766 23.291 30.18 23.729 29.742 24.197 29.273 24.834 29.01 25.497 29.009 26.16 29.009 26.797 29.272 27.267 29.74L32 34.468 32.006 7.38 32.011 7.252C32.073 6.636 32.361 6.065 32.819 5.649 33.28 5.231 33.879 5 34.501 5L34.747 5.012C34.991 5.036 35.23 5.096 35.458 5.19 35.761 5.316 36.037 5.5 36.269 5.732 36.501 5.964 36.686 6.24 36.811 6.543 36.937 6.846 37.002 7.172 37.002 7.5V34.473L41.843 29.644 41.926 29.572C42.405 29.186 43.01 28.989 43.625 29.02 44.243 29.052 44.829 29.312 45.267 29.75 45.499 29.982 45.684 30.257 45.81 30.56ZM10.5 36C11.328 36 12 36.672 12 37.5 12 38.328 11.328 39 10.5 39H4.5C3.672 39 3 38.328 3 37.5 3 36.672 3.672 36 4.5 36H10.5ZM13.5 24C14.328 24 15 24.672 15 25.5 15 26.328 14.328 27 13.5 27H4.5C3.672 27 3 26.328 3 25.5 3 24.672 3.672 24 4.5 24H13.5ZM19.5 12C20.328 12 21 12.672 21 13.5 21 14.328 20.328 15 19.5 15H4.5C3.672 15 3 14.328 3 13.5 3 12.672 3.672 12 4.5 12H19.5Z" class="svg-primary-fill"/>
  </g>
</svg>
