<svg xmlns="http://www.w3.org/2000/svg" width="48" height="48" viewBox="0 0 48 48">
  <g class="neo-icon-kit--sort-up-filled">
    <path fill="#006FCF" d="M23.187 17.441C23.061 17.137 22.997 16.812 22.997 16.484 22.997 16.155 23.062 15.83 23.188 15.527 23.314 15.224 23.499 14.949 23.731 14.717L32.835 5.637 32.924 5.557C33.369 5.197 33.924 5 34.496 5 35.069 5 35.624 5.196 36.069 5.556L36.159 5.638 45.362 14.829 45.439 14.914C45.829 15.393 46.028 16 45.997 16.617 45.966 17.235 45.706 17.821 45.268 18.259 44.799 18.728 44.163 18.991 43.5 18.992 42.837 18.992 42.2 18.729 41.73 18.261L36.997 13.533 36.991 40.621 36.985 40.749C36.924 41.365 36.636 41.936 36.178 42.352 35.717 42.77 35.118 43.001 34.496 43.001L34.25 42.989C34.006 42.965 33.767 42.905 33.539 42.811 33.236 42.685 32.96 42.501 32.728 42.269 32.495 42.037 32.311 41.761 32.185 41.458 32.06 41.155 31.995 40.829 31.995 40.501V13.528L27.154 18.357 27.071 18.429C26.592 18.815 25.987 19.012 25.372 18.981 24.754 18.949 24.168 18.689 23.73 18.251 23.498 18.019 23.313 17.744 23.187 17.441ZM10.5 15C11.328 15 12 14.328 12 13.5 12 12.672 11.328 12 10.5 12H4.5C3.672 12 3 12.672 3 13.5 3 14.328 3.672 15 4.5 15H10.5ZM13.5 27C14.328 27 15 26.328 15 25.5 15 24.672 14.328 24 13.5 24H4.5C3.672 24 3 24.672 3 25.5 3 26.328 3.672 27 4.5 27H13.5ZM19.5 39C20.328 39 21 38.328 21 37.5 21 36.672 20.328 36 19.5 36H4.5C3.672 36 3 36.672 3 37.5 3 38.328 3.672 39 4.5 39H19.5Z" class="svg-primary-fill"/>
  </g>
</svg>
