<svg xmlns="http://www.w3.org/2000/svg" width="48" height="48" viewBox="0 0 48 48">
  <g class="neo-icon-kit--sort-down">
    <path fill="#006FCF" d="M24.002 31.435C24.021 31.064 24.177 30.713 24.439 30.451L24.438 30.45C24.72 30.168 25.102 30.01 25.5 30.01 25.898 30.01 26.279 30.168 26.561 30.45L32.994 36.879 33.001 7.356C33.036 6.985 33.209 6.64 33.486 6.389 33.762 6.138 34.122 6 34.495 6 34.692 6 34.887 6.038 35.069 6.114 35.251 6.189 35.416 6.299 35.556 6.439 35.695 6.578 35.806 6.743 35.881 6.926 35.957 7.108 35.995 7.303 35.995 7.5V36.88L42.554 30.336C42.774 30.157 43.04 30.043 43.321 30.009 43.603 29.975 43.889 30.022 44.145 30.144 44.401 30.266 44.617 30.458 44.769 30.698 44.92 30.938 45 31.216 45 31.5 45 31.884 44.853 32.268 44.56 32.561L35.441 41.664C34.89 42.112 34.097 42.112 33.547 41.664L24.337 32.459C24.102 32.171 23.983 31.806 24.002 31.435ZM10.5 36C11.328 36 12 36.672 12 37.5 12 38.328 11.328 39 10.5 39H4.5C3.672 39 3 38.328 3 37.5 3 36.672 3.672 36 4.5 36H10.5ZM13.5 24C14.328 24 15 24.672 15 25.5 15 26.328 14.328 27 13.5 27H4.5C3.672 27 3 26.328 3 25.5 3 24.672 3.672 24 4.5 24H13.5ZM19.5 12C20.328 12 21 12.672 21 13.5 21 14.328 20.328 15 19.5 15H4.5C3.672 15 3 14.328 3 13.5 3 12.672 3.672 12 4.5 12H19.5Z" class="svg-primary-fill"/>
  </g>
</svg>
