<svg xmlns="http://www.w3.org/2000/svg" width="48" height="48" viewBox="0 0 48 48">
  <g class="neo-icon-kit--sort-filled">
    <path fill="#006FCF" fill-rule="evenodd" d="M1.27677 14.9787L1.17493 15.0912C0.20473 16.2792 0.287623 18.0159 1.37769 19.1079C2.55 20.2804 4.4494 20.2807 5.62224 19.1106L8.99948 15.738L9.00545 39.6447L9.01225 39.787C9.15889 41.3211 10.4497 42.5001 12 42.5001C13.6575 42.5001 15.0014 41.1572 15.0014 39.4998L15.0014 15.7342L18.4923 19.214L18.6044 19.315C19.7938 20.283 21.5304 20.1999 22.6214 19.1088C23.1907 18.539 23.5 17.7763 23.5 16.9874C23.5 16.198 23.1903 15.4346 22.6204 14.8651L14.0067 6.27415L13.8943 6.17282C12.7921 5.2758 11.207 5.27574 10.1053 6.17322L9.99278 6.27476L1.27677 14.9787ZM25.5182 28.7602L25.3781 28.8918C24.2071 30.0639 24.2071 31.9635 25.3795 33.135L33.9936 41.7261L34.1055 41.827C35.2937 42.7949 37.0291 42.7121 38.1209 41.623L46.7238 33.0207L46.8252 32.9085C47.2657 32.369 47.5 31.6993 47.5 31.0127C47.5 30.2238 47.1906 29.4612 46.6218 28.8918C45.4499 27.7198 43.5505 27.7195 42.3777 28.8895L39.0004 32.2622L38.9945 8.3555L38.9877 8.21314C38.841 6.67905 37.5502 5.50008 35.9999 5.50008C34.3424 5.50008 32.9985 6.84293 32.9985 8.50039L32.9985 32.2659L29.5076 28.7862L29.3955 28.6851C28.2557 27.7575 26.6133 27.7952 25.5182 28.7602Z" class="svg-primary-fill" clip-rule="evenodd"/>
  </g>
</svg>
