<svg xmlns="http://www.w3.org/2000/svg" width="48" height="48" viewBox="0 0 48 48">
  <g class="neo-icon-kit--sort-up">
    <path fill="#006FCF" d="M44.998 16.565C44.979 16.936 44.823 17.287 44.561 17.549L44.562 17.55C44.28 17.832 43.898 17.99 43.5 17.99 43.102 17.99 42.721 17.832 42.439 17.55L36.006 11.121 35.999 40.644C35.964 41.016 35.791 41.36 35.515 41.611 35.238 41.862 34.879 42.001 34.506 42 34.309 42 34.113 41.962 33.931 41.886 33.749 41.811 33.584 41.701 33.444 41.561 33.305 41.422 33.194 41.257 33.119 41.075 33.043 40.892 33.005 40.697 33.005 40.5V11.12L26.446 17.664C26.226 17.843 25.96 17.957 25.679 17.991 25.397 18.025 25.112 17.978 24.855 17.856 24.599 17.734 24.383 17.542 24.231 17.302 24.08 17.062 24 16.784 24 16.5 24 16.116 24.147 15.732 24.44 15.439L33.559 6.336C34.11 5.888 34.903 5.888 35.453 6.336L44.664 15.541C44.898 15.829 45.017 16.194 44.998 16.565ZM10.5 15C11.328 15 12 14.328 12 13.5 12 12.672 11.328 12 10.5 12H4.5C3.672 12 3 12.672 3 13.5 3 14.328 3.672 15 4.5 15H10.5ZM13.5 27C14.328 27 15 26.328 15 25.5 15 24.672 14.328 24 13.5 24H4.5C3.672 24 3 24.672 3 25.5 3 26.328 3.672 27 4.5 27H13.5ZM19.5 39C20.328 39 21 38.328 21 37.5 21 36.672 20.328 36 19.5 36H4.5C3.672 36 3 36.672 3 37.5 3 38.328 3.672 39 4.5 39H19.5Z" class="svg-primary-fill"/>
  </g>
</svg>
