<svg xmlns="http://www.w3.org/2000/svg" width="48" height="48" viewBox="0 0 48 48">
  <g class="neo-icon-kit--sort">
    <path fill="#006FCF" fill-rule="evenodd" d="M2.33665 16.0401C1.8556 16.6291 1.89034 17.4984 2.43925 18.0482C3.02525 18.6343 3.97584 18.6343 4.56282 18.0487L10.4985 12.1211L10.5054 39.6443C10.5781 40.4053 11.2193 41.0001 11.9999 41.0001C12.8293 41.0001 13.5013 40.3286 13.5013 39.4998L13.5013 12.1211L19.5512 18.1517C20.1414 18.632 21.0113 18.5977 21.5606 18.0482C21.8534 17.7552 22 17.3714 22 16.9875C22 16.6036 21.8534 16.2193 21.5601 15.9262L12.9474 7.33626C12.3967 6.88811 11.6027 6.88807 11.0527 7.3362L2.33665 16.0401ZM28.4487 29.8486C27.8584 29.3682 26.9886 29.4025 26.4393 29.952C25.8537 30.538 25.8533 31.4879 26.4397 32.074L35.0528 40.6641C35.6423 41.1442 36.5114 41.1098 37.0615 40.5611L45.6632 31.96C45.8877 31.685 46 31.3491 46 31.0127C46 30.6289 45.8534 30.245 45.5606 29.952C44.9746 29.3659 44.024 29.3659 43.4371 29.9515L37.5013 35.8791L37.4945 8.35591C37.4217 7.59496 36.7805 7.00012 35.9999 7.00012C35.1706 7.00012 34.4985 7.67165 34.4985 8.50043L34.4985 35.8791L28.4487 29.8486Z" class="svg-primary-fill" clip-rule="evenodd"/>
  </g>
</svg>
