<svg xmlns="http://www.w3.org/2000/svg" width="48" height="48" viewBox="0 0 48 48">
  <g class="neo-icon-kit--sound-on">
    <path fill="#006FCF" fill-rule="evenodd" d="M13.4451 15.7442L23.5238 7.35355C24.4968 6.54351 26 7.21501 26 8.45971V39.5402C26 40.8016 24.4618 41.4669 23.4966 40.6231L13.9244 32.2557H3.5C2.67157 32.2557 2 31.6035 2 30.7988V17.2011C2 16.3965 2.67157 15.7442 3.5 15.7442H13.4451ZM37.5748 39.687C38.2242 40.1903 39.1606 40.0743 39.6662 39.4278C43.1027 35.0343 45 29.6322 45 23.9465C45 18.3598 43.0897 13.0007 39.6714 8.57885C39.1695 7.92953 38.2338 7.80822 37.5815 8.30789C36.9292 8.80756 36.8073 9.739 37.3093 10.3883C40.3346 14.3017 42.0194 19.0284 42.0194 23.9465C42.0194 28.966 40.3469 33.728 37.3145 37.605C36.8088 38.2515 36.9254 39.1836 37.5748 39.687ZM30.6355 34.7174C31.3145 35.207 32.2554 35.0443 32.737 34.3539C34.8411 31.3375 36 27.7551 36 24.0221C36 20.2491 34.8461 16.6485 32.7341 13.6419C32.2503 12.9532 31.3089 12.7936 30.6314 13.2855C29.954 13.7774 29.797 14.7345 30.2808 15.4232C32.0306 17.9142 32.9853 20.8932 32.9853 24.0221C32.9853 27.1095 32.0261 30.0748 30.2779 32.5809C29.7964 33.2713 29.9564 34.2278 30.6355 34.7174ZM23 11.6273V36.269L15.5034 29.7159C15.228 29.4752 14.8706 29.3419 14.5 29.3419H5V18.658H14C14.3581 18.658 14.7043 18.5336 14.9762 18.3073L23 11.6273Z" class="svg-primary-fill" clip-rule="evenodd"/>
  </g>
</svg>
