<svg xmlns="http://www.w3.org/2000/svg" width="48" height="48" viewBox="0 0 48 48">
  <g class="neo-icon-kit--sound-off-filled">
    <path fill="#006FCF" fill-rule="evenodd" d="M23.5238 7.35357L16.3987 13.2853L7.17407 4.06068C6.58828 3.47489 5.63853 3.47489 5.05275 4.06068C4.46696 4.64646 4.46696 5.59621 5.05275 6.182L42.5294 43.6587C43.1152 44.2444 44.0649 44.2444 44.6507 43.6587C45.2365 43.0729 45.2365 42.1231 44.6507 41.5373L40.8685 37.7551C43.5424 33.6955 45 28.93 45 23.9465C45 18.3598 43.0897 13.0007 39.6714 8.57886C39.1695 7.92955 38.2338 7.80824 37.5815 8.30791C36.9292 8.80758 36.8073 9.73901 37.3093 10.3883C40.3346 14.3018 42.0194 19.0284 42.0194 23.9465C42.0194 28.1312 40.857 32.1368 38.7133 35.5999L34.4447 31.3313C35.4588 29.0536 36 26.573 36 24.0222C36 20.2491 34.8461 16.6485 32.7341 13.642C32.2503 12.9532 31.3089 12.7936 30.6314 13.2855C29.954 13.7774 29.797 14.7345 30.2808 15.4232C32.0306 17.9142 32.9853 20.8932 32.9853 24.0222C32.9853 25.7417 32.6878 27.4233 32.1221 29.0088L26 22.8866V8.45973C26 7.21502 24.4968 6.54353 23.5238 7.35357ZM26 39.5403V31.3719L10.3723 15.7442H3.5C2.67157 15.7442 2 16.3965 2 17.2011V30.7989C2 31.6035 2.67157 32.2558 3.5 32.2558H13.9244L23.4966 40.6232C24.4618 41.467 26 40.8016 26 39.5403Z" class="svg-primary-fill" clip-rule="evenodd"/>
  </g>
</svg>
