<svg xmlns="http://www.w3.org/2000/svg" width="48" height="48" viewBox="0 0 48 48">
  <g class="neo-icon-kit--sound-off">
    <path fill="#006FCF" fill-rule="evenodd" d="M42.5294 43.6586L5.05275 6.18197C4.46696 5.59618 4.46696 4.64643 5.05275 4.06065C5.63853 3.47486 6.58828 3.47486 7.17407 4.06065L16.4655 13.352L23.5122 7.36329C24.4821 6.53904 26 7.20801 26 8.45972V22.8866L32.1221 29.0087C32.6878 27.4232 32.9853 25.7416 32.9853 24.0221C32.9853 20.8932 32.0306 17.9142 30.2808 15.4232C29.797 14.7345 29.954 13.7774 30.6314 13.2855C31.3089 12.7936 32.2503 12.9532 32.7341 13.6419C34.8461 16.6485 36 20.2491 36 24.0221C36 26.573 35.4588 29.0536 34.4447 31.3313L38.7133 35.5999C40.857 32.1368 42.0194 28.1311 42.0194 23.9465C42.0194 19.0284 40.3346 14.3017 37.3093 10.3883C36.8073 9.73898 36.9292 8.80755 37.5815 8.30788C38.2338 7.80821 39.1695 7.92952 39.6714 8.57883C43.0897 13.0006 45 18.3598 45 23.9465C45 28.93 43.5424 33.6955 40.8685 37.755L44.6507 41.5373C45.2365 42.1231 45.2365 43.0728 44.6507 43.6586C44.0649 44.2444 43.1152 44.2444 42.5294 43.6586ZM18.5585 15.4451L23 19.8866V11.6704L18.5585 15.4451ZM3.5 32.2557H13.9244L23.4966 40.6231C24.4618 41.4669 26 40.8016 26 39.5402V31.2845C26 30.4798 25.3284 29.8276 24.5 29.8276C23.6716 29.8276 23 30.4798 23 31.2845V36.269L15.5034 29.7159C15.228 29.4752 14.8706 29.3419 14.5 29.3419H5V18.658H10C10.8284 18.658 11.5 18.0057 11.5 17.2011C11.5 16.3965 10.8284 15.7442 10 15.7442H3.5C2.67157 15.7442 2 16.3965 2 17.2011V30.7988C2 31.6035 2.67157 32.2557 3.5 32.2557Z" class="svg-primary-fill" clip-rule="evenodd"/>
  </g>
</svg>
