<svg xmlns="http://www.w3.org/2000/svg" width="48" height="48" viewBox="0 0 48 48">
  <g class="neo-icon-kit--sound-on-filled">
    <path fill="#006FCF" fill-rule="evenodd" d="M23.5238 7.35355L13.4451 15.7442H3.5C2.67157 15.7442 2 16.3965 2 17.2011V30.7988C2 31.6035 2.67157 32.2557 3.5 32.2557H13.9244L23.4966 40.6231C24.4618 41.4669 26 40.8016 26 39.5402V8.45971C26 7.21501 24.4968 6.54351 23.5238 7.35355ZM39.6662 39.4278C39.1606 40.0743 38.2242 40.1903 37.5748 39.687C36.9254 39.1836 36.8088 38.2515 37.3145 37.605C40.3469 33.728 42.0194 28.966 42.0194 23.9465C42.0194 19.0284 40.3346 14.3017 37.3093 10.3883C36.8073 9.739 36.9292 8.80756 37.5815 8.30789C38.2338 7.80822 39.1695 7.92953 39.6714 8.57885C43.0897 13.0007 45 18.3598 45 23.9465C45 29.6322 43.1027 35.0343 39.6662 39.4278ZM32.737 34.3539C32.2554 35.0443 31.3145 35.207 30.6355 34.7174C29.9564 34.2278 29.7964 33.2713 30.2779 32.5809C32.0261 30.0748 32.9853 27.1095 32.9853 24.0221C32.9853 20.8932 32.0306 17.9142 30.2808 15.4232C29.797 14.7345 29.954 13.7774 30.6314 13.2855C31.3089 12.7936 32.2503 12.9532 32.7341 13.6419C34.8461 16.6485 36 20.2491 36 24.0221C36 27.7551 34.8411 31.3375 32.737 34.3539Z" class="svg-primary-fill" clip-rule="evenodd"/>
  </g>
</svg>
