<svg xmlns="http://www.w3.org/2000/svg" width="48" height="48" viewBox="0 0 48 48">
  <g class="neo-icon-kit--spa-filled">
    <path fill="#006FCF" d="M25.0398 3.42988C28.6028 6.95988 31.0798 10.9639 32.4638 15.1369C34.0278 14.3799 35.7298 13.7929 37.5638 13.3739C38.2878 13.2089 39.0758 13.5469 39.2868 14.2479C39.4447 14.7196 39.5681 15.2022 39.6558 15.6919C40.0058 17.5579 40.0678 19.3389 39.9588 21.1049C40.7988 20.9689 42.6068 20.7449 43.3688 20.7879C44.1308 20.8309 44.6828 21.4039 44.7788 22.2049L44.9048 23.4709C45.4048 29.1279 43.9128 34.0229 40.4578 38.0709C36.8198 42.3379 31.5768 44.6669 25.3998 44.9999H22.8218C16.4118 44.7619 11.2838 42.4469 7.54878 38.0699C4.19178 34.1369 2.69878 29.4049 3.06478 23.9529L3.22778 22.2029C3.32478 21.4029 3.87578 20.8299 4.63778 20.7859C5.39978 20.7419 7.00178 20.9329 8.05078 21.1039C7.95078 19.3499 8.05878 17.5439 8.40078 15.6909C8.43878 15.4179 8.51878 15.0149 8.64378 14.4829C8.73618 14.0977 8.9772 13.7646 9.31424 13.5565C9.65129 13.3484 10.057 13.282 10.4428 13.3719C12.2007 13.7646 13.9088 14.354 15.5348 15.1289C16.9408 10.8649 19.4188 6.95888 22.9578 3.42888C23.2366 3.15406 23.6123 3 24.0038 3C24.3952 3 24.771 3.15406 25.0498 3.42888L25.0398 3.42988ZM23.9798 6.60688L23.6658 6.95688C21.1658 9.78188 19.3818 12.8319 18.3098 16.1169L18.1478 16.6369C17.9666 17.2358 17.8092 17.8416 17.6758 18.4529L17.5218 19.2189C17.2341 20.7891 17.0912 22.3825 17.0948 23.9789C17.0948 24.2933 17.1001 24.6077 17.1108 24.9219C18.1708 25.7319 19.1478 26.6649 20.0448 27.7159C21.9848 29.9899 23.3048 32.5319 23.9998 35.3159C24.6938 32.5219 26.0118 29.9799 27.9528 27.7159C28.8304 26.684 29.813 25.7463 30.8848 24.9179C30.8968 24.6184 30.9025 24.3186 30.9018 24.0189C30.9018 22.5729 30.7918 21.1649 30.5678 19.7939C30.5233 19.5174 30.4739 19.2427 30.4198 18.9679L30.3198 18.4379L30.2098 17.9599C30.1098 17.5439 29.9978 17.1299 29.8748 16.7219C28.7818 13.0689 26.8228 9.70188 23.9908 6.60688H23.9798Z" class="svg-primary-fill"/>
  </g>
</svg>
