<svg xmlns="http://www.w3.org/2000/svg" width="48" height="48" viewBox="0 0 48 48">
  <g class="neo-icon-kit--spa">
    <path fill="#006FCF" d="M25.0398 3.42988C28.6028 6.95988 31.0798 10.9639 32.4638 15.1369C34.0278 14.3799 35.7298 13.7929 37.5638 13.3739C38.2878 13.2089 39.0758 13.5469 39.2868 14.2479C39.4978 14.9489 39.5348 15.0679 39.6468 15.6519C39.9968 17.5179 40.0668 19.3399 39.9588 21.1049C40.7988 20.9689 42.6068 20.7449 43.3688 20.7879C44.1308 20.8309 44.7028 21.4279 44.7788 22.2049L44.9048 23.4709C45.4048 29.1279 43.9128 34.0229 40.4578 38.0709C36.8198 42.3379 31.5768 44.6669 25.3998 44.9999H22.8218C16.4118 44.7619 11.2838 42.4469 7.54878 38.0699C4.19178 34.1369 2.69878 29.4049 3.06478 23.9529L3.22778 22.2029C3.32478 21.4029 3.87578 20.8299 4.63778 20.7859C5.39978 20.7419 7.00178 20.9329 8.05078 21.1039C7.95078 19.3499 8.05878 17.5439 8.40078 15.6909C8.43878 15.4179 8.51878 15.0149 8.64378 14.4829C8.73618 14.0977 8.9772 13.7646 9.31424 13.5565C9.65129 13.3484 10.057 13.282 10.4428 13.3719C12.2007 13.7646 13.9088 14.354 15.5348 15.1289C16.9408 10.8649 19.4188 6.95888 22.9578 3.42888C23.2366 3.15406 23.6123 3 24.0038 3C24.3952 3 24.771 3.15406 25.0498 3.42888L25.0398 3.42988ZM6.07178 23.8419L6.06878 23.8819C5.67878 28.7449 6.93678 32.8419 9.83678 36.2589C12.4648 39.3549 15.8848 41.2339 20.1588 41.9059L20.7588 41.9919C21.0068 42.0239 21.2588 42.0519 21.5128 42.0759L21.5468 41.5939L21.5618 41.2939L21.5798 40.7699L21.5838 40.4949C21.5858 40.2289 21.5828 39.9649 21.5738 39.7049L21.5518 39.2199L21.5018 38.5869L21.4868 38.4329L21.4538 38.1309C21.0718 34.9309 19.8338 32.1139 17.7438 29.6509L17.3438 29.1849L17.0068 28.8249L16.7368 28.5509C16.5974 28.4121 16.455 28.2764 16.3098 28.1439L16.6438 28.4599L16.4258 28.2519L16.2058 28.0479L15.9558 27.8279L15.5698 27.5039L15.4598 27.4159C15.3093 27.2958 15.1566 27.1784 15.0018 27.0639L14.7118 26.8639L14.5818 26.7639C13.8818 26.2819 13.1458 25.8569 12.3698 25.4899L11.8998 25.2769L11.4668 25.0969L10.8968 24.8789L10.4318 24.7189L9.99478 24.5819L9.70178 24.4969L9.40578 24.4169L9.07978 24.3339L8.87578 24.2839C7.95458 24.0714 7.02014 23.921 6.07878 23.8339L6.07178 23.8419ZM36.0768 25.2979C35.4245 25.5825 34.7921 25.9106 34.1838 26.2799L33.7578 26.5499C33.3336 26.8261 32.9231 27.1227 32.5278 27.4389L32.0778 27.8139L31.7228 28.1299L31.5448 28.2959L31.2718 28.5599L31.0248 28.8099L30.9278 28.9099C30.8072 29.0364 30.6885 29.1647 30.5718 29.2949L30.4498 29.4349L30.2548 29.6599C28.1731 32.0728 26.8756 35.0624 26.5348 38.2309L26.5378 38.2269L26.5178 38.3969L26.4778 38.7889C26.4498 39.1289 26.4318 39.4709 26.4218 39.8189L26.4148 40.3429L26.4198 40.7799L26.4268 41.0449L26.4368 41.3019L26.4498 41.5599L26.4858 42.0769L26.8678 42.0369L27.4078 41.9699L27.8408 41.9059C32.1148 41.2339 35.5348 39.3559 38.1628 36.2589C40.9628 32.9589 42.2398 28.9989 41.9628 24.3359L41.9278 23.8429C41.1806 23.9127 40.4376 24.0215 39.7018 24.1689L38.9888 24.3269L38.5388 24.4409L38.0448 24.5809L37.5598 24.7329L37.1098 24.8879L36.9778 24.9359L36.6538 25.0589L36.3778 25.1689L36.0738 25.2989L36.0768 25.2979ZM23.9798 6.60588L23.6658 6.95588C21.1658 9.78088 19.3818 12.8309 18.3098 16.1159L18.1478 16.6359C17.9666 17.2348 17.8092 17.8406 17.6758 18.4519L17.5218 19.2179C17.2341 20.7881 17.0912 22.3815 17.0948 23.9779C17.0948 24.2923 17.1001 24.6067 17.1108 24.9209C18.1708 25.7309 19.1478 26.6639 20.0448 27.7149C21.9848 29.9889 23.3048 32.5309 23.9998 35.3149C24.6938 32.5209 26.0118 29.9789 27.9528 27.7149C28.8304 26.683 29.813 25.7453 30.8848 24.9169C30.8968 24.6174 30.9025 24.3176 30.9018 24.0179C30.9018 22.5719 30.7918 21.1639 30.5678 19.7929V19.7939C30.5233 19.5174 30.4739 19.2417 30.4198 18.9669L30.3198 18.4369L30.2098 17.9589C30.1098 17.5429 29.9978 17.1289 29.8748 16.7209C28.7818 13.0679 26.8228 9.70088 23.9908 6.60588H23.9798ZM36.7298 16.6599C35.4878 17.0329 34.3298 17.4999 33.2518 18.0629C33.5948 19.6809 33.7918 21.3429 33.8458 23.0529C34.8219 22.5599 35.8374 22.1491 36.8818 21.8249C37.0431 20.4036 37.0351 18.9682 36.8578 17.5489L36.7878 17.0359L36.7278 16.6599H36.7298ZM11.2658 16.6599L11.2058 17.0359C10.9652 18.6249 10.9333 20.2386 11.1108 21.8359C12.1555 22.1591 13.1714 22.5692 14.1478 23.0619C14.1998 21.3519 14.3948 19.6869 14.7338 18.0699C13.625 17.4939 12.4637 17.0251 11.2658 16.6699V16.6599Z" class="svg-primary-fill"/>
  </g>
</svg>
