<svg xmlns="http://www.w3.org/2000/svg" width="48" height="48" viewBox="0 0 48 48">
  <g class="neo-icon-kit--sparkles-filled">
    <path fill="#006FCF" d="M31.5 9C32.742 9 33.533 9.739 34 10.488 34.42 11.161 34.702 12.028 34.937 12.749 35.459 14.356 35.942 15.864 37.039 16.961 38.136 18.058 39.644 18.541 41.251 19.064 41.972 19.298 42.839 19.58 43.512 20 44.261 20.467 45 21.258 45 22.5 45 23.742 44.261 24.533 43.512 25 42.839 25.42 41.972 25.702 41.251 25.937 39.644 26.459 38.136 26.942 37.039 28.039 35.942 29.136 35.459 30.644 34.937 32.251 34.702 32.972 34.42 33.839 34 34.512 33.533 35.261 32.742 36 31.5 36 30.258 36 29.467 35.261 29 34.512 28.58 33.839 28.298 32.972 28.064 32.251 27.541 30.644 27.058 29.136 25.961 28.039 24.864 26.942 23.356 26.459 21.749 25.937 21.028 25.702 20.161 25.42 19.488 25 18.739 24.533 18 23.742 18 22.5 18 21.258 18.739 20.467 19.488 20 20.161 19.58 21.028 19.298 21.749 19.064 23.356 18.541 24.864 18.058 25.961 16.961 27.058 15.864 27.541 14.356 28.064 12.749 28.298 12.028 28.58 11.161 29 10.488 29.467 9.739 30.258 9 31.5 9ZM12 27.005C12.711 27.005 13.659 27.383 14.015 28.398 14.262 29.102 14.569 29.893 14.912 30.601 15.27 31.339 15.606 31.86 15.873 32.127 16.14 32.394 16.661 32.73 17.399 33.088 18.107 33.431 18.899 33.738 19.603 33.985 20.617 34.341 20.995 35.289 20.995 36 20.995 36.711 20.617 37.659 19.603 38.015 18.899 38.262 18.107 38.569 17.399 38.912 16.661 39.27 16.14 39.606 15.873 39.873 15.606 40.14 15.27 40.661 14.912 41.399 14.569 42.107 14.262 42.899 14.015 43.603 13.659 44.617 12.711 44.995 12 44.995 11.289 44.995 10.341 44.617 9.985 43.603 9.738 42.899 9.431 42.107 9.088 41.399 8.73 40.661 8.394 40.14 8.127 39.873 7.86 39.606 7.339 39.27 6.601 38.912 5.893 38.569 5.101 38.262 4.397 38.015 3.383 37.659 3.005 36.711 3.005 36 3.005 35.289 3.383 34.341 4.397 33.985L4.939 33.789C5.492 33.582 6.07 33.345 6.601 33.088 7.339 32.73 7.86 32.394 8.127 32.127 8.394 31.86 8.73 31.339 9.088 30.601 9.431 29.893 9.738 29.102 9.985 28.398L10.059 28.215C10.459 27.337 11.333 27.005 12 27.005ZM15 3.003C15.539 3.003 16.251 3.289 16.563 4.02L16.619 4.172 16.841 4.813C16.926 5.041 17.021 5.279 17.123 5.507 17.347 6.006 17.533 6.287 17.623 6.377 17.713 6.467 17.994 6.653 18.493 6.877 18.948 7.081 19.445 7.257 19.828 7.381 20.672 7.654 20.997 8.425 20.997 9 20.997 9.575 20.672 10.346 19.828 10.619 19.445 10.743 18.948 10.919 18.493 11.123 17.994 11.347 17.713 11.533 17.623 11.623 17.533 11.713 17.347 11.994 17.123 12.493 16.919 12.948 16.743 13.445 16.619 13.828 16.346 14.672 15.575 14.997 15 14.997 14.425 14.997 13.654 14.672 13.381 13.828 13.257 13.445 13.081 12.948 12.877 12.493 12.653 11.994 12.467 11.713 12.377 11.623 12.287 11.533 12.006 11.347 11.507 11.123 11.052 10.919 10.555 10.743 10.172 10.619 9.328 10.346 9.003 9.575 9.003 9 9.003 8.425 9.328 7.654 10.172 7.381 10.555 7.257 11.052 7.081 11.507 6.877 12.006 6.653 12.287 6.467 12.377 6.377 12.467 6.287 12.653 6.006 12.877 5.507 13.081 5.052 13.257 4.555 13.381 4.172 13.654 3.328 14.425 3.003 15 3.003Z" class="svg-primary-fill"/>
  </g>
</svg>
