<svg xmlns="http://www.w3.org/2000/svg" width="48" height="48" viewBox="0 0 48 48">
  <g class="neo-icon-kit--split">
    <path fill="#006FCF" d="M29.4965 25.4863L4.50309 25.4863C3.72179 25.4863 3.07972 24.8917 3.00688 24.1314L3 23.987C3 23.159 3.67295 22.4877 4.50309 22.4877L29.4965 22.4877L29.7131 22.4836C33.1296 22.3603 35.9405 19.4885 36.0637 16.0781L36.0679 15.8447L36.0687 14.0328L36.0666 14.0073L36.0687 8.15457L32.5768 11.5409C32.037 12.0081 31.2379 12.0296 30.6737 11.5934L30.5566 11.4929C29.993 10.9576 29.9373 10.09 30.4043 9.48958L30.5047 9.37323L36.4995 3.36552C37.0393 2.89841 37.8385 2.87691 38.4026 3.31308L38.5198 3.41355L44.6336 9.47778C45.1019 10.0162 45.1234 10.8134 44.6861 11.3761L44.5854 11.4929L44.4806 11.5928C43.9408 12.0599 43.1416 12.0814 42.5775 11.6452L42.4604 11.5447L39.075 8.08167L39.0741 15.8447C39.0741 19.2007 37.2999 22.2099 34.6445 23.9418C37.301 25.5885 39.0741 28.4829 39.0741 31.8426L39.0756 33.8654L39.08 33.9126L39.0871 39.9183L42.4604 36.4293C43.0261 35.8919 43.9022 35.8808 44.4806 36.3813L44.5854 36.4811C45.1242 37.0455 45.1353 37.9194 44.6336 38.4963L38.5319 44.5864C37.9661 45.1239 37.0901 45.135 36.5117 44.6345L30.5047 38.6008C29.9322 38.0012 29.9554 37.0522 30.5566 36.4811C31.1224 35.9437 31.9984 35.9326 32.5768 36.4331L36.0687 39.8326L36.0679 31.8426C36.0679 28.2545 33.0937 25.4863 29.4965 25.4863Z" class="svg-primary-fill"/>
  </g>
</svg>
