<svg xmlns="http://www.w3.org/2000/svg" width="48" height="48" viewBox="0 0 48 48">
  <g class="neo-icon-kit--split-ticket">
    <path fill="#006FCF" fill-rule="evenodd" d="M45 9H3C1.34315 9 0 10.3431 0 12V21C1.65628 21 2.99908 22.3422 3 23.9983L3 24L3 24.0017C2.99908 25.6578 1.65628 27 0 27V36C0 37.6568 1.34315 39 3 39H45C46.6569 39 48 37.6568 48 36V27C46.3431 27 45 25.6568 45 24C45 22.3431 46.3431 21 48 21V12C48 10.3431 46.6569 9 45 9ZM45 18.8027C43.2066 19.8401 42 21.7791 42 24C42 26.2208 43.2066 28.1599 45 29.1973V36L18.8571 36L29.143 11.9995L45 12V18.8027Z" class="svg-primary-fill" clip-rule="evenodd"/>
  </g>
</svg>
