<svg xmlns="http://www.w3.org/2000/svg" width="48" height="48" viewBox="0 0 48 48">
  <g class="neo-icon-kit--split-filled">
    <path fill="#006FCF" d="M42.115 36.0675C42.8641 35.356 44.0305 35.3322 44.8245 36.0199L44.9461 36.1366C45.6601 36.8845 45.684 38.0499 45.0099 38.8251L44.9858 38.8509L38.8753 44.9497C38.1262 45.6612 36.9598 45.685 36.1564 44.9879L30.142 38.9468C29.3785 38.147 29.4095 36.8808 30.2113 36.1193C30.9603 35.4078 32.1267 35.384 32.9246 36.0755L35.5676 38.6486L35.5669 31.8433C35.5669 28.6519 32.9853 26.1002 29.7208 25.9908L29.4955 25.987L4.50211 25.987C3.46784 25.987 2.60604 25.2013 2.50647 24.1559L2.49902 23.9877C2.49902 22.8833 3.39612 21.9884 4.50211 21.9884L29.486 21.9885L29.6941 21.9846C32.8342 21.8713 35.4487 19.2237 35.5628 16.0697L35.5669 15.8452L35.5693 14.0737L35.5656 14.0078L35.5673 9.3368L32.903 11.9197C32.1834 12.5424 31.1195 12.5715 30.3472 11.9736L30.2113 11.8561C29.4647 11.147 29.3809 9.99044 30.0247 9.16369L30.1497 9.02075L36.1714 2.98811C36.891 2.36544 37.9549 2.33632 38.7272 2.93428L38.8709 3.05925L45.0099 9.15035C45.6348 9.86888 45.664 10.932 45.0638 11.7033L44.9293 11.8557L44.8068 11.9715C44.0872 12.5942 43.0233 12.6233 42.2509 12.0254L42.1018 11.8949L39.5739 9.30895L39.5731 15.8454C39.5731 19.039 38.0356 22.0238 35.5249 23.9326C38.0456 25.7638 39.5731 28.6563 39.5731 31.8429L39.5725 33.8198L39.5791 33.9127L39.5847 38.6842L42.115 36.0675Z" class="svg-primary-fill"/>
  </g>
</svg>
