<svg xmlns="http://www.w3.org/2000/svg" width="48" height="48" viewBox="0 0 48 48">
  <g class="neo-icon-kit--stairs">
    <path fill="#006FCF" fill-rule="evenodd" d="M31.5 4.5C31.5 3.67157 32.1716 3 33 3H44C44.8284 3 45.5 3.67157 45.5 4.5C45.5 5.32843 44.8284 6 44 6H34.5V17.5C34.5 18.3284 33.8284 19 33 19H20.5V31.5C20.5 32.3284 19.8284 33 19 33H6.5V43.5C6.5 44.3284 5.82843 45 5 45C4.17157 45 3.5 44.3284 3.5 43.5V31.5C3.5 30.6716 4.17157 30 5 30H17.5V17.5C17.5 16.6716 18.1716 16 19 16H31.5V4.5Z" class="svg-primary-fill" clip-rule="evenodd"/>
  </g>
</svg>
