<svg xmlns="http://www.w3.org/2000/svg" width="34" height="34" viewBox="0 0 34 34">
  <g class="neo-icon-kit--stars-recommended-white">
    <g fill="#fff" class="svg-primary-fill">
      <path d="M18.275 11.041C19.21 7.694 19.968 6.944 23.355 6.021 19.968 5.097 19.21 4.347 18.274 1 17.339 4.347 16.581 5.096 13.194 6.021 16.581 6.944 17.339 7.694 18.275 11.041zM33 15.881C29.876 16.757 29.177 17.467 28.315 20.637 27.452 17.467 26.753 16.757 23.629 15.881 26.753 15.005 27.452 14.296 28.315 11.125 29.177 14.295 29.876 15.005 33 15.881zM12.262 33C12.262 26.141 8.508 22.712 1 22.712 8.508 22.712 12.262 19.282 12.262 12.424 12.262 19.283 16.015 22.712 23.523 22.712 16.015 22.712 12.262 26.142 12.262 33z"/>
    </g>
  </g>
</svg>
