<svg xmlns="http://www.w3.org/2000/svg" width="23" height="23" viewBox="0 0 23 23">
  <g class="neo-icon-kit--stars-recommended-dark">
    <g fill="#444B61" class="svg-primary-fill">
      <path d="M11.96 6.952C12.607 4.634 13.132 4.116 15.477 3.476V3.474C13.132 2.836 12.607 2.316 11.959 0 11.312 2.317 10.787 2.836 8.44199 3.476 10.787 4.115 11.312 4.634 11.96 6.952zM22.154 10.301C19.991 10.908 19.507 11.399 18.91 13.594 18.313 11.399 17.83 10.908 15.666 10.301 17.829 9.695 18.313 9.204 18.91 7.009 19.507 9.203 19.991 9.695 22.154 10.301zM7.797 22.153C7.797 17.404 5.197 15.03 0 15.03 5.198 15.03 7.797 12.656 7.797 7.908 7.797 12.657 10.395 15.03 15.593 15.03 10.395 15.03 7.797 17.405 7.797 22.153z"/>
    </g>
  </g>
</svg>
