<svg xmlns="http://www.w3.org/2000/svg" width="48" height="48" viewBox="0 0 48 48">
  <g class="neo-icon-kit--status-warning">
    <path fill="#006FCF" fill-rule="evenodd" d="M45 24C45 35.598 35.598 45 24 45C12.402 45 3 35.598 3 24C3 12.402 12.402 3 24 3C35.598 3 45 12.402 45 24ZM24 36C22.3431 36 21 34.6569 21 33C21 31.3431 22.3431 30 24 30C25.6569 30 27 31.3431 27 33C27 34.6569 25.6569 36 24 36ZM21 24C21 25.6569 22.3431 27 24 27C25.6569 27 27 25.6569 27 24V15C27 13.3431 25.6569 12 24 12C22.3431 12 21 13.3431 21 15V24Z" class="svg-primary-fill" clip-rule="evenodd"/>
  </g>
</svg>
