<svg xmlns="http://www.w3.org/2000/svg" width="48" height="48" viewBox="0 0 48 48">
  <g class="neo-icon-kit--status-cancel">
    <path fill="#006FCF" fill-rule="evenodd" d="M24 45C35.598 45 45 35.598 45 24C45 12.402 35.598 3 24 3C12.402 3 3 12.402 3 24C3 35.598 12.402 45 24 45ZM15.514 28.2418C14.3425 29.4134 14.3425 31.3129 15.514 32.4845C16.6856 33.656 18.5851 33.656 19.7567 32.4845L24.0005 28.2407L28.2438 32.484C29.4153 33.6556 31.3148 33.6556 32.4864 32.484C33.658 31.3124 33.658 29.4129 32.4864 28.2414L28.2434 23.9984L32.4846 19.7565C33.6562 18.585 33.6562 16.6855 32.4846 15.5139C31.313 14.3423 29.4135 14.3423 28.242 15.5139L24.0005 19.7554L19.7585 15.5134C18.5869 14.3419 16.6874 14.3419 15.5159 15.5134C14.3443 16.685 14.3443 18.5845 15.5159 19.7561L19.7582 23.9984L15.514 28.2418Z" class="svg-primary-fill" clip-rule="evenodd"/>
  </g>
</svg>
