<svg xmlns="http://www.w3.org/2000/svg" width="48" height="48" viewBox="0 0 48 48">
  <g class="neo-icon-kit--statement-paid">
    <path fill="#006FCF" fill-rule="evenodd" d="M39.8723 8.33591C35.7507 3.97698 30.0116 1.5 24 1.5C11.5736 1.5 1.5 11.5736 1.5 24C1.5 36.4264 11.5736 46.5 24 46.5C36.4264 46.5 46.5 36.4264 46.5 24V23L46.4931 22.8555C46.4204 22.0949 45.7797 21.5 45 21.5C44.1716 21.5 43.5 22.1716 43.5 23V24L43.497 24.343C43.314 34.9543 34.655 43.5 24 43.5C13.2304 43.5 4.5 34.7696 4.5 24C4.5 13.2304 13.2304 4.5 24 4.5L24.4186 4.50464C29.5749 4.61905 34.4666 6.84316 37.9441 10.6685L39.609 12.5H37L36.8555 12.5069C36.0949 12.5796 35.5 13.2203 35.5 14C35.5 14.8284 36.1716 15.5 37 15.5H43L43.0726 15.4983L43.2179 15.4843L43.3273 15.4641L43.4748 15.4233L43.596 15.3769L43.7233 15.3145L43.8452 15.2394L43.9574 15.1548L44.0117 15.1075L44.1014 15.0184L44.184 14.9211L44.2822 14.7792L44.3536 14.6472L44.4102 14.5122L44.4661 14.3185L44.4841 14.2183L44.4983 14.071L44.5 8L44.4931 7.85554C44.4204 7.09489 43.7797 6.5 43 6.5L42.8555 6.50687C42.0949 6.57955 41.5 7.2203 41.5 8V10.12L40.164 8.65045L39.8723 8.33591ZM33.2881 18.9858C33.8175 18.3488 33.7305 17.4033 33.0938 16.8735C32.7879 16.6191 32.3935 16.4966 31.9973 16.5331C31.6012 16.5695 31.2357 16.7619 30.9815 17.0679L20.6469 29.4984L15.4336 24.2852C14.8475 23.7014 13.8995 23.7023 13.3146 24.2872C12.7297 24.8721 12.7287 25.8202 13.3125 26.4062L19.6885 32.7822L19.7184 32.8021L19.7901 32.875C19.8742 32.9358 19.9646 32.9874 20.0597 33.0288C20.2619 33.1668 20.5037 33.2346 20.7481 33.2217L20.8824 33.2136C21.0143 33.1998 21.144 33.1686 21.2681 33.1206L21.3324 33.0992C21.4931 33.0294 21.6401 32.9318 21.7668 32.8108L21.8096 32.7823L21.8327 32.7475L21.9024 32.6807L33.2881 18.9858Z" class="svg-primary-fill" clip-rule="evenodd"/>
  </g>
</svg>
