<svg xmlns="http://www.w3.org/2000/svg" width="48" height="48" viewBox="0 0 48 48">
  <g class="neo-icon-kit--statement-ready">
    <path fill="#006FCF" fill-rule="evenodd" d="M30 0.0167851V0.00012207H9L8.82441 0.00523997C7.25533 0.0969316 6 1.40903 6 3.00012V45L6.00512 45.1756C6.09681 46.7447 7.40896 48 9 48H39L39.1756 47.9949C40.7447 47.9032 42 46.5911 42 45V12.0001H41.9827L41.9658 11.8515C41.9187 11.5557 41.7915 11.2711 41.5635 11.043L30.957 0.436096L30.8385 0.330359C30.5928 0.135318 30.2982 0.0377114 30 0.0167851ZM9 3.00012H27V12L27.0051 12.1756C27.0968 13.7447 28.4089 15 30 15H39V45H9V3.00012ZM22.0163 29.2947L29.3652 20.5357C29.8975 19.9019 30.8428 19.8179 31.4785 20.3511C32.0736 20.8501 32.1838 21.713 31.7567 22.3419L31.6641 22.4644L23.2734 32.4639C23.0095 32.7782 22.6446 32.9574 22.2656 32.9933L22.123 33.0001L22.1099 32.9974L22.1006 33.0001C21.7648 33.0001 21.429 32.8879 21.154 32.6636L21.04 32.5606L16.4248 27.9454C15.8389 27.3599 15.8389 26.4097 16.4248 25.8243C16.9741 25.275 17.8427 25.2406 18.432 25.7213L18.5459 25.8243L22.0163 29.2947ZM30 12V3.72131L38.2783 12H30Z" class="svg-primary-fill" clip-rule="evenodd"/>
  </g>
</svg>
