<svg xmlns="http://www.w3.org/2000/svg" width="48" height="48" viewBox="0 0 48 48">
  <g class="neo-icon-kit--statement-ready-filled">
    <path fill="#006FCF" fill-rule="evenodd" d="M30 0.00012207V0.0167851C30.2982 0.0377114 30.5928 0.135318 30.8385 0.330359L30.957 0.436096L41.5635 11.043C41.7915 11.2711 41.9187 11.5557 41.9658 11.8515L41.9827 12.0001H42V45C42 46.5911 40.7447 47.9032 39.1756 47.9949L39 48H9C7.40896 48 6.09681 46.7447 6.00512 45.1756L6 45V3.00012C6 1.40903 7.25533 0.0969316 8.82441 0.00523997L9 0.00012207H30ZM31.4785 20.3511C30.8825 19.8513 30.0144 19.8938 29.4697 20.4233L29.3652 20.5357L22.0163 29.2947L18.5459 25.8243C17.96 25.2383 17.0107 25.2383 16.4248 25.8243C15.8755 26.3731 15.8412 27.2426 16.3218 27.8315L16.4248 27.9454L21.04 32.5606C21.333 32.8536 21.7168 33.0001 22.1006 33.0001L22.1099 32.9974L22.123 33.0001C22.5041 33.0001 22.8821 32.8558 23.1699 32.5754L23.2734 32.4639L31.6641 22.4644C32.1963 21.8297 32.1133 20.8834 31.4785 20.3511ZM30 12V3.72131L38.2783 12H30Z" class="svg-primary-fill" clip-rule="evenodd"/>
  </g>
</svg>
