<svg xmlns="http://www.w3.org/2000/svg" width="48" height="48" viewBox="0 0 48 48">
  <g class="neo-icon-kit--status-pending">
    <path fill="#006FCF" fill-rule="evenodd" d="M9 24H24H39C39 15.7157 32.2843 9 24 9C15.7157 9 9 15.7157 9 24ZM3 24C3 12.402 12.402 3 24 3C35.598 3 45 12.402 45 24C45 29.7757 42.6683 35.0069 38.8949 38.8035C38.8797 38.8188 38.8645 38.834 38.8492 38.8492C38.8323 38.8661 38.8154 38.883 38.7985 38.8998C35.0023 42.6703 29.7732 45 24 45C18.2268 45 12.9977 42.6703 9.20153 38.8998C9.18458 38.883 9.16765 38.8661 9.15076 38.8492C9.13386 38.8323 9.117 38.8154 9.10016 38.7985C5.32965 35.0023 3 29.7732 3 24Z" class="svg-primary-fill" clip-rule="evenodd"/>
  </g>
</svg>
