<svg xmlns="http://www.w3.org/2000/svg" width="48" height="48" viewBox="0 0 48 48">
  <g class="neo-icon-kit--statement-paid-filled">
    <path fill="#006FCF" fill-rule="evenodd" d="M40.2425 7.99961C36.026 3.53642 30.1525 1 24 1C11.2975 1 1 11.2975 1 24C1 36.7025 11.2975 47 24 47C36.7025 47 47 36.7025 47 24V23L46.9945 22.8507C46.9182 21.8159 46.0544 21 45 21C43.8954 21 43 21.8954 43 23V24L42.9971 24.3378C42.8168 34.6754 34.3806 43 24 43C13.5066 43 5 34.4934 5 24C5 13.5066 13.5066 5 24 5L24.4185 5.00477C29.434 5.11906 34.1914 7.28371 37.5742 11.0048L38.479 12H37L36.8507 12.0055C35.8159 12.0818 35 12.9456 35 14C35 15.1046 35.8954 16 37 16H43L43.1528 15.9942L43.3022 15.9772L43.4587 15.9471L43.6079 15.9059L43.7629 15.8494L43.9157 15.7786L44.0597 15.6966L44.2117 15.5913L44.3376 15.4869L44.405 15.4234L44.5155 15.3052L44.5928 15.2098C44.6508 15.1335 44.7034 15.053 44.7501 14.9687L44.8271 14.8147L44.8853 14.6686L44.9145 14.5803L44.9559 14.4195L44.9819 14.2705L44.9945 14.1493L45 14V8L44.9945 7.85074C44.9182 6.81588 44.0544 6 43 6L42.8507 6.00549C41.8159 6.08183 41 6.94564 41 8V8.828L40.5339 8.31412L40.2425 7.99961ZM33.2881 18.9858C33.8175 18.3488 33.7305 17.4033 33.0938 16.8735C32.7879 16.6191 32.3935 16.4966 31.9973 16.5331C31.6012 16.5695 31.2357 16.7619 30.9815 17.0679L20.6469 29.4984L15.4336 24.2852C14.8475 23.7014 13.8995 23.7023 13.3146 24.2872C12.7297 24.8721 12.7287 25.8202 13.3125 26.4062L19.6885 32.7822L19.7184 32.8021L19.7901 32.875C19.8742 32.9358 19.9646 32.9874 20.0597 33.0288C20.2619 33.1668 20.5037 33.2346 20.7481 33.2217L20.8824 33.2136C21.0143 33.1998 21.144 33.1686 21.2681 33.1206L21.3324 33.0992C21.4931 33.0294 21.6401 32.9318 21.7668 32.8108L21.8096 32.7823L21.8327 32.7475L21.9024 32.6807L33.2881 18.9858Z" class="svg-primary-fill" clip-rule="evenodd"/>
  </g>
</svg>
