<svg xmlns="http://www.w3.org/2000/svg" width="48" height="48" viewBox="0 0 48 48">
  <g class="neo-icon-kit--status-success">
    <path fill="#006FCF" fill-rule="evenodd" d="M24 45C35.598 45 45 35.598 45 24C45 12.402 35.598 3 24 3C12.402 3 3 12.402 3 24C3 35.598 12.402 45 24 45ZM19.6287 32.8635L21.75 34.9848L23.8713 32.8635L36.4924 20.2424C37.664 19.0708 37.664 17.1713 36.4924 15.9998C35.3208 14.8282 33.4213 14.8282 32.2498 15.9998L21.75 26.4995L15.7502 20.4998C14.5787 19.3282 12.6792 19.3282 11.5076 20.4998C10.336 21.6713 10.336 23.5708 11.5076 24.7424L19.6287 32.8635Z" class="svg-primary-fill" clip-rule="evenodd"/>
  </g>
</svg>
