<svg xmlns="http://www.w3.org/2000/svg" width="48" height="48" viewBox="0 0 48 48">
  <g class="neo-icon-kit--store-filled">
    <path fill="#006FCF" fill-rule="evenodd" d="M7.6171 4C6.67402 4 5.85909 4.6588 5.66149 5.58094L3.51863 15.5809C3.32262 16.4957 3.78529 17.3721 4.54954 17.7727C4.70604 18.99 5.22733 20.093 6.00024 20.9687V43.1667C6.00024 44.1792 6.89567 45 8.00024 45H40.0002C41.1048 45 42.0002 44.1792 42.0002 43.1667V20.9687C42.7732 20.093 43.2944 18.99 43.4509 17.7727C44.2152 17.3721 44.6779 16.4957 44.4819 15.5809L42.339 5.58094C42.1414 4.6588 41.3265 4 40.3834 4H7.6171ZM8.42551 7L6.71123 15H41.2893L39.575 7H8.42551ZM25.6709 18C26.0828 19.1652 27.194 20 28.5002 20C29.8065 20 30.9177 19.1652 31.3295 18H25.6709ZM16.671 18C17.0828 19.1652 18.194 20 19.5002 20C20.8065 20 21.9177 19.1652 22.3295 18H16.671ZM7.67095 18C8.08279 19.1652 9.19403 20 10.5002 20C11.8065 20 12.9177 19.1652 13.3295 18H7.67095ZM40.3295 18C39.9177 19.1652 38.8065 20 37.5002 20C36.194 20 35.0828 19.1652 34.6709 18H40.3295ZM15.0002 27C13.3434 27 12.0002 28.3431 12.0002 30V33C12.0002 34.6569 13.3434 36 15.0002 36H33.0002C34.6571 36 36.0002 34.6569 36.0002 33V30C36.0002 28.3431 34.6571 27 33.0002 27H15.0002Z" class="svg-primary-fill" clip-rule="evenodd"/>
  </g>
</svg>
