<svg xmlns="http://www.w3.org/2000/svg" width="48" height="48" viewBox="0 0 48 48">
  <g class="neo-icon-kit--store">
    <g fill="#006FCF" fill-rule="evenodd" class="svg-primary-fill" clip-rule="evenodd">
      <path d="M11.5266 29C11.5266 27.3431 12.8698 26 14.5266 26H32.5266C34.1835 26 35.5266 27.3431 35.5266 29V35C35.5266 36.6569 34.1835 38 32.5266 38H14.5266C12.8698 38 11.5266 36.6569 11.5266 35V29ZM14.5266 29H32.5266V35H14.5266V29Z"/>
      <path d="M7.14346 4C6.20039 4 5.38546 4.6588 5.18786 5.58094L3.045 15.5809C2.84899 16.4957 3.31167 17.3721 4.07594 17.7727C4.23245 18.99 4.75373 20.093 5.52664 20.9687V43.1667C5.52664 44.1792 6.42207 45 7.52664 45H39.5266C40.6312 45 41.5266 44.1792 41.5266 43.1667V20.9687C42.2996 20.093 42.8208 18.99 42.9773 17.7727C43.7416 17.3721 44.2043 16.4957 44.0083 15.5809L41.8654 5.58094C41.6678 4.6588 40.8529 4 39.9098 4H7.14346ZM7.95188 7L6.23759 15H40.8157L39.1014 7H7.95188ZM8.52664 42.25V22.811C9.00607 22.9344 9.50869 23 10.0266 23C11.8187 23 13.4272 22.2144 14.5266 20.9687C15.6261 22.2144 17.2346 23 19.0266 23C20.8187 23 22.4272 22.2144 23.5266 20.9687C24.6261 22.2144 26.2346 23 28.0266 23C29.8187 23 31.4272 22.2144 32.5266 20.9687C33.6261 22.2144 35.2346 23 37.0266 23C37.5446 23 38.0472 22.9344 38.5266 22.811V42.25H8.52664ZM34.1973 18C34.6092 19.1652 35.7204 20 37.0266 20C38.3329 20 39.4441 19.1652 39.8559 18H34.1973ZM28.0266 20C26.7204 20 25.6092 19.1652 25.1973 18H30.8559C30.4441 19.1652 29.3329 20 28.0266 20ZM16.1973 18C16.6092 19.1652 17.7204 20 19.0266 20C20.3329 20 21.4441 19.1652 21.8559 18H16.1973ZM10.0266 20C8.72042 20 7.60918 19.1652 7.19735 18H12.8559C12.4441 19.1652 11.3329 20 10.0266 20Z"/>
    </g>
  </g>
</svg>
