<svg xmlns="http://www.w3.org/2000/svg" width="48" height="48" viewBox="0 0 48 48">
  <g class="neo-icon-kit--success-filled">
    <path fill="#006FCF" fill-rule="evenodd" d="M48 24C48 10.7451 37.2548 0 24 0C10.7452 0 0 10.7451 0 24C0 37.2548 10.7452 48 24 48C37.2548 48 48 37.2548 48 24ZM33.5533 16.3364C34.1424 15.8558 35.0115 15.8902 35.5607 16.4393C36.1098 16.9885 36.1442 17.8576 35.6636 18.4467L35.5607 18.5607L21.5607 32.5607L21.451 32.6602C20.8846 33.1257 20.0596 33.1115 19.5096 32.6267L19.4034 32.5235L12.4034 25.0235L12.3044 24.9061C11.8445 24.3007 11.9088 23.4333 12.4765 22.9034C13.0443 22.3735 13.914 22.3691 14.4863 22.8697L14.5966 22.9765L20.5372 29.3415L33.4393 16.4393L33.5533 16.3364Z" class="svg-primary-fill" clip-rule="evenodd"/>
  </g>
</svg>
