<svg xmlns="http://www.w3.org/2000/svg" width="48" height="48" viewBox="0 0 48 48">
  <g class="neo-icon-kit--success">
    <path fill="#006FCF" fill-rule="evenodd" d="M24 0C37.2548 0 48 10.7451 48 24C48 37.2548 37.2548 48 24 48C10.7452 48 0 37.2548 0 24C0 10.7452 10.7452 0 24 0ZM24 3C12.4205 3 3 12.4205 3 24C3 35.5795 12.4205 45 24 45C35.5795 45 45 35.5795 45 24C45 12.4205 35.5795 3 24 3ZM35.6636 18.4467C36.1442 17.8576 36.1098 16.9885 35.5607 16.4393C34.9749 15.8536 34.0251 15.8536 33.4393 16.4393L20.5372 29.3415L14.5966 22.9765L14.4863 22.8697C13.914 22.3691 13.0443 22.3735 12.4765 22.9034C11.8709 23.4687 11.8382 24.4179 12.4034 25.0235L19.4034 32.5235L19.5096 32.6267C20.0963 33.1438 20.9959 33.1255 21.5607 32.5607L35.5607 18.5607L35.6636 18.4467Z" class="svg-primary-fill" clip-rule="evenodd"/>
  </g>
</svg>
