<svg xmlns="http://www.w3.org/2000/svg" width="48" height="48" viewBox="0 0 48 48">
  <g class="neo-icon-kit--sun-filled">
    <g fill="#006FCF" class="svg-primary-fill">
      <path d="M34.5 24.5C34.5 30.299 29.799 35 24 35 18.201 35 13.5 30.299 13.5 24.5 13.5 18.701 18.201 14 24 14 29.799 14 34.5 18.701 34.5 24.5zM22.5 5.5C22.5 4.67157 23.1716 4 24 4 24.8284 4 25.5 4.67157 25.5 5.5V8.5C25.5 9.32843 24.8284 10 24 10 23.1716 10 22.5 9.32843 22.5 8.5V5.5zM22.5 40.5C22.5 39.6716 23.1716 39 24 39 24.8284 39 25.5 39.6716 25.5 40.5V43.5C25.5 44.3284 24.8284 45 24 45 23.1716 45 22.5 44.3284 22.5 43.5V40.5zM9.50431 12.1256C8.91853 11.5398 8.91853 10.5901 9.50431 10.0043 10.0901 9.41852 11.0398 9.41852 11.6256 10.0043L13.747 12.1256C14.3327 12.7114 14.3327 13.6612 13.747 14.247 13.1612 14.8327 12.2114 14.8327 11.6256 14.247L9.50431 12.1256zM34.253 36.8744C33.6673 36.2886 33.6673 35.3388 34.253 34.753 34.8388 34.1673 35.7886 34.1673 36.3744 34.753L38.4957 36.8744C39.0815 37.4602 39.0815 38.4099 38.4957 38.9957 37.9099 39.5815 36.9602 39.5815 36.3744 38.9957L34.253 36.8744zM5 26C4.17157 26 3.5 25.3284 3.5 24.5 3.5 23.6715 4.17157 23 5 23H8C8.82843 23 9.5 23.6715 9.5 24.5 9.5 25.3284 8.82843 26 8 26H5zM40 26C39.1716 26 38.5 25.3284 38.5 24.5 38.5 23.6715 39.1716 23 40 23H43C43.8284 23 44.5 23.6715 44.5 24.5 44.5 25.3284 43.8284 26 43 26H40zM11.6256 38.9955C11.0398 39.5813 10.0901 39.5813 9.50432 38.9955 8.91853 38.4098 8.91853 37.46 9.50432 36.8742L11.6256 34.7529C12.2114 34.1671 13.1612 34.1671 13.747 34.7529 14.3327 35.3387 14.3327 36.2884 13.747 36.8742L11.6256 38.9955zM36.3744 14.2468C35.7886 14.8326 34.8388 14.8326 34.2531 14.2468 33.6673 13.661 33.6673 12.7113 34.2531 12.1255L36.3744 10.0042C36.9602 9.41837 37.9099 9.41837 38.4957 10.0042 39.0815 10.5899 39.0815 11.5397 38.4957 12.1255L36.3744 14.2468z"/>
    </g>
  </g>
</svg>
