<svg xmlns="http://www.w3.org/2000/svg" width="48" height="48" viewBox="0 0 48 48">
  <g class="neo-icon-kit--tag-filled">
    <path fill="#006FCF" fill-rule="evenodd" d="M39.7677 5.88244L25.6465 3.05822C24.6644 2.8618 23.6491 3.16921 22.9409 3.87742L3.87737 22.9409C2.70754 24.1108 2.70754 26.0074 3.87737 27.1773L20.8227 44.1226C21.9926 45.2925 23.8892 45.2925 25.0591 44.1226L44.1226 25.0591C44.8308 24.3509 45.1382 23.3356 44.9418 22.3535L42.1176 8.23234C41.8804 7.04652 40.9535 6.11961 39.7677 5.88244ZM30.7487 13.0711C31.9203 11.8995 33.8198 11.8995 34.9914 13.0711C36.163 14.2427 36.163 16.1422 34.9914 17.3138C33.8198 18.4853 31.9203 18.4853 30.7487 17.3138C29.5772 16.1422 29.5772 14.2427 30.7487 13.0711Z" class="svg-primary-fill" clip-rule="evenodd"/>
  </g>
</svg>
