<svg xmlns="http://www.w3.org/2000/svg" width="48" height="48" viewBox="0 0 48 48">
  <g class="neo-icon-kit--tag">
    <path fill="#006FCF" fill-rule="evenodd" d="M25.6465 3.05822L39.7677 5.88244C40.9535 6.11961 41.8804 7.04652 42.1176 8.23234L44.9418 22.3535C45.1382 23.3356 44.8308 24.3509 44.1226 25.0591L25.0591 44.1226C23.8892 45.2925 21.9926 45.2925 20.8227 44.1226L3.87737 27.1773C2.70754 26.0074 2.70754 24.1108 3.87737 22.9409L22.9409 3.87742C23.6491 3.16921 24.6644 2.8618 25.6465 3.05822ZM25.0588 6.00005L6 25.0589L22.9412 42L42 22.9412L39.1765 8.82358L25.0588 6.00005ZM34.9914 13.0711C33.8198 11.8995 31.9203 11.8995 30.7487 13.0711C29.5772 14.2427 29.5772 16.1422 30.7487 17.3138C31.9203 18.4853 33.8198 18.4853 34.9914 17.3138C36.163 16.1422 36.163 14.2427 34.9914 13.0711Z" class="svg-primary-fill" clip-rule="evenodd"/>
  </g>
</svg>
