<svg xmlns="http://www.w3.org/2000/svg" width="48" height="48" viewBox="0 0 48 48">
  <g class="neo-icon-kit--tap-to-pay-filled">
    <path fill="#006FCF" d="M24 6C37.255 6 48 14.06 48 24C48 33.94 37.255 42 24 42C10.745 42 0 33.94 0 24C0 14.06 10.745 6 24 6ZM29.3 12.868C29.1905 12.7078 29.0492 12.5718 28.885 12.4684C28.7208 12.3651 28.5371 12.2965 28.3453 12.2669C28.1535 12.2374 27.9577 12.2476 27.77 12.2968C27.5823 12.346 27.4066 12.4332 27.254 12.553C26.9538 12.7924 26.756 13.1371 26.7006 13.5171C26.6453 13.8971 26.7366 14.2839 26.956 14.599C28.856 17.315 29.874 20.571 29.874 23.969C29.874 27.391 28.839 30.669 26.914 33.396C26.6929 33.7101 26.5999 34.0966 26.6537 34.4769C26.7076 34.8572 26.9044 35.2027 27.204 35.443C27.851 35.953 28.776 35.813 29.252 35.138C31.534 31.904 32.762 28.016 32.762 23.968C32.762 19.95 31.552 16.088 29.302 12.868H29.3ZM24.438 14.774C23.938 14.118 23.008 14.014 22.38 14.548C22.0902 14.7996 21.9069 15.152 21.8672 15.5338C21.8274 15.9155 21.9342 16.2981 22.166 16.604C23.754 18.687 24.619 21.276 24.619 23.992C24.619 26.714 23.749 29.309 22.155 31.394C21.673 32.024 21.765 32.936 22.365 33.451C22.5121 33.5777 22.6836 33.6728 22.8689 33.7304C23.0542 33.7881 23.2494 33.807 23.4424 33.7861C23.6354 33.7652 23.822 33.7049 23.9906 33.6089C24.1593 33.5129 24.3065 33.3832 24.423 33.228C26.418 30.618 27.503 27.378 27.503 23.992C27.503 20.612 26.423 17.38 24.436 14.774H24.438ZM20.036 17.104C19.9042 16.9615 19.7445 16.8476 19.5668 16.7693C19.3892 16.6911 19.1973 16.6503 19.0032 16.6493C18.809 16.6484 18.6168 16.6874 18.4384 16.7639C18.26 16.8404 18.0992 16.9527 17.966 17.094C17.7027 17.3731 17.5552 17.7418 17.5534 18.1255C17.5515 18.5092 17.6954 18.8793 17.956 19.161C19.156 20.441 19.826 22.159 19.826 23.979C19.826 25.815 19.143 27.546 17.926 28.829C17.6634 29.1089 17.5171 29.4781 17.5165 29.8619C17.516 30.2457 17.6613 30.6153 17.923 30.896C18.489 31.496 19.426 31.498 19.993 30.9C21.736 29.062 22.713 26.587 22.713 23.978C22.713 21.392 21.753 18.938 20.037 17.103L20.036 17.104ZM15.683 19.487C15.5428 19.3527 15.3765 19.2486 15.1945 19.1812C15.0124 19.1138 14.8184 19.0847 14.6245 19.0954C14.4307 19.1062 14.2411 19.1568 14.0676 19.2439C13.8941 19.331 13.7404 19.4529 13.616 19.602C13.104 20.206 13.15 21.122 13.724 21.667C14.298 22.212 14.646 23.072 14.646 24.007C14.646 24.865 14.354 25.659 13.86 26.207L13.632 26.447C13.4009 26.721 13.2745 27.0681 13.275 27.4265C13.2756 27.785 13.4031 28.1317 13.635 28.405C13.7603 28.5533 13.9148 28.6742 14.0888 28.7603C14.2629 28.8464 14.4527 28.8958 14.6466 28.9054C14.8406 28.9151 15.0344 28.8848 15.2161 28.8164C15.3978 28.7481 15.5635 28.6431 15.703 28.508C16.866 27.391 17.533 25.75 17.533 24.008C17.533 22.256 16.859 20.606 15.683 19.488V19.487Z" class="svg-primary-fill"/>
  </g>
</svg>
