<svg xmlns="http://www.w3.org/2000/svg" width="48" height="48" viewBox="0 0 48 48">
  <g class="neo-icon-kit--tap-to-pay">
    <path fill="#006FCF" d="M24 6C37.255 6 48 14.06 48 24C48 33.94 37.255 42 24 42C10.745 42 0 33.94 0 24C0 14.06 10.745 6 24 6ZM24 8.75C12.12 8.75 2.75 15.778 2.75 24C2.75 32.222 12.12 39.25 24 39.25C35.88 39.25 45.25 32.222 45.25 24C45.25 15.778 35.88 8.75 24 8.75ZM29.3 12.868C31.55 16.088 32.76 19.95 32.76 23.968C32.76 28.015 31.533 31.904 29.25 35.138C28.775 35.812 27.85 35.954 27.202 35.443C26.582 34.953 26.456 34.043 26.912 33.396C28.837 30.669 29.872 27.39 29.872 23.969C29.872 20.572 28.852 17.316 26.954 14.599C26.7346 14.2839 26.6433 13.8971 26.6986 13.5171C26.754 13.1371 26.9518 12.7924 27.252 12.553C27.4046 12.4332 27.5803 12.346 27.768 12.2968C27.9557 12.2476 28.1515 12.2374 28.3433 12.2669C28.5351 12.2965 28.7188 12.3651 28.883 12.4684C29.0472 12.5718 29.1885 12.7078 29.298 12.868H29.3ZM24.438 14.774C26.425 17.38 27.505 20.614 27.505 23.992C27.505 27.379 26.419 30.619 24.425 33.228C23.925 33.883 22.993 33.988 22.367 33.451C22.0777 33.1986 21.8952 32.8458 21.8562 32.4639C21.8172 32.082 21.9247 31.6996 22.157 31.394C23.752 29.309 24.621 26.714 24.621 23.992C24.621 21.276 23.756 18.687 22.168 16.604C21.9362 16.2981 21.8294 15.9155 21.8692 15.5338C21.9089 15.152 22.0922 14.7996 22.382 14.548C22.5293 14.4215 22.7009 14.3266 22.8864 14.2692C23.0718 14.2118 23.2671 14.1931 23.4601 14.2143C23.653 14.2355 23.8396 14.2961 24.0082 14.3924C24.1767 14.4887 24.3237 14.6186 24.44 14.774H24.438ZM20.036 17.104C21.752 18.938 22.712 21.394 22.712 23.979C22.712 26.589 21.736 29.062 19.992 30.901C19.424 31.501 18.487 31.498 17.922 30.897C17.6607 30.6161 17.5157 30.2465 17.5162 29.8629C17.5168 29.4793 17.6629 29.1101 17.925 28.83C19.142 27.546 19.825 25.815 19.825 23.98C19.825 22.16 19.155 20.443 17.955 19.162C17.6944 18.8803 17.5505 18.5102 17.5524 18.1265C17.5542 17.7428 17.7017 17.3741 17.965 17.095C18.0982 16.9537 18.259 16.8414 18.4374 16.7649C18.6158 16.6884 18.808 16.6494 19.0022 16.6503C19.1963 16.6513 19.3882 16.6921 19.5658 16.7703C19.7435 16.8486 19.9032 16.9625 20.035 17.105L20.036 17.104ZM15.683 19.487C16.859 20.604 17.533 22.254 17.533 24.007C17.533 25.747 16.867 27.39 15.703 28.507C15.108 29.077 14.173 29.03 13.635 28.404C13.4029 28.1308 13.2752 27.7841 13.2747 27.4256C13.2741 27.067 13.4007 26.72 13.632 26.446L13.732 26.339C14.302 25.792 14.645 24.939 14.645 24.009C14.645 23.074 14.298 22.216 13.723 21.669C13.148 21.122 13.103 20.209 13.615 19.604C13.7394 19.4549 13.8931 19.333 14.0666 19.2459C14.2401 19.1588 14.4297 19.1082 14.6235 19.0974C14.8174 19.0867 15.0114 19.1158 15.1935 19.1832C15.3755 19.2506 15.5418 19.3547 15.682 19.489L15.683 19.487Z" class="svg-primary-fill"/>
  </g>
</svg>
