<svg xmlns="http://www.w3.org/2000/svg" width="48" height="48" viewBox="0 0 48 48">
  <g class="neo-icon-kit--taxi">
    <path fill="#006FCF" fill-rule="evenodd" d="M27.001 3C28.5921 3 29.9042 4.25527 29.9959 5.82441L30.001 6V9H32.001C35.0482 9.01987 37.1093 10.332 37.9259 12.7614L41.001 20C41.4298 20.233 41.8664 20.5103 42.2859 20.8339L42.597 21.0854C42.9684 21.3629 43.8636 22.3382 43.9289 22.5425C44.5287 23.4162 44.94 24.4677 44.9948 25.711L45 40.5C45 42.9853 42.9853 45 40.5 45C38.0147 45 36 42.9853 36 40.5V39H12V40.5C12 42.9853 9.98528 45 7.5 45C5.01472 45 3 42.9853 3 40.5L3.001 26C3.01327 23.0806 4.95101 21.1779 6.80915 20.1077L7.001 20L10.001 13C10.772 10.4608 12.7097 9.10664 15.7076 9.00584L18.001 9V6C18.001 4.40891 19 3 20.8254 3.00512L27.001 3ZM42 39H39V40.5C39 41.3284 39.6716 42 40.5 42C41.3284 42 42 41.3284 42 40.5V39ZM6 39H9V40.5C9 41.3284 8.32843 42 7.5 42C6.67157 42 6 41.3284 6 40.5V39ZM23.999 22C20.461 22 16.4924 22.3925 12.0958 23.1803C10.6752 23.4349 8.00808 24.2025 7.22047 24.8391C6.43286 25.4758 6.00403 26.2313 6 27.0828V36H41.999L42 27.0811C42.0006 26.2153 41.5624 25.4517 40.7546 24.8119C39.7094 24.1296 38.0944 23.5731 35.9022 23.1803C31.5056 22.3925 27.537 22 23.999 22ZM13.001 29.009C12.999 27.8984 12.103 27.004 11.0012 27C9.89236 27.0037 8.99581 27.8982 9.00098 29.009C8.99612 30.1058 9.89266 30.9997 11.0012 31C12.103 30.9997 12.999 30.1058 13.001 29.009ZM37.0012 27C38.103 27.004 38.999 27.8984 39.001 29.009C38.999 30.1058 38.103 30.9997 37.0012 31C35.8927 30.9997 34.9961 30.1058 35.001 29.009C34.9958 27.8982 35.8924 27.0037 37.0012 27ZM32 29C32 27.8954 31.1046 27 30 27H18C16.8954 27 16 27.8954 16 29C16 30.1046 16.8954 31 18 31H30C31.1046 31 32 30.1046 32 29ZM32.001 11.9999H16.0204C14.1091 12.0162 13.2654 12.7558 12.8716 14.4614L9.763 20.9899L10.5058 20.7879C15.0872 19.5773 20.251 18.97 24 18.97C27.749 18.97 32.9128 19.5773 37.4942 20.7879C37.749 20.8553 37.9984 20.9259 38.2423 20.9999L35.123 14.4288C34.758 12.7974 33.867 12.0161 32.001 11.9999ZM21.001 6H27.001V9H21.001V6Z" class="svg-primary-fill" clip-rule="evenodd"/>
  </g>
</svg>
