<svg xmlns="http://www.w3.org/2000/svg" width="48" height="48" viewBox="0 0 48 48">
  <g class="neo-icon-kit--telephone">
    <path fill="#006FCF" fill-rule="evenodd" d="M18.0315 7.46344L15.0134 4.44585C13.0789 2.51072 10.2449 2.53271 8.35523 4.42386C8.1744 4.59734 7.99357 4.77331 7.81275 4.95095L6.19766 6.55996C5.84432 6.91205 5.49113 7.26075 5.13794 7.59923C3.84937 8.83361 3.13794 10.3548 3.02417 12.1282C2.89478 14.2788 3.28101 16.4397 4.27564 19.1348C5.79761 23.2684 8.219 27.2906 11.4622 31.0768L11.9007 31.5928C15.877 36.2019 20.6591 39.8886 26.1204 42.5547C29.2415 44.0881 31.9143 44.8612 34.5354 44.9883C34.7024 44.9961 34.8674 45 35.0305 45C37.345 45 39.177 44.2211 40.6536 42.5938C41.2457 41.9131 41.9049 41.2698 42.6028 40.5888L42.6223 40.5697L43.056 40.1456L43.4875 39.7185C44.4768 38.7284 45.0002 37.5566 45.0002 36.331C45.0002 35.1045 44.4768 33.9326 43.5012 32.9572C42.3489 31.7737 41.176 30.6097 40.01 29.4525L38.3469 27.7989C36.4133 25.8618 33.5999 25.8618 31.6653 27.7998C30.7083 28.7566 29.7512 29.7154 28.8264 30.6703L28.1211 30.3267C27.8492 30.1911 27.594 30.0573 27.3655 29.9207C24.6165 28.1663 22.0452 25.8207 19.7209 22.9478C18.6306 21.6045 17.842 20.3794 17.281 19.1675C18.2283 18.2581 19.1951 17.3223 20.1091 16.3664L20.2864 16.1821C22.1772 14.1381 22.1189 11.558 20.1379 9.5759L19.5867 9.00533C19.2153 8.62804 18.8368 8.25567 18.4553 7.8807L18.0315 7.46344ZM10.5508 6.47681C10.8247 6.22695 11.2182 5.96903 11.6731 5.96903C12.1848 5.96903 12.6189 6.29546 12.8923 6.56912L15.4846 9.16395C15.752 9.43154 16.0194 9.69456 16.2852 9.95608L16.8976 10.5594C17.2602 10.9185 17.6222 11.283 17.988 11.6694L18.0806 11.7655C18.3612 12.0683 18.655 12.4956 18.655 12.9565C18.655 13.4686 18.2922 13.9392 17.9656 14.2666L17.1962 15.0543C16.4225 15.8325 15.6235 16.5991 14.8313 17.3591L14.8147 17.3751C14.1316 18.0582 13.9504 18.9012 14.3137 19.8697C15.0164 21.5385 15.9944 23.1184 17.3909 24.839C19.9172 27.9621 22.7302 30.5237 25.7864 32.4735C26.3196 32.793 26.8586 33.054 27.3811 33.3062L27.6837 33.4525L27.9885 33.6033C28.342 33.7802 28.6809 33.8662 29.0256 33.8662C29.8928 33.8662 30.4368 33.3198 30.636 33.1195L31.6698 32.0539C32.3668 31.3433 33.0771 30.6325 33.7874 29.9216C34.0608 29.648 34.4944 29.3215 35.0071 29.3215C35.5188 29.3215 35.9524 29.648 36.2258 29.9216L37.8977 31.5851L37.9732 31.66C39.1017 32.7798 40.2373 33.9067 41.3665 35.0663C41.6555 35.3556 42.0002 35.8091 42.0002 36.331C42.0002 36.8519 41.6555 37.3064 41.3665 37.5957C41.0891 37.8723 40.8088 38.1459 40.5286 38.4196L40.0958 38.8424C39.5173 39.4103 38.9372 39.9949 38.4114 40.6C37.5334 41.5666 36.4915 41.9976 35.0305 41.9976C34.9133 41.9976 34.7942 41.9947 34.678 41.9898C32.4827 41.8833 30.1838 41.206 27.4387 39.8572C22.1531 37.2771 17.551 33.6736 13.7507 29.1349L13.2978 28.5982C10.4713 25.1971 8.43765 21.7554 7.09058 18.0954C6.24634 15.8084 5.91577 14.0238 6.01831 12.3149C6.08374 11.2945 6.46314 10.4858 7.21265 9.76794C7.75806 9.24507 8.30396 8.69922 8.84937 8.15289C9.37671 7.62513 9.90406 7.09737 10.4539 6.5696L10.5508 6.47681Z" class="svg-primary-fill" clip-rule="evenodd"/>
  </g>
</svg>
