<svg xmlns="http://www.w3.org/2000/svg" width="48" height="48" viewBox="0 0 48 48">
  <g class="neo-icon-kit--telephone-filled">
    <path fill="#006FCF" d="M8.35602 4.45606C9.30134 3.51123 10.4556 3 11.6744 3C12.8922 3 14.0465 3.51123 15.0142 4.47803L20.1383 9.604C22.1793 11.6445 22.1793 14.3193 20.1099 16.3892C19.1998 17.3394 18.231 18.2759 17.2818 19.1875C17.8433 20.4004 18.6314 21.6235 19.7213 22.9653C22.0465 25.8379 24.6177 28.1807 27.3658 29.9326C27.7466 30.1602 28.2017 30.3799 28.6841 30.6133C28.732 30.6357 28.7799 30.6592 28.8267 30.6816C29.7515 29.7275 30.7086 28.7695 31.6656 27.8135C33.6002 25.877 36.4127 25.877 38.3472 27.8125L43.5015 32.9668C44.4771 33.9414 45.0006 35.1123 45.0006 36.3379C45.0006 37.5625 44.4771 38.7334 43.4879 39.7227L40.6539 42.5957C39.1773 44.2217 37.3453 45 35.0308 45C34.8677 45 34.7027 44.9961 34.5357 44.9883C31.9146 44.8613 29.2418 44.0889 26.1207 42.5566C20.4566 39.7939 15.524 35.9346 11.4625 31.0879C8.22028 27.3057 5.79938 23.2871 4.27692 19.1553C3.2818 16.4653 2.89509 14.3057 3.02399 12.1543C3.13825 10.3813 3.85016 8.86084 5.13825 7.62891L8.35602 4.45606Z" class="svg-primary-fill"/>
  </g>
</svg>
