<svg xmlns="http://www.w3.org/2000/svg" width="48" height="48" viewBox="0 0 48 48">
  <g class="neo-icon-kit--thumbs-up">
    <path fill="#006FCF" fill-rule="evenodd" d="M33.7236 4.05875C32.7588 3.21988 31.4268 2.85367 30.085 3.05338C29.0859 3.19938 27.418 3.8444 27.4717 6.52408L27.4704 6.62103C27.4465 7.16551 27.1438 8.14472 26.3516 9.37955C25.9561 9.99479 24.6553 11.2751 23.7573 11.8371L23.4253 12.0572C22.8764 12.4403 22.3482 12.8995 21.8727 13.3128L21.8706 13.3146L21.5526 13.5901C21.1838 13.9069 20.8317 14.1957 20.5894 14.3283C19.9253 14.6899 19.332 14.9957 18.7922 15.2672L17.5893 15.865C15.4323 16.9344 13.9368 17.7298 11.73 20.1598L11.3595 20.5874C11.1647 20.8025 11.0153 20.9395 10.9131 20.9963H6L5.81561 21.001C4.17321 21.087 3 22.3201 3 23.9963V38.9963L3.00479 39.1806C3.09073 40.823 4.3238 41.9963 6 41.9963H10.632L10.7578 42.0601C11.7436 42.5568 14.0955 43.667 16.1753 44.0685C20.6349 44.9295 25.3622 44.9919 28.4907 44.9953L34.5 44.9963L34.711 44.9913C37.089 44.8802 39 42.9005 39 40.4963C39 39.9043 38.8779 39.341 38.6677 38.8221C40.5776 38.302 42 36.5651 42 34.4963C42 33.9043 41.8779 33.341 41.6677 32.8221C43.5776 32.302 45 30.5651 45 28.4963C45 26.4274 43.5776 24.6905 41.6677 24.1704C41.8779 23.6515 42 23.0882 42 22.4963C42 20.0213 39.975 17.9963 37.5 17.9963H32.3273L32.6514 17.5562C34.0688 15.5869 35.6113 12.8149 35.6328 9.611C35.6494 7.04166 35.0068 5.17399 33.7236 4.05875ZM28.5 38.9963H34.5L34.6421 39.0033C35.3915 39.0775 36 39.731 36 40.4963C36 41.3093 35.3131 41.9963 34.5 41.9963L28.4993 41.9962L28.3573 41.9891C27.6082 41.9146 27 41.2612 27 40.4963C27 39.6831 27.687 38.9963 28.5 38.9963ZM31.7559 6.32291C31.3832 5.99903 30.9125 5.98088 30.6134 6.01039L30.4971 6.02555C30.4854 6.09117 30.473 6.19336 30.471 6.34261L30.4717 6.46354C30.4971 7.74576 29.9307 9.35709 28.876 11.0006C28.2461 11.9807 26.7579 13.4299 25.5798 14.2296L25.3486 14.3805C24.9584 14.6243 24.5258 14.9846 24.0963 15.3554L23.3114 16.0331C22.8768 16.3998 22.4535 16.7284 22.0259 16.9621L21.3165 17.3421C20.7473 17.6422 20.2315 17.9027 19.7563 18.1393L18.3885 18.819C16.7669 19.6376 15.7291 20.2709 14.1973 21.9092L13.9512 22.1764L13.6166 22.5661C13.1336 23.1067 12.306 23.8906 11.2205 23.9865L11 23.9963H6.0083L6 38.9884L11 38.9963L11.0699 39.0033C11.121 39.0056 11.1716 39.011 11.2227 39.0187C11.2726 39.0262 11.3214 39.0353 11.3696 39.0476C11.4142 39.0589 11.4578 39.073 11.5016 39.0886L11.5781 39.118L11.7139 39.1769C11.7417 39.1925 14.5459 40.6994 16.7437 41.1232C19.2512 41.6068 21.8878 41.8196 24.253 41.9164C24.1014 41.4671 24 40.995 24 40.4963C24 39.3414 24.453 38.2951 25.1748 37.4963C24.453 36.6974 24 35.6511 24 34.4963C24 33.3414 24.453 32.2951 25.1748 31.4963C24.453 30.6974 24 29.6511 24 28.4963C24 27.3414 24.453 26.2951 25.1748 25.4963C24.453 24.6974 24 23.6511 24 22.4963C24 20.0298 26.0117 18.0126 28.4752 17.9988L29.2162 17.1013C30.5943 15.4154 32.6126 12.6848 32.6328 9.59147C32.6436 7.98404 32.332 6.8234 31.7559 6.32291ZM28.5 32.9963H37.5L37.6421 33.0033C38.3915 33.0775 39 33.731 39 34.4963C39 35.3093 38.3131 35.9963 37.5 35.9963H28.5L28.3579 35.9892C27.6085 35.915 27 35.2615 27 34.4963C27 33.6831 27.687 32.9963 28.5 32.9963ZM40.5 26.9963H28.5C27.687 26.9963 27 27.6831 27 28.4963C27 29.2615 27.6085 29.915 28.3579 29.9892L28.5 29.9963H40.5C41.3131 29.9963 42 29.3093 42 28.4963C42 27.731 41.3915 27.0775 40.6421 27.0033L40.5 26.9963ZM28.5 20.9963H37.5L37.6421 21.0033C38.3915 21.0775 39 21.731 39 22.4963C39 23.3093 38.3131 23.9963 37.5 23.9963H28.5L28.3579 23.9892C27.6085 23.915 27 23.2615 27 22.4963C27 21.6831 27.687 20.9963 28.5 20.9963Z" class="svg-primary-fill" clip-rule="evenodd"/>
  </g>
</svg>
