<svg xmlns="http://www.w3.org/2000/svg" width="48" height="48" viewBox="0 0 48 48">
  <g class="neo-icon-kit--thumbs-up-filled">
    <path fill="#006FCF" d="M30.085 3.05338C31.4268 2.85367 32.7588 3.21988 33.7236 4.05875C35.0068 5.17399 35.6494 7.04166 35.6328 9.611C35.6113 12.8149 34.0688 15.5869 32.6514 17.5562L32.3273 17.9963H37.5C39.975 17.9963 42 20.0213 42 22.4963C42 23.0882 41.8779 23.6515 41.6677 24.1704C43.5776 24.6905 45 26.4274 45 28.4963C45 30.5651 43.5776 32.302 41.6677 32.8221C41.8779 33.341 42 33.9043 42 34.4963C42 36.5651 40.5776 38.302 38.6677 38.8221C38.8779 39.341 39 39.9043 39 40.4963C39 42.9005 37.089 44.8802 34.711 44.9913L34.5 44.9963L28.4907 44.9953C25.3622 44.9919 20.6349 44.9295 16.1753 44.0685C14.0955 43.667 11.7436 42.5568 10.7578 42.0601L10.632 41.9963H6C4.3238 41.9963 3.09073 40.823 3.00479 39.1806L3 38.9963V23.9963C3 22.3201 4.17321 21.087 5.81561 21.001L6 20.9963H10.9131C11.0153 20.9395 11.1647 20.8025 11.3595 20.5874L11.73 20.1598C13.9368 17.7298 15.4323 16.9344 17.5893 15.865L18.7922 15.2672C19.332 14.9957 19.9253 14.6899 20.5894 14.3283C20.8317 14.1957 21.1838 13.9069 21.5526 13.5901L21.8706 13.3146C22.3467 12.9008 22.8757 12.4409 23.4253 12.0572L23.7573 11.8371C24.6553 11.2751 25.9561 9.99479 26.3516 9.37955C27.1438 8.14472 27.4465 7.16551 27.4704 6.62103L27.4717 6.52408C27.418 3.8444 29.0859 3.19938 30.085 3.05338Z" class="svg-primary-fill"/>
  </g>
</svg>
