<svg xmlns="http://www.w3.org/2000/svg" width="48" height="48" viewBox="0 0 48 48">
  <g class="neo-icon-kit--thumbs-down-filled">
    <path fill="#006FCF" d="M45 19.5001C45 17.4312 43.5776 15.6943 41.6677 15.1743C41.8779 14.6553 42 14.092 42 13.5001C42 11.4312 40.5776 9.69434 38.6677 9.17426C38.8779 8.65533 39 8.09198 39 7.50006C39 5.02508 36.975 3.00006 34.5 3.00006L29.25 3C29.2386 3 29.2246 3.00006 29.2132 3.00006H28.5C28.496 3.00006 28.4922 3.00128 28.4882 3.00128C25.355 3.00671 20.6364 3.06702 16.1748 3.92774C14.0012 4.34705 11.5297 5.54126 10.6318 6H6C4.26172 6 3 7.26172 3 9V24C3 25.7388 4.26172 27.0005 6 27.0005H10.9131C11.0498 27.0767 11.2705 27.2944 11.5703 27.6509L11.7305 27.8374C14.0332 30.3726 15.5615 31.1284 17.875 32.272C18.6465 32.6538 19.5273 33.0894 20.5879 33.6665C20.9014 33.8384 21.3955 34.2671 21.873 34.6831C22.4434 35.1792 23.0898 35.7417 23.7578 36.1606C24.6553 36.7212 25.9561 38.0015 26.3506 38.6147C27.1934 39.9282 27.4824 40.9526 27.4717 41.4722C27.418 44.1509 29.085 44.7964 30.083 44.9429C30.3242 44.978 30.5645 44.9956 30.8027 44.9956C31.8955 44.9956 32.9316 44.6255 33.7236 43.938C35.0068 42.8228 35.6494 40.9546 35.6328 38.3853C35.6097 34.9349 33.8228 31.9855 32.3277 30.0001H37.5C39.975 30.0001 42 27.975 42 25.5001C42 24.9081 41.8779 24.3448 41.6677 23.8259C43.5776 23.3058 45 21.5689 45 19.5001Z" class="svg-primary-fill"/>
  </g>
</svg>
