<svg xmlns="http://www.w3.org/2000/svg" width="48" height="48" viewBox="0 0 48 48">
  <g class="neo-icon-kit--thumbs-down">
    <path fill="#006FCF" fill-rule="evenodd" d="M34.5 3.00006H28.5L27.2427 3.00735C24.1797 3.0343 20.0783 3.17461 16.1753 3.92774C14.1903 4.31059 11.9576 5.33943 10.901 5.86464L10.6323 6H6L5.81561 6.00479C4.17321 6.09073 3 7.3238 3 9V24L3.00479 24.1844C3.09073 25.8273 4.3238 27.0005 6 27.0005H10.9131L10.9683 27.0357C11.1062 27.1333 11.308 27.339 11.5703 27.6509L11.7305 27.8374L12.0144 28.1452C13.8818 30.1374 15.2566 30.9567 17.0412 31.8571L19.1228 32.896C19.572 33.1248 20.0574 33.3779 20.5874 33.6665C20.7964 33.7804 21.0852 34.0094 21.3959 34.2723L22.1626 34.9348C22.6583 35.362 23.2008 35.8115 23.7578 36.1606L23.9423 36.2819C24.8247 36.8889 25.9824 38.0424 26.3506 38.6147C27.1934 39.9282 27.4824 40.9526 27.4717 41.4722L27.4716 41.7174C27.5183 44.0312 28.9168 44.7145 29.8886 44.9092L30.083 44.9429C30.3242 44.978 30.5645 44.9956 30.8027 44.9956C31.8955 44.9956 32.9316 44.6255 33.7236 43.938C35.0068 42.8228 35.6494 40.9546 35.6328 38.3853C35.6097 34.9349 33.8228 31.9855 32.3277 30.0001H37.5L37.711 29.9951C40.089 29.884 42 27.9043 42 25.5001C42 24.9081 41.8779 24.3448 41.6677 23.8259C43.5776 23.3058 45 21.5689 45 19.5001C45 17.4312 43.5776 15.6943 41.6677 15.1743C41.8779 14.6553 42 14.092 42 13.5001C42 11.4312 40.5776 9.69434 38.6677 9.17426C38.8779 8.65533 39 8.09198 39 7.50006C39 5.02508 36.975 3.00006 34.5 3.00006ZM16.7437 6.87305C19.2512 6.38947 21.8874 6.17828 24.2523 6.08209C24.1012 6.53076 24 7.00214 24 7.50006C24 8.65491 24.453 9.70117 25.1748 10.5001C24.453 11.299 24 12.3452 24 13.5001C24 14.6549 24.453 15.7012 25.1748 16.5001C24.453 17.299 24 18.3452 24 19.5001C24 20.6549 24.453 21.7012 25.1748 22.5001C24.453 23.299 24 24.3452 24 25.5001C24 27.9664 26.0117 29.9835 28.4749 29.9975L29.2162 30.8948C30.5943 32.5804 32.6126 35.311 32.6328 38.4048C32.6436 40.0122 32.332 41.1724 31.7559 41.6733C31.3408 42.0337 30.8027 42.0161 30.5195 41.9741L30.4971 41.9712C30.4824 41.8882 30.4668 41.7495 30.4717 41.5327L30.4695 41.2885C30.4244 40.0489 29.8647 38.5363 28.875 36.9937C28.2031 35.9487 26.5547 34.3706 25.3486 33.6167L25.11 33.4571C24.867 33.2853 24.6119 33.0794 24.3546 32.8619L23.312 31.9633C22.8771 31.5961 22.4533 31.2671 22.0239 31.0327C21.2886 30.6323 20.6368 30.2975 20.0467 30.0015L18.3889 29.1772C16.6816 28.3156 15.6216 27.6594 13.9521 25.8218L13.7099 25.536C13.2147 24.9644 12.2696 24.0005 11 24.0005L6 23.9927L6.0083 9H10.9978L11.1849 8.98589L11.3356 8.95923L11.5491 8.88917L11.6653 8.83795L11.7144 8.81885C11.7422 8.80371 14.5366 7.29932 16.7437 6.87305ZM37.5 24.0001H28.5C27.687 24.0001 27 24.687 27 25.5001C27 26.2653 27.6085 26.9188 28.3579 26.993L28.5 27.0001H37.5C38.3131 27.0001 39 26.3132 39 25.5001C39 24.7348 38.3915 24.0813 37.6421 24.0071L37.5 24.0001ZM28.5 18.0001H40.5L40.6421 18.0071C41.3915 18.0813 42 18.7348 42 19.5001C42 20.3132 41.3131 21.0001 40.5 21.0001H28.5L28.3579 20.993C27.6085 20.9188 27 20.2653 27 19.5001C27 18.687 27.687 18.0001 28.5 18.0001ZM37.5 12.0001H28.5C27.687 12.0001 27 12.687 27 13.5001C27 14.2653 27.6085 14.9188 28.3579 14.993L28.5 15.0001H37.5C38.3131 15.0001 39 14.3132 39 13.5001C39 12.7348 38.3915 12.0813 37.6421 12.0071L37.5 12.0001ZM28.4902 6.0011L34.5 6.00006C35.3131 6.00006 36 6.68701 36 7.50006C36 8.31317 35.3131 9.00006 34.5 9.00006H28.5L28.3579 8.99304C27.6085 8.91881 27 8.26534 27 7.50006C27 6.69037 27.6816 6.00671 28.4902 6.0011Z" class="svg-primary-fill" clip-rule="evenodd"/>
  </g>
</svg>
