<svg xmlns="http://www.w3.org/2000/svg" width="49" height="48" viewBox="0 0 49 48">
  <g class="neo-icon-kit--timepicker-morning">
    <g fill="#444B61" class="svg-primary-fill">
      <path d="M31.4 39.8499C31.65 39.0999 31.75 38.35 31.75 37.5V37.45C31.75 33.15 28.3 29.7 24.05 29.7H24C19.7 29.7 16.25 33.15 16.25 37.45V37.5C16.25 38.35 16.4 39.15 16.65 39.9 10.45 40.15 4.69999 40.65.0499878 41.4V43.95C4.99999 43.15 11.2 42.6 18 42.4 22.0655 42.2644 26.1341 42.2688 30.2 42.4 36.95 42.6 43.15 43.1 48.1 43.9V41.3499C43.3 40.5999 37.6 40.0999 31.4 39.8499zM24.25 39.75C22.7 39.75 21.1 39.7499 19.6 39.7999 19.25 39.0999 19 38.35 19 37.5 19 34.75 21.25 32.5 24 32.5 26.75 32.5 29 34.75 29 37.5 29 38.35 28.8 39.0999 28.45 39.7999 27.05 39.7499 25.65 39.75 24.25 39.75zM35.8 28.45C36.75 27.5 36.9 26.1 36.15 25.35 35.4 24.6 34 24.75 33.05 25.7 32.1 26.65 31.95 28.05 32.7 28.8 33.45 29.55 34.85 29.4 35.8 28.45zM24 25.35C25.05 25.35 25.95 24.25 25.95 22.9 25.95 21.55 25.1 20.5 24 20.5 22.95 20.5 22.05 21.6 22.05 22.9 22.05 24.25 22.9 25.35 24 25.35z"/>
      <path d="M9.4 39.45C10.75 39.45 11.85 38.6 11.85 37.5 11.85 36.45 10.75 35.55 9.4 35.55 8.05 35.55 7 36.4 7 37.5 7 38.55 8.1 39.45 9.4 39.45zM36.15 37.5C36.15 38.55 37.25 39.45 38.6 39.45 39.95 39.45 41 38.55 41 37.5 41 36.45 39.9 35.55 38.55 35.55 37.2 35.55 36.15 36.45 36.15 37.5zM15.3 28.8C16.05 28.05 15.9 26.65 14.95 25.7 14 24.75 12.6 24.6 11.85 25.35 11.1 26.1 11.25 27.5 12.2 28.45 13.15 29.4 14.55 29.55 15.3 28.8z"/>
    </g>
  </g>
</svg>
