<svg xmlns="http://www.w3.org/2000/svg" width="48" height="48" viewBox="0 0 48 48">
  <g class="neo-icon-kit--timepicker-evening">
    <path fill="#444B61" d="M35.5 41.6C35.3 35.45 30.2 30.5 24 30.5C17.75 30.5 12.7 35.45 12.5 41.65C8.5 41.9 4.05 42.25 0 42.9V45.45C0.1 45.45 0.2 45.4 0.3 45.4C3.9 44.8 8.15 44.4 12.7 44.1C16.35 43.9 20.25 43.75 24.25 43.75C28.05 43.75 31.8 43.85 35.3 44.05C39.95 44.3 44.3 44.75 48 45.35V42.8C43.95 42.2 39.45 41.8 35.5 41.6Z" class="svg-primary-fill"/>
  </g>
</svg>
