<svg xmlns="http://www.w3.org/2000/svg" width="24" height="24" viewBox="0 0 24 24">
  <g class="neo-icon-kit--time-m">
    <path fill="#444B61" fill-rule="evenodd" d="M2 12C2 6.5 6.5 2 12 2C17.5 2 22 6.5 22 12C22 17.5 17.5 22 12 22C6.5 22 2 17.5 2 12ZM4 12C4 16.4 7.6 20 12 20C16.4 20 20 16.4 20 12C20 7.6 16.4 4 12 4C7.6 4 4 7.6 4 12Z" class="svg-primary-fill" clip-rule="evenodd"/>
    <path fill="#444B61" d="M12.999 11.686L13 6.00098H11V12.496L15.717 17.219L17.131 15.805L12.999 11.686Z" class="svg-secondary-fill"/>
  </g>
</svg>
