<svg xmlns="http://www.w3.org/2000/svg" width="48" height="48" viewBox="0 0 48 48">
  <g class="neo-icon-kit--time-filled">
    <path fill="#006FCF" fill-rule="evenodd" d="M48 24C48 10.7452 37.2548 0 24 0C10.7452 0 0 10.7452 0 24C0 37.2548 10.7452 48 24 48C37.2548 48 48 37.2548 48 24ZM21.252 13.8555C21.3247 13.0947 21.9657 12.5 22.7451 12.5C23.5732 12.5 24.2451 13.1714 24.2451 14V24.4902L31.584 31.8281L31.687 31.9421C32.1676 32.5313 32.1333 33.3999 31.584 33.9492C31.291 34.2422 30.9072 34.3887 30.5234 34.3887C30.1396 34.3887 29.7559 34.2422 29.4629 33.9492L21.6846 26.1719L21.5797 26.0529C21.4203 25.8472 21.3354 25.6062 21.2935 25.3596L21.2796 25.2959L21.2685 25.2313C21.2668 25.2109 21.2639 25.1909 21.261 25.171C21.2563 25.1387 21.2517 25.1066 21.2525 25.0733L21.2451 25V14L21.252 13.8555Z" class="svg-primary-fill" clip-rule="evenodd"/>
  </g>
</svg>
