<svg xmlns="http://www.w3.org/2000/svg" width="48" height="48" viewBox="0 0 48 48">
  <g class="neo-icon-kit--timepicker-afternoon">
    <g fill="#444B61" class="svg-primary-fill">
      <path fill-rule="evenodd" d="M18.4977 18.4921C19.9564 17.033 21.9368 16.2158 24 16.2215C26.0629 16.2162 28.0427 17.0336 29.501 18.4927C30.9593 19.9518 31.7755 21.9322 31.769 23.995C31.7746 26.0572 30.9579 28.0365 29.4997 29.4947C28.0415 30.9529 26.0622 31.7696 24 31.764C21.9374 31.7702 19.9575 30.9537 18.4988 29.4955C17.0401 28.0372 16.223 26.0576 16.2285 23.995C16.2222 21.9318 17.0389 19.9512 18.4977 18.4921ZM19.019 23.995C19.019 26.7465 21.2485 28.9715 24 28.9715C26.7465 28.9715 28.976 26.7465 28.9785 23.995C28.9785 21.244 26.749 19.014 24 19.014C22.6789 19.0138 21.4118 19.5385 20.4776 20.4726C19.5434 21.4068 19.0187 22.6739 19.019 23.995Z" clip-rule="evenodd"/>
      <path d="M36.143 11.857C35.385 11.0995 33.998 11.255 33.0515 12.202 32.104 13.152 31.9515 14.531 32.709 15.291 33.4665 16.051 34.851 15.8985 35.8005 14.9485 36.7475 14.0015 36.9005 12.615 36.143 11.857zM12.202 33.056C11.252 34.0035 11.0995 35.385 11.857 36.143 12.615 36.9005 13.999 36.75 14.9485 35.8005 15.8985 34.8505 16.0515 33.4665 15.2935 32.709 14.536 31.951 13.149 32.1065 12.202 33.056zM11.857 11.857C11.0995 12.615 11.252 14.002 12.1995 14.9485 13.1495 15.8985 14.5335 16.0485 15.291 15.291 16.049 14.5335 15.896 13.1465 14.946 12.1995 14.0015 11.2545 12.615 11.0995 11.857 11.857zM33.0515 35.7955C33.9985 36.7455 35.3825 36.9005 36.143 36.143 36.903 35.385 36.748 33.998 35.798 33.049 34.848 32.099 33.4665 31.949 32.7065 32.7065 31.9465 33.464 32.104 34.8485 33.0515 35.7955zM24 11.8525C25.071 11.8525 25.943 10.7665 25.943 9.4235 25.94 8.0805 25.071 7 24 7 22.9265 7 22.055 8.0805 22.055 9.4235 22.055 10.7665 22.924 11.8525 24 11.8525zM24 41C25.071 41 25.943 39.9145 25.943 38.5715 25.943 37.2285 25.073 36.1475 24.0025 36.1475 22.929 36.1475 22.0575 37.2285 22.0575 38.5715 22.054 39.9145 22.9235 41 24 41zM11.857 24C11.857 22.929 10.7645 22.057 9.4215 22.057 8.0785 22.057 7 22.929 7 24 7 25.0735 8.0785 25.943 9.4215 25.943 10.7645 25.943 11.857 25.073 11.857 24zM41 24C41 22.929 39.912 22.057 38.569 22.057 37.226 22.057 36.143 22.929 36.143 24 36.143 25.0735 37.226 25.943 38.569 25.943 39.912 25.943 41 25.073 41 24z"/>
    </g>
  </g>
</svg>
