<svg xmlns="http://www.w3.org/2000/svg" width="48" height="48" viewBox="0 0 48 48">
  <g class="neo-icon-kit--time">
    <path fill="#006FCF" fill-rule="evenodd" d="M24 0C37.2548 0 48 10.7452 48 24C48 37.2548 37.2548 48 24 48C10.7452 48 0 37.2548 0 24C0 10.7452 10.7452 0 24 0ZM24 3C12.4205 3 3 12.4205 3 24C3 35.5794 12.4205 45 24 45C35.5795 45 45 35.5795 45 24C45 12.4205 35.5795 3 24 3ZM24.2383 13.8555C24.1656 13.0947 23.525 12.5 22.7451 12.5C21.9165 12.5 21.2451 13.1714 21.2451 14V25L21.2583 25.1521L21.2684 25.2308C21.2752 25.2747 21.283 25.3176 21.2935 25.36L21.3241 25.507C21.3845 25.7501 21.4942 25.9815 21.6846 26.1719L29.4629 33.9492L29.5768 34.0522C29.8518 34.2765 30.1876 34.3887 30.5234 34.3887C30.9072 34.3887 31.291 34.2422 31.584 33.9492C32.1699 33.3633 32.1699 32.4141 31.584 31.8281L24.2451 24.4902V14L24.2383 13.8555Z" class="svg-primary-fill" clip-rule="evenodd"/>
  </g>
</svg>
