<svg xmlns="http://www.w3.org/2000/svg" width="48" height="48" viewBox="0 0 48 48">
  <g class="neo-icon-kit--toilet">
    <g fill="#006FCF" class="svg-primary-fill">
      <path d="M23.5 3C22.6716 3 22 3.67157 22 4.5V43.5C22 44.3284 22.6716 45 23.5 45C24.3284 45 25 44.3284 25 43.5V4.5C25 3.67157 24.3284 3 23.5 3Z"/>
      <path fill-rule="evenodd" d="M10.5 13C12.9853 13 15 10.9853 15 8.5 15 6.01472 12.9853 4 10.5 4 8.01472 4 6 6.01472 6 8.5 6 10.9853 8.01472 13 10.5 13zM10.5 10C11.3284 10 12 9.32843 12 8.5 12 7.67157 11.3284 7 10.5 7 9.67157 7 9 7.67157 9 8.5 9 9.32843 9.67157 10 10.5 10zM36.5 13C38.9853 13 41 10.9853 41 8.5 41 6.01472 38.9853 4 36.5 4 34.0147 4 32 6.01472 32 8.5 32 10.9853 34.0147 13 36.5 13zM36.5 10C37.3284 10 38 9.32843 38 8.5 38 7.67157 37.3284 7 36.5 7 35.6716 7 35 7.67157 35 8.5 35 9.32843 35.6716 10 36.5 10zM6 33C4.34315 33 3 31.6569 3 30V18C3 16.3431 4.34315 15 6 15H15C16.6569 15 18 16.3431 18 18V30C18 31.6569 16.6569 33 15 33V42C15 43.6569 13.6569 45 12 45H9C7.34315 45 6 43.6569 6 42L6 33zM9 30L9 42H12V30H15V18H6L6 30H9zM42.9494 17.5069L44.9583 29.5069C45.2644 31.3355 43.8477 33 41.9853 33H41.0221V42C41.0221 43.6569 39.6727 45 38.0081 45H34.9942C33.3296 45 31.9802 43.6569 31.9802 42V33H31.0147C29.1531 33 27.7366 31.3368 28.0414 29.5088L30.0425 17.5088C30.2838 16.0613 31.5417 15 33.0158 15H39.9764C41.4498 15 42.7072 16.0603 42.9494 17.5069zM34.9942 42V30H31.0147L33.0158 18 39.9764 18 41.9853 30H38.0081V42H34.9942z" clip-rule="evenodd"/>
    </g>
  </g>
</svg>
