<svg xmlns="http://www.w3.org/2000/svg" width="48" height="48" viewBox="0 0 48 48">
  <g class="neo-icon-kit--toll">
    <g fill="#006FCF" class="svg-primary-fill">
      <path d="M23 19.5C23 18.6716 23.6716 18 24.5 18C25.3284 18 26 18.6716 26 19.5V28.5C26 29.3284 25.3284 30 24.5 30C23.6716 30 23 29.3284 23 28.5V19.5Z"/>
      <path fill-rule="evenodd" d="M41.0523 22.893L37.9415 5.47263C37.686 4.04184 36.4417 3 34.9882 3L12.7295 3C11.2682 3 10.0195 4.05285 9.77259 5.49311L3.60116 41.4931C3.28699 43.3258 4.69859 45 6.55803 45H41.4168C43.2847 45 44.6985 43.3114 44.3701 41.4726L43.1192 34.4675C44.2896 33.1446 45 31.4052 45 29.5C45 26.6431 43.4026 24.1593 41.0523 22.893ZM26 6L34.9882 6L37.8468 22.0079C37.7318 22.0026 37.6162 22 37.5 22C33.3578 22 30 25.3579 30 29.5C30 33.6421 33.3578 37 37.5 37C38.5353 37 39.5216 36.7902 40.4188 36.4109L41.4168 42H26V34.5C26 33.6716 25.3284 33 24.5 33C23.6716 33 23 33.6716 23 34.5V42H6.55803L12.7295 6L23 6V13.5C23 14.3284 23.6716 15 24.5 15C25.3284 15 26 14.3284 26 13.5V6ZM38.1827 25.4067C38.16 25.1784 37.9599 25 37.7167 25C37.4583 25 37.2486 25.2014 37.2486 25.45V26.1372L37.1642 26.1473C36.0466 26.2951 35.2754 26.972 35.2754 27.8671C35.2754 28.9708 36.1536 29.3617 37.4268 29.7252L37.791 29.8275C39.0791 30.2005 39.4553 30.4928 39.4553 31.0981C39.4553 31.7307 38.8488 32.1083 37.8331 32.1083C36.8695 32.1083 36.205 31.691 35.8566 30.8696C35.8017 30.6968 35.6365 30.5703 35.4388 30.5703C35.1964 30.5703 35 30.7591 35 30.9921C35 31.0404 35.0102 31.0861 35.0257 31.1293L35.02 31.1315L35.0698 31.2609C35.4283 32.1306 36.2199 32.6959 37.2486 32.8433V33.55L37.2508 33.5933C37.2735 33.8215 37.4735 34 37.7167 34C37.9751 34 38.1848 33.7984 38.1848 33.55V32.8655L38.2723 32.8568C39.5458 32.7159 40.4 32.012 40.4 31.0463C40.4 29.9833 39.6198 29.521 38.2632 29.1252L37.8767 29.0146C36.5989 28.6413 36.2201 28.417 36.2201 27.8062C36.2201 27.2613 36.7696 26.9091 37.6201 26.9091C38.4947 26.9091 39.0701 27.2452 39.4315 27.9667L39.4544 28.0127L39.4569 28.0115L39.4815 28.0453C39.5603 28.1431 39.6829 28.2065 39.8215 28.2065C40.0599 28.2065 40.2531 28.0207 40.2531 27.7915C40.2531 27.7344 40.2411 27.68 40.2217 27.6292L40.164 27.5053C39.7932 26.7539 39.1015 26.2905 38.1848 26.1584V25.45L38.1827 25.4067Z" clip-rule="evenodd"/>
    </g>
  </g>
</svg>
