<svg xmlns="http://www.w3.org/2000/svg" width="48" height="48" viewBox="0 0 48 48">
  <g class="neo-icon-kit--toll-filled">
    <g fill="#006FCF" class="svg-primary-fill">
      <path fill-rule="evenodd" d="M23 3L12.7295 3C11.2682 3 10.0195 4.05285 9.77259 5.49311L3.60116 41.4931C3.28699 43.3258 4.69859 45 6.55803 45H23V34.5C23 33.6716 23.6716 33 24.5 33C25.3284 33 26 33.6716 26 34.5V45H41.4168C43.2847 45 44.6985 43.3114 44.3701 41.4726L42.6835 32.0276C44.1234 30.4321 45 28.3184 45 26C45 22.5398 43.0473 19.5357 40.1838 18.0295L37.9415 5.47263C37.686 4.04184 36.4417 3 34.9882 3H26V13.5C26 14.3284 25.3284 15 24.5 15C23.6716 15 23 14.3284 23 13.5V3ZM24.5 18C23.6716 18 23 18.6716 23 19.5V28.5C23 29.3284 23.6716 30 24.5 30C25.3284 30 26 29.3284 26 28.5V19.5C26 18.6716 25.3284 18 24.5 18ZM42 26C42 29.3137 39.3137 32 36 32C32.6863 32 30 29.3137 30 26C30 22.6863 32.6863 20 36 20C39.3137 20 42 22.6863 42 26Z" clip-rule="evenodd"/>
      <path d="M36.9803 24.0534C37.1961 24.1895 37.3718 24.3994 37.5113 24.7002L37.5967 24.8858L37.6315 24.8671C37.7198 24.9488 37.8374 25.0002 37.9683 25.0002C38.2526 25.0002 38.4736 24.7625 38.4736 24.4814C38.4736 24.4109 38.4601 24.3454 38.4395 24.287L38.388 24.1676L38.3867 24.1646C38.0765 23.4859 37.5098 23.0541 36.7712 22.9042L36.7714 22.4L36.7695 22.3546L36.7688 22.3477C36.7436 22.073 36.5189 21.85 36.236 21.85C35.9352 21.85 35.7007 22.1015 35.7007 22.4V22.8805C34.7606 23.0366 34.0767 23.6752 34.0767 24.5486C34.0767 25.0845 34.2779 25.4597 34.6252 25.7381C34.9615 26.0077 35.4301 26.1822 35.9538 26.3437L36.2529 26.4345C36.7822 26.6001 37.0989 26.7409 37.284 26.894C37.3734 26.968 37.4294 27.0428 37.4643 27.1234C37.4996 27.2048 37.5169 27.3004 37.5169 27.4206C37.5169 27.6502 37.4183 27.8287 37.2291 27.9559C37.0334 28.0876 36.7327 28.1685 36.3318 28.1685C35.9591 28.1685 35.6549 28.0816 35.4126 27.9176C35.1718 27.7545 34.9812 27.5077 34.8468 27.1681C34.7826 26.9603 34.5941 26.8014 34.3612 26.8014C34.0736 26.8014 33.85 27.0418 33.85 27.3264C33.85 27.3371 33.8504 27.3478 33.851 27.3582L33.828 27.3681L33.9161 27.6156L33.9173 27.6187C34.2178 28.4063 34.8659 28.9295 35.7007 29.0974L35.7006 29.6L35.7025 29.6454L35.7031 29.6523C35.7284 29.9268 35.953 30.15 36.236 30.15C36.5368 30.15 36.7712 29.8983 36.7712 29.6V29.125C37.8337 28.9774 38.5944 28.3178 38.5944 27.3745C38.5944 26.8613 38.4171 26.4806 38.083 26.1858C37.758 25.899 37.2918 25.7006 36.7301 25.5236L36.4124 25.4254C35.8834 25.2584 35.5677 25.1322 35.3823 24.9912C35.2937 24.9238 35.2395 24.8562 35.2059 24.7824C35.1717 24.7075 35.1542 24.6161 35.1542 24.4944C35.1542 24.3054 35.2397 24.1506 35.4032 24.0374C35.5713 23.9211 35.8265 23.847 36.1565 23.847C36.4955 23.847 36.7642 23.9172 36.9803 24.0534Z"/>
    </g>
  </g>
</svg>
