<svg xmlns="http://www.w3.org/2000/svg" width="48" height="48" viewBox="0 0 48 48">
  <g class="neo-icon-kit--trains-multi" clip-path="url(#a)">
    <g fill="#006FCF" class="svg-primary-fill">
      <path d="M29.9995 46.5V44.9995H20.9995V46.5C20.9992 47.3282 20.3278 48 19.4995 48C18.6715 47.9997 17.9998 47.328 17.9995 46.5V44.9995H8.99951V46.5C8.99925 47.3282 8.32778 48 7.49951 48C6.67147 47.9997 5.99977 47.328 5.99951 46.5V44.9995H1.5C0.671573 44.9995 0 44.3279 0 43.4995C4.83195e-07 42.6711 0.671573 41.9995 1.5 41.9995H40.5005C41.3287 41.9998 42.0005 42.6712 42.0005 43.4995C42.0005 44.3278 41.3287 44.9992 40.5005 44.9995H32.9995V46.5C32.9992 47.3282 32.3278 48 31.4995 48C30.6715 47.9997 29.9998 47.328 29.9995 46.5Z"/>
      <path fill-rule="evenodd" d="M27 10.5V5.35274C24.0747 4.25651 19.8936 3 16.5 3H1.5C0.671573 3 0 2.32843 0 1.5C0 0.671573 0.671573 0 1.5 0H16.5C23.9466 0 30.3682 2.91537 35.375 6.38281C40.3813 9.85001 44.0519 13.9225 46.0332 16.3828C47.3945 18.0732 47.9999 20.1609 48 22.2246V22.5C48 26.1598 45.3786 29.2074 41.911 29.8675C41.9708 30.318 42 30.7719 42 31.2246V31.5C42 32.0134 41.9484 32.5147 41.8502 32.999H46.5005C47.3287 32.9993 48.0005 33.6708 48.0005 34.499C48.0005 35.3273 47.3287 35.9988 46.5005 35.999H40.5013C39.133 37.8212 36.9542 39 34.5 39H1.5C0.671574 39 0 38.3284 0 37.5C0 36.6716 0.671573 36.0002 1.5 36.0002H34.5C36.9853 36.0002 39 33.9855 39 31.5002V31.2248C39 30.8073 38.9639 30.3977 38.8955 30.0002H31.5C25.701 30.0002 21 25.2992 21 19.5002V14.3529C18.0747 13.2567 13.8936 12.0002 10.5 12.0002H1.5C0.671573 12.0002 0 11.3284 0 10.5C0 9.67157 0.671573 9 1.5 9H10.5C17.141 9 22.9669 11.3187 27.7009 14.2799C27.2482 13.107 27 11.8325 27 10.5ZM45 22.2246V22.5C45 24.8017 43.272 26.6998 41.0425 26.9676C40.7689 26.4121 40.4338 25.8803 40.0332 25.3828C39.0668 24.1827 37.6984 22.5991 35.9692 20.8892C36.4689 20.9622 36.98 21 37.5 21H44.8955C44.9639 21.3975 45 21.8071 45 22.2246ZM37.5 18C33.3579 18 30 14.6421 30 10.5V6.65743C31.6584 7.4801 32.2176 7.84484 33.667 8.84863C38.1815 11.9752 41.5609 15.6517 43.4805 18H37.5ZM31.5 27.0002C27.3579 27.0002 24 23.6423 24 19.5002V15.6576C25.6584 16.4803 26.2176 16.845 27.667 17.8488C32.1815 20.9754 35.5609 24.6518 37.4805 27.0002H31.5Z" clip-rule="evenodd"/>
      <path fill-rule="evenodd" d="M12.5 30.0002C13.8806 30.0002 14.9999 28.8808 15 27.5002V26.5002C15 22.3581 11.6421 18.0002 7.5 18.0002H1.5C0.671573 18.0002 0 18.6718 0 19.5002C0.000103071 20.3285 0.671636 21.0002 1.5 21.0002H7.5C9.98528 21.0002 12 24.0149 12 26.5002V27.0002L1.5 27C0.671573 27 0 27.6716 0 28.5C1.03081e-06 29.3284 0.671574 30 1.5 30L12.5 30.0002Z" clip-rule="evenodd"/>
    </g>
  </g>
  <defs>
    <clipPath id="a" class="a">
      <path fill="#fff" d="M0 0H48V48H0z"/>
    </clipPath>
  </defs>
</svg>
