<svg xmlns="http://www.w3.org/2000/svg" width="48" height="48" viewBox="0 0 48 48">
  <g class="neo-icon-kit--train-outbound-white">
    <path fill="#fff" fill-rule="evenodd" d="M24 0C10.7077 0 0 10.7077 0 24C0 37.2923 10.7077 48 24 48C37.2923 48 48 37.2923 48 24C48 10.7077 37.2923 0 24 0ZM24 45.2308C12.3692 45.2308 2.76923 35.6308 2.76923 24C2.76923 12.3692 12.3692 2.76923 24 2.76923C35.6308 2.76923 45.2308 12.1846 45.2308 24C45.2308 35.8154 35.6308 45.2308 24 45.2308Z" class="svg-secondary-fill" clip-rule="evenodd"/>
    <g fill="#fff" class="svg-primary-fill">
      <path fill-rule="evenodd" d="M28.7998 14.9539L35.6306 20.1231C36.5536 20.8616 37.2921 22.3385 37.2921 23.4462V25.1077C37.2921 25.6615 36.9229 26.2154 36.5537 26.7692C36.1844 27.3231 35.6306 27.5077 34.8921 27.5077H15.1383C14.5844 27.5077 14.2152 27.1385 14.2152 26.5846C14.2152 26.0308 14.5844 25.6616 15.1383 25.6616H34.8921C35.0767 25.6616 35.0767 25.6616 35.2613 25.4769C35.446 25.4769 35.446 25.2923 35.446 25.1077V23.4462C35.446 22.8923 34.8921 22.1539 34.5229 21.7846L33.7844 21.2308H22.5229C22.1537 21.2308 21.7844 20.8616 21.5998 20.4923L20.3075 14.9539H13.4767C12.9229 14.9539 12.5536 14.5846 12.5536 14.0308C12.5536 13.4769 13.1075 13.1077 13.4767 12.9231H22.7075C24.5537 12.9231 27.3229 13.8462 28.7998 14.9539ZM22.3383 14.9539L23.446 19.3846H31.3844L27.6921 16.6154C26.3998 15.6923 24.1844 14.9539 22.7075 14.9539H22.3383Z" clip-rule="evenodd"/>
      <path d="M12 30.2769H36.3692C36.9231 30.2769 37.1077 30.6461 37.1077 31.2C37.1077 31.7538 36.7384 32.123 36.1846 32.123H34.1538V33.6C34.1538 34.1538 33.7846 34.523 33.2308 34.523C32.6769 34.523 32.3077 34.1538 32.3077 33.6V32.123H28.0615V33.6C28.0615 34.1538 27.6923 34.523 27.1384 34.523C26.5846 34.523 26.2154 34.1538 26.2154 33.6V32.123H21.9692V33.6C21.9692 34.1538 21.6 34.523 21.0461 34.523C20.4923 34.523 20.1231 34.1538 20.1231 33.6V32.123H15.8769V33.6C15.8769 34.1538 15.5077 34.523 14.9538 34.523C14.4 34.523 14.0308 34.1538 14.0308 33.6V32.123H12C11.4461 32.123 11.0769 31.7538 11.0769 31.2C11.0769 30.6461 11.4461 30.2769 12 30.2769Z"/>
    </g>
  </g>
</svg>
