<svg xmlns="http://www.w3.org/2000/svg" width="48" height="48" viewBox="0 0 48 48">
  <g class="neo-icon-kit--train">
    <path fill="#006FCF" d="M33 43.5V42H24V43.5C23.999 44.328 23.328 45 22.5 45 21.672 45 21 44.328 21 43.5V42H12V43.5C11.999 44.328 11.328 45 10.5 45 9.671 45 9 44.328 9 43.5V42H4.5C3.672 42 3 41.328 3 40.5 3 39.671 3.672 39 4.5 39H43.501C44.329 39 45.001 39.671 45.001 40.5 45.001 41.328 44.329 41.999 43.501 42H36V43.5C35.999 44.328 35.328 45 34.5 45 33.672 45 33 44.328 33 43.5ZM42 28.5V28.225C42 27.807 41.964 27.398 41.896 27H34.5C28.701 27 24 22.299 24 16.5V11.353C21.075 10.257 16.894 9 13.5 9H4.5C3.672 9 3 8.329 3 7.5 3 6.672 3.672 6 4.5 6H13.5C20.947 6 27.368 8.916 32.375 12.383 37.381 15.85 41.052 19.923 43.033 22.383 44.395 24.074 45 26.161 45 28.225V28.5C45 32.642 41.642 36 37.5 36H4.5C3.672 36 3 35.329 3 34.5 3 33.672 3.672 33 4.5 33H37.5C39.985 33 42 30.986 42 28.5ZM18 24.5C18 25.881 16.881 27 15.5 27H4.5C3.672 27 3 26.329 3 25.5 3 24.672 3.672 24 4.5 24H15V23.5C15 21.015 12.985 18 10.5 18H4.5C3.672 18 3 17.329 3 16.5 3 15.672 3.672 15 4.5 15H10.5C14.642 15 18 19.358 18 23.5V24.5ZM27 16.5C27 20.642 30.358 24 34.5 24H40.481C38.561 21.652 35.182 17.975 30.667 14.849 29.218 13.845 28.658 13.48 27 12.658V16.5Z" class="svg-primary-fill"/>
  </g>
</svg>
