<svg xmlns="http://www.w3.org/2000/svg" width="48" height="48" viewBox="0 0 48 48">
  <g class="neo-icon-kit--train-filled">
    <g fill="#006FCF" class="svg-primary-fill">
      <path d="M32.9995 43.5001V41.9996H23.9995V43.5001C23.9992 44.3283 23.3278 45.0001 22.4995 45.0001C21.6715 44.9998 20.9998 44.3281 20.9995 43.5001V41.9996H11.9995V43.5001C11.9992 44.3283 11.3278 45.0001 10.4995 45.0001C9.67147 44.9998 8.99977 44.3281 8.99951 43.5001V41.9996H4.5C3.67157 41.9996 3 41.328 3 40.4996C3 39.6711 3.67157 38.9996 4.5 38.9996H43.5005C44.3287 38.9998 45.0005 39.6713 45.0005 40.4996C45.0005 41.3278 44.3287 41.9993 43.5005 41.9996H35.9995V43.5001C35.9992 44.3283 35.3278 45.0001 34.4995 45.0001C33.6715 44.9998 32.9998 44.3281 32.9995 43.5001Z"/>
      <path fill-rule="evenodd" d="M3 7.50024C3 6.67182 3.67157 6.00024 4.5 6.00024H13.5C20.9466 6.00024 27.3682 8.91561 32.375 12.3831C37.3813 15.8503 41.0519 19.9227 43.0332 22.3831C44.3945 24.0735 44.9999 26.1611 45 28.2249V28.5002C45 32.6424 41.6421 36.0002 37.5 36.0002H4.5C3.67157 36.0002 3 35.3287 3 34.5002V25.5002C3 24.6718 3.67157 24.0002 4.5 24.0002H15V23.5002C15 21.015 12.9853 18.0002 10.5 18.0002H4.5C3.67164 18.0002 3.0001 17.3286 3 16.5002V7.50024ZM34.5 24.0002C30.3579 24.0002 27 20.6424 27 16.5002V12.6577C28.6584 13.4803 29.2176 13.8451 30.667 14.8489C35.1815 17.9754 38.5609 21.6519 40.4805 24.0002H34.5Z" clip-rule="evenodd"/>
    </g>
  </g>
</svg>
