<svg xmlns="http://www.w3.org/2000/svg" width="48" height="48" viewBox="0 0 48 48">
  <g class="neo-icon-kit--train-return-blue">
    <path fill="#006FCF" fill-rule="evenodd" d="M24 0C10.7077 0 0 10.7077 0 24C0 37.2923 10.7077 48 24 48C37.2923 48 48 37.2923 48 24C48 10.7077 37.2923 0 24 0ZM24 45.2308C12.3692 45.2308 2.76923 35.6308 2.76923 24C2.76923 12.3692 12.3692 2.76923 24 2.76923C35.6308 2.76923 45.2308 12.1846 45.2308 24C45.2308 35.8154 35.6308 45.2308 24 45.2308Z" class="svg-secondary-fill" clip-rule="evenodd"/>
    <g fill="#006FCF" class="svg-primary-fill">
      <path fill-rule="evenodd" d="M33.7845 28.2461H14.0307C13.4769 28.2461 12.7384 27.8769 12.5538 27.323C11.9999 26.7692 11.8153 26.2153 11.8153 25.4769V24C11.8153 22.8923 12.5538 21.6 13.4769 20.8615L20.3076 15.6923C21.7845 14.5846 24.5538 13.6615 26.3999 13.6615H35.4461C35.9999 13.6615 36.3692 14.0307 36.3692 14.5846C36.3692 15.1384 35.9999 15.5077 35.4461 15.5077H28.6153L27.323 21.0461C27.1384 21.4153 26.7692 21.7846 26.3999 21.7846H15.1384L14.3999 22.3384C13.8461 22.523 13.4769 23.4461 13.4769 24V25.6615C13.4769 25.8461 13.4769 26.0307 13.6615 26.2153C13.6615 26.4 13.8461 26.4 14.0307 26.4H33.7845C34.3384 26.4 34.7076 26.7692 34.7076 27.323C34.7076 27.8769 34.3384 28.2461 33.7845 28.2461ZM26.2153 15.6923C24.7384 15.6923 22.523 16.4307 21.2307 17.3538L17.5384 20.123H25.4769L26.5845 15.6923H26.2153Z" clip-rule="evenodd"/>
      <path d="M12.5537 31.0153H36.9229C37.4768 31.0153 37.846 31.3845 37.846 31.9384C37.846 32.4922 37.4768 32.8614 36.9229 32.8614H34.8921V34.3384C34.8921 34.8922 34.5229 35.2614 33.9691 35.2614C33.4152 35.2614 33.046 34.8922 33.046 34.3384V32.8614H28.7998V34.3384C28.7998 34.8922 28.4306 35.2614 27.8768 35.2614C27.3229 35.2614 26.9537 34.8922 26.9537 34.3384V32.8614H22.7075V34.3384C22.7075 34.8922 22.3383 35.2614 21.7845 35.2614C21.2306 35.2614 20.8614 34.8922 20.8614 34.3384V32.8614H16.6152V34.3384C16.6152 34.8922 16.246 35.2614 15.6922 35.2614C15.1383 35.2614 14.7691 34.8922 14.7691 34.3384V32.8614H12.5537C11.9998 32.8614 11.6306 32.4922 11.6306 31.9384C11.6306 31.3845 11.9998 31.0153 12.5537 31.0153Z"/>
    </g>
  </g>
</svg>
