<svg xmlns="http://www.w3.org/2000/svg" width="48" height="48" viewBox="0 0 48 48">
  <g class="neo-icon-kit--train-outbound-no-circle-white">
    <g fill="#fff" class="svg-primary-fill">
      <path fill-rule="evenodd" d="M31 12.6L40 19.2C41.2 20 42 21.8 42 23.4V25.4C42 26.2 41.8 27 41.2 27.6C40.6 28 39.8 28.4 39 28.4H13C12.4 28.4 12 28 12 27.4C12 26.8 12.4 26.4 13 26.4H39C39.4 26.6 39.6 26.4 39.8 26.2C39.8 26.1 39.85 25.95 39.9 25.8C39.95 25.65 40 25.5 40 25.4V23.4C40 22.6 39.4 21.4 38.8 21L37.8 20.2H23C22.6 20.2 22.2 19.8 22 19.4L20.2 12.2H11C10.4 12.2 10 11.8 10 11.2C10 10.6 10.4 10.2 11 10H23.2C25.6 10 29 11.2 31 12.6ZM22.2 12.2L23.8 18.2H35L29.6 14.4C28 13.2 25 12.2 23 12.2H22.2Z" clip-rule="evenodd"/>
      <path d="M9 32.2H41C41.6 32.2 42 32.6 42 33.2C42 33.8 41.6 34.2 41 34.2H38V36.2C38 36.8 37.6 37.2 37 37.2C36.4 37.2 36 36.8 36 36.2V34.2H30V36.2C30 36.8 29.6 37.2 29 37.2C28.4 37.2 28 36.8 28 36.2V34.2H22V36.2C22 36.8 21.6 37.2 21 37.2C20.4 37.2 20 36.8 20 36.2V34.2H14V36.2C14 36.8 13.6 37.2 13 37.2C12.4 37.2 12 36.8 12 36.2V34.2H9C8.4 34.2 8 33.8 8 33.2C8 32.6 8.4 32.2 9 32.2Z"/>
    </g>
  </g>
</svg>
