<svg xmlns="http://www.w3.org/2000/svg" width="48" height="48" viewBox="0 0 48 48">
  <g class="neo-icon-kit--train-return-no-circle-white">
    <g fill="#fff" class="svg-primary-fill">
      <path fill-rule="evenodd" d="M37 28H11C10.2 28 9.4 27.8 8.8 27.2C8.4 26.6 8 25.8 8 25V23C8 21.6 8.8 19.8 10 19L19.2 12.6C21.2 11.2 24.6 10 27 10H39C39.6 10 40 10.2 40 10.8C40 11.4 39.6 11.8 39 11.8H29.8L28 19C27.8 19.4 27.4 19.8 27 19.8H12.2L11.2 20.6C10.6 21.2 10 22.2 10 23V25C10 25.4 10 25.6 10.2 25.8C10.4 26 10.6 26 11 26H37C37.6 26 38 26.4 38 27C38 27.6 37.6 28 37 28ZM27 12C25 12 22 13 20.2 14.2L15 18H26.2L27.8 12H27Z" clip-rule="evenodd"/>
      <path d="M9 32H41C41.6 32 42 32.4 42 33C42 33.6 41.6 34 41 34H38V36C38 36.6 37.6 37 37 37C36.4 37 36 36.6 36 36V34H30V36C30 36.6 29.6 37 29 37C28.4 37 28 36.6 28 36V34H22V36C22 36.6 21.6 37 21 37C20.4 37 20 36.6 20 36V34H14V36C14 36.6 13.6 37 13 37C12.4 37 12 36.6 12 36V34H9C8.4 34 8 33.6 8 33C8 32.4 8.4 32 9 32Z"/>
    </g>
  </g>
</svg>
