<svg xmlns="http://www.w3.org/2000/svg" width="48" height="48" viewBox="0 0 48 48">
  <g class="neo-icon-kit--trains-multi-filled" clip-path="url(#a)">
    <g fill="#006FCF" class="svg-primary-fill">
      <path fill-rule="evenodd" d="M1.50012 0C0.671694 0 0.000121355 0.671573 0.000121355 1.5L0.000176709 4.50005C0.000191994 5.32845 0.67175 6.00001 1.50016 6.00002L10.5002 6.00012C18.2 6.00012 24.8216 8.81458 30.0001 12.1893V6.65743C31.6585 7.4801 32.2177 7.84484 33.6671 8.84863C38.1816 11.9752 41.561 15.6517 43.4806 18H37.2992C39.5021 20.096 41.2119 22.0626 42.3702 23.501C43.6341 25.0704 44.3964 26.8616 44.7542 28.6776C46.715 27.3248 48.0001 25.0625 48.0001 22.5V22.2246C48 20.1609 47.3946 18.0732 46.0333 16.3828C44.052 13.9225 40.3814 9.85001 35.3751 6.38281C30.3684 2.91537 23.9467 0 16.5001 0H1.50012Z" clip-rule="evenodd"/>
      <path d="M29.9996 46.4998V44.9993H20.9996V46.4998C20.9994 47.328 20.3279 47.9998 19.4996 47.9998C18.6716 47.9995 17.9999 47.3278 17.9996 46.4998V44.9993H8.99963V46.4998C8.99937 47.328 8.3279 47.9998 7.49963 47.9998C6.67159 47.9995 5.9999 47.3278 5.99963 46.4998V44.9993H1.50012C0.671694 44.9993 0.000121355 44.3277 0.000121355 43.4993C0.000121838 42.6709 0.671695 41.9993 1.50012 41.9993H40.5006C41.3288 41.9996 42.0006 42.6711 42.0006 43.4993C42.0006 44.3276 41.3288 44.9991 40.5006 44.9993H32.9996V46.4998C32.9994 47.328 32.3279 47.9998 31.4996 47.9998C30.6716 47.9995 29.9999 47.3278 29.9996 46.4998Z"/>
      <path fill-rule="evenodd" d="M0 10.5C0 9.672.672 9 1.5 9H10.5C17.947 9 24.368 11.915 29.375 15.383 34.381 18.85 38.052 22.923 40.033 25.383 40.791 26.323 41.314 27.386 41.629 28.5 41.881 29.388 42 30.309 42 31.225V31.5C42 32.013 41.949 32.515 41.85 32.999 41.627 34.102 41.161 35.118 40.51 35.987 40.507 35.991 40.504 35.995 40.501 35.999 39.133 37.821 36.954 39 34.5 39H1.5C.672 39 0 38.328 0 37.5V28.5C0 27.672.672 27 1.5 27H12V26.5C12 24.015 9.985 21 7.5 21H1.5C.672 21 0 20.332 0 19.503 0 17.384 0 13.438 0 10.5ZM31.5 27C27.358 27 24 23.642 24 19.5V15.657C25.659 16.48 26.218 16.845 27.667 17.849 32.182 20.975 35.561 24.652 37.481 27H31.5ZM46.501 32.999C47.329 32.999 48.001 33.671 48.001 34.499 48.001 35.327 47.329 35.999 46.501 35.999H43.99C44.433 35.066 44.742 34.058 44.894 32.999H46.501Z" clip-rule="evenodd"/>
    </g>
  </g>
  <defs>
    <clipPath id="a" class="a">
      <path fill="#fff" d="M0 0H48V48H0z"/>
    </clipPath>
  </defs>
</svg>
