<svg xmlns="http://www.w3.org/2000/svg" width="48" height="48" viewBox="0 0 48 48">
  <g class="neo-icon-kit--transfer">
    <path fill="#006FCF" d="M11.462 26.4379C11.7343 26.1662 12.1006 26.0095 12.4852 26.0001C12.8697 25.9908 13.2432 26.1296 13.5284 26.3878C13.8135 26.6459 13.9886 27.0038 14.0174 27.3874C14.0461 27.7711 13.9264 28.1511 13.683 28.4489L13.58 28.5629L8.128 33.9999H39.001V27.4999C39.0012 27.1147 39.1496 26.7443 39.4154 26.4655C39.6812 26.1867 40.0441 26.0209 40.4289 26.0024C40.8137 25.9839 41.1908 26.1141 41.4822 26.3661C41.7736 26.6181 41.9568 26.9725 41.994 27.3559L42.001 27.4999V35.4999C42.001 35.8728 41.8621 36.2323 41.6114 36.5083C41.3607 36.7844 41.0162 36.9571 40.645 36.9929L40.501 36.9999H8.128L13.58 42.4379C13.7901 42.6475 13.9334 42.9148 13.9916 43.2058C14.0498 43.4969 14.0203 43.7986 13.9069 44.0729C13.7935 44.3472 13.6013 44.5817 13.3546 44.7467C13.1079 44.9117 12.8178 44.9999 12.521 44.9999C12.1768 45.0008 11.8428 44.8824 11.576 44.6649L11.462 44.5619L3.441 36.5619C3.15904 36.2804 3.00041 35.8984 3 35.4999C3.00005 35.1527 3.12057 34.8162 3.341 34.5479L3.441 34.4379L11.462 26.4379ZM34.417 3.44092C34.6791 3.17802 35.0294 3.02167 35.4001 3.00209C35.7708 2.98251 36.1357 3.1011 36.424 3.33492L36.538 3.43792L44.559 11.4379C44.823 11.7012 44.9794 12.0533 44.9979 12.4256C45.0164 12.7979 44.8956 13.1638 44.659 13.4519L44.559 13.5619L36.538 21.5619C36.3987 21.7013 36.2333 21.8119 36.0512 21.8872C35.8691 21.9625 35.6739 22.0011 35.4769 22.0008C35.2798 22.0006 35.0848 21.9614 34.9029 21.8855C34.721 21.8097 34.5559 21.6987 34.417 21.5589C34.155 21.296 33.9997 20.9453 33.9813 20.5746C33.9628 20.2039 34.0824 19.8395 34.317 19.5519L34.42 19.4379L39.872 13.9999H8.999V20.4999C8.99881 20.8851 8.85042 21.2555 8.58459 21.5343C8.31876 21.8131 7.95586 21.9789 7.57108 21.9974C7.18631 22.016 6.80917 21.8857 6.5178 21.6337C6.22643 21.3818 6.04317 21.0273 6.006 20.6439L5.999 20.4999V12.4999C5.99902 12.127 6.13792 11.7675 6.38862 11.4915C6.63932 11.2155 6.98384 11.0427 7.355 11.0069L7.499 10.9999H39.872L34.419 5.56192C34.1374 5.28102 33.9789 4.89979 33.9783 4.50204C33.9778 4.10429 34.1362 3.72261 34.417 3.44092Z" class="svg-primary-fill"/>
  </g>
</svg>
