<svg xmlns="http://www.w3.org/2000/svg" width="48" height="48" viewBox="0 0 48 48">
  <g class="neo-icon-kit--transfer-filled">
    <path fill="#006FCF" d="M12.5239 25.4988C12.9047 25.499 13.2775 25.6079 13.5986 25.8126C13.9196 26.0174 14.1755 26.3096 14.3362 26.6548C14.4969 27.0001 14.5557 27.384 14.5057 27.7615C14.4557 28.139 14.299 28.4943 14.0539 28.7858L9.33592 33.4998H38.4999V27.4998C38.4999 26.9478 38.7239 26.4478 39.0859 26.0858C39.2714 25.8998 39.4918 25.7523 39.7345 25.6517C39.9771 25.5512 40.2372 25.4995 40.4999 25.4998C41.0017 25.4989 41.4854 25.687 41.8548 26.0267C42.2241 26.3664 42.4519 26.8327 42.4929 27.3328L42.4999 35.4998C42.5008 36.0016 42.3127 36.4853 41.973 36.8547C41.6334 37.224 41.167 37.4518 40.6669 37.4928L9.33692 37.4998L13.9329 42.0828C14.3229 42.4728 14.5199 42.9848 14.5199 43.4968C14.5208 43.7599 14.4698 44.0205 14.3696 44.2637C14.2695 44.507 14.1222 44.728 13.9364 44.9141C13.7505 45.1003 13.5297 45.2479 13.2866 45.3484C13.0435 45.4489 12.783 45.5003 12.5199 45.4998C12.0649 45.4998 11.6089 45.3448 11.2389 45.0358L3.08592 36.9158C2.73113 36.5613 2.52234 36.0865 2.50086 35.5854C2.47938 35.0843 2.64677 34.5934 2.96992 34.2098L11.1079 26.0838C11.2935 25.8977 11.514 25.7502 11.7569 25.6498C11.9998 25.5494 12.2601 25.4981 12.5229 25.4988H12.5239ZM35.3729 2.50282C35.8629 2.47682 36.3609 2.63082 36.7599 2.96482L44.9119 11.0848C45.267 11.4389 45.4761 11.9135 45.4977 12.4145C45.5194 12.9155 45.3521 13.4064 45.0289 13.7898L36.8909 21.9158C36.7056 22.1014 36.4855 22.2485 36.2432 22.3487C36.0009 22.449 35.7411 22.5003 35.4789 22.4998C35.2158 22.5003 34.9552 22.4487 34.7122 22.348C34.4692 22.2472 34.2485 22.0993 34.0629 21.9128C33.7089 21.5595 33.5005 21.0861 33.479 20.5864C33.4575 20.0867 33.6245 19.5972 33.9469 19.2148L38.6639 14.4998H9.49992V20.4998C9.49992 21.0528 9.27592 21.5528 8.91392 21.9148C8.72836 22.1006 8.50792 22.248 8.26527 22.3484C8.02261 22.4487 7.76252 22.5002 7.49992 22.4998C6.99813 22.5007 6.5144 22.3126 6.14507 21.9729C5.77574 21.6333 5.5479 21.1669 5.50692 20.6668L5.49792 12.4998C5.497 11.998 5.68511 11.5143 6.02479 11.145C6.36447 10.7756 6.8308 10.5478 7.33092 10.5068L38.6609 10.5008L34.0659 5.91682C33.8795 5.73154 33.7316 5.51122 33.6307 5.26855C33.5298 5.02587 33.4779 4.76564 33.4779 4.50282C33.476 3.98989 33.6717 3.49592 34.0244 3.12349C34.3771 2.75106 34.8606 2.52878 35.3729 2.50282Z" class="svg-primary-fill"/>
  </g>
</svg>
