<svg xmlns="http://www.w3.org/2000/svg" width="48" height="48" viewBox="0 0 48 48">
  <g class="neo-icon-kit--trash-filled">
    <path fill="#006FCF" fill-rule="evenodd" d="M32.522 2.34921C32.217 0.976596 30.9996 0 29.5935 0H18.4065C17.0004 0 15.783 0.976596 15.478 2.34921L14.8113 5.34921C14.7638 5.56288 14.7398 5.78111 14.7398 6H9C7.34315 6 6 7.34315 6 9V12C6 13.6569 7.34315 15 9 15H9.114L10.8384 45.1712C10.9291 46.7589 12.2431 48 13.8335 48H34.1665C35.7569 48 37.0709 46.7589 37.1616 45.1712L38.886 15H39C40.6569 15 42 13.6569 42 12V9C42 7.34315 40.6569 6 39 6L33.2608 6.00082C33.2607 5.78591 33.2373 5.56769 33.1887 5.34921L32.522 2.34921ZM16 19.3333C16 18.597 16.6716 18 17.5 18C18.3284 18 19 18.597 19 19.3333V40.6667C19 41.403 18.3284 42 17.5 42C16.6716 42 16 41.403 16 40.6667V19.3333ZM24 18C23.1716 18 22.5 18.597 22.5 19.3333V40.6667C22.5 41.403 23.1716 42 24 42C24.8284 42 25.5 41.403 25.5 40.6667V19.3333C25.5 18.597 24.8284 18 24 18ZM29 19.3333C29 18.597 29.6716 18 30.5 18C31.3284 18 32 18.597 32 19.3333V40.6667C32 41.403 31.3284 42 30.5 42C29.6716 42 29 41.403 29 40.6667V19.3333ZM39 9H9V12H39V9ZM18.4065 3H29.5935L30.2602 6H17.7398L18.4065 3Z" class="svg-primary-fill" clip-rule="evenodd"/>
  </g>
</svg>
