<svg xmlns="http://www.w3.org/2000/svg" width="48" height="48" viewBox="0 0 48 48">
  <g class="neo-icon-kit--travel-bag-filled">
    <path fill="#006FCF" fill-rule="evenodd" d="M33.9949 6.99994C34 5.5 32.5 4 31 4L16.8244 4.00512C15 4 14 5.40894 14 6.99994V9.99987L12 10V40.998L12.014 40.999L12.0147 41.2124C12.0378 41.5679 12.1213 41.9246 12.2811 42.2672C12.6312 43.0179 13.2525 43.5558 13.9739 43.8183C14.6954 44.081 15.517 44.0683 16.2679 43.7182C17.3585 43.2096 17.991 42.1281 17.9921 40.9992H30.0072L30.014 41.2124C30.0371 41.5679 30.1206 41.9246 30.2803 42.2672C30.6305 43.0179 31.2518 43.5558 31.9732 43.8183C32.6947 44.081 33.5163 44.0683 34.2671 43.7182C35.3577 43.2096 35.9903 42.1281 35.9913 40.9992L36 40.999V9.999L34 9.99987L33.9949 6.99994ZM9 40.999V10.002L5.82441 10.005C4.25527 10.0967 3 11.4088 3 12.9998L3.00512 38.1749C3.09681 39.744 4.40891 40.9992 6 40.9992L9 40.999ZM39 9.999L42 9.99987C43.5911 9.99987 44.9032 11.2552 44.9949 12.8242L45 37.9993C45 39.5904 43.7447 40.9024 42.1756 40.9941L39 40.997V9.999ZM17 7H31V10H17V7Z" class="svg-primary-fill" clip-rule="evenodd"/>
  </g>
</svg>
