<svg xmlns="http://www.w3.org/2000/svg" width="48" height="48" viewBox="0 0 48 48">
  <g class="neo-icon-kit--travel-bag">
    <path fill="#006FCF" fill-rule="evenodd" d="M31 4C32.5 4 34 5.5 33.9949 6.99994L34 9.99987H42C43.5911 9.99987 44.9032 11.2552 44.9949 12.8242L45 37.9993C45 39.5904 43.7447 40.9024 42.1756 40.9941L35.9913 40.9992C35.9903 42.1281 35.3577 43.2096 34.2671 43.7182C33.5163 44.0683 32.6947 44.081 31.9732 43.8183C31.2518 43.5558 30.6305 43.0179 30.2803 42.2672C30.1206 41.9246 30.0371 41.5679 30.014 41.2124L30.0072 40.9992H17.9921C17.991 42.1281 17.3585 43.2096 16.2679 43.7182C15.517 44.0683 14.6954 44.081 13.9739 43.8183C13.2525 43.5558 12.6312 43.0179 12.2811 42.2672C12.1213 41.9246 12.0378 41.5679 12.0147 41.2124L12.014 40.999L6 40.9992C4.40891 40.9992 3.09681 39.744 3.00512 38.1749L3 12.9998C3 11.4088 4.25527 10.0967 5.82441 10.005L14 9.99987V6.99994C14 5.40894 15 4 16.8244 4.00512L31 4ZM42 13H39V37.999L42 38V13ZM36 13H12V37.999H36V13ZM9 13H6V38L9 37.999V13ZM17 7H31V10H17V7Z" class="svg-primary-fill" clip-rule="evenodd"/>
  </g>
</svg>
