<svg xmlns="http://www.w3.org/2000/svg" width="48" height="48" viewBox="0 0 48 48">
  <g class="neo-icon-kit--trip-summary-filled">
    <g fill="#006FCF" class="svg-primary-fill">
      <path fill-rule="evenodd" d="M36 3C33.409 3 31.134 3.87 29.502 5.502 27.87 7.134 27 9.409 27 12 27 13.19 27.386 14.51 27.892 15.765 28.409 17.049 29.108 18.398 29.85 19.683 31.334 22.254 33.054 24.68 34.024 25.997 35.009 27.336 36.991 27.336 37.976 25.997 38.947 24.68 40.666 22.254 42.151 19.683 42.892 18.398 43.591 17.049 44.108 15.765 44.614 14.51 45 13.19 45 12 45 9.409 44.13 7.134 42.498 5.502 40.867 3.87 38.591 3 36 3ZM39 12C39 13.657 37.657 15 36 15 34.343 15 33 13.657 33 12 33 10.343 34.343 9 36 9 37.657 9 39 10.343 39 12ZM15 12C8.172 12 3 17.172 3 24 3 25.837 3.532 27.824 4.292 29.75 5.058 31.694 6.095 33.67 7.19 35.51 9.379 39.192 11.865 42.441 13.082 43.969 14.069 45.208 15.931 45.208 16.918 43.969 18.135 42.441 20.621 39.192 22.81 35.51 23.905 33.669 24.942 31.694 25.708 29.75 26.468 27.824 27 25.837 27 24 27 17.172 21.828 12 15 12ZM21 24C21 27.314 18.314 30 15 30 11.686 30 9 27.314 9 24 9 20.686 11.686 18 15 18 18.314 18 21 20.686 21 24Z" clip-rule="evenodd"/>
      <path d="M33 34.5C33 33.6716 33.6716 33 34.5 33H37.5C38.3284 33 39 32.3284 39 31.5C39 30.6716 38.3284 30 37.5 30H34.5C32.0147 30 30 32.0147 30 34.5V40.5C30 41.3284 29.3284 42 28.5 42H22.5C21.6716 42 21 42.6716 21 43.5C21 44.3284 21.6716 45 22.5 45H28.5C30.9853 45 33 42.9853 33 40.5V34.5Z"/>
    </g>
  </g>
</svg>
