<svg xmlns="http://www.w3.org/2000/svg" width="48" height="48" viewBox="0 0 48 48">
  <g class="neo-icon-kit--trip-bright-blue-300">
    <g fill="#006FCF" class="svg-primary-fill">
      <path d="M28.5402 6.048V7.268H30.2002V4.85C30.2002 4.386 29.8262 4 29.3722 4H18.8202C18.3586 4.00876 17.9906 4.38837 17.9962 4.85V7.268H19.6562V6.048C19.6529 5.96032 19.685 5.875 19.7451 5.81111C19.8052 5.74722 19.8884 5.71008 19.9762 5.708H28.2162C28.3046 5.70902 28.3888 5.74569 28.4498 5.8097C28.5108 5.87371 28.5434 5.95964 28.5402 6.048Z"/>
      <path fill-rule="evenodd" d="M29.95 11.412H33.844V11.414C35.59 11.414 37 12.856 37 14.628V38.272C37 40.018 35.618 41.448 33.918 41.492H32.048V43.07C32.048 43.586 31.646 44 31.148 44H30.184C29.692 44 29.284 43.586 29.284 43.07V41.492H18.45V43.07C18.45 43.586 18.046 44 17.546 44H16.586C16.3413 43.9984 16.1073 43.8994 15.9358 43.7249C15.7643 43.5504 15.6693 43.3147 15.672 43.07V41.492H13.766V41.452C12.218 41.248 11 39.902 11 38.268V14.632C11 12.856 12.416 11.412 14.156 11.412H18.36V9.05996H19.52V11.412H28.786V8.85596H29.95V11.412ZM20.556 21.51C20.556 22.332 22.046 23 23.88 23C25.71 23 27.206 22.332 27.2 21.51C27.2 20.686 25.71 20.02 23.88 20.02C22.046 20.02 20.556 20.686 20.556 21.51ZM33.506 36.9781H32.326V18.1781C32.326 17.5581 31.836 17.0541 31.258 17.0541H16.74C16.162 17.0541 15.684 17.5541 15.684 18.1781V36.9781H14.494V18.1781C14.494 16.9021 15.504 15.8621 16.74 15.8621H31.256C32.492 15.8621 33.506 16.9021 33.506 18.1781V36.9781Z" clip-rule="evenodd"/>
    </g>
  </g>
</svg>
