<svg xmlns="http://www.w3.org/2000/svg" width="48" height="48" viewBox="0 0 48 48">
  <g class="neo-icon-kit--trip-summary">
    <g fill="#006FCF" fill-rule="evenodd" class="svg-primary-fill" clip-rule="evenodd">
      <path d="M3 24C3 17.172 8.172 12 15 12 21.828 12 27 17.172 27 24 27 25.837 26.468 27.824 25.708 29.75 24.942 31.694 23.905 33.669 22.81 35.51 20.621 39.192 18.135 42.441 16.918 43.969 15.931 45.208 14.069 45.208 13.082 43.969 11.865 42.441 9.379 39.192 7.19 35.51 6.095 33.67 5.058 31.694 4.292 29.75 3.532 27.824 3 25.837 3 24ZM15 15C9.828 15 6 18.828 6 24 6 25.303 6.388 26.889 7.083 28.65 7.771 30.394 8.724 32.22 9.768 33.977 11.629 37.107 13.73 39.931 15 41.557 16.27 39.931 18.371 37.107 20.232 33.977 21.276 32.22 22.229 30.394 22.917 28.65 23.612 26.889 24 25.303 24 24 24 18.828 20.172 15 15 15ZM29.502 5.502C31.134 3.87 33.409 3 36 3 38.591 3 40.867 3.87 42.498 5.502 44.13 7.134 45 9.409 45 12 45 13.19 44.614 14.51 44.108 15.765 43.591 17.049 42.892 18.398 42.151 19.683 40.666 22.254 38.947 24.68 37.976 25.997 36.991 27.336 35.009 27.336 34.024 25.997 33.054 24.68 31.334 22.254 29.85 19.683 29.108 18.398 28.409 17.049 27.892 15.765 27.386 14.51 27 13.19 27 12 27 9.409 27.87 7.134 29.502 5.502ZM31.623 7.623C30.63 8.616 30 10.091 30 12 30 12.614 30.217 13.509 30.674 14.644 31.12 15.751 31.746 16.966 32.448 18.183 33.653 20.271 35.036 22.279 36 23.616 36.964 22.279 38.347 20.271 39.552 18.183 40.254 16.966 40.88 15.751 41.326 14.644 41.783 13.509 42 12.614 42 12 42 10.091 41.37 8.616 40.377 7.623 39.384 6.63 37.909 6 36 6 34.091 6 32.617 6.63 31.623 7.623Z"/>
      <path d="M15 27C16.657 27 18 25.657 18 24 18 22.343 16.657 21 15 21 13.343 21 12 22.343 12 24 12 25.657 13.343 27 15 27ZM15 30C18.314 30 21 27.314 21 24 21 20.686 18.314 18 15 18 11.686 18 9 20.686 9 24 9 27.314 11.686 30 15 30ZM36 15C37.657 15 39 13.657 39 12 39 10.343 37.657 9 36 9 34.343 9 33 10.343 33 12 33 13.657 34.343 15 36 15ZM34.5 33C33.672 33 33 33.672 33 34.5V40.5C33 42.985 30.985 45 28.5 45H22.5C21.672 45 21 44.328 21 43.5 21 42.672 21.672 42 22.5 42H28.5C29.328 42 30 41.328 30 40.5V34.5C30 32.015 32.015 30 34.5 30H37.5C38.328 30 39 30.672 39 31.5 39 32.328 38.328 33 37.5 33H34.5Z"/>
    </g>
  </g>
</svg>
