<svg xmlns="http://www.w3.org/2000/svg" width="48" height="48" viewBox="0 0 48 48">
  <g class="neo-icon-kit--undefined">
    <g fill="#006FCF" class="svg-primary-fill">
      <path fill-rule="evenodd"
        d="M24 6a9 9 0 0 0-8.837 10.716 8.97 8.97 0 0 0 .512 1.712 1.5 1.5 0 0 1-2.773 1.144 11.906 11.906 0 0 1-.848-3.431A12.135 12.135 0 0 1 12 15c0-6.627 5.373-12 12-12s12 5.373 12 12c0 5.97-4.359 10.92-10.068 11.845-.783.127-1.251.466-1.428.815-.294.577-.397.906-.446 1.168C24.005 29.115 24 29.4 24 30v1.5a1.5 1.5 0 0 1-3 0v-1.56c0-.526 0-1.075.109-1.66.117-.635.347-1.243.72-1.978.776-1.53 2.325-2.208 3.623-2.418A9 9 0 0 0 24 6Z"
        clip-rule="evenodd" />
      <path d="M21 40.5a1.5 1.5 0 0 1 3 0v3a1.5 1.5 0 0 1-3 0v-3Z" />
    </g>
  </g>
</svg>