<svg xmlns="http://www.w3.org/2000/svg" width="48" height="48" viewBox="0 0 48 48">
  <g class="neo-icon-kit--undefined-filled">
    <path fill="#006FCF"
      d="M11.538 18.713A13.038 13.038 0 0 1 11 15c0-7.18 5.82-13 13-13s13 5.82 13 13c0 6.469-4.723 11.83-10.908 12.832-.512.083-.671.255-.695.281-.004.005-.005.005-.002-.001-.266.526-.328.761-.354.899-.033.18-.041.367-.041.989v1.5a2.5 2.5 0 1 1-5 0v-1.56l.125-1.844c.141-.758.412-1.459.812-2.247.977-1.926 2.889-2.715 4.355-2.952a8 8 0 1 0-8.692-4.85 2.5 2.5 0 0 1-4.623 1.906 13.102 13.102 0 0 1-.439-1.24ZM25 40.5v3a2.5 2.5 0 1 1-5 0v-3a2.5 2.5 0 1 1 5 0Z"
      class="svg-primary-fill" />
  </g>
</svg>