<svg xmlns="http://www.w3.org/2000/svg" width="48" height="48" viewBox="0 0 48 48">
  <g class="neo-icon-kit--unlock-filled">
    <path fill="#006FCF" fill-rule="evenodd" d="M32.9962 9.73731C32.8555 4.89569 28.8743 1 24 1C19.3593 1 15.5491 4.53729 15.072 9.0542C15.0295 9.19312 15 9.33759 15 9.49042C15 10.3191 15.6716 10.9908 16.5 10.9908C17.3284 10.9908 18 10.3191 18 9.49042H18.0259L18.0498 9.2614C18.4161 6.30077 20.9425 4.00079 24 4.00079C27.3086 4.00079 30 6.69287 30 10.0023V16.9807L9 16.9924L8.82441 16.9975C7.25533 17.0892 6 18.4013 6 19.9924V44L6.00512 44.1756C6.09681 45.7447 7.40896 47 9 47H39L39.1756 46.9949C40.7447 46.9032 42 45.591 42 44V19.9924L41.9949 19.8168C41.9032 18.2476 40.5911 16.9924 39 16.9924H33V10.0023L32.9962 9.73731ZM21 29.0001C21 27.3432 22.3431 26 24 26C25.6569 26 27 27.3432 27 29.0001C27 30.0385 26.4665 30.9441 25.664 31.4815L25.5 31.584V36.5004L25.4931 36.6448C25.4205 37.4054 24.7799 38 24 38C23.2201 38 22.5795 37.4054 22.5069 36.6448L22.5 36.5004V31.584L22.336 31.4815C21.5335 30.9441 21 30.0385 21 29.0001Z" class="svg-primary-fill" clip-rule="evenodd"/>
  </g>
</svg>
