<svg xmlns="http://www.w3.org/2000/svg" width="48" height="48" viewBox="0 0 48 48">
  <g class="neo-icon-kit--unlock">
    <path fill="#006FCF" fill-rule="evenodd" d="M24 1C28.8743 1 32.8555 4.89569 32.9962 9.73731L33 10.0023V16.9924H39C40.5911 16.9924 41.9032 18.2476 41.9949 19.8168L42 19.9924V44C42 45.591 40.7447 46.9032 39.1756 46.9949L39 47H9C7.40896 47 6.09681 45.7447 6.00512 44.1756L6 44V19.9924C6 18.4013 7.25533 17.0892 8.82441 16.9975L9 16.9924L30 16.9807V10.0023C30 6.69287 27.3086 4.00079 24 4.00079C20.9425 4.00079 18.4161 6.30077 18.0498 9.2614L18.0259 9.49042H18C18 10.3191 17.3284 10.9908 16.5 10.9908C15.6716 10.9908 15 10.3191 15 9.49042C15 9.33759 15.0295 9.19312 15.072 9.0542C15.5491 4.53729 19.3593 1 24 1ZM9 20V44H39V20H9ZM27 29.0001C27 27.3432 25.6569 26 24 26C22.3431 26 21 27.3432 21 29.0001C21 30.1077 21.6071 31.0643 22.5 31.584V36.5004L22.5069 36.6448C22.5795 37.4054 23.2201 38 24 38C24.8286 38 25.5 37.3288 25.5 36.5004V31.584L25.664 31.4815C26.4665 30.9441 27 30.0385 27 29.0001Z" class="svg-primary-fill" clip-rule="evenodd"/>
  </g>
</svg>
