<svg xmlns="http://www.w3.org/2000/svg" width="48" height="48" viewBox="0 0 48 48">
  <g class="neo-icon-kit--unused-ticket-s">
    <path fill="#444B61" fill-rule="evenodd" d="M24 45.3334C18.3421 45.3334 12.9159 43.0858 8.91508 39.085C4.9143 35.0842 2.66669 29.658 2.66669 24.0001C2.66669 18.3421 4.9143 12.9159 8.91508 8.91514C12.9159 4.91436 18.3421 2.66675 24 2.66675C29.658 2.66675 35.0842 4.91436 39.085 8.91514C43.0857 12.9159 45.3334 18.3421 45.3334 24.0001C45.3334 29.658 43.0857 35.0842 39.085 39.085C35.0842 43.0858 29.658 45.3334 24 45.3334ZM36.6267 24.8294L25.832 14.0347C25.609 13.8117 25.3441 13.635 25.0526 13.5146C24.7611 13.3943 24.4487 13.3327 24.1334 13.3334H15.7334C15.4182 13.3334 15.1061 13.3955 14.8149 13.5161C14.5237 13.6367 14.2592 13.8135 14.0363 14.0364C13.8134 14.2592 13.6367 14.5238 13.516 14.815C13.3954 15.1062 13.3334 15.4182 13.3334 15.7334V24.1334C13.3334 24.8001 13.6027 25.4001 14.0427 25.8321L24.8427 36.6321C25.0647 36.8551 25.3286 37.0321 25.6192 37.1528C25.9098 37.2736 26.2213 37.3357 26.536 37.3357C26.8507 37.3357 27.1623 37.2736 27.4529 37.1528C27.7435 37.0321 28.0073 36.8551 28.2294 36.6321L36.6294 28.2321C37.0774 27.7789 37.3283 27.167 37.3273 26.5296C37.3263 25.8923 37.0735 25.2812 36.624 24.8294H36.6267ZM17.5334 19.3334C17.056 19.3334 16.5981 19.1438 16.2606 18.8062C15.923 18.4686 15.7334 18.0108 15.7334 17.5334C15.7334 17.056 15.923 16.5982 16.2606 16.2606C16.5981 15.9231 17.056 15.7334 17.5334 15.7334C18.0107 15.7334 18.4686 15.9231 18.8061 16.2606C19.1437 16.5982 19.3334 17.056 19.3334 17.5334C19.3334 18.0108 19.1437 18.4686 18.8061 18.8062C18.4686 19.1438 18.0107 19.3334 17.5334 19.3334Z" class="svg-primary-fill" clip-rule="evenodd"/>
  </g>
</svg>
