<svg xmlns="http://www.w3.org/2000/svg" width="48" height="48" viewBox="0 0 48 48">
  <g class="neo-icon-kit--upload">
    <path fill="#006FCF" fill-rule="evenodd" d="M42 6H6L5.82398 6.0051C4.2513 6.09652 3 7.40478 3 9V16.5L3.00687 16.6445C3.07955 17.4051 3.7203 18 4.5 18C5.32843 18 6 17.3284 6.00232 16.5L6.00391 9H42V16.5L42.0069 16.6445C42.0796 17.4051 42.7203 18 43.5 18C44.3284 18 45 17.3284 45 16.5V9L44.9949 8.82398C44.9035 7.2513 43.5952 6 42 6ZM22.9395 15.4365L11.9395 26.4365L11.8365 26.5505C11.3558 27.1397 11.3901 28.0083 11.9395 28.5576C12.2324 28.8506 12.6162 28.9971 13 28.9971C13.3838 28.9971 13.7676 28.8506 14.0606 28.5576L22.5 20.1182V40.5L22.5069 40.6444C22.5796 41.4048 23.2206 42 24 42C24.8281 42 25.5 41.3281 25.5 40.5V20.1182L33.9394 28.5576L34.0534 28.6606C34.3284 28.8849 34.6642 28.9971 35 28.9971C35.3838 28.9971 35.7676 28.8506 36.0606 28.5576C36.6465 27.9717 36.6465 27.0224 36.0606 26.4365L25.0606 15.4365L24.9466 15.3335C24.3574 14.8529 23.4888 14.8872 22.9395 15.4365Z" class="svg-primary-fill" clip-rule="evenodd"/>
  </g>
</svg>
