<svg xmlns="http://www.w3.org/2000/svg" width="48" height="48" viewBox="0 0 48 48">
  <g class="neo-icon-kit--upload-filled">
    <path fill="#006FCF" fill-rule="evenodd" d="M42 5H6L5.80062 5.0049C3.68687 5.10913 2 6.86127 2 9V16.5L2.00533 16.6641C2.0901 17.9664 3.17625 19 4.5 19C5.87891 19 7 17.8784 7 16.5063L7.00391 10H41V16.5L41.0053 16.6641C41.0901 17.9664 42.1762 19 43.5 19C44.8789 19 46 17.8784 46 16.5V9L45.9951 8.80066C45.8909 6.68732 44.1392 5 42 5ZM22.2324 14.7295L11.2324 25.7295L11.1106 25.8602C10.2577 26.8425 10.2983 28.3305 11.2324 29.2646C11.7207 29.7529 12.3603 29.9971 13 29.9971C13.6397 29.9971 14.2793 29.7529 14.7676 29.2646L21.5 22.5322V40.5L21.5053 40.6644C21.59 41.9686 22.6744 43 24 43C25.3809 43 26.5 41.8809 26.5 40.5V22.5322L33.2324 29.2646L33.3833 29.4038C33.8486 29.7993 34.4243 29.9971 35 29.9971C35.6396 29.9971 36.2793 29.7529 36.7676 29.2646C37.7441 28.2881 37.7441 26.7061 36.7676 25.7295L25.7676 14.7295L25.6369 14.6077C24.6546 13.7548 23.1665 13.7954 22.2324 14.7295Z" class="svg-primary-fill" clip-rule="evenodd"/>
  </g>
</svg>
