<svg xmlns="http://www.w3.org/2000/svg" width="48" height="48" viewBox="0 0 48 48">
  <g class="neo-icon-kit--voucher">
    <path fill="#006FCF" fill-rule="evenodd" d="M26.7675 1.85976C27.9139 0.713413 29.7725 0.713413 30.9188 1.85976L36.4539 7.39482C35.3075 8.54117 35.3075 10.3998 36.4539 11.5461C37.6002 12.6925 39.4588 12.6925 40.6052 11.5461L46.1402 17.0812C47.2866 18.2275 47.2866 20.0861 46.1402 21.2325L21.2325 46.1402C20.0861 47.2866 18.2275 47.2866 17.0812 46.1402L11.5461 40.6052C12.6925 39.4588 12.6925 37.6002 11.5461 36.4539C10.3998 35.3075 8.54117 35.3075 7.39482 36.4539L1.85976 30.9188C0.713413 29.7725 0.713413 27.9139 1.85976 26.7675L26.7675 1.85976ZM8.13793 24.6897L4 28.8276L8.00186 32.8294C9.95415 32.3081 12.1236 32.8132 13.6552 34.3448C15.1868 35.8764 15.6919 38.0458 15.1706 39.9981L19.1724 44L23.3103 39.8621L20.8966 37.4483C20.3252 36.8769 20.3252 35.9506 20.8966 35.3793C21.4679 34.808 22.3942 34.808 22.9655 35.3793L25.3793 37.7931L44 19.1724L39.9981 15.1706C38.0458 15.6919 35.8764 15.1868 34.3448 13.6552C32.8132 12.1236 32.3081 9.95415 32.8294 8.00186L28.8276 4L10.2069 22.6207L12.6207 25.0345C13.192 25.6058 13.192 26.5321 12.6207 27.1034C12.0494 27.6748 11.1231 27.6748 10.5517 27.1034L8.13793 24.6897ZM16.5754 29.3033C15.9896 28.7175 15.0398 28.7175 14.4541 29.3033C13.8683 29.8891 13.8683 30.8388 14.4541 31.4246L16.5754 33.5459C17.1612 34.1317 18.1109 34.1317 18.6967 33.5459C19.2825 32.9602 19.2825 32.0104 18.6967 31.4246L16.5754 29.3033Z" class="svg-primary-fill" clip-rule="evenodd"/>
  </g>
</svg>
