<svg xmlns="http://www.w3.org/2000/svg" width="48" height="48" viewBox="0 0 48 48">
  <g class="neo-icon-kit--voucher-filled">
    <path fill="#006FCF" fill-rule="evenodd" d="M36.4539 7.39482L30.9188 1.85976C29.7725 0.713413 27.9139 0.713413 26.7675 1.85976L1.85976 26.7675C0.713413 27.9139 0.713413 29.7725 1.85976 30.9188L7.39482 36.4539C8.54117 35.3075 10.3998 35.3075 11.5461 36.4539C12.6925 37.6002 12.6925 39.4588 11.5461 40.6052L17.0812 46.1402C18.2275 47.2866 20.0861 47.2866 21.2325 46.1402L46.1402 21.2325C47.2866 20.0861 47.2866 18.2275 46.1402 17.0812L40.6052 11.5461C39.4588 12.6925 37.6002 12.6925 36.4539 11.5461C35.3075 10.3998 35.3075 8.54117 36.4539 7.39482ZM22.9655 35.3793L25.3793 37.7931L23.3103 39.8621L20.8966 37.4483L20.7961 37.3372C20.3275 36.7625 20.3609 35.9149 20.8966 35.3793C21.4679 34.808 22.3942 34.808 22.9655 35.3793ZM14.4541 29.3033C13.9049 29.8525 13.8706 30.7215 14.3511 31.3107L14.4541 31.4246L16.5754 33.5459C17.1612 34.1317 18.1109 34.1317 18.6967 33.5459C19.2459 32.9968 19.2802 32.1277 18.7997 31.5385L18.6967 31.4246L16.5754 29.3033C15.9896 28.7175 15.0398 28.7175 14.4541 29.3033ZM8.13793 24.6897L10.2069 22.6207L12.6207 25.0345L12.7211 25.1456C13.1898 25.7202 13.1563 26.5678 12.6207 27.1034C12.0494 27.6748 11.1231 27.6748 10.5517 27.1034L8.13793 24.6897Z" class="svg-primary-fill" clip-rule="evenodd"/>
  </g>
</svg>
