<svg xmlns="http://www.w3.org/2000/svg" width="32" height="32" viewBox="0 0 32 32">
  <g class="neo-icon-kit--wait-orange-circle">
    <path fill="#F85D22" d="M16 32C24.8366 32 32 24.8366 32 16C32 7.16344 24.8366 0 16 0C7.16344 0 0 7.16344 0 16C0 24.8366 7.16344 32 16 32Z" class="svg-secondary-fill"/>
    <path fill="#fff" fill-rule="evenodd" d="M9.31904 19.857C11.4498 23.5461 16.1671 24.8103 19.857 22.681C23.5461 20.5503 24.8103 15.833 22.681 12.143C20.5503 8.45397 15.833 7.18981 12.143 9.31904C8.45397 11.4498 7.18981 16.1671 9.31904 19.857ZM11.268 18.7321C9.76272 16.1182 10.6574 12.7791 13.268 11.2681C15.8819 9.76274 19.221 10.6575 20.732 13.2681C22.2373 15.8819 21.3426 19.221 18.732 20.7321C16.1182 22.2374 12.779 21.3426 11.268 18.7321ZM15.369 17.478L13.119 13.58C13.0752 13.5066 13.0628 13.4195 13.0849 13.3368C13.1069 13.2542 13.1614 13.1839 13.236 13.142L13.793 12.82C13.8666 12.7762 13.9548 12.7641 14.0375 12.7863C14.1202 12.8085 14.1903 12.8633 14.232 12.938L16 16L17.948 14.875C18.0217 14.8309 18.1101 14.8186 18.193 14.8408C18.276 14.863 18.3463 14.918 18.388 14.993L18.709 15.549C18.7528 15.6226 18.765 15.7108 18.7428 15.7935C18.7205 15.8762 18.6658 15.9463 18.591 15.988L15.808 17.596C15.651 17.686 15.459 17.635 15.369 17.478Z" class="svg-primary-fill" clip-rule="evenodd"/>
  </g>
</svg>
