<svg xmlns="http://www.w3.org/2000/svg" width="48" height="48" viewBox="0 0 48 48">
  <g class="neo-icon-kit--warning">
    <path fill="#006FCF" d="M19.918 4.54308C21.071 2.24808 23.833 1.33908 26.088 2.51308C26.8689 2.92144 27.5167 3.54461 27.955 4.30908L28.081 4.54308L47.496 39.2061C48.649 41.5011 47.756 44.3141 45.503 45.4881C44.9398 45.7818 44.321 45.9535 43.687 45.9921L43.415 46.0001H4.584C2.052 46.0001 1.1108e-09 43.9001 1.1108e-09 41.3321C-1.39653e-05 40.6869 0.131675 40.0486 0.387 39.4561L0.504 39.2061L19.918 4.54308ZM24.698 5.17308C23.988 4.80308 23.128 5.05108 22.708 5.72308L3.168 40.7231C3.058 40.9431 3 41.1881 3 41.4361C3 42.2521 3.612 42.9231 4.393 42.9961L4.533 43.0021H43.467C43.71 43.0021 43.949 42.9421 44.165 42.8301C44.5062 42.6478 44.7687 42.3466 44.9027 41.9837C45.0367 41.6208 45.0329 41.2214 44.892 40.8611L44.832 40.7241L25.365 5.85408C25.22 5.5628 24.987 5.32455 24.699 5.17308H24.698ZM24 34.0001C24.5304 34.0001 25.0391 34.2108 25.4142 34.5859C25.7893 34.9609 26 35.4696 26 36.0001C26 36.5305 25.7893 37.0392 25.4142 37.4143C25.0391 37.7894 24.5304 38.0001 24 38.0001C23.4696 38.0001 22.9609 37.7894 22.5858 37.4143C22.2107 37.0392 22 36.5305 22 36.0001C22 35.4696 22.2107 34.9609 22.5858 34.5859C22.9609 34.2108 23.4696 34.0001 24 34.0001V34.0001ZM23.952 17.0001L24.157 17.0051C25.137 17.0791 25.919 17.8381 25.995 18.7911L26.001 18.9431L25.584 29.5201C25.55 30.3461 24.85 31.0001 24 31.0001C23.15 31.0001 22.45 30.3461 22.417 29.5201L22.001 19.0181C21.961 17.9981 22.739 17.1281 23.767 17.0131L23.951 17.0001H23.952Z" class="svg-primary-fill"/>
  </g>
</svg>
