<svg xmlns="http://www.w3.org/2000/svg" width="48" height="48" viewBox="0 0 48 48">
  <g class="neo-icon-kit--warning-filled">
    <path fill="#006FCF" d="M19.918 4.54308C21.071 2.24808 23.833 1.33908 26.088 2.51308C26.8689 2.92144 27.5167 3.54461 27.955 4.30908L28.081 4.54308L47.496 39.2061C48.649 41.5011 47.756 44.3141 45.503 45.4881C44.9398 45.7818 44.321 45.9535 43.687 45.9921L43.415 46.0001H4.584C2.052 46.0001 1.1108e-09 43.9001 1.1108e-09 41.3321C-1.39653e-05 40.6869 0.131675 40.0486 0.387 39.4561L0.504 39.2061L19.918 4.54308ZM24 34.0001C23.4696 34.0001 22.9609 34.2108 22.5858 34.5859C22.2107 34.9609 22 35.4696 22 36.0001C22 36.5305 22.2107 37.0392 22.5858 37.4143C22.9609 37.7894 23.4696 38.0001 24 38.0001C24.5304 38.0001 25.0391 37.7894 25.4142 37.4143C25.7893 37.0392 26 36.5305 26 36.0001C26 35.4696 25.7893 34.9609 25.4142 34.5859C25.0391 34.2108 24.5304 34.0001 24 34.0001ZM23.952 17.0001L23.768 17.0131C22.792 17.1131 22.04 17.9131 22.002 18.8661V19.0181L22.418 29.5201C22.45 30.3461 23.15 31.0001 24 31.0001C24.8 31.0001 25.467 30.4201 25.57 29.6641L25.583 29.5201L26 18.9431L25.994 18.7911C25.922 17.8911 25.221 17.1641 24.318 17.0241L24.158 17.0041L23.953 16.9991L23.952 17.0001Z" class="svg-primary-fill"/>
  </g>
</svg>
