<svg xmlns="http://www.w3.org/2000/svg" width="32" height="32" viewBox="0 0 32 32">
  <g class="neo-icon-kit--warning-orange-circle">
    <path fill="#F85D22" d="M16 32C24.8366 32 32 24.8366 32 16C32 7.16344 24.8366 0 16 0C7.16344 0 0 7.16344 0 16C0 24.8366 7.16344 32 16 32Z" class="svg-secondary-fill"/>
    <path fill="#fff" fill-rule="evenodd" d="M24.839 21.3869L17.125 7.24392C16.902 6.83021 16.47 6.57227 16 6.57227C15.53 6.57227 15.098 6.83021 14.875 7.24392L7.16102 21.3869C6.94102 21.7822 6.94865 22.2648 7.18102 22.6529C7.41202 23.0449 7.83402 23.2849 8.28602 23.2849H23.714C24.166 23.2828 24.5838 23.0435 24.8143 22.6546C25.0447 22.2658 25.0541 21.7845 24.839 21.3869ZM17.266 16.6259L17.446 12.0159C17.446 11.9559 17.416 11.8749 17.346 11.8249C17.286 11.7749 17.196 11.7149 17.105 11.7149H14.895C14.805 11.7149 14.715 11.7749 14.654 11.8249C14.584 11.8749 14.554 11.9749 14.554 12.0349L14.724 16.6259C14.724 16.7559 14.875 16.8569 15.066 16.8569H16.924C17.104 16.8569 17.256 16.7569 17.266 16.6269V16.6259ZM17.286 20.3829V18.4739C17.286 18.2939 17.146 18.1429 16.964 18.1429H15.036C14.9494 18.144 14.8667 18.1795 14.8063 18.2416C14.7459 18.3037 14.7127 18.3873 14.714 18.4739V20.3829C14.714 20.5629 14.854 20.7139 15.036 20.7139H16.964C17.145 20.7139 17.286 20.5639 17.286 20.3829Z" class="svg-primary-fill" clip-rule="evenodd"/>
  </g>
</svg>
