<svg xmlns="http://www.w3.org/2000/svg" width="48" height="48" viewBox="0 0 48 48">
  <g class="neo-icon-kit--watch">
    <path fill="#006FCF" fill-rule="evenodd" d="M29.5419 3C31.0419 3 32.5419 4.53073 32.5419 6.03073C32.5419 9.22397 33.8586 11.5216 34.5524 12.3374L35.0122 12.8549L35.2415 13.129C35.4006 13.3261 35.5044 13.4721 35.6179 13.6319C35.6447 13.6695 35.6719 13.7079 35.7006 13.7478C35.9396 14.0812 35.992 14.7723 35.9991 14.9615L36 17H37C37.5523 17 38 17.4477 38 18V22C38 22.5523 37.5523 23 37 23H36V33C36 33.0991 35.9614 33.8884 35.7006 34.2522L35.4144 34.649L35.2797 34.8233L35.1124 35.0275C35.0496 35.1021 34.9792 35.1839 34.8986 35.2754L34.6243 35.5809C33.9543 36.3155 32.5419 38.662 32.5419 41.9693C32.5419 43.4693 31.0419 45 29.5419 45H18.5C17 45 15.5 43.5 15.5 42C15.5 38.6925 14.1324 36.4665 13.3162 35.4833L12.5 34.5C12.0758 33.9801 12.0079 33.2103 12.0007 33.0294L12 15C12 14.9009 12.0455 14.057 12.5 13.5L13.3162 12.5167L13.4988 12.2871C14.3208 11.21 15.5 9.07129 15.5 6C15.5 4.5 17 3 18.5 3H29.5419ZM30.734 36H17.2536C18.0224 37.4639 18.5 39.1186 18.5 41C18.5 41.5 19 42 20 42H28.0419C29.0419 42 29.4992 41.6736 29.5 41C29.5027 38.7864 29.9823 37.4778 30.734 36ZM15.1376 14.9949L31.269 14.984L33 15V33H15V15L15.1376 14.9949ZM24 17C24.8284 17 25.5 17.6716 25.5 18.5V23.3787L27.5 25.3787C28.0858 25.9645 28.0858 26.9142 27.5 27.5C26.9142 28.0858 25.9645 28.0858 25.3787 27.5L22.9393 25.0607C22.658 24.7794 22.5 24.3978 22.5 24V18.5C22.5 17.6716 23.1716 17 24 17ZM20 6H28.0419C29.0419 6 29.4992 6.32638 29.5 7C29.5027 9.21356 29.9823 10.5222 30.734 12H17.2536C18.0224 10.5361 18.5 8.88138 18.5 7C18.5 6.5 19 6 20 6Z" class="svg-primary-fill" clip-rule="evenodd"/>
  </g>
</svg>
