<svg xmlns="http://www.w3.org/2000/svg" width="48" height="48" viewBox="0 0 48 48">
  <g class="neo-icon-kit--watch-filled">
    <path fill="#006FCF" fill-rule="evenodd" d="M32.5419 6.03073C32.5419 4.53073 31.0419 3 29.5419 3H18.5C17 3 15.5 4.5 15.5 6C15.5 9.07129 14.3208 11.21 13.4988 12.2871L13.3162 12.5167L12.5 13.5C12.0455 14.057 12 14.9009 12 15L12.0007 33.0294C12.0079 33.2103 12.0758 33.9801 12.5 34.5L13.3162 35.4833C14.1324 36.4665 15.5 38.6925 15.5 42C15.5 43.5 17 45 18.5 45H29.5419C31.0419 45 32.5419 43.4693 32.5419 41.9693C32.5419 38.662 33.9543 36.3155 34.6243 35.5809L34.8986 35.2754C35.0597 35.0925 35.1806 34.948 35.2797 34.8233L35.4144 34.649L35.7006 34.2522C35.9614 33.8884 36 33.0991 36 33V23H37C37.5523 23 38 22.5523 38 22V18C38 17.4477 37.5523 17 37 17H36L35.9991 14.9615C35.992 14.7723 35.9396 14.0812 35.7006 13.7478C35.6719 13.7079 35.6447 13.6695 35.6179 13.6319C35.5044 13.4721 35.4006 13.3261 35.2415 13.129L35.0122 12.8549L34.5524 12.3374C33.8586 11.5216 32.5419 9.22397 32.5419 6.03073ZM17.2536 36H30.734C29.9823 37.4778 29.5027 38.7864 29.5 41C29.4992 41.6736 29.0419 42 28.0419 42H20C19 42 18.5 41.5 18.5 41C18.5 39.1186 18.0224 37.4639 17.2536 36ZM24 17C23.1716 17 22.5 17.6716 22.5 18.5V24C22.5 24.3978 22.658 24.7794 22.9393 25.0607L25.3787 27.5C25.9645 28.0858 26.9142 28.0858 27.5 27.5C28.0858 26.9142 28.0858 25.9645 27.5 25.3787L25.5 23.3787V18.5C25.5 17.6716 24.8284 17 24 17ZM20 6H28.0419C29.0419 6 29.4992 6.32638 29.5 7C29.5027 9.21356 29.9823 10.5222 30.734 12H17.2536C18.0224 10.5361 18.5 8.88138 18.5 7C18.5 6.5 19 6 20 6Z" class="svg-primary-fill" clip-rule="evenodd"/>
  </g>
</svg>
