<svg xmlns="http://www.w3.org/2000/svg" width="48" height="48" viewBox="0 0 48 48">
  <g class="neo-icon-kit--webfare-s">
    <path fill="#444B61" fill-rule="evenodd" d="M43.995 22.0308C44.016 22.2387 43.9885 22.4487 43.9148 22.6443C43.841 22.8399 43.723 23.0158 43.57 23.1583L40.87 25.6608L43.0275 28.6458C43.1491 28.8151 43.23 29.01 43.2641 29.2156C43.2982 29.4212 43.2845 29.6319 43.224 29.8313C43.1636 30.0307 43.0581 30.2136 42.9156 30.3657C42.7731 30.5177 42.5976 30.635 42.4025 30.7083L38.9525 31.9908L39.765 35.4084C39.8422 35.6134 39.8685 35.834 39.8418 36.0514C39.815 36.2688 39.7359 36.4765 39.6113 36.6567C39.4867 36.8368 39.3203 36.9841 39.1263 37.0858C38.9323 37.1876 38.7165 37.2408 38.4975 37.2409H38.4375L34.755 37.1009L34.1725 40.7359C34.1394 40.9422 34.0591 41.138 33.9379 41.3081C33.8167 41.4782 33.6577 41.6179 33.4735 41.7165C33.2893 41.815 33.0849 41.8696 32.8761 41.876C32.6673 41.8824 32.4598 41.8404 32.2699 41.7534L28.9199 40.2184L26.9924 43.3559C26.8828 43.534 26.7335 43.6842 26.5561 43.7948C26.3786 43.9054 26.178 43.9734 25.9699 43.9934C25.7623 44.014 25.5528 43.9863 25.3577 43.9126C25.1625 43.8388 24.987 43.7211 24.8449 43.5684L22.3399 40.8684L19.3573 43.0259C19.1882 43.148 18.9932 43.2293 18.7875 43.2637C18.5818 43.298 18.371 43.2845 18.1714 43.224C17.9718 43.1635 17.7888 43.0578 17.6368 42.915C17.4848 42.7722 17.3677 42.5963 17.2948 42.4009L16.0123 38.9484L12.4298 39.7984C12.2266 39.8477 12.0147 39.8492 11.8109 39.8027C11.607 39.7562 11.4167 39.663 11.2551 39.5304C11.0934 39.3978 10.9647 39.2295 10.8792 39.0387C10.7937 38.8479 10.7537 38.6398 10.7623 38.4309L10.8998 34.7509L7.26474 34.1683C7.05832 34.1361 6.86218 34.0565 6.69178 33.9356C6.52137 33.8147 6.38134 33.656 6.28271 33.4718C6.18408 33.2876 6.12954 33.0831 6.12338 32.8742C6.11723 32.6654 6.15962 32.458 6.24724 32.2683L7.78475 28.9183L4.64722 26.9883C4.46882 26.8795 4.3181 26.7308 4.20693 26.5539C4.09576 26.377 4.02718 26.1767 4.00658 25.9687C3.98598 25.7608 4.01393 25.5509 4.08822 25.3556C4.16252 25.1603 4.28113 24.9849 4.43472 24.8433L7.13474 22.3383L4.97723 19.3557C4.85569 19.1863 4.77475 18.9911 4.74067 18.7853C4.7066 18.5796 4.7203 18.3688 4.78071 18.1692C4.84113 17.9696 4.94664 17.7865 5.08909 17.6342C5.23154 17.4819 5.40711 17.3643 5.60223 17.2907L9.05726 16.0132L8.20225 12.4282C8.15335 12.2252 8.15222 12.0136 8.19893 11.81C8.24565 11.6065 8.33895 11.4166 8.47149 11.2552C8.60402 11.0938 8.77219 10.9654 8.96276 10.88C9.15333 10.7947 9.36111 10.7547 9.56976 10.7632L13.2498 10.9007L13.8323 7.26314C13.8653 7.05688 13.9456 6.86105 14.0668 6.69095C14.1881 6.52085 14.347 6.38108 14.5312 6.28257C14.7154 6.18406 14.9199 6.12946 15.1287 6.12305C15.3375 6.11665 15.5449 6.1586 15.7348 6.24563L19.0848 7.78314L21.0099 4.64562C21.1195 4.46755 21.2689 4.31722 21.4462 4.20638C21.6235 4.09553 21.8241 4.02715 22.0322 4.00658C22.2403 3.98601 22.4504 4.01381 22.646 4.08779C22.8416 4.16178 23.0175 4.27996 23.1599 4.43311L25.6624 7.13313L28.6474 4.97312C28.8171 4.85163 29.0124 4.77081 29.2182 4.7369C29.4241 4.70299 29.635 4.71691 29.8347 4.77757C30.0343 4.83824 30.2173 4.94402 30.3695 5.08674C30.5217 5.22947 30.6391 5.40529 30.7124 5.60062L31.9924 9.05065L35.575 8.20064C35.7781 8.15236 35.9896 8.15166 36.193 8.19858C36.3964 8.24551 36.5862 8.3388 36.7476 8.47117C36.909 8.60355 37.0377 8.77143 37.1235 8.96171C37.2094 9.15199 37.2501 9.35954 37.2425 9.56815L37.105 13.2482L40.74 13.8307C40.946 13.8642 41.1415 13.9448 41.3113 14.0661C41.4812 14.1875 41.6207 14.3463 41.7191 14.5304C41.8176 14.7144 41.8722 14.9187 41.8789 15.1273C41.8856 15.3359 41.844 15.5433 41.7575 15.7332L40.22 19.0782L43.3575 21.0107C43.5354 21.1199 43.6855 21.2688 43.7962 21.4458C43.9068 21.6228 43.9748 21.823 43.995 22.0308ZM32.1449 33.5708L36.5025 16.2632H31.8924L29.9324 24.9633C29.4649 27.1283 29.1774 28.6458 29.0749 29.5233C28.9255 28.4928 28.7479 27.4666 28.5424 26.4458C28.3092 25.2271 28.0466 24.0143 27.7549 22.8083L26.2424 16.2632H21.8149L20.2498 22.8083C19.9647 23.9448 19.713 25.0895 19.4948 26.2408C19.2248 27.6233 19.0373 28.7158 18.9298 29.5233C18.6906 27.985 18.3929 26.4564 18.0373 24.9408L16.1123 16.2632H11.5023L15.8823 33.5708H21.5374C22.1274 30.9833 22.7124 28.3958 23.2949 25.8058C23.4374 25.1658 23.5799 24.4658 23.7249 23.7058C23.8674 22.9408 23.9749 22.3058 24.0424 21.7908C24.1224 22.4233 24.2499 23.2083 24.4224 24.1483C24.5324 24.7783 24.6574 25.4058 24.8024 26.0308L26.4999 33.5708H32.1449Z" class="svg-primary-fill" clip-rule="evenodd"/>
  </g>
</svg>
