<svg xmlns="http://www.w3.org/2000/svg" width="48" height="48" viewBox="0 0 48 48">
  <g class="neo-icon-kit--week-view-filled">
    <path fill="#006FCF" fill-rule="evenodd" d="M33 4.5C33 3.67157 33.6716 3 34.5 3C35.3284 3 36 3.67157 36 4.5V6H40C41.1046 6 42 6.89543 42 8V44H41.7324C41.3866 44.5978 40.7403 45 40 45H8C7.25972 45 6.61337 44.5978 6.26756 44H6V8C6 6.89543 6.89543 6 8 6H12V4.5C12 3.67157 12.6716 3 13.5 3C14.3284 3 15 3.67157 15 4.5V6H33V4.5ZM12 9V10.5C12 11.3284 12.6716 12 13.5 12C14.3284 12 15 11.3284 15 10.5V9H33V10.5C33 11.3284 33.6716 12 34.5 12C35.3284 12 36 11.3284 36 10.5V9H39V15H9V9H12ZM13.5 21C14.3284 21 15 21.6716 15 22.5L15 37.5C15 38.3284 14.3284 39 13.5 39C12.6716 39 12 38.3284 12 37.5L12 22.5C12 21.6716 12.6716 21 13.5 21ZM22 22.5C22 21.6716 21.3284 21 20.5 21C19.6716 21 19 21.6716 19 22.5L19 37.5C19 38.3284 19.6716 39 20.5 39C21.3284 39 22 38.3284 22 37.5L22 22.5ZM27.5 21C28.3284 21 29 21.6716 29 22.5V37.5C29 38.3284 28.3284 39 27.5 39C26.6716 39 26 38.3284 26 37.5V22.5C26 21.6716 26.6716 21 27.5 21ZM36 22.5C36 21.6716 35.3284 21 34.5 21C33.6716 21 33 21.6716 33 22.5V37.5C33 38.3284 33.6716 39 34.5 39C35.3284 39 36 38.3284 36 37.5V22.5Z" class="svg-primary-fill" clip-rule="evenodd"/>
  </g>
</svg>
