<svg xmlns="http://www.w3.org/2000/svg" width="48" height="48" viewBox="0 0 48 48">
  <g class="neo-icon-kit--week-view">
    <g fill="#006FCF" class="svg-primary-fill">
      <path d="M13.5 21C14.3284 21 15 21.6716 15 22.5L15 37.5C15 38.3284 14.3284 39 13.5 39 12.6716 39 12 38.3284 12 37.5L12 22.5C12 21.6716 12.6716 21 13.5 21zM20.5 21C21.3284 21 22 21.6716 22 22.5L22 37.5C22 38.3284 21.3284 39 20.5 39 19.6716 39 19 38.3284 19 37.5L19 22.5C19 21.6716 19.6716 21 20.5 21zM29 22.5C29 21.6716 28.3284 21 27.5 21 26.6716 21 26 21.6716 26 22.5V37.5C26 38.3284 26.6716 39 27.5 39 28.3284 39 29 38.3284 29 37.5V22.5zM34.5 21C35.3284 21 36 21.6716 36 22.5V37.5C36 38.3284 35.3284 39 34.5 39 33.6716 39 33 38.3284 33 37.5V22.5C33 21.6716 33.6716 21 34.5 21z"/>
      <path fill-rule="evenodd" d="M33 4.5C33 3.67157 33.6716 3 34.5 3C35.3284 3 36 3.67157 36 4.5V6H40C41.1046 6 42 6.89543 42 8V43C42 44.1046 41.1046 45 40 45H8C6.89543 45 6 44.1046 6 43V8C6 6.89543 6.89543 6 8 6H12V4.5C12 3.67157 12.6716 3 13.5 3C14.3284 3 15 3.67157 15 4.5V6H33V4.5ZM36 9H39V15H9V9H12V10.5C12 11.3284 12.6716 12 13.5 12C14.3284 12 15 11.3284 15 10.5V9H33V10.5C33 11.3284 33.6716 12 34.5 12C35.3284 12 36 11.3284 36 10.5V9ZM9 42V18H39V42H9Z" clip-rule="evenodd"/>
    </g>
  </g>
</svg>
