<svg xmlns="http://www.w3.org/2000/svg" width="48" height="48" viewBox="0 0 48 48">
  <g class="neo-icon-kit--wheelchair-filled">
    <g fill="#006FCF" class="svg-primary-fill">
      <path d="M37 8.5C37 10.9853 34.9852 13 32.5 13C30.0147 13 28 10.9853 28 8.5C28 6.01472 30.0147 4 32.5 4C34.9852 4 37 6.01472 37 8.5Z"/>
      <path fill-rule="evenodd" d="M32.5 10C33.3284 10 34 9.32843 34 8.5 34 7.67157 33.3284 7 32.5 7 31.6715 7 31 7.67157 31 8.5 31 9.32843 31.6715 10 32.5 10zM32.5 13C34.9852 13 37 10.9853 37 8.5 37 6.01472 34.9852 4 32.5 4 30.0147 4 28 6.01472 28 8.5 28 10.9853 30.0147 13 32.5 13zM16 27.5C16 26.6716 16.6715 26 17.5 26H32.5854C35.5465 26 37.7005 28.8106 36.9307 31.6699L35.0664 39H37.5C38.3284 39 39 39.6716 39 40.5 39 41.3284 38.3284 42 37.5 42H34.414C32.7689 42 31.5723 40.4386 32 38.8501L34.0339 30.89C34.2905 29.9369 33.5725 29 32.5854 29H17.5C16.6715 29 16 28.3284 16 27.5zM11.6447 12.767C12.6663 11.2913 14.4671 10.6481 16.227 11.0001L26.7941 13.0292 26.2058 15.971 15.6387 14.0001C15.052 13.8827 14.4518 13.9827 14.1112 14.4746L10.7332 19.3538C10.2617 20.0349 9.32725 20.2048 8.64613 19.7333 7.96501 19.2617 7.79512 18.3273 8.26667 17.6462L11.6447 12.767z" clip-rule="evenodd"/>
      <path d="M20.3812 16.4534C21.369 14.346 23.4865 13 25.8139 13H26.2917C30.752 13 33.653 17.6939 31.6583 21.6833L28.8291 27.3416C28.321 28.358 27.2822 29 26.1459 29H17.6463C16.1816 29 15.2137 27.4774 15.8354 26.1511L20.3812 16.4534Z"/>
      <path fill-rule="evenodd" d="M26.2917 16H25.8139C24.6502 16 23.5915 16.673 23.0975 17.7267L19.2194 26L26.1459 26L28.975 20.3416C29.9724 18.3469 28.5219 16 26.2917 16ZM25.8139 13C23.4865 13 21.369 14.346 20.3812 16.4534L15.8354 26.1511C15.2137 27.4774 16.1816 29 17.6463 29H26.1459C27.2822 29 28.321 28.358 28.8291 27.3416L31.6583 21.6833C33.653 17.6939 30.752 13 26.2917 13H25.8139Z" clip-rule="evenodd"/>
      <path fill-rule="evenodd" d="M13.9793 22.4531C14.1795 23.257 13.6901 24.0709 12.8862 24.2711C11.2686 24.6738 9.79469 25.5178 8.6287 26.7091C7.46271 27.9004 6.65047 29.3921 6.28253 31.0179C5.91459 32.6437 6.00541 34.3398 6.54485 35.917C7.0843 37.4942 8.05118 38.8907 9.33772 39.9506C10.6242 41.0106 12.1799 41.6924 13.8312 41.9201C15.4825 42.1478 17.1646 41.9124 18.69 41.2402C20.2154 40.5679 21.5241 39.4853 22.4702 38.1129C23.4164 36.7405 23.9628 35.1323 24.0486 33.4676C24.0913 32.6403 24.7965 32.0042 25.6238 32.0468C26.4512 32.0894 27.0873 32.7947 27.0446 33.622C26.9303 35.8416 26.2017 37.9859 24.9401 39.8157C23.6786 41.6456 21.9336 43.0891 19.8998 43.9854C17.8659 44.8817 15.6231 45.1956 13.4214 44.892C11.2197 44.5884 9.14548 43.6793 7.4301 42.266C5.71473 40.8527 4.42555 38.9908 3.70629 36.8878C2.98703 34.7849 2.86594 32.5235 3.35653 30.3557C3.84711 28.1879 4.9301 26.199 6.48475 24.6107C8.0394 23.0223 10.0046 21.8969 12.1614 21.3599C12.9653 21.1598 13.7792 21.6492 13.9793 22.4531Z" clip-rule="evenodd"/>
    </g>
  </g>
</svg>
