<svg xmlns="http://www.w3.org/2000/svg" width="48" height="48" viewBox="0 0 48 48">
  <g class="neo-icon-kit--wifi">
    <path fill="#006FCF" fill-rule="evenodd" d="M46.6207 16.4609C40.8172 9.81274 32.5336 6 23.8924 6C15.3807 6 7.17902 9.71937 1.38929 16.2062C0.837178 16.8253 0.876685 17.7883 1.48015 18.3566C2.08263 18.9249 3.01993 18.8833 3.57303 18.2633C8.80276 12.4056 16.2093 9.04451 23.8924 9.04451C31.6921 9.04451 39.1727 12.4889 44.4162 18.4947C44.9624 19.1198 45.8987 19.1726 46.5081 18.6103C46.8341 18.31 47 17.8949 47 17.4768C47 17.1155 46.8746 16.7522 46.6207 16.4609ZM23.9035 16C30.5063 16 36.625 19.1135 40.6917 24.5417C40.8989 24.8191 41 25.1494 41 25.4745C41 25.9298 40.8046 26.3809 40.4296 26.6807C39.7874 27.1959 38.8616 27.075 38.3628 26.4094C34.8597 21.7311 29.5893 19.0484 23.9035 19.0484C18.3287 19.0484 13.1231 21.6416 9.62194 26.1615C9.11336 26.8179 8.18652 26.9236 7.55226 26.3972C6.91702 25.8708 6.81491 24.9106 7.3235 24.2552C11.3873 19.0088 17.4304 16 23.9035 16ZM34.8491 32.8586C32.7845 28.6277 28.5989 26 23.9253 26C19.4133 26 15.2939 28.492 13.173 32.501C12.7904 33.2263 13.0635 34.1259 13.7843 34.5114C14.506 34.8958 15.4013 34.6214 15.7849 33.8971C17.3911 30.8591 20.5108 28.9725 23.9253 28.9725C27.4611 28.9725 30.6291 30.9632 32.1929 34.1676C32.5528 34.9047 33.4392 35.2089 34.1718 34.8483C34.6953 34.5897 35 34.0615 35 33.5126C35 33.2926 34.9517 33.0697 34.8491 32.8586ZM27 38.9995C27 37.3448 25.6542 36 24.0005 36C22.3468 36 21 37.3448 21 38.9995C21 40.6542 22.3468 42 24.0005 42C25.6542 42 27 40.6542 27 38.9995Z" class="svg-primary-fill" clip-rule="evenodd"/>
  </g>
</svg>
