<svg xmlns="http://www.w3.org/2000/svg" width="48" height="48" viewBox="0 0 48 48">
  <g class="neo-icon-kit--wifi-filled">
    <path fill="#006FCF" fill-rule="evenodd" d="M47.3746 15.8039C41.3816 8.93879 32.824 5 23.8924 5C15.0936 5 6.62129 8.84246 0.643199 15.5403C-0.269629 16.5638 -0.203428 18.1448 0.79454 19.0846C1.80665 20.0393 3.39176 19.9687 4.31925 18.9289C9.3606 13.2823 16.4967 10.0445 23.8924 10.0445C31.4015 10.0445 38.6081 13.3628 43.6629 19.1523C44.5795 20.2014 46.1628 20.2895 47.1862 19.3453C47.7118 18.8609 48 18.1824 48 17.4768C48 16.8663 47.7824 16.2719 47.3746 15.8039ZM23.9035 15C30.8235 15 37.2378 18.2636 41.4929 23.9434C41.8254 24.3887 42 24.9271 42 25.4745C42 26.2424 41.6605 26.977 41.0553 27.4607C39.9705 28.3311 38.3989 28.1251 37.5623 27.0088C34.2467 22.5809 29.272 20.0484 23.9035 20.0484C18.6407 20.0484 13.7259 22.4964 10.4124 26.7739C9.5586 27.8759 7.98433 28.0553 6.91419 27.1672C5.86236 26.2957 5.69463 24.7231 6.53289 23.6428C10.7847 18.1537 17.1187 15 23.9035 15ZM35.7486 32.4216C33.5159 27.8465 28.9821 25 23.9252 25C19.0429 25 14.5832 27.6968 12.289 32.0333C11.6496 33.2456 12.1062 34.748 13.3127 35.3932C14.5246 36.0387 16.0264 35.5778 16.6686 34.365C18.102 31.6539 20.8816 29.9725 23.9252 29.9725C27.0778 29.9725 29.8976 31.7444 31.2941 34.6061C31.8965 35.84 33.3833 36.3511 34.6134 35.7454C35.4711 35.3218 36 34.4518 36 33.5126C36 33.1371 35.9155 32.7652 35.7486 32.4216ZM28 38.9995C28 36.7928 26.2067 35 24.0005 35C21.7941 35 20 36.7929 20 38.9995C20 41.2062 21.7942 43 24.0005 43C26.2067 43 28 41.2063 28 38.9995Z" class="svg-primary-fill" clip-rule="evenodd"/>
  </g>
</svg>
