<svg xmlns="http://www.w3.org/2000/svg" width="48" height="48" viewBox="0 0 48 48">
  <g class="neo-icon-kit--wine">
    <path fill="#006FCF" fill-rule="evenodd" d="M25.5 30C32.9558 30 39 23.9558 39 16.5C39 12.6408 37.3807 9.15986 34.7845 6.6995C34.2858 6.22697 33.6112 6 32.9242 6H15.0758C14.3888 6 13.7142 6.22697 13.2155 6.6995C10.6193 9.15986 9 12.6408 9 16.5C9 23.9558 15.0442 30 22.5 30V39H16.5C15.6716 39 15 39.6716 15 40.5C15 41.3284 15.6716 42 16.5 42H31.5C32.3284 42 33 41.3284 33 40.5C33 39.6716 32.3284 39 31.5 39H25.5V30ZM12.1061 15C12.4396 12.6644 13.5409 10.5782 15.1515 9H32.8485C34.4591 10.5782 35.5604 12.6644 35.8939 15H12.1061ZM12.1063 18C12.8342 23.0884 17.2103 27 22.5 27H25.5C30.7897 27 35.1658 23.0884 35.8937 18H12.1063Z" class="svg-primary-fill" clip-rule="evenodd"/>
  </g>
</svg>
