<svg xmlns="http://www.w3.org/2000/svg" width="48" height="48" viewBox="0 0 48 48">
  <g class="neo-icon-kit--wine-filled">
    <path fill="#006FCF" fill-rule="evenodd" d="M9.08239 15C9.07975 15.0239 9.07717 15.0478 9.07465 15.0718C9.0253 15.5411 9 16.0176 9 16.5C9 23.9558 15.0442 30 22.5 30V39H16.5C15.6716 39 15 39.6716 15 40.5C15 41.3284 15.6716 42 16.5 42H31.5C32.3284 42 33 41.3284 33 40.5C33 39.6716 32.3284 39 31.5 39H25.5V30C32.9558 30 39 23.9558 39 16.5C39 15.993 38.972 15.4925 38.9176 15C38.5577 11.7438 37.0396 8.83662 34.7845 6.6995C34.2858 6.22697 33.6112 6 32.9242 6H15.0758C14.3888 6 13.7142 6.22697 13.2155 6.6995C10.9604 8.83662 9.44235 11.7438 9.08239 15ZM35.8939 15H12.1061C12.4396 12.6644 13.5409 10.5782 15.1515 9H32.8485C34.4591 10.5782 35.5604 12.6644 35.8939 15Z" class="svg-primary-fill" clip-rule="evenodd"/>
  </g>
</svg>
