<svg xmlns="http://www.w3.org/2000/svg" width="48" height="48" viewBox="0 0 48 48">
  <g class="neo-icon-kit--wire-transfer-filled" clip-path="url(#a)">
    <path fill="#006FCF" d="M15.61 6.29014C15.8467 6.11666 16.1291 6.01643 16.4222 6.00185C16.7153 5.98728 17.0063 6.059 17.259 6.20814L17.384 6.29014L32.381 17.2901C33.512 18.1201 32.981 19.8811 31.632 19.9941L31.494 20.0001H30.019L30 28.0001H42.952L38.622 23.5321C38.3525 23.2566 38.1994 22.8878 38.1944 22.5024C38.1895 22.117 38.3331 21.7444 38.5956 21.4621C38.858 21.1797 39.219 21.0092 39.6038 20.986C39.9885 20.9627 40.3675 21.0885 40.662 21.3371L40.775 21.4421L47.591 28.4651C47.716 28.5981 47.817 28.7511 47.887 28.9221L47.9 28.9631C47.946 29.0851 47.978 29.2131 47.992 29.3471L48 29.4901C48 29.6311 47.978 29.7661 47.941 29.8951L47.89 30.0501C47.8358 30.1839 47.7628 30.3091 47.673 30.4221L47.554 30.5561L40.775 37.5321C40.6352 37.6761 40.468 37.7905 40.2831 37.8687C40.0983 37.9469 39.8997 37.9871 39.699 37.9871C39.322 37.9871 38.945 37.8461 38.654 37.5631C38.3875 37.3046 38.2263 36.9563 38.2017 36.5857C38.1772 36.2152 38.2909 35.8487 38.521 35.5571L38.622 35.4421L42.949 31.0001H30V39.0001H31.5C31.8852 39.0003 32.2556 39.1487 32.5344 39.4146C32.8132 39.6804 32.979 40.0433 32.9975 40.4281C33.0161 40.8128 32.8858 41.19 32.6338 41.4813C32.3819 41.7727 32.0274 41.956 31.644 41.9931L31.5 42.0001H1.50002C1.11481 42 0.744428 41.8516 0.465636 41.5857C0.186844 41.3199 0.0210106 40.957 0.00249838 40.5722C-0.0160139 40.1875 0.114214 39.8103 0.366198 39.5189C0.618182 39.2276 0.972603 39.0443 1.35602 39.0071L1.50002 39.0001H3.00002L3.02202 20.0001H1.50002C0.0970227 20.0001 -0.515977 18.2651 0.505023 17.3761L0.613023 17.2901L15.61 6.29014ZM14.999 20.0001H11.999L12 39.0001H15L14.999 20.0001ZM8.99902 20.0001H5.99902L6.00002 39.0001H9.00002L8.99902 20.0001ZM20.999 20.0001H17.999L18 39.0001H21L20.999 20.0001ZM26.999 20.0001H23.999L24 39.0001H27L26.999 20.0001Z" class="svg-primary-fill"/>
  </g>
  <defs>
    <clipPath id="a" class="a">
      <path fill="#fff" d="M0 0H48V48H0z"/>
    </clipPath>
  </defs>
</svg>
