<svg xmlns="http://www.w3.org/2000/svg" width="48" height="48" viewBox="0 0 48 48">
  <g class="neo-icon-kit--yen-regular">
    <path fill="#006FCF" fill-rule="evenodd" d="M24 1C36.7025 1 47 11.2975 47 24C47 36.7025 36.7025 47 24 47C11.2975 47 1 36.7025 1 24C1 11.2975 11.2975 1 24 1ZM24 4C12.9543 4 4 12.9543 4 24C4 35.0457 12.9543 44 24 44C35.0457 44 44 35.0457 44 24C44 12.9543 35.0457 4 24 4ZM31.0527 11.5166L23.9987 19.7476L16.9487 11.5246L16.8485 11.4191C16.3222 10.9217 15.429 10.8797 14.8637 11.3606C14.5647 11.6166 14.3827 11.9736 14.3507 12.3666C14.3197 12.7616 14.4437 13.1446 14.7017 13.4476L22.5237 22.5086V24.0296H19.4607L19.3185 24.0364C18.5699 24.1081 17.9817 24.7406 17.9817 25.5086C17.9817 26.3246 18.6457 26.9876 19.4607 26.9876H22.5227L22.5217 30.0266H19.4607L19.3185 30.0334C18.5699 30.1052 17.9817 30.7385 17.9817 31.5056C17.9817 32.3236 18.6457 32.9876 19.4607 32.9876H22.5207L22.5197 37.5146L22.5265 37.6568C22.5982 38.4055 23.2306 38.9946 23.9967 38.9946C24.8137 38.9946 25.4777 38.3296 25.4777 37.5146L25.4807 32.9876H28.5387L28.681 32.9808C29.4305 32.9089 30.0187 32.2755 30.0187 31.5056C30.0187 30.6906 29.3547 30.0266 28.5387 30.0266H25.4807V26.9876H28.5387L28.681 26.9808C29.4305 26.9091 30.0187 26.2766 30.0187 25.5086C30.0187 24.6926 29.3547 24.0296 28.5387 24.0296H25.4837V22.4996L33.3007 13.4426L33.3927 13.323C33.8173 12.7084 33.7159 11.8563 33.1337 11.3566C32.5357 10.8486 31.5547 10.9256 31.0527 11.5166Z" class="svg-primary-fill" clip-rule="evenodd"/>
  </g>
</svg>
