<svg xmlns="http://www.w3.org/2000/svg" width="48" height="48" viewBox="0 0 48 48">
  <g class="neo-icon-kit--yen-cashback-filled">
    <path fill="#006FCF" fill-rule="evenodd" d="M40.2425 7.99961C36.026 3.53642 30.1525 1 24 1C11.2975 1 1 11.2975 1 24C1 36.7025 11.2975 47 24 47C36.7025 47 47 36.7025 47 24V23L46.9945 22.8507C46.9182 21.8159 46.0544 21 45 21C43.8954 21 43 21.8954 43 23V24L42.9971 24.3378C42.8168 34.6754 34.3806 43 24 43C13.5066 43 5 34.4934 5 24C5 13.5066 13.5066 5 24 5L24.4185 5.00477C29.434 5.11906 34.1914 7.28371 37.5742 11.0048L38.479 12H37L36.8507 12.0055C35.8159 12.0818 35 12.9456 35 14C35 15.1046 35.8954 16 37 16H43L43.1528 15.9942L43.3022 15.9772L43.4587 15.9471L43.6079 15.9059L43.7629 15.8494L43.9157 15.7786L44.0597 15.6966L44.2117 15.5913L44.3376 15.4869L44.405 15.4234L44.5155 15.3052L44.5928 15.2098C44.6508 15.1335 44.7034 15.053 44.7501 14.9687L44.8271 14.8147L44.8853 14.6686L44.9145 14.5803L44.9559 14.4195L44.9819 14.2705L44.9945 14.1493L45 14V8L44.9945 7.85074C44.9182 6.81588 44.0544 6 43 6L42.8507 6.00549C41.8159 6.08183 41 6.94564 41 8V8.828L40.5339 8.31412L40.2425 7.99961ZM31.6833 15.6927C32.1172 15.181 32.0559 14.4147 31.546 13.9785C31.0308 13.5635 30.2816 13.6211 29.8359 14.11L24.0392 20.8739L18.2458 14.1165C17.8014 13.6232 17.0485 13.564 16.5324 13.9818C16.2873 14.1915 16.1356 14.4901 16.1106 14.8117C16.0857 15.1333 16.1895 15.4517 16.3993 15.6968L22.8271 23.1428V24.3927H20.3101C19.6389 24.3927 19.0947 24.9368 19.0947 25.608C19.0947 26.2793 19.6389 26.8234 20.3101 26.8234H22.8263L22.8255 29.3208H20.3101C19.6382 29.3208 19.0935 29.8655 19.0935 30.5374C19.0935 31.2093 19.6382 31.754 20.3101 31.754H22.8247L22.8239 35.4741C22.8239 36.1453 23.368 36.6895 24.0392 36.6895C24.7105 36.6895 25.2546 36.1453 25.2546 35.4741L25.2571 31.754H27.77C28.4419 31.754 28.9866 31.2093 28.9866 30.5374C28.9866 29.8655 28.4419 29.3208 27.77 29.3208H25.2571V26.8234H27.77C28.4412 26.8234 28.9854 26.2793 28.9854 25.608C28.9854 24.9368 28.4412 24.3927 27.77 24.3927H25.2596V23.1354L31.6833 15.6927Z" class="svg-primary-fill" clip-rule="evenodd"/>
  </g>
</svg>
