<svg xmlns="http://www.w3.org/2000/svg" width="48" height="48" viewBox="0 0 48 48">
  <g class="neo-icon-kit--yen-regular-filled">
    <path fill="#006FCF" fill-rule="evenodd" d="M47 24C47 11.2975 36.7025 1 24 1C11.2975 1 1 11.2975 1 24C1 36.7025 11.2975 47 24 47C36.7025 47 47 36.7025 47 24ZM31.1525 11.4122C31.6761 10.9185 32.5734 10.8798 33.134 11.357C33.755 11.889 33.829 12.824 33.301 13.443L25.484 22.5V24.029H28.539L28.6813 24.0358C29.4308 24.1076 30.019 24.741 30.019 25.509C30.019 26.324 29.355 26.987 28.539 26.987H25.481V30.026H28.539L28.6813 30.0328C29.4308 30.1048 30.019 30.7389 30.019 31.506C30.019 32.323 29.355 32.987 28.539 32.987H25.481L25.478 37.515L25.4712 37.6572C25.3994 38.4058 24.7659 38.994 23.997 38.994C23.183 38.994 22.52 38.33 22.52 37.515L22.521 32.987H19.461L19.3188 32.9802C18.5702 32.9084 17.982 32.2749 17.982 31.506C17.982 30.691 18.646 30.026 19.461 30.026H22.522L22.523 26.987H19.461L19.3188 26.9802C18.5702 26.9085 17.982 26.2761 17.982 25.509C17.982 24.693 18.646 24.029 19.461 24.029H22.524V22.508L14.702 13.447L14.6116 13.3301C14.4154 13.049 14.3239 12.7125 14.351 12.366C14.383 11.973 14.565 11.616 14.864 11.36C15.467 10.848 16.442 10.93 16.948 11.525L23.999 19.748L31.053 11.517L31.1525 11.4122Z" class="svg-primary-fill" clip-rule="evenodd"/>
  </g>
</svg>
