<svg xmlns="http://www.w3.org/2000/svg" width="48" height="48" viewBox="0 0 48 48">
  <g class="neo-icon-kit--yen-cashback">
    <path fill="#006FCF" fill-rule="evenodd" d="M39.8723 8.33591C35.7507 3.97698 30.0116 1.5 24 1.5C11.5736 1.5 1.5 11.5736 1.5 24C1.5 36.4264 11.5736 46.5 24 46.5C36.4264 46.5 46.5 36.4264 46.5 24V23L46.4931 22.8555C46.4204 22.0949 45.7797 21.5 45 21.5C44.1716 21.5 43.5 22.1716 43.5 23V24L43.497 24.343C43.314 34.9543 34.655 43.5 24 43.5C13.2304 43.5 4.5 34.7696 4.5 24C4.5 13.2304 13.2304 4.5 24 4.5L24.4186 4.50464C29.5749 4.61905 34.4666 6.84316 37.9441 10.6685L39.609 12.5H37L36.8555 12.5069C36.0949 12.5796 35.5 13.2203 35.5 14C35.5 14.8284 36.1716 15.5 37 15.5H43L43.0726 15.4983L43.2179 15.4843L43.3273 15.4641L43.4748 15.4233L43.596 15.3769L43.7233 15.3145L43.8452 15.2394L43.9574 15.1548L44.0117 15.1075L44.1014 15.0184L44.184 14.9211L44.2822 14.7792L44.3536 14.6472L44.4102 14.5122L44.4661 14.3185L44.4841 14.2183L44.4983 14.071L44.5 8L44.4931 7.85554C44.4204 7.09489 43.7797 6.5 43 6.5L42.8555 6.50687C42.0949 6.57955 41.5 7.2203 41.5 8V10.12L40.164 8.65045L39.8723 8.33591ZM31.6833 15.6927C32.1172 15.181 32.0559 14.4147 31.546 13.9785C31.0308 13.5635 30.2816 13.6211 29.8359 14.11L24.0392 20.8739L18.2458 14.1165C17.8014 13.6232 17.0485 13.564 16.5324 13.9818C16.2873 14.1915 16.1356 14.4901 16.1106 14.8117C16.0857 15.1333 16.1895 15.4517 16.3993 15.6968L22.8271 23.1428V24.3927H20.3101C19.6389 24.3927 19.0947 24.9368 19.0947 25.608C19.0947 26.2793 19.6389 26.8234 20.3101 26.8234H22.8263L22.8255 29.3208H20.3101C19.6382 29.3208 19.0935 29.8655 19.0935 30.5374C19.0935 31.2093 19.6382 31.754 20.3101 31.754H22.8247L22.8239 35.4741C22.8239 36.1453 23.368 36.6895 24.0392 36.6895C24.7105 36.6895 25.2546 36.1453 25.2546 35.4741L25.2571 31.754H27.77C28.4419 31.754 28.9866 31.2093 28.9866 30.5374C28.9866 29.8655 28.4419 29.3208 27.77 29.3208H25.2571V26.8234H27.77C28.4412 26.8234 28.9854 26.2793 28.9854 25.608C28.9854 24.9368 28.4412 24.3927 27.77 24.3927H25.2596V23.1354L31.6833 15.6927Z" class="svg-primary-fill" clip-rule="evenodd"/>
  </g>
</svg>
