<svg xmlns="http://www.w3.org/2000/svg" width="48" height="48" viewBox="0 0 48 48">
  <g class="neo-icon-kit--yen-autopay">
    <path fill="#006FCF" fill-rule="evenodd" d="M24.4289 1.5042L24 1.5L23.6279 1.50301C11.3731 1.70171 1.5 11.6979 1.5 24V25L1.50687 25.1445C1.57955 25.9051 2.2203 26.5 3 26.5C3.82843 26.5 4.5 25.8284 4.5 25V24L4.50296 23.657C4.68402 13.1598 13.1598 4.68402 23.657 4.50296L24 4.5L24.4186 4.50464C29.5749 4.61905 34.4666 6.84316 37.9441 10.6685L39.609 12.5H37L36.8555 12.5069C36.0949 12.5796 35.5 13.2203 35.5 14C35.5 14.8284 36.1716 15.5 37 15.5H43L43.0726 15.4983L43.2179 15.4843L43.3273 15.4641L43.4748 15.4233L43.596 15.3769L43.7233 15.3145L43.8452 15.2394L43.9574 15.1548L44.009 15.1099L44.1014 15.0184L44.184 14.9211L44.2822 14.7792L44.3536 14.6472L44.4102 14.5122L44.4661 14.3185L44.4841 14.2183L44.4983 14.071L44.5 8L44.4931 7.85554C44.4204 7.09489 43.7797 6.5 43 6.5L42.8555 6.50687C42.0949 6.57955 41.5 7.2203 41.5 8V10.12L40.164 8.65045L39.8652 8.32831C35.8422 4.07784 30.2805 1.61895 24.4289 1.5042ZM31.546 13.9785C32.0559 14.4147 32.1172 15.181 31.6833 15.6927L25.2596 23.1354V24.3927H27.77C28.4412 24.3927 28.9854 24.9368 28.9854 25.608C28.9854 26.2793 28.4412 26.8234 27.77 26.8234H25.2571V29.3208H27.77C28.4419 29.3208 28.9866 29.8655 28.9866 30.5374C28.9866 31.2093 28.4419 31.754 27.77 31.754H25.2571L25.2546 35.4741C25.2546 36.1453 24.7105 36.6895 24.0392 36.6895C23.368 36.6895 22.8239 36.1453 22.8239 35.4741L22.8247 31.754H20.3101C19.6382 31.754 19.0935 31.2093 19.0935 30.5374C19.0935 29.8655 19.6382 29.3208 20.3101 29.3208H22.8255L22.8263 26.8234H20.3101C19.6389 26.8234 19.0947 26.2793 19.0947 25.608C19.0947 24.9368 19.6389 24.3927 20.3101 24.3927H22.8271V23.1428L16.3993 15.6968C16.1895 15.4517 16.0857 15.1333 16.1106 14.8117C16.1356 14.4901 16.2873 14.1915 16.5324 13.9818C17.0485 13.564 17.8014 13.6232 18.2458 14.1165L24.0392 20.8739L29.8359 14.11C30.2816 13.6211 31.0308 13.5635 31.546 13.9785ZM45 21.5C45.7797 21.5 46.4204 22.0949 46.4931 22.8555L46.5 23V24C46.5 36.3021 36.6269 46.2983 24.3721 46.497L24 46.5L23.5678 46.4959C17.0924 46.3723 10.9797 43.4756 6.78357 38.5422L6.5 38.203V40C6.5 40.7797 5.90511 41.4204 5.14446 41.4931L5 41.5C4.2203 41.5 3.57955 40.9051 3.50687 40.1445L3.5 40V34C3.5 33.7535 3.55948 33.5208 3.66488 33.3156L3.73288 33.1969L3.79995 33.0999L3.88774 32.9935L3.98156 32.8987L4.06289 32.8288L4.16484 32.7539L4.28343 32.6819L4.31126 32.6671C4.3949 32.6238 4.48301 32.5882 4.57475 32.5611L4.7631 32.5186L4.89544 32.5035L4.95947 32.5005L11 32.5C11.8284 32.5 12.5 33.1716 12.5 34C12.5 34.7797 11.9051 35.4204 11.1445 35.4931L11 35.5H8.165L8.82856 36.3106C12.465 40.7552 17.8626 43.3762 23.5903 43.4957L24 43.5C34.655 43.5 43.314 34.9543 43.497 24.343L43.5 24V23C43.5 22.1716 44.1716 21.5 45 21.5Z" class="svg-primary-fill" clip-rule="evenodd"/>
  </g>
</svg>
