<svg xmlns="http://www.w3.org/2000/svg" width="48" height="48" viewBox="0 0 48 48">
  <g class="neo-icon-kit--yen-autopay-filled">
    <path fill="#006FCF" fill-rule="evenodd" d="M24.4288 1.00411L24 1L23.6197 1.00308C11.0925 1.20619 1 11.4245 1 24V25L1.00549 25.1493C1.08183 26.1841 1.94564 27 3 27C4.10457 27 5 26.1046 5 25V24L5.00301 23.6585C5.1832 13.435 13.4382 5.18119 23.6622 5.00294L24 5L24.4185 5.00477C29.434 5.11906 34.1914 7.28371 37.5742 11.0048L38.479 12H37L36.8507 12.0055C35.8159 12.0818 35 12.9456 35 14C35 15.1046 35.8954 16 37 16H43L43.1528 15.9942L43.3022 15.9772L43.4587 15.9471L43.6079 15.9059L43.7629 15.8494L43.9157 15.7786L44.0597 15.6966L44.2117 15.5913L44.3376 15.4869L44.405 15.4234L44.5155 15.3052L44.5928 15.2098C44.6508 15.1335 44.7034 15.053 44.7501 14.9687L44.8271 14.8147L44.8853 14.6686L44.9145 14.5803L44.9559 14.4195L44.9819 14.2705L44.9945 14.1493L45 14V8L44.9945 7.85074C44.9182 6.81588 44.0544 6 43 6L42.8507 6.00549C41.8159 6.08183 41 6.94564 41 8V8.828L40.5339 8.31412L40.2355 7.9922C36.1176 3.63735 30.4214 1.11895 24.4288 1.00411ZM31.546 13.9785C32.0559 14.4147 32.1172 15.181 31.6833 15.6927L25.2596 23.1354V24.3927H27.77C28.4412 24.3927 28.9854 24.9368 28.9854 25.608C28.9854 26.2793 28.4412 26.8234 27.77 26.8234H25.2571V29.3208H27.77C28.4419 29.3208 28.9866 29.8655 28.9866 30.5374C28.9866 31.2093 28.4419 31.754 27.77 31.754H25.2571L25.2546 35.4741C25.2546 36.1453 24.7105 36.6895 24.0392 36.6895C23.368 36.6895 22.8239 36.1453 22.8239 35.4741L22.8247 31.754H20.3101C19.6382 31.754 19.0935 31.2093 19.0935 30.5374C19.0935 29.8655 19.6382 29.3208 20.3101 29.3208H22.8255L22.8263 26.8234H20.3101C19.6389 26.8234 19.0947 26.2793 19.0947 25.608C19.0947 24.9368 19.6389 24.3927 20.3101 24.3927H22.8271V23.1428L16.3993 15.6968C16.1895 15.4517 16.0857 15.1333 16.1106 14.8117C16.1356 14.4901 16.2873 14.1915 16.5324 13.9818C17.0485 13.564 17.8014 13.6232 18.2458 14.1165L24.0392 20.8739L29.8359 14.11C30.2816 13.6211 31.0308 13.5635 31.546 13.9785ZM45 21C46.0544 21 46.9182 21.8159 46.9945 22.8507L47 23V24C47 36.5755 36.9075 46.7938 24.3803 46.9969L24 47L23.5674 46.996C17.2464 46.8778 11.2627 44.1743 6.99982 39.5411L7 40C7 41.1046 6.10457 42 5 42C3.94564 42 3.08183 41.1841 3.00549 40.1493L3 40L3.00049 33.9542L3.0106 33.7942L3.02097 33.7095L3.04508 33.576L3.08475 33.4223L3.13347 33.2802L3.19225 33.1433L3.2929 32.957L3.32221 32.911C3.40339 32.7862 3.49811 32.671 3.60429 32.5675L3.67333 32.5033L3.75022 32.4386L3.8833 32.3406L4.015 32.259C4.10113 32.2102 4.19122 32.1675 4.28468 32.1317L4.47418 32.0698L4.61218 32.0376L4.76185 32.014L4.91777 32.0016L11 32C12.1046 32 13 32.8954 13 34C13 35.0544 12.1841 35.9182 11.1493 35.9945L11 36L9.22131 36.001C12.8494 40.431 18.2736 43 24 43C34.3806 43 42.8168 34.6754 42.9971 24.3378L43 24V23C43 21.8954 43.8954 21 45 21Z" class="svg-primary-fill" clip-rule="evenodd"/>
  </g>
</svg>
